<svg xmlns="http://www.w3.org/2000/svg" viewBox="0 0 73.18 73.18"><title>Search0</title><style>path { fill: #ed2275}</style><g id="Layer_2" data-name="Layer 2"><g id="Layer_1-2" data-name="Layer 1"><path d="M71.39,62.69,59.62,50.92a6.15,6.15,0,0,0-6.39-1.43l-5.3-5.3a27,27,0,1,0-3.74,3.74l5.3,5.3a6.15,6.15,0,0,0,1.43,6.38L62.69,71.38a6.15,6.15,0,0,0,8.7-8.69ZM11.65,42.41a21.75,21.75,0,1,1,30.76,0A21.78,21.78,0,0,1,11.65,42.41Z"/><path d="M43.4,27A16.38,16.38,0,0,0,27,10.67,2.65,2.65,0,0,0,27,16,11.09,11.09,0,0,1,38.11,27a2.65,2.65,0,1,0,5.29,0Z"/></g></g></svg>
