<svg xmlns="http://www.w3.org/2000/svg" viewBox="0 0 101.93 79.25">
	<title>Quotes0</title>
	<style>
		path { fill: #fff; }
		
	</style>
	<g id="Layer_2" data-name="Layer 2">
		<g id="Layer_1-2" data-name="Layer 1"><path d="M0,56.57C0,40.77,10.91,16.08,41.64,0L46.8,7.75C27.85,21.54,21.54,37.33,21.25,45.37c8,1.43,14.93,8.61,14.93,16.94A17.22,17.22,0,0,1,19,79.25C8.61,79.25,0,71.5,0,56.57Zm55.13,0C55.13,40.77,66,16.08,96.77,0l5.16,7.75C83,21.54,76.67,37.33,76.38,45.37c8,1.43,14.93,8.61,14.93,16.94A17.22,17.22,0,0,1,74.08,79.25C64,79.25,55.13,71.5,55.13,56.57Z"/></g></g></svg>
