<?xml version="1.0" encoding="utf-8"?>
<!-- Generator: Adobe Illustrator 23.0.2, SVG Export Plug-In . SVG Version: 6.00 Build 0)  -->
<svg version="1.1" id="Layer_1" xmlns="http://www.w3.org/2000/svg" xmlns:xlink="http://www.w3.org/1999/xlink" x="0px" y="0px"
	 viewBox="0 0 86 90" style="enable-background:new 0 0 86 90;" xml:space="preserve">
<style type="text/css">
	.st0{fill:#ED2275;}
</style>
<g transform="translate(0,-952.36218)">
	<path class="st0" d="M41.2,953l-40,30c-0.7,0.6-1.2,1.5-1.2,2.4v54c0,1.6,1.4,3,3,3h27c1.6,0,3-1.4,3-3v-25h20v25c0,1.6,1.4,3,3,3
		h27c1.6,0,3-1.4,3-3v-54c0-0.9-0.4-1.8-1.2-2.4l-40-30C43.5,952.1,42.4,952.2,41.2,953L41.2,953z M43,959.1l37,27.7v49.5H59v-25
		c0-1.6-1.4-3-3-3H30c-1.6,0-3,1.4-3,3v25H6v-49.5L43,959.1z"/>
</g>
</svg>
