<svg xmlns="http://www.w3.org/2000/svg" viewBox="0 0 109.93 109.93"><defs><style>.cls-1{fill:#fbbb00;}.cls-2{fill:#518ef8;}.cls-3{fill:#28b446;}.cls-4{fill:#f14336;}</style></defs><title>Google0</title><g id="Layer_2" data-name="Layer 2"><g id="Layer_1-2" data-name="Layer 1"><path class="cls-1" d="M24.36,66.43a32.84,32.84,0,0,1-.31-22.08h0L6.15,29.69h0A55,55,0,0,0,6.55,81h0L24.36,66.43Z"/><path class="cls-2" d="M109,44.7H56.17V66.44H85.56A32.72,32.72,0,0,1,71.47,83.17h0l17.9,14.66h0A55,55,0,0,0,109,44.7Z"/><path class="cls-3" d="M71.47,83.17A32.69,32.69,0,0,1,24.36,66.43h0L6.55,81h0A55,55,0,0,0,89.38,97.83h0L71.47,83.17Z"/><path class="cls-4" d="M24.05,44.35h0A32.69,32.69,0,0,1,72.24,27.23L90.05,12.65a55,55,0,0,0-83.9,17h0Z"/></g></g></svg>