<?xml version="1.0" encoding="utf-8"?>
<!-- Generator: Adobe Illustrator 23.0.2, SVG Export Plug-In . SVG Version: 6.00 Build 0)  -->
<svg version="1.1" id="Layer_1" xmlns="http://www.w3.org/2000/svg" xmlns:xlink="http://www.w3.org/1999/xlink" x="0px" y="0px"
	 viewBox="0 0 512 512" style="enable-background:new 0 0 512 512;" xml:space="preserve">
<style type="text/css">
	.st0{fill:#ED2275;}
</style>
<g>
	<path class="st0" d="M27.9,27.9v456.3h456.3V27.9H27.9z M406.9,136l-24.5,23.5c-2.1,1.6-3.2,4.3-2.7,6.9v172.4
		c-0.4,2.6,0.6,5.3,2.7,6.9l23.9,23.5v5.2H286.1V369l24.8-24c2.4-2.4,2.4-3.1,2.4-6.9V198.8l-68.8,174.8h-9.3l-80.1-174.8V316
		c-0.7,4.9,1,9.9,4.4,13.4l32.2,39.1v5.2h-91.3v-5.2l32.2-39.1c3.4-3.6,5-8.6,4.1-13.4V180.5c0.4-3.8-1.1-7.5-3.9-10L104.3,136v-5.2
		h88.9l68.7,150.6l60.4-150.6H407v5.2H406.9z"/>
</g>
</svg>
