<?xml version="1.0" encoding="utf-8"?>
<!-- Generator: Adobe Illustrator 23.0.2, SVG Export Plug-In . SVG Version: 6.00 Build 0)  -->
<svg version="1.1" id="City" xmlns="http://www.w3.org/2000/svg" xmlns:xlink="http://www.w3.org/1999/xlink" x="0px" y="0px"
	 viewBox="0 0 609.6 473.9" style="enable-background:new 0 0 609.6 473.9;" xml:space="preserve">
<style type="text/css">
	.st0{fill:#17B19F;}
</style>
<g>
	<path class="st0" d="M0,338.3C0,243.8,65.2,96.2,249,0l30.9,46.4c-113.3,82.4-151.1,176.9-152.8,224.9
		c48.1,8.6,89.3,51.5,89.3,101.3c0,56.7-48.1,101.3-103,101.3C51.5,473.9,0,427.6,0,338.3z M329.7,338.3
		c0-94.4,65.2-242.1,249-338.3l30.9,46.4c-113.3,82.4-151.1,176.9-152.8,224.9c48.1,8.6,89.3,51.5,89.3,101.3
		c0,56.7-48.1,101.3-103,101.3C382.9,473.9,329.7,427.6,329.7,338.3z"/>
</g>
</svg>
