<?xml version="1.0" encoding="utf-8"?>
<!-- Generator: Adobe Illustrator 23.0.2, SVG Export Plug-In . SVG Version: 6.00 Build 0)  -->
<svg version="1.1" id="Layer_1" xmlns="http://www.w3.org/2000/svg" xmlns:xlink="http://www.w3.org/1999/xlink" x="0px" y="0px"
	 viewBox="0 0 78.9 73.5" style="enable-background:new 0 0 78.9 73.5;" xml:space="preserve">
<style type="text/css">
	.st0{fill:#ED2275;}
</style>
<path class="st0" d="M70.4,26.3c-5.3-5.1-11.5-7.6-18.9-7.6H18h-7.1l5.6-4.5l12.3-9.8L25.2,0L1.3,19.1l-0.1,0l-0.1,0
	c-0.1,0.1-0.2,0.2-0.3,0.2l-0.2,0.3c0,0,0,0.1-0.1,0.1C0.2,20.3,0,20.8,0,21.4l0,0.4l0,0.1c0,0.2,0,0.3,0.1,0.5c0,0.1,0,0.1,0.1,0.2
	c0,0,0.1,0.1,0.1,0.2c0.1,0.2,0.3,0.5,0.5,0.7l0.1,0.1l0.1,0.1l0,0L1,23.7c0,0,0.1,0.1,0.1,0.1c0,0,0,0,0,0l0,0l0.1,0l0,0L26,43.8
	l3.5-4.4L16.3,28.8l-5.5-4.4h7.1h33.6c6.7,0,11.9,2.2,15.5,6.5c3,3.6,6.2,9.5,6.2,15.2c0,6-2.1,11.1-6.4,15.4
	c-4.2,4.2-9.4,6.4-15.4,6.4H15.4v5.6h36.2c7.6,0,14-2.6,19.4-8c5.4-5.4,8-11.7,8-19.4c0-7.6-2.6-14-8-19.4L70.4,26.3z"/>
</svg>
