<?xml version="1.0" encoding="utf-8"?>
<!-- Generator: Adobe Illustrator 23.0.2, SVG Export Plug-In . SVG Version: 6.00 Build 0)  -->
<svg version="1.1" id="City" xmlns="http://www.w3.org/2000/svg" xmlns:xlink="http://www.w3.org/1999/xlink" x="0px" y="0px"
	 viewBox="0 0 746.8 737.5" style="enable-background:new 0 0 746.8 737.5;" xml:space="preserve">
<style type="text/css">
	.st0{fill:#F3F9F9;}
</style>
<g>
	<g>
		<g>
			<g>
				<path class="st0" d="M155.8,6C46,33.3-21.2,144.8,6.1,254.6c25.6,103.4,128,170.7,233.3,152.9l210.1-52.2c2.4-0.6,3.9-3,3.4-5.4
					l-49.4-198.5c-0.1-0.4-0.2-0.8-0.5-1.2C373.6,44.1,262.9-20.6,155.8,6"/>
				<path class="st0" d="M456.5,383.7l-154.3,38.2c-0.3,0.1-0.6,0.2-0.9,0.3c-83.1,23.1-133.7,109.7-112.9,193.5
					c21.3,85.9,108.6,138.4,194.5,117.1c80.9-20.1,133.5-100.1,119.6-182.6L461.9,387C461.3,384.6,458.9,383.1,456.5,383.7"/>
				<path class="st0" d="M556.6,12.7c-77.2,19.2-127.4,95.6-114.2,174.4l38.7,155.8c0.6,2.4,3,3.9,5.4,3.3l147.2-36.5
					c0.1,0,0.1,0,0.1-0.1c79.8-21.7,128.5-104.6,108.6-185C722,42.6,638.7-7.6,556.6,12.7"/>
			</g>
		</g>
	</g>
</g>
</svg>
