<svg xmlns="http://www.w3.org/2000/svg" viewBox="0 0 237.74 122.02"><defs><style>.cls-1{fill:none;}.cls-2{fill:#fff;}.cls-3{fill:#0071ce;}.cls-4{fill:#eba900;}.cls-5{fill:#e81f76;}.cls-6{fill:#853275;}.cls-7{fill:#3dae2b;}</style></defs><title>HHHO-logo0</title><g id="Layer_2" data-name="Layer 2"><g id="Layer_1-2" data-name="Layer 1"><path class="cls-1" d="M201.88,103.59l1.49,0c.35,0,.68,0,1,0a6.38,6.38,0,0,0,3-1.33c.94-.69,1.38-1.19,1.32-1.49A.93.93,0,0,0,208,100a5.42,5.42,0,0,0-1.57-.18,7.23,7.23,0,0,0-.79,0,6.94,6.94,0,0,0-2.49.67,8,8,0,0,0-2.34,2.42l0,.72a2.3,2.3,0,0,1,.63-.1Z"/><path class="cls-1" d="M61.42,15.74h.5l1.63,0c.37,0,.74,0,1.09.05A7.07,7.07,0,0,0,68,14.31c1-.75,1.5-1.3,1.43-1.63a1,1,0,0,0-.83-.84,6,6,0,0,0-1.71-.19,8.7,8.7,0,0,0-.87,0,7.89,7.89,0,0,0-2.71.73,8.7,8.7,0,0,0-2.54,2.64l0,.78A2.61,2.61,0,0,1,61.42,15.74Z"/><path class="cls-1" d="M101.56,106.14l1.49,0c.34,0,.68,0,1,0a6.26,6.26,0,0,0,3-1.32c.94-.69,1.38-1.19,1.31-1.49a.91.91,0,0,0-.76-.77,5.42,5.42,0,0,0-1.57-.18,7.7,7.7,0,0,0-.8,0,7.07,7.07,0,0,0-2.49.67,8,8,0,0,0-2.33,2.42l0,.71a2.28,2.28,0,0,1,.63-.09Z"/><path class="cls-1" d="M89.43,20.14c.57.12,1.41.27,2.53.44A18,18,0,0,0,94.05,20c1.42-.56,2.11-1.26,2.09-2.08A3.55,3.55,0,0,0,94,14.84a7.88,7.88,0,0,0-4.09-1,2.72,2.72,0,0,0-2.12,1.39,5.2,5.2,0,0,0-.9,3.17C86.89,19.14,87.75,19.71,89.43,20.14Z"/><path class="cls-1" d="M130.9,105.31a7.38,7.38,0,0,0-3.76-.88,2.51,2.51,0,0,0-2,1.29,4.77,4.77,0,0,0-.82,2.9c0,.65.8,1.17,2.35,1.57.51.11,1.29.24,2.32.4a15,15,0,0,0,1.92-.54q1.95-.78,1.92-1.92A3.28,3.28,0,0,0,130.9,105.31Z"/><path class="cls-1" d="M162.4,96.57a10.94,10.94,0,0,0-1.25-.75,7.31,7.31,0,0,0-1.26-.48,5.5,5.5,0,0,0-1-.22,7,7,0,0,0-1.17-.11,5.34,5.34,0,0,0-3.51,1.71,4.66,4.66,0,0,0-1.68,3.48l.06,2.32a5.7,5.7,0,0,0,1.55,4,6,6,0,0,0,2.78,1.53,6.17,6.17,0,0,0,1.48.26l2.82-.08a3,3,0,0,0,2.61-1.66,6.41,6.41,0,0,0,.8-3.48,12.6,12.6,0,0,0-1-4.24A6.35,6.35,0,0,0,162.4,96.57Z"/><path class="cls-2" d="M48.09,58.62c-1.64.24-2.53.06-2.66-.55l-1.18-5.48c-.31-1.42-.56-2.45-.75-3.08-.65-2.08-1.44-3-2.38-2.81a2.06,2.06,0,0,0-1.16.65,1.27,1.27,0,0,0-.3,1.19l1,4.41a1.58,1.58,0,0,0,.43.79.43.43,0,0,0,.25.19l1.36,6.34A20.21,20.21,0,0,1,38,61.75a26.16,26.16,0,0,0-4.67,1.41l-1.57.34-.86-4a18,18,0,0,0-.33-3.06c-.09-.57-.23-1.42-.42-2.56,0-.15-.07-.32-.11-.5s-.08-.36-.11-.54a3.42,3.42,0,0,0-.65-1.45,1.3,1.3,0,0,0-1.36-.33c-.8.18-1.22.89-1.25,2.16A46.66,46.66,0,0,0,28,62.3a37,37,0,0,1,.66,5.22q.47,6.44.55,6.81c0,.21.1.53.16,1a3,3,0,0,0,.64,1.4,1.35,1.35,0,0,0,1.37.29c.75-.16,1.16-1.34,1.22-3.54a29.79,29.79,0,0,0-.73-7.1,1.75,1.75,0,0,0,.73.14,13.09,13.09,0,0,0,1.56-.27c.46-.1,1.4-.35,2.83-.75q3.78-1,5.07-1.32c.35-.07.64-.13.87-.16l.72-.1c1.49,6.91,3,10.22,4.45,9.9a1.84,1.84,0,0,0,1.24-.71,2.28,2.28,0,0,0,.08-1.58c-.43-1.22-.75-2.16-1-2.84q-1-3.07-1.23-4.14a3.17,3.17,0,0,1,0-2,1.6,1.6,0,0,1,1.13-.75l.62-.07.9-.13a1.42,1.42,0,0,0,.9-.52,1.68,1.68,0,0,0,.06-1.26C50.67,58.75,49.74,58.37,48.09,58.62Z"/><path class="cls-2" d="M88.1,53.74a2.54,2.54,0,0,0-.42-1.31,1.14,1.14,0,0,0-1-.6c-.83,0-1.23.48-1.2,1.39,0,.16,0,.48,0,1s0,.9,0,1.21,0,.63,0,1a8.78,8.78,0,0,1-.09,1c-1.07-.73-2.12-1.47-3.15-2.23a9.62,9.62,0,0,0-5.61-1.9,10.69,10.69,0,0,0-7.82,3.61q-2.78,3-2.71,5.71a7.67,7.67,0,0,0,3.17,6.22q3.48,2.66,10.08,2.49l.7,0h.66a4.21,4.21,0,0,0,1-.25l2-.65a11.39,11.39,0,0,0-.58,1.67A5.07,5.07,0,0,0,83,73.52c0,.85.44,1.27,1.26,1.25s1.31-.53,1.61-1.53.36-1.71.56-2.55c.71-2.44,1.12-4,1.24-4.6a31.57,31.57,0,0,0,.6-7.39Zm-5,13.84a7,7,0,0,1-4,1.2,13.39,13.39,0,0,1-7.19-1.58,5.33,5.33,0,0,1-3-4.62c0-1.26.82-2.67,2.55-4.24a8.09,8.09,0,0,1,5.19-2.42q1.69,0,4.5,1.8,3.69,2.41,3.78,5.9A4.44,4.44,0,0,1,83.13,67.58Z"/><path class="cls-2" d="M127.65,49.44a7,7,0,0,0-5.26-1.38,6.82,6.82,0,0,0-3,.84,8.78,8.78,0,0,1-2.08,1.2,2.33,2.33,0,0,1-.08-.56,6.18,6.18,0,0,0-.11-.61,2.16,2.16,0,0,0-.48-1.19,1.34,1.34,0,0,0-1.27-.39A1.9,1.9,0,0,0,114,48a1.73,1.73,0,0,0-.28,1.18,4.08,4.08,0,0,0,.17.77c.07.26.15.48.22.67a55.17,55.17,0,0,1,.41,6,41.46,41.46,0,0,1-.08,4.82l.49,4.5c0,.05,0,.25.07.61a3.63,3.63,0,0,0,.48,1.52,1.29,1.29,0,0,0,1.36.52c.92-.1,1.44-1,1.55-2.73a35.77,35.77,0,0,0-.31-5.22c0-.52-.14-1.35-.25-2.5a5.78,5.78,0,0,1,.07-2.31,14.51,14.51,0,0,1,1-1.87A5.66,5.66,0,0,1,120.43,52a5,5,0,0,1,2.32-.76c1.38-.15,2.52.53,3.43,2s1.67,2.22,2.28,2.16c1.2-.13,1.75-.7,1.64-1.7A6.24,6.24,0,0,0,127.65,49.44Z"/><path class="cls-2" d="M155.62,63l.12,4.85s0,.27,0,.65a4,4,0,0,0,.38,1.66,1.38,1.38,0,0,0,1.4.68c1,0,1.62-1,1.9-2.78a38.39,38.39,0,0,0,.14-5.58c0-.56,0-1.46-.05-2.69a6.22,6.22,0,0,1,.28-2.46,15.54,15.54,0,0,1,1.29-1.9,6.16,6.16,0,0,1,1.77-1.85,5.53,5.53,0,0,1,2.54-.6c1.48,0,2.64.79,3.48,2.47s1.59,2.52,2.23,2.5c1.3,0,1.93-.58,1.91-1.66a6.69,6.69,0,0,0-2.23-4.83,7.39,7.39,0,0,0-5.48-1.94,7.26,7.26,0,0,0-3.3.62,9.64,9.64,0,0,1-2.32,1.1,2.91,2.91,0,0,1,0-.61,5.76,5.76,0,0,0-.06-.66,2.32,2.32,0,0,0-.41-1.32,1.44,1.44,0,0,0-1.32-.52,2,2,0,0,0-1.52.52,1.77,1.77,0,0,0-.4,1.23,4.81,4.81,0,0,0,.1.84c.07.28.12.52.18.72a61.11,61.11,0,0,1-.09,6.43A46.45,46.45,0,0,1,155.62,63Z"/><path class="cls-2" d="M198.26,72.06a1.13,1.13,0,0,0,1,.29c.5,0,1.52-.94,3-2.8.49-.6.72-1.21,1.64-2.43l4.39-6.48A25.4,25.4,0,0,0,210,57q.93-2.37,2.1-5.64c.33-1,.17-1.41.53-2.39a1.44,1.44,0,0,0-.39-1,1.19,1.19,0,0,0-1-.38c-.7,0-1.17,1-2.43,3.94-.4,1-1,2.46-1.67,4.43Q205,53.74,203,51.55c-1.23-1.19-2.08-1.78-2.56-1.76a1.78,1.78,0,0,0-1.06.33,1.06,1.06,0,0,0-.41.93q0,.38,2.58,3.21A57,57,0,0,0,206,58.79L197.87,71A2.23,2.23,0,0,0,198.26,72.06Z"/><path class="cls-2" d="M95.4,58.87a17.92,17.92,0,0,1,.41,2l6.6-1a18.63,18.63,0,0,1-.22-2Z"/><path class="cls-2" d="M138.42,54.57a18.82,18.82,0,0,1,.14,2l4,.12c.09-.68.2-1.34.35-2C141.41,54.64,139.91,54.6,138.42,54.57Z"/><path class="cls-2" d="M61.74,63l-3.5.22c0,.68-.06,1.35-.13,2,1.23-.06,2.46-.14,3.69-.23,0-.53-.08-1.07-.08-1.62C61.72,63.28,61.74,63.16,61.74,63Z"/><path class="cls-2" d="M1.38,55.28a1,1,0,0,0-1.31.55,1,1,0,0,0,.55,1.31,107.64,107.64,0,0,0,18.23,5.59c0-.68,0-1.36.12-2A104.52,104.52,0,0,1,1.38,55.28Z"/><path class="cls-2" d="M183.31,60.6l4.89.56c0-.43-.07-.87-.07-1.31,0-.24,0-.47,0-.71l-4.83-.55c0,.23,0,.45,0,.68C183.38,59.72,183.34,60.16,183.31,60.6Z"/><path class="cls-2" d="M220.37,60.47a44.59,44.59,0,0,0,12.69-5.09,1,1,0,0,0-1-1.71,42.2,42.2,0,0,1-11.7,4.74c0,.48.07,1,.07,1.44C220.4,60.06,220.38,60.26,220.37,60.47Z"/><path class="cls-3" d="M58.25,62.94A19.7,19.7,0,0,0,19,60.71c-.07.66-.11,1.34-.12,2,0,.07,0,.14,0,.21a19.7,19.7,0,0,0,39.27,2.32c.07-.66.12-1.33.13-2C58.24,63.14,58.25,63,58.25,62.94ZM50.83,61a1.42,1.42,0,0,1-.9.52l-.9.13-.62.07a1.6,1.6,0,0,0-1.13.75,3.17,3.17,0,0,0,0,2q.22,1.07,1.23,4.14c.2.68.52,1.62,1,2.84a2.28,2.28,0,0,1-.08,1.58,1.84,1.84,0,0,1-1.24.71c-1.48.32-3-3-4.45-9.9L43,64c-.23,0-.52.09-.87.16q-1.29.28-5.07,1.32c-1.43.4-2.37.65-2.83.75a13.09,13.09,0,0,1-1.56.27,1.75,1.75,0,0,1-.73-.14,29.79,29.79,0,0,1,.73,7.1c-.06,2.2-.47,3.38-1.22,3.54a1.35,1.35,0,0,1-1.37-.29,3,3,0,0,1-.64-1.4c-.06-.44-.12-.76-.16-1s-.24-2.52-.55-6.81A37,37,0,0,0,28,62.3a46.66,46.66,0,0,1-1.37-9.08c0-1.27.45-2,1.25-2.16a1.3,1.3,0,0,1,1.36.33,3.42,3.42,0,0,1,.65,1.45c0,.18.07.36.11.54s.08.35.11.5c.19,1.14.33,2,.42,2.56a18,18,0,0,1,.33,3.06l.86,4,1.57-.34A26.16,26.16,0,0,1,38,61.75a20.21,20.21,0,0,0,4.65-1.48l-1.36-6.34a.43.43,0,0,1-.25-.19,1.58,1.58,0,0,1-.43-.79l-1-4.41a1.27,1.27,0,0,1,.3-1.19,2.06,2.06,0,0,1,1.16-.65c.94-.2,1.73.73,2.38,2.81.19.63.44,1.66.75,3.08l1.18,5.48c.13.61,1,.79,2.66.55s2.58.13,2.8,1.15A1.68,1.68,0,0,1,50.83,61Z"/><path class="cls-4" d="M78.87,46.26A17.13,17.13,0,0,0,61.74,63c0,.13,0,.25,0,.38,0,.55,0,1.09.08,1.62A17.15,17.15,0,0,0,96,63.41a16.84,16.84,0,0,0-.22-2.58,17.92,17.92,0,0,0-.41-2A17.14,17.14,0,0,0,78.87,46.26Zm8.75,19.83c-.12.63-.53,2.16-1.24,4.6-.2.84-.38,1.69-.56,2.55s-.84,1.51-1.61,1.53S83,74.37,83,73.52a5.07,5.07,0,0,1,.21-1.42,11.39,11.39,0,0,1,.58-1.67l-2,.65a4.21,4.21,0,0,1-1,.25h-.66l-.7,0q-6.6.17-10.08-2.49a7.67,7.67,0,0,1-3.17-6.22q-.06-2.74,2.71-5.71a10.69,10.69,0,0,1,7.82-3.61,9.62,9.62,0,0,1,5.61,1.9c1,.76,2.08,1.5,3.15,2.23a8.78,8.78,0,0,0,.09-1c0-.4,0-.75,0-1s0-.71,0-1.21,0-.81,0-1c0-.91.37-1.37,1.2-1.39a1.14,1.14,0,0,1,1,.6,2.54,2.54,0,0,1,.42,1.31l.12,5A31.57,31.57,0,0,1,87.62,66.09Z"/><path class="cls-4" d="M81.19,57.72q-2.81-1.84-4.5-1.8a8.09,8.09,0,0,0-5.19,2.42c-1.73,1.57-2.59,3-2.55,4.24a5.33,5.33,0,0,0,3,4.62,13.39,13.39,0,0,0,7.19,1.58,7,7,0,0,0,4-1.2,4.44,4.44,0,0,0,1.84-4Q84.88,60.14,81.19,57.72Z"/><path class="cls-5" d="M120.35,38.55a18.21,18.21,0,0,0-18.21,18.21c0,.35,0,.69,0,1a18.63,18.63,0,0,0,.22,2,18.2,18.2,0,0,0,36.15-3v-.19a18.82,18.82,0,0,0-.14-2A18.19,18.19,0,0,0,120.35,38.55Zm8.11,16.92c-.61.06-1.36-.66-2.28-2.16s-2.05-2.18-3.43-2a5,5,0,0,0-2.32.76,5.66,5.66,0,0,0-1.51,1.86,14.51,14.51,0,0,0-1,1.87,5.78,5.78,0,0,0-.07,2.31c.11,1.15.2,2,.25,2.5a35.77,35.77,0,0,1,.31,5.22c-.11,1.72-.63,2.63-1.55,2.73a1.29,1.29,0,0,1-1.36-.52,3.63,3.63,0,0,1-.48-1.52c0-.36-.06-.56-.07-.61l-.49-4.5a41.46,41.46,0,0,0,.08-4.82,55.17,55.17,0,0,0-.41-6c-.07-.19-.15-.41-.22-.67a4.08,4.08,0,0,1-.17-.77A1.73,1.73,0,0,1,114,48a1.9,1.9,0,0,1,1.38-.6,1.34,1.34,0,0,1,1.27.39,2.16,2.16,0,0,1,.48,1.19,6.18,6.18,0,0,1,.11.61,2.33,2.33,0,0,0,.08.56,8.78,8.78,0,0,0,2.08-1.2,6.82,6.82,0,0,1,3-.84,7,7,0,0,1,5.26,1.38,6.24,6.24,0,0,1,2.45,4.33C130.21,54.77,129.66,55.34,128.46,55.47Z"/><path class="cls-6" d="M183.31,60.6c0-.44.07-.88.07-1.33,0-.23,0-.45,0-.68A20.48,20.48,0,0,0,142.9,54.7c-.15.65-.26,1.31-.35,2a21.76,21.76,0,0,0-.18,2.58,20.49,20.49,0,0,0,40.94,1.33Zm-27.08-9.2c-.06-.2-.11-.44-.18-.72a4.81,4.81,0,0,1-.1-.84,1.77,1.77,0,0,1,.4-1.23,2,2,0,0,1,1.52-.52,1.44,1.44,0,0,1,1.32.52,2.32,2.32,0,0,1,.41,1.32,5.76,5.76,0,0,1,.06.66,2.91,2.91,0,0,0,0,.61A9.64,9.64,0,0,0,162,50.1a7.26,7.26,0,0,1,3.3-.62,7.39,7.39,0,0,1,5.48,1.94A6.69,6.69,0,0,1,173,56.25c0,1.08-.61,1.63-1.91,1.66-.64,0-1.39-.82-2.23-2.5s-2-2.51-3.48-2.47a5.53,5.53,0,0,0-2.54.6,6.16,6.16,0,0,0-1.77,1.85,15.54,15.54,0,0,0-1.29,1.9,6.22,6.22,0,0,0-.28,2.46c0,1.23,0,2.13.05,2.69a38.39,38.39,0,0,1-.14,5.58c-.28,1.83-.91,2.76-1.9,2.78a1.38,1.38,0,0,1-1.4-.68,4,4,0,0,1-.38-1.66c0-.38,0-.6,0-.65L155.62,63a46.45,46.45,0,0,0,.52-5.13A61.11,61.11,0,0,0,156.23,51.4Z"/><path class="cls-7" d="M188.2,61.16a16.12,16.12,0,0,0,32.17-.69c0-.21,0-.41,0-.62,0-.48,0-1-.07-1.44a16.12,16.12,0,0,0-32.16.73c0,.24,0,.47,0,.71C188.13,60.29,188.16,60.73,188.2,61.16Zm13.31-6.9q-2.56-2.84-2.58-3.21a1.06,1.06,0,0,1,.41-.93,1.78,1.78,0,0,1,1.06-.33c.48,0,1.33.57,2.56,1.76q2.06,2.19,4.16,4.38c.71-2,1.27-3.44,1.67-4.43,1.26-3,1.73-3.92,2.43-3.94a1.19,1.19,0,0,1,1,.38,1.44,1.44,0,0,1,.39,1c-.36,1-.2,1.43-.53,2.39Q210.88,54.58,210,57a25.4,25.4,0,0,1-1.65,3.69l-4.39,6.48c-.92,1.22-1.15,1.83-1.64,2.43-1.52,1.86-2.54,2.79-3,2.8a1.13,1.13,0,0,1-1-.29,2.23,2.23,0,0,1-.39-1L206,58.79A57,57,0,0,1,201.51,54.26Z"/><path class="cls-2" d="M40.67,21.23c.58,0,1-.83,1.4-2.45a22.62,22.62,0,0,0,.45-5.36,1.36,1.36,0,0,0,.52.21,9.93,9.93,0,0,0,1.19,0c.35,0,1.09-.06,2.2-.15,2-.16,3.28-.25,3.94-.27H51l.55,0q.2,8,1.91,7.94a1.32,1.32,0,0,0,1-.35,1.61,1.61,0,0,0,.28-1.15c-.15-1-.25-1.71-.3-2.24-.21-1.61-.32-2.68-.33-3.23a2.31,2.31,0,0,1,.29-1.5,1.19,1.19,0,0,1,.93-.39l.47,0,.68,0a1.06,1.06,0,0,0,.74-.26,1.23,1.23,0,0,0,.22-.92c0-.78-.65-1.2-1.9-1.25s-1.89-.3-1.9-.78L53.57,5c0-1.1-.07-1.9-.12-2.39C53.26,1,52.81.15,52.08.17a1.6,1.6,0,0,0-.95.32,1,1,0,0,0-.38.84l.08,3.4a1.19,1.19,0,0,0,.21.64.32.32,0,0,0,.16.17l.12,4.88a15,15,0,0,1-3.65.45,19.59,19.59,0,0,0-3.65.39l-1.21,0-.08-3.07a13.12,13.12,0,0,0,.19-2.32c0-.43,0-1.08,0-1.95,0-.12,0-.25,0-.38s0-.28,0-.42A2.45,2.45,0,0,0,42.67,2a1,1,0,0,0-1-.44c-.61,0-1,.49-1.22,1.42a34.79,34.79,0,0,0-.25,6.91,29.79,29.79,0,0,1-.25,4c-.37,3.21-.55,4.92-.55,5.11s0,.41,0,.74a2.14,2.14,0,0,0,.28,1.13A1,1,0,0,0,40.67,21.23Z"/><path class="cls-2" d="M58.57,17.05a8.86,8.86,0,0,0,2.58,5.31,7,7,0,0,0,5.24,2h.37l.49,0A12.11,12.11,0,0,0,73.09,22c1.32-1,2-1.73,2-2.18a.89.89,0,0,0-.26-.67A1.05,1.05,0,0,0,74,18.9c-.13,0-1.39.72-3.8,2.13a8.75,8.75,0,0,1-3.38,1.24,2.24,2.24,0,0,1-.43,0,4.68,4.68,0,0,1-3-1,9.13,9.13,0,0,1-2.39-2.77L61,18.05l.71-.13a2.89,2.89,0,0,0,.73.08h1.63l.5,0H65a8.21,8.21,0,0,0,5-2.28,4.74,4.74,0,0,0,1.65-3.52,2.59,2.59,0,0,0-1.74-2.46,5.42,5.42,0,0,0-2.37-.41l-3.71.47A5.61,5.61,0,0,0,59.94,12a6.61,6.61,0,0,0-1.43,4.37,3.13,3.13,0,0,1,0,.34A2.18,2.18,0,0,0,58.57,17.05Zm4.69-4.62A7.89,7.89,0,0,1,66,11.7a8.7,8.7,0,0,1,.87,0,6,6,0,0,1,1.71.19,1,1,0,0,1,.83.84c.07.33-.41.88-1.43,1.63a7.07,7.07,0,0,1-3.31,1.44c-.35,0-.72-.05-1.09-.05l-1.63,0h-.5a2.61,2.61,0,0,0-.68.11l0-.78A8.7,8.7,0,0,1,63.26,12.43Z"/><path class="cls-2" d="M77.32,17.63c-.09,1-.19,1.94-.29,2.9a2.11,2.11,0,0,0,.27,1.18,1.05,1.05,0,0,0,.91.33c.89,0,1.48-1.17,1.78-3.44a30.9,30.9,0,0,0,.16-4.55q0-.6.32-5.86c.09-1.4.12-2.31.11-2.75a10.45,10.45,0,0,0-.73-3.94C79.4.49,79,0,78.49,0a1.51,1.51,0,0,0-.83.23,1.33,1.33,0,0,0-.47,1.22,5.13,5.13,0,0,0,.32,1.44,10,10,0,0,1,.62,2.62c0,1.21,0,3.19-.25,5.91C77.74,13.29,77.56,15.36,77.32,17.63Z"/><path class="cls-2" d="M83.46,33c.79,0,1.29-.78,1.53-2.26s.23-3.26.38-5.06a8.1,8.1,0,0,1,1.12-4,9.85,9.85,0,0,0,2.16.8A12.59,12.59,0,0,0,92,23a8.3,8.3,0,0,0,5-1.67,3.77,3.77,0,0,0,1.82-3,6.3,6.3,0,0,0-3.65-5.75,10.81,10.81,0,0,0-5.34-1.22,3.54,3.54,0,0,0-1.51.36,6,6,0,0,0-1.13.77,1.1,1.1,0,0,1-.47-.22,1.06,1.06,0,0,0-.66-.22q-1,0-1.56,2.25a13.93,13.93,0,0,0-.34,3.49l0,1.94s-.21,1-.55,2.91c-.4,2.21-.72,4.07-1,5.57a31.32,31.32,0,0,0-.49,3.7,1.14,1.14,0,0,0,.33.9A1.37,1.37,0,0,0,83.46,33Zm4.31-17.77a2.72,2.72,0,0,1,2.12-1.39,7.88,7.88,0,0,1,4.09,1,3.55,3.55,0,0,1,2.16,3.07c0,.82-.67,1.52-2.09,2.08a18,18,0,0,1-2.09.59c-1.12-.17-2-.32-2.53-.44-1.68-.43-2.54-1-2.56-1.7A5.2,5.2,0,0,1,87.77,15.27Z"/><path class="cls-2" d="M95.73,100.84c-1.15,0-1.73-.28-1.74-.71l-.1-3.87c0-1-.06-1.74-.11-2.19q-.25-2.25-1.26-2.22a1.49,1.49,0,0,0-.87.29.9.9,0,0,0-.35.77L91.38,96a1.06,1.06,0,0,0,.18.6.43.43,0,0,0,.15.16l.11,4.47a13.42,13.42,0,0,1-3.35.41,18.42,18.42,0,0,0-3.35.36l-1.11,0-.07-2.82a13.17,13.17,0,0,0,.17-2.13c0-.39,0-1,0-1.79,0-.11,0-.23,0-.35s0-.26,0-.38a2.23,2.23,0,0,0-.25-1.07.89.89,0,0,0-.88-.4c-.57,0-.94.45-1.13,1.3a32.07,32.07,0,0,0-.23,6.35,27.56,27.56,0,0,1-.22,3.63c-.35,2.95-.52,4.52-.51,4.7s0,.37,0,.67a2,2,0,0,0,.25,1,.94.94,0,0,0,.9.37c.53,0,1-.76,1.28-2.25a20.55,20.55,0,0,0,.41-4.91,1.38,1.38,0,0,0,.48.19c.16,0,.53,0,1.1,0,.32,0,1,0,2-.14,1.8-.15,3-.23,3.61-.25h.61l.5,0c.12,4.89.71,7.32,1.75,7.29a1.25,1.25,0,0,0,.93-.32,1.46,1.46,0,0,0,.26-1.06c-.13-.88-.23-1.57-.28-2q-.28-2.22-.3-3a2.21,2.21,0,0,1,.26-1.38,1.11,1.11,0,0,1,.86-.36l.43,0,.63,0a1,1,0,0,0,.68-.24,1.2,1.2,0,0,0,.2-.84C97.47,101.27,96.88,100.88,95.73,100.84Z"/><path class="cls-2" d="M112.68,109.05a36.13,36.13,0,0,0-3.48,2,8.14,8.14,0,0,1-3.11,1.13,3,3,0,0,1-.4,0,4.32,4.32,0,0,1-2.73-.89,8.53,8.53,0,0,1-2.2-2.54l-.07-.48.65-.13a2.53,2.53,0,0,0,.68.08h2.32a7.59,7.59,0,0,0,4.62-2.1,4.33,4.33,0,0,0,1.51-3.23,2.37,2.37,0,0,0-1.6-2.26,5,5,0,0,0-2.17-.38l-3.41.44a5.15,5.15,0,0,0-3.55,2,6.06,6.06,0,0,0-1.31,4c0,.07,0,.17,0,.31a2,2,0,0,0,0,.36,8.14,8.14,0,0,0,2.38,4.87,6.4,6.4,0,0,0,4.8,1.83H106l.45,0a11,11,0,0,0,5.36-2.14c1.21-.92,1.81-1.58,1.8-2a.83.83,0,0,0-.24-.61A1,1,0,0,0,112.68,109.05Zm-12.23-3.52a8,8,0,0,1,2.33-2.42,7.07,7.07,0,0,1,2.49-.67,7.7,7.7,0,0,1,.8,0,5.42,5.42,0,0,1,1.57.18.91.91,0,0,1,.76.77c.07.3-.37.8-1.31,1.49a6.26,6.26,0,0,1-3,1.32c-.32,0-.66,0-1,0l-1.49,0h-.46a2.28,2.28,0,0,0-.63.09Z"/><path class="cls-2" d="M116.77,91.69a1.37,1.37,0,0,0-.76.21,1.22,1.22,0,0,0-.43,1.13,4.53,4.53,0,0,0,.29,1.32,9.06,9.06,0,0,1,.57,2.4c0,1.12,0,2.93-.23,5.42q-.19,2.6-.51,5.71c-.09.89-.18,1.78-.28,2.67a2,2,0,0,0,.26,1.08,1,1,0,0,0,.83.3c.82,0,1.36-1.08,1.63-3.16a26.24,26.24,0,0,0,.15-4.18c0-.36.09-2.15.29-5.37.09-1.29.12-2.13.11-2.53a9.74,9.74,0,0,0-.67-3.62C117.6,92.14,117.19,91.68,116.77,91.69Z"/><path class="cls-2" d="M132,103.23a9.84,9.84,0,0,0-4.9-1.12,3.07,3.07,0,0,0-1.39.33,5.31,5.31,0,0,0-1,.7,1,1,0,0,1-.43-.2,1,1,0,0,0-.61-.2c-.62,0-1.1.7-1.43,2.06a12.68,12.68,0,0,0-.31,3.21l0,1.78s-.19.89-.5,2.67q-.56,3-.9,5.11a29.22,29.22,0,0,0-.45,3.4,1.06,1.06,0,0,0,.3.83,1.28,1.28,0,0,0,.86.22c.72,0,1.19-.7,1.4-2.06s.22-3,.36-4.66a7.38,7.38,0,0,1,1-3.64,9.53,9.53,0,0,0,2,.74,11.19,11.19,0,0,0,3.08.38,7.67,7.67,0,0,0,4.58-1.52,3.5,3.5,0,0,0,1.67-2.76A5.75,5.75,0,0,0,132,103.23Zm-1,6.82a15,15,0,0,1-1.92.54c-1-.16-1.81-.29-2.32-.4-1.55-.4-2.33-.92-2.35-1.57a4.77,4.77,0,0,1,.82-2.9,2.51,2.51,0,0,1,2-1.29,7.38,7.38,0,0,1,3.76.88,3.28,3.28,0,0,1,2,2.82Q132.91,109.27,131,110.05Z"/><path class="cls-2" d="M163.8,95.51a8.87,8.87,0,0,0-6.59-2.41q-2,.06-4.31,2.58t-2.25,4.8l.06,2.43a6.76,6.76,0,0,0,3.11,5.85,7.52,7.52,0,0,0,4.39,1.35l3.42-.08a4.59,4.59,0,0,0,3.65-2,5.74,5.74,0,0,0,1.3-3.68l-.06-2.58A8.55,8.55,0,0,0,163.8,95.51Zm0,11.1a3,3,0,0,1-2.61,1.66l-2.82.08a6.17,6.17,0,0,1-1.48-.26,6,6,0,0,1-2.78-1.53,5.7,5.7,0,0,1-1.55-4l-.06-2.32a4.66,4.66,0,0,1,1.68-3.48A5.34,5.34,0,0,1,157.74,95a7,7,0,0,1,1.17.11,5.5,5.5,0,0,1,1,.22,7.31,7.31,0,0,1,1.26.48,10.94,10.94,0,0,1,1.25.75,6.35,6.35,0,0,1,1.25,2.32,12.6,12.6,0,0,1,1,4.24A6.41,6.41,0,0,1,163.85,106.61Z"/><path class="cls-2" d="M182.63,96.71a24.6,24.6,0,0,0-3.48,1.06,28.27,28.27,0,0,1-3.33,1.06c0-.54,0-3.69,0-3.92s0-.35-.07-.35,0-.16.05-.25,0-.23,0-.38a.86.86,0,0,0-.25-.59,1,1,0,0,0-.8-.22,1.58,1.58,0,0,0-.88.26.79.79,0,0,0-.32.69c0,.72,0,4.14,0,4.74s0,.9,0,.92l-3.47,1.14c-1,.44-1.46,1-1.45,1.58a.93.93,0,0,0,1.08,1,1.91,1.91,0,0,0,1-.37,6.66,6.66,0,0,1,2.77-1H174l.52,6.38s.68,5.27,6.43,3.07c.44-.17,1.21-1.94-1-1.39s-3.13-.65-3.24-1.54-.39-3.66-.39-3.66c-.06-.34-.09-1.9-.13-2.25a9.32,9.32,0,0,1-.09-1,1.08,1.08,0,0,1,.09-.48,48.69,48.69,0,0,1,5.46-2c1.53-.5,2.29-1,2.28-1.41Q183.86,96.68,182.63,96.71Z"/><path class="cls-2" d="M194.87,101.42a7,7,0,0,0-4.22-1.2,1.49,1.49,0,0,0-.55-.1,5.47,5.47,0,0,0-1,.14l-.06-5.8a1,1,0,0,0-.33-.67,1,1,0,0,0-.72-.27c-.51,0-.89.63-1.12,1.86a34.8,34.8,0,0,0-.31,6.93c.05,1.9,0,3.62-.1,5.18s-.25,2.92-.41,4.06c0,0,0,.15,0,.35a1.59,1.59,0,0,0,.24.83.85.85,0,0,0,.81.33q1.09,0,1.47-2.88c.17-1.74.34-3.48.52-5.24s.82-2.84,1.61-2.85a3.61,3.61,0,0,1,2.74,1.2,3.25,3.25,0,0,1,1.08,2.08l.09,3.39a.88.88,0,0,0,.33.74,1.1,1.1,0,0,0,.74.26,1.51,1.51,0,0,0,.81-.27.85.85,0,0,0,.36-.79l-.1-4A4,4,0,0,0,194.87,101.42Z"/><path class="cls-2" d="M213,106.5c-.11,0-1.27.66-3.48,2a7.92,7.92,0,0,1-3.11,1.13,3,3,0,0,1-.4,0,4.29,4.29,0,0,1-2.72-.89,8.29,8.29,0,0,1-2.21-2.54l-.07-.48.65-.12a2.58,2.58,0,0,0,.68.07c.27,0,.56,0,.87,0h1.45a7.64,7.64,0,0,0,4.62-2.09,4.36,4.36,0,0,0,1.51-3.24A2.37,2.37,0,0,0,209.2,98a5.21,5.21,0,0,0-2.18-.38l-3.41.44a5.15,5.15,0,0,0-3.55,2,6.06,6.06,0,0,0-1.31,4c0,.07,0,.17,0,.31a1.88,1.88,0,0,0,0,.36,8.1,8.1,0,0,0,2.37,4.87A6.39,6.39,0,0,0,206,111.5h.34a3.42,3.42,0,0,0,.45,0,11,11,0,0,0,5.36-2.14c1.21-.91,1.82-1.58,1.8-2a.78.78,0,0,0-.24-.62A.94.94,0,0,0,213,106.5ZM200.77,103a8,8,0,0,1,2.34-2.42,6.94,6.94,0,0,1,2.49-.67,7.23,7.23,0,0,1,.79,0A5.42,5.42,0,0,1,208,100a.93.93,0,0,1,.77.77c.06.3-.38.8-1.32,1.49a6.38,6.38,0,0,1-3,1.33c-.33,0-.66,0-1,0l-1.49,0h-.46a2.3,2.3,0,0,0-.63.1Z"/><path class="cls-2" d="M226.7,100.09a4.55,4.55,0,0,0-1.51-3.27,5,5,0,0,0-3.7-1.3,4.8,4.8,0,0,0-2.23.42,6.84,6.84,0,0,1-1.56.74,2,2,0,0,1,0-.42,2.47,2.47,0,0,0,0-.44,1.64,1.64,0,0,0-.27-.89,1,1,0,0,0-.89-.35,1.35,1.35,0,0,0-1,.35,1.17,1.17,0,0,0-.27.83,2.6,2.6,0,0,0,.07.56c0,.2.08.36.12.5a40.65,40.65,0,0,1-.06,4.33,31.86,31.86,0,0,1-.35,3.47l.08,3.27s0,.18,0,.44a2.57,2.57,0,0,0,.26,1.12.93.93,0,0,0,.94.46c.67,0,1.1-.64,1.28-1.87a25.7,25.7,0,0,0,.1-3.78c0-.38,0-1,0-1.81a4.22,4.22,0,0,1,.18-1.66,9.65,9.65,0,0,1,.88-1.28,4,4,0,0,1,1.19-1.25,3.73,3.73,0,0,1,1.72-.41,2.53,2.53,0,0,1,2.35,1.67c.56,1.14,1.07,1.7,1.5,1.69C226.29,101.19,226.71,100.81,226.7,100.09Z"/><path class="cls-2" d="M236,104.14l-3.43-2c-1.23-.75-1.84-1.47-1.82-2.13a2.76,2.76,0,0,1,.93-2,2.83,2.83,0,0,1,2.05-.81c.24,0,.61.24,1.09.7a2.27,2.27,0,0,0,1.46.72c.38,0,.63-.08.75-.26a1.32,1.32,0,0,0,.19-.7q0-.51-1-1.29a4.08,4.08,0,0,0-2.46-1A4.74,4.74,0,0,0,230,96.7a4.92,4.92,0,0,0-1.23,3.35,3.79,3.79,0,0,0,1.78,3c.22.19,1.36.89,3.42,2.12,1.23.73,1.84,1.37,1.83,1.91,0,.71-.63,1.38-1.85,2a7.31,7.31,0,0,1-3.58.73,11.15,11.15,0,0,1-1.89-1.07,11.87,11.87,0,0,0-1.87-1.06.81.81,0,0,0-.66.28,1,1,0,0,0-.28.64c0,.55.59,1.2,1.81,2a6.39,6.39,0,0,0,3,1.17,9,9,0,0,0,4.84-1.18,4.17,4.17,0,0,0,2.49-3.56A3.55,3.55,0,0,0,236,104.14Z"/></g></g></svg>