<?xml version="1.0" encoding="utf-8"?>
<!-- Generator: Adobe Illustrator 23.0.2, SVG Export Plug-In . SVG Version: 6.00 Build 0)  -->
<svg version="1.1" id="Layer_1" xmlns="http://www.w3.org/2000/svg" xmlns:xlink="http://www.w3.org/1999/xlink" x="0px" y="0px"
	 viewBox="0 0 474.6 90" style="enable-background:new 0 0 474.6 90;" xml:space="preserve">
<style type="text/css">
	.st0{fill:#ED2275;}
</style>
<g>
	<rect x="279.8" class="st0" width="2" height="83.5"/>
	<path class="st0" d="M20.6,45.1l18.1-4.5c0.2,0,0.3-0.3,0.3-0.5L34.8,23v-0.1c-2.6-9.2-12.2-14.7-21.4-12.5
		C4,12.8-1.8,22.4,0.5,31.9C2.7,40.8,11.5,46.6,20.6,45.1z"/>
	<path class="st0" d="M39.8,43.2c-0.1-0.2-0.3-0.3-0.5-0.2L26,46.3h-0.1c-7.2,2-11.5,9.4-9.7,16.7S25.6,74.9,33,73
		c7-1.7,11.5-8.6,10.3-15.7L39.8,43.2z"/>
	<path class="st0" d="M47.9,11c-6.6,1.6-11,8.2-9.8,15l3.3,13.4c0.1,0.2,0.3,0.3,0.5,0.3l12.7-3.1c6.9-1.9,11.1-9,9.3-15.9
		C62.2,13.6,55,9.3,47.9,11z"/>
	<path class="st0" d="M115.6,10c-18.4,0-31.3,13.6-31.3,31.4c0,17.7,12.5,31.4,30.8,31.4c18.4,0,31.3-13.6,31.3-31.4
		C146.4,23.7,133.9,10,115.6,10z M115.4,63.1c-11.8,0-20.3-9.1-20.3-21.7c0-12.7,8.6-21.7,20.3-21.7c11.7,0,20.2,9.1,20.2,21.7
		C135.6,54.1,127.1,63.1,115.4,63.1z"/>
	<path class="st0" d="M176.1,35.9c-6.1-2.2-11.1-4.4-11.1-9.4c0-4.4,3.5-7.5,9.5-7.5c3.8,0,6.3,0.8,8,1.8c-0.4,0.7-0.6,1.4-0.6,2.9
		c0,3,2.4,6.2,6.6,6.2c3.5,0,6.2-2.5,6.2-6.8c0-7.3-8.7-13.1-20.1-13.1c-12.2,0-20.1,7.5-20.1,17.2c0,11.2,7.9,14.8,19.1,18.9
		c6.1,2.1,11.1,4.5,11.1,9.5c0,5.2-4.2,8.2-10.9,8.2c-4,0-7.4-1-9.6-2.6c0.6-1.1,0.8-2.2,0.8-3.7c0-2.9-2.6-6-6.6-6
		c-3.8,0-6.3,2.9-6.3,7.2c0,7.4,9.7,14.1,21.6,14.1c12.4,0,21.3-6.5,21.3-18C195.2,43.5,187,39.7,176.1,35.9z"/>
	<path class="st0" d="M235.6,63.1c-12.8,0-21.3-9.7-21.3-21.8c0-12.6,9-21.6,20.8-21.6c5.5,0,9,1.4,10.8,2.8
		c-0.4,0.7-0.6,1.9-0.6,3.1c0,4,2.9,6.5,7,6.5c3.8,0,6.6-3,6.6-7.5c0-7.3-9.4-14.6-23.5-14.6c-17.7,0-31.8,13.2-31.8,31.4
		c0,18.9,13.3,31.4,32,31.4c9.7,0,18.4-4,24.3-10.5l-6.9-7.2C248.4,60,242.6,63.1,235.6,63.1z"/>
	<path class="st0" d="M335.3,40.6c6.5-2,11-6.9,11-14.2c0-8.1-6-15.4-20.3-15.4h-24.3v6.1h7.7v48.4h-7.7v6.1h25.4
		c13.3,0,21-7,21-16.6C348.1,47.3,343.4,42.8,335.3,40.6z M316.3,17.1h9.6c8.9,0,13.7,3.8,13.7,10c0,6.4-4.8,10.9-14.4,10.9h-8.9
		V17.1z M327.3,65.7h-11V43.6h9.1c9.9,0,15.9,3.9,15.9,11.1C341.3,61.1,336.3,65.7,327.3,65.7z"/>
	<polygon class="st0" points="368.8,4.3 355.9,4.3 355.9,9.8 362.5,9.8 362.5,66.1 355.9,66.1 355.9,71.6 375.5,71.6 375.5,66.1 
		368.8,66.1 	"/>
	<path class="st0" d="M402.3,31.7c-12.1,0-20.1,9.3-20.1,20.3c0,11.2,7.9,20.3,20.1,20.3c12.1,0,20.1-9.2,20.1-20.3
		C422.5,40.9,414.5,31.7,402.3,31.7z M402.3,66.9c-8,0-13.5-6.1-13.5-14.8c0-8.6,5.5-14.8,13.5-14.8c8,0,13.5,6.2,13.5,14.8
		C415.8,60.8,410.3,66.9,402.3,66.9z"/>
	<path class="st0" d="M462.2,32.4v4.3c-3.1-2.9-7.3-5.1-12.5-5.1c-11.7,0-19.4,9.6-19.4,20.1c0,11.4,8.4,19.5,18.6,19.5
		c6,0,9.8-2.5,13.1-5.8v7.6c0,3.3-0.8,5.7-2.3,7.5c-2.3,2.9-6,3.9-9.8,3.9c-4,0-6.5-0.8-7.7-1.6c0.6-0.7,0.8-1.7,0.8-2.6
		c0-2.2-1.6-4-3.9-4c-2.7,0-4.6,2.1-4.6,4.8c0,1.6,0.6,3.1,2,4.5c2.4,2.3,7.2,4.2,13.3,4.2c6.1,0,11.6-1.7,14.9-5.7
		c2.3-2.8,3.6-6.5,3.6-11.4V38.1h6.3v-5.6H462.2z M461.9,60.1c-3.1,3.3-7.1,5.7-12.1,5.7c-7.5,0-13-5.8-13-14.1
		c0-8.2,5.3-14.4,13.3-14.4c5.1,0,8.8,1.9,11.7,4.4V60.1z"/>
</g>
</svg>
