<svg xmlns="http://www.w3.org/2000/svg" viewBox="0 0 116.13 116.13"><defs><style>.cls-1{fill:#2863ad;}.cls-2{fill:#fff;}</style></defs><title>Facebook-10</title><g id="Layer_2" data-name="Layer 2"><g id="Layer_1-2" data-name="Layer 1"><path class="cls-1" d="M109.72,0H6.41A6.41,6.41,0,0,0,0,6.41V109.72a6.41,6.41,0,0,0,6.41,6.41H62V71.22H47V53.64H62V40.71c0-15,9.16-23.17,22.54-23.17a125.35,125.35,0,0,1,13.53.69V33.9H88.87c-7.28,0-8.69,3.46-8.69,8.54V53.64H97.59L95.32,71.22H80.18v44.91h29.54a6.41,6.41,0,0,0,6.41-6.41V6.41A6.41,6.41,0,0,0,109.72,0Z"/><path id="f" class="cls-2" d="M80.18,116.13V71.22H95.32l2.27-17.58H80.18V42.45c0-5.08,1.41-8.54,8.69-8.54H98.1V18.23a125.35,125.35,0,0,0-13.53-.69C71.19,17.54,62,25.71,62,40.71V53.64H47V71.22H62v44.91Z"/></g></g></svg>