<svg xmlns="http://www.w3.org/2000/svg" viewBox="0 0 130.66 91.46"><title>YouTube0</title> 
<style> path { fill: #fff }
	
</style> <g id="Layer_2" data-name="Layer 2"><g id="Layer_1-2" data-name="Layer 1"><path d="M127.94,14.28A16.42,16.42,0,0,0,116.38,2.72C106.19,0,65.33,0,65.33,0s-40.84,0-51,2.72A16.42,16.42,0,0,0,2.72,14.28C0,24.46,0,45.73,0,45.73S0,67,2.72,77.18A16.39,16.39,0,0,0,14.28,88.73c10.21,2.73,51.05,2.73,51.05,2.73s40.86,0,51.05-2.73a16.39,16.39,0,0,0,11.56-11.55c2.72-10.19,2.72-31.45,2.72-31.45S130.66,24.46,127.94,14.28ZM52.28,65.33V26.13l33.94,19.6Z"/></g></g></svg>
