<?xml version="1.0" encoding="UTF-8"?>
<svg width="16px" height="16px" viewBox="0 0 457 457" version="1.1" xmlns="http://www.w3.org/2000/svg" xmlns:xlink="http://www.w3.org/1999/xlink">
    <!-- Generator: Sketch 51.2 (57519) - http://www.bohemiancoding.com/sketch -->
    <title>instagram-icon</title>
    <desc>Created with Sketch.</desc>
    <defs></defs>
    <g id="Page-1" stroke="none" stroke-width="1" fill="none" fill-rule="evenodd">
        <g id="instagram-icon" fill="#FFFFFF" fill-rule="nonzero">
            <path d="M228.14,41.11 C289.05,41.11 296.27,41.34 320.33,42.44 C342.57,43.44 354.65,47.17 362.69,50.29 C372.600392,53.9457854 381.563984,59.7791254 388.92,67.36 C396.504491,74.7150004 402.3413,83.6786707 406,93.59 C409.12,101.59 412.84,113.71 413.85,135.95 C414.95,160.01 415.18,167.22 415.18,228.14 C415.18,289.06 414.95,296.27 413.85,320.33 C412.85,342.57 409.12,354.65 406,362.69 C398.319758,382.584401 382.594401,398.309758 362.7,405.99 C354.7,409.11 342.58,412.83 320.34,413.84 C296.28,414.94 289.07,415.17 228.15,415.17 C167.23,415.17 160,414.94 136,413.84 C113.76,412.84 101.68,409.11 93.64,405.99 C83.7296079,402.334215 74.7660164,396.500875 67.41,388.92 C59.8291254,381.563984 53.9957854,372.600392 50.34,362.69 C47.22,354.69 43.5,342.57 42.49,320.33 C41.39,296.27 41.16,289.06 41.16,228.14 C41.16,167.22 41.34,160 42.44,136 C43.44,113.76 47.17,101.68 50.29,93.64 C53.9391462,83.7117001 59.7728803,74.7304153 67.36,67.36 C74.7160164,59.7791254 83.6796079,53.9457854 93.59,50.29 C101.59,47.17 113.71,43.45 135.95,42.44 C160.01,41.34 167.22,41.11 228.14,41.11 M228.14,0 C166.14,0 158.41,0.26 134.08,1.37 C109.75,2.48 93.21,6.34 78.7,12 C63.4791152,17.7217373 49.6888336,26.6934399 38.29,38.29 C26.6934399,49.6888336 17.7217373,63.4791152 12,78.7 C6.36,93.21 2.5,109.8 1.39,134.08 C0.28,158.36 0,166.18 0,228.14 C0,290.1 0.26,297.87 1.37,322.2 C2.48,346.53 6.37,363.07 11.98,377.58 C17.7063084,392.806285 26.6850071,406.600241 38.29,418 C49.6878481,429.60017 63.4782039,438.575333 78.7,444.3 C93.21,449.94 109.79,453.8 134.08,454.91 C158.37,456.02 166.18,456.28 228.14,456.28 C290.1,456.28 297.87,456.02 322.2,454.91 C346.53,453.8 363.07,449.91 377.58,444.3 C408.22651,432.452896 432.452896,408.22651 444.3,377.58 C449.94,363.07 453.8,346.48 454.91,322.2 C456.02,297.92 456.28,290.1 456.28,228.14 C456.28,166.18 456.02,158.41 454.91,134.08 C453.8,109.75 449.91,93.21 444.3,78.7 C438.575333,63.4782039 429.60017,49.6878481 418,38.29 C406.596433,26.6944749 392.803152,17.7230412 377.58,12 C363.07,6.36 346.48,2.5 322.2,1.39 C297.92,0.28 290.1,1.42108547e-14 228.14,1.42108547e-14" id="Shape"></path>
            <path d="M228.14,111 C180.756338,111 138.038564,139.543763 119.906556,183.320946 C101.774548,227.098128 111.799238,277.487216 145.305977,310.991095 C178.812716,344.494974 229.202659,354.515362 272.978294,336.379617 C316.753928,318.243872 345.294045,275.523662 345.29,228.14 C345.284477,163.443747 292.836253,111 228.14,111 M228.14,304.2 C186.138745,304.2 152.09,270.151255 152.09,228.15 C152.09,186.148745 186.138745,152.1 228.14,152.1 C270.141255,152.1 304.19,186.148745 304.19,228.15 C304.19,270.151255 270.141255,304.2 228.14,304.2" id="Shape"></path>
            <path d="M377.3,106.36 C377.308091,117.435993 370.6423,127.425871 360.411738,131.670077 C350.181176,135.914283 338.401271,133.576706 330.566499,125.747656 C322.731726,117.918606 320.385541,106.140413 324.622271,95.9067523 C328.859,85.6730919 338.844004,79.000003 349.92,79 C365.041556,79 377.3,91.2584435 377.3,106.38" id="Shape"></path>
        </g>
    </g>
</svg>