<svg xmlns="http://www.w3.org/2000/svg" viewBox="0 0 72.28 58.75"><defs><style>.cls-1{fill:#fff;}</style></defs><title>Twitter0</title><g id="Layer_2" data-name="Layer 2"><g id="Layer_1-2" data-name="Layer 1"><g id="Layer_2-2" data-name="Layer 2"><g id="Layer_1-2-2" data-name="Layer 1-2"><path class="cls-1" d="M63.69,9.31A13.49,13.49,0,0,0,70.1,1.09a33.44,33.44,0,0,1-9.31,3.63,14.67,14.67,0,0,0-20.73-.83l-.48.46a14.4,14.4,0,0,0-4.29,10.51,14.76,14.76,0,0,0,.36,3.38A40.77,40.77,0,0,1,5,2.66a15.74,15.74,0,0,0-2,7.49A14,14,0,0,0,9.55,22.48,13.49,13.49,0,0,1,2.9,20.67v.12a14.36,14.36,0,0,0,3.38,9.43,14.6,14.6,0,0,0,8.46,5.2,13.3,13.3,0,0,1-3.87.48,18.52,18.52,0,0,1-2.78-.24,13.13,13.13,0,0,0,5.14,7.19,15.15,15.15,0,0,0,8.64,2.84Q13.29,52.47,3.5,52.45A29.26,29.26,0,0,1,0,52.21a40.67,40.67,0,0,0,22.72,6.53,42.17,42.17,0,0,0,18-3.81A37.63,37.63,0,0,0,54.09,45a47.6,47.6,0,0,0,8-13.54,41.06,41.06,0,0,0,2.81-14.9V14.62A30,30,0,0,0,72.28,7,31.58,31.58,0,0,1,63.69,9.31Z"/></g></g></g></g></svg>
