<?xml version="1.0" encoding="utf-8"?>
<!-- Generator: Adobe Illustrator 23.0.2, SVG Export Plug-In . SVG Version: 6.00 Build 0)  -->
<svg version="1.1" id="Layer_1" xmlns="http://www.w3.org/2000/svg" xmlns:xlink="http://www.w3.org/1999/xlink" x="0px" y="0px"
	 viewBox="0 0 512 512" style="enable-background:new 0 0 512 512;" xml:space="preserve">
<style type="text/css">
	.st0{fill:#13B19E;}
</style>
<path class="st0" d="M426.5,133c19.3-10.9,33.4-29,39.3-50.4c-17.8,10.2-37.1,17.7-57.1,22.3c-16.8-18.9-40.9-29.4-66.2-28.9
	c-24.1-0.4-47.2,9.3-63.9,26.7c-17.2,17-26.7,40.3-26.3,64.4c-0.1,7,0.7,13.9,2.2,20.7c-73.7-2.6-142.4-37.6-187.9-95.5
	c-7.9,14-12.1,29.8-12.3,45.9c-1,30.6,14.3,59.4,40.2,75.6c-14.3-0.1-28.4-3.9-40.8-11.1v0.7c-0.2,21.1,7.1,41.6,20.7,57.8
	c13.1,16.3,31.4,27.6,51.9,31.9c-7.7,2.1-15.7,3.1-23.7,2.9c-5.7-0.1-11.4-0.6-17-1.5c5.1,17.9,16.3,33.4,31.5,44.1
	c15.5,11.1,34,17.2,53,17.4c-35.1,27.7-72.6,41.5-112.6,41.5c-7.2-0.1-14.3-0.6-21.5-1.5c41.5,26.8,89.9,40.8,139.3,40
	c38.1,0.4,75.7-7.6,110.4-23.4c31.5-13.9,59.5-34.7,82-60.9c20.8-24.8,37.4-52.8,49.1-83c11.4-29.1,17.2-60.1,17.2-91.4v-11.9
	c17.7-12.8,33-28.6,45.3-46.7C462.3,126,444.6,130.8,426.5,133z"/>
</svg>
