<svg version="1.1" id="svg_osc_logo" xmlns="http://www.w3.org/2000/svg" xmlns:xlink="http://www.w3.org/1999/xlink" x="0px" y="0px"
     viewBox="0 0 843.7 85.4" enable-background="new 0 0 843.7 85.4" xml:space="preserve">
<g>
    <g>
        <path d="M13.4,6C4,8.4-1.8,18,0.5,27.5c2.2,8.9,11,14.7,20.1,13.2l18.1-4.5c0.2,0,0.3-0.3,0.3-0.5l-4.2-17.1
            c0,0,0-0.1,0-0.1C32.2,9.3,22.6,3.8,13.4,6z" fill="white"/>
        <path d="M39.3,38.6L26,41.9c0,0-0.1,0-0.1,0c-7.2,2-11.5,9.4-9.7,16.7C18,65.9,25.6,70.5,33,68.6
            c7-1.7,11.5-8.6,10.3-15.7l-3.5-14.1C39.7,38.6,39.5,38.5,39.3,38.6z"  fill="white"/>
        <path d="M47.9,6.6c-6.6,1.6-11,8.2-9.8,15l3.3,13.4c0.1,0.2,0.3,0.3,0.5,0.3l12.7-3.1c0,0,0,0,0,0
            c6.9-1.9,11.1-9,9.3-15.9C62.2,9.2,55,4.9,47.9,6.6z" fill="white"/>
    </g>
</g>
<g>
    <path d="M74.3,36.9c0-17.7,12.8-31.3,31.2-31.3c18.2,0,30.7,13.7,30.7,31.3c0,17.7-12.8,31.3-31.2,31.3
        C86.8,68.2,74.3,54.5,74.3,36.9z M125.4,36.9c0-12.6-8.5-21.6-20.2-21.6c-11.7,0-20.3,9-20.3,21.6c0,12.6,8.5,21.6,20.3,21.6
        C116.9,58.6,125.4,49.6,125.4,36.9z" fill="white"/>
    <path d="M142.8,76.8h6V35.4h-6V27h15.6v4.6c3.1-2.9,6.5-5.3,11.9-5.3c10.5,0,18.3,8.5,18.3,20.6
        c0,11.6-8.3,21-19,21c-4.3,0-7.9-1.6-10.9-3.9v12.8h6.5v8.3h-22.5V76.8z M178.4,46.9c0-7.7-4.6-12.1-10.3-12.1
        c-3.8,0-6.7,1.7-9.4,4v17.2c2.6,1.8,5.7,3.1,9.4,3.1C173.4,59.2,178.4,54.9,178.4,46.9z" fill="white"/>
    <path d="M205.3,50.4c1.4,6.2,6.5,9,13.2,9c4.9,0,9.9-1.6,14.6-4.2l-0.8,9c-4.2,2.5-9.4,3.7-15.2,3.7
        c-13.1,0-22.2-8.3-22.2-20.7c0-11.4,8-20.9,20.4-20.9c12.8,0,19.5,8.6,19.5,19.3c0,1.6-0.2,3.6-0.5,5H205.3z M205.2,43.5h19.5
        c-0.2-5.5-3.8-9.2-9.6-9.2C210.7,34.3,206.3,36.9,205.2,43.5z" fill="white"/>
    <path d="M256,33.4c3.9-3.8,8.2-7.2,14-7.2c4.8,0,8.3,1.9,10.4,5.1c1.4,2.2,2.1,5,2.1,8.3v19.3h6v8.3H267v-8.3h5.5
        V42.1c0-1.7-0.3-3.1-0.8-4.1c-0.9-1.7-2.6-2.7-5-2.7c-3.5,0-7.2,2-10.4,4.7v18.9h5.5v8.3h-21.5v-8.3h6V35.4h-6V27H256V33.4z" fill="white"/>
    <path d="M305.7,54.2c0-4.3,2.6-7.2,6.3-7.2c4,0,6.6,3,6.6,6c0,1.5-0.3,2.6-0.8,3.7c2.2,1.6,5.6,2.6,9.5,2.6
        c6.6,0,10.8-2.9,10.8-8.2c0-5-5-7.3-11.1-9.4c-11.2-4-19.1-7.6-19.1-18.8c0-9.6,7.8-17.1,20-17.1c11.3,0,20,5.8,20,13
        c0,4.3-2.7,6.8-6.1,6.8c-4.2,0-6.6-3.1-6.6-6.1c0-1.5,0.3-2.1,0.6-2.8c-1.7-1-4.2-1.8-8-1.8c-6,0-9.4,3-9.4,7.4c0,5,5,7.1,11.1,9.3
        c10.8,3.9,19,7.6,19,18.8c0,11.5-8.9,18-21.3,18C315.3,68.2,305.7,61.5,305.7,54.2z" fill="white"/>
    <path d="M362.9,62.3c-0.9-1.6-1.4-3.8-1.4-6.3V35.4h-7.8V27h7.8v-8.4l9.9-4.3V27h12.2v8.4h-12.2v18.7
        c0,1.3,0.2,2.1,0.6,2.9c0.7,1.3,2.2,1.9,4.2,1.9c2.6,0,5.5-1,7.9-2.1l-0.8,8.6c-2.8,1.4-6,2.4-9.6,2.4
        C368.8,67.8,364.9,66.2,362.9,62.3z" fill="white"/>
    <path d="M396.2,62.5c-1.3-2.1-2-4.9-2-8.1V35.4h-6V27h16v25c0,1.7,0.3,3,0.8,4.1c0.9,1.7,2.6,2.7,4.9,2.7
        c3.5,0,7.2-2,10.4-4.7V35.4H414V27h16.2v31.9h6v8.3h-15.6v-6.4c-3.9,3.8-8.2,7.2-14,7.2C401.7,67.8,398.2,65.8,396.2,62.5z" fill="white"/>
    <path d="M441.7,47.2c0-11.6,8.4-21,19.3-21c5.1,0,8.9,1.9,11.2,3.8V8.4h-6.1V0h16v58.9h6v8.3h-16v-4.4
        c-2.9,2.8-6.7,5.1-11.8,5.1C449.7,67.8,441.7,59.3,441.7,47.2z M472.2,55.2V38c-2.7-1.8-5.8-3.1-9.5-3.1c-5.6,0-10.6,4.3-10.6,12.3
        c0,7.7,4.8,12.1,10.6,12.1C466.4,59.2,469.4,57.6,472.2,55.2z" fill="white"/>
    <path d="M501,85.4c-5.3,0-8.6-3.1-8.6-6.3c0-3.4,2.3-5.1,5-5.1c2.4,0,3.8,1.5,4.4,3c1-0.3,2.1-0.9,3.2-2.4
        c0.6-0.8,1.2-1.8,1.8-3.1l3-6.3l-14.3-29.7h-5V27h20.7v8h-5.9l9.3,21.2l9.4-21.2h-6.2v-8h20.6v8.4h-4.9l-18.8,39.9
        c-0.9,1.8-1.9,3.5-3.1,4.9C508.7,83.5,505,85.4,501,85.4z" fill="white"/>
    <path d="M555.5,37.4c0-18.9,14.5-31.7,30.2-31.7c12.1,0,22.2,7.8,22.2,15c0,2.9-2,5.2-4.8,5.2
        c-2.3,0-4.1-1.8-4.1-4.1c0-2,1.5-3.6,3-3.9c-1.6-3.1-7.6-7.5-16.3-7.5c-14.7,0-24.8,12.9-24.8,27c0,13.3,10.4,26.2,25.2,26.2
        c7.3,0,13.5-2.6,19.3-7.7l2.8,3.8c-6.1,5.9-14.4,8.6-22.1,8.6C567.5,68.2,555.5,52.9,555.5,37.4z" fill="white"/>
    <path d="M616.1,47.9c0-11.1,7.9-20,19.5-20c11.6,0,19.5,8.9,19.5,20c0,11.1-7.9,20-19.5,20
        C623.9,67.8,616.1,59,616.1,47.9z M650.2,47.9c0-9.2-6-15.8-14.6-15.8c-8.6,0-14.6,6.6-14.6,15.8c0,9.3,6,15.8,14.6,15.8
        C644.2,63.6,650.2,57.1,650.2,47.9z" fill="white"/>
    <path d="M662.8,62.9h6.8V4.2h-6.8V0h11.5v62.9h6.9v4.2h-18.3V62.9z" fill="white"/>
    <path d="M687.7,62.9h6.8V4.2h-6.8V0h11.5v62.9h6.9v4.2h-18.3V62.9z" fill="white"/>
    <path d="M718.2,49c0.7,9.7,6.6,14.6,15.9,14.6c5.3,0,8.7-1.6,13.3-4.3l-0.5,4.8c-3.9,2.6-8.9,3.9-13.5,3.9
        c-12.2,0-20.2-8.3-20.2-19.9c0-10.5,7-20.1,18.6-20.1c11.1,0,17.1,8.7,17.1,18.1c0,1.4-0.1,2.2-0.3,3H718.2z M718.3,44.8h25.9
        c-0.5-7.5-4.8-12.7-12.8-12.7C724.7,32.1,719.2,37,718.3,44.8z" fill="white"/>
    <path d="M794.5,68.9c0,4.9-1.3,8.4-3.5,11c-3.4,4-9,5.5-14.9,5.5c-5.8,0-10-1.7-12.1-3.9c-1.3-1.3-1.9-2.7-1.9-4.2
        c0-2.6,1.7-4.3,4.1-4.3c1.9,0,3.1,1.6,3.1,3.4c0,1-0.4,2-1.1,3c0.9,0.7,3.9,1.7,8.4,1.7c4,0,8.1-1,10.6-4c1.5-1.8,2.5-4.3,2.5-7.8
        V61c-3.3,3.5-7.5,6.1-13.7,6.1c-10.3,0-18.7-8.2-18.7-19.3c0-10.1,7.4-19.9,19.6-19.9c5.2,0,9.6,2,12.9,5.2v-4.5h10.9v4.2h-6.4
        V68.9z M762.4,47.7c0,8.6,5.9,15.2,14,15.2c5.7,0,10-2.8,13.4-6.5V37c-3.1-2.8-7.2-5-12.9-5C768.2,32.1,762.4,39.3,762.4,47.7z" fill="white"/>
    <path d="M812.9,49c0.7,9.7,6.6,14.6,15.9,14.6c5.3,0,8.7-1.6,13.3-4.3l-0.5,4.8c-3.9,2.6-8.9,3.9-13.5,3.9
        c-12.2,0-20.2-8.3-20.2-19.9c0-10.5,7-20.1,18.6-20.1c11.1,0,17.1,8.7,17.1,18.1c0,1.4-0.1,2.2-0.3,3H812.9z M813,44.8h25.9
        c-0.5-7.5-4.8-12.7-12.8-12.7C819.4,32.1,813.9,37,813,44.8z" fill="white"/>
</g>
</svg>
