<?xml version="1.0" encoding="utf-8"?>
<!-- Generator: Adobe Illustrator 23.0.2, SVG Export Plug-In . SVG Version: 6.00 Build 0)  -->
<svg version="1.1" id="Layer_1" xmlns="http://www.w3.org/2000/svg" xmlns:xlink="http://www.w3.org/1999/xlink" x="0px" y="0px"
	 viewBox="0 0 79.4 90" style="enable-background:new 0 0 79.4 90;" xml:space="preserve">
<style type="text/css">
	.st0{clip-path:url(#SVGID_2_);}
	.st1{fill:#F6BB2F;}
</style>
<title>Lightbulb</title>
<g>
	<g id="Layer_1-2">
		<g>
			<defs>
				<rect id="SVGID_1_" y="0" width="79.4" height="90"/>
			</defs>
			<clipPath id="SVGID_2_">
				<use xlink:href="#SVGID_1_"  style="overflow:visible;"/>
			</clipPath>
			<g class="st0">
				<path class="st1" d="M46.2,85.1c2.9-0.2,5.1-2.6,5.2-5.5V70c0-4.2,1.8-8.3,4.9-11.1c9.8-9,10.4-24.2,1.4-33.9
					c-4.2-4.5-9.9-7.3-16.1-7.7C28.6,16.4,17.2,26,16,39.1c-0.7,7.4,2.1,14.8,7.6,19.8c3.1,2.9,4.9,6.9,4.9,11.1v9.5
					c0,2.9,2.3,5.3,5.2,5.5c0.8,2.8,3.3,4.8,6.3,4.9C42.9,89.9,45.4,87.9,46.2,85.1 M31.5,76.1h16.9v1.5H31.5V76.1z M25.6,56.7
					c-8.5-7.8-9.1-21.1-1.3-29.7c3.7-4,8.7-6.4,14.1-6.8c1-0.1,2-0.1,3,0c10.3,0.8,18.5,8.8,19.5,19.1c0.6,6.5-1.9,12.9-6.7,17.4
					c-3.3,3.1-5.4,7.3-5.8,11.8h-3.9V49.4h2c2.8,0,5-2.2,5-5s-2.2-5-5-5s-5,2.2-5,5v2h-3.3v-2c0-2.8-2.2-5-5-5s-5,2.2-5,5s2.2,5,5,5
					h2v19.2h-3.9C31,64,28.9,59.8,25.6,56.7 M35.3,46.4h-2c-1.1,0-2-0.9-2-2s0.9-2,2-2s2,0.9,2,2V46.4z M38.3,49.4h3.3v19.2h-3.3
					V49.4z M44.6,46.4v-2c0-1.1,0.9-2,2-2s2,0.9,2,2s-0.9,2-2,2H44.6z M48.4,73.1H31.5v-1.5h16.9L48.4,73.1z M31.7,80.6h16.5
					c-0.4,0.9-1.3,1.5-2.3,1.5H34C33,82.1,32.1,81.5,31.7,80.6 M39.9,87c-1.3-0.1-2.4-0.8-3-1.9H43C42.4,86.2,41.3,86.9,39.9,87"/>
				<path class="st1" d="M38.3,1.6v7c0,0.9,0.7,1.6,1.6,1.6s1.6-0.7,1.6-1.6l0,0v-7c0-0.9-0.7-1.6-1.6-1.6S38.3,0.7,38.3,1.6"/>
				<path class="st1" d="M64.3,8.1c-0.7-0.5-1.7-0.4-2.2,0.3c0,0,0,0,0,0L58,14.1c-0.5,0.7-0.4,1.7,0.4,2.2s1.7,0.4,2.2-0.4l4.1-5.6
					C65.2,9.6,65,8.6,64.3,8.1"/>
				<path class="st1" d="M79.3,29c-0.3-0.8-1.2-1.3-2-1l-6.6,2.2c-0.9,0.2-1.4,1-1.2,1.9c0.2,0.9,1,1.4,1.9,1.2
					c0.1,0,0.2-0.1,0.3-0.1l6.6-2.2C79.1,30.7,79.5,29.8,79.3,29"/>
				<path class="st1" d="M77.2,55.7c0.9,0.2,1.7-0.4,1.9-1.2c0.2-0.7-0.2-1.5-0.9-1.8l-6.7-2.2c-0.9-0.2-1.7,0.4-1.9,1.2
					c-0.2,0.7,0.2,1.5,0.9,1.8L77.2,55.7z"/>
				<path class="st1" d="M61.7,75c0.5,0.7,1.5,0.9,2.2,0.4c0.7-0.5,0.9-1.5,0.4-2.2l-4.1-5.6c-0.5-0.7-1.5-0.8-2.2-0.3
					c-0.7,0.5-0.8,1.5-0.3,2.1L61.7,75z"/>
				<path class="st1" d="M15.1,75.1c0.7,0.5,1.7,0.4,2.2-0.3l4.1-5.6c0.5-0.7,0.3-1.7-0.4-2.2c-0.7-0.5-1.6-0.3-2.1,0.3l-4.1,5.6
					C14.2,73.6,14.4,74.5,15.1,75.1"/>
				<path class="st1" d="M2.1,55.2l6.6-2.2c0.8-0.4,1.2-1.3,0.8-2.1c-0.3-0.7-1.1-1.1-1.8-0.9l-6.6,2.1c-0.8,0.4-1.2,1.3-0.8,2.1
					C0.6,55,1.4,55.4,2.1,55.2"/>
				<path class="st1" d="M1.2,30.5l6.6,2.1c0.8,0.4,1.7,0,2.1-0.8c0.4-0.8,0-1.7-0.8-2.1c-0.1,0-0.2-0.1-0.3-0.1l-6.6-2.2
					c-0.9-0.2-1.7,0.4-1.9,1.2C0.2,29.4,0.5,30.2,1.2,30.5"/>
				<path class="st1" d="M19.2,15.7c0.5,0.7,1.5,0.8,2.2,0.3c0.7-0.5,0.8-1.5,0.3-2.1l-4.1-5.6c-0.4-0.8-1.4-1-2.2-0.6
					c-0.8,0.4-1,1.4-0.6,2.2c0.1,0.1,0.1,0.2,0.2,0.3L19.2,15.7z"/>
			</g>
		</g>
	</g>
</g>
</svg>
