<svg xmlns="http://www.w3.org/2000/svg" viewBox="0 0 843.6 85.4">
	<title>OSC-logo0</title>
	<style>
		path { fill: #ed2275}
	</style>
	<g id="Layer_2" data-name="Layer 2">
		<g id="Layer_1-2" data-name="Layer 1">
			<path d="M13.4,6a17.73,17.73,0,0,0,7.2,34.7l18.1-4.5c.2,0,.3-.3.3-.5L34.8,18.6v-.1A18,18,0,0,0,13.4,6Z"/>
			<path d="M39.3,38.6,26,41.9h-.1a13.82,13.82,0,1,0,17.4,11L39.8,38.8A.37.37,0,0,0,39.3,38.6Z"/>
			<path d="M47.9,6.6a13.17,13.17,0,0,0-9.8,15L41.4,35a.55.55,0,0,0,.5.3l12.7-3.1h0A13.23,13.23,0,0,0,47.9,6.6Z"/>
			<path d="M74.3,36.9c0-17.7,12.8-31.3,31.2-31.3,18.2,0,30.7,13.7,30.7,31.3S123.4,68.2,105,68.2C86.8,68.2,74.3,54.5,74.3,36.9Zm51.1,0c0-12.6-8.5-21.6-20.2-21.6s-20.3,9-20.3,21.6,8.5,21.6,20.3,21.6S125.4,49.6,125.4,36.9Z"/>
			<path d="M142.8,76.8h6V35.4h-6V27h15.6v4.6c3.1-2.9,6.5-5.3,11.9-5.3,10.5,0,18.3,8.5,18.3,20.6,0,11.6-8.3,21-19,21A17.63,17.63,0,0,1,158.7,64V76.8h6.5v8.3H142.7V76.8Zm35.6-29.9c0-7.7-4.6-12.1-10.3-12.1-3.8,0-6.7,1.7-9.4,4V56a16.26,16.26,0,0,0,9.4,3.1C173.4,59.2,178.4,54.9,178.4,46.9Z"/>
			<path d="M205.3,50.4c1.4,6.2,6.5,9,13.2,9a30.58,30.58,0,0,0,14.6-4.2l-.8,9a29.52,29.52,0,0,1-15.2,3.7c-13.1,0-22.2-8.3-22.2-20.7,0-11.4,8-20.9,20.4-20.9,12.8,0,19.5,8.6,19.5,19.3a26.48,26.48,0,0,1-.5,5h-29Zm-.1-6.9h19.5c-.2-5.5-3.8-9.2-9.6-9.2C210.7,34.3,206.3,36.9,205.2,43.5Z"/>
			<path d="M256,33.4c3.9-3.8,8.2-7.2,14-7.2,4.8,0,8.3,1.9,10.4,5.1a15.26,15.26,0,0,1,2.1,8.3V58.9h6v8.3H267V58.9h5.5V42.1a9.32,9.32,0,0,0-.8-4.1,5.27,5.27,0,0,0-5-2.7c-3.5,0-7.2,2-10.4,4.7V58.9h5.5v8.3H240.3V58.9h6V35.4h-6V27H256Z"/>
			<path d="M305.7,54.2c0-4.3,2.6-7.2,6.3-7.2a6.3,6.3,0,0,1,6.6,6,8.41,8.41,0,0,1-.8,3.7,16.47,16.47,0,0,0,9.5,2.6c6.6,0,10.8-2.9,10.8-8.2,0-5-5-7.3-11.1-9.4-11.2-4-19.1-7.6-19.1-18.8,0-9.6,7.8-17.1,20-17.1,11.3,0,20,5.8,20,13,0,4.3-2.7,6.8-6.1,6.8a6.25,6.25,0,0,1-6.6-6.1,5.81,5.81,0,0,1,.6-2.8,15.45,15.45,0,0,0-8-1.8c-6,0-9.4,3-9.4,7.4,0,5,5,7.1,11.1,9.3,10.8,3.9,19,7.6,19,18.8,0,11.5-8.9,18-21.3,18C315.3,68.2,305.7,61.5,305.7,54.2Z"/>
			<path d="M362.9,62.3a13.05,13.05,0,0,1-1.4-6.3V35.4h-7.8V27h7.8V18.6l9.9-4.3V27h12.2v8.4H371.4V54.1A6,6,0,0,0,372,57c.7,1.3,2.2,1.9,4.2,1.9a20.19,20.19,0,0,0,7.9-2.1l-.8,8.6a21.3,21.3,0,0,1-9.6,2.4C368.8,67.8,364.9,66.2,362.9,62.3Z"/>
			<path d="M396.2,62.5a15.43,15.43,0,0,1-2-8.1v-19h-6V27h16V52a9.64,9.64,0,0,0,.8,4.1,5.21,5.21,0,0,0,4.9,2.7c3.5,0,7.2-2,10.4-4.7V35.4H414V27h16.2V58.9h6v8.3H420.6V60.8c-3.9,3.8-8.2,7.2-14,7.2C401.7,67.8,398.2,65.8,396.2,62.5Z"/>
			<path d="M441.7,47.2c0-11.6,8.4-21,19.3-21A17.51,17.51,0,0,1,472.2,30V8.4h-6.1V0h16V58.9h6v8.3h-16V62.8a16.6,16.6,0,0,1-11.8,5.1C449.7,67.8,441.7,59.3,441.7,47.2Zm30.5,8V38a16.83,16.83,0,0,0-9.5-3.1c-5.6,0-10.6,4.3-10.6,12.3,0,7.7,4.8,12.1,10.6,12.1C466.4,59.2,469.4,57.6,472.2,55.2Z"/>
			<path d="M501,85.4c-5.3,0-8.6-3.1-8.6-6.3a4.75,4.75,0,0,1,5-5.1,4.59,4.59,0,0,1,4.4,3,6,6,0,0,0,3.2-2.4,17,17,0,0,0,1.8-3.1l3-6.3L495.5,35.5h-5V27h20.7v8h-5.9l9.3,21.2L524,35h-6.2V27h20.6v8.4h-4.9L514.7,75.3a24.05,24.05,0,0,1-3.1,4.9A14.12,14.12,0,0,1,501,85.4Z"/>
			<path d="M555.5,37.4c0-18.9,14.5-31.7,30.2-31.7,12.1,0,22.2,7.8,22.2,15a4.9,4.9,0,0,1-4.8,5.2,4.07,4.07,0,0,1-1.1-8c-1.6-3.1-7.6-7.5-16.3-7.5-14.7,0-24.8,12.9-24.8,27,0,13.3,10.4,26.2,25.2,26.2,7.3,0,13.5-2.6,19.3-7.7l2.8,3.8a32,32,0,0,1-22.1,8.6C567.5,68.2,555.5,52.9,555.5,37.4Z"/>
			<path d="M616.1,47.9c0-11.1,7.9-20,19.5-20s19.5,8.9,19.5,20-7.9,20-19.5,20S616.1,59,616.1,47.9Zm34.1,0c0-9.2-6-15.8-14.6-15.8S621,38.7,621,47.9s6,15.8,14.6,15.8S650.2,57.1,650.2,47.9Z"/>
			<path d="M662.8,62.9h6.8V4.2h-6.8V0h11.5V62.9h6.9v4.2H662.9V62.9Z"/>
			<path d="M687.7,62.9h6.8V4.2h-6.8V0h11.5V62.9h6.9v4.2H687.8V62.9Z"/>
			<path d="M718.2,49c.7,9.7,6.6,14.6,15.9,14.6,5.3,0,8.7-1.6,13.3-4.3l-.5,4.8A25,25,0,0,1,733.4,68c-12.2,0-20.2-8.3-20.2-19.9,0-10.5,7-20.1,18.6-20.1,11.1,0,17.1,8.7,17.1,18.1a11.52,11.52,0,0,1-.3,3H718.2Zm.1-4.2h25.9c-.5-7.5-4.8-12.7-12.8-12.7C724.7,32.1,719.2,37,718.3,44.8Z"/>
			<path d="M794.5,68.9c0,4.9-1.3,8.4-3.5,11-3.4,4-9,5.5-14.9,5.5s-10-1.7-12.1-3.9a5.81,5.81,0,0,1-1.9-4.2,4,4,0,0,1,4.1-4.3,3.19,3.19,0,0,1,3.1,3.4,5.29,5.29,0,0,1-1.1,3c.9.7,3.9,1.7,8.4,1.7,4,0,8.1-1,10.6-4a11.73,11.73,0,0,0,2.5-7.8V61A17.89,17.89,0,0,1,776,67.1c-10.3,0-18.7-8.2-18.7-19.3,0-10.1,7.4-19.9,19.6-19.9a18.21,18.21,0,0,1,12.9,5.2V28.6h10.9v4.2h-6.4V68.9ZM762.4,47.7c0,8.6,5.9,15.2,14,15.2,5.7,0,10-2.8,13.4-6.5V37a18.54,18.54,0,0,0-12.9-5C768.2,32.1,762.4,39.3,762.4,47.7Z"/>
			<path d="M812.9,49c.7,9.7,6.6,14.6,15.9,14.6,5.3,0,8.7-1.6,13.3-4.3l-.5,4.8A25,25,0,0,1,828.1,68c-12.2,0-20.2-8.3-20.2-19.9,0-10.5,7-20.1,18.6-20.1,11.1,0,17.1,8.7,17.1,18.1a11.52,11.52,0,0,1-.3,3H812.9Zm.1-4.2h25.9c-.5-7.5-4.8-12.7-12.8-12.7C819.4,32.1,813.9,37,813,44.8Z"/>
		</g>
	</g>
</svg>
