<svg xmlns="http://www.w3.org/2000/svg" xmlns:xlink="http://www.w3.org/1999/xlink" viewBox="0 0 875 1080"><defs><style>.cls-1{fill:url(#radial-gradient);}.cls-11,.cls-14,.cls-15,.cls-16,.cls-17,.cls-2,.cls-23,.cls-24,.cls-29,.cls-32,.cls-41,.cls-42,.cls-46,.cls-47,.cls-50,.cls-52,.cls-54,.cls-55,.cls-56,.cls-6,.cls-63,.cls-64,.cls-65,.cls-66,.cls-67,.cls-68,.cls-69,.cls-7,.cls-70,.cls-8{fill:none;}.cls-3{isolation:isolate;}.cls-4{fill:#fbbc23;stroke-width:1px;}.cls-4,.cls-6{stroke:#fcc74a;}.cls-11,.cls-14,.cls-15,.cls-16,.cls-17,.cls-23,.cls-24,.cls-29,.cls-32,.cls-4,.cls-41,.cls-42,.cls-46,.cls-47,.cls-50,.cls-52,.cls-54,.cls-55,.cls-56,.cls-6,.cls-63,.cls-65,.cls-67,.cls-69,.cls-7,.cls-70,.cls-8{stroke-miterlimit:10;}.cls-5{clip-path:url(#clip-path);}.cls-6{stroke-width:1px;}.cls-11,.cls-50,.cls-54,.cls-65,.cls-67,.cls-69,.cls-7{stroke:#f0468a;}.cls-7{stroke-width:60px;}.cls-56,.cls-8{stroke:#474747;}.cls-17,.cls-32,.cls-50,.cls-8{stroke-width:2px;}.cls-9{fill:#474747;}.cls-10{fill:#a3cbcc;}.cls-11,.cls-14,.cls-42{stroke-linecap:round;}.cls-11,.cls-14{stroke-width:1.5px;}.cls-12,.cls-39{opacity:0.3;}.cls-12,.cls-21{mix-blend-mode:multiply;}.cls-13{clip-path:url(#clip-path-3);}.cls-14,.cls-23,.cls-32,.cls-41{stroke:#fbbc23;}.cls-15,.cls-16,.cls-17,.cls-24,.cls-29,.cls-46,.cls-47,.cls-63,.cls-64,.cls-66,.cls-68{stroke:#fff;}.cls-15{stroke-width:5px;}.cls-16{stroke-width:6px;}.cls-18{opacity:0.14;}.cls-19{clip-path:url(#clip-path-4);}.cls-20{fill:#fff;}.cls-21{opacity:0.45;}.cls-22{clip-path:url(#clip-path-5);}.cls-23,.cls-42{stroke-width:6.47px;}.cls-25{opacity:0.04;}.cls-26{clip-path:url(#clip-path-6);}.cls-27{opacity:0.1;}.cls-28{clip-path:url(#clip-path-7);}.cls-29{stroke-width:1.08px;}.cls-30{opacity:0.06;}.cls-31{clip-path:url(#clip-path-8);}.cls-33{clip-path:url(#clip-path-9);}.cls-34{clip-path:url(#clip-path-10);}.cls-35{opacity:0.5;}.cls-36{clip-path:url(#clip-path-11);}.cls-37{opacity:0.25;}.cls-38{clip-path:url(#clip-path-12);}.cls-40{clip-path:url(#clip-path-13);}.cls-42,.cls-52,.cls-55,.cls-70{stroke:#a3cbcc;}.cls-43{clip-path:url(#clip-path-14);}.cls-44{mask:url(#mask);}.cls-45{fill:url(#radial-gradient-2);}.cls-46{stroke-width:0.75px;}.cls-47{stroke-width:1.58px;}.cls-48{clip-path:url(#clip-path-16);}.cls-49{fill:#525252;}.cls-51{clip-path:url(#clip-path-17);}.cls-52{stroke-width:1.06px;}.cls-53{clip-path:url(#clip-path-18);}.cls-54{stroke-width:3.54px;}.cls-55{stroke-width:7px;}.cls-56{stroke-width:3px;}.cls-57{clip-path:url(#clip-path-19);}.cls-58{opacity:0.22;}.cls-59{clip-path:url(#clip-path-20);}.cls-60{clip-path:url(#clip-path-21);}.cls-61{clip-path:url(#clip-path-22);}.cls-62{clip-path:url(#clip-path-23);}.cls-63{stroke-width:0.5px;}.cls-64,.cls-66,.cls-68{stroke-linejoin:round;}.cls-64{stroke-width:4.54px;}.cls-65{stroke-width:0.51px;}.cls-66{stroke-width:2.73px;}.cls-67{stroke-width:0.31px;}.cls-68{stroke-width:4px;}.cls-69,.cls-70{stroke-width:0.45px;}</style><radialGradient id="radial-gradient" cx="-875" cy="1080" r="1" gradientTransform="matrix(-471.64, 0, 0, 471.64, -412060.63, -508244.05)" gradientUnits="userSpaceOnUse"><stop offset="0" stop-color="#fff"/><stop offset="0.15" stop-color="#c6c6c6"/><stop offset="0.32" stop-color="#8a8a8a"/><stop offset="0.48" stop-color="#595959"/><stop offset="0.64" stop-color="#323232"/><stop offset="0.78" stop-color="#171717"/><stop offset="0.91" stop-color="#060606"/><stop offset="1"/></radialGradient><clipPath id="clip-path"><rect class="cls-2" width="875" height="1080"/></clipPath><clipPath id="clip-path-3"><rect class="cls-2" x="192.53" y="440.85" width="112.56" height="209.86"/></clipPath><clipPath id="clip-path-4"><rect class="cls-2" x="394.56" y="545.45" width="227.34" height="83.9"/></clipPath><clipPath id="clip-path-5"><rect class="cls-2" x="392.05" y="381.61" width="170.28" height="170.28"/></clipPath><clipPath id="clip-path-6"><rect class="cls-2" x="430.14" y="419.71" width="94.09" height="94.09"/></clipPath><clipPath id="clip-path-7"><rect class="cls-2" x="419.91" y="409.47" width="114.55" height="114.55"/></clipPath><clipPath id="clip-path-8"><rect class="cls-2" x="409.28" y="382.06" width="138.47" height="169.72"/></clipPath><clipPath id="clip-path-9"><rect class="cls-2" x="336.64" y="285.94" width="201.91" height="68.43"/></clipPath><clipPath id="clip-path-10"><rect class="cls-2" x="336.12" y="240.07" width="168.43" height="55.27"/></clipPath><clipPath id="clip-path-11"><rect class="cls-2" x="372.62" y="273.42" width="114.09" height="47.98"/></clipPath><clipPath id="clip-path-12"><rect class="cls-2" x="437.55" y="490.27" width="32.75" height="32.75"/></clipPath><clipPath id="clip-path-13"><rect class="cls-2" x="126.14" y="459.05" width="116.16" height="210"/></clipPath><clipPath id="clip-path-14"><path class="cls-2" d="M516.83,767l-145,40.69L388,865.45l145-40.69a49.5,49.5,0,1,1,26.75,95.31l-79.3,22.26A174,174,0,0,0,356.28,1080h61.41a114.4,114.4,0,0,1,10.72-26.21,112.78,112.78,0,0,1,68.29-53.7L576,977.84a109.54,109.54,0,0,0-29.42-215A109.9,109.9,0,0,0,516.83,767"/></clipPath><mask id="mask" x="289.32" y="698.79" width="437.38" height="445.28" maskUnits="userSpaceOnUse"><rect class="cls-1" x="320.38" y="739" width="375.26" height="364.86" transform="translate(-501.48 1218.16) rotate(-77.51)"/></mask><radialGradient id="radial-gradient-2" cx="-875" cy="1080" r="1" gradientTransform="matrix(-471.64, 0, 0, 471.64, -412060.63, -508244.05)" gradientUnits="userSpaceOnUse"><stop offset="0" stop-color="#fbbc23"/><stop offset="1" stop-color="#fbbc23"/></radialGradient><clipPath id="clip-path-16"><rect class="cls-2" x="15.81" y="995.43" width="94.48" height="94.48"/></clipPath><clipPath id="clip-path-17"><rect class="cls-2" x="364.88" y="-0.71" width="118.06" height="118.06"/></clipPath><clipPath id="clip-path-18"><rect class="cls-2" x="338.79" y="-26.79" width="170.23" height="170.22"/></clipPath><clipPath id="clip-path-19"><rect class="cls-2" x="341.19" y="-24.4" width="165.64" height="165.65"/></clipPath><clipPath id="clip-path-20"><rect class="cls-2" x="362.32" y="-3.27" width="144.51" height="144.52"/></clipPath><clipPath id="clip-path-21"><rect class="cls-2" x="341.19" y="-24.4" width="125.06" height="125.06"/></clipPath><clipPath id="clip-path-22"><rect class="cls-2" x="380.05" y="68.62" width="32.74" height="32.75"/></clipPath><clipPath id="clip-path-23"><rect class="cls-2" x="364.63" y="100.32" width="16.37" height="16.37"/></clipPath></defs><title>testArtboard 1</title><g class="cls-3"><g id="Layer_1" data-name="Layer 1"><rect class="cls-4" width="875" height="1080"/><g class="cls-5"><g class="cls-5"><rect class="cls-6" width="875" height="1080"/><path class="cls-7" d="M379.92,836.57l145-40.7a79.5,79.5,0,1,1,43,153.09L488.6,971.21a143.49,143.49,0,0,0-99.39,176.94h0a143.51,143.51,0,0,0,176.94,99.39l489.46-137.37A168.48,168.48,0,0,0,1172.3,902.42"/><path class="cls-8" d="M634.28,283.61l-78.95,22.16-9.18-32.71A12.76,12.76,0,0,1,555,257.33l54.39-15.26a12.74,12.74,0,0,1,15.72,8.83Z"/><rect class="cls-9" x="229.01" y="335.64" width="99.59" height="41.57" transform="translate(-85.94 88.59) rotate(-15.68)"/><polyline class="cls-8" points="144.79 408.28 137.5 382.29 198.15 365.26 205.44 391.26"/><path class="cls-10" d="M716.51,554.73,199.21,699.91A12.86,12.86,0,0,1,183.37,691L106.89,418.47a12.84,12.84,0,0,1,8.89-15.83L633.09,257.46a12.85,12.85,0,0,1,15.83,8.9L725.4,538.9a12.83,12.83,0,0,1-8.89,15.83"/><rect class="cls-9" x="139.9" y="396.85" width="562.97" height="200.99" transform="translate(-118.71 132.36) rotate(-15.68)"/><path class="cls-11" d="M599.48,411.26l24,1.89A14.42,14.42,0,0,1,629.55,440l-18.92,11Z"/><g class="cls-12"><g class="cls-13"><rect class="cls-9" x="218.56" y="445.28" width="60.5" height="200.99" transform="translate(-138.22 87.53) rotate(-15.68)"/></g></g><line class="cls-14" x1="251.21" y1="442.39" x2="285.49" y2="564.55"/><line class="cls-15" x1="177.52" y1="670.16" x2="719.55" y2="518.05"/><line class="cls-16" x1="123.21" y1="476.65" x2="665.24" y2="324.53"/><path class="cls-10" d="M487.77,240.8l-137,37.8a20.19,20.19,0,0,0-14.82,19.79l3,180.07,131.19-36.82,131.2-36.82L510.55,250a20.19,20.19,0,0,0-22.78-9.24"/><rect class="cls-17" x="320.46" y="451.57" width="37.48" height="37.48" transform="translate(-114.46 109.14) rotate(-15.68)"/><polygon class="cls-9" points="338.68 462.72 342.8 477.38 470.14 441.64 601.34 404.82 548.81 315.27 337.21 374.65 338.68 462.72"/><rect class="cls-10" x="212.92" y="356.59" width="36" height="27" transform="translate(-91.41 76.16) rotate(-15.68)"/><g class="cls-18"><g class="cls-19"><path class="cls-9" d="M394.56,609.25a165.18,165.18,0,0,0,56.05,20.1l133.88-37.57a165.19,165.19,0,0,0,37.41-46.33Z"/></g></g><path class="cls-20" d="M612.3,428.83a140.34,140.34,0,1,1-173-97.19,140.33,140.33,0,0,1,173,97.19"/><path class="cls-9" d="M599,432.57A126.5,126.5,0,1,1,443,345a126.51,126.51,0,0,1,156,87.61"/><g class="cls-21"><g class="cls-22"><path class="cls-9" d="M559.14,443.75A85.12,85.12,0,1,1,454.19,384.8a85.12,85.12,0,0,1,105,58.95"/></g></g><path class="cls-23" d="M559.14,443.75A85.12,85.12,0,1,1,454.19,384.8,85.12,85.12,0,0,1,559.14,443.75Z"/><path class="cls-24" d="M572.73,439.94a99.23,99.23,0,1,1-191.08,53.62"/><g class="cls-25"><g class="cls-26"><path class="cls-20" d="M522.47,454a47,47,0,1,1-58-32.57,47,47,0,0,1,58,32.57"/></g></g><g class="cls-27"><g class="cls-28"><path class="cls-29" d="M531.8,451.42a56.73,56.73,0,1,1-69.94-39.28A56.71,56.71,0,0,1,531.8,451.42Z"/></g></g><path class="cls-11" d="M446.76,358.34a112.6,112.6,0,1,1,60.85,216.82"/><g class="cls-30"><g class="cls-31"><path class="cls-20" d="M485.69,382.06l-76.41,136a84.83,84.83,0,0,0,12,12.83l81.62-145.29a84.52,84.52,0,0,0-17.19-3.55"/><path class="cls-20" d="M547.75,419.15A84.92,84.92,0,0,0,523,395L439.72,543.16a84.94,84.94,0,0,0,33.53,8.62Z"/></g></g><rect class="cls-17" x="222.72" y="389" width="75" height="21.28" transform="translate(-98.3 85.18) rotate(-15.68)"/><path class="cls-32" d="M157.47,491a10.44,10.44,0,1,1-12.87-7.23A10.44,10.44,0,0,1,157.47,491Z"/><path class="cls-32" d="M663.48,349a10.44,10.44,0,1,1-12.87-7.23A10.45,10.45,0,0,1,663.48,349Z"/><path class="cls-10" d="M616.21,427.94a6.2,6.2,0,1,0,4.29-7.64,6.2,6.2,0,0,0-4.29,7.64"/><g class="cls-12"><g class="cls-33"><polygon class="cls-9" points="336.87 354.37 538.55 297.77 531.61 285.94 336.64 340.66 336.87 354.37"/></g></g><polyline class="cls-8" points="607.17 264.74 598.39 233.44 556.54 245.19"/><line class="cls-11" x1="347.88" y1="568.6" x2="339.51" y2="538.75"/><g class="cls-18"><g class="cls-34"><path class="cls-9" d="M504.55,243.62a20.2,20.2,0,0,0-16.78-2.82l-137,37.8a20.19,20.19,0,0,0-14.62,16.75Z"/></g></g><line class="cls-24" x1="180.66" y1="681.35" x2="325.56" y2="640.68"/><line class="cls-24" x1="246.28" y1="358.22" x2="336.51" y2="332.9"/><g class="cls-35"><g class="cls-36"><polygon class="cls-20" points="372.62 304.07 377.48 321.4 486.71 290.75 481.85 273.42 470.18 276.69 453.36 294 450.09 282.33 429.16 288.21 432.34 299.54 414.72 304.48 411.55 293.15 400.02 296.38 392.66 309.49 372.62 304.07"/></g></g><path class="cls-10" d="M337,588a15.75,15.75,0,1,0,10.9-19.42A15.75,15.75,0,0,0,337,588"/><g class="cls-37"><g class="cls-38"><path class="cls-24" d="M469.21,502.35a15.87,15.87,0,1,1-19.57-11A15.88,15.88,0,0,1,469.21,502.35Z"/></g></g><g class="cls-39"><g class="cls-40"><polygon class="cls-20" points="170.65 645.66 170.78 646.14 219.78 558.91 219.65 558.43 170.65 645.66"/><polygon class="cls-41" points="170.65 645.66 170.78 646.14 219.78 558.91 219.65 558.43 170.65 645.66"/><polygon class="cls-20" points="175.04 661.33 175.18 661.8 224.18 574.58 224.04 574.1 175.04 661.33"/><polygon class="cls-41" points="175.04 661.33 175.18 661.8 224.18 574.58 224.04 574.1 175.04 661.33"/><polygon class="cls-20" points="184.35 668.25 184.83 668.11 228.57 590.24 228.44 589.77 184.35 668.25"/><polygon class="cls-41" points="184.35 668.25 184.83 668.11 228.57 590.24 228.44 589.77 184.35 668.25"/><polygon class="cls-20" points="166.25 629.99 166.38 630.47 215.38 543.24 215.25 542.76 166.25 629.99"/><polygon class="cls-41" points="166.25 629.99 166.38 630.47 215.38 543.24 215.25 542.76 166.25 629.99"/><polygon class="cls-20" points="215.69 659.45 216.17 659.32 237.37 621.58 237.23 621.1 215.69 659.45"/><polygon class="cls-41" points="215.69 659.45 216.17 659.32 237.37 621.58 237.23 621.1 215.69 659.45"/><polygon class="cls-20" points="231.83 654.92 241.76 637.25 241.63 636.77 231.36 655.05 231.83 654.92"/><polygon class="cls-41" points="231.83 654.92 241.76 637.25 241.63 636.77 231.36 655.05 231.83 654.92"/><polygon class="cls-20" points="161.85 614.33 161.99 614.8 210.99 527.57 210.85 527.1 161.85 614.33"/><polygon class="cls-41" points="161.85 614.33 161.99 614.8 210.99 527.57 210.85 527.1 161.85 614.33"/><polygon class="cls-20" points="200.02 663.85 200.5 663.72 232.97 605.91 232.84 605.43 200.02 663.85"/><polygon class="cls-41" points="200.02 663.85 200.5 663.72 232.97 605.91 232.84 605.43 200.02 663.85"/><polygon class="cls-20" points="148.66 567.32 148.79 567.8 197.79 480.57 197.66 480.09 148.66 567.32"/><polygon class="cls-41" points="148.66 567.32 148.79 567.8 197.79 480.57 197.66 480.09 148.66 567.32"/><polygon class="cls-20" points="135.47 520.32 135.6 520.8 167.36 464.26 166.88 464.39 135.47 520.32"/><polygon class="cls-41" points="135.47 520.32 135.6 520.8 167.36 464.26 166.88 464.39 135.47 520.32"/><polygon class="cls-20" points="131.07 504.65 131.21 505.13 151.69 468.66 151.22 468.79 131.07 504.65"/><polygon class="cls-41" points="131.07 504.65 131.21 505.13 151.69 468.66 151.22 468.79 131.07 504.65"/><polygon class="cls-20" points="139.87 535.99 140 536.46 183.03 459.86 182.55 460 139.87 535.99"/><polygon class="cls-41" points="139.87 535.99 140 536.46 183.03 459.86 182.55 460 139.87 535.99"/><polygon class="cls-20" points="144.26 551.65 144.4 552.13 193.4 464.9 193.26 464.43 144.26 551.65"/><polygon class="cls-41" points="144.26 551.65 144.4 552.13 193.4 464.9 193.26 464.43 144.26 551.65"/><polygon class="cls-20" points="153.06 582.99 153.19 583.47 202.19 496.24 202.06 495.76 153.06 582.99"/><polygon class="cls-41" points="153.06 582.99 153.19 583.47 202.19 496.24 202.06 495.76 153.06 582.99"/><polygon class="cls-20" points="157.46 598.66 157.59 599.13 206.59 511.9 206.45 511.43 157.46 598.66"/><polygon class="cls-41" points="157.46 598.66 157.59 599.13 206.59 511.9 206.45 511.43 157.46 598.66"/><polygon class="cls-20" points="126.68 488.98 126.81 489.46 136.03 473.05 135.55 473.19 126.68 488.98"/><polygon class="cls-41" points="126.68 488.98 126.81 489.46 136.03 473.05 135.55 473.19 126.68 488.98"/></g></g><line class="cls-42" x1="123.21" y1="453.8" x2="93.92" y2="464.26"/><line class="cls-42" x1="653.43" y1="307.66" x2="681.92" y2="299.28"/></g><g class="cls-43"><g class="cls-44"><rect class="cls-45" x="320.38" y="739" width="375.26" height="364.86" transform="translate(-501.48 1218.16) rotate(-77.51)"/></g></g><g class="cls-5"><path class="cls-9" d="M695.34-123.18a84.34,84.34,0,0,1,84.25,84.24A84.34,84.34,0,0,1,695.34,45.3,84.34,84.34,0,0,1,611.1-38.94a84.34,84.34,0,0,1,84.24-84.24m0-29.72a114,114,0,0,0-114,114,114,114,0,0,0,114,114,114,114,0,0,0,114-113.95,114,114,0,0,0-114-114"/><rect class="cls-9" x="863.24" y="968.8" width="18.95" height="504.65" transform="translate(-297.11 280.76) rotate(-15.65)"/><polygon class="cls-9" points="824.89 942.63 803.74 867.13 775.73 874.98 747.72 882.83 768.87 958.32 795.51 980.72 804.64 978.16 813.76 975.6 824.89 942.63"/><line class="cls-46" x1="813.45" y1="900.19" x2="803.73" y2="902.91"/><line class="cls-46" x1="811.62" y1="893.53" x2="801.91" y2="896.25"/><line class="cls-46" x1="815" y1="906.43" x2="805.28" y2="909.15"/><line class="cls-46" x1="816.48" y1="912.96" x2="806.76" y2="915.68"/><line class="cls-46" x1="766.96" y1="913.09" x2="757.24" y2="915.81"/><line class="cls-46" x1="765.13" y1="906.43" x2="755.41" y2="909.15"/><line class="cls-46" x1="768.5" y1="919.33" x2="758.79" y2="922.05"/><line class="cls-46" x1="769.99" y1="925.86" x2="760.27" y2="928.58"/><polyline class="cls-47" points="796 869.3 785.41 831.48 744.85 842.85 755.45 880.66"/><rect class="cls-20" x="776.38" y="852.86" width="9.03" height="6.78" transform="translate(-202.07 242.46) rotate(-15.65)"/><rect class="cls-20" x="756.66" y="858.38" width="9.03" height="6.78" transform="translate(-204.29 237.35) rotate(-15.65)"/><path class="cls-9" d="M125.41,1042.67a62.36,62.36,0,1,1-62.35-62.36,62.35,62.35,0,0,1,62.35,62.36"/><g class="cls-12"><g class="cls-48"><path class="cls-9" d="M63.06,995.43a47.24,47.24,0,1,0,47.24,47.24,47.24,47.24,0,0,0-47.24-47.24m0,77a29.72,29.72,0,1,1,29.72-29.72,29.73,29.73,0,0,1-29.72,29.72"/></g></g><rect class="cls-49" x="84.57" y="824.43" width="166.84" height="94.5" transform="translate(-709.6 737.94) rotate(-70.43)"/><path class="cls-49" d="M300.69,840.5,230.2,815.44,227.52,823l6.94,2.46-4.14,11.62-6.93-2.46L187.74,934.88l2.22.79-4.13,11.62-2.23-.79-2.31,6.5,28.27,10,16-44.95a31,31,0,0,1,39.54-18.8L278.13,904a3.87,3.87,0,0,0,4.93-2.35l20-56.17a3.86,3.86,0,0,0-2.34-4.93M205.5,954.28l-11.62-4.13L198,938.53l11.62,4.13ZM250,844.06l-11.62-4.13,4.13-11.62,11.62,4.13Zm19.67,7-11.62-4.14,4.13-11.62,11.62,4.13Zm19.68,7-11.62-4.13,4.13-11.62,11.62,4.13Z"/><rect class="cls-49" x="178.62" y="771.85" width="32" height="49.86" transform="translate(-621.31 713.23) rotate(-70.43)"/><rect class="cls-10" x="95.27" y="823.65" width="146" height="94.5" transform="translate(-708.68 737.68) rotate(-70.43)"/><rect class="cls-50" x="82.61" y="846.57" width="127" height="34.67" transform="translate(-716.82 712.15) rotate(-70.43)"/><line class="cls-32" x1="197.42" y1="815.11" x2="168.83" y2="895.51"/><path class="cls-9" d="M278.65,58.32A145.26,145.26,0,1,0,423.91-86.94,145.26,145.26,0,0,0,278.65,58.32"/><g class="cls-12"><g class="cls-51"><path class="cls-9" d="M364.88,58.32a59,59,0,1,0,59-59,59,59,0,0,0-59,59"/></g></g><circle class="cls-52" cx="423.91" cy="58.32" r="138.47"/><g class="cls-12"><g class="cls-53"><path class="cls-9" d="M338.8,58.32A85.11,85.11,0,1,0,423.91-26.8,85.11,85.11,0,0,0,338.8,58.32"/></g></g><path class="cls-54" d="M338.8,58.32A85.11,85.11,0,1,0,423.91-26.8,85.11,85.11,0,0,0,338.8,58.32Z"/><circle class="cls-55" cx="423.91" cy="58.32" r="106.64" transform="translate(-0.55 4.16) rotate(-0.56)"/><line class="cls-56" x1="875.8" y1="78.41" x2="875.8" y2="44.85"/><line class="cls-56" x1="415.76" y1="50.05" x2="392.02" y2="73.78"/><line class="cls-56" x1="412.3" y1="58.23" x2="412.3" y2="91.8"/><line class="cls-56" x1="415.64" y1="66.47" x2="439.37" y2="90.2"/><path class="cls-32" d="M388.8,58.32A35.11,35.11,0,1,0,423.91,23.2,35.11,35.11,0,0,0,388.8,58.32Z"/><g class="cls-37"><g class="cls-57"><g class="cls-58"><g class="cls-59"><path class="cls-20" d="M482.62-3.27,362.32,117a84.94,84.94,0,0,0,42.45,24.21L506.84,39.17A85,85,0,0,0,482.62-3.27"/></g></g><g class="cls-58"><g class="cls-60"><path class="cls-20" d="M341.2,78.37a84.14,84.14,0,0,0,8.89,22.29L466.25-15.5A84.57,84.57,0,0,0,444-24.4Z"/></g></g></g></g><g class="cls-35"><g class="cls-61"><path class="cls-24" d="M411.7,80.71a15.87,15.87,0,1,1-19.57-11A15.86,15.86,0,0,1,411.7,80.71Z"/></g></g><g class="cls-35"><g class="cls-62"><path class="cls-63" d="M380.46,106.36a7.94,7.94,0,1,1-9.79-5.5A7.93,7.93,0,0,1,380.46,106.36Z"/></g></g><path class="cls-64" d="M728.86,630.65,716.68,653l18.71,63.64a5,5,0,0,0,6.2,3.38l56.54-16.62a5,5,0,0,0,3.38-6.2l-23.78-80.9Z"/><rect class="cls-65" x="770.12" y="624.88" width="6.03" height="15.9" transform="translate(-147.08 243.71) rotate(-16.38)"/><rect class="cls-65" x="761.12" y="627.52" width="6.03" height="15.9" transform="translate(-148.19 241.28) rotate(-16.38)"/><rect class="cls-65" x="752.13" y="630.16" width="6.03" height="15.9" transform="translate(-149.3 238.85) rotate(-16.38)"/><rect class="cls-65" x="743.14" y="632.81" width="6.03" height="15.9" transform="translate(-150.39 236.38) rotate(-16.38)"/><rect class="cls-65" x="734.15" y="635.45" width="6.03" height="15.9" transform="translate(-151.52 234) rotate(-16.38)"/><rect class="cls-65" x="726.58" y="645.96" width="6.03" height="15.9" transform="translate(-154.79 232.29) rotate(-16.38)"/><path class="cls-66" d="M478.57,1063.75l3.13,15,32.87,19.76a3,3,0,0,0,4.09-1.18l19-31.55a3,3,0,0,0-.86-4.16L495,1036.48Z"/><rect class="cls-67" x="497.38" y="1041.09" width="3.77" height="9.2" transform="matrix(0.52, -0.86, 0.86, 0.52, -654.18, 934.88)"/><rect class="cls-67" x="494.37" y="1046.1" width="3.77" height="9.2" transform="translate(-659.94 934.73) rotate(-58.99)"/><rect class="cls-67" x="491.35" y="1051.12" width="3.77" height="9.2" transform="translate(-665.71 934.57) rotate(-58.99)"/><rect class="cls-67" x="488.33" y="1056.14" width="3.77" height="9.2" transform="translate(-671.47 934.42) rotate(-58.99)"/><rect class="cls-67" x="485.32" y="1061.15" width="3.77" height="9.2" transform="translate(-677.23 934.27) rotate(-58.99)"/><rect class="cls-67" x="485.97" y="1069" width="3.77" height="9.2" transform="translate(-683.64 938.63) rotate(-58.99)"/><path class="cls-68" d="M375.61,911.38l6,21.56L353,983.83a4.4,4.4,0,0,1-6,1.68l-45.21-25.43a4.4,4.4,0,0,1-1.68-6l36.39-64.69Z"/><path class="cls-69" d="M343.16,974.6l-30-16.87a5.12,5.12,0,0,1-1.95-7l22.12-39.34a5.14,5.14,0,0,1,7-2l30,16.87a5.12,5.12,0,0,1,1.95,7l-22.12,39.34A5.13,5.13,0,0,1,343.16,974.6Z"/><line class="cls-69" x1="329.25" y1="918.71" x2="351.48" y2="931.21"/><rect class="cls-70" x="335.96" y="952.75" width="13.99" height="13.99" transform="translate(-661.67 788.14) rotate(-60.64)"/></g></g></g></g></svg>