<svg xmlns="http://www.w3.org/2000/svg" viewBox="0 0 127.83 127.83"><defs><style>.cls-1{fill:#fff;}</style></defs><title>Facebook-20</title><g id="Layer_2" data-name="Layer 2"><g id="Layer_1-2" data-name="Layer 1"><path class="cls-1" d="M120.78,0H7.06A7.06,7.06,0,0,0,0,7.06V120.78a7.06,7.06,0,0,0,7.06,7H68.29V78.4H51.68V59.05H68.29V44.81c0-16.51,10.08-25.5,24.81-25.5a135.11,135.11,0,0,1,14.88.76V37.32H97.83c-8,0-9.57,3.8-9.57,9.39V59.05h19.16l-2.5,19.35H88.26v49.43h32.52a7.05,7.05,0,0,0,7-7V7.06A7.06,7.06,0,0,0,120.78,0Z"/></g></g></svg>
