<svg xmlns="http://www.w3.org/2000/svg" viewBox="0 0 64.32 63.51">
	<title>OSC-icon0</title>
	<style>
		path { fill: #fff }
	</style>
	<g id="Layer_2" data-name="Layer 2">
		<g id="Layer_1-2" data-name="Layer 1">
			<path d="M13.4.48a17.73,17.73,0,0,0,7.2,34.7l18.1-4.5c.2,0,.3-.3.3-.5l-4.2-17.1V13A18,18,0,0,0,13.4.48Z"/>
			<path d="M39.3,33.08,26,36.38h-.1a13.82,13.82,0,1,0,17.4,11l-3.5-14.1A.37.37,0,0,0,39.3,33.08Z"/>
			<path d="M47.9,1.08a13.17,13.17,0,0,0-9.8,15l3.3,13.4a.55.55,0,0,0,.5.3l12.7-3.1h0a13.23,13.23,0,0,0-6.7-25.6Z"/>
		</g>
	</g>
</svg>
