<svg xmlns="http://www.w3.org/2000/svg" viewBox="0 0 29.5 25.78"><defs><style>.cls-1{fill:#16af75;}</style></defs><title>A-Level</title><g id="Layer_2" data-name="Layer 2"><g id="Layer_1-2" data-name="Layer 1"><path class="cls-1" d="M29.4,16.15V19c0,5.17-2,6.78-7.71,6.78a5.75,5.75,0,0,1-5.75-3.68,9.62,9.62,0,0,1-8,3.68c-4.92,0-8-1.92-8-7.2,0-9.78,15.37-4,15.37-10.82,0-3.41-2.17-4.55-5-4.55a7.65,7.65,0,0,0-4.09,1V4.3c1.56.2,3.26,1,3.26,2.84,0,2.28-2,3.26-4.09,3.26C3,10.4.93,9,.93,6.57.93.83,8.75,0,12.94,0,20,0,23.86,1.66,23.86,9.21v9.63c0,1.5.16,2.07,1,2.07,1.14,0,1.71-.67,1.71-3.57V16.15ZM15.27,13c-2.49,1.45-6.68,1.76-6.68,5a2.65,2.65,0,0,0,2.95,2.9c3,0,3.73-2.17,3.73-4.35Z"/><path class="cls-1" d="M28.58,13.62c.18,0,.28,0,.28-.24v-.27h.54v2.14h-.54V15c0-.2-.1-.24-.28-.24H25.8c-.19,0-.29,0-.29.24v.3H25V13.62Z"/><path class="cls-1" d="M28,11.78c.47,0,.93-.11.93-.67a.7.7,0,0,0-.57-.67V9.67a1.48,1.48,0,0,1,1.15,1.6A1.51,1.51,0,0,1,27.84,13a1.59,1.59,0,0,1-1.66-1.69A1.64,1.64,0,0,1,28,9.58Zm-.53-1h-.18c-.34,0-.57.18-.57.5a.5.5,0,0,0,.57.51h.18Z"/><path class="cls-1" d="M26.28,9.53v-2h.53v.24c0,.11,0,.2.1.2a.54.54,0,0,0,.2,0l1.59-.5h0l-1.57-.53-.19,0c-.11,0-.13.09-.13.2v.19h-.53V5.74h.53V5.9c0,.16.13.28.32.34L29.4,7V8.27L27.13,9c-.19.07-.32.17-.32.38v.12Z"/><path class="cls-1" d="M28,4.49c.47,0,.93-.11.93-.67a.7.7,0,0,0-.57-.67V2.37A1.49,1.49,0,0,1,29.5,4a1.5,1.5,0,0,1-1.66,1.68A1.58,1.58,0,0,1,26.18,4,1.64,1.64,0,0,1,28,2.29Zm-.53-1h-.18c-.34,0-.57.18-.57.5s.23.5.57.5h.18Z"/><path class="cls-1" d="M28.58.51c.18,0,.28,0,.28-.24V0h.54V2.14h-.54V1.86c0-.2-.1-.24-.28-.24H25.8c-.19,0-.29,0-.29.24v.3H25V.51Z"/></g></g></svg>