<svg xmlns="http://www.w3.org/2000/svg" viewBox="0 0 600 750"><defs><style>.cls-1,.cls-8{fill:#f869a3;}.cls-2{fill:#fcc74a;}.cls-3{fill:#474747;}.cls-4{fill:#fff;}.cls-5{fill:#a3cbcc;}.cls-6{fill:#fbbc23;}.cls-7{fill:#f0468a;}.cls-8{opacity:0.31;}</style></defs><title>Accounts</title><g id="Layer_2" data-name="Layer 2"><g id="Layer_1-2" data-name="Layer 1"><rect class="cls-1" width="600" height="750"/><path class="cls-2" d="M403.79,672.24H196.32a13,13,0,0,1-13-13V525.55H416.81V659.22A13,13,0,0,1,403.79,672.24Z"/><rect class="cls-3" x="183.3" y="460.69" width="233.51" height="57.67"/><path class="cls-4" d="M245.16,495.32c0,.36.05.77.05,1.13a9.16,9.16,0,0,1-2.82,6.93,26.4,26.4,0,0,1,5.28,1.18,14.09,14.09,0,0,0,5.13,1c2.21,0,3.24-.77,4.26-2.72l2.06,1.18c-1.39,2.67-3.29,4-6.21,4a16.82,16.82,0,0,1-6.16-1.34,12.43,12.43,0,0,0-4.62-1,7.46,7.46,0,0,0-1.18.06,5.42,5.42,0,0,1-3.95,2.31c-1.13,0-1.95-.67-1.95-1.49,0-1.49,1.54-2.82,4.77-3.18a9.36,9.36,0,0,0,3-6.93,8.18,8.18,0,0,0-.05-1.13h-5v-2.26h4.51l-.51-1.74a20.07,20.07,0,0,1-1.08-6.26c0-4.93,3.44-9.39,9-9.39,4.26,0,7.8,2.46,7.8,5.08,0,1.79-1.07,2.67-2.1,2.67a1.85,1.85,0,0,1-1.9-1.95,2.38,2.38,0,0,1,.82-1.8c-.72-.92-2-1.69-4.67-1.69-3.95,0-6.41,3.33-6.41,7.08a18.39,18.39,0,0,0,1,5.95l.62,2.05h8.83v2.26Z"/><path class="cls-4" d="M264.91,500.35a1.94,1.94,0,0,1,2,1.95,2.29,2.29,0,0,1-1,1.8,5.1,5.1,0,0,0,.72.61,8.9,8.9,0,0,0,5,1.13c4.52,0,7.9-3.18,7.9-7.6s-3.08-7.43-7.64-7.43a18.3,18.3,0,0,0-7.14,1.43l-1.12-.67,1.79-15.49h15.14v2.56h-13l-1.23,10.68a18.09,18.09,0,0,1,5.64-.88c6,0,10.31,4,10.31,9.8s-4.72,10-10.57,10c-3.33,0-6.1-.87-7.69-2.31a3.94,3.94,0,0,1-1.44-3A2.45,2.45,0,0,1,264.91,500.35Z"/><path class="cls-4" d="M287,488.91c0-7.6,4.67-13.24,11.39-13.24s11.39,5.69,11.39,13.24-4.72,13.29-11.39,13.29S287,496.45,287,488.91Zm20,0c0-6.26-3.44-10.78-8.57-10.78s-8.57,4.46-8.57,10.78,3.49,10.82,8.57,10.82S307,495.27,307,488.91Z"/><path class="cls-4" d="M312.26,507.94c3.38-2.46,4.36-4.72,4.41-6.05a2.85,2.85,0,0,1-2.41-2.62,2.61,2.61,0,0,1,2.57-2.56c1.53,0,2.87,1.23,2.87,3.48,0,2.67-1.75,6.27-6.77,8.83Z"/><path class="cls-4" d="M324.26,488.91c0-7.6,4.67-13.24,11.39-13.24s11.4,5.69,11.4,13.24-4.73,13.29-11.4,13.29S324.26,496.45,324.26,488.91Zm20,0c0-6.26-3.43-10.78-8.57-10.78s-8.57,4.46-8.57,10.78,3.49,10.82,8.57,10.82S344.22,495.27,344.22,488.91Z"/><path class="cls-4" d="M352.07,488.91c0-7.6,4.67-13.24,11.39-13.24s11.39,5.69,11.39,13.24-4.72,13.29-11.39,13.29S352.07,496.45,352.07,488.91Zm20,0c0-6.26-3.44-10.78-8.57-10.78s-8.57,4.46-8.57,10.78,3.49,10.82,8.57,10.82S372,495.27,372,488.91Z"/><path class="cls-4" d="M379.87,488.91c0-7.6,4.67-13.24,11.39-13.24s11.39,5.69,11.39,13.24-4.72,13.29-11.39,13.29S379.87,496.45,379.87,488.91Zm20,0c0-6.26-3.43-10.78-8.57-10.78s-8.57,4.46-8.57,10.78,3.49,10.82,8.57,10.82S399.83,495.27,399.83,488.91Z"/><path class="cls-5" d="M250.13,551.8v8.29H233.55V551.8h16.58m3.53-3.54H230v15.36h23.65V548.26Z"/><path class="cls-5" d="M281.4,551.8v8.29H264.82V551.8H281.4m3.53-3.54H261.28v15.36h23.65V548.26Z"/><path class="cls-5" d="M313.47,551.8v8.29H296.89V551.8h16.58m3.54-3.54H293.35v15.36H317V548.26Z"/><rect class="cls-6" x="375.61" y="548.26" width="23.65" height="15.36"/><path class="cls-5" d="M352.57,551.8v8.29H336V551.8h16.58m3.54-3.54H332.45v15.36h23.66V548.26Z"/><path class="cls-4" d="M253.66,595.57H230a.87.87,0,0,1-.88-.88V571a.87.87,0,0,1,.88-.88h23.65a.88.88,0,0,1,.89.88v23.66A.88.88,0,0,1,253.66,595.57Zm-22.77-1.77h21.89V571.92H230.89Z"/><path class="cls-4" d="M253.66,626.63H230a.87.87,0,0,1-.88-.88V602.09a.87.87,0,0,1,.88-.88h23.65a.88.88,0,0,1,.89.88v23.66A.88.88,0,0,1,253.66,626.63Zm-22.77-1.77h21.89V603H230.89Z"/><path class="cls-4" d="M253.66,657.69H230a.87.87,0,0,1-.88-.88V633.16a.88.88,0,0,1,.88-.89h23.65a.89.89,0,0,1,.89.89v23.65A.88.88,0,0,1,253.66,657.69Zm-22.77-1.77h21.89V634H230.89Z"/><path class="cls-5" d="M214.75,574.57v16.58H198.17V574.57h16.58m3.53-3.54H194.63v23.66h23.65V571Z"/><path class="cls-5" d="M214.75,605.63v16.58H198.17V605.63h16.58m3.53-3.54H194.63v23.66h23.65V602.09Z"/><path class="cls-5" d="M214.75,636.69v16.58H198.17V636.69h16.58m3.53-3.53H194.63v23.65h23.65V633.16Z"/><path class="cls-4" d="M284.93,595.57H261.28a.87.87,0,0,1-.88-.88V571a.87.87,0,0,1,.88-.88h23.65a.88.88,0,0,1,.89.88v23.66A.88.88,0,0,1,284.93,595.57Zm-22.76-1.77h21.88V571.92H262.17Z"/><path class="cls-4" d="M284.93,626.63H261.28a.87.87,0,0,1-.88-.88V602.09a.87.87,0,0,1,.88-.88h23.65a.88.88,0,0,1,.89.88v23.66A.88.88,0,0,1,284.93,626.63Zm-22.76-1.77h21.88V603H262.17Z"/><path class="cls-4" d="M284.93,657.69H261.28a.87.87,0,0,1-.88-.88V633.16a.88.88,0,0,1,.88-.89h23.65a.89.89,0,0,1,.89.89v23.65A.88.88,0,0,1,284.93,657.69Zm-22.76-1.77h21.88V634H262.17Z"/><path class="cls-4" d="M317,595.57H293.35a.87.87,0,0,1-.88-.88V571a.87.87,0,0,1,.88-.88H317a.87.87,0,0,1,.88.88v23.66A.87.87,0,0,1,317,595.57Zm-22.77-1.77h21.88V571.92H294.24Z"/><rect class="cls-7" x="332.45" y="571.03" width="23.65" height="23.65"/><path class="cls-4" d="M317,626.63H293.35a.87.87,0,0,1-.88-.88V602.09a.87.87,0,0,1,.88-.88H317a.87.87,0,0,1,.88.88v23.66A.87.87,0,0,1,317,626.63Zm-22.77-1.77h21.88V603H294.24Z"/><path class="cls-4" d="M317,657.69H293.35a.87.87,0,0,1-.88-.88V633.16a.88.88,0,0,1,.88-.89H317a.88.88,0,0,1,.88.89v23.65A.87.87,0,0,1,317,657.69Zm-22.77-1.77h21.88V634H294.24Z"/><path class="cls-4" d="M399.27,595.57H375.61a.87.87,0,0,1-.88-.88V571a.87.87,0,0,1,.88-.88h23.66a.88.88,0,0,1,.88.88v23.66A.88.88,0,0,1,399.27,595.57ZM376.5,593.8h21.88V571.92H376.5Z"/><path class="cls-4" d="M399.27,626.63H375.61a.87.87,0,0,1-.88-.88V602.09a.87.87,0,0,1,.88-.88h23.66a.88.88,0,0,1,.88.88v23.66A.88.88,0,0,1,399.27,626.63Zm-22.77-1.77h21.88V603H376.5Z"/><path class="cls-4" d="M399.27,657.69H375.61a.87.87,0,0,1-.88-.88V633.16a.88.88,0,0,1,.88-.89h23.66a.89.89,0,0,1,.88.89v23.65A.88.88,0,0,1,399.27,657.69Zm-22.77-1.77h21.88V634H376.5Z"/><path class="cls-4" d="M239.52,649.26h2.54v-8.45l-2.31.62-.25-1,3.24-.91h.45v9.72h2.5v1h-6.17Z"/><path class="cls-4" d="M243.47,616.17h-6.06l-.17-.4,6.7-9,.85.62L239,615.2h4.49v-3.27l1.06-.45v3.72H247v1h-2.51v3.88h-1.06Z"/><path class="cls-4" d="M239.89,588.68l4.91-10.86h-5.12v1.85h-1V577H246l.16.31-5.34,11.81Z"/><path class="cls-4" d="M269.55,585.81a3.38,3.38,0,0,1,2.37-3.06A3.29,3.29,0,0,1,269.8,580a3.6,3.6,0,0,1,7.17,0,3.23,3.23,0,0,1-2.13,2.78,3.41,3.41,0,0,1,2.4,3.06,3.87,3.87,0,0,1-7.69,0Zm6.58,0a2.74,2.74,0,0,0-5.47,0,2.75,2.75,0,0,0,5.47,0Zm-.2-5.8a2.55,2.55,0,1,0-2.55,2.33A2.44,2.44,0,0,0,275.93,580Z"/><path class="cls-4" d="M301.79,588.21a1.45,1.45,0,0,1-.43-1,.92.92,0,0,1,.89-1,.75.75,0,0,1,.78.8.64.64,0,0,1-.35.62,2,2,0,0,0,1.56.58c2.08,0,3.64-2,3.76-5.52a3.85,3.85,0,0,1-7-1.89,3.88,3.88,0,0,1,3.95-4,3.93,3.93,0,0,1,2.82,1.11A5.64,5.64,0,0,1,309,582c0,5.46-2.69,7.11-4.87,7.11A3.33,3.33,0,0,1,301.79,588.21Zm3.13-10.48a2.81,2.81,0,0,0-2.9,3,2.58,2.58,0,0,0,2.8,2.65,2.93,2.93,0,0,0,3.06-2.9,2.77,2.77,0,0,0-.82-2A2.93,2.93,0,0,0,304.92,577.73Z"/><path class="cls-4" d="M270.39,617a.74.74,0,0,1,.78.74.85.85,0,0,1-.39.68,1.31,1.31,0,0,0,.27.24,3.41,3.41,0,0,0,1.89.42,2.84,2.84,0,0,0,3-2.87,2.73,2.73,0,0,0-2.9-2.83,6.92,6.92,0,0,0-2.7.55l-.43-.26.68-5.87h5.74v1H271.4l-.47,4a6.82,6.82,0,0,1,2.14-.33,3.66,3.66,0,0,1,3.91,3.72,3.82,3.82,0,0,1-4,3.77,4.44,4.44,0,0,1-2.92-.87,1.53,1.53,0,0,1-.55-1.13A.94.94,0,0,1,270.39,617Z"/><path class="cls-4" d="M302.14,614.18a3.65,3.65,0,0,1,3.19-1.79,3.7,3.7,0,0,1,3.85,3.64,4,4,0,0,1-6.77,2.88,5.8,5.8,0,0,1-1.26-4.12c0-5.39,2.53-7.32,4.71-7.32a3.32,3.32,0,0,1,2.31.88,1.46,1.46,0,0,1,.47,1,.93.93,0,0,1-.9,1,.75.75,0,0,1-.77-.8.64.64,0,0,1,.34-.62,2,2,0,0,0-1.55-.59C303.83,608.4,302.25,610.47,302.14,614.18Zm6,1.85a2.62,2.62,0,0,0-2.8-2.7,3,3,0,0,0-3.06,3,2.79,2.79,0,0,0,.82,2,2.93,2.93,0,0,0,2.14.82A2.82,2.82,0,0,0,308.13,616Z"/><path class="cls-4" d="M270.15,641.39a1.23,1.23,0,0,0-.17.25.86.86,0,0,1-.21,1.68,1,1,0,0,1-1-1.15,2.12,2.12,0,0,1,.38-1.12,4,4,0,0,1,3.29-1.61c2.46,0,3.69,1.46,3.69,3s-1.5,2.74-3.12,3.8a9,9,0,0,0-3.2,3h5.64v-1.87h1v2.84h-7.95l-.09-.55c.81-2,2.46-3.16,4.12-4.24,1.36-.91,2.46-1.66,2.46-3s-1-2-2.67-2A3,3,0,0,0,270.15,641.39Z"/><path class="cls-4" d="M301.81,647.41a.73.73,0,0,1,.74.72.79.79,0,0,1-.59.78.88.88,0,0,0,.24.31,3.47,3.47,0,0,0,2.35.72c1.77,0,3-1.05,3-2.39a2.36,2.36,0,0,0-1.5-2.16,5.48,5.48,0,0,0-2.28-.45h-.37V644h.43a4.65,4.65,0,0,0,2.3-.62,2.26,2.26,0,0,0,1.24-1.85c0-1.31-1.05-2-2.64-2a2.86,2.86,0,0,0-2.2.78,1.06,1.06,0,0,0-.18.27.84.84,0,0,1,.61.72.75.75,0,0,1-.78.74,1,1,0,0,1-.88-1,1.85,1.85,0,0,1,.35-1,3.72,3.72,0,0,1,3.15-1.44c2.15,0,3.57,1.38,3.57,3a3,3,0,0,1-1.64,2.45,3.77,3.77,0,0,1-1.26.43,4.41,4.41,0,0,1,1.2.37,3,3,0,0,1,1.87,2.68c0,2.07-1.77,3.41-4,3.41a4.05,4.05,0,0,1-3.31-1.42,1.83,1.83,0,0,1-.33-1A1,1,0,0,1,301.81,647.41Z"/><path class="cls-4" d="M383.12,644.76c0-2.88,1.77-5,4.32-5s4.32,2.16,4.32,5-1.79,5-4.32,5S383.12,647.62,383.12,644.76Zm7.57,0c0-2.37-1.3-4.09-3.25-4.09s-3.25,1.7-3.25,4.09,1.32,4.11,3.25,4.11S390.69,647.17,390.69,644.76Z"/><path class="cls-4" d="M387.07,617.65a1,1,0,1,1,1,1.05A1,1,0,0,1,387.07,617.65Z"/><path class="cls-4" d="M382.57,579.66a2.24,2.24,0,1,1,2.24,2.29A2.26,2.26,0,0,1,382.57,579.66Zm3.62,0a1.38,1.38,0,1,0-1.38,1.5A1.42,1.42,0,0,0,386.19,579.66Zm-2.73,7.61,3.76-4.9c1.48-1.93,3.56-4.66,3.76-4.93l.66.49-3.8,5-3.73,4.89Zm9.23-2.12a2.24,2.24,0,1,1-2.24-2.3A2.25,2.25,0,0,1,392.69,585.15Zm-3.62,0a1.38,1.38,0,1,0,1.38-1.5A1.42,1.42,0,0,0,389.07,585.15Z"/><path class="cls-4" d="M406.84,681.38H193.27a19.73,19.73,0,0,1-19.7-19.7v-201h.89v201a18.84,18.84,0,0,0,18.81,18.82H406.84a18.84,18.84,0,0,0,18.81-18.82V454.06H313.32v-.89H426.54V661.68A19.73,19.73,0,0,1,406.84,681.38Z"/><path class="cls-4" d="M206.15,351a44,44,0,1,1-44,44,44.05,44.05,0,0,1,44-44m0-1.77A45.78,45.78,0,1,0,251.92,395a45.77,45.77,0,0,0-45.77-45.77Z"/><path class="cls-4" d="M355.78,657.69h-23a.87.87,0,0,1-.88-.88V602.09a.87.87,0,0,1,.88-.88h23a.87.87,0,0,1,.88.88v54.72A.87.87,0,0,1,355.78,657.69Zm-22.11-1.77h21.22V603H333.67Z"/><rect class="cls-4" x="343.4" y="624.48" width="1.77" height="12.24"/><rect class="cls-4" x="338.16" y="629.71" width="12.24" height="1.77"/><rect class="cls-4" x="338.16" y="581.97" width="12.24" height="1.77"/><rect class="cls-4" x="201.16" y="579.81" width="10.59" height="1.77"/><rect class="cls-4" x="201.16" y="583.94" width="10.59" height="1.77"/><rect class="cls-4" x="205.57" y="607.8" width="1.77" height="12.24" transform="translate(-373.64 325.81) rotate(-45)"/><rect class="cls-4" x="200.34" y="613.04" width="12.24" height="1.77" transform="translate(-373.64 325.8) rotate(-45)"/><polygon class="cls-2" points="318.78 444.78 315.24 444.78 315.24 396.79 300.06 396.79 300.06 393.25 318.78 393.25 318.78 444.78"/><path class="cls-4" d="M295.41,440.8h-92V352.35a119.11,119.11,0,0,1,119-119h20.27a27,27,0,1,0,0-53.95H259.81a119.1,119.1,0,0,1-119-119V0h92V60.46a27,27,0,0,0,27,27h82.85a119,119,0,1,1,0,237.93H322.39a27,27,0,0,0-27,27Z"/><path class="cls-8" d="M342.66,87.44H259.81A27,27,0,0,1,233.4,66V92.29a87.35,87.35,0,0,0,81.45,87.14h27.81a27.11,27.11,0,0,1,5.66.6,72.85,72.85,0,0,1,2.87,145,118.95,118.95,0,0,0-8.53-237.59Z"/><rect class="cls-3" x="224.87" y="424.43" width="54.4" height="1.77"/><rect class="cls-3" x="238.14" y="408.95" width="41.13" height="1.77"/><rect class="cls-3" x="254.64" y="377.11" width="24.63" height="1.77"/><rect class="cls-3" x="258.7" y="362.52" width="20.57" height="1.77"/><rect class="cls-3" x="230.01" y="392.15" width="49.26" height="1.77"/></g></g></svg>
