<svg xmlns="http://www.w3.org/2000/svg" xmlns:xlink="http://www.w3.org/1999/xlink" viewBox="0 0 600 750"><defs><style>.cls-1{fill:#f869a3;}.cls-2{fill:#fff;}.cls-3,.cls-6,.cls-8{fill:#40bead;}.cls-4{fill:#fbbc23;}.cls-5{fill:url(#linear-gradient);}.cls-6{opacity:0.4;}.cls-7{fill:#f969a4;}.cls-8{opacity:0.24;}.cls-9{fill:#474747;}</style><linearGradient id="linear-gradient" x1="301.89" y1="617.97" x2="301.89" y2="482.08" gradientUnits="userSpaceOnUse"><stop offset="0" stop-color="#fff"/><stop offset="1" stop-color="#fff" stop-opacity="0"/></linearGradient></defs><title>Alternative Therapies</title><g id="Layer_2" data-name="Layer 2"><g id="Layer_1-2" data-name="Layer 1"><rect class="cls-1" width="600" height="750"/><path class="cls-2" d="M302,547h0A114.37,114.37,0,0,1,188.12,443.35l-.2-127.9c0-69.57,44.5-126,114.07-126h0c69.56,0,113.58,56.39,113.58,126l.29,127.9A114.38,114.38,0,0,1,302,547Z"/><path class="cls-3" d="M357.27,380.07a21.86,21.86,0,1,1,21.86-21.86A21.88,21.88,0,0,1,357.27,380.07Zm0-40.49a18.64,18.64,0,1,0,18.64,18.63A18.65,18.65,0,0,0,357.27,339.58Z"/><path class="cls-3" d="M357.27,366.68a8.47,8.47,0,1,1,8.48-8.47A8.47,8.47,0,0,1,357.27,366.68Zm0-14.69a6.22,6.22,0,1,0,6.23,6.22A6.23,6.23,0,0,0,357.27,352Z"/><path class="cls-3" d="M252.57,366.68a8.47,8.47,0,1,1,8.47-8.47A8.48,8.48,0,0,1,252.57,366.68Zm0-14.69a6.22,6.22,0,1,0,6.22,6.22A6.23,6.23,0,0,0,252.57,352Z"/><path class="cls-3" d="M252.57,380.07a21.86,21.86,0,1,1,21.85-21.86A21.89,21.89,0,0,1,252.57,380.07Zm0-40.49a18.64,18.64,0,1,0,18.63,18.63A18.66,18.66,0,0,0,252.57,339.58Z"/><path class="cls-4" d="M302,478.06A62.9,62.9,0,0,1,262.26,464a4.5,4.5,0,0,1,5.63-7,54,54,0,0,0,68.2,0,4.5,4.5,0,1,1,5.63,7A62.9,62.9,0,0,1,302,478.06Z"/><path class="cls-4" d="M320.42,520.21a2.26,2.26,0,0,1-1.41-.49,27,27,0,0,0-34,0,2.25,2.25,0,0,1-2.82-3.51,31.48,31.48,0,0,1,39.68,0,2.25,2.25,0,0,1-1.41,4Z"/><rect class="cls-5" x="230.98" y="485.82" width="141.81" height="155.87"/><polygon class="cls-2" points="551.22 750 52.55 750 92.28 606.52 300 606.52 511.49 606.52 551.22 750"/><path class="cls-6" d="M324.78,440.11H283.57a12.36,12.36,0,1,1,0-24.72h6.74v-70.6H318v70.6h6.75a12.36,12.36,0,0,1,0,24.72Zm-41.21-20.23a7.87,7.87,0,1,0,0,15.74h41.21a7.87,7.87,0,0,0,0-15.74H313.54V349.29H294.81v70.59Z"/><circle class="cls-7" cx="317.34" cy="437.86" r="3.92"/><circle class="cls-7" cx="291.01" cy="437.86" r="3.92"/><polygon class="cls-4" points="388.26 347.04 326.29 347.04 326.29 326.78 388.26 332.18 388.26 347.04"/><path class="cls-8" d="M378.9,517.23a114.08,114.08,0,0,0,37-73.88l-.09-38.69H378.9Z"/><path class="cls-8" d="M225.29,517.23a114,114,0,0,1-37-73.88l.09-38.69h36.87Z"/><polygon class="cls-4" points="285.81 347.04 219.32 347.04 219.32 332.18 285.81 326.78 285.81 347.04"/><rect class="cls-3" x="190.14" y="345.43" width="223.5" height="3.22"/><path class="cls-2" d="M423.52,422.37v-3.43a8.82,8.82,0,1,0,0-17.63H421.8v-4.23h1.72a18.76,18.76,0,0,0,0-37.52v-3.43a22.19,22.19,0,0,1,6.26,43.47,12.24,12.24,0,0,1-6.26,22.77Z"/><path class="cls-2" d="M181.53,422.37a12.25,12.25,0,0,1-6.27-22.77,22.19,22.19,0,0,1,6.27-43.47v3.43a18.76,18.76,0,0,0,0,37.52h1.71v4.23h-1.71a8.82,8.82,0,1,0,0,17.63Z"/><path class="cls-9" d="M372.28,606.52a70.4,70.4,0,0,1-140.79,0"/><path class="cls-4" d="M320.42,190.88A121.22,121.22,0,0,0,302,189.49h0c-69.57,0-114.07,56.39-114.07,126l.15,97.3h15l-3.68-118.13h20l-6.65-38.15H320.42Z"/><path class="cls-4" d="M283.68,190.88a121.22,121.22,0,0,1,18.43-1.39h0c69.57,0,114.07,56.39,114.07,126l-.15,97.3H401.08l3.68-118.13h-20l6.66-38.15H283.68Z"/></g></g></svg>