<svg xmlns="http://www.w3.org/2000/svg" xmlns:xlink="http://www.w3.org/1999/xlink" viewBox="0 0 600 750"><defs><style>.cls-1{fill:#40bead;}.cls-2{fill:#f0468a;}.cls-3,.cls-36,.cls-37,.cls-38{fill:#fbbc23;}.cls-4{fill:url(#linear-gradient);}.cls-5{fill:#a3cbcc;}.cls-22,.cls-23,.cls-24,.cls-25,.cls-6,.cls-7,.cls-8{fill:#fff;}.cls-7{opacity:0.66;}.cls-8{opacity:0.37;}.cls-9{opacity:0.2;}.cls-10{fill:url(#linear-gradient-2);}.cls-11{fill:url(#linear-gradient-3);}.cls-12{fill:url(#linear-gradient-4);}.cls-13{fill:url(#linear-gradient-5);}.cls-14{fill:url(#linear-gradient-6);}.cls-15{fill:url(#linear-gradient-7);}.cls-16{fill:url(#linear-gradient-8);}.cls-17{fill:url(#linear-gradient-9);}.cls-18{opacity:0.4;}.cls-19{fill:#474747;}.cls-20{fill:#f969a4;}.cls-21{fill:url(#linear-gradient-10);}.cls-22{opacity:0.8;}.cls-23{opacity:0.55;}.cls-24,.cls-38{opacity:0.6;}.cls-25{opacity:0.48;}.cls-26{fill:url(#linear-gradient-11);}.cls-27{fill:url(#linear-gradient-12);}.cls-28{fill:url(#linear-gradient-13);}.cls-29{fill:url(#linear-gradient-14);}.cls-30{fill:url(#linear-gradient-15);}.cls-31{fill:url(#linear-gradient-16);}.cls-32{fill:url(#linear-gradient-17);}.cls-33{fill:url(#linear-gradient-18);}.cls-34{fill:url(#linear-gradient-19);}.cls-35{fill:url(#linear-gradient-20);}.cls-36{opacity:0.5;}.cls-37{opacity:0.25;}.cls-39{fill:url(#linear-gradient-21);}</style><linearGradient id="linear-gradient" x1="363.91" y1="255.75" x2="362.47" y2="526.97" gradientUnits="userSpaceOnUse"><stop offset="0" stop-color="#fff"/><stop offset="1" stop-color="#fff" stop-opacity="0"/></linearGradient><linearGradient id="linear-gradient-2" x1="-462.67" y1="374.2" x2="-458.42" y2="35.31" gradientTransform="translate(677.36)" xlink:href="#linear-gradient"/><linearGradient id="linear-gradient-3" x1="-457.39" y1="374.27" x2="-453.14" y2="35.38" gradientTransform="translate(677.36)" xlink:href="#linear-gradient"/><linearGradient id="linear-gradient-4" x1="-450.85" y1="374.35" x2="-446.6" y2="35.46" gradientTransform="translate(677.36)" xlink:href="#linear-gradient"/><linearGradient id="linear-gradient-5" x1="-476.77" y1="374.02" x2="-472.52" y2="35.13" gradientTransform="translate(677.36)" xlink:href="#linear-gradient"/><linearGradient id="linear-gradient-6" x1="-477.62" y1="374.01" x2="-473.37" y2="35.12" gradientTransform="translate(677.36)" xlink:href="#linear-gradient"/><linearGradient id="linear-gradient-7" x1="-499.32" y1="373.74" x2="-495.08" y2="34.85" gradientTransform="translate(677.36)" xlink:href="#linear-gradient"/><linearGradient id="linear-gradient-8" x1="351.88" y1="610.02" x2="473.6" y2="454.1" gradientUnits="userSpaceOnUse"><stop offset="0" stop-color="#a3cbcc"/><stop offset="1" stop-color="#a3cbcc" stop-opacity="0"/></linearGradient><linearGradient id="linear-gradient-9" x1="371.86" y1="710.1" x2="371.86" y2="544.61" xlink:href="#linear-gradient-8"/><linearGradient id="linear-gradient-10" x1="218.48" y1="464.05" x2="367.19" y2="651.67" xlink:href="#linear-gradient"/><linearGradient id="linear-gradient-11" x1="87.78" y1="493.36" x2="198.45" y2="662.87" xlink:href="#linear-gradient"/><linearGradient id="linear-gradient-12" x1="6417.63" y1="493.24" x2="6421.68" y2="170.6" gradientTransform="matrix(-1, 0, 0, 1, 6499.29, 0)" xlink:href="#linear-gradient"/><linearGradient id="linear-gradient-13" x1="6422.66" y1="493.31" x2="6426.7" y2="170.66" gradientTransform="matrix(-1, 0, 0, 1, 6499.29, 0)" xlink:href="#linear-gradient"/><linearGradient id="linear-gradient-14" x1="6428.88" y1="493.38" x2="6432.93" y2="170.74" gradientTransform="matrix(-1, 0, 0, 1, 6499.29, 0)" xlink:href="#linear-gradient"/><linearGradient id="linear-gradient-15" x1="6447.51" y1="493.62" x2="6451.56" y2="170.97" gradientTransform="matrix(-1, 0, 0, 1, 6499.29, 0)" xlink:href="#linear-gradient"/><linearGradient id="linear-gradient-16" x1="6404.2" y1="493.07" x2="6408.25" y2="170.43" gradientTransform="matrix(-1, 0, 0, 1, 6499.29, 0)" xlink:href="#linear-gradient"/><linearGradient id="linear-gradient-17" x1="6403.39" y1="493.06" x2="6407.44" y2="170.42" gradientTransform="matrix(-1, 0, 0, 1, 6499.29, 0)" xlink:href="#linear-gradient"/><linearGradient id="linear-gradient-18" x1="6382.73" y1="492.81" x2="6386.78" y2="170.16" gradientTransform="matrix(-1, 0, 0, 1, 6499.29, 0)" xlink:href="#linear-gradient"/><linearGradient id="linear-gradient-19" x1="76.69" y1="621.91" x2="103.23" y2="648.45" xlink:href="#linear-gradient"/><linearGradient id="linear-gradient-20" x1="74.34" y1="631.26" x2="86.51" y2="643.43" xlink:href="#linear-gradient"/><linearGradient id="linear-gradient-21" x1="419.6" y1="596.78" x2="383.92" y2="651.43" gradientUnits="userSpaceOnUse"><stop offset="0" stop-color="#fff"/><stop offset="1" stop-color="#fff" stop-opacity="0.3"/></linearGradient></defs><title>Aromatherapy</title><g id="Layer_2" data-name="Layer 2"><g id="Layer_1-2" data-name="Layer 1"><rect class="cls-1" width="600" height="750"/><rect class="cls-2" x="216.58" y="432.85" width="401.54" height="2.11" transform="matrix(0.14, -0.99, 0.99, 0.14, -70.02, 787.35)"/><path class="cls-2" d="M448.94,248.39a32.84,32.84,0,0,1-5.79-.48l-.66-.13.05-.67c0-.51,1.16-12.78,9.48-19.07s20.42-4,20.93-3.91l.66.13-.05.67c-.05.52-1.16,12.78-9.48,19.07C459.31,247.6,453.3,248.39,448.94,248.39Zm-4.82-1.84c2.64.38,12.35,1.32,19.06-3.75s8.44-14.67,8.8-17.31c-2.64-.38-12.35-1.32-19.06,3.75S444.48,243.91,444.12,246.55Z"/><path class="cls-2" d="M444.9,236.05l-.44-.51c-.33-.4-8.22-9.86-6.78-20.19s11.6-17.28,12-17.57l.56-.37.43.51c.34.4,8.22,9.85,6.79,20.19s-11.61,17.27-12,17.57ZM450,199.43c-2.13,1.6-9.67,7.8-10.83,16.13s4.4,16.35,6,18.47c2.13-1.6,9.67-7.81,10.83-16.13S451.6,201.55,450,199.43Z"/><path class="cls-2" d="M443.86,248l-.67-.05c-.52,0-12.78-1.16-19.07-9.48s-4-20.42-3.91-20.93l.13-.66.66.05c.52,0,12.78,1.16,19.08,9.48h0c6.29,8.32,4,20.42,3.91,20.94Zm-22.29-29.49c-.38,2.64-1.32,12.35,3.74,19.06S440,246,442.63,246.35c.37-2.65,1.32-12.36-3.75-19.07S424.21,218.84,421.57,218.48Z"/><path class="cls-2" d="M443.91,284.59a33.15,33.15,0,0,1-5.8-.48l-.66-.13.06-.67c0-.52,1.15-12.78,9.48-19.07s20.42-4,20.93-3.91l.66.13-.06.66c0,.52-1.15,12.79-9.48,19.08C454.28,283.8,448.27,284.59,443.91,284.59Zm-4.83-1.84c2.64.37,12.36,1.32,19.06-3.75h0c6.72-5.07,8.45-14.67,8.81-17.31-2.64-.38-12.36-1.32-19.06,3.74S439.44,280.11,439.08,282.75Z"/><path class="cls-2" d="M438.82,284.17l-.66-.06c-.52,0-12.78-1.15-19.07-9.47s-4-20.42-3.92-20.94l.13-.65.67,0c.52.05,12.78,1.16,19.07,9.48s4,20.42,3.91,20.93Zm-22.29-29.5c-.37,2.65-1.32,12.36,3.75,19.07s14.67,8.45,17.31,8.8c.38-2.64,1.32-12.35-3.74-19.06S419.18,255,416.53,254.67Z"/><path class="cls-2" d="M433.43,323l-.67,0c-.52-.05-12.78-1.16-19.07-9.48s-4-20.42-3.91-20.93l.13-.66.66.05c.52.05,12.78,1.16,19.08,9.48s4,20.42,3.91,20.94Zm-22.29-29.49c-.38,2.64-1.32,12.35,3.74,19.06s14.68,8.44,17.32,8.81c.37-2.65,1.32-12.36-3.75-19.07h0C423.38,295.56,413.78,293.82,411.14,293.47Z"/><path class="cls-2" d="M433.48,359.58a33.15,33.15,0,0,1-5.8-.48L427,359l.06-.67c0-.52,1.15-12.78,9.48-19.07s20.42-4,20.93-3.91l.66.13-.06.66c0,.52-1.15,12.78-9.48,19.08C443.85,358.79,437.84,359.58,433.48,359.58Zm-4.83-1.84c2.64.37,12.36,1.32,19.06-3.75h0c6.71-5.06,8.45-14.67,8.81-17.31-2.64-.38-12.36-1.32-19.06,3.74S429,355.1,428.65,357.74Z"/><path class="cls-2" d="M428.39,359.16l-.66-.05c-.52-.05-12.78-1.16-19.07-9.48s-4-20.42-3.92-20.94l.13-.65.67,0c.52.05,12.78,1.16,19.07,9.48h0c6.29,8.32,4,20.42,3.91,20.93Zm-22.29-29.5c-.37,2.64-1.32,12.36,3.75,19.07s14.67,8.44,17.31,8.8c.38-2.64,1.32-12.35-3.74-19.06h0C418.34,331.76,408.74,330,406.1,329.66Z"/><path class="cls-2" d="M428.15,397.93a33,33,0,0,1-5.8-.48l-.66-.13.05-.66c.05-.52,1.16-12.78,9.48-19.07s20.42-4,20.94-3.92l.65.13-.05.67c-.05.52-1.16,12.78-9.48,19.07h0C438.51,397.14,432.5,397.93,428.15,397.93Zm-4.83-1.84c2.64.38,12.35,1.32,19.06-3.74h0c6.71-5.08,8.45-14.68,8.81-17.32-2.64-.37-12.36-1.32-19.07,3.75S423.68,393.45,423.32,396.09Z"/><path class="cls-2" d="M423.11,434.13a33.15,33.15,0,0,1-5.8-.48l-.66-.13.06-.67c0-.51,1.15-12.78,9.48-19.07s20.42-4,20.93-3.91l.66.13-.06.67c0,.52-1.15,12.78-9.47,19.07C433.48,433.34,427.47,434.13,423.11,434.13Zm-4.83-1.84c2.64.38,12.36,1.32,19.06-3.75h0c6.72-5.07,8.45-14.67,8.81-17.31-2.64-.38-12.36-1.32-19.06,3.75S418.64,429.65,418.28,432.29Z"/><path class="cls-2" d="M413.83,500.87a33.15,33.15,0,0,1-5.8-.48l-.66-.13.06-.67c0-.52,1.15-12.78,9.48-19.07s20.42-4,20.93-3.91l.66.13-.06.66c0,.52-1.15,12.78-9.48,19.07h0C424.19,500.08,418.19,500.87,413.83,500.87ZM409,499c2.64.37,12.36,1.32,19.06-3.75h0c6.72-5.07,8.45-14.67,8.81-17.31-2.64-.38-12.36-1.32-19.06,3.74S409.36,496.39,409,499Z"/><path class="cls-2" d="M418,433.71l-.67,0c-.52-.05-12.78-1.16-19.07-9.48s-4-20.42-3.92-20.93l.13-.66.67.05c.52.05,12.78,1.16,19.07,9.48s4,20.43,3.91,20.94Zm-22.3-29.49c-.37,2.64-1.32,12.35,3.75,19.06s14.67,8.44,17.32,8.81c.37-2.65,1.32-12.36-3.75-19.07S398.38,404.58,395.73,404.22Z"/><path class="cls-2" d="M412.85,471l-.67-.05c-.52,0-12.78-1.16-19.07-9.48s-4-20.42-3.92-20.93l.13-.66.67.06c.52,0,12.78,1.15,19.07,9.47s4,20.43,3.92,20.94Zm-22.3-29.49c-.37,2.64-1.32,12.36,3.75,19.06S409,469,411.62,469.33c.37-2.64,1.32-12.36-3.75-19.07h0C402.8,443.56,393.2,441.82,390.55,441.46Z"/><polygon class="cls-2" points="443.19 247.66 425.95 224.86 426.51 224.44 443.32 246.68 461.79 232.72 462.21 233.28 443.19 247.66"/><rect class="cls-2" x="424.49" y="295.86" width="0.7" height="28.23" transform="translate(-100.99 318.85) rotate(-37.08)"/><rect class="cls-2" x="420.02" y="389.12" width="24.07" height="0.7" transform="translate(-147.45 339.05) rotate(-37.06)"/><polygon class="cls-2" points="438.15 283.88 428.32 270.88 428.88 270.46 438.29 282.89 457.2 268.59 457.63 269.16 438.15 283.88"/><polygon class="cls-2" points="427.78 358.42 417.95 345.42 418.52 345 427.92 357.44 442.42 346.48 442.84 347.04 427.78 358.42"/><polygon class="cls-2" points="417.35 433.42 407.52 420.42 408.09 420 417.49 432.44 431.99 421.48 432.41 422.04 417.35 433.42"/><circle class="cls-2" cx="439.31" cy="303.91" r="3.42"/><path class="cls-2" d="M423.77,427.87a4.18,4.18,0,1,1,4.17-4.17A4.17,4.17,0,0,1,423.77,427.87Zm0-6.85a2.68,2.68,0,1,0,2.67,2.68A2.68,2.68,0,0,0,423.77,421Z"/><path class="cls-2" d="M418.24,341.61a4.17,4.17,0,1,1,4.17-4.17A4.18,4.18,0,0,1,418.24,341.61Zm0-6.85a2.68,2.68,0,1,0,2.67,2.68A2.68,2.68,0,0,0,418.24,334.76Z"/><circle class="cls-2" cx="422.96" cy="370.62" r="2.38"/><path class="cls-2" d="M410.06,463.9a3,3,0,1,1,3-3A3,3,0,0,1,410.06,463.9Zm0-4.76a1.74,1.74,0,1,0,1.74,1.74A1.74,1.74,0,0,0,410.06,459.14Z"/><circle class="cls-2" cx="423.77" cy="410.15" r="2.38"/><path class="cls-2" d="M436,277.61a3,3,0,1,1,3-3A3,3,0,0,1,436,277.61Zm0-4.75a1.74,1.74,0,1,0,1.74,1.74A1.74,1.74,0,0,0,436,272.86Z"/><circle class="cls-2" cx="449.52" cy="226.87" r="2.38"/><path class="cls-3" d="M320.35,650l-.2,0a1.07,1.07,0,0,1-.85-1.27l91.77-464.21a1.08,1.08,0,1,1,2.11.42L321.41,649.14A1.08,1.08,0,0,1,320.35,650Z"/><path class="cls-3" d="M412.13,650.32a1.08,1.08,0,0,1-1.05-.85L323.92,248.8a1.07,1.07,0,1,1,2.1-.45L413.18,649a1.07,1.07,0,0,1-.82,1.28Z"/><path class="cls-3" d="M361.83,650h0a1.08,1.08,0,0,1-1.06-1.09l4.41-382.42a1.08,1.08,0,0,1,1.08-1.06h0a1.08,1.08,0,0,1,1.07,1.09L362.9,648.94A1.07,1.07,0,0,1,361.83,650Z"/><polygon class="cls-4" points="280.61 649.24 443.05 649.24 395.94 452.4 393.77 448.68 328.92 448.68 280.61 649.24"/><path class="cls-5" d="M444.87,650.67H278.79L345.92,372h32.25l.26,1.1ZM282.43,647.8h158.8l-65.33-273H348.19Z"/><path class="cls-5" d="M384.21,376.68H339.44a3.28,3.28,0,1,1,0-6.56h44.77a3.28,3.28,0,1,1,0,6.56Z"/><path class="cls-6" d="M292.9,647.77H254a.92.92,0,0,1-.92-.91V573.59a36.59,36.59,0,1,0-73.17,0v73.27a.92.92,0,0,1-.92.91H140.14a.92.92,0,0,1-.68-.29,105.06,105.06,0,0,1,34-167.25,67.24,67.24,0,0,1-24.56-52.11.92.92,0,0,1,.91-.92H283.19a.92.92,0,0,1,.91.92,67.24,67.24,0,0,1-24.56,52.11,105.06,105.06,0,0,1,34,167.25A.92.92,0,0,1,292.9,647.77Zm-38-1.83h37.55A103.23,103.23,0,0,0,257.43,481.3a.91.91,0,0,1-.55-.72.93.93,0,0,1,.34-.84,65.41,65.41,0,0,0,25-50.71H150.77a65.41,65.41,0,0,0,25,50.71.93.93,0,0,1,.34.84.92.92,0,0,1-.54.72,103.23,103.23,0,0,0-35.07,164.64H178.1V573.59a38.42,38.42,0,1,1,76.84,0Z"/><rect class="cls-6" x="190.95" y="622.15" width="51.14" height="24.7"/><path class="cls-3" d="M226.38,598.54h0l0-.08,0,0L216.52,571l-9.82,27.47,0,0,0,.08h0A10.46,10.46,0,1,0,227,602,10.61,10.61,0,0,0,226.38,598.54Z"/><path class="cls-7" d="M216.85,612.79h-.35a7.88,7.88,0,0,1-7.52-8.22,8,8,0,0,1,.56-2.6l0-.09,8.3-20.35,6.65,21.55h0a8,8,0,0,1,.21,2.19A7.89,7.89,0,0,1,216.85,612.79Zm-7-10.72.27.11a7.13,7.13,0,0,0-.52,2.41,7.29,7.29,0,1,0,14.25-1.81l-.1-.33-5.92-19.18-7.68,18.82Z"/><path class="cls-8" d="M220.05,605.7h0l0,0v0l-6.2-9.83-1.44,11.54v0h0a4,4,0,0,0,.07,1.41,4.17,4.17,0,1,0,7.6-3.12Z"/><g class="cls-9"><path class="cls-10" d="M207.77,399.23v26.11a13.06,13.06,0,0,0,0-26.11Z"/><path class="cls-11" d="M208.64,332.78v46.8a23.4,23.4,0,0,0,0-46.8Z"/><path class="cls-12" d="M208.64,236.05v77.44a38.72,38.72,0,1,0,0-77.44Z"/><path class="cls-13" d="M208.27,408.5V376.43a16,16,0,0,0,0,32.07Z"/><path class="cls-14" d="M208.27,340.88V308.81a16,16,0,0,0,0,32.07Z"/><path class="cls-15" d="M208.27,244.15v-113a56.52,56.52,0,0,0,0,113Z"/></g><path class="cls-6" d="M334.71,587l136-158.91a13.32,13.32,0,0,1,18.88-1.37h0a13.31,13.31,0,0,1,2.45,17.23L379.14,620a27.74,27.74,0,0,1-38.49,8.28h0A27.75,27.75,0,0,1,334.71,587Z"/><path class="cls-16" d="M334.71,587l136-158.91a13.32,13.32,0,0,1,18.88-1.37h0a13.31,13.31,0,0,1,2.45,17.23L379.14,620a27.74,27.74,0,0,1-38.49,8.28h0A27.75,27.75,0,0,1,334.71,587Z"/><path class="cls-6" d="M489.35,528.07a117.49,117.49,0,0,1-235,0"/><path class="cls-17" d="M489.35,528.07a117.49,117.49,0,0,1-235,0"/><path class="cls-3" d="M328.64,521.18V498.12H284v23.06h0a13.35,13.35,0,0,0-13.34,13.35V647.12H342V534.53a13.35,13.35,0,0,0-13.34-13.35Z"/><g class="cls-18"><rect class="cls-6" x="289.71" y="498.12" width="6.51" height="148.99"/></g><rect class="cls-19" x="279.04" y="485.3" width="54.61" height="28.92"/><rect class="cls-20" x="323.58" y="485.3" width="0.83" height="22.54"/><rect class="cls-21" x="270.7" y="542.33" width="71.28" height="65.14"/><path class="cls-19" d="M306.34,434.73h0a10.11,10.11,0,0,1,10.11,10.11v54.92a0,0,0,0,1,0,0H296.23a0,0,0,0,1,0,0V444.84a10.11,10.11,0,0,1,10.11-10.11Z"/><rect class="cls-20" x="311.77" y="485.3" width="0.83" height="22.54"/><rect class="cls-20" x="304.44" y="485.3" width="0.83" height="14.46"/><path class="cls-22" d="M307.64,556.54a2.94,2.94,0,1,1,2.93-2.94A2.94,2.94,0,0,1,307.64,556.54Zm0-5.57a2.63,2.63,0,1,0,2.63,2.63A2.63,2.63,0,0,0,307.64,551Z"/><circle class="cls-23" cx="317.57" cy="542.92" r="4.9"/><path class="cls-5" d="M393.81,645.83V614.94c-20.75,7.3-20.75-8.76-41.5,0v30.89Z"/><path class="cls-3" d="M394.82,646.84H351.3V594.36a9.43,9.43,0,0,1,8.4-9.37V570.41h26.72V585a9.43,9.43,0,0,1,8.4,9.37Zm-41.5-2H392.8V594.36a7.41,7.41,0,0,0-7.39-7.4h-1V572.44H361.72V587h-1a7.41,7.41,0,0,0-7.39,7.4Z"/><rect class="cls-19" x="357.56" y="563.35" width="31" height="16.23"/><rect class="cls-20" x="361.5" y="563.35" width="0.53" height="14.2"/><polygon class="cls-3" points="159.54 592.19 156.04 559.17 184.38 557.55 181.41 592.19 159.54 592.19"/><path class="cls-24" d="M168.44,559.17a1.88,1.88,0,0,1-3.76,0,2,2,0,0,1,.08-.5l-.43,0a2.52,2.52,0,0,0-.05.48,2.29,2.29,0,0,0,4.57,0,2.48,2.48,0,0,0-.13-.73l-.42,0A1.87,1.87,0,0,1,168.44,559.17Z"/><path class="cls-6" d="M177.31,566.54a2.29,2.29,0,1,1,2.29-2.28A2.29,2.29,0,0,1,177.31,566.54Zm0-4.16a1.88,1.88,0,1,0,1.88,1.88A1.88,1.88,0,0,0,177.31,562.38Z"/><path class="cls-6" d="M160.36,573.36a1.15,1.15,0,1,1,1.14-1.14A1.15,1.15,0,0,1,160.36,573.36Zm0-2.08a.94.94,0,1,0,.93.94A.94.94,0,0,0,160.36,571.28Z"/><circle class="cls-25" cx="167.08" cy="577.69" r="0.52"/><circle class="cls-25" cx="179.4" cy="575.69" r="0.52"/><circle class="cls-25" cx="175.71" cy="588.08" r="1"/><path class="cls-6" d="M179.92,569.56a1.14,1.14,0,1,1,1.14-1.14A1.15,1.15,0,0,1,179.92,569.56Zm0-2.08a.94.94,0,1,0,.93.94A.94.94,0,0,0,179.92,567.48Z"/><path class="cls-6" d="M166.56,586.35a1.14,1.14,0,1,1,1.14-1.14A1.14,1.14,0,0,1,166.56,586.35Zm0-2.08a.94.94,0,1,0,.94.94A.94.94,0,0,0,166.56,584.27Z"/><path class="cls-6" d="M175.23,578.8a1.63,1.63,0,1,1,1.63-1.63A1.63,1.63,0,0,1,175.23,578.8Zm0-3a1.34,1.34,0,1,0,1.34,1.33A1.34,1.34,0,0,0,175.23,575.84Z"/><path class="cls-26" d="M185,591.65v-10.8H155.86v10.8H146.7a3.38,3.38,0,0,0-3.38,3.38v50.86h54.24V595a3.39,3.39,0,0,0-3.38-3.38Z"/><g class="cls-9"><path class="cls-27" d="M88.25,517.08v24.85a12.43,12.43,0,1,1,0-24.85Z"/><path class="cls-28" d="M87.42,453.81v44.55a22.28,22.28,0,1,1,0-44.55Z"/><path class="cls-29" d="M87.42,361.72v73.72a36.86,36.86,0,0,1,0-73.72Z"/><path class="cls-30" d="M87.42,120.83V280.08a79.63,79.63,0,1,1,0-159.25Z"/><path class="cls-31" d="M87.77,525.9V495.37a15.27,15.27,0,0,1,0,30.53Z"/><path class="cls-32" d="M87.77,461.52V431a15.27,15.27,0,0,1,0,30.53Z"/><path class="cls-33" d="M87.77,369.43V261.82a53.81,53.81,0,0,1,0,107.61Z"/></g><rect class="cls-6" x="241.85" y="435.37" width="1.35" height="320.06" transform="translate(-399.46 629.61) rotate(-70.89)"/><path class="cls-5" d="M279.3,609.83a1.52,1.52,0,0,1-.55-.1l-188-65.14a1.68,1.68,0,1,1,1.11-3.18l188,65.14a1.69,1.69,0,0,1-.56,3.28Z"/><path class="cls-34" d="M100.62,638.58,94,628.36a3,3,0,0,0-5.11,0l-6.38,10.17Z"/><path class="cls-35" d="M85.31,638.9l-3.06-4.68a1.39,1.39,0,0,0-2.34,0L77,638.9Z"/><path class="cls-6" d="M91.31,544.68l-.33,0a1.24,1.24,0,0,1-.31-.1,1.59,1.59,0,0,1-.29-.15,1.58,1.58,0,0,1-.47-.47,1.59,1.59,0,0,1-.15-.29,1.24,1.24,0,0,1-.1-.31,1.83,1.83,0,0,1,0-.66,1.19,1.19,0,0,1,.1-.32,1.59,1.59,0,0,1,.15-.29,1.27,1.27,0,0,1,.21-.25,1.33,1.33,0,0,1,.26-.21,1.18,1.18,0,0,1,.29-.16l.31-.1a1.83,1.83,0,0,1,.66,0l.32.1a1.18,1.18,0,0,1,.29.16,1.71,1.71,0,0,1,.26.21,1.69,1.69,0,0,1,.2.25,1.64,1.64,0,0,1,.16.29,1.68,1.68,0,0,1,.09.32,1.38,1.38,0,0,1,0,.66,1.81,1.81,0,0,1-.09.31,1.64,1.64,0,0,1-.16.29,1.33,1.33,0,0,1-.21.26A1.69,1.69,0,0,1,91.31,544.68Z"/><path class="cls-19" d="M244,647.47H38.39a4.72,4.72,0,1,1,0-9.44H244c65.64,0,106.62-21.28,107-21.49a4.72,4.72,0,0,1,4.43,8.34c-.44.23-11,5.8-30.09,11.38A292.69,292.69,0,0,1,244,647.47Z"/><circle class="cls-3" cx="504.11" cy="583.61" r="63.42"/><path class="cls-6" d="M504.11,524.5A59.12,59.12,0,1,1,445,583.61a59.17,59.17,0,0,1,59.11-59.11m0-.51a59.62,59.62,0,1,0,59.62,59.62A59.62,59.62,0,0,0,504.11,524Z"/><path class="cls-6" d="M504.11,577.07,518,534.4a2.79,2.79,0,0,0-2.07-3.59,53.71,53.71,0,0,0-23.58,0,2.8,2.8,0,0,0-2.07,3.59Z"/><path class="cls-6" d="M500.26,578.32l-13.87-42.68a2.77,2.77,0,0,0-3.72-1.72,54.26,54.26,0,0,0-19.12,13.9A2.81,2.81,0,0,0,464,552Z"/><path class="cls-6" d="M508,578.32,544.24,552a2.81,2.81,0,0,0,.43-4.14,54.31,54.31,0,0,0-19.11-13.9,2.78,2.78,0,0,0-3.73,1.72Z"/><path class="cls-6" d="M550.7,611.15a53.86,53.86,0,0,0,7.28-22.5,2.79,2.79,0,0,0-2.79-3H510.34L546.64,612A2.8,2.8,0,0,0,550.7,611.15Z"/><path class="cls-6" d="M510.34,581.59h44.85a2.79,2.79,0,0,0,2.79-3,53.86,53.86,0,0,0-7.28-22.5,2.8,2.8,0,0,0-4.06-.86Z"/><path class="cls-6" d="M508,588.91l13.87,42.68a2.78,2.78,0,0,0,3.73,1.72,54.31,54.31,0,0,0,19.11-13.9,2.81,2.81,0,0,0-.43-4.14Z"/><path class="cls-6" d="M504.11,590.16l-13.86,42.67a2.8,2.8,0,0,0,2.07,3.59,53.71,53.71,0,0,0,23.58,0,2.79,2.79,0,0,0,2.07-3.59Z"/><path class="cls-6" d="M500.26,588.91,464,615.27a2.81,2.81,0,0,0-.43,4.14,54.26,54.26,0,0,0,19.12,13.9,2.77,2.77,0,0,0,3.72-1.72Z"/><path class="cls-6" d="M457.52,556.08a53.7,53.7,0,0,0-7.27,22.5,2.78,2.78,0,0,0,2.78,3h44.85l-36.3-26.37A2.8,2.8,0,0,0,457.52,556.08Z"/><path class="cls-6" d="M497.88,585.64H453a2.78,2.78,0,0,0-2.78,3,53.7,53.7,0,0,0,7.27,22.5,2.8,2.8,0,0,0,4.06.86Z"/><polygon class="cls-36" points="504.45 625.88 503.77 625.88 503.77 583.52 503.82 583.44 522.4 553.11 522.98 553.46 504.45 583.71 504.45 625.88"/><rect class="cls-36" x="512.05" y="580.47" width="0.67" height="24.95" transform="translate(-264.39 489.3) rotate(-41.57)"/><rect class="cls-36" x="467.98" y="589.17" width="34.83" height="0.67" transform="translate(-170.98 199.26) rotate(-19.8)"/><polygon class="cls-36" points="534.08 593.28 505.82 585.96 505.93 585.3 542.61 588.58 542.55 589.25 509.95 586.34 534.25 592.63 534.08 593.28"/><rect class="cls-36" x="486.82" y="531.34" width="0.67" height="52.37" transform="translate(-213.59 318.56) rotate(-30.02)"/><polygon class="cls-36" points="483.51 611.42 482.97 611.02 501.56 585.37 501.64 585.33 555.59 560.68 555.87 561.3 502.01 585.91 483.51 611.42"/><path class="cls-3" d="M511,540a2.74,2.74,0,1,1,2.74-2.73A2.73,2.73,0,0,1,511,540Zm0-4.79a2.06,2.06,0,1,0,2.06,2.06A2.06,2.06,0,0,0,511,535.19Z"/><path class="cls-3" d="M485,623.4a2.34,2.34,0,1,1,2.34-2.34A2.34,2.34,0,0,1,485,623.4Zm0-4.1a1.76,1.76,0,1,0,1.76,1.76A1.76,1.76,0,0,0,485,619.3Z"/><path class="cls-3" d="M519.49,566.18A2.22,2.22,0,1,1,521.7,564,2.22,2.22,0,0,1,519.49,566.18Zm0-4.1a1.88,1.88,0,1,0,1.87,1.88A1.88,1.88,0,0,0,519.49,562.08Z"/><path class="cls-3" d="M531.93,631.86a2.22,2.22,0,1,1,2.21-2.21A2.22,2.22,0,0,1,531.93,631.86Zm0-4.09a1.88,1.88,0,1,0,1.88,1.88A1.88,1.88,0,0,0,531.93,627.77Z"/><circle class="cls-37" cx="457.32" cy="576.13" r="2.05"/><circle class="cls-37" cx="551.2" cy="603.33" r="4.53"/><circle class="cls-38" cx="548.93" cy="577.16" r="2.27"/><circle class="cls-38" cx="469.01" cy="572.04" r="2.27"/><path class="cls-5" d="M458.44,646.81H410V577.43A10.5,10.5,0,0,1,419.35,567V550.78h29.74V567a10.5,10.5,0,0,1,9.35,10.42Zm-46.2-2.25h43.95V577.43a8.23,8.23,0,0,0-8.23-8.22h-1.12V553H421.6v16.17h-1.13a8.23,8.23,0,0,0-8.23,8.22Z"/><rect class="cls-5" x="416.96" y="542.92" width="34.51" height="18.07"/><rect class="cls-20" x="421.35" y="542.92" width="0.58" height="15.8"/><rect class="cls-5" x="411.12" y="582.9" width="46.2" height="45.83"/><path class="cls-39" d="M423.68,647.45H377.83V604.76a3.16,3.16,0,0,1,3.16-3.15h7.29v-9h25v9h7.29a3.16,3.16,0,0,1,3.16,3.15Zm-45.17-.67H423v-42a2.49,2.49,0,0,0-2.48-2.48h-8v-9H389v9h-8a2.49,2.49,0,0,0-2.48,2.48Z"/><path class="cls-20" d="M558.24,646.92a2.08,2.08,0,0,1-.55-.07c-.53-.15-13.05-3.77-20.64-14.22a36,36,0,0,1-5.12-10.4,36,36,0,0,1-5.13,10.4c-7.59,10.45-20.11,14.07-20.64,14.22a2,2,0,0,1-2.57-1.87c0-.55-.44-13.57,7.15-24a35.59,35.59,0,0,1,8.31-8.09,35.77,35.77,0,0,1-11.48-1.66c-12.28-4-19.6-14.78-19.9-15.24a2,2,0,0,1-.24-1.75,2,2,0,0,1,1.22-1.27c.52-.19,12.77-4.62,25.06-.63A36.16,36.16,0,0,1,524,597.73a35.94,35.94,0,0,1-2-11.43c0-12.92,8-23.21,8.34-23.64a2,2,0,0,1,1.59-.77h0a2.05,2.05,0,0,1,1.59.77c.34.43,8.34,10.72,8.34,23.64a35.94,35.94,0,0,1-2,11.43,35.89,35.89,0,0,1,10.26-5.41c12.28-4,24.54.44,25.05.63a2,2,0,0,1,1,3c-.31.46-7.62,11.25-19.91,15.24h0a36,36,0,0,1-11.47,1.66,35.78,35.78,0,0,1,8.31,8.09c7.59,10.45,7.16,23.47,7.14,24a2,2,0,0,1-.83,1.56A2.05,2.05,0,0,1,558.24,646.92Zm-28.42-35.33c-3.74,1.52-11,5.14-15.81,11.74s-6,14.52-6.29,18.66c3.85-1.56,11-5.18,15.81-11.74S529.53,615.61,529.82,611.59Zm4.22,0c.29,4,1.49,12.06,6.29,18.66s11.94,10.17,15.8,11.74c-.31-4.15-1.52-12.1-6.29-18.66S537.78,613.11,534,611.59ZM492.77,596c2.68,3.17,8.34,8.89,16.05,11.4s15.77,1.18,19.7.21c-2.61-3.08-8.3-8.88-16.06-11.4S496.8,595,492.77,596Zm42.57,11.61c3.92,1,11.93,2.31,19.69-.21s13.39-8.22,16.06-11.4c-4-1-12-2.29-19.69.21S537.94,604.49,535.34,607.57Zm-3.41-40.06C529.74,571,526,578.19,526,586.3s3.76,15.36,5.89,18.8c2.13-3.44,5.88-10.64,5.88-18.8S534.12,571,531.93,567.51Z"/><rect class="cls-1" x="21.33" y="646.86" width="553.17" height="95.9"/><rect class="cls-6" x="21.33" y="645.94" width="553.17" height="1.83"/></g></g></svg>