<svg id="Layer_1" data-name="Layer 1" xmlns="http://www.w3.org/2000/svg" xmlns:xlink="http://www.w3.org/1999/xlink" viewBox="0 0 242.18 92.13"><defs><style>.cls-1{fill:#fcc74a;}.cls-2{fill:url(#linear-gradient);}.cls-3{fill:url(#linear-gradient-2);}.cls-4{fill:#40bead;}.cls-5{fill:#ee2375;}</style><linearGradient id="linear-gradient" x1="-208.2" y1="10.97" x2="-187.28" y2="90.66" gradientTransform="matrix(-1, 0, 0, 1, 0.52, 0)" gradientUnits="userSpaceOnUse"><stop offset="0" stop-color="#f0468a"/><stop offset="1" stop-color="#f0468a" stop-opacity="0"/></linearGradient><linearGradient id="linear-gradient-2" x1="48.67" y1="-25.93" x2="79.1" y2="89.99" gradientTransform="matrix(1, 0, 0, 1, 0, 0)" xlink:href="#linear-gradient"/></defs><title>basket</title><polygon class="cls-1" points="155.34 57.46 164.69 92.13 227.79 92.13 237.14 59.53 155.34 57.46"/><polygon class="cls-2" points="155.34 57.46 164.69 92.13 227.79 92.13 237.14 59.53 155.34 57.46"/><circle class="cls-1" cx="235.89" cy="59.82" r="6.29"/><circle class="cls-1" cx="225.06" cy="59.75" r="6.29"/><circle class="cls-1" cx="213.23" cy="59.67" r="6.29"/><circle class="cls-1" cx="202.4" cy="59.6" r="6.29"/><circle class="cls-1" cx="191.31" cy="59.53" r="6.29"/><circle class="cls-1" cx="180.48" cy="59.46" r="6.29"/><circle class="cls-1" cx="168.65" cy="59.38" r="6.29"/><circle class="cls-1" cx="157.82" cy="59.31" r="6.29"/><polygon class="cls-1" points="126.31 41.7 112.72 92.13 20.92 92.13 7.32 44.71 126.31 41.7"/><polygon class="cls-3" points="126.31 41.7 112.72 92.13 20.92 92.13 7.32 44.71 126.31 41.7"/><circle class="cls-1" cx="9.15" cy="46.1" r="9.15"/><circle class="cls-1" cx="24.9" cy="45.73" r="9.15"/><circle class="cls-1" cx="42.11" cy="45.32" r="9.15"/><circle class="cls-1" cx="57.86" cy="44.95" r="9.15"/><circle class="cls-1" cx="73.98" cy="44.57" r="9.15"/><circle class="cls-1" cx="89.73" cy="44.2" r="9.15"/><circle class="cls-1" cx="106.94" cy="43.79" r="9.15"/><circle class="cls-1" cx="122.69" cy="43.42" r="9.15"/><path class="cls-4" d="M100,23a10.93,10.93,0,0,1,5.46,1.84.34.34,0,0,0,.5-.44c-4.38-7.23-2.5-17.54,4.91-24.4C103.5,6.86,93.07,7.94,86.2,3a.34.34,0,0,0-.48.46,10.94,10.94,0,0,1,1.42,5.6A12.18,12.18,0,0,1,74.32,20.93a10.84,10.84,0,0,1-5.47-1.84.34.34,0,0,0-.5.44c4.38,7.23,2.5,17.55-4.91,24.4,7.41-6.85,17.84-7.94,24.71-3a.34.34,0,0,0,.48-.46,10.82,10.82,0,0,1-1.41-5.59A12.17,12.17,0,0,1,100,23Z"/><path class="cls-4" d="M46.26,17.19a9.4,9.4,0,0,1,.49-4.9.29.29,0,0,0-.46-.33c-5.18,5-14.12,5.43-21.24.58,7.12,4.85,10,13.32,7.22,20a.29.29,0,0,0,.48.31,9.19,9.19,0,0,1,4.38-2.24A10.38,10.38,0,0,1,49.45,39a9.2,9.2,0,0,1-.49,4.9.29.29,0,0,0,.47.32c5.18-5,14.12-5.43,21.24-.57-7.12-4.86-10-13.33-7.23-20a.28.28,0,0,0-.47-.31,9.41,9.41,0,0,1-4.39,2.24A10.39,10.39,0,0,1,46.26,17.19Z"/><circle class="cls-5" cx="63.44" cy="38.4" r="8.56"/><circle class="cls-5" cx="79.03" cy="29.85" r="5.63"/></svg>