<svg id="Layer_1" data-name="Layer 1" xmlns="http://www.w3.org/2000/svg" viewBox="0 0 2400.85 823.51"><defs><style>.cls-1{fill:#f0468a;}.cls-2{fill:#f969a4;}.cls-3{fill:#fff;}</style></defs><title>bg</title><path class="cls-1" d="M1674.53,475.28a12.73,12.73,0,0,0,19.63-16.21Z" transform="translate(0 0)"/><path class="cls-1" d="M282.54,410.26A12.73,12.73,0,0,0,302.17,394Z" transform="translate(0 0)"/><path class="cls-1" d="M2118.25,16.6a12.73,12.73,0,0,0,22.38,12.14Z" transform="translate(0 0)"/><path class="cls-2" d="M2287.6,350.05a20.59,20.59,0,1,0,40.18,9Z" transform="translate(0 0)"/><path class="cls-3" d="M593.69,290.36a20.58,20.58,0,1,0,34.83-21.95Z" transform="translate(0 0)"/><path class="cls-3" d="M2136.86,97.55a9.2,9.2,0,1,1,9.2-9.19A9.2,9.2,0,0,1,2136.86,97.55Zm0-16.39a7.2,7.2,0,1,0,7.2,7.2A7.2,7.2,0,0,0,2136.86,81.16Z" transform="translate(0 0)"/><path class="cls-3" d="M1550.39,440.34a9.2,9.2,0,1,1,9.2-9.19A9.21,9.21,0,0,1,1550.39,440.34Zm0-16.39a7.2,7.2,0,1,0,7.2,7.2A7.21,7.21,0,0,0,1550.39,424Z" transform="translate(0 0)"/><path class="cls-3" d="M176.59,285.89l-5.85-16.63,16.62-5.86L193.22,280Zm-3.3-15.41,4.53,12.85,12.85-4.52L186.14,266Z" transform="translate(0 0)"/><path class="cls-2" d="M5.86,332.83,0,316.2l16.62-5.85L22.48,327ZM2.55,317.42l4.53,12.85,12.85-4.52L15.4,312.9Z" transform="translate(0 0)"/><rect class="cls-3" x="312.92" y="29.41" width="24.01" height="24.01" transform="translate(100.12 -196.82) rotate(39.4)"/><rect class="cls-3" x="79.77" y="374.54" width="28.3" height="28.3"/><path class="cls-3" d="M617.59,607.49H602.2V592.1h15.39Zm-13.39-2h11.39V594.1H604.2Z" transform="translate(0 0)"/><path class="cls-3" d="M115.76,823.51h-15.4v-15.4h15.4Zm-13.4-2h11.4v-11.4h-11.4Z" transform="translate(0 0)"/><path class="cls-3" d="M2104.56,291.89h-15.39V276.5h15.39Zm-13.39-2h11.39V278.5h-11.39Z" transform="translate(0 0)"/><path class="cls-1" d="M1792.78,223.8l-3.33-17.29,17.29-3.33,3.33,17.28Zm-1-15.71,2.58,13.36,13.36-2.57-2.58-13.36Z" transform="translate(0 0)"/><path class="cls-1" d="M915,441.46l-3.34-17.29,17.29-3.33,3.33,17.28Zm-1-15.71,2.57,13.36,13.36-2.57-2.57-13.36Z" transform="translate(0 0)"/><path class="cls-1" d="M2354,699.78l-24.73-7.43,7.43-24.74,24.73,7.44ZM2331.76,691l20.9,6.28,6.28-20.9L2338,670.1Z" transform="translate(0 0)"/><rect class="cls-3" x="2044.4" y="53.62" width="19.07" height="19.07"/><rect class="cls-3" x="2287.1" y="736.9" width="15.13" height="15.13" transform="translate(-103.85 1002.97) rotate(-24.13)"/><path class="cls-1" d="M2336.39,163.09a29,29,0,0,1-3.71-.23l-66.83-5.62,9.25-71.39.21.18a29.92,29.92,0,1,1,57.16,17.47,29.92,29.92,0,0,1,22.62,53A29.58,29.58,0,0,1,2336.39,163.09ZM2269.85,154l63.19,5.32a26.28,26.28,0,0,0,19.83-5.64h0A26.37,26.37,0,0,0,2330,107.57l-3.68.9,1.66-3.4a26.5,26.5,0,0,0-3.16-28.16,26.36,26.36,0,0,0-46.62,12.79l-.06.4Z" transform="translate(0 0)"/><path class="cls-1" d="M1880.86,154.16a9.13,9.13,0,0,0-16.07-7.72,9.13,9.13,0,1,0-16.86,6.41h0l11,18.64,17.73-11.58A9.11,9.11,0,0,0,1880.86,154.16Z" transform="translate(0 0)"/><path class="cls-1" d="M2176.17,221.57a9.14,9.14,0,0,0-8,15.92,9.13,9.13,0,1,0,6.08,17h0l18.85-10.64-11.23-18A9.09,9.09,0,0,0,2176.17,221.57Z" transform="translate(0 0)"/><path class="cls-1" d="M481.33,274.65a20.32,20.32,0,0,1-9.13-2.19l-40.73-18.65,22.35-43.54.16.26a20.31,20.31,0,0,1,35.56,5.38,20.43,20.43,0,0,1-2.91,18.79A20.32,20.32,0,0,1,488,273.51h0A20.24,20.24,0,0,1,481.33,274.65Zm-45-22.47,37.44,17.07a16.77,16.77,0,0,0,23.42-20.47,16.84,16.84,0,0,0-14.14-11.17l-3.77-.39,2.72-2.64a16.77,16.77,0,1,0-26.52-19.87l-.12.24Z" transform="translate(0 0)"/><path class="cls-1" d="M75.28,55.42A18.54,18.54,0,0,0,55.83,24.88a18.54,18.54,0,1,0-35.95-7h0l-1,44,43-1A18.49,18.49,0,0,0,75.28,55.42Z" transform="translate(0 0)"/><path class="cls-1" d="M714.2,657.51a11.41,11.41,0,0,0-21,7.37,11.41,11.41,0,1,0-9.24,20.57h0l26.21,6.74,5.43-25.9A11.35,11.35,0,0,0,714.2,657.51Z" transform="translate(0 0)"/><path class="cls-3" d="M267,163.92,255.88,141l.39.16a10.2,10.2,0,0,1,13.08-11.88A10.22,10.22,0,0,1,276,136a10.2,10.2,0,0,1,15.86,11.25h0a10.1,10.1,0,0,1-5.18,6Zm-8.14-21.3,9,18.55,17.82-9.69a8.14,8.14,0,0,0,4.2-4.86h0a8.2,8.2,0,0,0-13.82-8.07l-1.45,1.56-.28-2.12a8.19,8.19,0,0,0-11.88-6.25,8.19,8.19,0,0,0-3.67,10.77Z" transform="translate(0 0)"/><path class="cls-3" d="M1766,674.78l-10-20.55a17.76,17.76,0,0,1,34.82,3.86h0a10.1,10.1,0,0,1-5.18,6Zm-.78-33.1a8.24,8.24,0,0,0-7.8,5.71,8.2,8.2,0,0,0,.39,6L1766.9,672l17.82-9.69a8.14,8.14,0,0,0,4.2-4.86h0a8.2,8.2,0,0,0-13.82-8.08l-1.45,1.57-.28-2.12a8.22,8.22,0,0,0-5.63-6.77A8,8,0,0,0,1765.23,641.68Z" transform="translate(0 0)"/><path class="cls-1" d="M1420.25,604.15a15.51,15.51,0,0,1-1.8-.1,15.77,15.77,0,0,1-10.72-6.1h0a16.79,16.79,0,0,1-3.38-12.38l3.14-36.81,38.07,5.25-.09.11a15.92,15.92,0,0,1,8.45,5.66,16.8,16.8,0,0,1,3.41,12.14,16.58,16.58,0,0,1-5.9,11.08,15.68,15.68,0,0,1-15.33,2.67,16.87,16.87,0,0,1-5.89,14.86A15.59,15.59,0,0,1,1420.25,604.15Zm-11-7.49a13.8,13.8,0,0,0,9.38,5.33,13.55,13.55,0,0,0,10.29-3.08,14.78,14.78,0,0,0,4.86-14.68l-.51-2.15,1.92,1a13.71,13.71,0,0,0,15-1.68,14.45,14.45,0,0,0,5.16-9.69,14.73,14.73,0,0,0-3-10.62,13.92,13.92,0,0,0-8.87-5.26l-.21,0-34-4.69-3,34.7a14.7,14.7,0,0,0,3,10.87Z" transform="translate(0 0)"/><path class="cls-3" d="M2394.48,331.09l-26-6.17v0a12.27,12.27,0,0,1-3.69-22.19,12.34,12.34,0,0,1,11.54-1,12.26,12.26,0,0,1,22.55-6.53h0a12.19,12.19,0,0,1,1.67,9.41l-4.85,25.63ZM2369,323l25,5.89,4.66-24.64a10.18,10.18,0,0,0-1.39-7.91h0a10.26,10.26,0,0,0-18.77,7l-1.52,1a10.28,10.28,0,0,0-15.49,6.58A10.27,10.27,0,0,0,2369,323Z" transform="translate(0 0)"/><path class="cls-1" d="M119.72,498.45l-19.08-27.71h.14a14,14,0,0,1,14.65-20.19A14,14,0,0,1,126.1,459a14,14,0,0,1,24.34,11.4h0a13.9,13.9,0,0,1-5.79,9.22Zm-16.58-27.16,17,24.66,23.5-17.79a12.13,12.13,0,0,0,5.09-8.08h0a12.22,12.22,0,0,0-22.18-8.82l-1,1.54L125,461A12.23,12.23,0,1,0,103,471.13Z" transform="translate(0 0)"/><g id="pic"><path class="cls-3" d="M2386.79,407.66c0,3-2.39,6.35-5.34,6.35s-5.34-3.39-5.34-6.35a5.34,5.34,0,0,1,10.68,0Z" transform="translate(0 0)"/></g></svg>