<svg id="Layer_1" data-name="Layer 1" xmlns="http://www.w3.org/2000/svg" viewBox="0 0 495.73 205.36"><defs><style>.cls-1,.cls-4,.cls-8,.cls-9{fill:none;stroke-miterlimit:10;}.cls-1,.cls-9{stroke:#f969a4;}.cls-1{stroke-width:4px;}.cls-2{fill:#fbbc23;}.cls-3{fill:#40bead;}.cls-4,.cls-8{stroke:#fff;}.cls-5{fill:#fff;}.cls-6{fill:#474747;}.cls-7{fill:#f969a4;}.cls-8{stroke-width:0.5px;}</style></defs><title>Untitled-2</title><line class="cls-1" x1="19.64" y1="90.16" x2="321.36" y2="90.16"/><rect class="cls-2" x="28.39" y="5.74" width="13" height="81.16" transform="translate(-7.87 7.15) rotate(-10.52)"/><rect class="cls-3" x="50.37" y="22.51" width="10.93" height="64.44" transform="translate(-15.08 21.82) rotate(-19.53)"/><rect class="cls-4" x="106.64" y="0.5" width="11" height="86.4"/><rect class="cls-5" x="121.64" y="35.46" width="15.82" height="51.44"/><rect class="cls-3" x="156.64" y="75.46" width="73" height="11.44"/><rect class="cls-4" x="165.64" y="60.68" width="81" height="14.28"/><rect class="cls-2" x="156.77" y="53.73" width="73" height="6.45"/><path class="cls-6" d="M257.29,30.46l7.89,1.33L256,86.18l-7.89-1.33,9.18-54.39m-.82-1.15L247,85.66l9.86,1.67L266.33,31l-9.86-1.66Z"/><rect class="cls-5" x="266.64" y="4.16" width="14.95" height="82.74"/><line class="cls-1" y1="203.36" x2="495.73" y2="203.36"/><rect class="cls-3" x="272.24" y="163.86" width="64.44" height="10.93" transform="translate(68.16 425.32) rotate(-76.37)"/><rect class="cls-7" x="318.06" y="128.85" width="51.67" height="74.51"/><line class="cls-8" x1="323.71" y1="128.85" x2="323.71" y2="187.1"/><path class="cls-6" d="M436.73,186.1v14.26H376.07V186.1h60.66m1-1H375.07v16.26h62.66V185.1Z"/><rect class="cls-2" x="385.29" y="175.77" width="61.11" height="9.33"/><rect class="cls-7" x="223.07" y="193.23" width="54.97" height="8.13"/><rect class="cls-9" x="211.4" y="180.43" width="61.87" height="12.8"/></svg>