<svg xmlns="http://www.w3.org/2000/svg" xmlns:xlink="http://www.w3.org/1999/xlink" viewBox="0 0 787.87 1001.98"><defs><style>.cls-1{isolation:isolate;}.cls-2{fill:#ee2375;}.cls-3{fill:#fff;}.cls-4{fill:url(#linear-gradient);}.cls-5{fill:#474747;}.cls-6{fill:url(#linear-gradient-2);}.cls-21,.cls-7{fill:#a3cbcc;}.cls-8{opacity:0.41;}.cls-9{fill:url(#linear-gradient-3);}.cls-10{fill:#1d1d1b;}.cls-11,.cls-12,.cls-13,.cls-20{fill:none;}.cls-11{stroke:#fff;stroke-width:3.52px;}.cls-11,.cls-12,.cls-20{stroke-miterlimit:10;}.cls-12{stroke:#474747;stroke-width:2.35px;}.cls-13,.cls-20{stroke:#a3cbcc;}.cls-13{stroke-linejoin:bevel;stroke-width:2.06px;}.cls-14{mix-blend-mode:multiply;}.cls-15,.cls-16{opacity:0.67;}.cls-15{fill:url(#linear-gradient-4);}.cls-16{fill:url(#linear-gradient-5);}.cls-17{fill:url(#linear-gradient-6);}.cls-18{fill:#fcc74a;}.cls-19{fill:url(#linear-gradient-7);}.cls-20{stroke-width:3.64px;}.cls-21{font-size:18.22px;font-family:Archer-Book, Archer;}.cls-22{letter-spacing:0.02em;}.cls-23{letter-spacing:-0.01em;}.cls-24{letter-spacing:0.01em;}</style><linearGradient id="linear-gradient" x1="363.74" y1="576.29" x2="357.73" y2="918.88" gradientUnits="userSpaceOnUse"><stop offset="0" stop-color="#a3cbcc"/><stop offset="1" stop-color="#a3cbcc" stop-opacity="0"/></linearGradient><linearGradient id="linear-gradient-2" x1="361.15" y1="504.66" x2="361.15" y2="250.3" xlink:href="#linear-gradient"/><linearGradient id="linear-gradient-3" x1="361.15" y1="117.63" x2="361.15" y2="374.75" xlink:href="#linear-gradient"/><linearGradient id="linear-gradient-4" x1="433.91" y1="300.75" x2="411.41" y2="161.26" gradientTransform="translate(-62.15 6.11)" xlink:href="#linear-gradient"/><linearGradient id="linear-gradient-5" x1="133.49" y1="280.38" x2="121.49" y2="144.38" xlink:href="#linear-gradient"/><linearGradient id="linear-gradient-6" x1="801.59" y1="948.18" x2="343.59" y2="408.18" xlink:href="#linear-gradient"/><linearGradient id="linear-gradient-7" x1="562.68" y1="982.97" x2="504.29" y2="712.04" gradientTransform="translate(235.45 -84.88) rotate(6.79)" gradientUnits="userSpaceOnUse"><stop offset="0" stop-color="#fcc74a"/><stop offset="1" stop-color="#fcc74a" stop-opacity="0"/></linearGradient></defs><title>boy</title><g class="cls-1"><g id="Layer_1" data-name="Layer 1"><path class="cls-2" d="M609,567.25,473.44,500.89a112.47,112.47,0,0,1-224.57,0L113.33,567.25a170.57,170.57,0,0,0-94,130.34L0,840.28H722.31L703,697.59A170.57,170.57,0,0,0,609,567.25Z"/><rect class="cls-3" x="316.65" y="606.97" width="89.01" height="233.32"/><rect class="cls-4" x="316.65" y="606.97" width="89.01" height="233.32"/><circle class="cls-5" cx="360.62" cy="713.7" r="19.1"/><circle class="cls-5" cx="360.62" cy="784.96" r="13.41"/><path class="cls-3" d="M267.61,342.88V492.23c0,55.17,41.66,96.83,93.06,96.83s93.07-41.66,93.07-96.83V342.88Z"/><path class="cls-3" d="M233.45,380.85V229a127.7,127.7,0,0,1,127.7-127.7h0A127.7,127.7,0,0,1,488.86,229V380.85l-90,95H324.24Z"/><path class="cls-6" d="M233.45,380.85V229a127.7,127.7,0,0,1,127.7-127.7h0A127.7,127.7,0,0,1,488.86,229V380.85l-90,95H324.24Z"/><path class="cls-7" d="M419.6,245.9c10.65,0,19.31,8.26,19.31,18.41s-8.66,18.4-19.31,18.4-19.32-8.25-19.32-18.4,8.66-18.41,19.32-18.41m0-5.87c-13.91,0-25.19,10.87-25.19,24.28s11.28,24.28,25.19,24.28,25.18-10.87,25.18-24.28S433.51,240,419.6,240Z"/><path class="cls-7" d="M419.6,255.64a8.67,8.67,0,1,1-9,8.67,8.87,8.87,0,0,1,9-8.67m0-1.17a9.85,9.85,0,1,0,10.21,9.84,10,10,0,0,0-10.21-9.84Z"/><path class="cls-7" d="M300,245.9c10.65,0,19.31,8.26,19.31,18.41s-8.66,18.4-19.31,18.4-19.32-8.25-19.32-18.4S289.38,245.9,300,245.9m0-5.87c-13.91,0-25.19,10.87-25.19,24.28s11.28,24.28,25.19,24.28,25.18-10.87,25.18-24.28S314,240,300,240Z"/><path class="cls-7" d="M300,255.64a8.67,8.67,0,1,1-9,8.67,8.87,8.87,0,0,1,9-8.67m0-1.17a9.85,9.85,0,1,0,10.21,9.84A10,10,0,0,0,300,254.47Z"/><g class="cls-8"><rect class="cls-7" x="343.12" y="256.21" width="36.06" height="100.03"/></g><path class="cls-9" d="M361.15,101.31A127.7,127.7,0,0,0,233.45,229V316.6h12.78V231.71c0-19.92,18.84-22.13,18.84-22.13V151.66H455.93v57.92s18.83,2.21,18.83,22.13V316.6h14.1V229A127.7,127.7,0,0,0,361.15,101.31Z"/><line class="cls-7" x1="246.67" y1="256.21" x2="474.76" y2="256.21"/><rect class="cls-7" x="246.67" y="253.7" width="228.1" height="5.02"/><g class="cls-8"><path class="cls-7" d="M383.15,356.24H338.2a11.61,11.61,0,0,1-11.61-11.61V330.55h68.17v14.08A11.61,11.61,0,0,1,383.15,356.24Z"/></g><path class="cls-10" d="M384.36,355a4.65,4.65,0,1,1-4.65-4.64A4.65,4.65,0,0,1,384.36,355Z"/><path class="cls-10" d="M346.28,355a4.65,4.65,0,1,1-4.65-4.64A4.65,4.65,0,0,1,346.28,355Z"/><path class="cls-7" d="M381.4,425.55a2,2,0,0,1-2,2h-34a2,2,0,0,1-2-2h0a2,2,0,0,1,2-2h34a2,2,0,0,1,2,2Z"/><g class="cls-8"><g class="cls-8"><path class="cls-7" d="M441.82,347.76l.24,82.47,34.18-36.07,12.13-13.31-.24-50.14-29-.16A17.22,17.22,0,0,0,441.82,347.76Z"/></g><g class="cls-8"><path class="cls-7" d="M262.09,330.71H233.21l.24,50.14,46.1,48.24-.24-81.16A17.22,17.22,0,0,0,262.09,330.71Z"/></g></g><path class="cls-11" d="M494,335.29a11.57,11.57,0,0,0,0-23.13v-.88a22.49,22.49,0,0,0,0-45"/><path class="cls-11" d="M228.27,335.29a11.57,11.57,0,1,1,0-23.13v-.88a22.49,22.49,0,0,1,0-45"/><polygon class="cls-5" points="342.64 255.52 262.75 255.52 262.75 242.04 342.64 233.94 342.64 255.52"/><polygon class="cls-5" points="458.6 255.52 378.7 255.52 378.7 233.94 458.6 241.96 458.6 255.52"/><circle class="cls-12" cx="503.16" cy="330.71" r="4.72"/><path class="cls-3" d="M361.15,410.5c-19.5,0-37.67-9.83-51.5-27.78h103C398.83,400.67,380.66,410.5,361.15,410.5Z"/><path class="cls-7" d="M409,384.48a73.19,73.19,0,0,1-19.1,16.31,55.87,55.87,0,0,1-57.45,0,73.19,73.19,0,0,1-19.1-16.31H409m7.18-3.53h-110c13.73,19.26,33.29,31.32,55,31.32s41.28-12.06,55-31.32Z"/><line class="cls-13" x1="391.57" y1="401.68" x2="330.74" y2="401.68"/><path class="cls-2" d="M496.2,153.14c-26.95-164.25-267.14-243.95-384,8.48,0,0,88.89-95.11,93.78,2.78C305.28,166.52,496.2,153.14,496.2,153.14Z"/><g class="cls-14"><polygon class="cls-2" points="122.23 151.78 122.23 151.78 122.23 151.78 122.23 151.78"/><path class="cls-2" d="M136.91,139.41c26.69-20.49,65.83-39,69,25l2.86,0,20.25-67.79c4.14-13.85-12.27-24.61-23.32-15.29Z"/></g><rect class="cls-3" x="191.12" y="149.7" width="320.83" height="63.61" rx="31.8" ry="31.8" transform="translate(-10.18 21.24) rotate(-3.41)"/><rect class="cls-15" x="191.12" y="149.7" width="320.83" height="63.61" rx="31.8" ry="31.8" transform="translate(-10.18 21.24) rotate(-3.41)"/><circle class="cls-3" cx="125.07" cy="184.93" r="45.03"/><circle class="cls-16" cx="125.07" cy="184.93" r="45.03"/><path class="cls-3" d="M523,494.05a58.55,58.55,0,0,0-24.39-47.59,58,58,0,0,0-6.78-90.62L494,274.15h0a46,46,0,0,0-44.49,34.26l-9.78,37a19,19,0,0,1-18.39,14.17H299.85a19,19,0,0,1-18.39-14.17l-9.77-37a46,46,0,0,0-44.49-34.26h0l3.21,81.06a57.94,57.94,0,0,0-7.75,91.25,58.64,58.64,0,0,0,9.76,100.88,58.64,58.64,0,0,0,53.86,75.37,87.55,87.55,0,0,0,148.67,0,58.67,58.67,0,0,0,53.87-75.37A58.66,58.66,0,0,0,523,494.05ZM308.2,376H414v7.4a29.92,29.92,0,0,1-29.91,29.92h-46a29.93,29.93,0,0,1-29.92-29.92Z"/><path class="cls-17" d="M523,494.05a58.55,58.55,0,0,0-24.39-47.59,58,58,0,0,0-6.78-90.62L494,274.15h0a46,46,0,0,0-44.49,34.26l-9.78,37a19,19,0,0,1-18.39,14.17H299.85a19,19,0,0,1-18.39-14.17l-9.77-37a46,46,0,0,0-44.49-34.26h0l3.21,81.06a57.94,57.94,0,0,0-7.75,91.25,58.64,58.64,0,0,0,9.76,100.88,58.64,58.64,0,0,0,53.86,75.37,87.55,87.55,0,0,0,148.67,0,58.67,58.67,0,0,0,53.87-75.37A58.66,58.66,0,0,0,523,494.05ZM308.2,376H414v7.4a29.92,29.92,0,0,1-29.91,29.92h-46a29.93,29.93,0,0,1-29.92-29.92Z"/><path class="cls-12" d="M484,288.59s29.65-14,4.83-40"/><path class="cls-12" d="M234.32,248.81s-24.29,17.5,3.05,39.78"/><path class="cls-18" d="M494.65,655.55H706.59a30,30,0,0,1,30,30V987.14a0,0,0,0,1,0,0H465.8a0,0,0,0,1,0,0V684.4A28.85,28.85,0,0,1,494.65,655.55Z" transform="translate(101.3 -65.31) rotate(6.79)"/><path class="cls-3" d="M514.55,644.07a28.4,28.4,0,0,1,24.85,31.56l-9.73,81.66,248.46,29.58,9.52-80a30,30,0,0,0-26.28-33.38Z"/><path class="cls-19" d="M514.55,644.07a28.4,28.4,0,0,1,24.85,31.56l-9.73,81.66,248.46,29.58,9.52-80a30,30,0,0,0-26.28-33.38Z"/><line class="cls-20" x1="757.9" y1="699.94" x2="580.43" y2="678.82"/><line class="cls-20" x1="755.46" y1="720.44" x2="666.72" y2="709.88"/><line class="cls-20" x1="753.01" y1="740.95" x2="605.35" y2="723.37"/><text class="cls-21" transform="matrix(-0.99, -0.12, 0.12, -0.99, 704.87, 753.55)">S<tspan class="cls-22" x="9.97" y="0">anta</tspan><tspan class="cls-23" x="45.05" y="0">’</tspan><tspan class="cls-22" x="48.26" y="0">s L</tspan><tspan class="cls-24" x="71.49" y="0">i</tspan><tspan class="cls-22" x="76.83" y="0">st</tspan></text></g></g></svg>