<svg xmlns="http://www.w3.org/2000/svg" xmlns:xlink="http://www.w3.org/1999/xlink" viewBox="0 0 600 750"><defs><style>.cls-1{fill:#b9d7d9;}.cls-14,.cls-2{fill:#fff;}.cls-3{opacity:0.28;}.cls-4{fill:#a3cbcc;}.cls-5{fill:#fcc74a;}.cls-6{fill:#f0468a;}.cls-7{fill:url(#linear-gradient);}.cls-8{fill:#40bead;}.cls-9{fill:#474747;}.cls-10{opacity:0.25;}.cls-11{fill:url(#linear-gradient-2);}.cls-12{fill:#f969a4;}.cls-13,.cls-14{opacity:0.51;}</style><linearGradient id="linear-gradient" x1="413.55" y1="490.33" x2="452.52" y2="586.86" gradientUnits="userSpaceOnUse"><stop offset="0" stop-color="#fcc74a"/><stop offset="1" stop-color="#fbbc23" stop-opacity="0"/></linearGradient><linearGradient id="linear-gradient-2" x1="-6875.53" y1="561.95" x2="-7038.5" y2="564.23" gradientTransform="matrix(-1, 0, 0, 1, -6886.67, 0)" xlink:href="#linear-gradient"/></defs><title>Business Studies</title><g id="Layer_2" data-name="Layer 2"><g id="Layer_1-2" data-name="Layer 1"><rect class="cls-1" width="600" height="750"/><path class="cls-2" d="M454.19,497.17A80.23,80.23,0,0,0,374,577.4H534.43A80.24,80.24,0,0,0,454.19,497.17Z"/><path class="cls-2" d="M193.76,480.53A96.87,96.87,0,0,0,96.89,577.4H290.64A96.87,96.87,0,0,0,193.76,480.53Z"/><g class="cls-3"><path class="cls-4" d="M594.44,579.27c-23-16.1-58.07-36.31-97.22-26.6C440.71,566.7,392,515.5,392,515.5v62Z"/></g><circle class="cls-5" cx="424.45" cy="367.36" r="61.15"/><path class="cls-2" d="M424.45,441.35a74,74,0,1,1,74-74A74.07,74.07,0,0,1,424.45,441.35Zm0-147.08a73.09,73.09,0,1,0,73.09,73.09A73.17,73.17,0,0,0,424.45,294.27Z"/><polygon class="cls-6" points="461.76 577.4 460.86 577.4 460.86 492.87 395.44 492.87 395.44 445.2 374.16 445.2 374.16 393.49 349.58 393.49 349.58 471.78 290.19 471.78 290.19 445.2 278.08 445.2 278.08 479.79 195.94 479.79 173.32 502.41 136.89 502.41 136.89 501.51 172.95 501.51 195.57 478.89 277.18 478.89 277.18 444.3 291.09 444.3 291.09 470.88 348.68 470.88 348.68 392.59 375.06 392.59 375.06 444.3 396.34 444.3 396.34 491.97 461.76 491.97 461.76 577.4"/><polygon class="cls-7" points="400.86 538.08 418.57 538.08 418.57 527.35 435.9 527.35 435.9 555.28 452.13 555.28 452.13 541.31 482.53 541.31 482.53 578.77 400.86 578.77 400.86 538.08"/><rect class="cls-8" x="111.56" y="473.53" width="47.66" height="106.04"/><rect class="cls-2" x="147.93" y="473.53" width="0.22" height="103.87"/><rect class="cls-2" x="154.26" y="473.53" width="0.22" height="103.87"/><rect class="cls-2" x="141.61" y="473.53" width="0.22" height="103.87"/><rect class="cls-2" x="135.28" y="473.53" width="0.22" height="103.87"/><rect class="cls-2" x="128.95" y="473.53" width="0.22" height="103.87"/><rect class="cls-2" x="122.62" y="473.53" width="0.22" height="103.87"/><rect class="cls-2" x="116.29" y="473.53" width="0.22" height="103.87"/><rect class="cls-2" x="111.56" y="477.43" width="47.66" height="4.2"/><rect class="cls-8" x="340.58" y="452.85" width="39.12" height="125.93"/><rect class="cls-2" x="340.58" y="465.22" width="39.12" height="0.25"/><rect class="cls-2" x="340.58" y="479.46" width="39.12" height="0.25"/><rect class="cls-2" x="340.58" y="493.7" width="39.12" height="0.25"/><rect class="cls-2" x="340.58" y="507.94" width="39.12" height="0.25"/><rect class="cls-2" x="340.58" y="522.18" width="39.12" height="0.25"/><rect class="cls-2" x="340.58" y="536.42" width="39.12" height="0.25"/><rect class="cls-2" x="340.58" y="550.66" width="39.12" height="0.25"/><rect class="cls-2" x="340.58" y="564.9" width="39.12" height="0.25"/><rect class="cls-2" x="375.79" y="452.97" width="0.26" height="124.43"/><rect class="cls-2" x="371.29" y="452.97" width="0.26" height="124.43"/><rect class="cls-2" x="366.78" y="452.97" width="0.26" height="124.43"/><rect class="cls-2" x="362.27" y="452.97" width="0.26" height="124.43"/><rect class="cls-2" x="357.76" y="452.97" width="0.26" height="124.43"/><rect class="cls-2" x="353.25" y="452.97" width="0.26" height="124.43"/><rect class="cls-2" x="348.74" y="452.97" width="0.26" height="124.43"/><rect class="cls-2" x="344.23" y="452.97" width="0.26" height="124.43"/><g class="cls-3"><rect class="cls-2" x="283.69" y="483.72" width="35.02" height="50.28"/></g><path class="cls-2" d="M497.81,360.16a42.07,42.07,0,0,1,39,26.08l1.58.17a28.28,28.28,0,0,1,51.63,15H412.57a21.33,21.33,0,0,1,41.77-5.16l1.75-.12a42.19,42.19,0,0,1,41.72-36m0-.9A43.09,43.09,0,0,0,455.2,396a22.23,22.23,0,0,0-43.55,6.31H590.92a29.17,29.17,0,0,0-53.28-16.44,43.11,43.11,0,0,0-39.83-26.64Z"/><polygon class="cls-9" points="145.53 554.48 169.82 530.19 169.82 545.78 192.46 545.78 192.46 578.77 145.53 578.77 145.53 554.48"/><g class="cls-10"><path class="cls-2" d="M519.13,355.68a23.6,23.6,0,0,0,23.6-23.6h-47.2A23.61,23.61,0,0,0,519.13,355.68Z"/><path class="cls-2" d="M479.64,316.19a15.88,15.88,0,0,0-15.88,15.89h31.77A15.88,15.88,0,0,0,479.64,316.19Z"/><path class="cls-2" d="M455,348a15.89,15.89,0,0,0,15.89-15.89H439.1A15.89,15.89,0,0,0,455,348Z"/></g><path class="cls-9" d="M327.06,426.1V578.63H299.25V426.1h27.81m.93-.93H298.32v154.4H328V425.17Z"/><g class="cls-10"><path class="cls-2" d="M375,256.54a19.36,19.36,0,0,0-18.56,13.87,37.53,37.53,0,0,0-71.82-8.82,25.42,25.42,0,0,0-46.43,14.32H394.39A19.37,19.37,0,0,0,375,256.54Z"/></g><g class="cls-10"><path class="cls-2" d="M216.81,321a22.51,22.51,0,0,0-22.51,22.51h45A22.51,22.51,0,0,0,216.81,321Z"/><path class="cls-2" d="M283.11,328.35a15.17,15.17,0,0,0-15.17,15.17h30.34A15.17,15.17,0,0,0,283.11,328.35Z"/><path class="cls-2" d="M254.49,358.69a15.17,15.17,0,0,0,15.17-15.17H239.32A15.17,15.17,0,0,0,254.49,358.69Z"/><path class="cls-2" d="M159.8,309a34.5,34.5,0,0,0-34.5,34.5h69A34.5,34.5,0,0,0,159.8,309Z"/></g><path class="cls-2" d="M57.35,417.88a24.41,24.41,0,0,1,24.37,23.49H5.23a14.34,14.34,0,0,1,27-5.72l1.66-.17a24.5,24.5,0,0,1,23.42-17.6m0-.9a25.29,25.29,0,0,0-24.28,18.25,15.25,15.25,0,0,0-28.77,7H82.64A25.29,25.29,0,0,0,57.35,417Z"/><path class="cls-11" d="M84.1,560.47a17.49,17.49,0,0,1,15.52,9.43,29,29,0,0,1,56.9,8.08H66.59A17.51,17.51,0,0,1,84.1,560.47Z"/><path class="cls-2" d="M246.9,396.78H209.37V385.56H246.9Zm-36.66-.88H246v-9.47H210.24Z"/><rect class="cls-12" x="185.53" y="390.98" width="70.99" height="188.59"/><rect class="cls-2" x="185.14" y="407.47" width="49.78" height="0.87"/><rect class="cls-2" x="185.14" y="427.61" width="49.78" height="0.87"/><rect class="cls-2" x="185.14" y="528.3" width="49.78" height="0.87"/><rect class="cls-2" x="185.14" y="447.75" width="49.78" height="0.87"/><rect class="cls-2" x="185.14" y="508.16" width="49.78" height="0.87"/><rect class="cls-2" x="185.14" y="488.02" width="49.78" height="0.87"/><rect class="cls-2" x="185.14" y="467.88" width="49.78" height="0.87"/><rect class="cls-2" x="234.04" y="390.98" width="1.74" height="188.59"/><rect class="cls-6" x="224.7" y="367.36" width="0.9" height="23.62"/><path class="cls-9" d="M274,498.61v80H217.42v-80H274m.93-.93H216.48v81.89h58.45V497.68Z"/><rect class="cls-5" x="228.27" y="515.8" width="104.6" height="63.77"/><polygon class="cls-2" points="241.97 578.77 241.97 552.97 255.33 552.97 255.33 536.89 293.98 536.89 293.98 578.77 241.97 578.77"/><g class="cls-13"><circle class="cls-12" cx="305.16" cy="570.36" r="1.99"/></g><g class="cls-13"><circle class="cls-12" cx="296.49" cy="570.36" r="1.99"/></g><g class="cls-13"><circle class="cls-12" cx="287.82" cy="570.36" r="1.99"/></g><g class="cls-13"><circle class="cls-12" cx="279.15" cy="570.36" r="1.99"/></g><g class="cls-13"><circle class="cls-12" cx="270.48" cy="570.36" r="1.99"/></g><g class="cls-13"><circle class="cls-12" cx="261.81" cy="570.36" r="1.99"/></g><g class="cls-13"><circle class="cls-12" cx="253.15" cy="570.36" r="1.99"/></g><g class="cls-13"><circle class="cls-12" cx="244.48" cy="570.36" r="1.99"/></g><g class="cls-13"><circle class="cls-12" cx="235.81" cy="570.36" r="1.99"/></g><g class="cls-13"><circle class="cls-12" cx="227.14" cy="570.36" r="1.99"/></g><g class="cls-13"><circle class="cls-12" cx="218.47" cy="570.36" r="1.99"/></g><g class="cls-13"><circle class="cls-12" cx="209.8" cy="570.36" r="1.99"/></g><g class="cls-13"><circle class="cls-12" cx="201.13" cy="570.36" r="1.99"/></g><g class="cls-13"><circle class="cls-12" cx="192.46" cy="570.36" r="1.99"/></g><g class="cls-13"><circle class="cls-12" cx="183.8" cy="570.36" r="1.99"/></g><g class="cls-13"><circle class="cls-12" cx="175.13" cy="570.36" r="1.99"/></g><circle class="cls-8" cx="91.33" cy="556.33" r="8.69"/><circle class="cls-8" cx="72.4" cy="568.37" r="5.33"/><path class="cls-8" d="M101.17,576a4,4,0,1,1,4-4A4,4,0,0,1,101.17,576Zm0-7.28a3.33,3.33,0,1,0,3.34,3.33A3.33,3.33,0,0,0,101.17,568.68Z"/><path class="cls-8" d="M531.31,575.39a3.38,3.38,0,1,1,3.38-3.38A3.38,3.38,0,0,1,531.31,575.39Zm0-6.23a2.85,2.85,0,1,0,2.85,2.85A2.86,2.86,0,0,0,531.31,569.16Z"/><circle class="cls-8" cx="518.96" cy="561.67" r="5.33"/><polygon class="cls-2" points="113.22 401.45 112.59 401.45 107.79 396.66 108.43 396.02 112.91 400.5 117.38 396.02 118.02 396.66 113.22 401.45"/><polygon class="cls-2" points="498.31 480.15 497.67 480.15 492.87 475.35 493.51 474.71 497.99 479.19 502.47 474.71 503.1 475.35 498.31 480.15"/><polygon class="cls-2" points="311.82 375.46 311.19 375.46 306.39 370.66 307.03 370.02 311.51 374.5 315.99 370.02 316.62 370.66 311.82 375.46"/><polygon class="cls-2" points="99.95 411.59 99.32 411.59 96.09 408.36 96.72 407.73 99.63 410.64 102.55 407.73 103.18 408.36 99.95 411.59"/><polygon class="cls-2" points="126.02 435.66 125.38 435.66 123.77 434.05 124.4 433.41 125.7 434.71 126.99 433.41 127.63 434.05 126.02 435.66"/><polygon class="cls-2" points="477.6 465.67 476.96 465.67 475.35 464.05 475.99 463.42 477.28 464.71 478.58 463.42 479.21 464.05 477.6 465.67"/><polygon class="cls-2" points="270.17 394.17 268.55 392.55 269.19 391.92 270.48 393.21 271.78 391.92 272.42 392.55 270.8 394.17 270.17 394.17"/><path class="cls-8" d="M403.6,522.2a.47.47,0,0,1-.47-.45.43.43,0,0,1,.43-.44h0a.45.45,0,1,1,0,.89Z"/><path class="cls-8" d="M513.51,522.2a.48.48,0,0,1-.49-.45.41.41,0,0,1,.4-.44h.09a.45.45,0,1,1,0,.89Zm-5.49,0a.49.49,0,0,1-.5-.45.41.41,0,0,1,.41-.44H508a.45.45,0,1,1,0,.89Zm-5.5,0a.48.48,0,0,1-.49-.45.41.41,0,0,1,.4-.44h.09a.45.45,0,1,1,0,.89Zm-5.49,0a.49.49,0,0,1-.5-.45.41.41,0,0,1,.41-.44H497a.45.45,0,0,1,0,.89Zm-5.5,0a.48.48,0,0,1-.49-.45.41.41,0,0,1,.4-.44h.09a.45.45,0,1,1,0,.89Zm-5.5,0a.49.49,0,0,1-.49-.45.41.41,0,0,1,.4-.44H486a.45.45,0,1,1,0,.89Zm-5.49,0a.49.49,0,0,1-.5-.45.41.41,0,0,1,.41-.44h.09a.45.45,0,1,1,0,.89Zm-5.5,0a.48.48,0,0,1-.49-.45.41.41,0,0,1,.4-.44H475a.45.45,0,1,1,0,.89Zm-5.49,0a.49.49,0,0,1-.5-.45.41.41,0,0,1,.41-.44h.09a.45.45,0,1,1,0,.89Zm-5.5,0a.48.48,0,0,1-.49-.45.41.41,0,0,1,.4-.44h.09a.45.45,0,1,1,0,.89Zm-5.49,0a.49.49,0,0,1-.5-.45.41.41,0,0,1,.41-.44h.09a.45.45,0,1,1,0,.89Zm-5.5,0a.48.48,0,0,1-.49-.45.41.41,0,0,1,.4-.44h.09a.45.45,0,1,1,0,.89Zm-5.49,0a.49.49,0,0,1-.5-.45.41.41,0,0,1,.41-.44h.09a.45.45,0,1,1,0,.89Zm-5.5,0a.48.48,0,0,1-.49-.45.41.41,0,0,1,.4-.44h.09a.45.45,0,1,1,0,.89Zm-5.5,0a.49.49,0,0,1-.49-.45.41.41,0,0,1,.4-.44h.09a.45.45,0,1,1,0,.89Zm-5.49,0a.49.49,0,0,1-.5-.45.41.41,0,0,1,.41-.44h.09a.45.45,0,1,1,0,.89Zm-5.5,0a.49.49,0,0,1-.49-.45.41.41,0,0,1,.4-.44h.09a.45.45,0,1,1,0,.89Zm-5.49,0a.49.49,0,0,1-.5-.45.41.41,0,0,1,.41-.44h.09a.45.45,0,1,1,0,.89Zm-5.5,0a.48.48,0,0,1-.49-.45.41.41,0,0,1,.4-.44h.09a.45.45,0,1,1,0,.89Zm-5.49,0a.49.49,0,0,1-.5-.45.41.41,0,0,1,.41-.44h.09a.45.45,0,1,1,0,.89Z"/><path class="cls-8" d="M519,522.2a.47.47,0,0,1-.47-.45.46.46,0,0,1,.92,0v.45Z"/><path class="cls-8" d="M519,517.61a.42.42,0,0,1-.45-.41v-.08a.45.45,0,1,1,.9,0A.48.48,0,0,1,519,517.61Z"/><path class="cls-8" d="M519,513a.44.44,0,0,1-.42-.27.46.46,0,0,1,0-.2.43.43,0,0,1,.43-.45h.45l0,.45A.47.47,0,0,1,519,513Z"/><path class="cls-8" d="M513.41,513h-.09a.45.45,0,0,1,0-.9.49.49,0,0,1,.49.45A.41.41,0,0,1,513.41,513Zm-5.61,0h-.09a.45.45,0,1,1,0-.9.49.49,0,0,1,.5.45A.42.42,0,0,1,507.8,513Zm-5.6,0h-.09a.45.45,0,1,1,0-.9.49.49,0,0,1,.5.45A.42.42,0,0,1,502.2,513Zm-5.6,0h-.09a.45.45,0,1,1,0-.9.48.48,0,0,1,.49.45A.41.41,0,0,1,496.6,513Zm-5.6,0h-.09a.45.45,0,0,1,0-.9.49.49,0,0,1,.49.45A.41.41,0,0,1,491,513Zm-5.6,0h-.1a.45.45,0,1,1,0-.9.49.49,0,0,1,.5.45A.41.41,0,0,1,485.4,513Zm-5.61,0h-.09a.45.45,0,1,1,0-.9.49.49,0,0,1,.5.45A.42.42,0,0,1,479.79,513Zm-5.6,0h-.09a.45.45,0,1,1,0-.9.49.49,0,0,1,.5.45A.42.42,0,0,1,474.19,513Zm-5.6,0h-.09a.45.45,0,1,1,0-.9.48.48,0,0,1,.49.45A.41.41,0,0,1,468.59,513Zm-5.6,0h-.09a.45.45,0,1,1,0-.9.49.49,0,0,1,.49.45A.41.41,0,0,1,463,513Zm-5.6,0h-.1a.45.45,0,1,1,0-.9.49.49,0,0,1,.5.45A.41.41,0,0,1,457.39,513Zm-5.61,0h-.09a.45.45,0,1,1,0-.9.49.49,0,0,1,.5.45A.42.42,0,0,1,451.78,513Zm-5.6,0h-.09a.45.45,0,1,1,0-.9.48.48,0,0,1,.49.45A.41.41,0,0,1,446.18,513Zm-5.6,0h-.09a.45.45,0,1,1,0-.9.49.49,0,0,1,.49.45A.41.41,0,0,1,440.58,513Z"/><path class="cls-8" d="M435,513h-.5v-.45a.47.47,0,0,1,.45-.47.43.43,0,0,1,.42.27.35.35,0,0,1,0,.2A.43.43,0,0,1,435,513Z"/><path class="cls-8" d="M434.93,508.05a.42.42,0,0,1-.45-.41v-.08a.45.45,0,0,1,.9,0A.48.48,0,0,1,434.93,508.05Zm0-5a.42.42,0,0,1-.45-.41v-.08a.45.45,0,1,1,.9,0A.48.48,0,0,1,434.93,503.09Z"/><path class="cls-8" d="M434.93,498.15a.43.43,0,0,1-.45-.43v-.49h.45a.47.47,0,0,1,.47.45.49.49,0,0,1-.47.47Z"/><path class="cls-8" d="M480,498.13a.5.5,0,0,1-.5-.45.42.42,0,0,1,.41-.45H480a.45.45,0,0,1,.45.45A.45.45,0,0,1,480,498.13Zm-5.63,0a.5.5,0,0,1-.5-.45.42.42,0,0,1,.41-.45h.09a.45.45,0,0,1,.45.45A.45.45,0,0,1,474.39,498.13Zm-5.63,0a.5.5,0,0,1-.5-.45.42.42,0,0,1,.41-.45h.09a.45.45,0,0,1,.45.45A.45.45,0,0,1,468.76,498.13Zm-5.63,0a.5.5,0,0,1-.5-.45.41.41,0,0,1,.4-.45h.1a.45.45,0,0,1,.45.45A.45.45,0,0,1,463.13,498.13Zm-5.63,0a.5.5,0,0,1-.5-.45.41.41,0,0,1,.4-.45h.1a.45.45,0,0,1,.45.45A.45.45,0,0,1,457.5,498.13Zm-5.63,0a.5.5,0,0,1-.5-.45.41.41,0,0,1,.4-.45h.1a.45.45,0,0,1,.45.45A.45.45,0,0,1,451.87,498.13Zm-5.63,0a.5.5,0,0,1-.5-.45.41.41,0,0,1,.4-.45h.1a.45.45,0,0,1,.45.45A.46.46,0,0,1,446.24,498.13Zm-5.63,0a.5.5,0,0,1-.5-.45.41.41,0,0,1,.4-.45h.1a.45.45,0,0,1,.45.45A.46.46,0,0,1,440.61,498.13Z"/><path class="cls-8" d="M485.6,498.13a.47.47,0,0,1-.47-.45.43.43,0,0,1,.43-.45h0a.45.45,0,0,1,.45.45A.45.45,0,0,1,485.6,498.13Z"/><circle class="cls-14" cx="570.16" cy="572.71" r="1.55"/><circle class="cls-14" cx="563.43" cy="572.71" r="1.55"/><circle class="cls-14" cx="556.7" cy="572.71" r="1.55"/><circle class="cls-14" cx="549.96" cy="572.71" r="1.55"/><circle class="cls-14" cx="543.23" cy="572.71" r="1.55"/><circle class="cls-14" cx="536.5" cy="572.71" r="1.55"/><circle class="cls-14" cx="529.77" cy="572.71" r="1.55"/><circle class="cls-14" cx="523.03" cy="572.71" r="1.55"/><circle class="cls-14" cx="516.3" cy="572.71" r="1.55"/><circle class="cls-14" cx="509.57" cy="572.71" r="1.55"/><circle class="cls-14" cx="502.83" cy="572.71" r="1.55"/><circle class="cls-14" cx="496.1" cy="572.71" r="1.55"/><circle class="cls-14" cx="489.37" cy="572.71" r="1.55"/><circle class="cls-14" cx="482.64" cy="572.71" r="1.55"/><circle class="cls-14" cx="475.9" cy="572.71" r="1.55"/><circle class="cls-14" cx="469.17" cy="572.71" r="1.55"/><rect class="cls-2" x="119.05" y="602.22" width="268" height="0.9"/><rect class="cls-2" x="214.53" y="593.38" width="268" height="0.9"/><path class="cls-6" d="M175.58,601.55H141.27V588.94a2.84,2.84,0,0,1,2.84-2.84h28.62a2.85,2.85,0,0,1,2.85,2.84Zm-33.41-.89h32.51V588.94a2,2,0,0,0-2-1.94H144.11a1.94,1.94,0,0,0-1.94,1.94Z"/><circle class="cls-9" cx="166.81" cy="601.11" r="1.56"/><circle class="cls-9" cx="147.9" cy="601.11" r="1.56"/><rect class="cls-6" x="152.33" y="592.09" width="22.8" height="0.9"/><path class="cls-6" d="M448.85,592.67H427.31v-7A2.68,2.68,0,0,1,430,583h16.18a2.69,2.69,0,0,1,2.68,2.68Zm-21-.56h20.41v-6.46a2.12,2.12,0,0,0-2.11-2.12H430a2.12,2.12,0,0,0-2.12,2.12Z"/><circle class="cls-9" cx="432.81" cy="592.39" r="0.98"/><circle class="cls-9" cx="444.68" cy="592.39" r="0.98"/><rect class="cls-6" x="427.59" y="586.73" width="14.31" height="0.56"/><rect class="cls-12" x="421.58" y="563.46" width="81.79" height="15.31"/><polygon class="cls-5" points="406.24 579.57 353.18 579.57 353.18 515.8 379.71 494.22 406.24 515.8 406.24 579.57"/><rect class="cls-2" x="358.55" y="565.07" width="6.37" height="10.49"/><rect class="cls-2" x="370.53" y="565.07" width="6.37" height="10.49"/><rect class="cls-2" x="382.51" y="565.07" width="6.37" height="10.49"/><rect class="cls-2" x="394.49" y="565.07" width="6.37" height="10.49"/><rect class="cls-2" x="358.55" y="549.54" width="6.37" height="10.49"/><rect class="cls-2" x="370.53" y="549.54" width="6.37" height="10.49"/><rect class="cls-2" x="382.51" y="549.54" width="6.37" height="10.49"/><rect class="cls-2" x="394.49" y="549.54" width="6.37" height="10.49"/><rect class="cls-2" x="358.55" y="534.01" width="6.37" height="10.49"/><rect class="cls-2" x="370.53" y="534.01" width="6.37" height="10.49"/><rect class="cls-2" x="382.51" y="534.01" width="6.37" height="10.49"/><rect class="cls-2" x="394.49" y="534.01" width="6.37" height="10.49"/><rect class="cls-2" x="358.55" y="518.47" width="6.37" height="10.49"/><rect class="cls-2" x="370.53" y="518.47" width="6.37" height="10.49"/><rect class="cls-2" x="382.51" y="518.47" width="6.37" height="10.49"/><rect class="cls-2" x="394.49" y="518.47" width="6.37" height="10.49"/><rect class="cls-2" x="353.18" y="549.09" width="53.06" height="0.9"/><rect class="cls-2" x="353.18" y="518.02" width="53.06" height="0.9"/><path class="cls-2" d="M379.71,512.35a4.35,4.35,0,1,1,4.34-4.34A4.35,4.35,0,0,1,379.71,512.35Zm0-7.79a3.45,3.45,0,1,0,3.44,3.45A3.45,3.45,0,0,0,379.71,504.56Z"/><path class="cls-8" d="M343.88,462h0a.45.45,0,0,1,0-.9.47.47,0,0,1,.47.45A.43.43,0,0,1,343.88,462Z"/><path class="cls-8" d="M338.5,462h-.09a.45.45,0,0,1,0-.9.49.49,0,0,1,.49.45A.41.41,0,0,1,338.5,462Zm-5.44,0H333a.45.45,0,0,1,0-.9.49.49,0,0,1,.5.45A.42.42,0,0,1,333.06,462Zm-5.43,0h-.09a.45.45,0,0,1,0-.9.49.49,0,0,1,.5.45A.42.42,0,0,1,327.63,462Zm-5.43,0h-.09a.45.45,0,1,1,0-.9.49.49,0,0,1,.5.45A.42.42,0,0,1,322.2,462Zm-5.43,0h-.09a.45.45,0,1,1,0-.9.49.49,0,0,1,.5.45A.42.42,0,0,1,316.77,462Zm-5.43,0h-.09a.45.45,0,1,1,0-.9.48.48,0,0,1,.49.45A.41.41,0,0,1,311.34,462Zm-5.43,0h-.09a.45.45,0,1,1,0-.9.48.48,0,0,1,.49.45A.41.41,0,0,1,305.91,462Zm-5.43,0h-.09a.45.45,0,1,1,0-.9.48.48,0,0,1,.49.45A.41.41,0,0,1,300.48,462Zm-5.43,0H295a.45.45,0,1,1,0-.9.49.49,0,0,1,.49.45A.41.41,0,0,1,295.05,462Zm-5.44,0h-.08a.45.45,0,1,1,0-.9.49.49,0,0,1,.49.45A.42.42,0,0,1,289.61,462Zm-5.43,0h-.09a.45.45,0,1,1,0-.9.49.49,0,0,1,.5.45A.42.42,0,0,1,284.18,462Zm-5.43,0h-.09a.45.45,0,0,1,0-.9.49.49,0,0,1,.5.45A.42.42,0,0,1,278.75,462Zm-5.43,0h-.09a.45.45,0,0,1,0-.9.49.49,0,0,1,.5.45A.42.42,0,0,1,273.32,462Zm-5.43,0h-.09a.45.45,0,1,1,0-.9.48.48,0,0,1,.49.45A.41.41,0,0,1,267.89,462Zm-5.43,0h-.09a.45.45,0,1,1,0-.9.48.48,0,0,1,.49.45A.41.41,0,0,1,262.46,462ZM257,462h-.09a.45.45,0,1,1,0-.9.48.48,0,0,1,.49.45A.41.41,0,0,1,257,462Zm-5.43,0h-.09a.45.45,0,1,1,0-.9.48.48,0,0,1,.49.45A.41.41,0,0,1,251.6,462Zm-5.44,0h-.08a.45.45,0,1,1,0-.9.49.49,0,0,1,.49.45A.42.42,0,0,1,246.16,462Zm-5.43,0h-.09a.45.45,0,1,1,0-.9.49.49,0,0,1,.5.45A.42.42,0,0,1,240.73,462Zm-5.43,0h-.09a.45.45,0,1,1,0-.9.49.49,0,0,1,.5.45A.42.42,0,0,1,235.3,462Zm-5.43,0h-.09a.45.45,0,1,1,0-.9.49.49,0,0,1,.5.45A.42.42,0,0,1,229.87,462Zm-5.43,0h-.09a.45.45,0,1,1,0-.9.49.49,0,0,1,.5.45A.42.42,0,0,1,224.44,462ZM219,462h-.09a.45.45,0,1,1,0-.9.48.48,0,0,1,.49.45A.41.41,0,0,1,219,462Zm-5.43,0h-.09a.45.45,0,1,1,0-.9.48.48,0,0,1,.49.45A.41.41,0,0,1,213.58,462Zm-5.43,0h-.09a.45.45,0,1,1,0-.9.48.48,0,0,1,.49.45A.41.41,0,0,1,208.15,462Zm-5.43,0h-.09a.45.45,0,1,1,0-.9.49.49,0,0,1,.49.45A.41.41,0,0,1,202.72,462Zm-5.44,0h-.09a.45.45,0,0,1,0-.9.49.49,0,0,1,.5.45A.42.42,0,0,1,197.28,462Zm-5.43,0h-.09a.45.45,0,1,1,0-.9.49.49,0,0,1,.5.45A.42.42,0,0,1,191.85,462Zm-5.43,0h-.09a.45.45,0,1,1,0-.9.49.49,0,0,1,.5.45A.42.42,0,0,1,186.42,462ZM181,462h-.09a.45.45,0,1,1,0-.9.49.49,0,0,1,.5.45A.42.42,0,0,1,181,462Zm-5.43,0h-.09a.45.45,0,1,1,0-.9.48.48,0,0,1,.49.45A.41.41,0,0,1,175.56,462Zm-5.43,0H170a.45.45,0,1,1,0-.9.48.48,0,0,1,.49.45A.41.41,0,0,1,170.13,462Zm-5.43,0h-.09a.45.45,0,1,1,0-.9.48.48,0,0,1,.49.45A.41.41,0,0,1,164.7,462Z"/><path class="cls-8" d="M159.27,462h-.5v-.45a.47.47,0,0,1,.45-.47.44.44,0,0,1,.42.27.46.46,0,0,1,.05.2A.43.43,0,0,1,159.27,462Z"/><path class="cls-8" d="M159.22,456.45a.42.42,0,0,1-.45-.41V456a.45.45,0,0,1,.9,0A.49.49,0,0,1,159.22,456.45Zm0-5.55a.41.41,0,0,1-.45-.4v-.09a.45.45,0,1,1,.9,0A.48.48,0,0,1,159.22,450.9Zm0-5.54a.42.42,0,0,1-.45-.41v-.09a.45.45,0,1,1,.9,0A.49.49,0,0,1,159.22,445.36Zm0-5.55a.41.41,0,0,1-.45-.4v-.09a.45.45,0,0,1,.9,0A.48.48,0,0,1,159.22,439.81Z"/><path class="cls-8" d="M159.22,434.29a.43.43,0,0,1-.45-.42v-.5h.45a.47.47,0,0,1,.47.45.44.44,0,0,1-.27.42A.35.35,0,0,1,159.22,434.29Z"/><path class="cls-8" d="M272.72,434.27a.48.48,0,0,1-.49-.45.41.41,0,0,1,.4-.45h.09a.45.45,0,1,1,0,.9Zm-5.4,0a.49.49,0,0,1-.5-.45.42.42,0,0,1,.41-.45h.09a.45.45,0,0,1,0,.9Zm-5.41,0a.49.49,0,0,1-.49-.45.42.42,0,0,1,.41-.45h.08a.45.45,0,0,1,0,.9Zm-5.4,0a.48.48,0,0,1-.49-.45.41.41,0,0,1,.4-.45h.09a.45.45,0,1,1,0,.9Zm-5.4,0a.48.48,0,0,1-.49-.45.41.41,0,0,1,.4-.45h.09a.45.45,0,1,1,0,.9Zm-5.4,0a.49.49,0,0,1-.5-.45.42.42,0,0,1,.41-.45h.09a.45.45,0,0,1,0,.9Zm-5.41,0a.49.49,0,0,1-.49-.45.42.42,0,0,1,.41-.45h.08a.45.45,0,0,1,0,.9Zm-5.4,0a.48.48,0,0,1-.49-.45.41.41,0,0,1,.4-.45h.09a.45.45,0,1,1,0,.9Zm-5.4,0a.48.48,0,0,1-.49-.45.41.41,0,0,1,.4-.45h.09a.45.45,0,1,1,0,.9Zm-5.4,0a.49.49,0,0,1-.5-.45.42.42,0,0,1,.41-.45h.09a.45.45,0,0,1,0,.9Zm-5.41,0a.49.49,0,0,1-.49-.45.42.42,0,0,1,.41-.45h.08a.45.45,0,0,1,0,.9Zm-5.4,0a.48.48,0,0,1-.49-.45.41.41,0,0,1,.4-.45h.09a.45.45,0,0,1,0,.9Zm-5.4,0a.49.49,0,0,1-.5-.45.42.42,0,0,1,.41-.45h.09a.45.45,0,0,1,0,.9Zm-5.4,0a.49.49,0,0,1-.5-.45.42.42,0,0,1,.41-.45h.09a.45.45,0,1,1,0,.9Zm-5.41,0a.49.49,0,0,1-.49-.45.42.42,0,0,1,.41-.45h.08a.45.45,0,1,1,0,.9Zm-5.4,0a.48.48,0,0,1-.49-.45.41.41,0,0,1,.4-.45h.09a.45.45,0,0,1,0,.9Zm-5.4,0a.49.49,0,0,1-.5-.45.42.42,0,0,1,.41-.45h.09a.45.45,0,1,1,0,.9Zm-5.4,0a.49.49,0,0,1-.5-.45.42.42,0,0,1,.41-.45h.09a.45.45,0,0,1,0,.9Zm-5.41,0a.49.49,0,0,1-.49-.45.41.41,0,0,1,.4-.45h.09a.45.45,0,0,1,0,.9Zm-5.4,0a.48.48,0,0,1-.49-.45.41.41,0,0,1,.4-.45h.09a.45.45,0,0,1,0,.9Zm-5.4,0a.49.49,0,0,1-.5-.45.42.42,0,0,1,.41-.45h.09a.45.45,0,0,1,0,.9Z"/><path class="cls-8" d="M278.08,434.27a.47.47,0,0,1-.47-.45.44.44,0,0,1,.27-.42.45.45,0,0,1,.65.38v.45Z"/><path class="cls-8" d="M278.08,427.87a.45.45,0,0,1-.45-.45v-.1a.45.45,0,0,1,.9,0v.1A.45.45,0,0,1,278.08,427.87Z"/><path class="cls-8" d="M278.08,421.39a.44.44,0,0,1-.42-.27.46.46,0,0,1-.05-.2.43.43,0,0,1,.42-.45h.45l0,.45A.47.47,0,0,1,278.08,421.39Z"/><path class="cls-8" d="M272.85,421.37h-.08a.45.45,0,1,1,0-.9.49.49,0,0,1,.49.45A.42.42,0,0,1,272.85,421.37Zm-5.27,0h-.08a.45.45,0,1,1,0-.9.48.48,0,0,1,.49.45A.42.42,0,0,1,267.58,421.37Zm-5.26,0h-.09a.45.45,0,0,1,0-.9.48.48,0,0,1,.49.45A.41.41,0,0,1,262.32,421.37Zm-5.27,0H257a.45.45,0,0,1,0-.9.48.48,0,0,1,.49.45A.41.41,0,0,1,257.05,421.37Zm-5.27,0h-.09a.45.45,0,0,1,0-.9.49.49,0,0,1,.5.45A.42.42,0,0,1,251.78,421.37Z"/><path class="cls-8" d="M246.51,421.37h0a.45.45,0,1,1,0-.9.47.47,0,0,1,.47.45A.43.43,0,0,1,246.51,421.37Z"/><polygon class="cls-12" points="345.76 589.54 344.18 586.55 335.69 586.55 333.84 589.54 330.02 589.54 330.02 592.54 333.84 592.54 345.76 592.54 347.72 592.54 347.72 589.54 345.76 589.54"/><path class="cls-9" d="M344.37,591.54a.69.69,0,0,1,0,1.38.69.69,0,1,1,0-1.38m0-.45a1.14,1.14,0,1,0,1.13,1.14,1.14,1.14,0,0,0-1.13-1.14Z"/><path class="cls-9" d="M333.83,591.91a.5.5,0,0,1,.5.5.51.51,0,1,1-1,0,.5.5,0,0,1,.51-.5m0-.45a1,1,0,1,0,.95.95,1,1,0,0,0-.95-.95Z"/><polygon class="cls-8" points="198.06 598.43 199.63 595.43 208.12 595.43 209.98 598.43 213.8 598.43 213.8 601.43 209.98 601.43 198.06 601.43 196.09 601.43 196.09 598.43 198.06 598.43"/><path class="cls-9" d="M199.45,600.43a.68.68,0,0,1,.69.68.69.69,0,0,1-1.38,0,.68.68,0,0,1,.69-.68m0-.45a1.14,1.14,0,1,0,1.14,1.13,1.14,1.14,0,0,0-1.14-1.13Z"/><path class="cls-9" d="M210,600.79a.51.51,0,0,1,.51.51.51.51,0,0,1-1,0,.51.51,0,0,1,.51-.51m0-.45a1,1,0,1,0,1,1,1,1,0,0,0-1-1Z"/><g class="cls-13"><polygon class="cls-12" points="314.82 590.02 313.44 587.4 307.82 587.4 306.19 590.02 302.85 590.02 302.85 592.65 306.19 592.65 314.82 592.65 316.54 592.65 316.54 590.02 314.82 590.02"/></g><path class="cls-9" d="M313.6,591.77a.6.6,0,1,1-.6.6.6.6,0,0,1,.6-.6m0-.39a1,1,0,0,0,0,2,1,1,0,1,0,0-2Z"/><path class="cls-9" d="M306.18,592.09a.44.44,0,0,1,.44.44.43.43,0,0,1-.44.44.44.44,0,0,1-.44-.44.44.44,0,0,1,.44-.44m0-.39a.83.83,0,0,0-.83.83.84.84,0,0,0,.83.84.85.85,0,0,0,.84-.84.84.84,0,0,0-.84-.83Z"/><polygon class="cls-8" points="264.85 551.47 261.52 548.14 258.2 551.47 254.88 548.14 251.55 551.47 248.23 548.14 244.9 551.47 241.58 548.14 238.25 551.47 234.93 548.14 231.66 551.41 231.34 551.1 234.93 547.5 238.25 550.83 241.58 547.5 244.9 550.83 248.23 547.5 251.55 550.83 254.88 547.5 258.2 550.83 261.52 547.5 264.85 550.83 268.17 547.5 271.76 551.1 271.45 551.41 268.17 548.14 264.85 551.47"/><polygon class="cls-9" points="502.53 561.66 495.79 554.92 489.13 561.58 482.46 554.92 475.8 561.58 469.13 554.92 462.47 561.58 455.81 554.92 449.14 561.58 442.48 554.92 435.81 561.58 429.15 554.92 422.41 561.66 422.12 561.37 429.15 554.34 435.81 561 442.48 554.34 449.14 561 455.81 554.34 462.47 561 469.13 554.34 475.8 561 482.46 554.34 489.13 561 495.79 554.34 502.82 561.37 502.53 561.66"/><rect class="cls-9" x="411.18" y="571.16" width="34.48" height="6.82"/><path class="cls-9" d="M337.46,579.92H322.13V561l7.66-6.46,7.67,6.46Zm-14.88-.45H337V561.24l-7.22-6.09-7.21,6.09Z"/><path class="cls-8" d="M509.57,580.92H81a1.35,1.35,0,1,1,0-2.7H509.57a1.35,1.35,0,0,1,0,2.7Z"/></g></g></svg>