<svg id="Layer_1" data-name="Layer 1" xmlns="http://www.w3.org/2000/svg" viewBox="0 0 213.68 371.7"><defs><style>.cls-1{fill:#fff;}.cls-2{fill:#40bead;}.cls-3{fill:#f0468a;}</style></defs><title>calendar-v</title><g id="Calendar"><path class="cls-1" d="M205.86,62.45V363.89H7.82V62.45h198m7.82-7.82H0V371.7H213.68V54.63Z"/><polygon class="cls-1" points="58.91 56.85 57.05 55.02 108.83 2.59 156.66 55.06 154.74 56.81 108.76 6.37 58.91 56.85"/><circle class="cls-1" cx="108.42" cy="6.15" r="6.15"/><rect class="cls-1" x="4.56" y="104.52" width="209.12" height="3.45"/><rect class="cls-1" x="42.38" y="106.25" width="3.45" height="259.96"/><rect class="cls-1" x="84.2" y="106.25" width="3.45" height="259.96"/><rect class="cls-1" x="126.02" y="106.25" width="3.45" height="259.96"/><rect class="cls-1" x="167.85" y="106.25" width="3.45" height="259.96"/><rect class="cls-1" x="4.81" y="150.7" width="207.47" height="3.45"/><rect class="cls-1" x="4.81" y="192.53" width="207.47" height="3.45"/><rect class="cls-1" x="4.81" y="234.35" width="207.47" height="3.45"/><rect class="cls-1" x="4.81" y="276.17" width="207.47" height="3.45"/><rect class="cls-1" x="4.81" y="322.35" width="207.47" height="3.45"/><path class="cls-1" d="M45.39,92.22h2.83v-18H45.39V72.63h15v4.8H58.57V74.24H50.06v8.34h7.06V84.2H50.06v8h3v1.61H45.39Z"/><path class="cls-1" d="M63.34,87.45c.26,3.42,2.32,5.12,5.57,5.12a8.56,8.56,0,0,0,4.68-1.51l-.17,1.68a8.86,8.86,0,0,1-4.73,1.35,6.69,6.69,0,0,1-7.09-7c0-3.71,2.45-7.06,6.54-7.06,3.9,0,6,3.06,6,6.35a4.8,4.8,0,0,1-.1,1.06Zm0-1.45h9.12c-.19-2.64-1.68-4.48-4.51-4.48A4.7,4.7,0,0,0,63.37,86Z"/><path class="cls-1" d="M80.55,92.38l-.65,1.45H79V71.72H76.71V70.24h3.9v12A6.38,6.38,0,0,1,85.54,80c3.51,0,6.57,2.8,6.57,7.06a6.78,6.78,0,0,1-7,7A7.09,7.09,0,0,1,80.55,92.38Zm9.82-5.28c0-3.29-2.09-5.58-5-5.58a6.33,6.33,0,0,0-4.74,2.29v7.12a7.13,7.13,0,0,0,4.61,1.68A5.16,5.16,0,0,0,90.37,87.1Z"/><path class="cls-1" d="M105.52,81.59A1.36,1.36,0,0,1,104.2,83a1.56,1.56,0,0,1-1.45-1.09,5.86,5.86,0,0,0-3,3v7.48h2.64v1.48H95.82V92.35h2.25V81.78H95.82V80.3h3.83v3.06c1-1.87,2.71-3.32,4-3.32A1.64,1.64,0,0,1,105.52,81.59Z"/><path class="cls-1" d="M110.29,92.28a5.77,5.77,0,0,1-.61-2.8v-7.7h-2.26V80.3h3.9v9a4.54,4.54,0,0,0,.42,2,2.48,2.48,0,0,0,2.48,1.25c1.93,0,3.54-1.29,4.9-2.77v-8h-2.26V80.3h3.9v12H123v1.48h-3.84V91.16A7.25,7.25,0,0,1,114,94.09,3.84,3.84,0,0,1,110.29,92.28Z"/><path class="cls-1" d="M126.3,90.16c0-2.45,2.19-4.1,5.13-4.1a13.12,13.12,0,0,1,4.12.78V84.58a2.9,2.9,0,0,0-.64-1.93,4,4,0,0,0-3.1-1.13,3.91,3.91,0,0,0-2.45.71,1.84,1.84,0,0,1,.23.87,1.18,1.18,0,0,1-1.23,1.22A1.22,1.22,0,0,1,127.11,83c0-1.52,1.83-3,4.9-3a5.5,5.5,0,0,1,4.12,1.48,3.76,3.76,0,0,1,1,2.68v8.15h2.26v1.48h-3.77V92a7,7,0,0,1-4.77,2.1C128.11,94.09,126.3,92.41,126.3,90.16Zm9.25.26V88.13a13.67,13.67,0,0,0-4.06-.68c-2.38,0-3.54,1.16-3.54,2.61s1.09,2.58,3.22,2.58A5.89,5.89,0,0,0,135.55,90.42Z"/><path class="cls-1" d="M152.15,81.59A1.36,1.36,0,0,1,150.82,83a1.58,1.58,0,0,1-1.45-1.09,5.85,5.85,0,0,0-3,3v7.48H149v1.48h-6.54V92.35h2.25V81.78h-2.25V80.3h3.83v3.06c1-1.87,2.71-3.32,4-3.32A1.64,1.64,0,0,1,152.15,81.59Z"/><path class="cls-1" d="M156.14,100.28c-1.06,0-2.09-.58-2.09-1.61a1.18,1.18,0,0,1,1.19-1.26,1.57,1.57,0,0,1,1.42,1.29,4.29,4.29,0,0,0,1.87-1.87c.35-.58.77-1.39,1.22-2.32l.71-1.48-5.22-11.25h-1.93V80.3h6v1.48h-2.19s4.19,9.44,4.16,9.44l4.22-9.44H163.2V80.3h5.9v1.48h-1.94l-6.44,13.89a20.78,20.78,0,0,1-1.13,2.09C158.56,99.37,157.49,100.28,156.14,100.28Z"/><path class="cls-1" d="M22.42,136.08h3.87V123.25l-3.51.94-.39-1.48,4.93-1.39H28v14.76h3.8v1.48H22.42Z"/><path class="cls-1" d="M62.72,124.13a3.19,3.19,0,0,0-.26.38,1.3,1.3,0,0,1-.32,2.55,1.55,1.55,0,0,1-1.45-1.74,3.25,3.25,0,0,1,.58-1.71,6.11,6.11,0,0,1,5-2.45c3.74,0,5.6,2.22,5.6,4.64,0,2.64-2.28,4.16-4.73,5.77a13.84,13.84,0,0,0-4.87,4.51h8.57v-2.83h1.58v4.31H60.34l-.13-.83c1.22-3.07,3.74-4.81,6.25-6.45,2.06-1.39,3.74-2.51,3.74-4.48,0-1.8-1.45-3.09-4.06-3.09A4.56,4.56,0,0,0,62.72,124.13Z"/><path class="cls-1" d="M101.89,135.82a1.2,1.2,0,0,1,1.23,1.2,1.3,1.3,0,0,1-1,1.28,1.68,1.68,0,0,0,.39.52,5.8,5.8,0,0,0,3.9,1.19c2.93,0,4.93-1.74,4.93-4a3.9,3.9,0,0,0-2.48-3.58,9.15,9.15,0,0,0-3.77-.74h-.62v-1.51h.71a7.46,7.46,0,0,0,3.8-1,3.71,3.71,0,0,0,2.07-3.06c0-2.16-1.74-3.35-4.39-3.35a4.75,4.75,0,0,0-3.64,1.29,1.94,1.94,0,0,0-.29.45,1.37,1.37,0,0,1,1,1.19,1.23,1.23,0,0,1-1.29,1.23,1.57,1.57,0,0,1-1.45-1.68,3.11,3.11,0,0,1,.58-1.71,6.15,6.15,0,0,1,5.22-2.38c3.55,0,5.9,2.29,5.9,5a4.92,4.92,0,0,1-2.71,4.06,5.7,5.7,0,0,1-2.09.71,8.62,8.62,0,0,1,2,.61A5,5,0,0,1,113,136c0,3.42-2.93,5.64-6.61,5.64-2.38,0-4.51-.93-5.47-2.35a3,3,0,0,1-.55-1.71A1.65,1.65,0,0,1,101.89,135.82Z"/><path class="cls-1" d="M150.78,135.53h-9.21l-.26-.61,10.18-13.73,1.29.94L144,134.05h6.83v-5l1.61-.68v5.64h3.81v1.48h-3.81v5.9h-1.61Z"/><path class="cls-1" d="M184,136.66a1.22,1.22,0,0,1,1.28,1.23,1.4,1.4,0,0,1-.64,1.12,3,3,0,0,0,.45.39,5.63,5.63,0,0,0,3.13.71,4.73,4.73,0,0,0,5-4.77,4.51,4.51,0,0,0-4.8-4.67,11.53,11.53,0,0,0-4.48.9l-.71-.42,1.13-9.73h9.5V123h-8.15l-.77,6.7a11.59,11.59,0,0,1,3.54-.55c3.77,0,6.48,2.52,6.48,6.16a6.33,6.33,0,0,1-6.64,6.25,7.34,7.34,0,0,1-4.83-1.45,2.47,2.47,0,0,1-.9-1.87A1.55,1.55,0,0,1,184,136.66Z"/><path class="cls-1" d="M21.84,173.8a6.07,6.07,0,0,1,5.29-3,6.12,6.12,0,0,1,6.38,6,6.42,6.42,0,0,1-6.54,6.6,6.49,6.49,0,0,1-4.68-1.84c-1.48-1.54-2.09-3.89-2.09-6.83,0-8.92,4.19-12.11,7.8-12.11a5.52,5.52,0,0,1,3.83,1.45,2.39,2.39,0,0,1,.78,1.74,1.53,1.53,0,0,1-1.49,1.67,1.24,1.24,0,0,1-1.28-1.32,1.06,1.06,0,0,1,.58-1,3.3,3.3,0,0,0-2.58-1C24.65,164.23,22,167.65,21.84,173.8Zm9.93,3.07a4.34,4.34,0,0,0-4.64-4.48,4.93,4.93,0,0,0-5.06,4.89,4.58,4.58,0,0,0,1.35,3.29A4.86,4.86,0,0,0,27,181.92C29.93,181.92,31.77,179.83,31.77,176.87Z"/><path class="cls-1" d="M62.4,183.05l8.12-18H62.05v3.06H60.43v-4.51H72.52l.26.51L64,183.69Z"/><path class="cls-1" d="M100.47,177.83a5.6,5.6,0,0,1,3.94-5.06,5.46,5.46,0,0,1-3.52-4.61c0-3.28,2.68-5.47,5.93-5.47s5.93,2.19,5.93,5.47a5.35,5.35,0,0,1-3.51,4.61,5.63,5.63,0,0,1,4,5.06c0,3.22-2.74,5.64-6.38,5.64S100.47,181.05,100.47,177.83Zm10.9,0a4.54,4.54,0,0,0-9.06,0,4.55,4.55,0,0,0,9.06,0Zm-.33-9.6a4.22,4.22,0,1,0-4.22,3.86A4,4,0,0,0,111,168.2Z"/><path class="cls-1" d="M143.34,182.27a2.39,2.39,0,0,1-.71-1.67,1.53,1.53,0,0,1,1.48-1.68,1.24,1.24,0,0,1,1.29,1.32,1.09,1.09,0,0,1-.58,1,3.25,3.25,0,0,0,2.58,1c3.45,0,6-3.25,6.22-9.15a6,6,0,0,1-5.25,2.8A6.05,6.05,0,0,1,142,170a6.42,6.42,0,0,1,6.55-6.6,6.51,6.51,0,0,1,4.67,1.83c1.51,1.52,2.09,3.9,2.09,6.84,0,9-4.44,11.76-8,11.76A5.55,5.55,0,0,1,143.34,182.27Zm5.19-17.37c-3,0-4.8,2.1-4.8,5.06,0,2.55,1.77,4.39,4.64,4.39a4.86,4.86,0,0,0,5.06-4.8,4.59,4.59,0,0,0-1.36-3.29A4.85,4.85,0,0,0,148.53,164.9Z"/><path class="cls-1" d="M175.34,178.28h3.87V165.45l-3.52.94-.38-1.49,4.93-1.38h.68v14.76h3.8v1.48h-9.38Z"/><path class="cls-1" d="M188.26,171.67c0-4.77,2.93-8.31,7.16-8.31s7.15,3.58,7.15,8.31-3,8.35-7.15,8.35S188.26,176.41,188.26,171.67Zm12.54,0c0-3.93-2.16-6.77-5.38-6.77s-5.39,2.81-5.39,6.77,2.2,6.8,5.39,6.8S200.8,175.67,200.8,171.67Z"/><path class="cls-1" d="M17.32,220.92h3.86V208.1l-3.51.93-.39-1.48,4.93-1.39h.68v14.76h3.8v1.49H17.32Z"/><path class="cls-1" d="M27.53,220.92H31.4V208.1l-3.52.93-.38-1.48,4.93-1.39h.68v14.76h3.8v1.49H27.53Z"/><path class="cls-1" d="M56.2,220.92h3.86V208.1l-3.51.93-.39-1.48,4.94-1.39h.67v14.76h3.8v1.49H56.2Z"/><path class="cls-1" d="M67.51,209a2.58,2.58,0,0,0-.26.38,1.33,1.33,0,0,1,1,1.2,1.31,1.31,0,0,1-1.29,1.35,1.55,1.55,0,0,1-1.45-1.74,3.16,3.16,0,0,1,.58-1.71,6.09,6.09,0,0,1,5-2.45c3.74,0,5.61,2.23,5.61,4.64,0,2.65-2.29,4.16-4.74,5.77a13.9,13.9,0,0,0-4.86,4.51h8.57v-2.83h1.58v4.32H65.12l-.13-.84c1.23-3.06,3.74-4.8,6.26-6.45,2.06-1.38,3.73-2.51,3.73-4.48,0-1.8-1.45-3.09-4.06-3.09A4.52,4.52,0,0,0,67.51,209Z"/><path class="cls-1" d="M96,220.92h3.87V208.1l-3.52.93L96,207.55l4.93-1.39h.68v14.76h3.8v1.49H96Z"/><path class="cls-1" d="M107,220.67a1.19,1.19,0,0,1,1.22,1.19,1.32,1.32,0,0,1-1,1.29,1.74,1.74,0,0,0,.38.51,5.84,5.84,0,0,0,3.9,1.2c2.94,0,4.93-1.74,4.93-4a3.89,3.89,0,0,0-2.48-3.58,9.08,9.08,0,0,0-3.77-.74h-.61v-1.51h.71a7.58,7.58,0,0,0,3.8-1,3.71,3.71,0,0,0,2.06-3.06c0-2.16-1.74-3.36-4.38-3.36a4.73,4.73,0,0,0-3.64,1.29,1.45,1.45,0,0,0-.29.45,1.37,1.37,0,0,1,1,1.2,1.24,1.24,0,0,1-1.29,1.22,1.57,1.57,0,0,1-1.45-1.67,3,3,0,0,1,.58-1.71,6.13,6.13,0,0,1,5.22-2.39c3.55,0,5.9,2.29,5.9,5a4.92,4.92,0,0,1-2.71,4.06,6.09,6.09,0,0,1-2.09.71,7.56,7.56,0,0,1,2,.61,4.93,4.93,0,0,1,3.1,4.44c0,3.42-2.93,5.64-6.61,5.64a6.67,6.67,0,0,1-5.48-2.35,3,3,0,0,1-.54-1.71A1.64,1.64,0,0,1,107,220.67Z"/><path class="cls-1" d="M178.42,220.92h3.86V208.1l-3.51.93-.39-1.48,4.94-1.39H184v14.76h3.8v1.49h-9.37Z"/><path class="cls-1" d="M188.76,221.5a1.22,1.22,0,0,1,1.29,1.23,1.43,1.43,0,0,1-.65,1.13,2.66,2.66,0,0,0,.46.38A5.56,5.56,0,0,0,193,225a4.72,4.72,0,0,0,5-4.77,4.51,4.51,0,0,0-4.8-4.67,11.57,11.57,0,0,0-4.48.9L188,216l1.13-9.73h9.51v1.61h-8.15l-.78,6.71a11.31,11.31,0,0,1,3.55-.55c3.77,0,6.48,2.51,6.48,6.15a6.33,6.33,0,0,1-6.64,6.25,7.3,7.3,0,0,1-4.84-1.45,2.46,2.46,0,0,1-.9-1.86A1.55,1.55,0,0,1,188.76,221.5Z"/><path class="cls-1" d="M14.55,265h3.87V252.21l-3.51.94-.39-1.48,4.93-1.39h.68V265h3.8v1.48H14.55Z"/><path class="cls-1" d="M25.48,257.11a6.06,6.06,0,0,1,5.28-3,6.12,6.12,0,0,1,6.38,6,6.63,6.63,0,0,1-11.21,4.77c-1.48-1.54-2.1-3.9-2.1-6.83,0-8.93,4.19-12.12,7.8-12.12a5.58,5.58,0,0,1,3.84,1.45,2.45,2.45,0,0,1,.77,1.74,1.53,1.53,0,0,1-1.48,1.68,1.24,1.24,0,0,1-1.29-1.32,1.06,1.06,0,0,1,.58-1,3.3,3.3,0,0,0-2.58-1C28.28,247.54,25.67,251,25.48,257.11Zm9.92,3.06a4.34,4.34,0,0,0-4.64-4.48,4.94,4.94,0,0,0-5.06,4.9,4.55,4.55,0,0,0,1.36,3.29,4.83,4.83,0,0,0,3.54,1.35C33.57,265.23,35.4,263.14,35.4,260.17Z"/><path class="cls-1" d="M56.33,262.74h3.86V249.91l-3.51.94-.39-1.49L61.22,248h.68v14.76h3.8v1.48H56.33Z"/><path class="cls-1" d="M67.67,267.51l8.12-18H67.31v3.07H65.7v-4.52H77.79l.25.52-8.83,19.56Z"/><path class="cls-1" d="M96,263.89h3.87V251.06l-3.52.94L96,250.52l4.93-1.39h.68v14.76h3.8v1.48H96Z"/><path class="cls-1" d="M105.58,260a5.61,5.61,0,0,1,3.93-5.06,5.46,5.46,0,0,1-3.51-4.61c0-3.29,2.68-5.48,5.93-5.48s5.93,2.19,5.93,5.48a5.36,5.36,0,0,1-3.51,4.61,5.65,5.65,0,0,1,4,5.06c0,3.22-2.74,5.64-6.38,5.64S105.58,263.21,105.58,260Zm10.89,0a4.54,4.54,0,1,0-4.54,4.12A4.25,4.25,0,0,0,116.47,260Zm-.32-9.61a4.22,4.22,0,1,0-4.22,3.87A4,4,0,0,0,116.15,250.35Z"/><path class="cls-1" d="M137.62,262.74h3.87V249.91l-3.52.94-.38-1.49,4.93-1.38h.67v14.76H147v1.48h-9.38Z"/><path class="cls-1" d="M148.28,266.73a2.38,2.38,0,0,1-.7-1.67,1.53,1.53,0,0,1,1.48-1.68,1.25,1.25,0,0,1,1.29,1.32,1.08,1.08,0,0,1-.58,1,3.18,3.18,0,0,0,2.57,1c3.45,0,6-3.25,6.22-9.15a6.37,6.37,0,0,1-11.63-3.13,6.42,6.42,0,0,1,6.54-6.6,6.53,6.53,0,0,1,4.68,1.83c1.51,1.52,2.09,3.9,2.09,6.84,0,9-4.45,11.76-8.06,11.76A5.58,5.58,0,0,1,148.28,266.73Zm5.19-17.37c-3,0-4.8,2.1-4.8,5.06,0,2.55,1.77,4.39,4.64,4.39a4.86,4.86,0,0,0,5.06-4.81,4.57,4.57,0,0,0-1.35-3.28A4.86,4.86,0,0,0,153.47,249.36Z"/><path class="cls-1" d="M177.35,250.78a2.84,2.84,0,0,0-.25.39,1.29,1.29,0,0,1-.33,2.54,1.55,1.55,0,0,1-1.45-1.74,3.19,3.19,0,0,1,.58-1.7,6.1,6.1,0,0,1,5-2.45c3.74,0,5.61,2.22,5.61,4.64,0,2.64-2.29,4.15-4.74,5.77a13.84,13.84,0,0,0-4.87,4.51h8.57V259.9h1.58v4.32H175l-.13-.84c1.22-3.06,3.74-4.8,6.25-6.44,2.06-1.39,3.74-2.52,3.74-4.48s-1.45-3.1-4.06-3.1A4.6,4.6,0,0,0,177.35,250.78Z"/><path class="cls-1" d="M188,256.13c0-4.77,2.93-8.31,7.15-8.31s7.16,3.57,7.16,8.31-3,8.35-7.16,8.35S188,260.87,188,256.13Zm12.53,0c0-3.93-2.16-6.77-5.38-6.77s-5.38,2.81-5.38,6.77,2.19,6.8,5.38,6.8S200.52,260.13,200.52,256.13Z"/><path class="cls-1" d="M16.25,293.36a2.2,2.2,0,0,0-.26.39,1.3,1.3,0,0,1-.32,2.55,1.55,1.55,0,0,1-1.45-1.74,3.16,3.16,0,0,1,.58-1.71,6.06,6.06,0,0,1,5-2.45c3.74,0,5.61,2.22,5.61,4.64,0,2.64-2.29,4.16-4.74,5.77a13.84,13.84,0,0,0-4.87,4.51h8.58v-2.84H26v4.32H13.86l-.13-.84c1.23-3.06,3.74-4.8,6.25-6.44,2.07-1.39,3.74-2.52,3.74-4.48S22.27,292,19.66,292A4.55,4.55,0,0,0,16.25,293.36Z"/><path class="cls-1" d="M28,305.32h3.87V292.49l-3.52.94L28,292l4.93-1.39h.67v14.76h3.81v1.48H28Z"/><path class="cls-1" d="M56.28,293.36a2.2,2.2,0,0,0-.26.39,1.3,1.3,0,0,1,1,1.19,1.32,1.32,0,0,1-1.29,1.36,1.55,1.55,0,0,1-1.45-1.74,3.16,3.16,0,0,1,.58-1.71,6.06,6.06,0,0,1,5-2.45c3.74,0,5.61,2.22,5.61,4.64,0,2.64-2.29,4.16-4.74,5.77a13.81,13.81,0,0,0-4.86,4.51H64.4v-2.84H66v4.32H53.89l-.13-.84c1.23-3.06,3.74-4.8,6.26-6.44,2.06-1.39,3.73-2.52,3.73-4.48S62.3,292,59.69,292A4.55,4.55,0,0,0,56.28,293.36Z"/><path class="cls-1" d="M69.17,293.36a2.2,2.2,0,0,0-.26.39,1.3,1.3,0,0,1-.32,2.55,1.55,1.55,0,0,1-1.45-1.74,3.16,3.16,0,0,1,.58-1.71,6.06,6.06,0,0,1,5-2.45c3.74,0,5.61,2.22,5.61,4.64,0,2.64-2.29,4.16-4.74,5.77a13.73,13.73,0,0,0-4.86,4.51h8.57v-2.84h1.58v4.32H66.78l-.13-.84c1.23-3.06,3.74-4.8,6.25-6.44C75,298.13,76.64,297,76.64,295S75.19,292,72.58,292A4.55,4.55,0,0,0,69.17,293.36Z"/><path class="cls-1" d="M96.22,293.36a4.4,4.4,0,0,0-.26.39,1.3,1.3,0,0,1,1,1.19,1.32,1.32,0,0,1-1.29,1.36,1.55,1.55,0,0,1-1.45-1.74,3.25,3.25,0,0,1,.58-1.71,6.08,6.08,0,0,1,5-2.45c3.73,0,5.6,2.22,5.6,4.64,0,2.64-2.28,4.16-4.73,5.77a13.84,13.84,0,0,0-4.87,4.51h8.57v-2.84h1.58v4.32H93.84l-.13-.84c1.22-3.06,3.74-4.8,6.25-6.44,2.06-1.39,3.74-2.52,3.74-4.48S102.25,292,99.64,292A4.59,4.59,0,0,0,96.22,293.36Z"/><path class="cls-1" d="M108.5,305.06a1.19,1.19,0,0,1,1.22,1.19,1.31,1.31,0,0,1-1,1.29,1.53,1.53,0,0,0,.38.52,5.84,5.84,0,0,0,3.9,1.19c2.94,0,4.93-1.74,4.93-4a3.88,3.88,0,0,0-2.48-3.58,9.08,9.08,0,0,0-3.77-.74h-.61v-1.52h.71a7.48,7.48,0,0,0,3.8-1,3.7,3.7,0,0,0,2.06-3.06c0-2.16-1.74-3.35-4.38-3.35a4.73,4.73,0,0,0-3.64,1.29,1.45,1.45,0,0,0-.29.45,1.37,1.37,0,0,1,1,1.19,1.24,1.24,0,0,1-1.29,1.23,1.57,1.57,0,0,1-1.45-1.68,3,3,0,0,1,.58-1.71,6.15,6.15,0,0,1,5.22-2.38c3.54,0,5.9,2.29,5.9,5a4.92,4.92,0,0,1-2.71,4.06,5.87,5.87,0,0,1-2.1.71,8.47,8.47,0,0,1,2,.61,4.94,4.94,0,0,1,3.1,4.45c0,3.42-2.94,5.64-6.61,5.64a6.67,6.67,0,0,1-5.48-2.35,3,3,0,0,1-.55-1.71A1.65,1.65,0,0,1,108.5,305.06Z"/><path class="cls-1" d="M14.31,339.05a4.4,4.4,0,0,0-.26.39,1.3,1.3,0,0,1,1,1.19A1.32,1.32,0,0,1,13.73,342a1.55,1.55,0,0,1-1.45-1.74,3.25,3.25,0,0,1,.58-1.71,6.08,6.08,0,0,1,5-2.45c3.74,0,5.6,2.22,5.6,4.64,0,2.64-2.28,4.16-4.73,5.77A13.84,13.84,0,0,0,13.86,351h8.57v-2.84H24v4.32H11.93l-.13-.84c1.22-3.06,3.74-4.8,6.25-6.44,2.06-1.39,3.74-2.52,3.74-4.48s-1.45-3.09-4.06-3.09A4.59,4.59,0,0,0,14.31,339.05Z"/><path class="cls-1" d="M27.46,343.08a6.06,6.06,0,0,1,5.28-3,6.13,6.13,0,0,1,6.39,6,6.63,6.63,0,0,1-11.22,4.77c-1.48-1.54-2.09-3.9-2.09-6.83,0-8.93,4.18-12.12,7.79-12.12a5.58,5.58,0,0,1,3.84,1.45,2.45,2.45,0,0,1,.77,1.74,1.53,1.53,0,0,1-1.48,1.68,1.24,1.24,0,0,1-1.29-1.32,1.08,1.08,0,0,1,.58-1,3.25,3.25,0,0,0-2.58-1C30.26,333.51,27.65,336.93,27.46,343.08Zm9.92,3.06a4.34,4.34,0,0,0-4.64-4.48,4.94,4.94,0,0,0-5.06,4.9A4.59,4.59,0,0,0,29,349.85a4.85,4.85,0,0,0,3.54,1.35C35.55,351.2,37.38,349.11,37.38,346.14Z"/><path class="cls-1" d="M56.89,339.05a2.94,2.94,0,0,0-.26.39,1.3,1.3,0,0,1,1,1.19A1.32,1.32,0,0,1,56.31,342a1.55,1.55,0,0,1-1.45-1.74,3.25,3.25,0,0,1,.58-1.71,6.06,6.06,0,0,1,5-2.45c3.74,0,5.61,2.22,5.61,4.64,0,2.64-2.29,4.16-4.74,5.77A13.9,13.9,0,0,0,56.44,351H65v-2.84h1.58v4.32H54.5l-.12-.84c1.22-3.06,3.73-4.8,6.25-6.44,2.06-1.39,3.74-2.52,3.74-4.48s-1.45-3.09-4.06-3.09A4.56,4.56,0,0,0,56.89,339.05Z"/><path class="cls-1" d="M68.84,355.78l8.13-18H68.49v3.06H66.88v-4.51H79l.26.51-8.83,19.56Z"/><path class="cls-1" d="M96.22,339.05a4.4,4.4,0,0,0-.26.39,1.3,1.3,0,0,1,1,1.19A1.32,1.32,0,0,1,95.64,342a1.55,1.55,0,0,1-1.45-1.74,3.25,3.25,0,0,1,.58-1.71,6.08,6.08,0,0,1,5-2.45c3.73,0,5.6,2.22,5.6,4.64,0,2.64-2.28,4.16-4.73,5.77A13.84,13.84,0,0,0,95.77,351h8.57v-2.84h1.58v4.32H93.84l-.13-.84c1.22-3.06,3.74-4.8,6.25-6.44,2.06-1.39,3.74-2.52,3.74-4.48s-1.45-3.09-4.06-3.09A4.59,4.59,0,0,0,96.22,339.05Z"/><path class="cls-1" d="M107.08,347.11a5.61,5.61,0,0,1,3.93-5.06,5.46,5.46,0,0,1-3.51-4.61c0-3.29,2.67-5.48,5.93-5.48s5.93,2.19,5.93,5.48a5.36,5.36,0,0,1-3.51,4.61,5.65,5.65,0,0,1,4,5.06c0,3.22-2.74,5.64-6.38,5.64S107.08,350.33,107.08,347.11Zm10.89,0a4.54,4.54,0,1,0-4.54,4.12A4.25,4.25,0,0,0,118,347.08Zm-.32-9.61a4.22,4.22,0,1,0-4.22,3.87A4,4,0,0,0,117.65,337.47Z"/><path class="cls-1" d="M138.28,293.36a2.94,2.94,0,0,0-.26.39,1.3,1.3,0,0,1,1,1.19,1.32,1.32,0,0,1-1.29,1.36,1.55,1.55,0,0,1-1.45-1.74,3.16,3.16,0,0,1,.58-1.71,6.06,6.06,0,0,1,5-2.45c3.74,0,5.61,2.22,5.61,4.64,0,2.64-2.29,4.16-4.74,5.77a13.9,13.9,0,0,0-4.86,4.51h8.57v-2.84H148v4.32H135.89l-.12-.84c1.22-3.06,3.73-4.8,6.25-6.44,2.06-1.39,3.74-2.52,3.74-4.48S144.31,292,141.7,292A4.56,4.56,0,0,0,138.28,293.36Z"/><path class="cls-1" d="M157.23,304.77H148l-.26-.61,10.19-13.73,1.29.94-8.83,11.92h6.83v-5l1.61-.68v5.64h3.8v1.48h-3.8v5.9h-1.61Z"/><path class="cls-1" d="M178,292.21a2.84,2.84,0,0,0-.25.39,1.3,1.3,0,0,1-.33,2.55A1.56,1.56,0,0,1,176,293.4a3.19,3.19,0,0,1,.58-1.7,6.1,6.1,0,0,1,5-2.45c3.74,0,5.61,2.22,5.61,4.64,0,2.64-2.29,4.16-4.74,5.77a13.84,13.84,0,0,0-4.87,4.51h8.58v-2.84h1.57v4.32H175.63l-.13-.84c1.23-3.06,3.74-4.8,6.25-6.44,2.07-1.39,3.74-2.52,3.74-4.48,0-1.81-1.45-3.1-4.06-3.1A4.6,4.6,0,0,0,178,292.21Z"/><path class="cls-1" d="M190.9,304.75a1.22,1.22,0,0,1,1.29,1.22,1.45,1.45,0,0,1-.64,1.13,3,3,0,0,0,.45.39,5.6,5.6,0,0,0,3.13.71,4.73,4.73,0,0,0,5-4.77,4.53,4.53,0,0,0-4.8-4.68,11.34,11.34,0,0,0-4.48.91l-.71-.42,1.13-9.73h9.5v1.61h-8.15l-.77,6.7a11.54,11.54,0,0,1,3.54-.55c3.77,0,6.48,2.52,6.48,6.16a6.33,6.33,0,0,1-6.64,6.25,7.3,7.3,0,0,1-4.83-1.45,2.5,2.5,0,0,1-.91-1.87A1.54,1.54,0,0,1,190.9,304.75Z"/><rect class="cls-2" x="156.31" y="214.67" width="1.85" height="14.88" transform="translate(-114.58 235.15) rotate(-57.45)"/><path class="cls-3" d="M162.26,213.62A7.08,7.08,0,0,0,149,209.77a7.08,7.08,0,1,0-12.07,7h0l10.79,12.84,12.08-11.11A7.08,7.08,0,0,0,162.26,213.62Z"/><rect class="cls-2" x="133.82" y="199.17" width="1.85" height="18.76" transform="matrix(0.54, -0.84, 0.84, 0.54, -113.54, 209.93)"/><polygon class="cls-2" points="122.98 205.84 122.72 204 126.69 203.43 126.11 199.46 127.95 199.2 128.78 205 122.98 205.84"/><polygon class="cls-2" points="126.68 208.4 126.41 206.56 130.38 205.99 129.81 202.02 131.64 201.76 132.48 207.56 126.68 208.4"/><polygon class="cls-2" points="130.22 210.38 129.95 208.55 133.92 207.97 133.35 204 135.18 203.74 136.02 209.54 130.22 210.38"/><polygon class="cls-2" points="164.35 222.41 159.32 228.32 166.87 229.2 164.35 222.41"/></g></svg>