<svg id="Layer_1" data-name="Layer 1" xmlns="http://www.w3.org/2000/svg" xmlns:xlink="http://www.w3.org/1999/xlink" viewBox="0 0 186.4 284.55"><defs><style>.cls-1,.cls-3{fill:#fff;}.cls-2,.cls-6{fill:none;stroke:#fff;stroke-miterlimit:10;}.cls-2{stroke-width:2.26px;}.cls-3{font-size:18px;letter-spacing:0.01em;}.cls-12,.cls-13,.cls-3,.cls-7,.cls-8,.cls-9{font-family:Archer-Book, Archer;}.cls-4{letter-spacing:0.02em;}.cls-5{fill:url(#linear-gradient);}.cls-6{stroke-width:1.13px;}.cls-12,.cls-13,.cls-7,.cls-8,.cls-9{font-size:13.84px;fill:#a3cbcc;}.cls-7{letter-spacing:0.02em;}.cls-10,.cls-8{letter-spacing:-0.02em;}.cls-9{letter-spacing:-0.03em;}.cls-11,.cls-12{letter-spacing:-0.02em;}.cls-13{letter-spacing:-0.06em;}</style><linearGradient id="linear-gradient" x1="93.34" y1="212.05" x2="93.34" y2="286.77" gradientUnits="userSpaceOnUse"><stop offset="0" stop-color="#fff"/><stop offset="1" stop-color="#fff" stop-opacity="0"/></linearGradient></defs><title>calendar</title><path class="cls-1" d="M179.38,54.27V277.76H7.3V54.27H179.38m6.8-6.8H.51V284.55H186.18V47.47Z"/><polyline class="cls-2" points="50.89 48.6 95.04 3.89 135.8 48.6"/><circle class="cls-1" cx="94.72" cy="5.34" r="5.34"/><path class="cls-1" d="M46.45,79.73V92.46H33.72V79.73H46.45m2-2H31.74V94.43H48.43V77.75Z"/><path class="cls-1" d="M82.35,79.73V92.46H69.62V79.73H82.35m2-2H67.64V94.43H84.33V77.75Z"/><path class="cls-1" d="M118.25,79.73V92.46H105.52V79.73h12.73m2-2H103.55V94.43h16.68V77.75Z"/><path class="cls-1" d="M154.16,79.73V92.46H141.43V79.73h12.73m2-2H139.45V94.43h16.69V77.75Z"/><path class="cls-1" d="M106.79,241.29v26.9H79.89v-26.9h26.9m1.81-1.81H78.08V270H108.6V239.48Z"/><text class="cls-3" transform="translate(84.07 258.3)">2<tspan class="cls-4" x="8.82" y="0">5</tspan></text><path class="cls-5" d="M.51,266.6c43.31-14.93,65.93,14.51,65.93,14.51H108.6s6-20.48,27.2-18.73,28.58-23.53,50.38-21.65v43.82H.51Z"/><path class="cls-6" d="M.51,47.47S16.64,79.6,61.93,54.68c23.6,11,40.76,19.55,62.27-2.68,21.2,16.55,45.84,12.27,62,5.21"/><path class="cls-1" d="M46.45,107.59v12.73H33.72V107.59H46.45m2-2H31.74v16.68H48.43V105.61Z"/><path class="cls-1" d="M82.35,107.59v12.73H69.62V107.59H82.35m2-2H67.64v16.68H84.33V105.61Z"/><rect class="cls-1" x="103.55" y="105.61" width="16.69" height="16.69"/><text class="cls-7" transform="translate(108.83 117.01)">7</text><rect class="cls-1" x="139.45" y="105.61" width="16.69" height="16.69"/><text class="cls-7" transform="translate(144.42 118.76)">8</text><rect class="cls-1" x="31.74" y="161.35" width="16.69" height="16.69"/><text class="cls-8" transform="translate(34.11 173.26)">13</text><rect class="cls-1" x="67.64" y="161.35" width="16.69" height="16.69"/><text class="cls-8" transform="translate(69.98 173.26)">14</text><rect class="cls-1" x="103.55" y="161.35" width="16.69" height="16.69"/><text class="cls-8" transform="translate(106.02 173.26)">15</text><rect class="cls-1" x="139.45" y="161.35" width="16.69" height="16.69"/><text class="cls-8" transform="translate(141.61 174.14)">16</text><rect class="cls-1" x="31.74" y="189.22" width="16.69" height="16.69"/><text class="cls-9" transform="translate(34.49 201.11)">1<tspan class="cls-10" x="5.08" y="0">7</tspan></text><rect class="cls-1" x="67.64" y="189.22" width="16.69" height="16.69"/><text class="cls-8" transform="translate(70.01 201.11)">18</text><rect class="cls-1" x="103.55" y="189.22" width="16.69" height="16.69"/><text class="cls-9" transform="translate(105.77 201.11)">1<tspan class="cls-11" x="5.08" y="0">9</tspan></text><rect class="cls-1" x="139.45" y="189.22" width="16.69" height="16.69"/><text class="cls-12" transform="translate(140.86 201.98)">20</text><rect class="cls-1" x="31.74" y="217.09" width="16.69" height="16.69"/><text class="cls-12" transform="translate(34.15 228.98)">21</text><rect class="cls-1" x="67.64" y="217.09" width="16.69" height="16.69"/><text class="cls-12" transform="translate(69.48 228.98)">22</text><rect class="cls-1" x="103.55" y="217.09" width="16.69" height="16.69"/><text class="cls-9" transform="translate(105.41 228.98)">2<tspan class="cls-10" x="6.23" y="0">3</tspan></text><rect class="cls-1" x="139.45" y="217.09" width="16.69" height="16.69"/><text class="cls-12" transform="translate(141.21 228.85)">24</text><rect class="cls-1" x="31.74" y="133.48" width="16.69" height="16.69"/><text class="cls-7" transform="translate(36.51 144.96)">9</text><rect class="cls-1" x="67.64" y="133.48" width="16.69" height="16.69"/><text class="cls-13" transform="translate(69.9 145.84)">10</text><rect class="cls-1" x="103.55" y="133.48" width="16.69" height="16.69"/><text class="cls-8" transform="translate(106.53 145.84)">11</text><rect class="cls-1" x="139.45" y="133.48" width="16.69" height="16.69"/><text class="cls-8" transform="translate(141.86 145.84)">12</text></svg>