<svg id="Layer_1" data-name="Layer 1" xmlns="http://www.w3.org/2000/svg" viewBox="0 0 137.78 192.51"><defs><style>.cls-1{fill:#a2cacc;}.cls-2{font-size:45px;letter-spacing:0.04em;}.cls-2,.cls-3,.cls-4{fill:#fff;font-family:Archer-Semibold, Archer;font-weight:700;}.cls-3{font-size:26.62px;letter-spacing:0.04em;}.cls-4{font-size:28.97px;letter-spacing:0.04em;}</style></defs><title>money</title><path class="cls-1" d="M68.78,104.74h0a40,40,0,0,1,40,40v47.77a0,0,0,0,1,0,0h-80a0,0,0,0,1,0,0V144.74A40,40,0,0,1,68.78,104.74Z"/><polygon class="cls-1" points="70.17 108.63 80.01 89.15 57.27 90.7 70.17 108.63"/><text class="cls-2" transform="translate(57.21 160.49)">£</text><path class="cls-1" d="M32.85,55.36h0A23.66,23.66,0,0,1,56.5,79v28.26a0,0,0,0,1,0,0H9.19a0,0,0,0,1,0,0V79A23.66,23.66,0,0,1,32.85,55.36Z" transform="translate(40.35 -6.06) rotate(26.9)"/><polygon class="cls-1" points="44.28 60.59 54.69 52.95 42.28 47.68 44.28 60.59"/><text class="cls-3" transform="translate(23.57 84.49) rotate(26.9)">£</text><path class="cls-1" d="M102.63,46.36h4.18A23.66,23.66,0,0,1,130.46,70v32.84a0,0,0,0,1,0,0H79a0,0,0,0,1,0,0V70A23.66,23.66,0,0,1,102.63,46.36Z" transform="translate(-17.61 35) rotate(-17.53)"/><polygon class="cls-1" points="97.81 49.79 100.08 35.92 86.42 41.29 97.81 49.79"/><text class="cls-4" transform="matrix(0.95, -0.3, 0.3, 0.95, 99.92, 84.08)">£</text><path class="cls-1" d="M61.9-1.28h0A25.75,25.75,0,0,1,87.65,24.47V55.22a0,0,0,0,1,0,0H36.15a0,0,0,0,1,0,0V24.47A25.75,25.75,0,0,1,61.9-1.28Z" transform="translate(8.25 67.96) rotate(-60.92)"/><polygon class="cls-1" points="39.83 13.67 31.95 2.04 25.71 15.32 39.83 13.67"/><text class="cls-4" transform="matrix(0.49, -0.87, 0.87, 0.49, 64.94, 37.22)">£</text></svg>
