<svg xmlns="http://www.w3.org/2000/svg" viewBox="0 0 364.98 364.64"><title>Circle-30</title><style>path{fill:#40bcac;}</style><g id="Layer_2" data-name="Layer 2"><g id="Layer_1-2" data-name="Layer 1"><path d="M7,220.28a2.46,2.46,0,1,0,2.45,2.45A2.46,2.46,0,0,0,7,220.28Z"/><path d="M357.87,144.2a2.46,2.46,0,1,0-2.45-2.45A2.46,2.46,0,0,0,357.87,144.2Z"/><path d="M193.79,359.48a2.5,2.5,0,0,0,.18,5l.32,0a2.5,2.5,0,0,0-.5-5Z"/><path d="M249.83,346.58l-.25.11a2.5,2.5,0,0,0,1.12,4.73,2.42,2.42,0,0,0,1-.2,2.5,2.5,0,0,0-1.85-4.64Z"/><path d="M283.52,30.33a2.92,2.92,0,0,0-.28-.21,2.5,2.5,0,0,0-2.74,4.18,2.48,2.48,0,0,0,3.34-.45A2.49,2.49,0,0,0,283.52,30.33Z"/><path d="M267.36,23.49a2.52,2.52,0,0,0-1.12-3.36h0a2.5,2.5,0,1,0,1.13,3.36Z"/><path d="M298.69,316.48a2.5,2.5,0,0,0,1.59,4.43,2.49,2.49,0,0,0,1.33-.38,2.54,2.54,0,0,0,.45-.36,2.5,2.5,0,0,0-3.37-3.69Z"/><path d="M299.67,45.22a2.5,2.5,0,1,0-3.89.43,2.63,2.63,0,0,0,.45.36,2.46,2.46,0,0,0,1.32.38A2.49,2.49,0,0,0,299.67,45.22Z"/><path d="M283.57,328.22a3.06,3.06,0,0,0-.29.21,2.5,2.5,0,0,0,1.6,4.42,2.55,2.55,0,0,0,1.44-.45,2.5,2.5,0,0,0-2.75-4.18Z"/><path d="M267.18,338.32l-.22.12a2.54,2.54,0,1,0,.22-.12Z"/><path d="M212.18,4.89a2.5,2.5,0,0,0-2-2.94l-.19,0a2.5,2.5,0,0,0-.69,5l.39,0A2.49,2.49,0,0,0,212.18,4.89Z"/><path d="M192.83,2.75A2.51,2.51,0,1,0,190.23,5h.11A2.5,2.5,0,0,0,192.83,2.75Z"/><path d="M212.87,357.24a2.5,2.5,0,0,0,.45,5l.25,0a2.38,2.38,0,0,0,.37-.06,2.5,2.5,0,0,0-1.07-4.88Z"/><path d="M249.58,15.49a2.5,2.5,0,0,0-1.12-3.35l-.25-.11a2.5,2.5,0,1,0,1.37,3.46Z"/><path d="M231.2,9.09A2.5,2.5,0,0,0,229.53,6l-.13,0a2.5,2.5,0,0,0-1.26,4.84,2.57,2.57,0,0,0,.67.09A2.5,2.5,0,0,0,231.2,9.09Z"/><path d="M231.71,352.9l-.12,0a2.5,2.5,0,0,0,.72,4.9,2.5,2.5,0,1,0-.6-4.93Z"/><path d="M338.73,271.46A2.5,2.5,0,0,0,336,275.6a2.5,2.5,0,0,0,3.52-.27,2.26,2.26,0,0,0,.35-.52A2.51,2.51,0,0,0,338.73,271.46Z"/><path d="M359.21,217a2.5,2.5,0,0,0-1.18,4.86,2.55,2.55,0,0,0,.61.08,2.49,2.49,0,0,0,2.42-1.9l0-.08A2.49,2.49,0,0,0,359.21,217Z"/><path d="M354.23,235.78a2.51,2.51,0,0,0-1.63,4.73,2.62,2.62,0,0,0,1,.21,2.49,2.49,0,0,0,2.28-1.48,3.52,3.52,0,0,0,.15-.42A2.51,2.51,0,0,0,354.23,235.78Z"/><path d="M347.71,254.15a2.51,2.51,0,1,0-1.73,4.68,2.46,2.46,0,0,0,.6.07,2.51,2.51,0,0,0,1.13-4.75Z"/><path d="M353.48,125.27a2.51,2.51,0,1,0-3.45-1.69,3,3,0,0,0,.15.42,2.49,2.49,0,0,0,2.28,1.48A2.45,2.45,0,0,0,353.48,125.27Z"/><path d="M362.48,177.83a2.51,2.51,0,1,0,2.5,2.51v0A2.49,2.49,0,0,0,362.48,177.83Z"/><path d="M313.46,59.05a2.49,2.49,0,0,0,.27-3.52,1,1,0,0,0-.14-.15,2.49,2.49,0,1,0-.13,3.67Z"/><path d="M361.63,197.29a2.5,2.5,0,0,0-2.49,2.28.76.76,0,0,0,0,.15,1.23,1.23,0,0,0,0,.2,2.49,2.49,0,0,0,1.94,2.66,2.64,2.64,0,0,0,.55.06,2.51,2.51,0,0,0,2.44-2,2.42,2.42,0,0,0,0-.47,2,2,0,0,0,0-.42A2.5,2.5,0,0,0,361.63,197.29Z"/><path d="M325.84,74a2.5,2.5,0,0,0,.94-3.41,2.86,2.86,0,0,0-.28-.4,2.51,2.51,0,1,0-.66,3.81Z"/><path d="M346.16,107.21a2.49,2.49,0,0,0,1.12-3.35h0a2.5,2.5,0,1,0-4.46,2.25,2.48,2.48,0,0,0,3.35,1.11Z"/><path d="M312.55,303.11l-.14.15a2.52,2.52,0,1,0,.14-.15Z"/><path d="M324.91,288.29a2.86,2.86,0,0,0-.28.4,2.5,2.5,0,0,0,.93,3.41,2.53,2.53,0,0,0,1.24.33,2.51,2.51,0,1,0-1.89-4.14Z"/><path d="M337.35,89.77a2.51,2.51,0,1,0-3.87-.79,2.9,2.9,0,0,0,.34.52,2.51,2.51,0,0,0,3.53.27Z"/><path d="M174.59,359.64a2.5,2.5,0,0,0-.36,5l.26,0a2.5,2.5,0,0,0,.1-5Z"/><path d="M5.74,147.85a2.22,2.22,0,0,0,.57.07,2.5,2.5,0,1,0-2.42-3.12l0,.08A2.5,2.5,0,0,0,5.74,147.85Z"/><path d="M29.41,92.42a2.5,2.5,0,0,0-4-3,3.64,3.64,0,0,0-.35.52,2.52,2.52,0,0,0,1.12,3.36,2.52,2.52,0,0,0,3.24-.91Z"/><path d="M18.75,257.28a2.51,2.51,0,0,0-1.12,3.35h0a2.5,2.5,0,1,0,1.11-3.36Z"/><path d="M31.08,275a2.5,2.5,0,1,0-1.89,4.14,2.45,2.45,0,0,0,1.11-.27,2.49,2.49,0,0,0,1.12-3.35A2.9,2.9,0,0,0,31.08,275Z"/><path d="M52.32,61.65l.14-.15a2.56,2.56,0,1,0-.14.15Z"/><path d="M40,76.49a2.21,2.21,0,0,0,.28-.4,2.49,2.49,0,1,0-.28.4Z"/><path d="M20.57,109.52a2.31,2.31,0,0,0,.19-.52,2.5,2.5,0,1,0-.19.52Z"/><path d="M39,290.47a2.49,2.49,0,0,0-.93,3.41,2.86,2.86,0,0,0,.28.4,2.5,2.5,0,1,0,.65-3.81Z"/><path d="M358.76,161.23a2.5,2.5,0,0,0,5-.34,2.57,2.57,0,0,0-.06-.55,2.5,2.5,0,0,0-4.92.89Z"/><path d="M14.75,240.49A2.5,2.5,0,1,0,12.47,244a2.6,2.6,0,0,0,.61-.07,2.5,2.5,0,0,0,1.82-3A3,3,0,0,0,14.75,240.49Z"/><path d="M3.37,167.18A2.5,2.5,0,1,0,1,164.06a2.64,2.64,0,0,0-.08.62A2.5,2.5,0,0,0,3.37,167.18Z"/><path d="M173.35,2.68A2.53,2.53,0,0,0,170.53.2a2.5,2.5,0,0,0,.31,5H171A2.51,2.51,0,0,0,173.35,2.68Z"/><path d="M5,184.14a2.5,2.5,0,0,0-5,0H0a2.5,2.5,0,1,0,5,0Z"/><path d="M6.21,203.25a2.5,2.5,0,0,0-5,.33,2.6,2.6,0,0,0,.06.56,2.51,2.51,0,0,0,2.44,2,2.51,2.51,0,0,0,2.48-2.85Z"/><path d="M10.7,129a2.6,2.6,0,0,0,.61.07A2.5,2.5,0,1,0,9,125.56a3.66,3.66,0,0,0-.15.43A2.5,2.5,0,0,0,10.7,129Z"/><path d="M134.91,8.64a2.53,2.53,0,1,0-1.8,3.15l.13,0A2.5,2.5,0,0,0,134.91,8.64Z"/><path d="M115.25,18a2.5,2.5,0,1,0-.25.11Z"/><path d="M51.41,305.47a2.5,2.5,0,0,0-.27,3.53l.14.15a2.5,2.5,0,1,0,.13-3.68Z"/><path d="M136.67,353.82a2.5,2.5,0,0,0-1.37,4.81l.12,0a2.62,2.62,0,0,0,.61.08,2.5,2.5,0,0,0,.64-4.92Z"/><path d="M155.48,357.75a2.5,2.5,0,0,0-.88,4.92l.19,0,.31,0a2.5,2.5,0,0,0,.38-5Z"/><path d="M154,4.73a2.5,2.5,0,0,0-2.74-2.24,2.38,2.38,0,0,0-.37.06,2.5,2.5,0,0,0,.61,4.93,2.59,2.59,0,0,0,.47-.05A2.5,2.5,0,0,0,154,4.73Z"/><path d="M118.47,347.91a2.5,2.5,0,0,0-2.1,4.53l.25.11a2.5,2.5,0,0,0,1.85-4.64Z"/><path d="M68.63,318.52a2.5,2.5,0,0,0-2.92,4.05,2.46,2.46,0,0,0,1.6.58,2.5,2.5,0,0,0,1.77-4.27A2.63,2.63,0,0,0,68.63,318.52Z"/><path d="M100.83,340a2.5,2.5,0,0,0-2.23,4.47h0a2.51,2.51,0,0,0,3.35-1.12A2.51,2.51,0,0,0,100.83,340Z"/><path d="M81.57,36.31a2.52,2.52,0,1,0-1.61.58,2.46,2.46,0,0,0,1.32-.38Z"/><path d="M66.7,45a2.51,2.51,0,0,0-3.45-.79,2.63,2.63,0,0,0-.45.36,2.5,2.5,0,1,0,3.9.43Z"/><path d="M84.36,330.25a2.5,2.5,0,0,0-3,4,3.06,3.06,0,0,0,.29.21,2.46,2.46,0,0,0,1.32.38,2.51,2.51,0,0,0,1.43-4.56Z"/><path d="M97.87,26.28a2.69,2.69,0,1,0-.22.12Z"/></g></g></svg>
