<svg xmlns="http://www.w3.org/2000/svg" viewBox="0 0 318.36 318.31">
	<defs>
		<style>.cls-1{fill:#f869a3;}</style></defs><title>Circle-10</title><g id="Layer_2" data-name="Layer 2"><g id="Layer_1-2" data-name="Layer 1"><path class="cls-1" d="M153.2,0h0a3.05,3.05,0,1,1-3.08,3A3,3,0,0,1,153.22,0Zm18.3.36a3.15,3.15,0,0,1,.75.1,3.05,3.05,0,1,1-.75-.1ZM135,1.75a3.06,3.06,0,1,1-1,.15A3.22,3.22,0,0,1,135,1.75Zm54.63,1.09a2.74,2.74,0,0,1,.56.06,3,3,0,0,1-.6,6,3.24,3.24,0,0,1-1-.16,3.05,3.05,0,0,1,1-5.94ZM117.12,5.63a3.05,3.05,0,1,1-1,.15l.24-.06A3.18,3.18,0,0,1,117.12,5.63Zm90.22,1.8a3.05,3.05,0,1,1-.78,6l-.24-.07a3.05,3.05,0,0,1,1-5.94ZM99.82,11.59a3,3,0,0,1,1.65,5.6,3.61,3.61,0,0,1-.74.36,3.05,3.05,0,1,1-.91-6Zm124.57,2.49a3.17,3.17,0,0,1,1.7.53,3.06,3.06,0,1,1-1.7-.53Zm-141,5.45a3.06,3.06,0,1,1-1.71.51,3.61,3.61,0,0,1,.74-.36A3.27,3.27,0,0,1,83.35,19.53Zm157.2,3.16a3.17,3.17,0,0,1,1.43.37,3.05,3.05,0,0,1-2.44,5.57,2.92,2.92,0,0,1-.73-.36A3.06,3.06,0,0,1,238,24,3,3,0,0,1,240.55,22.69ZM67.92,29.36A3.06,3.06,0,1,1,66,30,3,3,0,0,1,67.92,29.36Zm187.66,3.77a3.09,3.09,0,0,1,1.69.53,3,3,0,0,1,.47.39,3.05,3.05,0,1,1-2.16-.92ZM53.73,40.92a3,3,0,0,1,2.15.91,3.05,3.05,0,1,1-4.32,0h0A3,3,0,0,1,53.73,40.92ZM269.3,45.25a3,3,0,0,1,2.14.91h0a3.05,3.05,0,1,1-4.32,0A3.11,3.11,0,0,1,269.3,45.25ZM41,54.05a3.05,3.05,0,0,1,2.2,5.13,3.05,3.05,0,0,1-4.76-3.79,3.27,3.27,0,0,1,.86-.84A2.93,2.93,0,0,1,41,54.05ZM281.5,58.88a3.05,3.05,0,0,1,2.12,5.23,3,3,0,0,1-4.31,0,3,3,0,0,1-.38-.48,3,3,0,0,1,.88-4.22A3.08,3.08,0,0,1,281.5,58.88ZM29.86,68.57a3.06,3.06,0,1,1-2.56,1.35h0A3,3,0,0,1,29.86,68.57ZM292,73.84a3,3,0,0,1,2.53,1.38,3.14,3.14,0,0,1,.35.74A3.07,3.07,0,1,1,292,73.84ZM20.49,84.3a3.28,3.28,0,0,1,1,.16,3.07,3.07,0,0,1,1.9,3.88,3.13,3.13,0,0,1-.37.73,3.05,3.05,0,1,1-2.5-4.77Zm280.27,5.61a3.06,3.06,0,1,1-2.58,4.74,3.57,3.57,0,0,1-.35-.74,3.06,3.06,0,0,1,2-3.85A3.27,3.27,0,0,1,300.76,89.91ZM13.05,101a2.94,2.94,0,0,1,1.36.34,3.06,3.06,0,1,1-4.28,1.74,2.52,2.52,0,0,1,.17-.41A3,3,0,0,1,13.05,101Zm294.48,5.89A3.06,3.06,0,0,1,310.4,109c0,.08.05.17.07.24a3.05,3.05,0,1,1-3.91-2.2A3.27,3.27,0,0,1,307.53,106.91ZM7.61,118.51a3,3,0,0,1,3,3.07,3,3,0,0,1-.17,1,3.05,3.05,0,1,1-2.86-4Zm304.63,6.08a3.06,3.06,0,0,1,2.88,2.11,3.28,3.28,0,0,1,.15,1,3,3,0,1,1-4-2.94A3.2,3.2,0,0,1,312.24,124.59ZM4.28,136.5a2.69,2.69,0,0,1,.74.1,3.05,3.05,0,0,1-.79,6h0a3,3,0,0,1-3-3.07,3.29,3.29,0,0,1,.09-.76A3.05,3.05,0,0,1,4.28,136.5Zm310.57,6.2a3.06,3.06,0,1,1-3,3.78,3.74,3.74,0,0,1-.08-.75A3,3,0,0,1,314.85,142.7ZM3.08,154.76a3.05,3.05,0,1,1-3.08,3H0A3,3,0,0,1,3.08,154.76ZM315.34,161a3,3,0,0,1,3,3.07h0a3.05,3.05,0,1,1-3-3.08Zm-312,4.77a3.06,3.06,0,0,1,2.94,2.33,3.82,3.82,0,0,1,.08.75,3,3,0,1,1-3.77-3A2.74,2.74,0,0,1,3.37,165.77Zm310.34,13.45a3,3,0,0,1,3,3.07,2.71,2.71,0,0,1-.1.75,3,3,0,1,1-2.92-3.82ZM5.55,183.93a3.06,3.06,0,1,1-2.93,4,3.28,3.28,0,0,1-.15-1A3.06,3.06,0,0,1,5.55,183.93ZM310,197.13a2.93,2.93,0,0,1,1,.16,3.06,3.06,0,1,1-3.95,2.13,2.09,2.09,0,0,1,.08-.23A3,3,0,0,1,310,197.13ZM9.85,201.72a3.05,3.05,0,1,1-2.92,4,1.68,1.68,0,0,1-.07-.24,3,3,0,0,1,2.25-3.68A2.71,2.71,0,0,1,9.85,201.72Zm294.27,12.76a3.22,3.22,0,0,1,1,.16,3,3,0,0,1,1.9,3.88c-.05.13-.11.28-.17.41a3.05,3.05,0,1,1-2.69-4.45ZM16.21,218.87a3.06,3.06,0,0,1,2.53,1.38,3.16,3.16,0,0,1,.36.74,3.05,3.05,0,1,1-2.89-2.12ZM296.28,231a3.12,3.12,0,0,1,1.69.53,3.06,3.06,0,1,1-4.61,1.54,3.34,3.34,0,0,1,.37-.73A3,3,0,0,1,296.28,231ZM24.55,235.15A3.05,3.05,0,1,1,22,239.88a2.79,2.79,0,0,1-.35-.74,3,3,0,0,1,2-3.84A3.2,3.2,0,0,1,24.55,235.15Zm262,11.38a3,3,0,0,1,1.68.53,3,3,0,0,1,.81,4.23,2.5,2.5,0,0,1-.39.47,3.05,3.05,0,0,1-4.53-4.07A3.07,3.07,0,0,1,286.56,246.53ZM34.74,250.35a3,3,0,0,1,2.15.91,3,3,0,0,1,.38.48,3.06,3.06,0,1,1-2.53-1.39Zm240.35,10.44a3.12,3.12,0,0,1,1.69.53,3.06,3.06,0,0,1,.81,4.24,3.27,3.27,0,0,1-.86.84,3.05,3.05,0,1,1-1.64-5.61ZM46.63,264.26a3,3,0,0,1,2.14.91,3,3,0,1,1-4.34,4.28h0a3,3,0,0,1,2.2-5.19ZM262,273.63a3,3,0,0,1,2.53,1.37,3.06,3.06,0,1,1-5.09,0,3.2,3.2,0,0,1,.87-.85A3,3,0,0,1,262,273.63Zm-202,3.06a3.05,3.05,0,1,1-1.73,5.58,3.47,3.47,0,0,1-.47-.39,3.06,3.06,0,0,1,2.2-5.19Zm187.54,8.16a3.06,3.06,0,1,1-2.17.88,3,3,0,0,1,.48-.38A3.08,3.08,0,0,1,247.59,284.85ZM74.84,287.48a3.22,3.22,0,0,1,1,.16,3.13,3.13,0,0,1,.73.37,3,3,0,1,1-1.69-.53Zm157.1,6.83a3,3,0,0,1,1.65,5.6,3.16,3.16,0,0,1-.74.36,3.05,3.05,0,1,1-.91-6ZM90.78,296.47a3.05,3.05,0,1,1-1,5.94A3.41,3.41,0,0,1,89,302a3,3,0,0,1,1.74-5.57Zm124.51,5.4a3.07,3.07,0,1,1-1.38.32,2.37,2.37,0,0,1,.41-.17A3.32,3.32,0,0,1,215.29,301.87Zm-107.62,1.65a3.2,3.2,0,0,1,.75.09l.23.07a3.08,3.08,0,1,1-1-.16Zm90.18,3.9a3,3,0,0,1,.92,5.95l-.24.07a3.05,3.05,0,0,1-1.55-5.9A3.31,3.31,0,0,1,197.85,307.42Zm-72.56,1.11a3.18,3.18,0,0,1,1,.16,3.07,3.07,0,1,1-1-.16Zm54.6,2.35a3.05,3.05,0,0,1,.27,6.09,3.06,3.06,0,0,1-1-6A3.92,3.92,0,0,1,179.89,310.88Zm-36.54.55.34,0a3.05,3.05,0,0,1-.38,6.08,3.15,3.15,0,0,1-.75-.1,3,3,0,0,1,.79-6Zm18.28.78a3.05,3.05,0,1,1,0,6.1h0a3.05,3.05,0,0,1,0-6.1Z"/></g></g></svg>
