<svg id="Layer_1" data-name="Layer 1" xmlns="http://www.w3.org/2000/svg" viewBox="0 0 227.01 65.18"><defs><style>.cls-1{fill:#fff;}</style></defs><title>1</title><path class="cls-1" d="M120.09,15.73A29.54,29.54,0,0,0,90.55,45.27h59.08A29.55,29.55,0,0,0,120.09,15.73Z"/><path class="cls-1" d="M207.11,25.37a19.9,19.9,0,0,0-19.91,19.9H227A19.9,19.9,0,0,0,207.11,25.37Z"/><path class="cls-1" d="M168.54,65.18c11,0,20.91-8.91,20.91-19.91H149.63c0,11,7.91,19.91,18.91,19.91"/><path class="cls-1" d="M45.27,0A45.27,45.27,0,0,0,0,45.27H90.55A45.27,45.27,0,0,0,45.27,0Z"/></svg>