<svg id="Layer_1" data-name="Layer 1" xmlns="http://www.w3.org/2000/svg" xmlns:xlink="http://www.w3.org/1999/xlink" viewBox="0 0 381.99 812.34"><defs><style>.cls-1{fill:#40bead;}.cls-2{opacity:0.57;}.cls-3{fill:url(#linear-gradient);}.cls-4{fill:url(#linear-gradient-2);}.cls-5{fill:url(#linear-gradient-3);}.cls-6{fill:url(#linear-gradient-4);}.cls-7{fill:url(#linear-gradient-5);}.cls-8{fill:url(#linear-gradient-7);}.cls-10,.cls-14,.cls-16,.cls-17,.cls-18,.cls-20,.cls-21,.cls-22,.cls-9{fill:none;}.cls-20,.cls-21,.cls-9{stroke:#474747;}.cls-16,.cls-17,.cls-20,.cls-21,.cls-22,.cls-9{stroke-miterlimit:10;}.cls-9{stroke-width:4.2px;}.cls-10,.cls-22{stroke:#fff;}.cls-10,.cls-14,.cls-18{stroke-linejoin:round;}.cls-10{stroke-width:8.49px;}.cls-11{fill:#ee2375;}.cls-12{fill:#fff;}.cls-13{fill:#f969a4;}.cls-14,.cls-18{stroke:#f969a4;}.cls-14{stroke-width:5px;}.cls-15{fill:#ffc5df;}.cls-16,.cls-17{stroke:#ffc5df;}.cls-16{stroke-width:2px;}.cls-17{stroke-width:1.46px;}.cls-18{stroke-linecap:round;stroke-width:10.52px;}.cls-19{fill:#474747;}.cls-20{stroke-width:0.5px;}.cls-21{stroke-width:0.25px;}.cls-22{stroke-width:2.37px;}</style><linearGradient id="linear-gradient" x1="171.75" y1="616.07" x2="171.75" y2="-18.22" gradientUnits="userSpaceOnUse"><stop offset="0" stop-color="#fff"/><stop offset="1" stop-color="#fff" stop-opacity="0"/></linearGradient><linearGradient id="linear-gradient-2" x1="178.65" y1="616.07" x2="178.65" y2="-18.22" xlink:href="#linear-gradient"/><linearGradient id="linear-gradient-3" x1="187.4" y1="616.07" x2="187.4" y2="-18.22" xlink:href="#linear-gradient"/><linearGradient id="linear-gradient-4" x1="213.06" y1="616.07" x2="213.06" y2="-18.22" xlink:href="#linear-gradient"/><linearGradient id="linear-gradient-5" x1="155.71" y1="616.07" x2="155.71" y2="-18.22" xlink:href="#linear-gradient"/><linearGradient id="linear-gradient-7" x1="132.58" y1="616.07" x2="132.58" y2="-18.22" xlink:href="#linear-gradient"/></defs><title>coffee</title><rect class="cls-1" x="9.99" y="695.9" width="310.46" height="35.71"/><g class="cls-2"><path class="cls-3" d="M164.29,475.49v29.82a14.91,14.91,0,1,0,0-29.82Z"/><path class="cls-4" d="M165.29,399.57V453a26.73,26.73,0,1,0,0-53.46Z"/><path class="cls-5" d="M165.29,289.06v88.47a44.24,44.24,0,0,0,0-88.47Z"/><path class="cls-6" d="M165.29,0V191.1a95.55,95.55,0,0,0,0-191.1Z"/><path class="cls-7" d="M164.87,486.08V449.44a18.32,18.32,0,0,0,0,36.64Z"/><path class="cls-7" d="M164.87,408.82V372.18a18.32,18.32,0,0,0,0,36.64Z"/><path class="cls-8" d="M164.87,298.32V169.18a64.57,64.57,0,0,0,0,129.14Z"/></g><rect class="cls-9" x="69.44" y="738.82" width="310.46" height="71.43"/><line class="cls-9" x1="69.44" y1="774.53" x2="379.89" y2="768.98"/><path class="cls-10" d="M230.17,527.62l1.76-6.87a12.46,12.46,0,0,0-9-15.15h0a12.45,12.45,0,0,0-15.16,9l-17.08,66.76"/><polygon class="cls-11" points="190.9 563.46 189.01 570.83 199.35 564.71 201.24 557.34 190.9 563.46"/><polygon class="cls-11" points="197.32 572.66 186.98 578.79 186.6 580.29 192.46 581.79 195.43 580.03 197.32 572.66"/><polygon class="cls-11" points="209.07 526.69 198.74 532.81 196.85 540.18 207.19 534.06 209.07 526.69"/><polygon class="cls-11" points="194.82 548.14 192.94 555.51 203.27 549.38 205.16 542.01 194.82 548.14"/><path class="cls-11" d="M205.57,509l13.56-8A16.74,16.74,0,0,0,205.57,509Z"/><polygon class="cls-11" points="229.66 527.49 234.29 528.67 235.47 524.04 229.66 527.49"/><path class="cls-11" d="M202.66,517.49l-1.89,7.37,10.34-6.13.79-3.1a8.21,8.21,0,0,1,12.52-4.79l7.67-4.54a16.72,16.72,0,0,0-4.63-3.51Z"/><path class="cls-11" d="M227.8,515.59a8.17,8.17,0,0,1,0,4.11l-.64,2.52,9.36-5.55a16.51,16.51,0,0,0-1.29-5.49Z"/><path class="cls-12" d="M206.41,578.93l-86.75.06a10.59,10.59,0,0,1-10.59-10.58h0a10.59,10.59,0,0,1,10.58-10.6l86.74-.06A10.6,10.6,0,0,1,217,568.33h0A10.59,10.59,0,0,1,206.41,578.93Z"/><path class="cls-12" d="M201.72,558.11l-77.37,0a9.16,9.16,0,0,1-9.17-9.15h0a9.17,9.17,0,0,1,9.15-9.17l77.38,0a9.14,9.14,0,0,1,9.16,9.15h0A9.15,9.15,0,0,1,201.72,558.11Z"/><path class="cls-12" d="M190.71,541.15l-55.35,0a7.64,7.64,0,0,1-7.64-7.62h0a7.63,7.63,0,0,1,7.63-7.63l55.35,0a7.61,7.61,0,0,1,7.63,7.62h0A7.63,7.63,0,0,1,190.71,541.15Z"/><path class="cls-12" d="M146,530.34c-18.3-13.79,5-29.47,5-29.47s2.06,25,36.24,25.8C213.25,527.26,146,530.34,146,530.34Z"/><path class="cls-13" d="M111.63,570.18V683.55a11.94,11.94,0,0,0,11.94,12h81.12a12,12,0,0,0,11.95-12V570.18"/><path class="cls-14" d="M103.2,674.55a39.84,39.84,0,0,1,0-79.68"/><rect class="cls-15" x="169.6" y="520.39" width="16.5" height="19.9" rx="2.92" ry="2.92" transform="translate(511.79 81.6) rotate(55.19)"/><rect class="cls-15" x="124.13" y="534.27" width="11.48" height="13.85" rx="2.03" ry="2.03" transform="translate(-269.79 153.86) rotate(-32.4)"/><rect class="cls-16" x="146.13" y="536.71" width="16.5" height="19.9" rx="2.92" ry="2.92" transform="translate(668.56 788.07) rotate(130.92)"/><rect class="cls-17" x="184.8" y="541.74" width="12.01" height="14.48" rx="2.13" ry="2.13" transform="translate(120.15 -27.9) rotate(12.18)"/><line class="cls-18" x1="103.2" y1="574.55" x2="225.06" y2="574.55"/><path class="cls-19" d="M115.18,569.18v3.26a3.11,3.11,0,0,0,3.11,3.11h17.3A3.42,3.42,0,0,1,139,579v52.55a4.19,4.19,0,0,0,4.19,4.19h0a4.18,4.18,0,0,0,4.19-4.19V579a3.42,3.42,0,0,1,3.42-3.42H158a2.08,2.08,0,0,1,2.08,2.08v1.93a8.89,8.89,0,0,0,8.9,8.9h0a8.9,8.9,0,0,0,8.91-8.9v-1.93a2.08,2.08,0,0,1,2.07-2.08h27.84a3.11,3.11,0,0,0,3.11-3.11v-3.26"/><circle class="cls-20" cx="148.52" cy="514.91" r="0.69"/><circle class="cls-20" cx="178.89" cy="547.35" r="0.69"/><circle class="cls-21" cx="158.23" cy="523.19" r="0.69"/><circle class="cls-21" cx="146.02" cy="556.3" r="0.69"/><circle class="cls-21" cx="190.8" cy="536.97" r="0.69"/><circle class="cls-21" cx="121.33" cy="548.98" r="0.69"/><circle class="cls-19" cx="142.77" cy="530.34" r="0.69"/><circle class="cls-19" cx="171.65" cy="544.84" r="0.69"/><circle class="cls-19" cx="145.33" cy="516.3" r="0.69"/><circle class="cls-19" cx="193.22" cy="533.54" r="0.69"/><circle class="cls-19" cx="161.28" cy="531.04" r="1.39"/><circle class="cls-19" cx="176.46" cy="551.58" r="1.39"/><circle class="cls-19" cx="139" cy="552.97" r="1.39"/><polygon class="cls-22" points="9.86 780.48 1.46 750.12 43.82 738.39 58.29 750.73 52.22 768.75 9.86 780.48"/></svg>