<svg xmlns="http://www.w3.org/2000/svg" viewBox="0 0 472.37 100.26"><defs><style>.cls-1{fill:#eb1e25;}</style></defs><title>CompTIA</title><g id="Layer_2" data-name="Layer 2"><g id="Layer_2-2" data-name="Layer 2"><path class="cls-1" d="M446.9,47.15l-6.12-13.26-12.45-27v0l-.83-1.8v0a9.42,9.42,0,0,0-16.18.1l-.75,1.63v0h0v0L398.05,33.89l-6.13,13.3-.67,1.45L376.68,80.22h.06a20.16,20.16,0,0,0,18-11l.6-1.31,3.73-8.09h40.68l3.41,7.4v0l1.17,2.54,0,0h0A20.11,20.11,0,0,0,462,80.22h.15Zm-42.67,1.49.31-.68L417.88,19l1.53-3.32L421,19l4.84,10.49L434.29,48l.31.68Z"/><path class="cls-1" d="M463.34,75.5a6.21,6.21,0,0,1-2.1-1.22,5.84,5.84,0,0,1-1.43-1.89,5,5,0,0,1-.53-2.26,5,5,0,0,1,.53-2.28A5.56,5.56,0,0,1,461.26,66a7.07,7.07,0,0,1,2.09-1.21,7.56,7.56,0,0,1,2.49-.41,7.17,7.17,0,0,1,2.52.43A6.79,6.79,0,0,1,470.44,66a6.21,6.21,0,0,1,1.42,1.85,5.38,5.38,0,0,1-.38,5.25,6.31,6.31,0,0,1-2.4,2.07,7.21,7.21,0,0,1-3.24.76A7,7,0,0,1,463.34,75.5Zm-2-2.91a4.68,4.68,0,0,0,1.91,1.75,5.64,5.64,0,0,0,2.64.62,5.59,5.59,0,0,0,2.64-.62,4.84,4.84,0,0,0,1.91-1.76,4.66,4.66,0,0,0,.68-2.45,4.76,4.76,0,0,0-.39-1.88,5,5,0,0,0-1.11-1.55,4.82,4.82,0,0,0-1.68-1,5.64,5.64,0,0,0-2.05-.37,6.06,6.06,0,0,0-2,.35,5.53,5.53,0,0,0-1.7,1A4.46,4.46,0,0,0,461,68.23a4.31,4.31,0,0,0-.29.91,4.48,4.48,0,0,0-.11,1A4.63,4.63,0,0,0,461.29,72.59Zm3.19.87h-1.13V66.81h2.87a3.5,3.5,0,0,1,1.94.44,1.66,1.66,0,0,1,.65,1.44,1.62,1.62,0,0,1-.52,1.3,2.7,2.7,0,0,1-1.38.55l2.1,2.92h-1.28l-2-2.89h-1.29Zm1.36-3.73a3.53,3.53,0,0,0,1.33-.21.85.85,0,0,0,.48-.89c0-.65-.55-1-1.64-1h-1.53v2.08Z"/><path class="cls-1" d="M374,12.28V79.8A11.77,11.77,0,0,1,362.18,68V.51A11.77,11.77,0,0,1,374,12.28Z"/><path class="cls-1" d="M359.35.6a11.68,11.68,0,0,1-11.67,11.67H323.15V79.71A11.76,11.76,0,0,1,311.38,68V12.27H286.85A11.68,11.68,0,0,1,275.18.6Z"/><path class="cls-1" d="M295.69,51.25c0,15.85-13.92,28.7-31.11,28.7a33.33,33.33,0,0,1-10.12-1.56,12.15,12.15,0,0,1-4.81-16.49,20.47,20.47,0,0,0,15,6.28c10.7,0,19.39-7.62,19.39-17s-8.69-17-19.39-17-19.39,7.62-19.39,17V88.49a11.79,11.79,0,0,1-11.82,11.77v-49a25.59,25.59,0,0,1,.16-2.92c1.59-14.48,14.84-25.77,30.94-25.77C281.77,22.56,295.69,35.4,295.69,51.25Z"/><path class="cls-1" d="M228.22,45.18V80.05a11.79,11.79,0,0,1-11.83-11.76V45.18a10.95,10.95,0,1,0-21.89,0V49.9h.05V80.05a11.79,11.79,0,0,1-11.82-11.76V43.62c0,.23,0,.47,0,.71a10.95,10.95,0,0,0-21.86.85V49.9h0V68.29a11.79,11.79,0,0,1-11.82,11.76V45.18a22.71,22.71,0,0,1,39.51-15.29,22.77,22.77,0,0,1,39.65,15.29Z"/><path class="cls-1" d="M114.16,22.56c-17.7,0-32,12.84-32,28.67s14.33,28.68,32,28.68,32-12.84,32-28.68S131.85,22.56,114.16,22.56Zm.29,45.73c-11.19,0-20.26-7.65-20.26-17.08s9.07-17.08,20.26-17.08,20.26,7.64,20.26,17.08S125.64,68.29,114.45,68.29Z"/><path class="cls-1" d="M81.73,61.15c-7.78,11.4-21.7,19-37.57,19C19.78,80.14,0,62.2,0,40.07S19.78,0,44.16,0c18,0,33.4,9.71,40.31,23.66a11.79,11.79,0,0,1-15.09-1.33l-.51-.53A34.19,34.19,0,0,0,44.09,11.62c-17.93,0-32.47,12.88-32.47,28.77S26.16,69.17,44.09,69.17a34.56,34.56,0,0,0,23.16-8.6l0,0A11.78,11.78,0,0,1,81.73,61.15Z"/></g></g></svg>