<svg xmlns="http://www.w3.org/2000/svg" xmlns:xlink="http://www.w3.org/1999/xlink" viewBox="0 0 600 750"><defs><style>.cls-1{isolation:isolate;}.cls-2{fill:#a2cacc;}.cls-3,.cls-8{fill:#fff;}.cls-3{opacity:0.23;}.cls-4{fill:url(#linear-gradient);}.cls-5{fill:#fcc74a;}.cls-6{fill:url(#linear-gradient-2);}.cls-12,.cls-7{opacity:0.29;}.cls-7{fill:url(#linear-gradient-3);}.cls-9{fill:#40bead;}.cls-10{opacity:0.6;fill:url(#linear-gradient-4);}.cls-11{opacity:0.19;}.cls-12{fill:url(#linear-gradient-5);}.cls-13,.cls-17,.cls-19{fill:#474747;}.cls-14,.cls-17{mix-blend-mode:multiply;}.cls-14{fill:url(#linear-gradient-6);}.cls-15{fill:url(#linear-gradient-7);}.cls-16{fill:#f0468a;}.cls-17,.cls-19{opacity:0.2;}.cls-18{opacity:0.45;fill:url(#linear-gradient-8);}</style><linearGradient id="linear-gradient" x1="286.22" y1="693.88" x2="286.22" y2="495.92" gradientUnits="userSpaceOnUse"><stop offset="0" stop-color="#474747"/><stop offset="1" stop-color="#474747" stop-opacity="0"/></linearGradient><linearGradient id="linear-gradient-2" x1="351.37" y1="489.13" x2="440.97" y2="599.26" xlink:href="#linear-gradient"/><linearGradient id="linear-gradient-3" x1="412.09" y1="476.56" x2="443.26" y2="642.77" gradientUnits="userSpaceOnUse"><stop offset="0" stop-color="#fff"/><stop offset="1" stop-color="#fff" stop-opacity="0"/></linearGradient><linearGradient id="linear-gradient-4" x1="505.18" y1="514.2" x2="515.57" y2="608.99" gradientUnits="userSpaceOnUse"><stop offset="0" stop-color="#f969a4"/><stop offset="1" stop-color="#f969a4" stop-opacity="0"/></linearGradient><linearGradient id="linear-gradient-5" x1="401.97" y1="583.65" x2="610.38" y2="493.08" xlink:href="#linear-gradient-3"/><linearGradient id="linear-gradient-6" x1="457.36" y1="589.88" x2="211.93" y2="253.55" xlink:href="#linear-gradient"/><linearGradient id="linear-gradient-7" x1="353.64" y1="217.25" x2="210.89" y2="147.43" gradientUnits="userSpaceOnUse"><stop offset="0" stop-color="#a3cbcc"/><stop offset="1" stop-color="#a3cbcc" stop-opacity="0"/></linearGradient><linearGradient id="linear-gradient-8" x1="2063.85" y1="2671.98" x2="2113.36" y2="2726" gradientTransform="translate(2102.62 -2147.29) rotate(72.53)" xlink:href="#linear-gradient"/></defs><title>Crafts</title><g class="cls-1"><g id="Layer_2" data-name="Layer 2"><g id="Layer_1-2" data-name="Layer 1"><rect class="cls-2" width="600" height="750"/><path class="cls-3" d="M241.28,260.53H108.1V127.35H241.28Zm-131.88-1.3H240V128.65H109.4Z"/><path class="cls-3" d="M38.88,437.88l6.37-202.47,98.59-7.88,24.09,204.92Zm7.64-201.26L40.23,436.53l126.24-5.32L142.69,228.92Z"/><path class="cls-3" d="M525.91,384.72l-174.86-8.46L345.67,291l.53,0,176.89-17.78ZM352.1,375.19l172.66,8.35L522,274.37,346.85,292Z"/><path class="cls-4" d="M296.59,578.17V493.1H277.12v85.07H225.94a31.72,31.72,0,0,0-31.72,31.72h184a31.72,31.72,0,0,0-31.72-31.72Z"/><polygon class="cls-5" points="407.41 613 407.41 571.6 453.9 560.16 453.9 613 407.41 613"/><polygon class="cls-6" points="407.41 613 407.41 571.6 453.9 560.16 453.9 613 407.41 613"/><path class="cls-7" d="M446.06,531v-8.42H415.25V531h0a7.84,7.84,0,0,0-7.84,7.85V613H453.9V538.85a7.84,7.84,0,0,0-7.84-7.85Z"/><rect class="cls-8" x="413.16" y="515.71" width="34.94" height="9.5"/><circle class="cls-9" cx="420.28" cy="518.42" r="0.91"/><circle class="cls-9" cx="427.25" cy="518.42" r="0.91"/><circle class="cls-9" cx="434.23" cy="518.42" r="0.91"/><circle class="cls-9" cx="441.21" cy="518.42" r="0.91"/><circle class="cls-9" cx="420.28" cy="522.93" r="0.91"/><circle class="cls-9" cx="427.25" cy="522.93" r="0.91"/><circle class="cls-9" cx="434.23" cy="522.93" r="0.91"/><circle class="cls-9" cx="441.21" cy="522.93" r="0.91"/><circle class="cls-9" cx="423.66" cy="520.89" r="0.91"/><circle class="cls-9" cx="430.64" cy="520.89" r="0.91"/><circle class="cls-9" cx="437.61" cy="520.89" r="0.91"/><path class="cls-10" d="M576.53,551a6,6,0,0,0-11.95.23,5.89,5.89,0,0,0,.09,1c-1.09.16-2.22.32-3.36.5,0-.15,0-.3,0-.46a11.16,11.16,0,0,0-22.26-1,12.36,12.36,0,0,0-19.85,5,79.1,79.1,0,0,1-10.81-2.71,6.9,6.9,0,0,0-10.92-4.07l-1.27-.51a16.79,16.79,0,1,0-30.8-13.39,10.61,10.61,0,0,0-18.12,1.08c-3.43-.13-7-.12-10.87.05a73.45,73.45,0,0,0,42,76.29H540a73.46,73.46,0,0,0,42.53-62.32Q579.72,550.74,576.53,551Z"/><g class="cls-11"><path class="cls-8" d="M564.2,497.63,460.56,601.28A73.25,73.25,0,0,0,478.47,613H480l96.4-96.4A73.17,73.17,0,0,0,564.2,497.63Z"/><path class="cls-8" d="M451.78,592,555,488.86a73,73,0,0,0-9.38-6.37L445.41,582.64A74.47,74.47,0,0,0,451.78,592Z"/></g><path class="cls-12" d="M540,613a73.45,73.45,0,0,0,.28-133.25v-12.3l-62.1-6.26v18.56A73.45,73.45,0,0,0,478.47,613Z"/><path class="cls-8" d="M549,475.34H468.13V452.57H549ZM469.43,474h78.28V453.87H469.43Z"/><path class="cls-13" d="M480.28,311.55l-98-53.36a69.66,69.66,0,0,1-35.06-46.87l-9.06-42.82H233.76l-9.06,42.82a69.66,69.66,0,0,1-35.06,46.87l-98,53.36a6.4,6.4,0,0,0-2.51,8.79c11.51,20.2,50.91,92.25,78.9,179a55.49,55.49,0,0,0,52.78,38.54H351.11a55.51,55.51,0,0,0,52.79-38.54c28-86.77,67.38-158.82,78.89-179A6.4,6.4,0,0,0,480.28,311.55Z"/><path class="cls-14" d="M480.28,311.55l-98-53.36a69.66,69.66,0,0,1-35.06-46.87l-9.06-42.82H233.76l-9.06,42.82a69.66,69.66,0,0,1-35.06,46.87l-98,53.36a6.4,6.4,0,0,0-2.51,8.79c11.51,20.2,50.91,92.25,78.9,179a55.49,55.49,0,0,0,52.78,38.54H351.11a55.51,55.51,0,0,0,52.79-38.54c28-86.77,67.38-158.82,78.89-179A6.4,6.4,0,0,0,480.28,311.55Z"/><path class="cls-5" d="M91,577.26a24,24,0,1,1-24,24,24,24,0,0,1,24-24m0-3a27,27,0,1,0,27,27,27,27,0,0,0-27-27Z"/><path class="cls-5" d="M91,589.29a12,12,0,1,1-12,12,12,12,0,0,1,12-12m0-1.95A13.94,13.94,0,1,0,105,601.28,13.94,13.94,0,0,0,91,587.34Z"/><path class="cls-13" d="M338.12,167.85a52.18,52.18,0,1,1-104.36,0"/><path class="cls-15" d="M338.12,167.85a52.18,52.18,0,1,1-104.36,0"/><path class="cls-8" d="M358.39,232.41h-3c.21.36.43.72.65,1.08h2.32A20.33,20.33,0,0,1,378.7,253.8v78.52a92.76,92.76,0,1,1-185.51,0V253.8a20.34,20.34,0,0,1,20.32-20.31h2.32l.65-1.08h-3a21.42,21.42,0,0,0-21.4,21.39v78.52a93.84,93.84,0,1,0,187.67,0V253.8A21.41,21.41,0,0,0,358.39,232.41Z"/><circle class="cls-5" cx="379.2" cy="277.7" r="6.67"/><path class="cls-16" d="M378.27,353.08a6.92,6.92,0,1,1,6.92-6.92A6.92,6.92,0,0,1,378.27,353.08Zm0-11.48a4.57,4.57,0,1,0,4.56,4.56A4.57,4.57,0,0,0,378.27,341.6Z"/><circle class="cls-5" cx="379.2" cy="308.27" r="2.12"/><circle class="cls-8" cx="379.2" cy="263.77" r="2.12"/><circle class="cls-8" cx="369.62" cy="373.91" r="2.12"/><rect class="cls-9" x="376.16" y="325.9" width="6.08" height="6.08" transform="translate(343.66 -171.79) rotate(45)"/><rect class="cls-9" x="360.98" y="379.85" width="6.08" height="6.08" transform="translate(673.5 -45.29) rotate(79.41)"/><rect class="cls-9" x="375.14" y="290.42" width="8.12" height="8.12" transform="translate(855.56 234.57) rotate(135)"/><path class="cls-5" d="M374.53,320.1a1.57,1.57,0,0,1-.28-3.11l10.4-2a1.57,1.57,0,0,1,.58,3.09l-10.4,2Z"/><circle class="cls-5" cx="318.21" cy="419.94" r="8.03"/><circle class="cls-16" cx="336" cy="411.4" r="5.68"/><circle class="cls-5" cx="349.26" cy="400.78" r="4.01"/><circle class="cls-9" cx="374.24" cy="362.63" r="3.31"/><path class="cls-16" d="M361.45,396.78a1.22,1.22,0,0,1-.78-.29l-8.33-7.33a1.17,1.17,0,0,1-.11-1.66,1.19,1.19,0,0,1,1.67-.11l8.33,7.33a1.17,1.17,0,0,1,.11,1.66A1.21,1.21,0,0,1,361.45,396.78Z"/><circle class="cls-5" cx="192.57" cy="277.7" r="6.67"/><circle class="cls-16" cx="193.5" cy="346.16" r="5.74"/><circle class="cls-16" cx="192.57" cy="308.27" r="2.12"/><circle class="cls-8" cx="192.57" cy="263.77" r="2.12"/><circle class="cls-8" cx="202.15" cy="373.91" r="2.12"/><rect class="cls-9" x="189.53" y="325.9" width="6.08" height="6.08" transform="translate(561.33 425.37) rotate(135)"/><rect class="cls-9" x="204.71" y="379.85" width="6.08" height="6.08" transform="translate(622.3 249.05) rotate(100.59)"/><rect class="cls-9" x="188.51" y="290.42" width="8.12" height="8.12" transform="translate(264.63 -49.92) rotate(45)"/><path class="cls-5" d="M197.23,320.1l-.29,0-10.41-2a1.57,1.57,0,0,1,.59-3.09l10.4,2a1.57,1.57,0,0,1-.29,3.11Z"/><path class="cls-5" d="M253.55,414.66a5.28,5.28,0,1,1-5.27,5.28,5.29,5.29,0,0,1,5.27-5.28m0-2.75a8,8,0,1,0,8,8,8,8,0,0,0-8-8Z"/><circle class="cls-16" cx="235.76" cy="411.4" r="5.68"/><circle class="cls-9" cx="222.51" cy="400.78" r="4.01"/><circle class="cls-5" cx="197.52" cy="362.63" r="3.31"/><path class="cls-5" d="M210.32,396.78a1.19,1.19,0,0,1-.89-.4,1.17,1.17,0,0,1,.11-1.66l8.33-7.33a1.18,1.18,0,0,1,1.56,1.77l-8.34,7.33A1.19,1.19,0,0,1,210.32,396.78Z"/><rect class="cls-8" x="310.42" y="439.68" width="0.78" height="30.77"/><rect class="cls-8" x="259.91" y="439.68" width="0.78" height="23.18"/><rect class="cls-8" x="284.84" y="464.61" width="0.78" height="23.18"/><path class="cls-9" d="M285,416.36l23.32,23.32L285,463l-23.31-23.32L285,416.36m0-4.44-27.76,27.76L285,467.44l27.76-27.76L285,411.92Z"/><path class="cls-8" d="M285,465l-.06-.07-25.23-25.23.06-.06L285,414.38l.07.07,25.23,25.23-.06.06Zm-25-25.3,25,25.05,25.05-25.05-25.05-25Z"/><rect class="cls-16" x="274.49" y="429.13" width="21.09" height="21.09" transform="translate(-227.42 330.33) rotate(-45)"/><path class="cls-8" d="M285,440l-5.91-5.91,5.91-5.92,5.91,5.92Zm-5.35-5.91,5.35,5.35,5.36-5.35L285,428.74Z"/><path class="cls-8" d="M285,451.18l-5.91-5.92,5.91-5.91,5.91,5.91Zm-5.35-5.92,5.35,5.36,5.36-5.36L285,439.91Z"/><path class="cls-8" d="M292.7,443.81l-4.13-4.13,4.13-4.13,4.13,4.13Zm-3.57-4.13,3.57,3.58,3.58-3.58-3.58-3.57Z"/><path class="cls-8" d="M277.36,443.81l-4.13-4.13,4.13-4.13,4.13,4.13Zm-3.57-4.13,3.57,3.58,3.58-3.58-3.58-3.57Z"/><circle class="cls-8" cx="285.03" cy="414.51" r="0.75"/><circle class="cls-8" cx="285.03" cy="464.85" r="0.75"/><circle class="cls-8" cx="310.18" cy="439.68" r="0.75"/><circle class="cls-8" cx="260.01" cy="439.68" r="0.75"/><path class="cls-16" d="M310.81,471a1,1,0,1,1-1,1,1,1,0,0,1,1-1m0-.79a1.83,1.83,0,1,0,1.83,1.83,1.83,1.83,0,0,0-1.83-1.83Z"/><path class="cls-16" d="M260.3,463.37a1,1,0,1,1-1,1,1,1,0,0,1,1-1m0-.78a1.83,1.83,0,1,0,1.83,1.82,1.81,1.81,0,0,0-1.83-1.82Z"/><path class="cls-16" d="M285.23,488.57a1,1,0,0,1,0,2.08,1,1,0,0,1,0-2.08m0-.78a1.83,1.83,0,1,0,1.83,1.82,1.82,1.82,0,0,0-1.83-1.82Z"/><rect class="cls-8" x="307.07" y="442.72" width="0.18" height="13.99"/><rect class="cls-8" x="303.82" y="445.98" width="0.18" height="13.99"/><rect class="cls-8" x="300.09" y="449.71" width="0.18" height="13.99"/><rect class="cls-8" x="296.83" y="452.96" width="0.18" height="13.99"/><rect class="cls-8" x="292.85" y="456.94" width="0.18" height="13.99"/><rect class="cls-8" x="289.6" y="460.2" width="0.18" height="13.99"/><rect class="cls-8" x="262.81" y="442.72" width="0.18" height="13.99"/><rect class="cls-8" x="266.06" y="445.98" width="0.18" height="13.99"/><rect class="cls-8" x="269.79" y="449.71" width="0.18" height="13.99"/><rect class="cls-8" x="273.05" y="452.96" width="0.18" height="13.99"/><rect class="cls-8" x="277.03" y="456.94" width="0.18" height="13.99"/><rect class="cls-8" x="280.28" y="460.2" width="0.18" height="13.99"/><path class="cls-16" d="M535.18,651.82a6.92,6.92,0,1,1,6.93-6.92A6.93,6.93,0,0,1,535.18,651.82Zm0-11.48a4.57,4.57,0,1,0,4.57,4.56A4.57,4.57,0,0,0,535.18,640.34Z"/><path class="cls-16" d="M408.52,651.82a6.92,6.92,0,1,1,6.92-6.92A6.93,6.93,0,0,1,408.52,651.82Zm0-11.48a4.57,4.57,0,1,0,4.57,4.56A4.57,4.57,0,0,0,408.52,640.34Z"/><circle class="cls-5" cx="550.79" cy="644.9" r="2.12"/><circle class="cls-16" cx="581.5" cy="644.9" r="2.12"/><path class="cls-5" d="M358.72,650.18l-5.27-5.28,5.27-5.27L364,644.9Zm-3.33-5.28,3.33,3.33,3.33-3.33-3.33-3.33Z"/><path class="cls-5" d="M206.23,694.61,201,689.34l5.27-5.28,5.28,5.28Zm-3.33-5.27,3.33,3.33,3.33-3.33L206.23,686Z"/><rect class="cls-8" x="471.92" y="641.86" width="6.08" height="6.08" transform="translate(1021.59 59.52) rotate(79.41)"/><circle class="cls-5" cx="428.55" cy="644.9" r="4.01"/><path class="cls-16" d="M492.55,650.88a1.16,1.16,0,0,1-.59-.16,1.18,1.18,0,0,1-.43-1.61l5.56-9.6a1.19,1.19,0,0,1,1.61-.43,1.17,1.17,0,0,1,.43,1.61l-5.56,9.6A1.17,1.17,0,0,1,492.55,650.88Z"/><path class="cls-5" d="M64.92,686.21a6.43,6.43,0,1,1,6.44-6.43A6.44,6.44,0,0,1,64.92,686.21Zm0-11.49A5.06,5.06,0,1,0,70,679.78,5.06,5.06,0,0,0,64.92,674.72Z"/><circle class="cls-8" cx="36.68" cy="638.17" r="2.12"/><rect class="cls-13" x="104.95" y="612.58" width="62.25" height="14.04"/><rect class="cls-13" x="104.95" y="537.01" width="62.25" height="14.04"/><polygon class="cls-17" points="167.2 537.01 104.95 537.01 104.95 545.2 167.2 541.11 167.2 537.01"/><path class="cls-8" d="M156.5,555.1h0l-44.42-1a.56.56,0,0,1-.54-.57.56.56,0,0,1,.57-.54l44.41,1a.56.56,0,1,1,0,1.11Z"/><path class="cls-8" d="M157.47,557.71H114a.56.56,0,0,1,0-1.11h43.44a.56.56,0,1,1,0,1.11Z"/><path class="cls-8" d="M156.5,560.33h0l-43.44-1a.56.56,0,0,1-.55-.57.58.58,0,0,1,.57-.54l43.44,1a.56.56,0,0,1,0,1.12Z"/><path class="cls-8" d="M158.45,562.94H114a.56.56,0,0,1,0-1.11h44.42a.56.56,0,0,1,0,1.11Z"/><path class="cls-8" d="M156.5,565.55H114a.56.56,0,0,1,0-1.11H156.5a.56.56,0,1,1,0,1.11Z"/><path class="cls-8" d="M156.5,571.75h0l-42.47-2a.55.55,0,0,1-.53-.58.55.55,0,0,1,.58-.53l42.47,1.95a.56.56,0,0,1,0,1.11Z"/><path class="cls-8" d="M156.5,576H114a.56.56,0,0,1,0-1.11H156.5a.56.56,0,1,1,0,1.11Z"/><path class="cls-8" d="M156.5,581.23h0l-43.44-1a.56.56,0,1,1,0-1.11l43.44,1a.56.56,0,1,1,0,1.11Z"/><path class="cls-8" d="M156.5,587.43h0l-44.42-1a.55.55,0,0,1-.54-.56.57.57,0,0,1,.57-.55l44.41,1a.56.56,0,0,1,.55.56A.56.56,0,0,1,156.5,587.43Z"/><path class="cls-8" d="M156.5,589.07H114a.56.56,0,0,1,0-1.11H156.5a.56.56,0,1,1,0,1.11Z"/><path class="cls-8" d="M158.45,591.68H114a.56.56,0,0,1,0-1.11h44.42a.56.56,0,0,1,0,1.11Z"/><path class="cls-8" d="M112.09,595.27a.56.56,0,0,1-.56-.55.55.55,0,0,1,.54-.56l44.42-1a.57.57,0,0,1,.57.55.56.56,0,0,1-.55.56l-44.41,1Z"/><path class="cls-8" d="M208.37,596.91H114a.55.55,0,0,1-.55-.56.54.54,0,0,1,.55-.55h94.34a.55.55,0,0,1,.56.55A.56.56,0,0,1,208.37,596.91Z"/><path class="cls-8" d="M156.5,568.16H113.06a.55.55,0,0,1-.56-.55.56.56,0,0,1,.56-.56H156.5a.56.56,0,0,1,.56.56A.55.55,0,0,1,156.5,568.16Z"/><path class="cls-8" d="M156.5,573.39H112.09a.56.56,0,1,1,0-1.11H156.5a.56.56,0,1,1,0,1.11Z"/><path class="cls-8" d="M156.5,578.62H114a.55.55,0,0,1-.55-.56.54.54,0,0,1,.55-.55H156.5a.55.55,0,0,1,.56.55A.56.56,0,0,1,156.5,578.62Z"/><path class="cls-8" d="M114,583.84a.56.56,0,0,1,0-1.11l45.39-1a.56.56,0,0,1,.56.54.55.55,0,0,1-.54.57l-45.39,1Z"/><path class="cls-8" d="M157.47,599.52H114a.56.56,0,0,1,0-1.11h43.44a.56.56,0,1,1,0,1.11Z"/><path class="cls-8" d="M158.45,603.1h0l-45.39-1a.56.56,0,0,1-.55-.57.57.57,0,0,1,.57-.54l45.39,1a.56.56,0,0,1,.54.57A.55.55,0,0,1,158.45,603.1Z"/><path class="cls-8" d="M159.42,604.75H114a.56.56,0,0,1,0-1.12h45.39a.56.56,0,0,1,0,1.12Z"/><path class="cls-8" d="M156.5,610H114a.56.56,0,0,1,0-1.11H156.5a.56.56,0,1,1,0,1.11Z"/><path class="cls-8" d="M113.06,608.33a.56.56,0,1,1,0-1.11l45.39-1a.54.54,0,0,1,.56.54.55.55,0,0,1-.54.57l-45.39,1Z"/><path class="cls-8" d="M208.37,628.69a16.45,16.45,0,1,1,16.45-16.45A16.46,16.46,0,0,1,208.37,628.69Zm0-31.78a15.34,15.34,0,1,0,15.34,15.33A15.35,15.35,0,0,0,208.37,596.91Z"/><path class="cls-8" d="M224.27,628.69a11.13,11.13,0,1,1,11.13-11.13A11.14,11.14,0,0,1,224.27,628.69Zm0-21.15a10,10,0,1,0,10,10A10,10,0,0,0,224.27,607.54Z"/><path class="cls-8" d="M257.54,628.69H224.27a.56.56,0,1,1,0-1.11h33.27a.56.56,0,0,1,0,1.11Z"/><circle class="cls-16" cx="329.29" cy="644.9" r="11.55"/><path class="cls-8" d="M329.29,654.68a9.78,9.78,0,1,1,9.78-9.78A9.78,9.78,0,0,1,329.29,654.68Zm0-19.23a9.46,9.46,0,1,0,9.45,9.45A9.46,9.46,0,0,0,329.29,635.45Z"/><circle class="cls-8" cx="329.27" cy="640.65" r="1.39"/><circle class="cls-8" cx="325.03" cy="644.89" r="1.39"/><circle class="cls-8" cx="333.54" cy="644.92" r="1.39"/><circle class="cls-8" cx="329.3" cy="649.16" r="1.39"/><path class="cls-8" d="M196,652.48l-31.87,16-15.4,4.85-30.58-13.2,2-5.36,18.9,4.84,15.4-4.85a6,6,0,0,1,7.53,3.92h0l33.62-7.58Z"/><path class="cls-8" d="M193.31,644.06,158,649.18,142.61,654,125.1,682.36l4.69,3.27,12.72-14.79,15.4-4.85a6,6,0,0,0,3.92-7.53h0l31.91-13Z"/><path class="cls-18" d="M142.51,670.84l15.4-4.85a6,6,0,0,0,3.92-7.53l8.07-3.29h0c-2-6.42-11.89-6-11.89-6L142.61,654,125.1,682.36l4.69,3.27Z"/><path class="cls-16" d="M45.89,666.45a5.79,5.79,0,0,1-2.25-11.12l8.49-3.57a74.43,74.43,0,0,1,45-4.09l32.24,7.09a5.79,5.79,0,0,1-2.49,11.31L94.65,659a62.87,62.87,0,0,0-38,3.45L48.13,666A5.78,5.78,0,0,1,45.89,666.45Z"/><path class="cls-16" d="M65.6,729.1a5.78,5.78,0,0,1-1.21-11.44l9-1.94a62.87,62.87,0,0,0,33.16-19l22.36-24.27a5.79,5.79,0,1,1,8.51,7.84l-22.36,24.28A74.38,74.38,0,0,1,75.82,727l-9,1.94A5.69,5.69,0,0,1,65.6,729.1Z"/><path class="cls-19" d="M89.88,712.87c17.49-9.35,34.79-32.84,40.93-41.75a5.87,5.87,0,0,0-1.9,1.37l-22.36,24.27a62.87,62.87,0,0,1-33.16,19l-9,1.94a5.77,5.77,0,0,0-3.59,2.44A61.09,61.09,0,0,0,89.88,712.87Z"/><path class="cls-19" d="M71.77,655.33c19.7-2.35,47.32,7,57.46,10.78a5.55,5.55,0,0,1-2.33,0L94.66,659a62.87,62.87,0,0,0-38,3.46L48.13,666a5.77,5.77,0,0,1-4.34.05A61.22,61.22,0,0,1,71.77,655.33Z"/><path class="cls-8" d="M155.44,664.93a4.35,4.35,0,1,1,1.3-.21A4.11,4.11,0,0,1,155.44,664.93Zm0-7.36a3.19,3.19,0,0,0-.91.14,3,3,0,0,0-2,3.81,3,3,0,0,0,3.8,2,3,3,0,0,0-.91-5.93Z"/><path class="cls-8" d="M413.33,733H258.84a.32.32,0,0,1-.32-.33.32.32,0,0,1,.32-.32H413.33a.32.32,0,0,1,.32.32A.33.33,0,0,1,413.33,733Z"/><path class="cls-8" d="M258.84,733a26.35,26.35,0,1,1,26.35-26.35A26.38,26.38,0,0,1,258.84,733Zm0-52a25.7,25.7,0,1,0,25.7,25.7A25.72,25.72,0,0,0,258.84,681Z"/><path class="cls-8" d="M229.17,724.3a17.65,17.65,0,1,1,17.64-17.64A17.67,17.67,0,0,1,229.17,724.3Zm0-34.64a17,17,0,1,0,17,17A17,17,0,0,0,229.17,689.66Z"/><path class="cls-8" d="M413.33,732.36A17.66,17.66,0,0,1,431,750h-.65a17,17,0,0,0-17-17Z"/><path class="cls-8" d="M229.17,689.66H174.69a.32.32,0,0,1-.33-.32.33.33,0,0,1,.33-.33h54.48a.32.32,0,0,1,.32.33A.32.32,0,0,1,229.17,689.66Z"/><circle class="cls-16" cx="194.41" cy="689.34" r="2.12"/></g></g></g></svg>