<svg id="Layer_1" data-name="Layer 1" xmlns="http://www.w3.org/2000/svg" xmlns:xlink="http://www.w3.org/1999/xlink" viewBox="0 0 543.4 943.41"><defs><style>.cls-1{fill:#40bead;}.cls-2{fill:url(#linear-gradient);}.cls-3{fill:#f969a4;}.cls-4{fill:#ee2375;}.cls-5,.cls-6{fill:none;stroke-linecap:round;stroke-miterlimit:10;}.cls-5{stroke:#fff;stroke-width:4px;}.cls-6{stroke:#fcc74a;stroke-width:8px;}.cls-7{fill:#a3cbcc;}.cls-8{fill:#fff;}</style><linearGradient id="linear-gradient" x1="484.18" y1="777.4" x2="122.18" y2="381.4" gradientUnits="userSpaceOnUse"><stop offset="0" stop-color="#fcc74a"/><stop offset="1" stop-color="#fcc74a" stop-opacity="0"/></linearGradient></defs><title>cristmas-tree</title><rect class="cls-1" x="244.66" y="660.61" width="54.09" height="191.9"/><path class="cls-1" d="M271.7,59.68S259.82,299.55,117.26,337.42H426.15C283.58,299.55,271.7,59.68,271.7,59.68Z"/><path class="cls-1" d="M271.7,206.12S255.35,498.35,59.2,544.49h425C288.05,498.35,271.7,206.12,271.7,206.12Z"/><path class="cls-1" d="M271.7,411.49S250.8,689.18,0,733H543.4C292.6,689.18,271.7,411.49,271.7,411.49Z"/><path class="cls-2" d="M543.4,733c-131.75-23-200-110.59-235.21-188.53h176C377.51,519.39,324,421.5,297.42,337.42H426.15C283.58,299.55,271.7,59.68,271.7,59.68S259.82,299.55,117.26,337.42H246c-26.61,84.08-80.1,182-186.79,207.07h176C200.05,622.43,131.75,710,0,733H244.66v119.5h54.08V733Z"/><polygon class="cls-3" points="288.8 783.99 254.6 783.99 162.87 783.99 200.02 943.41 254.6 943.41 288.8 943.41 343.38 943.41 380.54 783.99 288.8 783.99"/><rect class="cls-4" x="154.2" y="783.99" width="235.01" height="39.28"/><path class="cls-5" d="M323.08,249.18c-21,42-52.42,5.74-52.42,5.74s-22.84,34.43-53.64,0"/><path class="cls-6" d="M229.6,380.23c46.74,52.29,93.48,23.86,93.48,23.86"/><path class="cls-5" d="M150.29,497.32c29.92,33.65,80.92-8,80.92-8s31.5,32.08,76.5,0c36,21.26,58.17,28.14,90.58,12.39"/><circle class="cls-7" cx="392.78" cy="364.68" r="19.97"/><circle class="cls-7" cx="364.14" cy="761.94" r="19.97"/><circle class="cls-7" cx="188.45" cy="364.68" r="16.72"/><circle class="cls-7" cx="441.74" cy="576.89" r="16.8"/><circle class="cls-7" cx="106.03" cy="759.23" r="16.8"/><circle class="cls-7" cx="146.25" cy="573.12" r="16.8"/><circle class="cls-4" cx="337.01" cy="358.63" r="13.92"/><circle class="cls-4" cx="426.15" cy="761.94" r="13.92"/><circle class="cls-4" cx="88.99" cy="572.22" r="13.92"/><circle class="cls-4" cx="319.32" cy="576.89" r="20.58"/><circle class="cls-4" cx="38.62" cy="767.27" r="20.58"/><path class="cls-8" d="M380.54,560.31a12.4,12.4,0,1,1-12.4,12.4,12.41,12.41,0,0,1,12.4-12.4m0-4a16.4,16.4,0,1,0,16.39,16.4,16.4,16.4,0,0,0-16.39-16.4Z"/><path class="cls-8" d="M500.6,754.88a12.4,12.4,0,1,1-12.4,12.39,12.41,12.41,0,0,1,12.4-12.39m0-4A16.4,16.4,0,1,0,517,767.27a16.39,16.39,0,0,0-16.39-16.39Z"/><path class="cls-8" d="M137.31,351.36a12.4,12.4,0,1,1-12.4,12.39,12.41,12.41,0,0,1,12.4-12.39m0-4a16.4,16.4,0,1,0,16.39,16.39,16.39,16.39,0,0,0-16.39-16.39Z"/><path class="cls-8" d="M307.24,112.29l-37.19-22.9-37.19,22.9,10.72-41.77L209.77,42.81l43.95-2.92L270.05,0l16.33,39.89,43.95,2.92L296.52,70.52ZM270.05,80.4l25.06,15.44L287.9,67.69l22.6-18.52-29.39-2-11.06-27L259,47.21l-29.39,2,22.6,18.52L245,95.84Z"/><path class="cls-6" d="M357,624.7s-61.38,95.61-224.67,52.43"/><path class="cls-6" d="M217,578.12s61.28,63.66,128.64,31.74"/><path class="cls-6" d="M300.31,198.55S280.18,238,229.6,232"/><path class="cls-6" d="M181.71,294.41s77.88,39.37,188.1,11.45"/><path class="cls-5" d="M92.42,702.24s54.11,50.31,117.35,9c52.14,21.77,79.86,24.61,120.56-2.35,50.21,19.45,73.87,35.07,132.07-1"/><path class="cls-8" d="M204,562.41a12.4,12.4,0,1,1-12.39,12.4A12.41,12.41,0,0,1,204,562.41m0-4a16.4,16.4,0,1,0,16.4,16.4,16.39,16.39,0,0,0-16.4-16.4Z"/><path class="cls-8" d="M171.73,746.84a12.4,12.4,0,1,1-12.4,12.4,12.42,12.42,0,0,1,12.4-12.4m0-4a16.4,16.4,0,1,0,16.4,16.4,16.4,16.4,0,0,0-16.4-16.4Z"/></svg>