<svg xmlns="http://www.w3.org/2000/svg" xmlns:xlink="http://www.w3.org/1999/xlink" viewBox="0 0 600 750"><defs><style>.cls-1{isolation:isolate;}.cls-2{fill:#40bead;}.cls-14,.cls-3{fill:#fbbc23;}.cls-10,.cls-11,.cls-13,.cls-19,.cls-22,.cls-23,.cls-4,.cls-9{mix-blend-mode:multiply;}.cls-4{fill:url(#linear-gradient);}.cls-17,.cls-5,.cls-7{fill:#fff;}.cls-6{opacity:0.2;}.cls-13,.cls-14,.cls-7{opacity:0.5;}.cls-8{opacity:0.3;}.cls-9{fill:url(#linear-gradient-2);}.cls-10{fill:url(#linear-gradient-3);}.cls-11{fill:url(#linear-gradient-4);}.cls-12,.cls-18{fill:#f1f7f7;}.cls-12{opacity:0.25;}.cls-13{fill:url(#linear-gradient-5);}.cls-15{fill:#f969a4;}.cls-16{fill:#474747;}.cls-17{opacity:0.35;}.cls-20{fill:url(#linear-gradient-6);}.cls-21{fill:url(#linear-gradient-7);}.cls-22{fill:url(#linear-gradient-8);}.cls-23{fill:url(#linear-gradient-9);}</style><linearGradient id="linear-gradient" x1="464.48" y1="619.02" x2="498.78" y2="650.24" gradientUnits="userSpaceOnUse"><stop offset="0" stop-color="#fbbc23"/><stop offset="1" stop-color="#fbbc23" stop-opacity="0"/></linearGradient><linearGradient id="linear-gradient-2" x1="304.6" y1="282.63" x2="310.15" y2="608.28" xlink:href="#linear-gradient"/><linearGradient id="linear-gradient-3" x1="383.83" y1="212.05" x2="341.54" y2="367.84" xlink:href="#linear-gradient"/><linearGradient id="linear-gradient-4" x1="291.87" y1="187.08" x2="249.58" y2="342.88" xlink:href="#linear-gradient"/><linearGradient id="linear-gradient-5" x1="306" y1="172.09" x2="311.45" y2="292.22" xlink:href="#linear-gradient"/><linearGradient id="linear-gradient-6" x1="237.9" y1="702.43" x2="237.9" y2="569.58" xlink:href="#linear-gradient"/><linearGradient id="linear-gradient-7" x1="373.78" y1="702.43" x2="373.78" y2="569.58" xlink:href="#linear-gradient"/><linearGradient id="linear-gradient-8" x1="320.21" y1="754.98" x2="299.09" y2="394.88" xlink:href="#linear-gradient"/><linearGradient id="linear-gradient-9" x1="-915.73" y1="1668.84" x2="-889" y2="1619.65" gradientTransform="translate(274.62 -1202.19) rotate(-30.67)" gradientUnits="userSpaceOnUse"><stop offset="0" stop-color="#fff"/><stop offset="1" stop-color="#fff" stop-opacity="0"/></linearGradient></defs><title>Domestic Animals</title><g class="cls-1"><g id="Layer_2" data-name="Layer 2"><g id="Layer_1-2" data-name="Layer 1"><rect class="cls-2" width="600" height="750"/><path class="cls-3" d="M532.69,646.39a11,11,0,0,0-17.19-7.25,14.13,14.13,0,0,0-22.32-7.71,11,11,0,0,0-21.9,1.56c0,.31,0,.61,0,.91a13.5,13.5,0,0,0-4.86-.91,13.64,13.64,0,0,0-13.63,13.4Z"/><path class="cls-4" d="M532.69,646.39a11,11,0,0,0-17.19-7.25,14.13,14.13,0,0,0-22.32-7.71,11,11,0,0,0-21.9,1.56c0,.31,0,.61,0,.91a13.5,13.5,0,0,0-4.86-.91,13.64,13.64,0,0,0-13.63,13.4Z"/><path class="cls-5" d="M553.52,680.83H433.77a3.07,3.07,0,0,1-2.76-4.41L444.09,647a3.08,3.08,0,0,1,2.76-1.71h92.42a3,3,0,0,1,2.71,1.63l14.27,29.46a3.06,3.06,0,0,1-2.73,4.46ZM446.09,648,433,677.36a.84.84,0,0,0,.74,1.25H553.52a.84.84,0,0,0,.75-1.24L540,647.91a.83.83,0,0,0-.73-.41H446.85A.86.86,0,0,0,446.09,648Z"/><rect class="cls-5" x="442.6" y="652.76" width="71.08" height="0.66"/><path class="cls-3" d="M270.4,678.51,245.18,555,230,553.82a41,41,0,0,0-43.23,48.91l10,49.71h-8.23a26.07,26.07,0,0,0-26.06,26.07H270.4Z"/><path class="cls-3" d="M350,678.51,375.21,555l15.14-1.14a41,41,0,0,1,43.23,48.91l-10,49.71h8.23a26.07,26.07,0,0,1,26.06,26.07H350Z"/><g class="cls-6"><path class="cls-5" d="M415.86,620.45h0a9.64,9.64,0,0,1,3.81,10.17l-4,16.35a12.49,12.49,0,0,0,9.85,15.24h0a12.49,12.49,0,0,0,14.19-8.55,26,26,0,0,0-7.87-1.22h-8.23l10-49.71a40.65,40.65,0,0,0-6.48-31.36l-14.67,37.71A9.64,9.64,0,0,0,415.86,620.45Z"/><path class="cls-5" d="M229.23,566.92h0a14.14,14.14,0,0,0,11.92-12.26L230,553.82a41,41,0,0,0-42.24,28.83L195,600.56c2.07,5.19,8.35,9.44,13.94,9.44h0c6.81,0,11.33-5.47,10-12.17L216.46,585A15.33,15.33,0,0,1,229.23,566.92Z"/></g><path class="cls-3" d="M345.56,264.21l43.13,83.17a148.32,148.32,0,0,1,15.24,88.71L370.22,678.51H284.81l16.68-365.57Z"/><path class="cls-3" d="M311.92,312.94l-44.07-48.73-43.69,87.14a148.32,148.32,0,0,0-14.33,86.86l33.35,240.3h85.41Z"/><path class="cls-7" d="M345.56,264.21l-38.86,43-38.85-43-43.69,87.14a147.29,147.29,0,0,0-7.62,18.08,30.4,30.4,0,0,0,12,10.94h0A30.53,30.53,0,0,0,267.09,371l1-1.38a15.93,15.93,0,0,1,16.59-6.17h0A15.93,15.93,0,0,1,296.92,379v46.27A22.69,22.69,0,0,0,342.14,428l3.95-32.24A15,15,0,0,1,357.44,383h0A15,15,0,0,1,375,392.28l25.62,67.79,3.33-24a148.32,148.32,0,0,0-15.24-88.71Z"/><g class="cls-8"><path class="cls-5" d="M374.15,568.16a3.58,3.58,0,1,0-3.58,3.58A3.58,3.58,0,0,0,374.15,568.16Zm-6.41,0a2.84,2.84,0,1,1,2.83,2.84A2.83,2.83,0,0,1,367.74,568.16Z"/><path class="cls-5" d="M341.82,469.29a3.58,3.58,0,1,0-3.58-3.58A3.58,3.58,0,0,0,341.82,469.29Zm0-6.41a2.84,2.84,0,1,1-2.84,2.83A2.84,2.84,0,0,1,341.82,462.88Z"/><path class="cls-5" d="M230.14,440.31a28.81,28.81,0,0,0-21.61-27.89,148.65,148.65,0,0,0,1.3,25.79l3.9,28.09A28.8,28.8,0,0,0,230.14,440.31Z"/><circle class="cls-5" cx="363.17" cy="539.55" r="3.49"/><path class="cls-5" d="M271.13,438.16a4.36,4.36,0,1,0-4.35,4.35A4.36,4.36,0,0,0,271.13,438.16Z"/><circle class="cls-5" cx="279.28" cy="409.35" r="8.15"/><circle class="cls-5" cx="201.35" cy="635.35" r="3.49"/><circle class="cls-5" cx="258.81" cy="588.9" r="7.04" transform="translate(-90.99 49.06) rotate(-9.22)"/><circle class="cls-5" cx="251.77" cy="610" r="3.49"/></g><path class="cls-9" d="M388.69,347.38l-43.13-83.17-38.86,43-38.85-43-43.69,87.14a148.32,148.32,0,0,0-14.33,86.86l33.35,240.3h127l33.71-242.42A148.32,148.32,0,0,0,388.69,347.38Z"/><polygon class="cls-10" points="384.52 339.45 347.98 268.99 339.03 271.67 320.72 291.91 353.35 345.17 359.74 318.85 386.31 355.55 384.52 339.45"/><polygon class="cls-11" points="277.27 274.88 265.68 268.62 234.62 330.56 258.75 308.13 262.72 328.85 284.25 282.59 277.27 274.88"/><path class="cls-3" d="M371.08,203.9c-5.2-11.61-22.63-7.34-21.87,5.36l6.71,112.27a31.91,31.91,0,0,0,45,27.13h0A32,32,0,0,0,417,306.48Z"/><path class="cls-12" d="M417,306.48l-7.31-16.32-11.37-9.52,8.9,34.24-18.43-26-4,23.43L367,261.52l-1.66,37.84-13.52-46.45,4.1,68.62a32,32,0,1,0,61.12-15Z"/><path class="cls-3" d="M247.93,203.9c5.2-11.61,22.62-7.34,21.86,5.36l-6.71,112.27a31.9,31.9,0,0,1-44.95,27.13h0A31.94,31.94,0,0,1,202,306.48Z"/><path class="cls-12" d="M202,306.48l7.31-16.32,11.37-9.52-7.19,27.67,16.72-19.47,4.32,19.47,14.4-45.73,4.76,36.78,13.53-46.45-4.11,68.62a32,32,0,1,1-61.11-15Z"/><path class="cls-3" d="M369.32,219.56a20.87,20.87,0,0,0-1.73-8.39,63.18,63.18,0,0,0-115.76.16,20.58,20.58,0,0,0-1.73,8.37v34.52a20.81,20.81,0,0,0,1.76,8.45,63.58,63.58,0,0,0,14.95,20.9A28.92,28.92,0,0,1,276,304.81V319.2a15.2,15.2,0,0,0,15.18,15.23h37.14a15.2,15.2,0,0,0,15.18-15.23V304.8a29.2,29.2,0,0,1,9.29-21.36,63.52,63.52,0,0,0,14.81-20.77,20.77,20.77,0,0,0,1.76-8.44Z"/><path class="cls-13" d="M362.15,236.11a35.62,35.62,0,0,0-14.22-28.49L309.71,179l-38.22,28.67a35.62,35.62,0,0,0-14.22,28.49v36.34a63.77,63.77,0,0,0,9.54,11.12A28.92,28.92,0,0,1,276,304.81V319.2a15.2,15.2,0,0,0,15.18,15.23h37.14a15.2,15.2,0,0,0,15.18-15.23V304.8a29.2,29.2,0,0,1,9.29-21.36,64.09,64.09,0,0,0,9.4-11Z"/><path class="cls-5" d="M339.46,283.57c0-31-13.27-27.84-18-54.23-4-22.42,10.88-43.83,15.47-49.78a63,63,0,0,0-54.42.05c4.18,6.1,17.94,27.72,17.94,48.75,0,24.8-19.14,19.84-19.14,53.32V330.8a15.11,15.11,0,0,0,9.84,3.63h37.14a15.1,15.1,0,0,0,11.18-4.93Z"/><ellipse class="cls-14" cx="298.46" cy="294.34" rx="6.6" ry="6.62"/><path class="cls-15" d="M298.09,319.56H287.21a1.44,1.44,0,1,1,0-2.87h10.88a10.21,10.21,0,0,0,10.19-10.22v-8a1.43,1.43,0,1,1,2.86,0v8A13.08,13.08,0,0,1,298.09,319.56Z"/><ellipse class="cls-14" cx="324.46" cy="301.8" rx="3.3" ry="3.31"/><ellipse class="cls-14" cx="315.83" cy="275.22" rx="16.38" ry="16.44"/><path class="cls-5" d="M274.9,248.89a12.2,12.2,0,1,1,12.16-12.2A12.2,12.2,0,0,1,274.9,248.89Zm0-22.58a10.39,10.39,0,1,0,10.35,10.38A10.38,10.38,0,0,0,274.9,226.31Z"/><ellipse class="cls-16" cx="274.9" cy="236.69" rx="7.96" ry="7.98"/><path class="cls-17" d="M275.36,242.21a.61.61,0,0,1,0-1.21,4.31,4.31,0,0,0,0-8.62.6.6,0,1,1,0-1.2,5.52,5.52,0,0,1,0,11Z"/><rect class="cls-5" x="285.25" y="236.1" width="1.81" height="36.58"/><path class="cls-5" d="M344.52,248.89a12.2,12.2,0,1,1,12.16-12.2A12.2,12.2,0,0,1,344.52,248.89Zm0-22.58a10.39,10.39,0,1,0,10.34,10.38A10.38,10.38,0,0,0,344.52,226.31Z"/><ellipse class="cls-16" cx="344.52" cy="236.69" rx="7.96" ry="7.98"/><path class="cls-17" d="M344.52,242.21a.61.61,0,1,1,0-1.21,4.31,4.31,0,0,0,0-8.62.6.6,0,1,1,0-1.2,5.52,5.52,0,0,1,0,11Z"/><rect class="cls-5" x="332.36" y="236.1" width="1.81" height="36.58"/><path class="cls-15" d="M323.9,319.56h-1.53a14.13,14.13,0,0,1-14.09-14.13v-12.7a1.43,1.43,0,1,1,2.86,0v12.7a11.26,11.26,0,0,0,11.23,11.26h1.53a11.26,11.26,0,0,0,11.23-11.26,1.43,1.43,0,0,1,2.86,0A14.13,14.13,0,0,1,323.9,319.56Z"/><path class="cls-16" d="M319.48,293.34l7.31-10.56a7.76,7.76,0,0,0-6.38-12.18H299a7.76,7.76,0,0,0-6.38,12.18l7.31,10.56A11.89,11.89,0,0,0,319.48,293.34Z"/><path class="cls-18" d="M316.14,283.76a3.53,3.53,0,1,1,3.52-3.53A3.53,3.53,0,0,1,316.14,283.76Zm0-6.45a2.92,2.92,0,1,0,2.91,2.92A2.91,2.91,0,0,0,316.14,277.31Z"/><path class="cls-18" d="M303.28,283.76a3.53,3.53,0,1,1,3.52-3.53A3.53,3.53,0,0,1,303.28,283.76Zm0-6.45a2.92,2.92,0,1,0,2.91,2.92A2.91,2.91,0,0,0,303.28,277.31Z"/><g class="cls-19"><path class="cls-20" d="M251.35,424l21,254.51H203.5a25.28,25.28,0,0,1,25.28-25.29h10l-14-82.15"/><path class="cls-21" d="M360.33,424l-21,254.51h68.81a25.28,25.28,0,0,0-25.28-25.29h-10l14-82.15"/></g><polygon class="cls-22" points="255.25 471.36 271.64 567.73 284.81 494.92 292.06 519.54 311.55 471.36 326.6 551.25 347.36 478.82 353.29 494.92 339.38 678.5 272.3 678.5 255.25 471.36"/><path class="cls-5" d="M273.51,679.62H202.38v-1.11a26.43,26.43,0,0,1,26.4-26.4h8.68l-13.74-80.86,2.2-.37,14.17,83.45H228.78a24.21,24.21,0,0,0-24.15,23.06H271.1l-20.86-253.3,2.21-.18Z"/><path class="cls-5" d="M409.29,679.62H338.17l21.05-255.71,2.22.18-20.86,253.3H407a24.2,24.2,0,0,0-24.14-23.06H371.58l14.18-83.45,2.19.37-13.73,80.86h8.68a26.42,26.42,0,0,1,26.39,26.4Z"/><rect class="cls-18" x="216.24" y="671.21" width="0.6" height="7.29"/><rect class="cls-18" x="225.79" y="671.21" width="0.6" height="7.29"/><rect class="cls-18" x="386.01" y="671.21" width="0.6" height="7.29"/><rect class="cls-18" x="395.56" y="671.21" width="0.6" height="7.29"/><path class="cls-5" d="M177.22,655.44a13.34,13.34,0,1,0-21.89-10.24,13,13,0,0,0,.12,1.78H89.23a13,13,0,0,0,.12-1.78,13.34,13.34,0,1,0-21.89,10.24,13.34,13.34,0,1,0,21.77,8.46h66.22a13.2,13.2,0,0,0-.12,1.78,13.34,13.34,0,1,0,21.89-10.24Z"/><path class="cls-5" d="M564.92,680.64H35.08a1.41,1.41,0,0,1,0-2.82H564.92a1.41,1.41,0,0,1,0,2.82Z"/><circle class="cls-15" cx="336.56" cy="652.36" r="25.35"/><circle class="cls-23" cx="336.56" cy="652.36" r="25.35"/><path class="cls-5" d="M360.33,643.54a25.73,25.73,0,0,0-2-4.11l-.18-.29c-4.2,14-13.41,13.47-23.15,12.93-8.32-.46-17.61-1-22.26,9.07a25.06,25.06,0,0,0,2,4.16,1.74,1.74,0,0,0,.11.18c3.23-10.84,10.66-10.44,20-9.92,6,.33,12.46.68,17.77-2.47C355.67,651.29,358.34,648.32,360.33,643.54Z"/></g></g></g></svg>