<svg xmlns="http://www.w3.org/2000/svg" xmlns:xlink="http://www.w3.org/1999/xlink" viewBox="0 0 600 750"><defs><style>.cls-1{isolation:isolate;}.cls-2{fill:#40bdac;}.cls-3,.cls-4{fill:#a3cbcc;}.cls-4{opacity:0.25;mix-blend-mode:multiply;}.cls-5{fill:#fff;}.cls-6{fill:url(#linear-gradient);}.cls-12,.cls-7,.cls-8{fill:#f969a4;}.cls-7{opacity:0.24;}.cls-8{opacity:0.11;}.cls-9{fill:url(#linear-gradient-2);}.cls-10{fill:url(#linear-gradient-3);}.cls-11{fill:#fbbc23;}.cls-13{fill:url(#linear-gradient-4);}.cls-14{opacity:0.38;fill:url(#linear-gradient-5);}.cls-15{fill:#fcc74a;}</style><linearGradient id="linear-gradient" x1="298.07" y1="260.9" x2="298.07" y2="237.8" gradientUnits="userSpaceOnUse"><stop offset="0" stop-color="#a3cbcc"/><stop offset="1" stop-color="#a3cbcc" stop-opacity="0"/></linearGradient><linearGradient id="linear-gradient-2" x1="322.76" y1="174.74" x2="344.68" y2="267.63" gradientUnits="userSpaceOnUse"><stop offset="0" stop-color="#fbbc23"/><stop offset="1" stop-color="#fbbc23" stop-opacity="0"/></linearGradient><linearGradient id="linear-gradient-3" x1="291.27" y1="197.55" x2="264.73" y2="265.63" xlink:href="#linear-gradient-2"/><linearGradient id="linear-gradient-4" x1="4785.45" y1="6924.02" x2="4774.39" y2="6832.49" gradientTransform="matrix(0.78, -0.81, 0.75, 0.72, -8482.8, -871.9)" gradientUnits="userSpaceOnUse"><stop offset="0" stop-color="#fff"/><stop offset="1" stop-color="#fff" stop-opacity="0"/></linearGradient><linearGradient id="linear-gradient-5" x1="146.21" y1="538.66" x2="111.01" y2="237.93" gradientTransform="matrix(1, 0, 0, 1, 0, 0)" xlink:href="#linear-gradient-4"/></defs><title>Early Years</title><g class="cls-1"><g id="Layer_2" data-name="Layer 2"><g id="Layer_1-2" data-name="Layer 1"><rect class="cls-2" width="600" height="750"/><rect class="cls-3" x="134.89" y="129.93" width="328.63" height="493.3" transform="translate(-21.9 18.49) rotate(-3.41)"/><path class="cls-4" d="M171.19,597a1,1,0,0,1-.95-.9L145.05,174a1,1,0,0,1,.24-.69A1,1,0,0,1,146,173l281.21-16.77a1,1,0,0,1,1,.89l25.19,422.12a1,1,0,0,1-.9,1L171.24,597ZM147,174.8,172.08,595l279.31-16.67L426.32,158.14Z"/><path class="cls-5" d="M410,424.64A11.68,11.68,0,0,1,398.36,413a95.3,95.3,0,0,0-190.6,0,11.68,11.68,0,1,1-23.36,0,118.66,118.66,0,0,1,237.32,0A11.68,11.68,0,0,1,410,424.64Z"/><path class="cls-5" d="M247,244.94a51.07,51.07,0,0,1,51.46-51.07c28.16.21,50.68,23.55,50.68,51.71V247a51.07,51.07,0,0,1-51.07,51.07h0A51.08,51.08,0,0,1,247,247Z"/><circle class="cls-3" cx="318.69" cy="246.85" r="5.34"/><path class="cls-3" d="M327.69,246.85H327a8.31,8.31,0,1,0-16.61,0h-.7a9,9,0,1,1,18,0Z"/><circle class="cls-3" cx="277.45" cy="246.85" r="5.34"/><path class="cls-3" d="M286.45,246.85h-.7a8.3,8.3,0,1,0-16.6,0h-.7a9,9,0,1,1,18,0Z"/><circle class="cls-3" cx="298.07" cy="255.37" r="5.72"/><circle class="cls-3" cx="302.46" cy="257.93" r="3.16"/><circle class="cls-3" cx="293.68" cy="257.93" r="3.16"/><rect class="cls-6" x="294.47" y="233.36" width="7.21" height="24.41"/><path class="cls-5" d="M349.14,260.37a9.67,9.67,0,1,1,9.67-9.67A9.68,9.68,0,0,1,349.14,260.37Zm0-17a7.36,7.36,0,1,0,7.36,7.36A7.37,7.37,0,0,0,349.14,243.34Z"/><path class="cls-5" d="M247,260.37a9.67,9.67,0,1,1,9.67-9.67A9.68,9.68,0,0,1,247,260.37Zm0-17a7.36,7.36,0,1,0,7.36,7.36A7.37,7.37,0,0,0,247,243.34Z"/><path class="cls-7" d="M292.38,287.67a5.69,5.69,0,0,1,11.38,0"/><path class="cls-3" d="M289.61,270.4a8.46,8.46,0,0,0,16.92,0Z"/><circle class="cls-8" cx="320.36" cy="268.8" r="11.03"/><circle class="cls-8" cx="276.02" cy="268.8" r="11.03"/><path class="cls-9" d="M349.14,245.58a51.85,51.85,0,0,0-32.09-48h0l1.64,3.09,29.62,55.55h0a51.83,51.83,0,0,0,.83-9.22Z"/><path class="cls-10" d="M317.12,205.39A21.64,21.64,0,0,0,295.8,180v13.88a51.06,51.06,0,0,0-48.8,51V247a51.87,51.87,0,0,0,.31,5.61h8V223.34s30.38,6.35,48.62-1.61a21.68,21.68,0,0,0,3.46-1.77A19.43,19.43,0,0,0,317.12,205.39Z"/><path class="cls-5" d="M396.14,437.07a3.7,3.7,0,0,1-1.76-.44,3.78,3.78,0,0,1-1.57-5.1l8.88-16.75a3.77,3.77,0,0,1,6.67,3.53l-8.89,16.75A3.76,3.76,0,0,1,396.14,437.07Z"/><path class="cls-5" d="M407,444.66h-.31a3.79,3.79,0,0,1-3.46-4.06l1.59-19.79a3.77,3.77,0,1,1,7.51.6l-1.58,19.79A3.78,3.78,0,0,1,407,444.66Z"/><path class="cls-5" d="M419,442a3.76,3.76,0,0,1-3.59-2.64l-5.5-17.48a3.77,3.77,0,1,1,7.2-2.26l5.49,17.48a3.77,3.77,0,0,1-2.47,4.72A3.66,3.66,0,0,1,419,442Z"/><path class="cls-5" d="M426.08,430.64a3.06,3.06,0,0,1-2.28-1l-8.74-9.52a3.09,3.09,0,0,1,4.54-4.18l8.75,9.53a3.08,3.08,0,0,1-2.27,5.17Z"/><path class="cls-5" d="M393.88,425.32a4.46,4.46,0,0,1-1.45-8.67l14.34-5a4.45,4.45,0,0,1,2.91,8.42l-14.34,5A4.4,4.4,0,0,1,393.88,425.32Z"/><path class="cls-5" d="M208.44,438.68a3.78,3.78,0,0,1-3.53-2.44l-6.67-17.76a3.77,3.77,0,0,1,7.06-2.65L212,433.59a3.76,3.76,0,0,1-2.2,4.85A3.67,3.67,0,0,1,208.44,438.68Z"/><path class="cls-5" d="M196.68,444.82h-.18a3.78,3.78,0,0,1-3.59-3.95l1-19.83a3.77,3.77,0,0,1,7.53.37l-1,19.83A3.76,3.76,0,0,1,196.68,444.82Z"/><path class="cls-5" d="M185.16,440.6a3.77,3.77,0,0,1-3.42-5.35l7.69-16.64a3.77,3.77,0,1,1,6.84,3.17l-7.68,16.63A3.77,3.77,0,0,1,185.16,440.6Z"/><path class="cls-5" d="M179.49,428.47a3.08,3.08,0,0,1-2-5.44l9.89-8.33a3.09,3.09,0,1,1,4,4.72l-9.89,8.33A3.12,3.12,0,0,1,179.49,428.47Z"/><path class="cls-5" d="M212.27,427.32a4.52,4.52,0,0,1-2-.46L196.7,420.1a4.46,4.46,0,0,1,4-8l13.59,6.75a4.46,4.46,0,0,1-2,8.45Z"/><circle class="cls-5" cx="419" cy="517.28" r="4.77"/><circle class="cls-5" cx="420.78" cy="525.2" r="3.17"/><circle class="cls-5" cx="423.77" cy="542.73" r="2.31"/><circle class="cls-5" cx="422.93" cy="537.29" r="2.7"/><circle class="cls-5" cx="421.94" cy="531.3" r="2.7"/><path class="cls-5" d="M405.6,548.9l-24.55,4.54a11.13,11.13,0,0,1-12.52-7.25h0a11.14,11.14,0,0,1,3.67-12.51L404.08,518A8,8,0,0,1,415,522l2.22,5.19A15.75,15.75,0,0,1,405.6,548.9Z"/><circle class="cls-5" cx="205.12" cy="548.8" r="4.82"/><circle class="cls-5" cx="207.23" cy="556.72" r="3.2"/><circle class="cls-5" cx="212.49" cy="573.3" r="2.33"/><circle class="cls-5" cx="210.9" cy="568.27" r="2.73"/><circle class="cls-5" cx="209.05" cy="562.72" r="2.73"/><path class="cls-5" d="M231.56,571.25l23.86-7.35a11.14,11.14,0,0,0,7.74-12.23h0a11.13,11.13,0,0,0-9.05-9.38l-35.51.87a8,8,0,0,0-7.81,8.64l.45,5.63A15.73,15.73,0,0,0,231.56,571.25Z"/><path class="cls-5" d="M309.64,410.06l35.19,15.23,4.87,2.1c2,.82,3.87,1.78,5.77,2.74a85.06,85.06,0,0,1,10.75,6.74,78.64,78.64,0,0,1,9.53,8.19,84.73,84.73,0,0,1,8.09,9.42,80.34,80.34,0,0,1,15.59,45,74.07,74.07,0,0,1-.56,11.74,76,76,0,0,1-2.28,11.39L391,541.07a11.47,11.47,0,0,1-22.38-4.6v0l2.09-19a50.1,50.1,0,0,0,0-7.55,44.46,44.46,0,0,0-1.1-7.31,46.62,46.62,0,0,0-14-24.13,45.54,45.54,0,0,0-5.34-4.12,39.73,39.73,0,0,0-5.77-3.19,44.35,44.35,0,0,0-6.07-2.24c-1-.26-2.06-.55-3.12-.74l-.78-.16-1.07-.24-2.33-.53-37.4-8.47a25.75,25.75,0,1,1,11.37-50.22A28,28,0,0,1,309.64,410.06Z"/><path class="cls-5" d="M307.51,447.65l-32.84,19.8-2.06,1.24-.93.56-.69.4c-.95.5-1.82,1.1-2.73,1.68a43.2,43.2,0,0,0-5.06,4,39.74,39.74,0,0,0-4.48,4.85,46.2,46.2,0,0,0-3.77,5.58,46.7,46.7,0,0,0-5.73,27.31,44.67,44.67,0,0,0,1.26,7.29,49.71,49.71,0,0,0,2.39,7.16l7.95,17.35v0a11.47,11.47,0,0,1-19.8,11.4l-11.11-15.74a76.91,76.91,0,0,1-5.75-10.09,74.09,74.09,0,0,1-4.21-11,80.28,80.28,0,0,1,.64-47.64,83.8,83.8,0,0,1,4.73-11.48,78.24,78.24,0,0,1,6.46-10.78,84.65,84.65,0,0,1,8.1-9.77c1.49-1.51,3-3,4.61-4.42l4-3.52,28.63-25.52a25.75,25.75,0,1,1,34.26,38.44A27.09,27.09,0,0,1,307.51,447.65Z"/><path class="cls-5" d="M341.19,312.44c.08,2.79,30.49,67.48,1.67,133-54.25-5-90.18,2.16-90.18,2.16s-21.6-66,12.66-134.74C298.3,305.82,341.19,312.44,341.19,312.44Z"/><path class="cls-11" d="M353.86,412.75,244.69,418l.82,16.9s16.27,1.46,24.87,22.57c4.67,11.47,16.67,18.25,29.06,18.25h0c14.23,0,26.84-6.26,30.92-19.89,3.1-10.36,6.32-21,24.32-26.19Z"/><circle class="cls-11" cx="296.59" cy="400.05" r="3.44"/><path class="cls-5" d="M300.07,429.47a2.84,2.84,0,0,1-2.82-2.54h0a2.84,2.84,0,0,1,2.38-3.12l24-3.83a4,4,0,0,1,3.69,6.5,4,4,0,0,1-2.8,1.42l-24.25,1.56Zm-2.36-2.59a2.37,2.37,0,0,0,2.52,2.12l24.25-1.57a3.53,3.53,0,0,0,3.28-3.89,3.49,3.49,0,0,0-1.37-2.42,3.42,3.42,0,0,0-2.69-.68l-24,3.83a2.38,2.38,0,0,0-2,2.61Z"/><path class="cls-5" d="M328,423.51h0a3.76,3.76,0,0,0-4.33-3.3l-3.1.49.78,7.17,3.16-.21A3.75,3.75,0,0,0,328,423.51Z"/><circle class="cls-11" cx="325.34" cy="423.88" r="0.99"/><path class="cls-11" d="M323.88,425a1.36,1.36,0,0,1-.86-.3,1.39,1.39,0,0,1-.5-.92.79.79,0,0,0-.87-.7l-.83.09-.06-.57.82-.09a1.36,1.36,0,0,1,1.51,1.21.78.78,0,0,0,.29.53.83.83,0,0,0,.58.17l1.1-.12.06.57-1.09.12Z"/><rect class="cls-5" x="262.73" y="437.1" width="67.76" height="0.46" transform="translate(-218.13 317.85) rotate(-42.79)"/><path class="cls-5" d="M458.14,271.57a6.72,6.72,0,0,1-4.7-1.9l-46.39-44.75a6.79,6.79,0,0,1-.17-9.59L425.5,196a6.79,6.79,0,0,1,9.59-.17l46.39,44.75a6.79,6.79,0,0,1,.17,9.59L463,269.5a6.75,6.75,0,0,1-4.76,2.07Zm-27.76-75.86h-.09a5,5,0,0,0-3.53,1.54l-18.62,19.3a5,5,0,0,0,.13,7.11l46.39,44.75a5,5,0,0,0,7.1-.13L480.39,249l.63.61-.63-.61a5,5,0,0,0-.13-7.11l-46.39-44.75A5,5,0,0,0,430.38,195.71Z"/><ellipse class="cls-12" cx="409.07" cy="198.52" rx="9.26" ry="8.55" transform="translate(-17.82 355.09) rotate(-46.03)"/><path class="cls-13" d="M462.56,268.73l18.3-19a5.91,5.91,0,0,0,.18-8.34l-31-29.87c-3.16,17.7-20.38,16-27.95,26.72l32.08,30.95A5.92,5.92,0,0,0,462.56,268.73Z"/><rect class="cls-5" x="400.75" y="198.49" width="25.94" height="9.03" transform="translate(-19.63 359.8) rotate(-46.03)"/><ellipse class="cls-12" cx="400.15" cy="189.91" rx="4.17" ry="3.85" transform="translate(-14.35 346.03) rotate(-46.03)"/><rect class="cls-3" x="440.57" y="213.35" width="0.73" height="57.54" transform="translate(-39.46 391.34) rotate(-46.03)"/><rect class="cls-3" x="424.41" y="224.74" width="5.09" height="0.73" transform="translate(-31.46 376.16) rotate(-46.04)"/><rect class="cls-3" x="430.96" y="231.06" width="5.09" height="0.73" transform="translate(-34 382.81) rotate(-46.04)"/><rect class="cls-3" x="437.51" y="237.37" width="5.09" height="0.73" transform="translate(-36.55 389.45) rotate(-46.04)"/><rect class="cls-3" x="444.05" y="243.69" width="5.09" height="0.73" transform="translate(-39.09 396.1) rotate(-46.04)"/><rect class="cls-3" x="449.91" y="249.34" width="5.09" height="0.73" transform="translate(-41.34 402.12) rotate(-46.05)"/><rect class="cls-3" x="456.46" y="255.66" width="5.09" height="0.73" transform="translate(-43.91 408.68) rotate(-46.04)"/><path class="cls-5" d="M139.2,505a15.11,15.11,0,0,1-10.75-4.45L74.31,446.42a15.22,15.22,0,0,1,0-21.49L97.44,401.8a15.19,15.19,0,0,1,21.5,0l54.14,54.13a15.22,15.22,0,0,1,0,21.5L150,500.56A15.11,15.11,0,0,1,139.2,505Zm-31-106a13.51,13.51,0,0,0-9.6,4L75.46,426.07a13.58,13.58,0,0,0,0,19.21l54.13,54.14a13.6,13.6,0,0,0,19.22,0l23.13-23.13a13.59,13.59,0,0,0,0-19.21L117.8,402.94A13.55,13.55,0,0,0,108.19,399Z"/><circle class="cls-5" cx="123.7" cy="451.18" r="17.6"/><path class="cls-14" d="M199.35,314.7a48.79,48.79,0,0,0-74-41.77,24.38,24.38,0,1,0-16.93,17.21,48.77,48.77,0,0,0,.24,49.54,42.66,42.66,0,1,0,3.81,75.37,21.73,21.73,0,1,0,42.61,6c0-.72,0-1.43-.1-2.13A10.85,10.85,0,1,0,150.78,408a21.69,21.69,0,0,0-17.41-8.73,21.44,21.44,0,0,0-6,.84,42.67,42.67,0,0,0,.84-42.09,48.77,48.77,0,0,0,71.12-43.36Z"/><circle class="cls-11" cx="119.17" cy="443.13" r="1.78"/><circle class="cls-11" cx="128.12" cy="443.13" r="1.78"/><circle class="cls-11" cx="114.74" cy="450.75" r="1.78"/><circle class="cls-11" cx="123.7" cy="450.75" r="1.78"/><circle class="cls-11" cx="132.65" cy="450.75" r="1.78"/><circle class="cls-11" cx="119.17" cy="459.23" r="1.78"/><circle class="cls-11" cx="128.12" cy="459.23" r="1.78"/><path class="cls-12" d="M437.66,375a7.14,7.14,0,0,1-6.84-5.2,7.13,7.13,0,0,1,1-5.95L455.94,329c-.34-.25-.67-.51-1-.79a17.55,17.55,0,1,1,22.83-26.65h0a17.55,17.55,0,0,1-17.53,29.77l-16,39.27a7.11,7.11,0,0,1-6.59,4.43Zm28.71-76.58a16.44,16.44,0,0,0-10.7,28.93c.42.36.88.71,1.34,1l.45.32-24.73,35.78a6,6,0,1,0,10.49,5.68l16.42-40.29.52.21a16.44,16.44,0,1,0,6.21-31.66Z"/><path class="cls-12" d="M475.78,300.12a3.66,3.66,0,1,1,2.78-1.28A3.63,3.63,0,0,1,475.78,300.12Zm0-6.21a2.55,2.55,0,0,0-1.66,4.49,2.54,2.54,0,0,0,3.59-.28h0a2.49,2.49,0,0,0,.61-1.85,2.56,2.56,0,0,0-2.54-2.36Z"/><rect class="cls-12" x="177.11" y="121.2" width="52.77" height="52.77" transform="translate(43.24 -46.09) rotate(14.44)"/><path class="cls-3" d="M207.21,158.9l-.38-3.46-10.21-2.63-2,2.91a11.36,11.36,0,0,1-1.85,2.23,1.94,1.94,0,0,1-1.8.24,2.46,2.46,0,0,1-1.51-1.13,2.25,2.25,0,0,1-.33-1.79,3.6,3.6,0,0,1,.45-1q.31-.51,1-1.38l10.62-14.65,1.09-1.52a9.18,9.18,0,0,1,1.24-1.42,3.55,3.55,0,0,1,1.42-.76,4.2,4.2,0,0,1,3.53.91,3.6,3.6,0,0,1,.88,1.33,7.47,7.47,0,0,1,.38,1.55c.08.54.17,1.25.27,2.14l2.38,17.89a8.45,8.45,0,0,1,.08,2.89,2.3,2.3,0,0,1-1.14,1.41,2.5,2.5,0,0,1-1.94.28,2.57,2.57,0,0,1-1-.48,2.25,2.25,0,0,1-.56-.77,5.11,5.11,0,0,1-.34-1.29C207.35,159.82,207.27,159.33,207.21,158.9Zm-8.27-9.56,7.5,1.93-1.12-11.34Z"/><rect class="cls-5" x="91.09" y="62.57" width="52.77" height="52.77" transform="translate(-28.15 66.44) rotate(-28.35)"/><path class="cls-11" d="M123.93,100.2,117,104a3.25,3.25,0,0,1-2.52.49,3.43,3.43,0,0,1-1.81-1.81l-9.25-17.15a3.4,3.4,0,0,1-.51-2.52,3.33,3.33,0,0,1,1.78-1.82l7.39-4A19.77,19.77,0,0,1,115,75.84a6.86,6.86,0,0,1,2.57-.38,6.37,6.37,0,0,1,2.09.45A6.13,6.13,0,0,1,121.47,77a6.31,6.31,0,0,1,1.35,1.71,6,6,0,0,1-.72,6.86q5.27-1,7.5,3.15a7.1,7.1,0,0,1,.88,4,6.68,6.68,0,0,1-1.42,3.69A10.7,10.7,0,0,1,127,98.32,27.75,27.75,0,0,1,123.93,100.2ZM108.34,83.64l3.19,5.9,4.23-2.29a9.8,9.8,0,0,0,2.49-1.76,2.89,2.89,0,0,0,.77-2,3.26,3.26,0,0,0-.4-1.68,2.58,2.58,0,0,0-2.47-1.63,10.66,10.66,0,0,0-4.06,1.46Zm9.78,6.62-4.81,2.59,3.6,6.66,5-2.68q4.68-2.52,2.86-5.9a3.12,3.12,0,0,0-2.56-1.85A7.74,7.74,0,0,0,118.12,90.26Z"/><rect class="cls-3" x="177.11" y="25.27" width="52.77" height="52.77" transform="translate(112.05 -137.33) rotate(49.94)"/><path class="cls-5" d="M207.28,63.57a6.92,6.92,0,0,1-2.44,1.26,9.42,9.42,0,0,1-3.4.35,9.88,9.88,0,0,1-3.88-1.1A12.12,12.12,0,0,1,193.85,61a16.37,16.37,0,0,1-2.1-3.11,10.28,10.28,0,0,1-1-3.11,10,10,0,0,1,0-3.32,12.75,12.75,0,0,1,1-3.1,14.16,14.16,0,0,1,1.77-2.91A17,17,0,0,1,196,42.84a15.8,15.8,0,0,1,4.87-2.91,11.92,11.92,0,0,1,4.92-.73,11.33,11.33,0,0,1,4.61,1.32,12.72,12.72,0,0,1,3.83,3.13,12.07,12.07,0,0,1,2.65,5.09,10.21,10.21,0,0,1,.05,4.88,6.09,6.09,0,0,1-1.83,3.25,2.26,2.26,0,0,1-1.63.54,2,2,0,0,1-1.52-.73,2.14,2.14,0,0,1-.6-1.47,6.38,6.38,0,0,1,.53-1.92,7.79,7.79,0,0,0,.65-3.7,5.8,5.8,0,0,0-1.47-3.23A6.17,6.17,0,0,0,205.91,44q-3.12.11-6.59,3a13.08,13.08,0,0,0-3.3,3.89,6.29,6.29,0,0,0-.74,3.77,6.68,6.68,0,0,0,1.58,3.43,6.36,6.36,0,0,0,3.33,2.2,6.8,6.8,0,0,0,4-.31,5.46,5.46,0,0,1,1.81-.44,1.86,1.86,0,0,1,1.52.8A2.26,2.26,0,0,1,208.1,62,2.16,2.16,0,0,1,207.28,63.57Z"/><path class="cls-15" d="M401.05,313.73a11.23,11.23,0,1,1,11.22-11.22A11.23,11.23,0,0,1,401.05,313.73Zm0-18.29a7.07,7.07,0,1,0,7.07,7.07A7.07,7.07,0,0,0,401.05,295.44Z"/><rect class="cls-15" x="391.91" y="300.43" width="18.29" height="4.16"/><path class="cls-12" d="M470,636.34a1.09,1.09,0,0,1-.43-.08L419.23,618a1.28,1.28,0,0,1-.82-1,1.26,1.26,0,0,1,.44-1.19l41-34.46a1.26,1.26,0,0,1,1.25-.23,1.3,1.3,0,0,1,.82,1l9.35,52.72a1.26,1.26,0,0,1-.43,1.19A1.24,1.24,0,0,1,470,636.34Zm-47.83-20,46.2,16.75-8.59-48.38Z"/><circle class="cls-3" cx="408.61" cy="670.23" r="19.83"/><path class="cls-5" d="M480.25,729.13a1.8,1.8,0,0,1-.68-.14,1.75,1.75,0,0,1-.93-.94L464.5,692.92a1.74,1.74,0,0,1,1-2.25l35.12-14.13a1.72,1.72,0,0,1,2.25,1L517,712.62a1.73,1.73,0,0,1,0,1.32,1.77,1.77,0,0,1-1,.93L480.89,729A1.59,1.59,0,0,1,480.25,729.13Zm-11.89-35.89,12.84,31.91,31.92-12.85-12.85-31.91Z"/><path class="cls-12" d="M467.83,114.61l-3.66,33.3L447.42,156a12.92,12.92,0,0,0-6.07,17.11h0A12.92,12.92,0,0,0,459.27,179L482.82,166a14.19,14.19,0,0,0,7.27-10.89l4.15-37.61Z"/><path class="cls-5" d="M444.61,157.86a12.92,12.92,0,0,0,14,21.44Z"/><path class="cls-5" d="M478.81,161.31a13.53,13.53,0,0,0,.85,6.45l3.16-1.74a14.19,14.19,0,0,0,7.27-10.89l.65-5.85A13.6,13.6,0,0,0,478.81,161.31Z"/><rect class="cls-5" x="479.87" y="110.06" width="0.73" height="26.56" transform="matrix(0.11, -0.99, 0.99, 0.11, 305.06, 587.19)"/><path class="cls-12" d="M276.15,595.41l-21.51,25.68-18.43-2.52a12.92,12.92,0,0,0-14.53,10.88h0a12.91,12.91,0,0,0,11.68,14.78l26.78,2.28a14.2,14.2,0,0,0,12.09-5l24.29-29Z"/><path class="cls-5" d="M232.85,618.55a12.91,12.91,0,0,0-.22,25.6Z"/><path class="cls-5" d="M259.41,640.36a13.61,13.61,0,0,0-2.87,5.84l3.6.31a14.2,14.2,0,0,0,12.09-5L276,637A13.62,13.62,0,0,0,259.41,640.36Z"/><rect class="cls-5" x="281.26" y="596.27" width="0.73" height="26.56" transform="translate(-366.54 434.2) rotate(-50.06)"/><path class="cls-5" d="M482.63,494.36a4,4,0,0,0-2.35-5.28L457.38,481a2.85,2.85,0,0,0-2.32,5.18l.17.09,22,10.23a4,4,0,0,0,5.36-2.1Zm-27.21-8.55a2.38,2.38,0,0,1,1.8-4.41l19.94,7.06-.63,1.51.77.31a1.34,1.34,0,0,1,.74.74,1.3,1.3,0,0,1,0,1,.79.79,0,0,0,.43,1l.45.18A.78.78,0,0,1,479,493a1,1,0,1,1,.54,1.29l-1.36-.64h0l-.06,0a1.38,1.38,0,0,1-.61-1.72.81.81,0,0,0,0-.61.76.76,0,0,0-.43-.43l-.76-.32-1.73,4.21Z"/></g></g></g></svg>