<svg xmlns="http://www.w3.org/2000/svg" viewBox="0 0 600 750"><defs><style>.cls-1{fill:#a3cbcc;}.cls-2,.cls-6{fill:#fff;}.cls-2{opacity:0.24;}.cls-3{fill:#40bead;}.cls-4{fill:#fcc74a;}.cls-5{fill:#f969a4;}.cls-7{fill:#fbbc23;}.cls-8{opacity:0.63;}</style></defs><title>Event Management</title><g id="Layer_2" data-name="Layer 2"><g id="Layer_1-2" data-name="Layer 1"><rect class="cls-1" width="600" height="750"/><path class="cls-2" d="M294.84,344C137.57,344,10.07,471.45,10.07,628.73H579.61C579.61,471.45,452.12,344,294.84,344Z"/><rect class="cls-3" x="93.34" y="571.3" width="158.24" height="57.43"/><rect class="cls-4" x="344.01" y="533.5" width="152.34" height="95.23"/><rect class="cls-5" x="227.68" y="484.81" width="134.33" height="143.91"/><path class="cls-6" d="M550.71,630.13H10.07a1.4,1.4,0,0,1,0-2.8H550.71a1.4,1.4,0,0,1,0,2.8Z"/><path class="cls-6" d="M270.58,630.35h0a9.67,9.67,0,0,0-12.1,6.38L250,664.05l-9.49-2.94,8.35-26.89h0l18.49-59.6a8,8,0,0,0-5.29-10h0a8,8,0,0,0-10,5.29l-17.47,56.32-5.23-1.63L248,564.42a8,8,0,0,0-5.29-10h0a8,8,0,0,0-10,5.29L214,619.81l-5.23-1.62L224.36,568a8,8,0,0,0-5.28-10h0A8,8,0,0,0,209,563.23l-15.57,50.2-5.23-1.62,13.37-43.09a8,8,0,0,0-5.29-10.05h0a8,8,0,0,0-10,5.29L172.9,607.05l-3,9.63L152.2,673.79h0L128.55,750h61.89l18.21-58.7,12.56,3.9a37.61,37.61,0,0,0,47.07-24.78l8.67-28A9.67,9.67,0,0,0,270.58,630.35Z"/><path class="cls-6" d="M233.16,276.52h0a1,1,0,0,1,1,1v5.56h.68v-6.48a1,1,0,0,1,1-1h0a1,1,0,0,1,1,1v6.48h.67v-7.71a1,1,0,0,1,.94-1,1,1,0,0,1,1,1v7.76h.67v-7.21a1,1,0,0,1,.94-1,1,1,0,0,1,1,1v7.69h0V287h1.22v-3.47a1.22,1.22,0,0,1,1.07-1.24,1.19,1.19,0,0,1,1.31,1.19v3.5a4.77,4.77,0,0,1-1.16,3.17,4.6,4.6,0,0,1-3.47,1.57h-7.26a1.64,1.64,0,0,1-1.64-1.65V277.51A1,1,0,0,1,233.16,276.52Z"/><path class="cls-6" d="M353.88,750,295.37,621.62l-4.81-9.74a8.35,8.35,0,1,1,15.18-7l4.52,9.13,3.47-1.58-7.45-15.56A8.35,8.35,0,1,1,321.47,590l7.46,15.57L332.4,604l-11.58-24.6a8.35,8.35,0,0,1,15.2-6.93L347.6,597l3.47-1.58-23-50.49a8.36,8.36,0,0,1,4.14-11.06,8.26,8.26,0,0,1,6.38-.23,8.35,8.35,0,0,1,4.68,4.36l24.95,54.76h0l10.55,23.13,7.33-3.34-11-24.17a9.92,9.92,0,0,1,18.05-8.23l11.57,25.39A36.53,36.53,0,0,1,386.57,654l-10.77,4.91L417.32,750h-1.54l-41.84-91.78L386,652.73a35.15,35.15,0,0,0,17.4-46.56l-11.57-25.39a8.52,8.52,0,0,0-15.5,7.07l11.6,25.45L378,617.8l-11.71-25.69,0,0L342,538.63a6.95,6.95,0,1,0-12.64,5.76l23.59,51.77-6,2.74L334.74,573a6.94,6.94,0,1,0-12.64,5.75l12.17,25.88-6,2.74-8.06-16.83a6.95,6.95,0,1,0-12.65,5.75l8.06,16.84-6,2.74-5.12-10.36a7,7,0,1,0-12.66,5.74l4.82,9.74,58.78,129Z"/><path class="cls-6" d="M79.44,750H78l32.92-155.7,2.29-9.35a6.07,6.07,0,0,0-4.67-7.15,6.05,6.05,0,0,0-7.17,4.67l-2.45,10-5.87-1.24L96.8,575.1A6,6,0,0,0,85,572.61l-3.73,16.13-5.87-1.24,5.54-24.72a6,6,0,0,0-4.67-7.16,6,6,0,0,0-7.16,4.67L63.52,585l-5.86-1.24,10.4-49.19a6,6,0,0,0-11.83-2.51L45.52,582.7l-.12.7-5,23.85-9.55-2L35.93,581a7.43,7.43,0,0,0-14.54-3.08L16.3,602a30.94,30.94,0,0,0,23.86,36.66l11.51,2.43L28.64,750H27.21L50,642.19l-10.13-2.14a32.32,32.32,0,0,1-24.94-38.32L20,577.64a8.84,8.84,0,0,1,17.29,3.66l-4.84,22.85,6.8,1.44,15.58-73.83a7.45,7.45,0,1,1,14.58,3.09L59.32,582.67l3.14.66L67.7,560a7.45,7.45,0,1,1,14.57,3.09L77,586.42l3.13.66,3.42-14.78a7.44,7.44,0,0,1,8.83-5.73,7.45,7.45,0,0,1,5.75,8.83l-3.42,14.76,3.14.67,2.12-8.67a7.45,7.45,0,1,1,14.57,3.1l-2.28,9.35Z"/><polygon class="cls-6" points="267.61 330.19 274.31 370.25 265.86 393.38 308.29 393.38 302.02 363.93 315.88 330.19 267.61 330.19"/><path class="cls-6" d="M334.55,342.44H298.89V330.19h35.66a4.65,4.65,0,0,0,4.66-4.66V304.35a5.8,5.8,0,0,1,5.81-5.8h6.44v27A16.91,16.91,0,0,1,334.55,342.44Z"/><path class="cls-6" d="M284.19,342.44H248.52a16.9,16.9,0,0,1-16.9-16.9V304.86a6.31,6.31,0,0,1,6.31-6.31h5.94v27a4.65,4.65,0,0,0,4.65,4.66h35.67Z"/><rect class="cls-6" x="270.23" y="398.15" width="14.59" height="86.66"/><path class="cls-6" d="M291.89,477.48h16.88a5.79,5.79,0,0,1,5.79,5.79v1.63a0,0,0,0,1,0,0H291.89a0,0,0,0,1,0,0v-7.41A0,0,0,0,1,291.89,477.48Z"/><path class="cls-6" d="M259.46,477.4h22.66a0,0,0,0,1,0,0V479a5.79,5.79,0,0,1-5.79,5.79H259.46a0,0,0,0,1,0,0V477.4A0,0,0,0,1,259.46,477.4Z" transform="translate(541.58 962.22) rotate(180)"/><polygon class="cls-6" points="291.89 472.5 307.94 472.5 303.34 398.15 291.89 398.15 291.89 472.5"/><path class="cls-6" d="M281.45,308.62A9.58,9.58,0,0,1,291,299h0a9.58,9.58,0,0,1,9.59,9.58v11.3a3.64,3.64,0,0,1-4.54,3.52l-9.41-2.4a6.94,6.94,0,0,1-5.22-6.72v-4.4"/><circle class="cls-6" cx="273.18" cy="300.17" r="10.35"/><polygon class="cls-6" points="284.08 313.02 284.08 340.96 298.21 340.96 292.85 318.76 284.08 313.02"/><polygon class="cls-1" points="295.73 330.19 289.21 336.71 295.53 336.71 295.73 330.19"/><polygon class="cls-1" points="284.08 330.19 290.6 336.71 284.28 336.71 284.08 330.19"/><rect class="cls-1" x="289.03" y="336.71" width="0.35" height="49.19"/><path class="cls-6" d="M400.22,525H426a0,0,0,0,1,0,0v0a8.45,8.45,0,0,1-8.45,8.45H400.22a0,0,0,0,1,0,0V525A0,0,0,0,1,400.22,525Z" transform="translate(826.27 1058.55) rotate(180)"/><path class="cls-6" d="M424.28,525h25.83a0,0,0,0,1,0,0v0a8.45,8.45,0,0,1-8.45,8.45H424.28a0,0,0,0,1,0,0V525A0,0,0,0,1,424.28,525Z" transform="translate(874.39 1058.55) rotate(180)"/><rect class="cls-6" x="415.49" y="437.53" width="15.4" height="95.96"/><rect class="cls-6" x="436.51" y="437.53" width="17.76" height="95.96"/><path class="cls-6" d="M426.34,337.71h0a8.77,8.77,0,0,1,8.77,8.77v16.95a0,0,0,0,1,0,0H417.57a0,0,0,0,1,0,0V346.47A8.77,8.77,0,0,1,426.34,337.71Z"/><rect class="cls-6" x="425.06" y="352.43" width="10.05" height="20.57"/><path class="cls-6" d="M409.38,370.67H405a6.1,6.1,0,0,0-6.1,6.1v51.88h19.63V416.77h-9.68Z"/><polygon class="cls-6" points="434.82 428.65 434.82 416.76 448.71 416.76 448.71 370.67 413.13 370.67 413.13 446.41 454.27 446.41 454.27 428.65 434.82 428.65"/><path class="cls-1" d="M433.05,405.17V403.8H419.63v1.37h-4.14v.51a10.88,10.88,0,0,0,4.3,8.65,6.71,6.71,0,0,0,5.75,5.2v4.17a1.88,1.88,0,0,0-.41,3.17h-4.69v4.45h11.8v-4.45h-4.68a1.89,1.89,0,0,0-.42-3.17v-4.17a6.69,6.69,0,0,0,5.75-5.2,10.88,10.88,0,0,0,4.3-8.65v-.51Zm-16.53,1h3.11v6.67A9.9,9.9,0,0,1,416.52,406.19Zm14.7,24.11h-9.76v-2.41h9.76Zm-4.88-4a.88.88,0,0,1,0-1.75.88.88,0,1,1,0,1.75Zm6.71-13.43v-6.67h3.11A9.85,9.85,0,0,1,433.05,412.86Z"/><path class="cls-6" d="M455.18,430.05h-8.82v-1.41h8.82a3.8,3.8,0,0,0,3.8-3.79v-49a3.8,3.8,0,0,0-3.8-3.79H443.32v-1.41h11.86a5.21,5.21,0,0,1,5.2,5.2v49A5.21,5.21,0,0,1,455.18,430.05Z"/><path class="cls-6" d="M354,283.48h0a1,1,0,0,0-1.28.55l-.71,1.8-.63-.25,1.05-2.64a1,1,0,0,0-.55-1.28h0a1,1,0,0,0-1.28.55l-1.05,2.64-.63-.24,1-2.58a1,1,0,0,0-.51-1.31,1,1,0,0,0-1.31.54l-1,2.62-.63-.25,1-2.51a1,1,0,0,0-.55-1.28h0a1,1,0,0,0-1.28.55l-1.16,2.91h0l-1.28,3.22-1.13-.45,1.28-3.23a1.22,1.22,0,0,0-.62-1.57,1.19,1.19,0,0,0-1.58.65l-1.1,2.79a4.8,4.8,0,0,0-.05,3.48,4.64,4.64,0,0,0,2.61,2.62l1.2.46,4.79,1.89a2.44,2.44,0,0,0,3.17-1.37l1.62-4.08.45-1.15.71-1.8A1,1,0,0,0,354,283.48Z"/><path class="cls-7" d="M364.11,255l-1.94-1.94-19,19,1.94,1.94-5.86,5.86.72.72a21.83,21.83,0,0,0,18.32,6.15,13.44,13.44,0,0,0,15.49-.77l5.89,5.89a3.78,3.78,0,0,0,3.9,5.07L377,303.51l6.29,6.3L400,293.12l-6.3-6.29L387,293.45a3.78,3.78,0,0,0-5.07-3.9l-5.89-5.89a13.44,13.44,0,0,0,.77-15.49,21.8,21.8,0,0,0-6.15-18.32l-.72-.72Zm-21.93,24.82,4.39-4.39,9.43,9.42A19.72,19.72,0,0,1,342.18,279.81Zm54.88,13.31-13.8,13.8-3.4-3.41,13.79-13.79Zm-12.57,1.23a1.75,1.75,0,0,1-2.47,0,1.75,1.75,0,0,1,2.47-2.47A1.75,1.75,0,0,1,384.49,294.35ZM375,265.86l-9.42-9.43L370,252A19.72,19.72,0,0,1,375,265.86Z"/><path class="cls-6" d="M347.72,285.07a1,1,0,0,1-.58-1.29l.71-1.79,1.83.72-.69,1.76A1,1,0,0,1,347.72,285.07Z"/><path class="cls-6" d="M346.56,283.43a1,1,0,0,1-1.28.55,1,1,0,0,1-.56-1.28l.67-1.69,1.83.73Z"/><path class="cls-6" d="M352.94,286.18a1,1,0,0,1-.55-1.28l.38-1,1.83.72-.38,1A1,1,0,0,1,352.94,286.18Z"/><path class="cls-6" d="M350.14,286.06a1,1,0,0,1-.55-1.28l.72-1.82,1.83.73-.72,1.82A1,1,0,0,1,350.14,286.06Z"/><path class="cls-6" d="M583,589.71l-3.56-64.15-.87-15.63-1.25-22.4a12.46,12.46,0,0,0-13.13-11.75h0a12.46,12.46,0,0,0-11.75,13.14l1.24,22.39-8.48.48-1.24-22.4A12.46,12.46,0,0,0,519,490.77l1.24,22.4-8.48.47-1.24-22.4a12.46,12.46,0,1,0-24.89,1.39L486.91,515l-8.49.47-1.24-22.39A12.46,12.46,0,0,0,464,481.35h0a12.46,12.46,0,0,0-11.75,13.13l1.17,20.94a42.24,42.24,0,0,0,12,82.91l0,0,26-1.45L500,750h91.9ZM447.15,557.08a17.76,17.76,0,0,1,7.7-15.63l1.52,30.21A17.75,17.75,0,0,1,447.15,557.08Z"/><rect class="cls-6" x="92.64" y="205.37" width="10.6" height="10.6"/><rect class="cls-6" x="530.37" y="270.11" width="10.6" height="10.6"/><rect class="cls-6" x="149.59" y="247.02" width="7.41" height="7.41"/><rect class="cls-6" x="496.34" y="398.15" width="7.41" height="7.41"/><rect class="cls-6" x="579.61" y="127.77" width="7.41" height="7.41"/><rect class="cls-6" x="46.91" y="295.7" width="3.71" height="3.71"/><rect class="cls-6" x="86.4" y="401.95" width="3.71" height="3.71"/><rect class="cls-6" x="262.18" y="124.07" width="3.71" height="3.71"/><rect class="cls-6" x="452.41" y="237.2" width="3.71" height="3.71"/><path class="cls-6" d="M176.87,180.44v6h-6v-6h6m.7-.7h-7.41v7.41h7.41v-7.41Z"/><path class="cls-6" d="M440.2,287v6h-6v-6h6m.7-.71h-7.41v7.41h7.41v-7.41Z"/><path class="cls-6" d="M294.32,227.12v3h-3.05v-3h3.05m.7-.7h-4.45v4.45H295v-4.45Z"/><path class="cls-6" d="M584.84,361.2v3h-3v-3h3m.7-.7H581.1v4.44h4.44V360.5Z"/><path class="cls-6" d="M192.92,316.13v3h-3v-3h3m.71-.7h-4.45v4.44h4.45v-4.44Z"/><path class="cls-6" d="M407.36,247.61v3h-3v-3h3m.7-.7h-4.45v4.44h4.45v-4.44Z"/><path class="cls-6" d="M552.23,444.89v3h-3.05v-3h3.05m.7-.7h-4.45v4.44h4.45v-4.44Z"/><path class="cls-6" d="M99.18,118.42v3H96.13v-3h3.05m.7-.7H95.43v4.44h4.45v-4.44Z"/><path class="cls-6" d="M48.43,172.16v3.05h-3v-3.05h3m.7-.7H44.69v4.45h4.44v-4.45Z"/><path class="cls-6" d="M154,401.89h12.91a0,0,0,0,1,0,0v19.77a6.53,6.53,0,0,1-6.53,6.53h-4.88a6.53,6.53,0,0,1-6.53-6.53V406.91a5,5,0,0,1,5-5Z" transform="translate(315.83 830.07) rotate(180)"/><polygon class="cls-6" points="169.63 486.97 139.67 486.97 130.49 438.64 178.81 438.64 169.63 486.97"/><path class="cls-6" d="M153.28,476.92h5.06a27.73,27.73,0,0,1,27.73,27.73V523a0,0,0,0,1,0,0H125.55a0,0,0,0,1,0,0V504.65a27.73,27.73,0,0,1,27.73-27.73Z"/><polygon class="cls-6" points="136.72 527.61 136.72 571.3 150.85 527.61 136.72 527.61"/><polygon class="cls-6" points="159.82 527.61 159.82 571.3 173.95 527.61 159.82 527.61"/><path class="cls-6" d="M171.62,487H142.07a25.53,25.53,0,0,1-25.5-25.49v-3.63a25.53,25.53,0,0,1,25.5-25.5h29.55a25.53,25.53,0,0,1,25.5,25.5v3.63A25.53,25.53,0,0,1,171.62,487Zm-29.55-43.4a14.3,14.3,0,0,0-14.28,14.28v3.63a14.29,14.29,0,0,0,14.28,14.27h29.55a14.29,14.29,0,0,0,14.28-14.27v-3.63a14.3,14.3,0,0,0-14.28-14.28Z"/><rect class="cls-6" x="148.95" y="416.95" width="12.71" height="21.04" transform="translate(310.61 854.94) rotate(180)"/><path class="cls-1" d="M142.78,431.81V414.62A14.26,14.26,0,0,1,157,400.36h2.13a10.26,10.26,0,0,1,10.27,10.26H157.92v21.19Z"/><circle class="cls-6" cx="170.33" cy="453.8" r="9.76"/><path class="cls-1" d="M156.11,438.62a6.81,6.81,0,0,1-6.81-6.81h.35a6.46,6.46,0,1,0,12.92,0h.35A6.82,6.82,0,0,1,156.11,438.62Z"/><polygon class="cls-1" points="159.82 562.31 159.82 571.3 170.33 571.3 159.82 562.31"/><polygon class="cls-1" points="136.72 562.31 136.72 571.3 147.23 571.3 136.72 562.31"/><g class="cls-8"><path class="cls-1" d="M162.61,460.2V459H149.36v1.24h-4.09v.46a9.56,9.56,0,0,0,4.25,7.8,6.43,6.43,0,0,0,5.67,4.69v3.76a1.7,1.7,0,0,0-1.08,1.54,1.67,1.67,0,0,0,.67,1.32h-4.62v4h11.65v-4h-4.63a1.68,1.68,0,0,0,.68-1.32,1.7,1.7,0,0,0-1.09-1.54v-3.76a6.44,6.44,0,0,0,5.68-4.69,9.58,9.58,0,0,0,4.25-7.8v-.46Zm-16.32.92h3.07v6A8.57,8.57,0,0,1,146.29,461.12Zm14.51,21.74h-9.63v-2.17h9.63ZM156,479.24a.79.79,0,1,1,0-1.58.79.79,0,1,1,0,1.58Zm6.63-12.11v-6h3.07A8.65,8.65,0,0,1,162.61,467.13Z"/></g><rect class="cls-6" x="432.81" y="63.25" width="7.41" height="7.41" transform="translate(369.55 503.47) rotate(-90)"/><rect class="cls-6" x="323.32" y="85.29" width="3.71" height="3.71" transform="translate(238.04 412.32) rotate(-90)"/><rect class="cls-6" x="257.9" y="39" width="3.71" height="3.71" transform="translate(218.9 300.61) rotate(-90)"/><path class="cls-6" d="M164.63,80.43v6h-6v-6h6m.7-.7h-7.41v7.41h7.41V79.73Z"/><path class="cls-6" d="M193.82,124v3h-3v-3h3m.7-.7h-4.45v4.44h4.45v-4.44Z"/><path class="cls-6" d="M309.46,166.51v3.05h-3v-3.05h3m.7-.7h-4.45v4.45h4.45v-4.45Z"/><rect class="cls-6" x="522.96" y="164.33" width="7.41" height="7.41" transform="translate(694.7 -358.63) rotate(90)"/><rect class="cls-6" x="469.13" y="115.29" width="3.71" height="3.71" transform="translate(588.12 -353.84) rotate(90)"/><rect class="cls-6" x="62.63" y="40.85" width="3.71" height="3.71" transform="translate(107.19 -21.78) rotate(90)"/><rect class="cls-6" x="372.63" y="154.71" width="3.71" height="3.71" transform="translate(531.04 -217.92) rotate(90)"/></g></g></svg>