<svg id="Layer_1" data-name="Layer 1" xmlns="http://www.w3.org/2000/svg" xmlns:xlink="http://www.w3.org/1999/xlink" viewBox="0 0 253.7 211.99"><defs><style>.cls-1{fill:#fff;}.cls-10,.cls-2{fill:none;stroke:#fff;stroke-miterlimit:10;}.cls-2{stroke-width:2.56px;}.cls-3{fill:url(#linear-gradient);}.cls-4,.cls-9{fill:#40bead;}.cls-5{fill:url(#linear-gradient-2);}.cls-6{fill:url(#linear-gradient-3);}.cls-7{fill:url(#linear-gradient-4);}.cls-8{fill:url(#linear-gradient-5);}.cls-9{opacity:0.67;}.cls-10{stroke-width:3px;}.cls-11{opacity:0.57;}.cls-12{fill:url(#linear-gradient-6);}.cls-13{fill:url(#linear-gradient-7);}.cls-14{fill:url(#linear-gradient-8);}.cls-15{fill:url(#linear-gradient-9);}.cls-16{fill:url(#linear-gradient-10);}.cls-17{fill:url(#linear-gradient-12);}</style><linearGradient id="linear-gradient" x1="12.42" y1="263.53" x2="202.42" y2="115.53" gradientUnits="userSpaceOnUse"><stop offset="0" stop-color="#fff"/><stop offset="1" stop-color="#fff" stop-opacity="0"/></linearGradient><linearGradient id="linear-gradient-2" x1="177.86" y1="58.1" x2="177.2" y2="158.76" xlink:href="#linear-gradient"/><linearGradient id="linear-gradient-3" x1="215.43" y1="79.17" x2="210.1" y2="169.84" gradientUnits="userSpaceOnUse"><stop offset="0" stop-color="#fff"/><stop offset="0.96" stop-color="#fff" stop-opacity="0"/></linearGradient><linearGradient id="linear-gradient-4" x1="67" y1="110.26" x2="65.22" y2="140.38" xlink:href="#linear-gradient-3"/><linearGradient id="linear-gradient-5" x1="52.55" y1="120.05" x2="51.37" y2="140.27" xlink:href="#linear-gradient-3"/><linearGradient id="linear-gradient-6" x1="150.37" y1="127.02" x2="150.37" y2="82.68" xlink:href="#linear-gradient"/><linearGradient id="linear-gradient-7" x1="150.86" y1="127.02" x2="150.86" y2="82.68" xlink:href="#linear-gradient"/><linearGradient id="linear-gradient-8" x1="151.47" y1="127.02" x2="151.47" y2="82.68" xlink:href="#linear-gradient"/><linearGradient id="linear-gradient-9" x1="153.26" y1="127.02" x2="153.26" y2="82.68" xlink:href="#linear-gradient"/><linearGradient id="linear-gradient-10" x1="149.25" y1="127.02" x2="149.25" y2="82.68" xlink:href="#linear-gradient"/><linearGradient id="linear-gradient-12" x1="147.64" y1="127.02" x2="147.64" y2="82.68" xlink:href="#linear-gradient"/></defs><title>frame</title><path class="cls-1" d="M246.91,50.77V205.2H6.79V50.77H246.91M253.7,44H0V212H253.7V44Z"/><polyline class="cls-2" points="73.7 48.6 130.09 3.89 182.14 48.6"/><circle class="cls-1" cx="129.3" cy="5.34" r="5.34"/><path class="cls-3" d="M20.64,156.8c56.06-40.65,91.85-1.39,111.16,6.2,30.49,12,36.34-19.93,96.22-4.94l5,33.93H20.64Z"/><polygon class="cls-4" points="62.61 185.01 50.41 174.08 59.03 174.08 50.22 163.35 55.37 163.35 47.04 150.41 38.7 163.35 43.85 163.35 35.05 174.08 43.66 174.08 31.47 185.01 45.66 185.01 45.66 191.02 48.41 191.02 48.41 185.01 62.61 185.01"/><polygon class="cls-5" points="198.35 150.82 181.82 136 193.5 136 181.56 121.47 188.55 121.47 177.25 103.93 165.95 121.47 172.94 121.47 161 136 172.68 136 156.15 150.82 175.39 150.82 175.39 158.96 179.11 158.96 179.11 150.82 198.35 150.82"/><polygon class="cls-6" points="235.61 159.25 216.11 141.76 229.89 141.76 215.81 124.62 224.05 124.62 210.72 103.93 197.39 124.62 205.63 124.62 191.55 141.76 205.32 141.76 185.83 159.25 208.53 159.25 208.53 168.85 212.91 168.85 212.91 159.25 235.61 159.25"/><polygon class="cls-7" points="73.7 136.87 67.22 131.06 71.8 131.06 67.12 125.36 69.86 125.36 65.43 118.49 61 125.36 63.74 125.36 59.06 131.06 63.64 131.06 57.16 136.87 64.7 136.87 64.7 140.05 66.16 140.05 66.16 136.87 73.7 136.87"/><polygon class="cls-8" points="57.06 137.91 52.71 134.01 55.78 134.01 52.64 130.19 54.48 130.19 51.5 125.58 48.53 130.19 50.37 130.19 47.23 134.01 50.3 134.01 45.95 137.91 51.02 137.91 51.02 140.05 51.99 140.05 51.99 137.91 57.06 137.91"/><polygon class="cls-9" points="116.14 180.75 95.28 162.04 110.02 162.04 94.96 143.7 103.77 143.7 89.51 121.58 75.25 143.7 84.06 143.7 69 162.04 83.74 162.04 62.88 180.75 87.16 180.75 87.16 191.02 91.86 191.02 91.86 180.75 116.14 180.75"/><path class="cls-1" d="M230.06,67V189H23.64V67H230.06m3-3H20.64V192H233.06V64Z"/><circle class="cls-1" cx="55.78" cy="98.24" r="8.74"/><polyline class="cls-10" points="143.86 165.7 143.86 136.39 181.82 136.39 181.82 155.63"/><polygon class="cls-1" points="135.13 137.39 189.98 137.39 163 121.15 135.13 137.39"/><rect class="cls-1" x="167.97" y="142.31" width="6.17" height="6.17"/><rect class="cls-1" x="153.07" y="142.31" width="6.17" height="6.17"/><rect class="cls-1" x="153.07" y="152.87" width="6.17" height="6.17"/><g class="cls-11"><path class="cls-12" d="M149.85,117.19v2.08a1,1,0,0,0,0-2.08Z"/><path class="cls-13" d="M149.92,111.88v3.74a1.87,1.87,0,0,0,0-3.74Z"/><path class="cls-14" d="M149.92,104.16v6.18a3.09,3.09,0,0,0,0-6.18Z"/><path class="cls-15" d="M149.92,84V97.31a6.68,6.68,0,1,0,0-13.36Z"/><path class="cls-16" d="M149.89,117.93v-2.56a1.28,1.28,0,1,0,0,2.56Z"/><path class="cls-16" d="M149.89,112.53V110a1.28,1.28,0,1,0,0,2.56Z"/><path class="cls-17" d="M149.89,104.81v-9a4.52,4.52,0,0,0,0,9Z"/></g><rect class="cls-1" x="148.17" y="121.58" width="5.57" height="11.24"/></svg>