<svg xmlns="http://www.w3.org/2000/svg" xmlns:xlink="http://www.w3.org/1999/xlink" viewBox="0 0 600 750"><defs><style>.cls-1{fill:#fcc74a;}.cls-2{fill:#fff;}.cls-3{fill:url(#linear-gradient);}.cls-4{fill:#474747;}.cls-5{fill:#18b29f;}.cls-6{fill:#ee2375;}.cls-7{fill:#a3cbcc;}</style><linearGradient id="linear-gradient" x1="392.55" y1="450.57" x2="496.97" y2="637.53" gradientUnits="userSpaceOnUse"><stop offset="0" stop-color="#fff"/><stop offset="1" stop-color="#fff" stop-opacity="0"/></linearGradient></defs><title>Gardening &amp;amp; Horticulture</title><g id="Layer_2" data-name="Layer 2"><g id="Layer_1-2" data-name="Layer 1"><rect class="cls-1" width="600" height="750"/><path class="cls-2" d="M560.35,267.58a5.36,5.36,0,1,1,5.36-5.36A5.36,5.36,0,0,1,560.35,267.58Zm0-9.23a3.87,3.87,0,1,0,3.86,3.87A3.87,3.87,0,0,0,560.35,258.35Z"/><path class="cls-2" d="M418.71,317.68a5.36,5.36,0,1,1,5.36-5.36A5.37,5.37,0,0,1,418.71,317.68Zm0-9.23a3.87,3.87,0,1,0,3.87,3.87A3.87,3.87,0,0,0,418.71,308.45Z"/><path class="cls-2" d="M555.73,466.08a5.36,5.36,0,1,1,5.36-5.36A5.37,5.37,0,0,1,555.73,466.08Zm0-9.23a3.87,3.87,0,1,0,3.87,3.87A3.88,3.88,0,0,0,555.73,456.85Z"/><path class="cls-2" d="M280.6,249.48a2.68,2.68,0,1,1,2.68-2.68A2.69,2.69,0,0,1,280.6,249.48Zm0-4.61a1.94,1.94,0,1,0,1.94,1.93A1.94,1.94,0,0,0,280.6,244.87Z"/><path class="cls-2" d="M362.18,376.07a2.68,2.68,0,1,1,2.68-2.68A2.69,2.69,0,0,1,362.18,376.07Zm0-4.61a1.93,1.93,0,1,0,1.94,1.93A1.93,1.93,0,0,0,362.18,371.46Z"/><path class="cls-2" d="M248.73,581.59a10,10,0,1,1,10-10A10,10,0,0,1,248.73,581.59Zm0-18.52a8.52,8.52,0,1,0,8.52,8.51A8.52,8.52,0,0,0,248.73,563.07Z"/><path class="cls-3" d="M408.48,488.75V601.33H528.64A112.59,112.59,0,0,0,416.06,488.75Z"/><path class="cls-4" d="M435.12,654.92v20.13h-7.74l-.23,1.21-13.69,72.25h-66.1l-13.69-72.25-.23-1.21h-7.75V654.92H435.12m1.49-1.49H324.2v23.11h8L346.12,750H414.7l13.91-73.46h8V653.43Z"/><rect class="cls-5" x="458.5" y="409.66" width="2.98" height="192.89"/><path class="cls-6" d="M422.56,388.51c8.47,0,16.09,5.51,20,8.9-3.89,3.39-11.5,8.9-20,8.9s-16.08-5.51-20-8.9c3.9-3.39,11.51-8.9,20-8.9m0-3.9c-14.13,0-25.6,12.8-25.6,12.8s11.47,12.8,25.6,12.8,25.6-12.8,25.6-12.8-11.46-12.8-25.6-12.8Z"/><path class="cls-6" d="M441.74,407.48h0c1.55,0,2.95.08,4.13.19-1.15,5-4.08,14-10.93,18.94-5.38,3.91-12.35,4.73-17.26,4.73-1.54,0-2.94-.08-4.13-.19,1.16-5,4.08-14,10.93-18.94,5.38-3.91,12.36-4.73,17.26-4.73m0-3.9c-5.79,0-13.44,1-19.55,5.47C410.75,417.36,409,434.46,409,434.46a45.77,45.77,0,0,0,8.68.78c5.8,0,13.44-1,19.56-5.48,11.43-8.31,13.18-25.4,13.18-25.4a45.77,45.77,0,0,0-8.68-.78Z"/><path class="cls-6" d="M454.61,414c2,4.73,4.91,13.65,2.28,21.74S446.67,449.36,442.25,452c-2-4.73-4.92-13.65-2.29-21.74s10.22-13.6,14.65-16.25m1.73-5.35s-15.72,6.94-20.09,20.39,4.26,28.3,4.26,28.3,15.72-6.94,20.09-20.39-4.26-28.3-4.26-28.3Z"/><path class="cls-6" d="M465.39,414c4.43,2.65,12,8.19,14.63,16.25s-.27,17-2.3,21.75c-4.42-2.64-12-8.16-14.63-16.26s.27-17,2.3-21.74m-1.74-5.35S455,423.51,459.38,437s20.09,20.39,20.09,20.39,8.63-14.85,4.26-28.3-20.08-20.39-20.08-20.39Z"/><path class="cls-6" d="M478.24,403.58v3.9c4.91,0,11.88.82,17.26,4.73,6.85,5,9.78,13.91,10.93,18.94-1.18.11-2.59.19-4.13.19-4.91,0-11.88-.82-17.26-4.73-6.85-5-9.78-13.91-10.93-18.94,1.18-.11,2.59-.19,4.13-.19v-3.9m0,0a45.77,45.77,0,0,0-8.68.78s1.75,17.09,13.19,25.4c6.11,4.45,13.75,5.48,19.55,5.48a45.77,45.77,0,0,0,8.68-.78s-1.75-17.1-13.19-25.41c-6.11-4.44-13.76-5.47-19.55-5.47Z"/><path class="cls-6" d="M497.42,388.51c8.47,0,16.09,5.51,20,8.91-3.88,3.39-11.47,8.89-20,8.89s-16.08-5.51-20-8.9c3.89-3.39,11.5-8.9,20-8.9m0-3.9c-14.14,0-25.6,12.8-25.6,12.8s11.46,12.8,25.6,12.8,25.6-12.8,25.6-12.8-11.46-12.8-25.6-12.8Z"/><path class="cls-6" d="M502.3,363.48h0c1.55,0,3,.08,4.14.19-1.14,5-4.05,13.93-10.94,18.94-5.38,3.91-12.36,4.73-17.26,4.73-1.55,0-3-.08-4.14-.19,1.14-5,4-13.93,10.94-18.94,5.38-3.91,12.35-4.73,17.26-4.73m0-3.9c-5.8,0-13.44,1-19.55,5.48-11.44,8.31-13.19,25.4-13.19,25.4a45.77,45.77,0,0,0,8.68.78c5.79,0,13.44-1,19.55-5.47,11.44-8.31,13.19-25.41,13.19-25.41a45.77,45.77,0,0,0-8.68-.78Z"/><path class="cls-6" d="M477.73,342.82c2,4.75,4.91,13.69,2.29,21.75s-10.21,13.59-14.63,16.24c-2-4.75-4.91-13.69-2.3-21.74s10.21-13.6,14.64-16.25m1.74-5.35s-15.72,6.94-20.09,20.39,4.27,28.3,4.27,28.3,15.71-6.94,20.08-20.39-4.26-28.3-4.26-28.3Z"/><path class="cls-6" d="M442.26,342.81c4.42,2.64,12,8.16,14.63,16.26s-.27,17-2.29,21.74c-4.43-2.65-12-8.19-14.64-16.24s.27-17,2.3-21.76m-1.75-5.34s-8.63,14.85-4.26,28.3,20.09,20.39,20.09,20.39,8.63-14.85,4.26-28.3-20.09-20.39-20.09-20.39Z"/><path class="cls-6" d="M417.69,359.58v3.9c4.9,0,11.87.82,17.25,4.73,6.85,5,9.78,13.91,10.93,18.94-1.18.11-2.59.19-4.13.19-4.9,0-11.88-.82-17.26-4.73-6.85-5-9.77-13.91-10.93-18.94,1.19-.11,2.59-.19,4.13-.19v-3.9m0,0a45.77,45.77,0,0,0-8.68.78s1.75,17.1,13.19,25.41c6.11,4.44,13.76,5.47,19.55,5.47a45.77,45.77,0,0,0,8.68-.78s-1.75-17.09-13.18-25.4c-6.12-4.45-13.76-5.48-19.56-5.48Z"/><circle class="cls-2" cx="459.99" cy="397.41" r="22"/><circle class="cls-1" cx="459.99" cy="397.41" r="11.25"/><path class="cls-5" d="M465.37,584c-2.7,0-4.38-.13-4.64-.16l-1.92-.16.64-1.82c.37-1.06,9.39-26.12,31.7-40.54s48.86-12.35,50-12.26l1.92.17-.64,1.81c-.37,1.07-9.39,26.13-31.7,40.55C493.66,582.63,474.12,584,465.37,584ZM463,581c6.6.17,28.1-.25,46.08-11.88h0c18-11.63,27.21-31,29.76-37.14-6.6-.17-28.1.26-46.08,11.88S465.56,574.89,463,581Z"/><path class="cls-5" d="M455.83,584c-8.76,0-28.3-1.39-45.35-12.41h0c-22.3-14.42-31.32-39.48-31.7-40.55l-.64-1.81,1.92-.17c1.12-.09,27.68-2.16,50,12.26s31.33,39.48,31.7,40.54l.64,1.82-1.92.16C460.2,583.89,458.53,584,455.83,584ZM382.35,532c2.55,6.1,11.77,25.52,29.75,37.14h0c18,11.64,39.48,12.07,46.09,11.88-2.56-6.09-11.78-25.51-29.76-37.14S389,531.78,382.35,532Z"/><polygon class="cls-2" points="474.18 587.3 445.81 587.3 369.7 587.3 400.52 750 445.81 750 474.18 750 519.46 750 550.28 587.3 474.18 587.3"/><rect class="cls-7" x="362.51" y="582.51" width="194.97" height="40.08"/><path class="cls-2" d="M330.57,323.94h0a9.57,9.57,0,0,0,8.49-10.53l-3-28.13,9.77-1,3,27.69h0l1.87,22.82a7.93,7.93,0,0,0,8.74,7h0a7.94,7.94,0,0,0,7-8.74l-1.51-19.43,5.38-.58,2,19.87A8,8,0,0,0,381,340h0a7.94,7.94,0,0,0,7.05-8.74l-1.95-19.87,5.38-.58,2.34,18.5a7.94,7.94,0,0,0,8.74,7.05h0a7.94,7.94,0,0,0,7.05-8.74l-2.34-18.5,5.38-.58,1.55,11.19a7.93,7.93,0,0,0,8.74,7h0A7.93,7.93,0,0,0,430,318l-1.56-11.18-1.06-9.92L416,238.08h1L401.48,0H336.69L362.9,244.31,350,245.7a37.2,37.2,0,0,0-33,41L320,315.45A9.56,9.56,0,0,0,330.57,323.94Z"/><path class="cls-5" d="M190.07,251.87a33.81,33.81,0,1,1,46.34,11.82l-8.26-13.9A17.65,17.65,0,1,0,204,243.62Z"/><path class="cls-4" d="M281.05,278,357.1,406.13,212.86,491.75,136.81,363.63,281.05,278m1-3.81L133,362.66l78.89,132.9,149-88.46L282,274.2Z"/><polygon class="cls-4" points="211.94 496.94 211.85 494.17 407.33 488.02 397.85 472.05 277.1 456.17 277.46 453.42 399.55 469.47 412.12 490.65 211.94 496.94"/><path class="cls-4" d="M241.78,248a62.92,62.92,0,1,1-47.67,6.86A62.53,62.53,0,0,1,241.78,248m.68-2.69a65.69,65.69,0,1,0,40.26,30.12,65.47,65.47,0,0,0-40.26-30.12Z"/><path class="cls-4" d="M181.8,335.29a51.67,51.67,0,1,1,88.86-52.74L268.27,284a48.89,48.89,0,0,0-84.08,49.91Z"/><path class="cls-4" d="M367.59,305.76l6.59,11.11-49.61,29.45L318,335.21l49.61-29.45m1-3.8-54.39,32.28,9.43,15.88L378,317.84,368.56,302Z"/><polygon class="cls-2" points="143.6 240.02 1.12 0 85.59 0 172.51 206.75 143.6 240.02"/><path class="cls-5" d="M191.72,303l-7.38-12.44,4.95-2.94,13.24,22.29a8.44,8.44,0,1,0,14.52-8.62L203.82,279l5-2.94L222,298.33a8.46,8.46,0,0,0,11.58,2.95h0a8.45,8.45,0,0,0,2.95-11.58L223.3,267.41l4.95-2.94L240,284.2a8.45,8.45,0,1,0,14.53-8.62l-13.56-22.84,0,0-9.05-15.25-16.32-27.58-13.64-4.39-11.33,6.72-23.65-65.85L90.39,191.82l64.35,81.95L164.4,290l5.41,9.12,7.39,12.44A8.44,8.44,0,0,0,191.72,303Z"/><path class="cls-5" d="M330.57,323.94h0a9.57,9.57,0,0,0,8.49-10.53l-3-28.13,9.77-1,3,27.69h0l1.87,22.82a7.93,7.93,0,0,0,8.74,7h0a7.94,7.94,0,0,0,7-8.74l-1.51-19.43,5.38-.58,2,19.87A8,8,0,0,0,381,340h0a7.94,7.94,0,0,0,7.05-8.74l-1.95-19.87,5.38-.58,2.34,18.5a7.94,7.94,0,0,0,8.74,7.05h0a7.94,7.94,0,0,0,7.05-8.74l-2.34-18.5,5.38-.58,1.55,11.19a7.93,7.93,0,0,0,8.74,7h0A7.93,7.93,0,0,0,430,318l-1.56-11.18-1.06-9.92L424.76,273l-1.86-17.33,2.89-61.32L341,202.62l21.89,41.69L350,245.7a37.2,37.2,0,0,0-33,41L320,315.45A9.56,9.56,0,0,0,330.57,323.94Z"/><rect class="cls-5" x="151.72" y="654.81" width="2.34" height="70.35"/><path class="cls-5" d="M131.77,676a10.28,10.28,0,0,1-3.53-.64,10.12,10.12,0,0,1-.69-18.69,9.88,9.88,0,0,1,3.85-.91h.1l21.35-.73.9,2L139.1,672.86h-.17l.1.09a10.16,10.16,0,0,1-7.26,3.09Zm18.36-18.55-18.59.64a7.83,7.83,0,0,0-3,.71,7.79,7.79,0,0,0,.53,14.37,7.8,7.8,0,0,0,6-.22,7.91,7.91,0,0,0,2.34-1.66h0Z"/><path class="cls-5" d="M167.13,668.52a7.23,7.23,0,0,1-2.44-.44,7.11,7.11,0,0,1-2.33-1.44l-10.27-9.59.75-2,14.19-.56a6.75,6.75,0,0,1,2.55.44,7,7,0,0,1-2.45,13.61Zm-11.4-11.26,8.19,7.64a4.69,4.69,0,1,0,4.85-7.8,4.19,4.19,0,0,0-1.71-.29h-.19Z"/><rect class="cls-5" x="209.3" y="685.19" width="2.34" height="50.3"/><path class="cls-5" d="M225.57,700.69a7.59,7.59,0,0,1-3.15-.69,7.35,7.35,0,0,1-2.28-1.62l0,0-.07,0L209.61,687l.9-2,15.29.52a7.57,7.57,0,0,1,6.65,10.72,7.59,7.59,0,0,1-6.88,4.42Zm-3.75-3.93a5.3,5.3,0,0,0,1.57,1.12,5.21,5.21,0,0,0,4,.14,5.15,5.15,0,0,0,2.93-2.72,5.24,5.24,0,0,0-2.58-6.94,5.09,5.09,0,0,0-2-.47l-12.54-.43,8.56,9.26-.07.07Z"/><path class="cls-5" d="M200.28,695.32a5.37,5.37,0,0,1-5-3.49,5.36,5.36,0,0,1,3.16-6.88,5.6,5.6,0,0,1,2-.34h.23l9.91.4.75,2L204,693.87a5.34,5.34,0,0,1-3.67,1.45Zm0-8.37a2.9,2.9,0,0,0-1,.19,3,3,0,0,0-.21,5.57,3,3,0,0,0,2.31.09,3,3,0,0,0,1-.62l5.3-4.94-7.29-.29v-1.17l0,1.17Z"/><polygon class="cls-4" points="289.87 750 251.47 750 251.47 712.65 230.82 712.65 230.82 750 192.42 750 192.42 712.65 171.77 712.65 171.77 750 133.37 750 133.37 712.65 118.21 712.65 118.21 711.15 134.87 711.15 134.87 748.5 170.27 748.5 170.27 711.15 193.92 711.15 193.92 748.5 229.32 748.5 229.32 711.15 252.97 711.15 252.97 748.5 288.37 748.5 288.37 711.15 303.55 711.15 303.55 712.65 289.87 712.65 289.87 750"/><rect class="cls-4" x="134.12" y="725.15" width="36.9" height="24.1"/><rect class="cls-4" x="192.43" y="730.57" width="36.9" height="18.68"/><rect class="cls-4" x="252.22" y="719.2" width="36.9" height="30.05"/></g></g></svg>