<svg xmlns="http://www.w3.org/2000/svg" xmlns:xlink="http://www.w3.org/1999/xlink" viewBox="0 0 541.82 882.44"><defs><style>.cls-1{isolation:isolate;}.cls-2,.cls-3{fill:#a3cbcc;}.cls-172,.cls-3{mix-blend-mode:multiply;}.cls-4{fill:url(#linear-gradient);}.cls-5{fill:#fcc74a;}.cls-6{fill:#fff;}.cls-168,.cls-169,.cls-173,.cls-7,.cls-8{fill:none;stroke-miterlimit:10;}.cls-169,.cls-7{stroke:#a3cbcc;}.cls-168,.cls-169,.cls-7,.cls-8{stroke-linecap:round;}.cls-7{stroke-width:6.03px;}.cls-173,.cls-8{stroke:#fff;}.cls-8{stroke-width:9.48px;}.cls-9{opacity:0.39;}.cls-10{fill:#40bead;}.cls-11{fill:url(#linear-gradient-2);}.cls-12{fill:url(#linear-gradient-3);}.cls-13{fill:url(#linear-gradient-4);}.cls-14{fill:url(#linear-gradient-5);}.cls-15{fill:url(#linear-gradient-6);}.cls-16{fill:url(#linear-gradient-7);}.cls-17{fill:url(#linear-gradient-8);}.cls-18{fill:url(#linear-gradient-9);}.cls-19{fill:url(#linear-gradient-10);}.cls-20{fill:url(#linear-gradient-11);}.cls-21{fill:url(#linear-gradient-12);}.cls-22{fill:url(#linear-gradient-13);}.cls-23{fill:url(#linear-gradient-14);}.cls-24{fill:url(#linear-gradient-15);}.cls-25{fill:url(#linear-gradient-16);}.cls-26{fill:url(#linear-gradient-17);}.cls-27{fill:url(#linear-gradient-18);}.cls-28{fill:url(#linear-gradient-19);}.cls-29{fill:url(#linear-gradient-20);}.cls-30{fill:url(#linear-gradient-21);}.cls-31{fill:url(#linear-gradient-22);}.cls-32{fill:url(#linear-gradient-23);}.cls-33{fill:url(#linear-gradient-24);}.cls-34{fill:url(#linear-gradient-25);}.cls-35{fill:url(#linear-gradient-26);}.cls-36{fill:url(#linear-gradient-27);}.cls-37{fill:url(#linear-gradient-28);}.cls-38{fill:url(#linear-gradient-29);}.cls-39{fill:url(#linear-gradient-30);}.cls-40{fill:url(#linear-gradient-31);}.cls-41{fill:url(#linear-gradient-32);}.cls-42{fill:url(#linear-gradient-33);}.cls-43{fill:url(#linear-gradient-34);}.cls-44{fill:url(#linear-gradient-35);}.cls-45{fill:url(#linear-gradient-36);}.cls-46{fill:url(#linear-gradient-37);}.cls-47{fill:url(#linear-gradient-38);}.cls-48{fill:url(#linear-gradient-39);}.cls-49{fill:url(#linear-gradient-40);}.cls-50{fill:url(#linear-gradient-41);}.cls-51{fill:url(#linear-gradient-42);}.cls-52{fill:url(#linear-gradient-43);}.cls-53{fill:url(#linear-gradient-44);}.cls-54{fill:url(#linear-gradient-45);}.cls-55{fill:url(#linear-gradient-46);}.cls-56{fill:url(#linear-gradient-47);}.cls-57{fill:url(#linear-gradient-48);}.cls-58{fill:url(#linear-gradient-49);}.cls-59{fill:url(#linear-gradient-50);}.cls-60{fill:url(#linear-gradient-51);}.cls-61{fill:url(#linear-gradient-52);}.cls-62{fill:url(#linear-gradient-53);}.cls-63{fill:url(#linear-gradient-54);}.cls-64{fill:url(#linear-gradient-55);}.cls-65{fill:url(#linear-gradient-56);}.cls-66{fill:url(#linear-gradient-57);}.cls-67{fill:url(#linear-gradient-58);}.cls-68{fill:url(#linear-gradient-59);}.cls-69{fill:url(#linear-gradient-60);}.cls-70{fill:url(#linear-gradient-61);}.cls-71{fill:url(#linear-gradient-62);}.cls-72{fill:url(#linear-gradient-63);}.cls-73{fill:url(#linear-gradient-64);}.cls-74{fill:url(#linear-gradient-65);}.cls-75{fill:url(#linear-gradient-66);}.cls-76{fill:url(#linear-gradient-67);}.cls-77{fill:url(#linear-gradient-68);}.cls-78{fill:url(#linear-gradient-69);}.cls-79{fill:url(#linear-gradient-70);}.cls-80{fill:url(#linear-gradient-71);}.cls-81{fill:url(#linear-gradient-72);}.cls-82{fill:url(#linear-gradient-73);}.cls-83{fill:url(#linear-gradient-74);}.cls-84{fill:url(#linear-gradient-75);}.cls-85{fill:url(#linear-gradient-76);}.cls-86{fill:url(#linear-gradient-77);}.cls-87{fill:url(#linear-gradient-78);}.cls-88{fill:url(#linear-gradient-79);}.cls-89{fill:url(#linear-gradient-80);}.cls-90{fill:url(#linear-gradient-81);}.cls-91{fill:url(#linear-gradient-82);}.cls-92{fill:url(#linear-gradient-83);}.cls-93{fill:url(#linear-gradient-84);}.cls-94{fill:url(#linear-gradient-85);}.cls-95{fill:url(#linear-gradient-86);}.cls-96{fill:url(#linear-gradient-87);}.cls-97{fill:url(#linear-gradient-88);}.cls-98{fill:url(#linear-gradient-89);}.cls-99{fill:url(#linear-gradient-90);}.cls-100{fill:url(#linear-gradient-91);}.cls-101{fill:url(#linear-gradient-92);}.cls-102{fill:url(#linear-gradient-93);}.cls-103{fill:url(#linear-gradient-94);}.cls-104{fill:url(#linear-gradient-95);}.cls-105{fill:url(#linear-gradient-96);}.cls-106{fill:url(#linear-gradient-97);}.cls-107{fill:url(#linear-gradient-98);}.cls-108{fill:url(#linear-gradient-99);}.cls-109{fill:url(#linear-gradient-100);}.cls-110{fill:url(#linear-gradient-101);}.cls-111{fill:url(#linear-gradient-102);}.cls-112{fill:url(#linear-gradient-103);}.cls-113{fill:url(#linear-gradient-104);}.cls-114{fill:url(#linear-gradient-105);}.cls-115{fill:url(#linear-gradient-106);}.cls-116{fill:url(#linear-gradient-107);}.cls-117{fill:url(#linear-gradient-108);}.cls-118{fill:url(#linear-gradient-109);}.cls-119{fill:url(#linear-gradient-110);}.cls-120{fill:url(#linear-gradient-111);}.cls-121{fill:url(#linear-gradient-112);}.cls-122{fill:url(#linear-gradient-113);}.cls-123{fill:url(#linear-gradient-114);}.cls-124{fill:url(#linear-gradient-115);}.cls-125{fill:url(#linear-gradient-116);}.cls-126{fill:url(#linear-gradient-117);}.cls-127{fill:url(#linear-gradient-118);}.cls-128{fill:url(#linear-gradient-119);}.cls-129{fill:url(#linear-gradient-120);}.cls-130{fill:url(#linear-gradient-121);}.cls-131{fill:url(#linear-gradient-122);}.cls-132{fill:url(#linear-gradient-123);}.cls-133{fill:url(#linear-gradient-124);}.cls-134{fill:url(#linear-gradient-125);}.cls-135{fill:url(#linear-gradient-126);}.cls-136{fill:url(#linear-gradient-127);}.cls-137{fill:url(#linear-gradient-128);}.cls-138{fill:url(#linear-gradient-129);}.cls-139{fill:url(#linear-gradient-130);}.cls-140{fill:url(#linear-gradient-131);}.cls-141{fill:url(#linear-gradient-132);}.cls-142{fill:url(#linear-gradient-133);}.cls-143{fill:url(#linear-gradient-134);}.cls-144{fill:url(#linear-gradient-135);}.cls-145{fill:url(#linear-gradient-136);}.cls-146{fill:url(#linear-gradient-137);}.cls-147{fill:url(#linear-gradient-138);}.cls-148{fill:url(#linear-gradient-139);}.cls-149{fill:url(#linear-gradient-140);}.cls-150{fill:url(#linear-gradient-141);}.cls-151{fill:url(#linear-gradient-142);}.cls-152{fill:url(#linear-gradient-143);}.cls-153{fill:url(#linear-gradient-144);}.cls-154{fill:url(#linear-gradient-145);}.cls-155{fill:url(#linear-gradient-146);}.cls-156{fill:url(#linear-gradient-147);}.cls-157{fill:url(#linear-gradient-148);}.cls-158{fill:url(#linear-gradient-149);}.cls-159{fill:url(#linear-gradient-150);}.cls-160{fill:url(#linear-gradient-151);}.cls-161{fill:url(#linear-gradient-152);}.cls-162{fill:url(#linear-gradient-153);}.cls-163{fill:url(#linear-gradient-154);}.cls-164{fill:url(#linear-gradient-155);}.cls-165{fill:url(#linear-gradient-156);}.cls-166{fill:url(#linear-gradient-157);}.cls-167{fill:url(#linear-gradient-158);}.cls-168{stroke:#474747;stroke-width:9.15px;}.cls-169{stroke-width:5.76px;}.cls-170{fill:#f969a4;}.cls-171,.cls-172{fill:#ee2375;}.cls-173{stroke-width:4.27px;}</style><linearGradient id="linear-gradient" x1="270.91" y1="517.27" x2="270.91" y2="296.38" gradientUnits="userSpaceOnUse"><stop offset="0" stop-color="#fcc74a"/><stop offset="1" stop-color="#fbbc23" stop-opacity="0"/></linearGradient><linearGradient id="linear-gradient-2" x1="229.24" y1="314.2" x2="122.75" y2="813.68" gradientUnits="userSpaceOnUse"><stop offset="0" stop-color="#fff"/><stop offset="1" stop-color="#fff" stop-opacity="0"/></linearGradient><linearGradient id="linear-gradient-3" x1="269.99" y1="322.89" x2="163.5" y2="822.36" xlink:href="#linear-gradient-2"/><linearGradient id="linear-gradient-4" x1="248.6" y1="318.33" x2="142.11" y2="817.8" xlink:href="#linear-gradient-2"/><linearGradient id="linear-gradient-5" x1="258.28" y1="320.39" x2="151.79" y2="819.87" xlink:href="#linear-gradient-2"/><linearGradient id="linear-gradient-6" x1="238.92" y1="316.27" x2="132.43" y2="815.74" xlink:href="#linear-gradient-2"/><linearGradient id="linear-gradient-7" x1="240.19" y1="316.53" x2="133.69" y2="816.01" xlink:href="#linear-gradient-2"/><linearGradient id="linear-gradient-8" x1="209.89" y1="310.07" x2="103.39" y2="809.55" xlink:href="#linear-gradient-2"/><linearGradient id="linear-gradient-9" x1="219.56" y1="312.14" x2="113.07" y2="811.61" xlink:href="#linear-gradient-2"/><linearGradient id="linear-gradient-10" x1="306.68" y1="330.71" x2="200.18" y2="830.19" xlink:href="#linear-gradient-2"/><linearGradient id="linear-gradient-11" x1="277.64" y1="324.52" x2="171.14" y2="823.99" xlink:href="#linear-gradient-2"/><linearGradient id="linear-gradient-12" x1="190.53" y1="305.95" x2="84.03" y2="805.42" xlink:href="#linear-gradient-2"/><linearGradient id="linear-gradient-13" x1="316.35" y1="332.77" x2="209.86" y2="832.25" xlink:href="#linear-gradient-2"/><linearGradient id="linear-gradient-14" x1="297" y1="328.65" x2="190.5" y2="828.12" xlink:href="#linear-gradient-2"/><linearGradient id="linear-gradient-15" x1="148.8" y1="297.05" x2="42.3" y2="796.52" xlink:href="#linear-gradient-2"/><linearGradient id="linear-gradient-16" x1="267.96" y1="322.46" x2="161.47" y2="821.93" xlink:href="#linear-gradient-2"/><linearGradient id="linear-gradient-17" x1="287.32" y1="326.58" x2="180.82" y2="826.06" xlink:href="#linear-gradient-2"/><linearGradient id="linear-gradient-18" x1="113.09" y1="289.44" x2="6.6" y2="788.91" xlink:href="#linear-gradient-2"/><linearGradient id="linear-gradient-19" x1="326.03" y1="334.84" x2="219.54" y2="834.31" xlink:href="#linear-gradient-2"/><linearGradient id="linear-gradient-20" x1="121.21" y1="291.17" x2="14.71" y2="790.64" xlink:href="#linear-gradient-2"/><linearGradient id="linear-gradient-21" x1="132.45" y1="293.56" x2="25.96" y2="793.04" xlink:href="#linear-gradient-2"/><linearGradient id="linear-gradient-22" x1="320.51" y1="333.66" x2="214.02" y2="833.14" xlink:href="#linear-gradient-2"/><linearGradient id="linear-gradient-23" x1="122.77" y1="291.5" x2="16.28" y2="790.98" xlink:href="#linear-gradient-2"/><linearGradient id="linear-gradient-24" x1="93.74" y1="285.31" x2="-12.76" y2="784.78" xlink:href="#linear-gradient-2"/><linearGradient id="linear-gradient-25" x1="103.42" y1="287.37" x2="-3.08" y2="786.85" xlink:href="#linear-gradient-2"/><linearGradient id="linear-gradient-26" x1="331.57" y1="336.02" x2="225.08" y2="835.49" xlink:href="#linear-gradient-2"/><linearGradient id="linear-gradient-27" x1="180.85" y1="303.88" x2="74.35" y2="803.36" xlink:href="#linear-gradient-2"/><linearGradient id="linear-gradient-28" x1="195.6" y1="307.03" x2="89.11" y2="806.5" xlink:href="#linear-gradient-2"/><linearGradient id="linear-gradient-29" x1="200.21" y1="308.01" x2="93.71" y2="807.49" xlink:href="#linear-gradient-2"/><linearGradient id="linear-gradient-30" x1="142.13" y1="295.63" x2="35.64" y2="795.1" xlink:href="#linear-gradient-2"/><linearGradient id="linear-gradient-31" x1="151.81" y1="297.69" x2="45.32" y2="797.17" xlink:href="#linear-gradient-2"/><linearGradient id="linear-gradient-32" x1="171.17" y1="301.82" x2="64.67" y2="801.29" xlink:href="#linear-gradient-2"/><linearGradient id="linear-gradient-33" x1="161.49" y1="299.76" x2="55" y2="799.23" xlink:href="#linear-gradient-2"/><linearGradient id="linear-gradient-34" x1="374.43" y1="345.16" x2="267.93" y2="844.63" xlink:href="#linear-gradient-2"/><linearGradient id="linear-gradient-35" x1="418.77" y1="354.61" x2="312.28" y2="854.09" xlink:href="#linear-gradient-2"/><linearGradient id="linear-gradient-36" x1="442.18" y1="359.6" x2="335.69" y2="859.08" xlink:href="#linear-gradient-2"/><linearGradient id="linear-gradient-37" x1="432.5" y1="357.54" x2="326.01" y2="857.01" xlink:href="#linear-gradient-2"/><linearGradient id="linear-gradient-38" x1="422.82" y1="355.48" x2="316.33" y2="854.95" xlink:href="#linear-gradient-2"/><linearGradient id="linear-gradient-39" x1="413.15" y1="353.41" x2="306.65" y2="852.89" xlink:href="#linear-gradient-2"/><linearGradient id="linear-gradient-40" x1="471.22" y1="365.79" x2="364.72" y2="865.27" xlink:href="#linear-gradient-2"/><linearGradient id="linear-gradient-41" x1="451.86" y1="361.67" x2="345.37" y2="861.14" xlink:href="#linear-gradient-2"/><linearGradient id="linear-gradient-42" x1="461.54" y1="363.73" x2="355.05" y2="863.21" xlink:href="#linear-gradient-2"/><linearGradient id="linear-gradient-43" x1="364.75" y1="343.09" x2="258.26" y2="842.57" xlink:href="#linear-gradient-2"/><linearGradient id="linear-gradient-44" x1="480.9" y1="367.86" x2="374.4" y2="867.33" xlink:href="#linear-gradient-2"/><linearGradient id="linear-gradient-45" x1="355.07" y1="341.03" x2="248.58" y2="840.5" xlink:href="#linear-gradient-2"/><linearGradient id="linear-gradient-46" x1="344.38" y1="338.75" x2="237.89" y2="838.23" xlink:href="#linear-gradient-2"/><linearGradient id="linear-gradient-47" x1="384.11" y1="347.22" x2="277.61" y2="846.7" xlink:href="#linear-gradient-2"/><linearGradient id="linear-gradient-48" x1="393.79" y1="349.28" x2="287.29" y2="848.76" xlink:href="#linear-gradient-2"/><linearGradient id="linear-gradient-49" x1="403.47" y1="351.35" x2="296.97" y2="850.82" xlink:href="#linear-gradient-2"/><linearGradient id="linear-gradient-50" x1="345.39" y1="338.97" x2="238.9" y2="838.44" xlink:href="#linear-gradient-2"/><linearGradient id="linear-gradient-51" x1="548.65" y1="382.3" x2="442.16" y2="881.78" xlink:href="#linear-gradient-2"/><linearGradient id="linear-gradient-52" x1="577.69" y1="388.49" x2="471.19" y2="887.97" xlink:href="#linear-gradient-2"/><linearGradient id="linear-gradient-53" x1="567.55" y1="386.33" x2="461.06" y2="885.81" xlink:href="#linear-gradient-2"/><linearGradient id="linear-gradient-54" x1="558.33" y1="384.37" x2="451.84" y2="883.84" xlink:href="#linear-gradient-2"/><linearGradient id="linear-gradient-55" x1="568.01" y1="386.43" x2="461.52" y2="885.91" xlink:href="#linear-gradient-2"/><linearGradient id="linear-gradient-56" x1="342.11" y1="338.27" x2="235.61" y2="837.74" xlink:href="#linear-gradient-2"/><linearGradient id="linear-gradient-57" x1="587.37" y1="390.56" x2="480.87" y2="890.03" xlink:href="#linear-gradient-2"/><linearGradient id="linear-gradient-58" x1="597.05" y1="392.62" x2="490.55" y2="892.1" xlink:href="#linear-gradient-2"/><linearGradient id="linear-gradient-59" x1="529.29" y1="378.18" x2="422.8" y2="877.65" xlink:href="#linear-gradient-2"/><linearGradient id="linear-gradient-60" x1="490.58" y1="369.92" x2="384.08" y2="869.4" xlink:href="#linear-gradient-2"/><linearGradient id="linear-gradient-61" x1="500.26" y1="371.98" x2="393.76" y2="871.46" xlink:href="#linear-gradient-2"/><linearGradient id="linear-gradient-62" x1="509.94" y1="374.05" x2="403.44" y2="873.52" xlink:href="#linear-gradient-2"/><linearGradient id="linear-gradient-63" x1="519.61" y1="376.11" x2="413.12" y2="875.59" xlink:href="#linear-gradient-2"/><linearGradient id="linear-gradient-64" x1="538.97" y1="380.24" x2="432.48" y2="879.71" xlink:href="#linear-gradient-2"/><linearGradient id="linear-gradient-65" x1="335.71" y1="336.9" x2="229.22" y2="836.38" xlink:href="#linear-gradient-2"/><linearGradient id="linear-gradient-66" x1="493.16" y1="370.47" x2="386.67" y2="869.95" xlink:href="#linear-gradient-2"/><linearGradient id="linear-gradient-67" x1="339.51" y1="337.71" x2="233.02" y2="837.19" xlink:href="#linear-gradient-2"/><linearGradient id="linear-gradient-68" x1="363.28" y1="342.78" x2="256.78" y2="842.25" xlink:href="#linear-gradient-2"/><linearGradient id="linear-gradient-69" x1="435.81" y1="358.24" x2="329.31" y2="857.72" xlink:href="#linear-gradient-2"/><linearGradient id="linear-gradient-70" x1="387.66" y1="347.98" x2="281.16" y2="847.45" xlink:href="#linear-gradient-2"/><linearGradient id="linear-gradient-71" x1="411.28" y1="353.01" x2="304.79" y2="852.49" xlink:href="#linear-gradient-2"/><linearGradient id="linear-gradient-72" x1="483.96" y1="368.51" x2="377.47" y2="867.99" xlink:href="#linear-gradient-2"/><linearGradient id="linear-gradient-73" x1="459.29" y1="363.25" x2="352.79" y2="862.73" xlink:href="#linear-gradient-2"/><linearGradient id="linear-gradient-74" x1="232.34" y1="314.86" x2="125.84" y2="814.34" xlink:href="#linear-gradient-2"/><linearGradient id="linear-gradient-75" x1="311.68" y1="331.78" x2="205.18" y2="831.25" xlink:href="#linear-gradient-2"/><linearGradient id="linear-gradient-76" x1="222.62" y1="312.79" x2="116.13" y2="812.26" xlink:href="#linear-gradient-2"/><linearGradient id="linear-gradient-77" x1="309.46" y1="331.3" x2="202.96" y2="830.78" xlink:href="#linear-gradient-2"/><linearGradient id="linear-gradient-78" x1="242.05" y1="316.93" x2="135.56" y2="816.41" xlink:href="#linear-gradient-2"/><linearGradient id="linear-gradient-79" x1="195.04" y1="306.91" x2="88.55" y2="806.38" xlink:href="#linear-gradient-2"/><linearGradient id="linear-gradient-80" x1="219.26" y1="312.07" x2="112.76" y2="811.55" xlink:href="#linear-gradient-2"/><linearGradient id="linear-gradient-81" x1="212.91" y1="310.72" x2="106.41" y2="810.19" xlink:href="#linear-gradient-2"/><linearGradient id="linear-gradient-82" x1="171.25" y1="301.84" x2="64.75" y2="801.31" xlink:href="#linear-gradient-2"/><linearGradient id="linear-gradient-83" x1="530.62" y1="378.46" x2="424.13" y2="877.93" xlink:href="#linear-gradient-2"/><linearGradient id="linear-gradient-84" x1="146.89" y1="296.64" x2="40.39" y2="796.12" xlink:href="#linear-gradient-2"/><linearGradient id="linear-gradient-85" x1="267.26" y1="322.31" x2="160.77" y2="821.78" xlink:href="#linear-gradient-2"/><linearGradient id="linear-gradient-86" x1="291.35" y1="327.44" x2="184.85" y2="826.92" xlink:href="#linear-gradient-2"/><linearGradient id="linear-gradient-87" x1="243.19" y1="317.18" x2="136.7" y2="816.65" xlink:href="#linear-gradient-2"/><linearGradient id="linear-gradient-88" x1="315.27" y1="332.54" x2="208.77" y2="832.02" xlink:href="#linear-gradient-2"/><linearGradient id="linear-gradient-89" x1="422.96" y1="355.5" x2="316.46" y2="854.98" xlink:href="#linear-gradient-2"/><linearGradient id="linear-gradient-90" x1="310.05" y1="331.43" x2="203.56" y2="830.91" xlink:href="#linear-gradient-2"/><linearGradient id="linear-gradient-91" x1="426.63" y1="356.29" x2="320.13" y2="855.76" xlink:href="#linear-gradient-2"/><linearGradient id="linear-gradient-92" x1="520.91" y1="376.39" x2="414.41" y2="875.86" xlink:href="#linear-gradient-2"/><linearGradient id="linear-gradient-93" x1="329.48" y1="335.57" x2="222.99" y2="835.05" xlink:href="#linear-gradient-2"/><linearGradient id="linear-gradient-94" x1="416.91" y1="354.21" x2="310.42" y2="853.69" xlink:href="#linear-gradient-2"/><linearGradient id="linear-gradient-95" x1="319.77" y1="333.5" x2="213.27" y2="832.98" xlink:href="#linear-gradient-2"/><linearGradient id="linear-gradient-96" x1="368.34" y1="343.86" x2="261.84" y2="843.33" xlink:href="#linear-gradient-2"/><linearGradient id="linear-gradient-97" x1="407.2" y1="352.14" x2="300.7" y2="851.62" xlink:href="#linear-gradient-2"/><linearGradient id="linear-gradient-98" x1="378.05" y1="345.93" x2="271.56" y2="845.4" xlink:href="#linear-gradient-2"/><linearGradient id="linear-gradient-99" x1="339.2" y1="337.64" x2="232.7" y2="837.12" xlink:href="#linear-gradient-2"/><linearGradient id="linear-gradient-100" x1="387.77" y1="348" x2="281.27" y2="847.48" xlink:href="#linear-gradient-2"/><linearGradient id="linear-gradient-101" x1="397.48" y1="350.07" x2="290.99" y2="849.55" xlink:href="#linear-gradient-2"/><linearGradient id="linear-gradient-102" x1="271.19" y1="323.15" x2="164.7" y2="822.62" xlink:href="#linear-gradient-2"/><linearGradient id="linear-gradient-103" x1="300.34" y1="329.36" x2="193.84" y2="828.83" xlink:href="#linear-gradient-2"/><linearGradient id="linear-gradient-104" x1="290.62" y1="327.29" x2="184.13" y2="826.76" xlink:href="#linear-gradient-2"/><linearGradient id="linear-gradient-105" x1="183.82" y1="304.52" x2="77.32" y2="803.99" xlink:href="#linear-gradient-2"/><linearGradient id="linear-gradient-106" x1="193.48" y1="306.58" x2="86.98" y2="806.05" xlink:href="#linear-gradient-2"/><linearGradient id="linear-gradient-107" x1="280.91" y1="325.22" x2="174.41" y2="824.69" xlink:href="#linear-gradient-2"/><linearGradient id="linear-gradient-108" x1="251.77" y1="319" x2="145.27" y2="818.48" xlink:href="#linear-gradient-2"/><linearGradient id="linear-gradient-109" x1="348.91" y1="339.72" x2="242.41" y2="839.19" xlink:href="#linear-gradient-2"/><linearGradient id="linear-gradient-110" x1="203.19" y1="308.65" x2="96.7" y2="808.12" xlink:href="#linear-gradient-2"/><linearGradient id="linear-gradient-111" x1="358.62" y1="341.79" x2="252.13" y2="841.26" xlink:href="#linear-gradient-2"/><linearGradient id="linear-gradient-112" x1="261.48" y1="321.07" x2="154.99" y2="820.55" xlink:href="#linear-gradient-2"/><linearGradient id="linear-gradient-113" x1="339.5" y1="337.71" x2="233.01" y2="837.18" xlink:href="#linear-gradient-2"/><linearGradient id="linear-gradient-114" x1="219.76" y1="312.18" x2="113.27" y2="811.65" xlink:href="#linear-gradient-2"/><linearGradient id="linear-gradient-115" x1="239.19" y1="316.32" x2="132.7" y2="815.8" xlink:href="#linear-gradient-2"/><linearGradient id="linear-gradient-116" x1="229.48" y1="314.25" x2="122.98" y2="813.73" xlink:href="#linear-gradient-2"/><linearGradient id="linear-gradient-117" x1="190.62" y1="305.97" x2="84.12" y2="805.44" xlink:href="#linear-gradient-2"/><linearGradient id="linear-gradient-118" x1="210.05" y1="310.11" x2="103.55" y2="809.58" xlink:href="#linear-gradient-2"/><linearGradient id="linear-gradient-119" x1="200.33" y1="308.04" x2="93.84" y2="807.51" xlink:href="#linear-gradient-2"/><linearGradient id="linear-gradient-120" x1="278.05" y1="324.61" x2="171.55" y2="824.08" xlink:href="#linear-gradient-2"/><linearGradient id="linear-gradient-121" x1="287.76" y1="326.68" x2="181.27" y2="826.15" xlink:href="#linear-gradient-2"/><linearGradient id="linear-gradient-122" x1="258.62" y1="320.46" x2="152.12" y2="819.94" xlink:href="#linear-gradient-2"/><linearGradient id="linear-gradient-123" x1="248.9" y1="318.39" x2="142.41" y2="817.87" xlink:href="#linear-gradient-2"/><linearGradient id="linear-gradient-124" x1="268.33" y1="322.54" x2="161.84" y2="822.01" xlink:href="#linear-gradient-2"/><linearGradient id="linear-gradient-125" x1="142.05" y1="295.61" x2="35.55" y2="795.08" xlink:href="#linear-gradient-2"/><linearGradient id="linear-gradient-126" x1="112.9" y1="289.4" x2="6.41" y2="788.87" xlink:href="#linear-gradient-2"/><linearGradient id="linear-gradient-127" x1="180.9" y1="303.89" x2="74.41" y2="803.37" xlink:href="#linear-gradient-2"/><linearGradient id="linear-gradient-128" x1="122.62" y1="291.47" x2="16.12" y2="790.94" xlink:href="#linear-gradient-2"/><linearGradient id="linear-gradient-129" x1="514.34" y1="374.99" x2="407.85" y2="874.46" xlink:href="#linear-gradient-2"/><linearGradient id="linear-gradient-130" x1="324.96" y1="334.61" x2="218.46" y2="834.08" xlink:href="#linear-gradient-2"/><linearGradient id="linear-gradient-131" x1="132.33" y1="293.54" x2="25.84" y2="793.01" xlink:href="#linear-gradient-2"/><linearGradient id="linear-gradient-132" x1="171.19" y1="301.82" x2="64.69" y2="801.3" xlink:href="#linear-gradient-2"/><linearGradient id="linear-gradient-133" x1="297.48" y1="328.75" x2="190.98" y2="828.22" xlink:href="#linear-gradient-2"/><linearGradient id="linear-gradient-134" x1="161.47" y1="299.75" x2="54.98" y2="799.23" xlink:href="#linear-gradient-2"/><linearGradient id="linear-gradient-135" x1="151.76" y1="297.68" x2="45.27" y2="797.16" xlink:href="#linear-gradient-2"/><linearGradient id="linear-gradient-136" x1="326.62" y1="334.96" x2="220.13" y2="834.44" xlink:href="#linear-gradient-2"/><linearGradient id="linear-gradient-137" x1="414.05" y1="353.6" x2="307.55" y2="853.08" xlink:href="#linear-gradient-2"/><linearGradient id="linear-gradient-138" x1="443.19" y1="359.82" x2="336.7" y2="859.29" xlink:href="#linear-gradient-2"/><linearGradient id="linear-gradient-139" x1="462.62" y1="363.96" x2="356.13" y2="863.44" xlink:href="#linear-gradient-2"/><linearGradient id="linear-gradient-140" x1="423.76" y1="355.68" x2="317.27" y2="855.15" xlink:href="#linear-gradient-2"/><linearGradient id="linear-gradient-141" x1="307.19" y1="330.82" x2="200.7" y2="830.3" xlink:href="#linear-gradient-2"/><linearGradient id="linear-gradient-142" x1="452.91" y1="361.89" x2="346.41" y2="861.36" xlink:href="#linear-gradient-2"/><linearGradient id="linear-gradient-143" x1="491.77" y1="370.17" x2="385.27" y2="869.65" xlink:href="#linear-gradient-2"/><linearGradient id="linear-gradient-144" x1="501.48" y1="372.25" x2="394.98" y2="871.72" xlink:href="#linear-gradient-2"/><linearGradient id="linear-gradient-145" x1="482.05" y1="368.1" x2="375.56" y2="867.58" xlink:href="#linear-gradient-2"/><linearGradient id="linear-gradient-146" x1="472.34" y1="366.03" x2="365.84" y2="865.51" xlink:href="#linear-gradient-2"/><linearGradient id="linear-gradient-147" x1="433.48" y1="357.75" x2="326.98" y2="857.22" xlink:href="#linear-gradient-2"/><linearGradient id="linear-gradient-148" x1="336.33" y1="337.03" x2="229.84" y2="836.51" xlink:href="#linear-gradient-2"/><linearGradient id="linear-gradient-149" x1="346.05" y1="339.11" x2="239.55" y2="838.58" xlink:href="#linear-gradient-2"/><linearGradient id="linear-gradient-150" x1="511.19" y1="374.32" x2="404.7" y2="873.79" xlink:href="#linear-gradient-2"/><linearGradient id="linear-gradient-151" x1="316.91" y1="332.89" x2="210.41" y2="832.37" xlink:href="#linear-gradient-2"/><linearGradient id="linear-gradient-152" x1="355.76" y1="341.18" x2="249.27" y2="840.65" xlink:href="#linear-gradient-2"/><linearGradient id="linear-gradient-153" x1="394.62" y1="349.46" x2="288.13" y2="848.94" xlink:href="#linear-gradient-2"/><linearGradient id="linear-gradient-154" x1="384.91" y1="347.39" x2="278.41" y2="846.87" xlink:href="#linear-gradient-2"/><linearGradient id="linear-gradient-155" x1="365.48" y1="343.25" x2="258.98" y2="842.72" xlink:href="#linear-gradient-2"/><linearGradient id="linear-gradient-156" x1="404.34" y1="351.53" x2="297.84" y2="851.01" xlink:href="#linear-gradient-2"/><linearGradient id="linear-gradient-157" x1="375.19" y1="345.32" x2="268.7" y2="844.79" xlink:href="#linear-gradient-2"/><linearGradient id="linear-gradient-158" x1="270.32" y1="-167.28" x2="270.32" y2="486.18" gradientUnits="userSpaceOnUse"><stop offset="0" stop-color="#f969a4"/><stop offset="1" stop-color="#f969a4" stop-opacity="0"/></linearGradient></defs><title>girl</title><g class="cls-1"><g id="Layer_1" data-name="Layer 1"><rect class="cls-2" x="122.52" y="147.58" width="300.07" height="399.39"/><rect class="cls-3" x="122.52" y="183.68" width="300.07" height="363.28"/><polygon class="cls-4" points="220.01 357.69 205.21 521.48 336.61 521.48 323.36 357.69 220.01 357.69"/><path class="cls-5" d="M155.19,58.22H386.63a0,0,0,0,1,0,0V270.91A115.72,115.72,0,0,1,270.91,386.63h0A115.72,115.72,0,0,1,155.19,270.91V58.22a0,0,0,0,1,0,0Z"/><path class="cls-6" d="M277.64,195.28l5.85,66.28.26,2.91,2.8.81a9.62,9.62,0,0,1,6.67,9.36c0,5.35-4.05,9.71-9,9.71H257.62c-5,0-9-4.36-9-9.71a9.62,9.62,0,0,1,6.67-9.36l2.8-.81.26-2.91,5.84-66.28h13.47m3.91-4.27H260.27l-6.19,70.17a13.89,13.89,0,0,0-9.75,13.46c0,7.72,5.95,14,13.29,14H284.2c7.34,0,13.29-6.25,13.29-14a13.88,13.88,0,0,0-9.75-13.46L281.55,191Z"/><path class="cls-7" d="M308,295.42"/><line class="cls-8" x1="127.51" y1="203.48" x2="401.89" y2="203.48"/><path class="cls-2" d="M270.32,7.56c-91.16,0-165.06,77.7-165.06,173.56h59.83l58.17-71.47,64.09,71.47h148C435.38,85.26,361.48,7.56,270.32,7.56Z"/><g class="cls-9"><path class="cls-2" d="M366.84,251.31c-19.59,0-35.47,16.7-35.47,37.3s15.88,37.3,35.47,37.3a33.3,33.3,0,0,0,4.37-.29A125.9,125.9,0,0,0,386.63,265v-7.31A34.11,34.11,0,0,0,366.84,251.31Z"/><path class="cls-2" d="M175,251.31a34.11,34.11,0,0,0-19.79,6.34V265a125.9,125.9,0,0,0,15.42,60.66,33.18,33.18,0,0,0,4.37.29c19.59,0,35.47-16.7,35.47-37.3S194.57,251.31,175,251.31Z"/></g><path class="cls-2" d="M223.26,93.45h0c0,51.49,39.69,93.22,88.66,93.22h80.64V93.45Z"/><path class="cls-2" d="M235.6,90.64v22.78c0,50.31-38.79,91.1-86.64,91.1h0V90.64Z"/><path class="cls-10" d="M458.56,525.94,333.43,458.27h0a92.13,92.13,0,0,1-123.2,1.62l-1.85-1.62L83.26,525.94a68.83,68.83,0,0,0-32.28,38L0,710.78H541.82l-51-146.87A68.83,68.83,0,0,0,458.56,525.94Z"/><path class="cls-11" d="M146.71,703.05a1.5,1.5,0,1,0,0-3h-.1a1.5,1.5,0,0,0,0,3Z"/><polygon class="cls-12" points="195.1 684.08 192.95 677.89 190.8 684.08 184.24 684.22 189.47 688.18 187.56 694.46 192.95 690.71 198.34 694.46 196.44 688.18 201.66 684.22 195.1 684.08"/><path class="cls-13" d="M166.94,703.05a1.5,1.5,0,1,0,0-3h-.1a1.5,1.5,0,0,0,0,3Z"/><path class="cls-14" d="M177.06,703.05a1.5,1.5,0,0,0,0-3H177a1.5,1.5,0,0,0,0,3Z"/><path class="cls-15" d="M156.82,703.05a1.5,1.5,0,0,0,0-3h-.1a1.5,1.5,0,0,0,0,3Z"/><path class="cls-16" d="M150.55,614.91,143.46,622l7.09,7.09,6.31-6.31h4.43l-5.44,5.44,1.1,1.1,6.54-6.54h2.91L170,629l-1.27,2.21-9.43,2.53.4,1.5,7.93-2.12-2.4,4.15-8.62,2.31,2.6,9.68,9.68-2.59-2.31-8.62,2.22-3.84,2,7.43,1.51-.4-2.39-8.93,1.45-2.51h7.21l1.27,2.19-2.53,9.43,1.5.4,2.13-7.92,2.4,4.15L181,646.68l9.68,2.59,2.59-9.68-8.61-2.31-2.22-3.84,7.43,2,.4-1.51-8.93-2.39L180,629.23l3.73-6.45h2.73l6.72,6.72,1.1-1.1-5.62-5.62h4.8l6.12,6.12,7.09-7.08-7.09-7.09-6.49,6.49h-4.43l5.62-5.62-1.1-1.1-6.72,6.72H184l-3.83-6.63,1.26-2.18,9.18-2.46-.4-1.5-7.68,2,2.4-4.15,8.37-2.24-2.6-9.68L181,597l2.38,8.87-2.22,3.83-2-7.67-1.51.4,2.46,9.18-1.27,2.2h-7.64l-1.26-2.2,2.46-9.18-1.51-.4-2.06,7.67-2.39-4.15,2.24-8.37-9.68-2.59-2.6,9.68,8.87,2.38,2.22,3.83-7.68-2-.4,1.5,9.18,2.46,1.38,2.39-3.71,6.42h-2.33l-6.9-6.9-1.11,1.1,5.8,5.8h-4.79Zm20.35,12.55-2.7-4.68h5.4Zm1.35.79,2.7-4.69,2.71,4.69Zm6.87-.58-2.82-4.89H182Zm.11-11.52,2.93,5.07H176.3Zm-1.36-.76L175,620.44,172,615.39Zm-7.07,1,2.8,4.86H168Z"/><path class="cls-17" d="M126.47,703.05a1.5,1.5,0,1,0,0-3h-.1a1.5,1.5,0,0,0,0,3Z"/><path class="cls-18" d="M136.59,703.05a1.5,1.5,0,1,0,0-3h-.1a1.5,1.5,0,0,0,0,3Z"/><path class="cls-19" d="M227.66,703.05a1.5,1.5,0,0,0,0-3h-.1a1.5,1.5,0,1,0,0,3Z"/><path class="cls-20" d="M197.2,700.05a1.5,1.5,0,0,0,0,3h.1a1.5,1.5,0,0,0,0-3Z"/><path class="cls-21" d="M106.13,700.05a1.5,1.5,0,0,0,0,3h.1a1.5,1.5,0,1,0,0-3Z"/><path class="cls-22" d="M237.78,703.05a1.5,1.5,0,0,0,0-3h-.1a1.5,1.5,0,0,0,0,3Z"/><path class="cls-23" d="M217.54,703.05a1.5,1.5,0,0,0,0-3h-.1a1.5,1.5,0,0,0,0,3Z"/><path class="cls-24" d="M55,614.91,47.92,622,55,629.09l6.31-6.31h4.43l-5.44,5.44,1.1,1.1L68,622.78h2.91l3.6,6.23-1.27,2.21-9.43,2.53.4,1.5,7.93-2.12-2.4,4.15-8.62,2.31,2.6,9.68,9.68-2.59L71,638.06l2.21-3.84,2,7.43,1.51-.4-2.39-8.93,1.44-2.51H83L84.28,632l-2.52,9.43,1.5.4,2.13-7.92,2.4,4.15-2.31,8.62,9.68,2.59,2.59-9.68-8.61-2.31-2.22-3.84,7.42,2,.41-1.51-8.93-2.39-1.34-2.31,3.73-6.45h2.72l6.73,6.72,1.1-1.1-5.62-5.62h4.8l6.12,6.12,7.09-7.08-7.09-7.09-6.49,6.49H93.14l5.62-5.62-1.1-1.1-6.72,6.72H88.42l-3.83-6.63,1.26-2.18L95,610l-.4-1.5-7.68,2,2.4-4.15,8.37-2.24-2.6-9.68L85.44,597l2.38,8.87-2.22,3.83-2.06-7.67-1.5.4,2.46,9.18-1.27,2.2H75.59l-1.26-2.2,2.46-9.18-1.51-.4-2.06,7.67-2.39-4.15,2.24-8.37-9.68-2.59-2.6,9.68,8.87,2.38,2.21,3.83-7.67-2-.4,1.5L73,612.41l1.38,2.39-3.71,6.42H68.32l-6.91-6.9-1.1,1.1,5.8,5.8H61.32Zm20.35,12.55-2.7-4.68h5.4Zm1.34.79,2.71-4.69,2.71,4.69Zm6.88-.58-2.82-4.89h5.65Zm.11-11.52,2.93,5.07H80.76Zm-1.36-.76-2.92,5.05-2.92-5.05Zm-7.07,1,2.8,4.86H72.45Z"/><path class="cls-25" d="M187.08,700.05a1.5,1.5,0,0,0,0,3h.1a1.5,1.5,0,1,0,0-3Z"/><path class="cls-26" d="M207.42,703.05a1.5,1.5,0,0,0,0-3h-.1a1.5,1.5,0,1,0,0,3Z"/><path class="cls-27" d="M25.28,703.05a1.5,1.5,0,0,0,0-3h-.1a1.5,1.5,0,1,0,0,3Z"/><path class="cls-28" d="M247.9,703.05a1.5,1.5,0,0,0,0-3h-.1a1.5,1.5,0,1,0,0,3Z"/><polygon class="cls-29" points="37.41 677.89 35.25 684.08 28.69 684.22 33.92 688.18 32.02 694.46 37.41 690.71 42.79 694.46 40.89 688.18 46.12 684.22 39.56 684.08 37.41 677.89"/><path class="cls-30" d="M43.91,701.55a1.5,1.5,0,0,0,1.5,1.5h.1a1.5,1.5,0,0,0,0-3h-.1A1.5,1.5,0,0,0,43.91,701.55Z"/><path class="cls-31" d="M51,563.91l-.84,2.41H491.67l-.83-2.41c-.07-.2-.15-.39-.22-.59H51.2C51.13,563.52,51.05,563.71,51,563.91Z"/><path class="cls-32" d="M35.3,700.05a1.5,1.5,0,1,0,0,3h.1a1.5,1.5,0,0,0,0-3Z"/><path class="cls-33" d="M4.94,703.05H5a1.5,1.5,0,0,0,0-3h-.1a1.5,1.5,0,0,0,0,3Z"/><path class="cls-34" d="M15.16,703.05a1.5,1.5,0,0,0,0-3h-.1a1.5,1.5,0,1,0,0,3Z"/><path class="cls-35" d="M246.09,614.91,239,622l7.09,7.09,6.31-6.31h4.43l-5.44,5.44,1.11,1.1,6.53-6.54h2.91l3.6,6.23-1.27,2.21-9.43,2.53.4,1.5,7.93-2.12-2.4,4.15-8.62,2.31,2.6,9.68,9.68-2.59-2.31-8.62,2.22-3.84,2,7.43,1.5-.4-2.39-8.94,1.45-2.5h7.21l1.27,2.19-2.53,9.43,1.5.4,2.13-7.92,2.4,4.15-2.31,8.62,9.68,2.59,2.59-9.68-8.61-2.31L278,633.44l7.43,2,.4-1.51-8.93-2.39-1.34-2.31,3.73-6.45H282l6.72,6.72,1.1-1.1-5.62-5.62H289l6.12,6.12,7.09-7.08-7.09-7.09-6.49,6.49h-4.43l5.62-5.62-1.1-1.1L282,621.22H279.5l-3.83-6.63,1.26-2.18,9.18-2.46-.4-1.5-7.68,2,2.4-4.15,8.37-2.24-2.6-9.68L276.52,597l2.38,8.87-2.22,3.83-2.05-7.67-1.51.4,2.46,9.18-1.27,2.2h-7.64l-1.26-2.2,2.46-9.18-1.51-.4-2.05,7.67-2.4-4.15,2.24-8.37-9.68-2.59-2.6,9.68,8.87,2.38L263,610.5l-7.68-2-.4,1.5,9.18,2.46,1.38,2.39-3.71,6.42H259.4l-6.9-6.9-1.11,1.1,5.8,5.8H252.4Zm20.35,12.55-2.7-4.68h5.4Zm1.35.79,2.7-4.69,2.71,4.69Zm6.88-.58-2.83-4.89h5.65Zm.1-11.52,2.93,5.07h-5.86Zm-1.36-.76-2.92,5.05-2.92-5.05Zm-7.07,1,2.8,4.86h-5.61Z"/><path class="cls-36" d="M96.11,703.05a1.5,1.5,0,1,0,0-3H96a1.5,1.5,0,1,0,0,3Z"/><polygon class="cls-37" points="117.33 684.08 115.18 677.89 113.02 684.08 106.47 684.22 111.69 688.18 109.79 694.46 115.18 690.71 120.56 694.46 118.66 688.18 123.89 684.22 117.33 684.08"/><path class="cls-38" d="M116.25,700.05a1.5,1.5,0,0,0,0,3h.1a1.5,1.5,0,1,0,0-3Z"/><path class="cls-39" d="M55.63,703.05a1.5,1.5,0,0,0,0-3h-.1a1.5,1.5,0,1,0,0,3Z"/><path class="cls-40" d="M65.75,703.05a1.5,1.5,0,0,0,0-3h-.1a1.5,1.5,0,1,0,0,3Z"/><path class="cls-41" d="M86,703.05a1.5,1.5,0,1,0,0-3h-.1a1.5,1.5,0,1,0,0,3Z"/><path class="cls-42" d="M75.87,703.05a1.5,1.5,0,0,0,0-3h-.1a1.5,1.5,0,1,0,0,3Z"/><path class="cls-43" d="M298.49,703.05a1.5,1.5,0,0,0,0-3h-.1a1.5,1.5,0,0,0,0,3Z"/><polygon class="cls-44" points="350.65 684.08 348.49 677.89 346.34 684.08 339.78 684.22 345.01 688.18 343.11 694.46 348.49 690.71 353.88 694.46 351.98 688.18 357.21 684.22 350.65 684.08"/><path class="cls-45" d="M369.32,703.05a1.5,1.5,0,0,0,0-3h-.1a1.5,1.5,0,0,0,0,3Z"/><path class="cls-46" d="M359.21,703.05a1.5,1.5,0,1,0,0-3h-.1a1.5,1.5,0,1,0,0,3Z"/><path class="cls-47" d="M349,700.05a1.5,1.5,0,0,0,0,3h.1a1.5,1.5,0,0,0,0-3Z"/><path class="cls-48" d="M338.87,700.05a1.5,1.5,0,0,0,0,3h.1a1.5,1.5,0,0,0,0-3Z"/><path class="cls-49" d="M399.68,703.05a1.5,1.5,0,1,0,0-3h-.1a1.5,1.5,0,1,0,0,3Z"/><path class="cls-50" d="M379.44,703.05a1.5,1.5,0,1,0,0-3h-.1a1.5,1.5,0,1,0,0,3Z"/><path class="cls-51" d="M389.56,703.05a1.5,1.5,0,0,0,0-3h-.1a1.5,1.5,0,0,0,0,3Z"/><path class="cls-52" d="M288.37,703.05a1.5,1.5,0,0,0,0-3h-.1a1.5,1.5,0,0,0,0,3Z"/><path class="cls-53" d="M409.8,703.05a1.5,1.5,0,0,0,0-3h-.1a1.5,1.5,0,0,0,0,3Z"/><path class="cls-54" d="M278.15,700.05a1.5,1.5,0,0,0,0,3h.1a1.5,1.5,0,0,0,0-3Z"/><polygon class="cls-55" points="274.21 688.18 279.44 684.22 272.88 684.08 270.72 677.89 268.57 684.08 262.01 684.22 267.24 688.18 265.34 694.46 270.72 690.71 276.11 694.46 274.21 688.18"/><path class="cls-56" d="M308.61,703.05a1.5,1.5,0,0,0,0-3h-.1a1.5,1.5,0,0,0,0,3Z"/><path class="cls-57" d="M318.73,703.05a1.5,1.5,0,0,0,0-3h-.1a1.5,1.5,0,0,0,0,3Z"/><path class="cls-58" d="M328.85,703.05a1.5,1.5,0,1,0,0-3h-.1a1.5,1.5,0,0,0,0,3Z"/><path class="cls-59" d="M269.63,701.55a1.5,1.5,0,0,0-1.5-1.5H268a1.5,1.5,0,0,0,0,3h.1A1.5,1.5,0,0,0,269.63,701.55Z"/><path class="cls-60" d="M480.63,703.05a1.5,1.5,0,0,0,0-3h-.1a1.5,1.5,0,0,0,0,3Z"/><path class="cls-61" d="M510.89,700.05a1.5,1.5,0,0,0,0,3h.1a1.5,1.5,0,0,0,0-3Z"/><polygon class="cls-62" points="506.19 684.08 504.04 677.89 501.88 684.08 495.32 684.22 500.55 688.18 498.65 694.46 504.04 690.71 509.42 694.46 507.52 688.18 512.75 684.22 506.19 684.08"/><path class="cls-63" d="M490.75,703.05a1.5,1.5,0,0,0,0-3h-.1a1.5,1.5,0,1,0,0,3Z"/><path class="cls-64" d="M500.77,700.05a1.5,1.5,0,0,0,0,3h.1a1.5,1.5,0,1,0,0-3Z"/><polygon class="cls-65" points="14.44 669.19 13.4 672.19 528.42 672.19 527.38 669.19 14.44 669.19"/><path class="cls-66" d="M521.11,703.05a1.5,1.5,0,0,0,0-3H521a1.5,1.5,0,0,0,0,3Z"/><path class="cls-67" d="M531.23,700.05h-.1a1.5,1.5,0,1,0,0,3h.1a1.5,1.5,0,0,0,0-3Z"/><path class="cls-68" d="M460.4,703.05a1.5,1.5,0,0,0,0-3h-.1a1.5,1.5,0,1,0,0,3Z"/><path class="cls-69" d="M419.82,700.05a1.5,1.5,0,1,0,0,3h.1a1.5,1.5,0,1,0,0-3Z"/><path class="cls-70" d="M429.94,700.05a1.5,1.5,0,0,0,0,3h.1a1.5,1.5,0,0,0,0-3Z"/><path class="cls-71" d="M440.16,703.05a1.5,1.5,0,1,0,0-3h-.1a1.5,1.5,0,1,0,0,3Z"/><path class="cls-72" d="M450.28,703.05a1.5,1.5,0,0,0,0-3h-.1a1.5,1.5,0,0,0,0,3Z"/><path class="cls-73" d="M470.52,703.05a1.5,1.5,0,0,0,0-3h-.1a1.5,1.5,0,0,0,0,3Z"/><path class="cls-74" d="M258,703.05a1.5,1.5,0,0,0,0-3h-.1a1.5,1.5,0,0,0,0,3Z"/><polygon class="cls-75" points="428.42 684.08 426.27 677.89 424.11 684.08 417.55 684.22 422.78 688.18 420.88 694.46 426.27 690.71 431.65 694.46 429.75 688.18 434.98 684.22 428.42 684.08"/><polygon class="cls-76" points="23.08 663.9 36.07 656.4 49.06 663.9 62.06 656.4 75.05 663.9 88.04 656.4 101.03 663.9 114.03 656.4 127.02 663.9 140.02 656.4 153.01 663.9 166.01 656.4 179 663.9 192 656.4 204.99 663.9 217.99 656.4 230.98 663.9 243.98 656.4 256.97 663.9 269.97 656.4 282.96 663.9 295.96 656.4 308.96 663.9 321.95 656.4 334.94 663.9 347.94 656.4 360.93 663.9 373.93 656.4 386.92 663.9 399.92 656.4 412.92 663.9 425.92 656.4 438.91 663.9 451.91 656.4 464.91 663.9 477.9 656.4 490.91 663.9 503.9 656.4 516.91 663.9 524.1 659.75 523.44 657.83 516.91 661.59 503.9 654.09 490.91 661.59 477.9 654.09 464.91 661.59 451.91 654.09 438.91 661.59 425.92 654.09 412.92 661.59 399.92 654.09 386.92 661.59 373.93 654.09 360.93 661.59 347.94 654.09 334.94 661.59 321.95 654.09 308.96 661.59 295.96 654.09 282.96 661.59 269.97 654.09 256.97 661.59 243.98 654.09 230.98 661.59 217.99 654.09 204.99 661.59 192 654.09 179 661.59 166.01 654.09 153.01 661.59 140.02 654.09 127.02 661.59 114.03 654.09 101.03 661.59 88.04 654.09 75.05 661.59 62.06 654.09 49.06 661.59 36.07 654.09 23.08 661.59 18.08 658.7 17.41 660.63 23.08 663.9"/><polygon class="cls-77" points="322.3 541.39 320.91 537.39 319.52 541.39 315.29 541.47 318.66 544.03 317.44 548.08 320.91 545.67 324.39 548.08 323.16 544.03 326.53 541.47 322.3 541.39"/><polygon class="cls-78" points="381.59 543.21 386.28 543.21 381.8 547.69 382.48 548.37 387.63 543.21 389.23 543.21 385.79 546.65 386.46 547.33 390.58 543.21 395.52 543.21 393.05 547.49 387.43 549 387.67 549.92 392.37 548.66 391.57 550.04 384.53 551.93 384.78 552.85 390.9 551.21 388.56 555.27 389.38 555.75 391.73 551.69 393.37 557.81 394.29 557.56 392.4 550.52 393.2 549.14 394.46 553.84 395.38 553.59 393.87 547.97 396.34 543.69 398.81 547.97 397.31 553.59 398.23 553.84 399.49 549.14 400.29 550.52 398.4 557.56 399.32 557.81 400.96 551.69 403.31 555.75 404.13 555.27 401.79 551.21 407.91 552.85 408.16 551.93 401.11 550.04 400.32 548.66 405.02 549.92 405.26 549 399.64 547.49 397.17 543.21 402.37 543.21 406.49 547.33 407.16 546.65 403.72 543.21 405.32 543.21 410.47 548.37 411.15 547.69 406.67 543.21 411.35 543.21 411.35 542.26 406.67 542.26 411.15 537.78 410.47 537.1 405.32 542.26 403.72 542.26 407.16 538.82 406.49 538.14 402.37 542.26 397.17 542.26 399.77 537.76 405.39 536.25 405.14 535.33 400.44 536.59 401.24 535.2 408.29 533.32 408.04 532.4 401.92 534.04 404.26 529.98 403.44 529.5 401.09 533.56 399.45 527.44 398.53 527.68 400.42 534.73 399.62 536.11 398.36 531.41 397.44 531.66 398.94 537.28 396.34 541.78 393.74 537.28 395.25 531.66 394.33 531.41 393.07 536.11 392.27 534.73 394.16 527.68 393.24 527.44 391.6 533.56 389.25 529.5 388.43 529.98 390.77 534.04 384.65 532.4 384.4 533.32 391.44 535.2 392.24 536.59 387.54 535.33 387.3 536.25 392.92 537.76 395.52 542.26 390.58 542.26 386.46 538.14 385.79 538.82 389.23 542.26 387.63 542.26 382.48 537.1 381.8 537.78 386.28 542.26 381.59 542.26 381.59 543.21"/><polygon class="cls-79" points="331.25 543.21 335.94 543.21 331.46 547.69 332.13 548.37 337.29 543.21 338.88 543.21 335.44 546.65 336.12 547.33 340.23 543.21 345.17 543.21 342.7 547.49 337.08 549 337.33 549.92 342.03 548.66 341.23 550.04 334.19 551.93 334.44 552.85 340.56 551.21 338.21 555.27 339.04 555.75 341.38 551.69 343.02 557.81 343.94 557.56 342.06 550.52 342.86 549.14 344.12 553.84 345.04 553.59 343.53 547.97 346 543.69 348.47 547.97 346.96 553.59 347.89 553.84 349.15 549.14 349.94 550.52 348.06 557.56 348.98 557.81 350.62 551.69 352.96 555.75 353.79 555.27 351.44 551.21 357.57 552.85 357.81 551.93 350.77 550.04 349.97 548.66 354.67 549.92 354.92 549 349.3 547.49 346.83 543.21 352.03 543.21 356.14 547.33 356.82 546.65 353.38 543.21 354.97 543.21 360.13 548.37 360.8 547.69 356.32 543.21 361.01 543.21 361.01 542.26 356.32 542.26 360.8 537.78 360.13 537.1 354.97 542.26 353.38 542.26 356.82 538.82 356.14 538.14 352.03 542.26 346.83 542.26 349.43 537.76 355.05 536.25 354.8 535.33 350.1 536.59 350.9 535.2 357.94 533.32 357.69 532.4 351.57 534.04 353.92 529.98 353.09 529.5 350.75 533.56 349.11 527.44 348.19 527.68 350.07 534.73 349.28 536.11 348.02 531.41 347.09 531.66 348.6 537.28 346 541.78 343.4 537.28 344.91 531.66 343.99 531.41 342.73 536.11 341.93 534.73 343.81 527.68 342.89 527.44 341.25 533.56 338.91 529.5 338.08 529.98 340.43 534.04 334.31 532.4 334.06 533.32 341.1 535.2 341.9 536.59 337.2 535.33 336.95 536.25 342.57 537.76 345.17 542.26 340.23 542.26 336.12 538.14 335.44 538.82 338.88 542.26 337.29 542.26 332.13 537.1 331.46 537.78 335.94 542.26 331.25 542.26 331.25 543.21"/><polygon class="cls-80" points="372.49 541.39 371.1 537.39 369.71 541.39 365.48 541.47 368.85 544.03 367.63 548.08 371.1 545.67 374.57 548.08 373.35 544.03 376.72 541.47 372.49 541.39"/><polygon class="cls-81" points="431.94 543.21 436.62 543.21 432.14 547.69 432.82 548.37 437.97 543.21 439.57 543.21 436.13 546.65 436.8 547.33 440.92 543.21 445.86 543.21 443.39 547.49 437.77 549 438.01 549.92 442.71 548.66 441.92 550.04 434.88 551.93 435.12 552.85 441.24 551.21 438.9 555.27 439.72 555.75 442.07 551.69 443.71 557.81 444.63 557.56 442.74 550.52 443.54 549.14 444.8 553.84 445.72 553.59 444.22 547.97 446.69 543.69 449.16 547.97 447.65 553.59 448.57 553.84 449.83 549.14 450.63 550.52 448.74 557.56 449.67 557.81 451.31 551.69 453.65 555.75 454.48 555.27 452.13 551.21 458.25 552.85 458.5 551.93 451.46 550.04 450.66 548.66 455.36 549.92 455.61 549 449.98 547.49 447.51 543.21 452.71 543.21 456.83 547.33 457.5 546.65 454.06 543.21 455.66 543.21 460.81 548.37 461.49 547.69 457.01 543.21 461.7 543.21 461.7 542.26 457.01 542.26 461.49 537.78 460.81 537.1 455.66 542.26 454.06 542.26 457.5 538.82 456.83 538.14 452.71 542.26 447.51 542.26 450.11 537.76 455.74 536.25 455.49 535.33 450.79 536.59 451.59 535.2 458.63 533.32 458.38 532.4 452.26 534.04 454.61 529.98 453.78 529.5 451.44 533.56 449.8 527.44 448.87 527.69 450.76 534.73 449.96 536.11 448.7 531.41 447.78 531.66 449.29 537.28 446.69 541.78 444.09 537.28 445.59 531.66 444.67 531.41 443.41 536.11 442.61 534.73 444.5 527.68 443.58 527.44 441.94 533.56 439.6 529.5 438.77 529.98 441.11 534.04 434.99 532.4 434.75 533.32 441.79 535.2 442.58 536.59 437.88 535.33 437.64 536.25 443.26 537.76 445.86 542.26 440.92 542.26 436.8 538.14 436.13 538.82 439.57 542.26 437.97 542.26 432.82 537.1 432.14 537.78 436.62 542.26 431.94 542.26 431.94 543.21"/><polygon class="cls-82" points="422.68 541.39 421.29 537.39 419.9 541.39 415.67 541.47 419.04 544.03 417.81 548.08 421.29 545.67 424.76 548.08 423.54 544.03 426.91 541.47 422.68 541.39"/><path class="cls-83" d="M194.09,492.52a1.5,1.5,0,0,0,0,3h.1a1.5,1.5,0,1,0,0-3Z"/><polygon class="cls-84" points="94.28 519.98 88.74 522.98 453.08 522.98 447.53 519.98 94.28 519.98"/><path class="cls-85" d="M183.93,492.52a1.5,1.5,0,0,0,0,3h.1a1.5,1.5,0,0,0,0-3Z"/><polygon class="cls-86" points="126.44 508.09 138.48 515.59 150.52 508.09 162.55 515.59 174.59 508.09 186.63 515.59 198.67 508.09 210.7 515.59 222.74 508.09 234.78 515.59 246.81 508.09 258.85 515.59 270.88 508.09 282.92 515.59 294.96 508.09 307 515.59 319.03 508.09 331.07 515.59 343.11 508.09 355.15 515.59 367.19 508.09 379.23 515.59 391.27 508.09 403.31 515.59 415.35 508.09 427.4 515.59 432.99 512.11 430.96 511.02 427.4 513.24 415.35 505.74 403.31 513.24 391.27 505.74 379.23 513.24 367.19 505.74 355.15 513.24 343.11 505.74 331.07 513.24 319.03 505.74 307 513.24 294.96 505.74 282.92 513.24 270.88 505.74 258.85 513.24 246.81 505.74 234.78 513.24 222.74 505.74 210.7 513.24 198.67 505.74 186.63 513.24 174.59 505.74 162.55 513.24 150.52 505.74 138.48 513.24 126.44 505.74 114.41 513.24 110.85 511.02 108.83 512.12 114.41 515.59 126.44 508.09"/><path class="cls-87" d="M204.24,492.52a1.5,1.5,0,0,0,0,3h.1a1.5,1.5,0,1,0,0-3Z"/><polygon class="cls-88" points="129.88 543.21 134.56 543.21 130.09 547.69 130.76 548.37 135.91 543.21 137.51 543.21 134.07 546.65 134.75 547.33 138.86 543.21 143.8 543.21 141.33 547.49 135.71 549 135.96 549.92 140.66 548.66 139.86 550.04 132.82 551.93 133.06 552.85 139.18 551.21 136.84 555.27 137.67 555.75 140.01 551.69 141.65 557.81 142.57 557.56 140.69 550.52 141.48 549.14 142.74 553.84 143.66 553.59 142.16 547.97 144.63 543.69 147.1 547.97 145.59 553.59 146.51 553.84 147.77 549.14 148.57 550.52 146.69 557.56 147.61 557.81 149.25 551.69 151.59 555.75 152.42 555.27 150.07 551.21 156.19 552.85 156.44 551.93 149.4 550.04 148.6 548.66 153.3 549.92 153.55 549 147.93 547.49 145.46 543.21 150.66 543.21 154.77 547.33 155.45 546.65 152.01 543.21 153.6 543.21 158.76 548.37 159.43 547.69 154.95 543.21 159.64 543.21 159.64 542.26 154.95 542.26 159.43 537.78 158.76 537.1 153.6 542.26 152.01 542.26 155.45 538.82 154.77 538.14 150.66 542.26 145.46 542.26 148.06 537.76 153.68 536.25 153.43 535.33 148.73 536.59 149.53 535.2 156.57 533.32 156.32 532.4 150.2 534.04 152.55 529.98 151.72 529.5 149.38 533.56 147.74 527.44 146.81 527.68 148.7 534.73 147.9 536.11 146.64 531.41 145.72 531.66 147.23 537.28 144.63 541.78 142.03 537.28 143.53 531.66 142.61 531.41 141.35 536.11 140.56 534.73 142.44 527.68 141.52 527.44 139.88 533.56 137.54 529.5 136.71 529.98 139.06 534.04 132.93 532.4 132.69 533.32 139.73 535.2 140.53 536.59 135.83 535.33 135.58 536.25 141.2 537.76 143.8 542.26 138.86 542.26 134.75 538.14 134.07 538.82 137.51 542.26 135.91 542.26 130.76 537.1 130.09 537.78 134.56 542.26 129.88 542.26 129.88 543.21"/><polygon class="cls-89" points="171.73 541.39 170.34 537.39 168.95 541.39 164.72 541.47 168.09 544.03 166.87 548.08 170.34 545.67 173.82 548.08 172.59 544.03 175.97 541.47 171.73 541.39"/><path class="cls-90" d="M173.77,492.52a1.5,1.5,0,1,0,0,3h.1a1.5,1.5,0,0,0,0-3Z"/><polygon class="cls-91" points="121.55 541.39 120.16 537.39 118.77 541.39 114.53 541.47 117.91 544.03 116.68 548.08 120.16 545.67 123.63 548.08 122.4 544.03 125.78 541.47 121.55 541.39"/><path class="cls-92" d="M488.49,577.81a1.5,1.5,0,0,0,0-3h-.1a1.5,1.5,0,1,0,0,3Z"/><polygon class="cls-93" points="91.18 527.44 89.54 533.56 87.19 529.5 86.37 529.98 88.71 534.04 82.59 532.4 82.34 533.32 89.39 535.2 90.19 536.59 85.48 535.33 85.24 536.25 90.86 537.76 93.46 542.26 88.52 542.26 84.4 538.14 83.73 538.82 87.17 542.26 85.57 542.26 80.42 537.1 79.74 537.78 84.22 542.26 79.53 542.26 79.53 543.21 84.22 543.21 79.74 547.69 80.42 548.37 85.57 543.21 87.17 543.21 83.73 546.65 84.4 547.33 88.52 543.21 93.46 543.21 90.99 547.49 85.37 549 85.61 549.92 90.31 548.66 89.52 550.04 82.47 551.93 82.72 552.85 88.84 551.21 86.5 555.27 87.32 555.75 89.67 551.69 91.31 557.81 92.23 557.56 90.34 550.52 91.14 549.14 92.4 553.84 93.32 553.59 91.81 547.97 94.29 543.69 96.76 547.97 95.25 553.59 96.17 553.84 97.43 549.14 98.23 550.52 96.34 557.56 97.26 557.81 98.9 551.69 101.25 555.75 102.07 555.27 99.73 551.21 105.85 552.85 106.1 551.93 99.06 550.04 98.26 548.66 102.96 549.92 103.2 549 97.58 547.49 95.11 543.21 100.31 543.21 104.43 547.33 105.1 546.65 101.66 543.21 103.26 543.21 108.41 548.37 109.09 547.69 104.61 543.21 109.3 543.21 109.3 542.26 104.61 542.26 109.09 537.78 108.41 537.1 103.26 542.26 101.66 542.26 105.1 538.82 104.43 538.14 100.31 542.26 95.11 542.26 97.71 537.76 103.33 536.25 103.09 535.33 98.39 536.59 99.19 535.2 106.23 533.32 105.98 532.4 99.86 534.04 102.2 529.98 101.38 529.5 99.03 533.56 97.39 527.44 96.47 527.68 98.36 534.73 97.56 536.11 96.3 531.41 95.38 531.66 96.89 537.28 94.29 541.78 91.69 537.28 93.19 531.66 92.27 531.41 91.01 536.11 90.21 534.73 92.1 527.69 91.18 527.44"/><polygon class="cls-94" points="221.92 541.39 220.53 537.39 219.14 541.39 214.91 541.47 218.28 544.03 217.06 548.08 220.53 545.67 224.01 548.08 222.78 544.03 226.16 541.47 221.92 541.39"/><polygon class="cls-95" points="230.56 543.21 235.25 543.21 230.77 547.69 231.45 548.37 236.6 543.21 238.2 543.21 234.76 546.65 235.43 547.33 239.55 543.21 244.49 543.21 242.02 547.49 236.4 549 236.64 549.92 241.34 548.66 240.54 550.04 233.5 551.93 233.75 552.85 239.87 551.21 237.53 555.27 238.35 555.75 240.7 551.69 242.34 557.81 243.26 557.56 241.37 550.52 242.17 549.14 243.43 553.84 244.35 553.59 242.84 547.97 245.31 543.69 247.79 547.97 246.28 553.59 247.2 553.84 248.46 549.14 249.26 550.52 247.37 557.56 248.29 557.81 249.93 551.69 252.28 555.75 253.1 555.27 250.76 551.21 256.88 552.85 257.13 551.93 250.08 550.04 249.29 548.66 253.99 549.92 254.23 549 248.61 547.49 246.14 543.21 251.34 543.21 255.46 547.33 256.13 546.65 252.69 543.21 254.29 543.21 259.44 548.37 260.12 547.69 255.64 543.21 260.32 543.21 260.32 542.26 255.64 542.26 260.12 537.78 259.44 537.1 254.29 542.26 252.69 542.26 256.13 538.82 255.46 538.14 251.34 542.26 246.14 542.26 248.74 537.76 254.36 536.25 254.12 535.33 249.42 536.59 250.21 535.2 257.26 533.32 257.01 532.4 250.89 534.04 253.23 529.98 252.41 529.5 250.06 533.56 248.42 527.44 247.5 527.68 249.39 534.73 248.59 536.11 247.33 531.41 246.41 531.66 247.91 537.28 245.31 541.78 242.72 537.28 244.22 531.66 243.3 531.41 242.04 536.11 241.24 534.73 243.13 527.68 242.21 527.44 240.57 533.56 238.22 529.5 237.4 529.98 239.74 534.04 233.62 532.4 233.37 533.32 240.41 535.2 241.21 536.59 236.51 535.33 236.27 536.25 241.89 537.76 244.49 542.26 239.55 542.26 235.43 538.14 234.76 538.82 238.2 542.26 236.6 542.26 231.45 537.1 230.77 537.78 235.25 542.26 230.56 542.26 230.56 543.21"/><polygon class="cls-96" points="180.22 543.21 184.91 543.21 180.43 547.69 181.1 548.37 186.26 543.21 187.85 543.21 184.41 546.65 185.09 547.33 189.2 543.21 194.15 543.21 191.68 547.49 186.05 549 186.3 549.92 191 548.66 190.2 550.04 183.16 551.93 183.41 552.85 189.53 551.21 187.18 555.27 188.01 555.75 190.35 551.69 191.99 557.81 192.91 557.56 191.03 550.52 191.83 549.14 193.09 553.84 194.01 553.59 192.5 547.97 194.97 543.69 197.44 547.97 195.94 553.59 196.86 553.84 198.12 549.14 198.92 550.52 197.03 557.56 197.95 557.81 199.59 551.69 201.93 555.75 202.76 555.27 200.42 551.21 206.54 552.85 206.78 551.93 199.74 550.04 198.94 548.66 203.64 549.92 203.89 549 198.27 547.49 195.8 543.21 201 543.21 205.11 547.33 205.79 546.65 202.35 543.21 203.94 543.21 209.1 548.37 209.77 547.69 205.29 543.21 209.98 543.21 209.98 542.26 205.29 542.26 209.77 537.78 209.1 537.1 203.94 542.26 202.35 542.26 205.79 538.82 205.11 538.14 201 542.26 195.8 542.26 198.4 537.76 204.02 536.25 203.77 535.33 199.07 536.59 199.87 535.2 206.91 533.32 206.67 532.4 200.55 534.04 202.89 529.98 202.06 529.5 199.72 533.56 198.08 527.44 197.16 527.68 199.04 534.73 198.25 536.11 196.99 531.41 196.07 531.66 197.57 537.28 194.97 541.78 192.37 537.28 193.88 531.66 192.96 531.41 191.7 536.11 190.9 534.73 192.78 527.68 191.86 527.44 190.22 533.56 187.88 529.5 187.05 529.98 189.4 534.04 183.28 532.4 183.03 533.32 190.07 535.2 190.87 536.59 186.17 535.33 185.92 536.25 191.55 537.76 194.15 542.26 189.2 542.26 185.09 538.14 184.41 538.82 187.85 542.26 186.26 542.26 181.1 537.1 180.43 537.78 184.91 542.26 180.22 542.26 180.22 543.21"/><polygon class="cls-97" points="272.11 541.39 270.72 537.39 269.33 541.39 265.1 541.47 268.47 544.03 267.25 548.08 270.72 545.67 274.2 548.08 272.97 544.03 276.35 541.47 272.11 541.39"/><path class="cls-98" d="M341.63,614.91,334.54,622l7.09,7.09,6.31-6.31h4.43l-5.44,5.44,1.11,1.1,6.53-6.54h2.91l3.6,6.23-1.27,2.21-9.43,2.53.4,1.5,7.93-2.12-2.4,4.15-8.62,2.31,2.6,9.68,9.68-2.59-2.31-8.62,2.22-3.84,2,7.43,1.5-.4L361,632.32l1.45-2.51h7.21l1.27,2.19-2.53,9.43,1.51.4,2.12-7.92,2.4,4.15-2.31,8.62,9.68,2.59,2.59-9.68-8.61-2.31-2.22-3.84,7.43,2,.4-1.51-8.93-2.39-1.33-2.31,3.72-6.45h2.73l6.72,6.72,1.1-1.1-5.62-5.62h4.8l6.12,6.12,7.09-7.08-7.09-7.09-6.49,6.49h-4.43l5.62-5.62-1.1-1.1-6.72,6.72H375l-3.83-6.63,1.26-2.18,9.18-2.46-.4-1.5-7.68,2,2.4-4.15,8.37-2.24-2.6-9.68L372.06,597l2.38,8.87-2.22,3.83-2.05-7.67-1.51.4,2.46,9.18-1.27,2.2h-7.64l-1.26-2.2,2.46-9.18-1.51-.4-2,7.67-2.4-4.15,2.24-8.37L350,594.61l-2.6,9.68,8.87,2.38,2.22,3.83-7.68-2-.4,1.5,9.18,2.46L361,614.8l-3.71,6.42h-2.33l-6.9-6.9-1.11,1.1,5.8,5.8h-4.79ZM362,627.46l-2.7-4.68h5.4Zm1.35.79,2.7-4.69,2.71,4.69Zm6.88-.58-2.83-4.89H373Zm.1-11.52,2.93,5.07h-5.86Zm-1.36-.76L366,620.44l-2.92-5.05Zm-7.07,1,2.8,4.86h-5.61Z"/><path class="cls-99" d="M275.33,495.52h.11a1.5,1.5,0,1,0,0-3h-.11a1.5,1.5,0,1,0,0,3Z"/><path class="cls-100" d="M395.71,494a1.5,1.5,0,0,0,1.5,1.5h.1a1.5,1.5,0,0,0,1.5-1.5,1.55,1.55,0,0,0-.07-.43l-1.89-1A1.5,1.5,0,0,0,395.71,494Z"/><path class="cls-101" d="M478.33,577.81a1.5,1.5,0,0,0,0-3h-.1a1.5,1.5,0,0,0,0,3Z"/><path class="cls-102" d="M295.65,492.52a1.5,1.5,0,0,0,0,3h.1a1.5,1.5,0,0,0,0-3Z"/><path class="cls-103" d="M387.05,492.52a1.5,1.5,0,1,0,0,3h.1a1.5,1.5,0,0,0,0-3Z"/><path class="cls-104" d="M285.49,492.52a1.5,1.5,0,0,0,0,3h.1a1.5,1.5,0,0,0,0-3Z"/><path class="cls-105" d="M336.27,495.52h.1a1.5,1.5,0,0,0,0-3h-.1a1.5,1.5,0,0,0,0,3Z"/><path class="cls-106" d="M376.9,492.52a1.5,1.5,0,0,0,0,3h.1a1.5,1.5,0,0,0,0-3Z"/><path class="cls-107" d="M346.43,492.52a1.5,1.5,0,0,0,0,3h.1a1.5,1.5,0,0,0,0-3Z"/><path class="cls-108" d="M305.8,492.52a1.5,1.5,0,1,0,0,3h.1a1.5,1.5,0,0,0,0-3Z"/><path class="cls-109" d="M356.58,492.52a1.5,1.5,0,1,0,0,3h.1a1.5,1.5,0,1,0,0-3Z"/><path class="cls-110" d="M366.74,492.52a1.5,1.5,0,0,0,0,3h.1a1.5,1.5,0,0,0,0-3Z"/><path class="cls-111" d="M234.71,492.52a1.5,1.5,0,0,0,0,3h.1a1.5,1.5,0,0,0,0-3Z"/><path class="cls-112" d="M265.18,492.52a1.5,1.5,0,0,0,0,3h.1a1.5,1.5,0,0,0,0-3Z"/><path class="cls-113" d="M255,492.52a1.5,1.5,0,1,0,0,3h.1a1.5,1.5,0,0,0,0-3Z"/><path class="cls-114" d="M143.31,495.52h.1a1.49,1.49,0,0,0,1-2.63l-2.55,1.37A1.5,1.5,0,0,0,143.31,495.52Z"/><path class="cls-115" d="M153.46,492.52a1.5,1.5,0,0,0,0,3h.1a1.5,1.5,0,0,0,0-3Z"/><path class="cls-116" d="M244.87,492.52a1.5,1.5,0,0,0,0,3h.1a1.5,1.5,0,1,0,0-3Z"/><path class="cls-117" d="M214.4,492.52a1.5,1.5,0,1,0,0,3h.1a1.5,1.5,0,0,0,0-3Z"/><path class="cls-118" d="M316,492.52a1.5,1.5,0,0,0,0,3h.1a1.5,1.5,0,0,0,0-3Z"/><path class="cls-119" d="M163.62,492.52a1.5,1.5,0,0,0,0,3h.1a1.5,1.5,0,1,0,0-3Z"/><path class="cls-120" d="M326.11,492.52a1.5,1.5,0,0,0,0,3h.11a1.5,1.5,0,0,0,0-3Z"/><path class="cls-121" d="M224.55,492.52a1.5,1.5,0,1,0,0,3h.11a1.5,1.5,0,0,0,0-3Z"/><polygon class="cls-122" points="280.91 543.21 285.59 543.21 281.11 547.69 281.79 548.37 286.94 543.21 288.54 543.21 285.1 546.65 285.77 547.33 289.89 543.21 294.83 543.21 292.36 547.49 286.74 549 286.99 549.92 291.69 548.66 290.89 550.04 283.85 551.93 284.09 552.85 290.21 551.21 287.87 555.27 288.7 555.75 291.04 551.69 292.68 557.81 293.6 557.56 291.71 550.52 292.51 549.14 293.77 553.84 294.69 553.59 293.19 547.97 295.66 543.69 298.13 547.97 296.62 553.59 297.54 553.84 298.8 549.14 299.6 550.52 297.71 557.56 298.64 557.81 300.28 551.69 302.62 555.75 303.45 555.27 301.1 551.21 307.22 552.85 307.47 551.93 300.43 550.04 299.63 548.66 304.33 549.92 304.58 549 298.95 547.49 296.48 543.21 301.68 543.21 305.8 547.33 306.48 546.65 303.04 543.21 304.63 543.21 309.79 548.37 310.46 547.69 305.98 543.21 310.67 543.21 310.67 542.26 305.98 542.26 310.46 537.78 309.79 537.1 304.63 542.26 303.03 542.26 306.48 538.82 305.8 538.14 301.68 542.26 296.48 542.26 299.08 537.76 304.71 536.25 304.46 535.33 299.76 536.59 300.56 535.2 307.6 533.32 307.35 532.4 301.23 534.04 303.58 529.98 302.75 529.5 300.41 533.56 298.77 527.44 297.84 527.68 299.73 534.73 298.93 536.11 297.67 531.41 296.75 531.66 298.26 537.28 295.66 541.78 293.06 537.28 294.56 531.66 293.64 531.41 292.38 536.11 291.58 534.73 293.47 527.68 292.55 527.44 290.91 533.56 288.57 529.5 287.74 529.98 290.08 534.04 283.96 532.4 283.72 533.32 290.76 535.2 291.56 536.59 286.86 535.33 286.61 536.25 292.23 537.76 294.83 542.26 289.89 542.26 285.77 538.14 285.1 538.82 288.54 542.26 286.94 542.26 281.79 537.1 281.11 537.78 285.59 542.26 280.91 542.26 280.91 543.21"/><path class="cls-123" d="M163.5,577.81a1.5,1.5,0,0,0,0-3h-.1a1.5,1.5,0,1,0,0,3Z"/><path class="cls-124" d="M183.81,577.81a1.5,1.5,0,0,0,0-3h-.1a1.5,1.5,0,0,0,0,3Z"/><path class="cls-125" d="M173.65,577.81a1.5,1.5,0,0,0,0-3h-.1a1.5,1.5,0,1,0,0,3Z"/><path class="cls-126" d="M133,577.81a1.5,1.5,0,0,0,0-3h-.1a1.5,1.5,0,0,0,0,3Z"/><path class="cls-127" d="M153.34,577.81a1.5,1.5,0,1,0,0-3h-.1a1.5,1.5,0,0,0,0,3Z"/><path class="cls-128" d="M143.18,577.81a1.5,1.5,0,1,0,0-3h-.1a1.5,1.5,0,0,0,0,3Z"/><path class="cls-129" d="M224.43,577.81a1.5,1.5,0,1,0,0-3h-.1a1.5,1.5,0,0,0,0,3Z"/><path class="cls-130" d="M234.59,577.81a1.5,1.5,0,1,0,0-3h-.1a1.5,1.5,0,0,0,0,3Z"/><path class="cls-131" d="M204.12,577.81a1.5,1.5,0,0,0,0-3H204a1.5,1.5,0,1,0,0,3Z"/><path class="cls-132" d="M194,577.81a1.5,1.5,0,1,0,0-3h-.1a1.5,1.5,0,0,0,0,3Z"/><path class="cls-133" d="M214.28,577.81a1.5,1.5,0,0,0,0-3h-.1a1.5,1.5,0,0,0,0,3Z"/><path class="cls-134" d="M82.25,577.81a1.5,1.5,0,0,0,0-3h-.1a1.5,1.5,0,1,0,0,3Z"/><path class="cls-135" d="M51.78,577.81a1.5,1.5,0,0,0,0-3h-.1a1.5,1.5,0,1,0,0,3Z"/><path class="cls-136" d="M122.87,577.81a1.5,1.5,0,0,0,0-3h-.1a1.5,1.5,0,1,0,0,3Z"/><path class="cls-137" d="M61.94,577.81a1.5,1.5,0,1,0,0-3h-.1a1.5,1.5,0,0,0,0,3Z"/><path class="cls-138" d="M437.17,614.91,430.08,622l7.09,7.09,6.31-6.31h4.43l-5.44,5.44,1.11,1.1,6.53-6.54H453l3.59,6.23-1.27,2.21-9.43,2.53.41,1.5,7.92-2.12-2.4,4.15-8.61,2.31,2.59,9.68,9.68-2.59-2.31-8.62,2.22-3.84,2,7.43,1.5-.4-2.39-8.93,1.45-2.51h7.21l1.27,2.19-2.53,9.43,1.51.4,2.12-7.92,2.4,4.15-2.31,8.62,9.68,2.59,2.59-9.68-8.61-2.31-2.22-3.84,7.43,2,.4-1.51L468,631.54l-1.33-2.31,3.72-6.45h2.73l6.72,6.72,1.1-1.1-5.62-5.62h4.8l6.12,6.12,7.09-7.08-7.09-7.09-6.49,6.49H475.3l5.62-5.62-1.1-1.1-6.72,6.72h-2.52l-3.83-6.63,1.26-2.18,9.18-2.46-.4-1.5-7.68,2,2.4-4.15,8.37-2.24-2.6-9.68L467.6,597l2.38,8.87-2.22,3.83-2.05-7.67-1.51.4,2.46,9.18-1.27,2.2h-7.64l-1.26-2.2,2.46-9.18-1.51-.4-2.05,7.67-2.4-4.15,2.24-8.37-9.68-2.59-2.6,9.68,8.87,2.38L454,610.5l-7.68-2L446,610l9.18,2.46,1.38,2.39-3.71,6.42h-2.33l-6.9-6.9-1.11,1.1,5.81,5.8h-4.8Zm20.35,12.55-2.7-4.68h5.4Zm1.35.79,2.7-4.69,2.71,4.69Zm6.88-.58-2.83-4.89h5.65Zm.1-11.52,2.93,5.07h-5.86Zm-1.36-.76-2.92,5.05-2.92-5.05Zm-7.07,1,2.8,4.86h-5.61Z"/><polygon class="cls-139" points="43.63 585.1 42.58 588.1 499.23 588.1 498.19 585.1 43.63 585.1"/><path class="cls-140" d="M72.09,577.81a1.5,1.5,0,1,0,0-3H72a1.5,1.5,0,0,0,0,3Z"/><path class="cls-141" d="M112.72,577.81a1.5,1.5,0,1,0,0-3h-.1a1.5,1.5,0,0,0,0,3Z"/><path class="cls-142" d="M244.74,577.81a1.5,1.5,0,0,0,0-3h-.1a1.5,1.5,0,0,0,0,3Z"/><path class="cls-143" d="M102.56,577.81a1.5,1.5,0,0,0,0-3h-.1a1.5,1.5,0,0,0,0,3Z"/><path class="cls-144" d="M92.4,577.81a1.5,1.5,0,0,0,0-3h-.1a1.5,1.5,0,1,0,0,3Z"/><path class="cls-145" d="M275.21,577.81a1.5,1.5,0,1,0,0-3h-.1a1.5,1.5,0,0,0,0,3Z"/><path class="cls-146" d="M366.62,577.81a1.5,1.5,0,0,0,0-3h-.1a1.5,1.5,0,0,0,0,3Z"/><path class="cls-147" d="M397.09,577.81a1.5,1.5,0,0,0,0-3H397a1.5,1.5,0,0,0,0,3Z"/><path class="cls-148" d="M417.4,577.81a1.5,1.5,0,0,0,0-3h-.1a1.5,1.5,0,1,0,0,3Z"/><path class="cls-149" d="M376.77,577.81a1.5,1.5,0,0,0,0-3h-.1a1.5,1.5,0,0,0,0,3Z"/><path class="cls-150" d="M254.9,577.81a1.5,1.5,0,0,0,0-3h-.1a1.5,1.5,0,1,0,0,3Z"/><path class="cls-151" d="M407.24,577.81a1.5,1.5,0,0,0,0-3h-.1a1.5,1.5,0,0,0,0,3Z"/><path class="cls-152" d="M447.87,577.81a1.5,1.5,0,0,0,0-3h-.11a1.5,1.5,0,0,0,0,3Z"/><path class="cls-153" d="M458,577.81a1.5,1.5,0,0,0,0-3h-.1a1.5,1.5,0,0,0,0,3Z"/><path class="cls-154" d="M437.71,577.81a1.5,1.5,0,1,0,0-3h-.1a1.5,1.5,0,0,0,0,3Z"/><path class="cls-155" d="M427.55,577.81a1.5,1.5,0,0,0,0-3h-.1a1.5,1.5,0,0,0,0,3Z"/><path class="cls-156" d="M386.93,577.81a1.5,1.5,0,1,0,0-3h-.1a1.5,1.5,0,1,0,0,3Z"/><path class="cls-157" d="M285.37,577.81a1.5,1.5,0,0,0,0-3h-.1a1.5,1.5,0,0,0,0,3Z"/><path class="cls-158" d="M295.52,577.81a1.5,1.5,0,0,0,0-3h-.1a1.5,1.5,0,0,0,0,3Z"/><path class="cls-159" d="M468.18,577.81a1.5,1.5,0,1,0,0-3h-.1a1.5,1.5,0,1,0,0,3Z"/><path class="cls-160" d="M265.06,577.81a1.5,1.5,0,0,0,0-3H265a1.5,1.5,0,0,0,0,3Z"/><path class="cls-161" d="M305.68,577.81a1.5,1.5,0,1,0,0-3h-.1a1.5,1.5,0,1,0,0,3Z"/><path class="cls-162" d="M346.3,577.81a1.5,1.5,0,0,0,0-3h-.1a1.5,1.5,0,0,0,0,3Z"/><path class="cls-163" d="M336.15,577.81a1.5,1.5,0,0,0,0-3h-.1a1.5,1.5,0,1,0,0,3Z"/><path class="cls-164" d="M315.84,577.81a1.5,1.5,0,0,0,0-3h-.1a1.5,1.5,0,0,0,0,3Z"/><path class="cls-165" d="M356.46,577.81a1.5,1.5,0,1,0,0-3h-.1a1.5,1.5,0,0,0,0,3Z"/><path class="cls-166" d="M326,577.81a1.5,1.5,0,0,0,0-3h-.1a1.5,1.5,0,0,0,0,3Z"/><path class="cls-2" d="M382.76,180.69h52.62a0,0,0,0,1,0,0V547a0,0,0,0,1,0,0h0a52.62,52.62,0,0,1-52.62-52.62V180.69A0,0,0,0,1,382.76,180.69Z"/><path class="cls-2" d="M105.34,180.69h53.16a0,0,0,0,1,0,0V585.07a53.16,53.16,0,0,1-53.16,53.16h0a0,0,0,0,1,0,0V180.69a0,0,0,0,1,0,0Z"/><path class="cls-167" d="M435.37,180.69c-.21-95.65-74-173.13-165-173.13S105.26,85.26,105.26,181.12h.08V638.23h0a53.16,53.16,0,0,0,53.17-53.16V204c36.2-4.17,65.69-31.79,74.44-68.1,14.68,30.16,44.53,50.81,79,50.81h70.84V494.34A52.62,52.62,0,0,0,435.38,547h0V180.69Z"/><path class="cls-168" d="M255.65,208.28c0-8.86,6.83-16.05,15.26-16.05s15.26,7.19,15.26,16.05"/><ellipse class="cls-168" cx="332.32" cy="219.84" rx="47.76" ry="48.41"/><ellipse class="cls-168" cx="209.49" cy="219.84" rx="47.76" ry="48.41"/><ellipse class="cls-6" cx="331.51" cy="223.63" rx="12.85" ry="13.51"/><path class="cls-6" d="M331.51,201.43c11.61,0,21.05,10,21.05,22.2s-9.44,22.19-21.05,22.19-21.06-10-21.06-22.19,9.45-22.2,21.06-22.2m0-1c-12.2,0-22.09,10.4-22.09,23.23s9.89,23.22,22.09,23.22,22.09-10.4,22.09-23.22-9.89-23.23-22.09-23.23Z"/><path class="cls-6" d="M210.31,201.43c11.61,0,21.06,10,21.06,22.2s-9.45,22.19-21.06,22.19-21.06-10-21.06-22.19,9.45-22.2,21.06-22.2m0-1c-12.2,0-22.09,10.4-22.09,23.23s9.89,23.22,22.09,23.22,22.09-10.4,22.09-23.22-9.89-23.23-22.09-23.23Z"/><ellipse class="cls-6" cx="210.31" cy="223.63" rx="12.85" ry="13.51"/><path class="cls-169" d="M237.88,310.8a52.35,52.35,0,0,0,66.05,0"/><path class="cls-5" d="M398.05,295.42a13.33,13.33,0,1,0,0-26.65v-1a25.9,25.9,0,1,0,0-51.8"/><path class="cls-5" d="M144.37,295.42a13.33,13.33,0,1,1,0-26.65v-1a25.9,25.9,0,1,1,0-51.8"/><circle class="cls-6" cx="398.05" cy="316.67" r="23.54"/><circle class="cls-6" cx="144.37" cy="316.67" r="23.54"/><path class="cls-170" d="M351.4,468l-18-9.72h0a92.13,92.13,0,0,1-123.2,1.62l-1.85-1.62-19,10.28a121.55,121.55,0,0,0,83.18,32.83C311.49,501.38,337.52,482.13,351.4,468Z"/><polygon class="cls-171" points="388.65 63.96 368.34 120.35 351.4 113.52 374.51 56.59 388.65 63.96"/><polygon class="cls-171" points="365.45 43.59 376.95 61.66 338.02 87.06 326.17 67.7 365.45 43.59"/><polygon class="cls-172" points="365.45 43.59 376.95 61.66 338.02 87.06 326.17 67.7 365.45 43.59"/><polygon class="cls-172" points="388.65 63.96 368.34 120.35 351.4 113.52 374.51 56.59 388.65 63.96"/><path class="cls-171" d="M391,48.41l45.09,3.15c2.18.15,3,2.8,1.58,5L407.3,103.14c-1.37,2.11-4,2.5-5.1.78l-23.68-36.4Z"/><path class="cls-171" d="M363.68,56.59,318.6,53.44c-2.19-.15-3-2.8-1.59-5L347.35,1.86c1.37-2.11,4-2.5,5.1-.78l23.68,36.4Z"/><circle class="cls-171" cx="378.52" cy="52.1" r="15.6"/><polygon class="cls-170" points="275.51 882.44 500.39 787.61 500.39 516.41 275.51 596.86 50.63 516.41 50.63 787.61 275.51 882.44"/><path class="cls-173" d="M500.39,529.66,306.26,597.84a30.76,30.76,0,1,1-61.51,0L50.63,524"/><line class="cls-173" x1="244.75" y1="597.84" x2="244.75" y2="698.57"/><line class="cls-173" x1="307.99" y1="597.84" x2="307.99" y2="805.26"/></g></g></svg>