<svg id="Layer_1" data-name="Layer 1" xmlns="http://www.w3.org/2000/svg" xmlns:xlink="http://www.w3.org/1999/xlink" viewBox="0 0 217.5 268.27"><defs><style>.cls-1{fill:#fff;}.cls-2{fill:#a3cbcc;}.cls-3{fill:#f0468a;}.cls-4{fill:url(#linear-gradient);}</style><linearGradient id="linear-gradient" x1="39.24" y1="45.56" x2="43.72" y2="140.92" gradientUnits="userSpaceOnUse"><stop offset="0" stop-color="#fff"/><stop offset="1" stop-color="#fff" stop-opacity="0"/></linearGradient></defs><title>glass</title><g id="card"><polygon class="cls-1" points="203.56 262.43 201.89 262.43 201.89 118.59 105.36 126.33 105.23 124.67 203.56 116.79 203.56 262.43"/><rect class="cls-1" x="105.3" y="125.5" width="112.2" height="142.77"/><path class="cls-2" d="M159,161.84H161v-11H159v-2.43h6.56v2.43h-1.92v11h1.92v2.42H159Z"/><path class="cls-2" d="M141.32,243.23h2v-3.61l-4.49-7.35h-1.59v-2.43h6v2.43h-1.4l2.91,5.07,2.88-5.07h-1.49v-2.43h6v2.43h-1.59L146,239.62v3.61h2v2.42h-6.7Z"/><path class="cls-2" d="M153.28,237.75a8.12,8.12,0,1,1,8.06,8.19A7.94,7.94,0,0,1,153.28,237.75Zm13.41,0c0-3.3-2.23-5.67-5.28-5.67s-5.31,2.35-5.31,5.67,2.23,5.67,5.31,5.67S166.69,241.06,166.69,237.75Z"/><path class="cls-2" d="M173.47,239.89v-7.62h-1.73v-2.43h6.35v2.43h-1.9v7.47c0,2.43,1.22,3.73,3.24,3.73s3.27-1.18,3.27-3.63v-7.57h-1.9v-2.43h6.27v2.43h-1.73v7.57c0,4.13-2.42,6.1-5.91,6.1S173.47,244,173.47,239.89Z"/><path class="cls-2" d="M184.12,176.23A11,11,0,0,1,191.74,195l0,0,0,0-19.09,20-19.41-20.3-.11-.12A10.94,10.94,0,1,1,171,182.55l1.6,3.4,1.59-3.4a11,11,0,0,1,9.92-6.32m0-1.75a12.69,12.69,0,0,0-11.51,7.33,12.71,12.71,0,1,0-20.82,14h0l20.82,21.76L193,196.3a12.7,12.7,0,0,0-8.84-21.82Z"/><path class="cls-3" d="M172.61,187.18a12.71,12.71,0,0,0-24.22-5.37,12.7,12.7,0,1,0-20.81,14h0l20.82,21.76,20.36-21.29A12.67,12.67,0,0,0,172.61,187.18Z"/></g><g id="glass"><path class="cls-4" d="M1.62,66.92h79a0,0,0,0,1,0,0v35.66A39.48,39.48,0,0,1,41.1,142.07h0A39.48,39.48,0,0,1,1.62,102.58V66.92A0,0,0,0,1,1.62,66.92Z"/><path class="cls-1" d="M41.1,143.69A41.15,41.15,0,0,1,0,102.58L2.34,0H79.87l2.34,102.55A41.16,41.16,0,0,1,41.1,143.69ZM5.5,3.24,3.24,102.62A37.9,37.9,0,0,0,41.1,140.45h0A37.91,37.91,0,0,0,79,102.58L76.7,3.24Z"/><path class="cls-1" d="M54.89,83.16a3.75,3.75,0,1,1,3.75-3.74A3.75,3.75,0,0,1,54.89,83.16Zm0-7a3.3,3.3,0,1,0,3.3,3.3A3.3,3.3,0,0,0,54.89,76.12Z"/><path class="cls-1" d="M18.57,92.82a4.09,4.09,0,1,1,4.09-4.08A4.08,4.08,0,0,1,18.57,92.82Zm0-7.27a3.19,3.19,0,1,0,3.18,3.19A3.19,3.19,0,0,0,18.57,85.55Z"/><path class="cls-1" d="M46.24,118.18A5.77,5.77,0,1,1,52,112.41,5.78,5.78,0,0,1,46.24,118.18Zm0-10.27a4.5,4.5,0,1,0,4.5,4.5A4.51,4.51,0,0,0,46.24,107.91Z"/><rect class="cls-1" x="39.48" y="143.62" width="3.24" height="120.59"/><path class="cls-1" d="M76.78,267.06H5.43a2.85,2.85,0,0,1,0-5.7H76.78a2.85,2.85,0,0,1,0,5.7Z"/></g></svg>