<svg id="Layer_1" data-name="Layer 1" xmlns="http://www.w3.org/2000/svg" viewBox="0 0 395.6 462.61"><defs><style>.cls-1{fill:#18b29f;}.cls-2{fill:#40bead;}.cls-3,.cls-4,.cls-5,.cls-6{fill:none;stroke-miterlimit:10;}.cls-3{stroke:#f1f7f7;opacity:0.7;}.cls-3,.cls-6{stroke-width:2px;}.cls-4{stroke:#fff;stroke-width:0.5px;}.cls-5{stroke:#f0468a;stroke-width:3px;stroke-dasharray:0.01 15;}.cls-5,.cls-6{stroke-linecap:round;}.cls-6{stroke:#40bead;}.cls-7{fill:#f1f7f7;}</style></defs><title>globe</title><circle class="cls-1" cx="231.3" cy="231.3" r="128.24"/><path class="cls-2" d="M231.3,78.21a153.09,153.09,0,1,1-108.25,44.84A152.12,152.12,0,0,1,231.3,78.21m0-1A154.1,154.1,0,1,0,385.4,231.3,154.09,154.09,0,0,0,231.3,77.21Z"/><path class="cls-3" d="M394.15,394.15c-89.93,89.94-235.76,89.94-325.7,0s-89.93-235.76,0-325.7C137.72-.81,240.12-16.73,324.61,20.68a229.77,229.77,0,0,1,69.54,47.77"/><path class="cls-4" d="M347.3,115.31a164,164,0,0,1-232,232"/><path class="cls-5" d="M231.3,405a173.68,173.68,0,0,1,0-347.35"/><path class="cls-6" d="M374.8,231.3a143.5,143.5,0,0,1-287,0"/><rect class="cls-7" x="260.8" y="115.18" width="6.5" height="2"/><rect class="cls-7" x="275.05" y="242.8" width="4" height="2.5"/><polygon class="cls-7" points="277.43 118.43 277.43 116.18 271.93 116.18 271.93 113.43 268.93 113.43 268.93 116.43 271.93 116.43 271.93 118.43 277.43 118.43"/><polygon class="cls-7" points="216.68 202.56 216.68 199.18 213.56 199.18 213.56 195.74 208.18 190.18 208.18 189.31 209.18 189.31 209.18 186.68 205.93 186.68 205.93 185.56 207.68 185.56 207.68 183.81 204.18 183.81 201.68 187.81 204.18 193.18 206.43 194.56 207.93 197.93 206.18 197.93 205.56 200.56 203.93 201.18 204.06 202.93 206.68 204.18 204.81 204.18 201.68 206.43 201.68 207.68 207.31 205.93 211.06 205.06 215.06 205.06 215.68 203.31 214.56 203.31 214.56 202.56 216.68 202.56"/><polygon class="cls-7" points="197.81 192.68 197.81 194.93 195.31 194.93 195.31 200.06 194.06 201.31 194.06 202.43 195.18 203.43 198.43 203.43 201.68 200.68 201.68 196.43 203.18 196.43 203.18 193.81 201.68 193.68 201.68 192.68 197.81 192.68"/><polygon class="cls-7" points="299.72 323.56 297.81 323.56 293.47 330.22 288.31 330.22 288.31 333.47 285.14 336.47 285.14 341.39 289.31 341.39 299.72 328.47 299.72 323.56"/><path class="cls-7" d="M140.62,163V179.8h3.68v2.13h3.5l8.13-16.5h4.25l9.5-8.38h4.37l10.57-6.5V141.8l6.31-6.25v-5.62h3.12V122.8l11.38-7.62v-1.75h-8v-3h-9.05a128.36,128.36,0,0,0-43.08,25.74v2.88h4.5v5l-4.5,5.75v3.5l-2.37,2.38v1.87h2v1.13Z"/><path class="cls-7" d="M314.35,133.58,310.3,143.8,301,138.14v7.33l6.67,8L288.3,142.14v-7.67l4.34-3.33V126.8l-10,5.34v14l15.33,7h-9l-7.33,3.33v-4.33H278.3v5.33L254,144.14,239.3,148.8l-10,17L221,170.47V183.8l2.5,1.67H227l4.33-4.67,4,8.34v3.33l2.84-2,4-.5v-7.5l2.33-1.17V178l-2.83-1v-5.33l6-4v-5.17h4.83v2L247.8,171l.34,5.83,4.66,2.84,2.84-2.34h5.16l1.5,1.34L260,180.47H252.8v3.17h1.34v2.91h-5.09v7.25h-7.87v2h-3.63l-1.25-1.5-2.25,1.38h-1.87l1.5-3.5-2.38-1.25v-4.75h-2l-2.87,1.87v4.13l.87,1.87v3h-7.5v5.75l-10,7.25-6.37.25v3h3.75l3,3.5v6.13h-15v16h5l1.12,1.12h9.25l2.5-3v-4.5l5.38-3.25v-4.62h6.37l2.88-3,3-.38,2.75,4.63,4.62,3.25,5.13,3.37-.38,3.63-6,.62v1.88l4.5,1.37,3.75-4.37,2.59-4.38L235.3,220.47,238,217.8l11.67,9.67v3.83l6.66,9.5,3-4.33-2.66-5.17h5.66l.67,4.17,3.33,5.33H282v4l-3.67,7.67H269l-11.33-3.33h-7v5.33L233,247.14l1-7.67H216.3l-3.66,3.67-9.34-.34H201v3l-6.33,3.34.33,7-5.33,1.33L180,269.8l2.67,7.67L180,286.8l18,18H211.3l4-2.33H223l1.67,3.67h8l-1.34,10,5.67,5,2,8.33-4.67,4.33,8.67,21,15.33-2L270,343.9l4-1.43v-6.33l12-5.34V316.47l16.67-14.67L309,287.14l-12,3.33-7.67-7.33-11-24.34h4L297,287.47l17.67-7.33,8.66-11.67-6-4.67-8,.67-5.33-11h2.67l5.66,6.67,7,1H330l8.33,10.33,1,15.67,5,1.89,1-14.89,6.67-11,1.89,6.05a128.42,128.42,0,0,0-39.51-135.61Z"/><path class="cls-7" d="M107.93,230.43l3.62-8.75h3.19v3.06l6.44-6.44v-2.62h-3.75v-5h-1.88l2.57-2.38h5.31l5.75-3.62v-5.13l-4-6.12V183.18h-2l-3.38,5.12v-8.62h-3l-3.25,7v6l-4.12,5.37v6h-2.38v-4.62a128.77,128.77,0,0,0-4,31.87,130.29,130.29,0,0,0,.74,13.77l4.13-5.27Z"/><path class="cls-7" d="M226.68,122.43h3.75v3.25l4.62,3.5,3-6.38v2.25h5.75V123.3l-4.87-2.87h4.87s-.25-4,0-4h-9.62v1.62l-7.5.5Z"/><polygon class="cls-7" points="231.31 224.93 229.81 224.93 228.31 225.81 228.31 228.18 231.31 228.81 231.31 224.93"/><rect class="cls-7" x="228.3" y="229.55" width="3" height="6"/><path class="cls-7" d="M152.92,332.8h4.88v-7.75h-2.5v-2.12l3.63-3.25v-5.75l-17.5-11.63h-4.75v-3.62l-6.25-7.63H126.8l-5.25-10h-4l-4.62-4.5h-1.65A128.54,128.54,0,0,0,152.92,332.8Z"/><polygon class="cls-7" points="262.99 243.74 262.06 242.81 258.31 242.81 258.31 245.31 264.18 245.31 264.18 243.74 262.99 243.74"/><polygon class="cls-7" points="179.06 161.31 175.93 165.43 178.18 170.18 185.18 170.18 193.31 165.31 190.68 160.68 185.74 160.68 181.18 163.93 181.18 161.31 179.06 161.31"/><polygon class="cls-7" points="109.31 268.18 112.93 268.18 112.93 266.93 109.31 264.43 109.31 268.18"/><path class="cls-7" d="M134.55,159.05V147.13a130.06,130.06,0,0,0-9.72,12.67h2.1v2.25l-2.88,2.5-2.12,5.63-2.13.75v2.75h2.5v3.12l1.13,1.75,3.25-1,2-3.62v-6.75h1.72v4.47l4.72-4.72v-2.06l-3.32-3.32v-2.5Z"/><rect class="cls-7" x="114.12" y="268.8" width="1.94" height="1.63"/></svg>