<svg xmlns="http://www.w3.org/2000/svg" xmlns:xlink="http://www.w3.org/1999/xlink" viewBox="0 0 600 750"><defs><style>.cls-1{fill:#fbbc23;}.cls-2{fill:#a3cbcc;}.cls-12,.cls-3{fill:#40bead;}.cls-3{opacity:0.25;}.cls-4{fill:url(#linear-gradient);}.cls-5{fill:#474747;}.cls-6{opacity:0.8;}.cls-7{fill:#fff;}.cls-13,.cls-16,.cls-18,.cls-19,.cls-21,.cls-8,.cls-9{fill:none;stroke-miterlimit:10;}.cls-13,.cls-18,.cls-8,.cls-9{stroke:#40bead;}.cls-8{stroke-width:3.02px;}.cls-9{stroke-width:6.49px;}.cls-10{fill:url(#linear-gradient-2);}.cls-11{fill:url(#linear-gradient-3);}.cls-13,.cls-21{stroke-linecap:round;}.cls-13{stroke-width:4.86px;}.cls-14{opacity:0.08;fill:url(#linear-gradient-4);}.cls-15{fill:url(#linear-gradient-5);}.cls-16,.cls-21{stroke:#fff;}.cls-16{stroke-width:0.23px;}.cls-17{fill:url(#linear-gradient-6);}.cls-18,.cls-19{stroke-width:1.12px;}.cls-19{stroke:#fbbc23;}.cls-20{fill:url(#linear-gradient-7);}.cls-21{stroke-width:3.06px;}</style><linearGradient id="linear-gradient" x1="260.07" y1="701.71" x2="260.07" y2="338.67" gradientUnits="userSpaceOnUse"><stop offset="0" stop-color="#fff"/><stop offset="1" stop-color="#fff" stop-opacity="0"/></linearGradient><linearGradient id="linear-gradient-2" x1="334.37" y1="500.5" x2="334.37" y2="354.08" gradientUnits="userSpaceOnUse"><stop offset="0" stop-color="#40bead"/><stop offset="1" stop-color="#40bead" stop-opacity="0"/></linearGradient><linearGradient id="linear-gradient-3" x1="185.76" y1="500.5" x2="185.76" y2="354.08" xlink:href="#linear-gradient-2"/><linearGradient id="linear-gradient-4" x1="245.38" y1="735.18" x2="251.63" y2="581.68" xlink:href="#linear-gradient"/><linearGradient id="linear-gradient-5" x1="492.67" y1="368.12" x2="470.31" y2="279.38" xlink:href="#linear-gradient"/><linearGradient id="linear-gradient-6" x1="318.23" y1="292.78" x2="418.85" y2="269.84" gradientUnits="userSpaceOnUse"><stop offset="0" stop-color="#fbbc23"/><stop offset="1" stop-color="#fbbc23" stop-opacity="0"/></linearGradient><linearGradient id="linear-gradient-7" x1="533.5" y1="287.79" x2="572.95" y2="288.7" xlink:href="#linear-gradient"/></defs><title>Hairdressing</title><g id="Layer_2" data-name="Layer 2"><g id="Layer_1-2" data-name="Layer 1"><rect class="cls-1" width="600" height="750"/><rect class="cls-2" x="134.9" y="259.62" width="253.11" height="336.89"/><rect class="cls-3" x="134.9" y="290.08" width="253.11" height="374.75"/><path class="cls-4" d="M419.2,570.4,313.44,515.11l-4.59-93.56H212.72l-5.13,93.56h0L101.12,570.42A106.08,106.08,0,0,0,49.79,629.8L8.06,750h504L470.29,629.65A106.1,106.1,0,0,0,419.2,570.4Z"/><path class="cls-5" d="M419.2,570.4l-81.82-42.77a131.3,131.3,0,0,1-154.32.23l-81.94,42.56A106.08,106.08,0,0,0,49.79,629.8L8.06,750h504L470.29,629.65A106.1,106.1,0,0,0,419.2,570.4Z"/><g class="cls-6"><path class="cls-1" d="M184.7,580.61h0V378.11h-16V564.58A16,16,0,0,0,184.7,580.61Z"/></g><g class="cls-6"><path class="cls-1" d="M327.46,617.24h0V414.74h24.66V592.58A24.66,24.66,0,0,1,327.46,617.24Z"/></g><path class="cls-7" d="M162.45,192.07H357.68a0,0,0,0,1,0,0V371.48a97.61,97.61,0,0,1-97.61,97.61h0a97.61,97.61,0,0,1-97.61-97.61V192.07a0,0,0,0,1,0,0Z"/><path class="cls-8" d="M251.1,308.42l-2.41,48.88a10.53,10.53,0,0,0-7.4,10.21,10.35,10.35,0,0,0,10.09,10.6h17.37a10.35,10.35,0,0,0,10.09-10.6,10.52,10.52,0,0,0-7.4-10.21L269,308.42"/><line class="cls-9" x1="176.68" y1="308.42" x2="241.29" y2="303.08"/><line class="cls-9" x1="339.79" y1="308.42" x2="275.74" y2="303.08"/><path class="cls-10" d="M341,357.74c-16.53,0-29.93,14.09-29.93,31.46s13.4,31.47,29.93,31.47a28.08,28.08,0,0,0,3.68-.25,106.18,106.18,0,0,0,13-51.17v-6.16A28.74,28.74,0,0,0,341,357.74Z"/><path class="cls-11" d="M179.14,357.74a28.74,28.74,0,0,0-16.69,5.35v6.16a106.18,106.18,0,0,0,13,51.17,28.08,28.08,0,0,0,3.68.25c16.53,0,29.93-14.09,29.93-31.47S195.67,357.74,179.14,357.74Z"/><path class="cls-12" d="M310.64,307a17.32,17.32,0,1,1-17.32,17.32A17.34,17.34,0,0,1,310.64,307m0-2.79a20.11,20.11,0,1,0,20.11,20.11,20.11,20.11,0,0,0-20.11-20.11Z"/><circle class="cls-12" cx="314.11" cy="319.3" r="11.07"/><path class="cls-12" d="M209.49,307a17.32,17.32,0,1,1-17.31,17.32A17.34,17.34,0,0,1,209.49,307m0-2.79a20.11,20.11,0,1,0,20.11,20.11,20.11,20.11,0,0,0-20.11-20.11Z"/><circle class="cls-12" cx="212.96" cy="319.3" r="11.07"/><path class="cls-13" d="M232.21,398.42a44.14,44.14,0,0,0,55.71,0"/><path class="cls-1" d="M398.79,287.55c-.18-80.69-62.44-146-139.22-146s-139.24,65.55-139.24,146.4h.08V653.39h0A50.39,50.39,0,0,0,170.8,603V276.41h50.93l5.85-41.36,3.64,41.36h30.24v37.23h79l7.4-34V648a51,51,0,0,0,51,51V287.55Z"/><path class="cls-14" d="M433.15,721.4a37.39,37.39,0,0,0-41.63-27h0a26.18,26.18,0,0,1-29.36-19.72l-13.31-54.92a24.12,24.12,0,0,0-26.9-18.2h0a24.14,24.14,0,0,0-20.69,23.88v40.29a21.49,21.49,0,0,1-21.94,21.49h0a21.49,21.49,0,0,1-21-19.75l-5.26-64.81a23,23,0,0,0-22.89-21.11h0a23,23,0,0,0-22.55,18.59l-16.12,82.93a28.13,28.13,0,0,1-30.4,22.62h0a28.12,28.12,0,0,1-24.7-33.94l.78-3.61a25,25,0,0,0-20.63-30h0A25,25,0,0,0,89.74,653L48.52,750H441Z"/><path class="cls-7" d="M467.38,694.85l-91.44-82.37,3.75-4.17a7.46,7.46,0,0,1,10.54-.55L548.13,750h-6.29Z"/><rect class="cls-7" x="369.46" y="605.58" width="2.69" height="29.22" transform="translate(510.39 -88.79) rotate(42.01)"/><rect class="cls-7" x="373.97" y="609.64" width="2.69" height="29.22" transform="translate(514.27 -90.76) rotate(42.01)"/><rect class="cls-7" x="378.49" y="613.71" width="2.69" height="29.22" transform="translate(518.15 -92.74) rotate(42.01)"/><rect class="cls-7" x="383" y="617.77" width="2.69" height="29.22" transform="translate(522.03 -94.71) rotate(42.01)"/><rect class="cls-7" x="387.51" y="621.84" width="2.69" height="29.22" transform="translate(525.92 -96.69) rotate(42.01)"/><rect class="cls-7" x="392.02" y="625.9" width="2.69" height="29.22" transform="translate(529.8 -98.67) rotate(42.01)"/><rect class="cls-7" x="396.54" y="629.97" width="2.69" height="29.22" transform="translate(533.68 -100.64) rotate(42.01)"/><rect class="cls-7" x="401.05" y="634.04" width="2.69" height="29.22" transform="translate(537.56 -102.62) rotate(42.01)"/><rect class="cls-7" x="410.08" y="642.17" width="2.69" height="29.22" transform="translate(545.32 -106.57) rotate(42.01)"/><rect class="cls-7" x="423.62" y="654.36" width="2.69" height="29.22" transform="translate(556.96 -112.5) rotate(42.01)"/><rect class="cls-7" x="432.64" y="662.49" width="2.69" height="29.22" transform="matrix(0.74, 0.67, -0.67, 0.74, 564.72, -116.45)"/><rect class="cls-7" x="441.67" y="670.62" width="2.69" height="29.22" transform="translate(572.49 -120.4) rotate(42.01)"/><rect class="cls-7" x="428.13" y="658.43" width="2.69" height="29.22" transform="translate(560.84 -114.47) rotate(42.01)"/><rect class="cls-7" x="437.16" y="666.56" width="2.69" height="29.22" transform="translate(568.61 -118.42) rotate(42.01)"/><rect class="cls-7" x="446.18" y="674.69" width="2.69" height="29.22" transform="translate(576.37 -122.37) rotate(42.01)"/><rect class="cls-7" x="450.69" y="678.76" width="2.69" height="29.22" transform="translate(580.25 -124.35) rotate(42.01)"/><rect class="cls-7" x="414.59" y="646.23" width="2.69" height="29.22" transform="translate(549.2 -108.54) rotate(42.01)"/><rect class="cls-7" x="405.56" y="638.1" width="2.69" height="29.22" transform="translate(541.44 -104.59) rotate(42.01)"/><rect class="cls-7" x="419.1" y="650.3" width="2.69" height="29.22" transform="translate(553.08 -110.52) rotate(42.01)"/><rect class="cls-7" x="455.21" y="682.82" width="2.69" height="29.22" transform="matrix(0.74, 0.67, -0.67, 0.74, 584.13, -126.33)"/><path class="cls-12" d="M534.65,258.66,501,246.59a44.9,44.9,0,0,0-15.22-2.65H440.77a11.69,11.69,0,0,0,0,23.38H471.7l-2,.1-82.06,44.91a10.06,10.06,0,0,0-3.23,14.91h0a10.07,10.07,0,0,0,13,2.7l34.32-19.43,51.76,44.87,48.11-26.68a16.16,16.16,0,0,0,3.86-3l9.11-9.44a16.52,16.52,0,0,1,11.85-5h7.48v-52.6Z"/><path class="cls-15" d="M534.65,258.66,501,246.59a44.9,44.9,0,0,0-15.22-2.65H440.77a11.69,11.69,0,0,0,0,23.38H471.7l-2,.1-82.06,44.91a10.06,10.06,0,0,0-3.23,14.91h0a10.07,10.07,0,0,0,13,2.7l34.32-19.43,51.76,44.87,48.11-26.68a16.16,16.16,0,0,0,3.86-3l9.11-9.44a16.52,16.52,0,0,1,11.85-5h7.48v-52.6Z"/><path class="cls-12" d="M428.68,338.8l30.1-16.31A10.06,10.06,0,0,0,462,307.57h0a10.05,10.05,0,0,0-13-2.69l-29.82,16.83a9.77,9.77,0,0,0-.24,16.87h0A9.77,9.77,0,0,0,428.68,338.8Z"/><path class="cls-12" d="M456.27,349.53l22.32-12.44a10.06,10.06,0,0,0,3.23-14.92h0a10.05,10.05,0,0,0-13-2.69l-22,13a9.76,9.76,0,0,0-.24,16.87h0A9.75,9.75,0,0,0,456.27,349.53Z"/><path class="cls-12" d="M478,358.41l18.48-10.3a8.33,8.33,0,0,0,2.68-12.35h0a8.33,8.33,0,0,0-10.74-2.23l-18.25,10.73a8.08,8.08,0,0,0-.2,14h0A8.08,8.08,0,0,0,478,358.41Z"/><polyline class="cls-16" points="493.21 334.45 486.67 338.59 491.79 347.2 498.08 344.18"/><polyline class="cls-16" points="473.05 320.65 466.07 325.08 473.05 335.56 481.08 331.13"/><polygon class="cls-7" points="383.79 288.4 298.54 260.64 390.54 277.25 425.88 311.8 424.73 318.17 383.79 288.4"/><path class="cls-7" d="M442.2,305.4a15.6,15.6,0,0,1,2.64.23,14.79,14.79,0,1,1-2.64-.23m0-4.67a19.43,19.43,0,0,0-3.43,38.54,18.67,18.67,0,0,0,3.47.32,19.43,19.43,0,0,0,0-38.86Z"/><polygon class="cls-7" points="453.38 334.07 468.03 342.08 469.64 338.07 457.96 327.86 453.38 334.07"/><path class="cls-7" d="M448,241.16a14.77,14.77,0,1,1-14.77,14.77A14.78,14.78,0,0,1,448,241.16m0-4.66a19.43,19.43,0,1,0,19.42,19.43A19.43,19.43,0,0,0,448,236.5Z"/><polygon class="cls-7" points="384.8 276.79 347 281.97 345.48 288.96 389.46 288.96 430.38 261.25 430.38 254.78 384.8 276.79"/><polygon class="cls-17" points="384.8 276.79 347 281.97 345.48 288.96 389.46 288.96 430.38 261.25 430.38 254.78 384.8 276.79"/><circle class="cls-7" cx="446.14" cy="276.75" r="2.85"/><path class="cls-5" d="M386.61,280.23a2,2,0,1,1-2,2,2,2,0,0,1,2-2m0-.94a2.94,2.94,0,1,0,2.94,2.94,2.94,2.94,0,0,0-2.94-2.94Z"/><path class="cls-12" d="M446.28,329.26l12.5-6.77A10.06,10.06,0,0,0,462,307.57h0a10.05,10.05,0,0,0-13-2.69l-18.17,10.25Z"/><polyline class="cls-16" points="454.3 305.75 445.44 310.64 451.5 321.78 460.34 318.18"/><path class="cls-12" d="M448.47,243.94h-11.9a11.68,11.68,0,0,0-11.68,11.69h0a11.69,11.69,0,0,0,11.68,11.69h8.69"/><polyline class="cls-16" points="430.87 248.22 443.75 248.22 443.75 243.94"/><path class="cls-18" d="M65.13,554.11l-5,5.34L55.63,546.9a3.51,3.51,0,0,0-5.87-1.2L25.24,572a3.51,3.51,0,0,0,.94,5.5l11.52,6-4.86,5.21a18.23,18.23,0,0,0,.9,25.77l2.31,2.16,3.67,3.41,10,9.29,3.85-4.13-10-9.29,3.76-4,10,9.29,3.86-4.14-10-9.29,3.76-4,10,9.29,3.85-4.14-10-9.28,3.76-4,10,9.29,3.86-4.13-10-9.29,3.76-4,10,9.29L84,592.57l-10-9.29,3.76-4,10,9.29,3.86-4.14-10-9.28,3.76-4,10,9.29,3.86-4.13-10-9.29,3.76-4,10,9.29,3.85-4.14-10-9.29-3.66-3.41-2.32-2.16A18.23,18.23,0,0,0,65.13,554.11Z"/><line class="cls-19" x1="185.45" y1="616.73" x2="177.43" y2="636.29"/><line class="cls-19" x1="225.19" y1="626.91" x2="249.06" y2="632.23"/><line class="cls-19" x1="150.54" y1="659.76" x2="130.61" y2="673.7"/><line class="cls-19" x1="210.14" y1="655.18" x2="225.63" y2="692.61"/><line class="cls-19" x1="118.12" y1="661.96" x2="112.55" y2="685.43"/><path class="cls-19" d="M165.56,677.75c39.8-8.9,32.68-45.53,32.68-45.53"/><path class="cls-19" d="M93.7,629.37c14.25,2.66,13.14,20.37,13.14,20.37"/><path class="cls-19" d="M193.91,594.94a9.35,9.35,0,0,0,9,6.14"/><circle class="cls-1" cx="564.57" cy="270.7" r="8.95"/><circle class="cls-1" cx="564.57" cy="252.88" r="8.95"/><circle class="cls-1" cx="564.57" cy="288.51" r="8.95"/><circle class="cls-1" cx="564.57" cy="306.32" r="8.95"/><circle class="cls-1" cx="564.57" cy="324.13" r="8.95"/><path class="cls-20" d="M573.51,270.7a8.94,8.94,0,0,0-8.15-8.91,9,9,0,1,0-1.58,0,8.94,8.94,0,0,0,0,17.81,8.94,8.94,0,0,0,0,17.81,8.94,8.94,0,0,0,0,17.82,8.94,8.94,0,1,0,1.58,0,8.95,8.95,0,0,0,0-17.82,8.94,8.94,0,0,0,0-17.81A8.93,8.93,0,0,0,573.51,270.7Z"/><line class="cls-21" x1="545.64" y1="250.06" x2="549.69" y2="328.74"/></g></g></svg>