<svg id="Layer_1" data-name="Layer 1" xmlns="http://www.w3.org/2000/svg" viewBox="0 0 227.94 495.08"><defs><style>.cls-1{fill:#474747;}.cls-2{fill:#ee2375;}.cls-3,.cls-5{fill:none;stroke:#fff;}.cls-3{stroke-miterlimit:10;stroke-width:0.25px;}.cls-4{fill:#fff;}.cls-5{stroke-linejoin:bevel;}</style></defs><title>Untitled-14</title><path class="cls-1" d="M61.94,206.91H50.66L48.09,0H.09L0,258.17v47.31a6.88,6.88,0,0,0,6.88,6.88h0a6.88,6.88,0,0,0,6.88-6.88V266.81h4.69v45.05a6.88,6.88,0,0,0,6.88,6.88h0a6.88,6.88,0,0,0,6.88-6.88V266.81H36.9v54a6.88,6.88,0,0,0,6.88,6.88h0a6.88,6.88,0,0,0,6.88-6.88v-54h4.69v50.54a6.88,6.88,0,0,0,6.88,6.88h0a6.88,6.88,0,0,0,6.88-6.88V263.86h0V239.72H77.6v24.53a8.29,8.29,0,0,0,8.29,8.29h0a8.29,8.29,0,0,0,8.29-8.29v-25.1a32.23,32.23,0,0,0-32.24-32.24Z"/><path class="cls-2" d="M10.81,309.47H2.88V303a4,4,0,0,1,4-4h0a4,4,0,0,1,4,4Z"/><path class="cls-2" d="M29.09,315.65H21.15v-6.5a4,4,0,0,1,4-4h0a4,4,0,0,1,4,4Z"/><path class="cls-2" d="M47.69,323.67H39.75v-6.49a4,4,0,0,1,4-4h0a4,4,0,0,1,4,4Z"/><path class="cls-2" d="M66.41,320.4H58.47v-6.49a4,4,0,0,1,4-4h0a4,4,0,0,1,4,4Z"/><path class="cls-2" d="M94.18,253.27h0a0,0,0,0,1,0,0v13.4a0,0,0,0,1,0,0H85.72a0,0,0,0,1,0,0v-4.94A8.46,8.46,0,0,1,94.18,253.27Z"/><path class="cls-1" d="M166,228.09h11.27L177.09,2l50.85-.66V326.66a6.88,6.88,0,0,1-6.88,6.88h0a6.88,6.88,0,0,1-6.88-6.88V288h-4.69V333a6.88,6.88,0,0,1-6.88,6.88h0a6.88,6.88,0,0,1-6.88-6.88V288H191v54a6.88,6.88,0,0,1-6.88,6.88h0a6.88,6.88,0,0,1-6.88-6.88V288h-4.69v50.54a6.88,6.88,0,0,1-6.88,6.88h0a6.88,6.88,0,0,1-6.88-6.88V285h0V260.9h-8.51v24.53a8.29,8.29,0,0,1-8.29,8.29h0a8.29,8.29,0,0,1-8.29-8.29v-25.1A32.23,32.23,0,0,1,166,228.09Z"/><path class="cls-3" d="M199.08,335.64v-6.49a4,4,0,0,1,4-4h0a4,4,0,0,1,4,4"/><path class="cls-3" d="M217.11,327.85v-2.91a4,4,0,0,1,4-4h0a4,4,0,0,1,4,4"/><path class="cls-3" d="M180.32,337.11a4,4,0,0,1,4-4h0a4,4,0,0,1,4,4v6.5"/><path class="cls-2" d="M133.76,274.45h8.46a0,0,0,0,1,0,0v13.4a0,0,0,0,1,0,0h0a8.46,8.46,0,0,1-8.46-8.46v-4.94A0,0,0,0,1,133.76,274.45Z" transform="translate(275.97 562.29) rotate(180)"/><rect class="cls-4" x="114.84" y="339.89" width="21.85" height="12.93"/><path class="cls-4" d="M158.79,347.61h-22.1a1.26,1.26,0,0,1,0-2.51h22.1a1.26,1.26,0,0,1,0,2.51Z"/><path class="cls-4" d="M156.39,347.2a12.8,12.8,0,0,0,12.8-12.8h-6.82v6.82a6,6,0,0,1-6,6h0"/><path class="cls-2" d="M162.37,341.22c0,.1,0,.19,0,.28l5.26-.93a12.62,12.62,0,0,0,1.59-6.17h-6.82Z"/><path class="cls-5" d="M126,359.39a6.7,6.7,0,0,0-13.4,0,20.16,20.16,0,1,1-9.23-16.95,19.65,19.65,0,0,1,2,1.46,6.7,6.7,0,0,0,8.58-10.3,33.41,33.41,0,0,0-21.48-7.77,33.56,33.56,0,0,0-10.18,1.58l25.88-25.87a7.15,7.15,0,0,0,0-10.11l-.28-.27a7.14,7.14,0,0,0-10.1,0L77,311.93,89,293a7.15,7.15,0,0,0-2.19-9.87h0A7.14,7.14,0,0,0,77,285.32L64.07,305.56l4.13-15.1a7.15,7.15,0,0,0-13.79-3.77l-6.33,23.18v-4.24a6.87,6.87,0,0,0-13.73,0v189H79.23V403.7L108,389.15l-.13,0A33.59,33.59,0,0,0,126,359.39Z"/></svg>