<svg id="Layer_1" data-name="Layer 1" xmlns="http://www.w3.org/2000/svg" viewBox="0 0 227.94 493.74"><defs><style>.cls-1,.cls-4,.cls-6{fill:none;stroke:#fff;}.cls-1{stroke-linecap:round;stroke-width:0.5px;}.cls-1,.cls-4{stroke-miterlimit:10;}.cls-2{fill:#474747;}.cls-3{fill:#ee2375;}.cls-4{stroke-width:0.25px;}.cls-5{fill:#fff;}.cls-6{stroke-linejoin:bevel;}</style></defs><title>hands</title><path class="cls-1" d="M195,415.56a4.24,4.24,0,1,1,7.86,3.16"/><path class="cls-1" d="M167,404.72a5.46,5.46,0,1,1-7.71-7.72"/><path class="cls-1" d="M158.34,442.36a3.48,3.48,0,0,1-4.92,4.92"/><path class="cls-2" d="M61.94,205.56H50.66L53.09.66H.09L0,256.82v47.32A6.88,6.88,0,0,0,6.88,311h0a6.88,6.88,0,0,0,6.88-6.88V265.46h4.69v45.05a6.88,6.88,0,0,0,6.88,6.88h0a6.88,6.88,0,0,0,6.88-6.88V265.46H36.9v54a6.88,6.88,0,0,0,6.88,6.88h0a6.88,6.88,0,0,0,6.88-6.88v-54h4.69V316a6.88,6.88,0,0,0,6.88,6.88h0A6.88,6.88,0,0,0,69.11,316V262.52h0V238.38H77.6v24.53a8.29,8.29,0,0,0,8.29,8.29h0a8.29,8.29,0,0,0,8.29-8.29v-25.1a32.25,32.25,0,0,0-32.24-32.25Z"/><path class="cls-3" d="M10.81,308.13H2.88v-6.49a4,4,0,0,1,4-4h0a4,4,0,0,1,4,4Z"/><path class="cls-3" d="M29.09,314.3H21.15v-6.49a4,4,0,0,1,4-4h0a4,4,0,0,1,4,4Z"/><path class="cls-3" d="M47.69,322.33H39.75v-6.5a4,4,0,0,1,4-4h0a4,4,0,0,1,4,4Z"/><path class="cls-3" d="M66.41,319.06H58.47v-6.5a4,4,0,0,1,4-4h0a4,4,0,0,1,4,4Z"/><path class="cls-3" d="M94.18,251.92h0a0,0,0,0,1,0,0v13.4a0,0,0,0,1,0,0H85.72a0,0,0,0,1,0,0v-4.94A8.46,8.46,0,0,1,94.18,251.92Z"/><path class="cls-2" d="M166,226.74h11.27L177.09-.34,227.94,0V325.32a6.88,6.88,0,0,1-6.88,6.88h0a6.88,6.88,0,0,1-6.88-6.88V286.64h-4.69v45.05a6.88,6.88,0,0,1-6.88,6.88h0a6.88,6.88,0,0,1-6.88-6.88V286.64H191v54a6.88,6.88,0,0,1-6.88,6.88h0a6.88,6.88,0,0,1-6.88-6.88v-54h-4.69v50.55a6.88,6.88,0,0,1-6.88,6.88h0a6.88,6.88,0,0,1-6.88-6.88V283.7h0V259.56h-8.51v24.53a8.29,8.29,0,0,1-8.29,8.29h0a8.29,8.29,0,0,1-8.29-8.29V259A32.25,32.25,0,0,1,166,226.74Z"/><path class="cls-4" d="M199.08,334.3v-6.5a4,4,0,0,1,4-4h0a4,4,0,0,1,4,4"/><path class="cls-4" d="M217.11,326.51V323.6a4,4,0,0,1,4-4h0a4,4,0,0,1,4,4"/><path class="cls-4" d="M180.32,335.77a4,4,0,0,1,4-4h0a4,4,0,0,1,4,4v6.49"/><path class="cls-3" d="M133.76,273.1h8.46a0,0,0,0,1,0,0v13.4a0,0,0,0,1,0,0h0a8.46,8.46,0,0,1-8.46-8.46V273.1A0,0,0,0,1,133.76,273.1Z" transform="translate(275.97 559.61) rotate(180)"/><rect class="cls-5" x="114.84" y="338.55" width="21.85" height="12.93"/><path class="cls-5" d="M158.79,346.26h-22.1a1.25,1.25,0,0,1,0-2.5h22.1a1.25,1.25,0,0,1,0,2.5Z"/><path class="cls-5" d="M156.39,345.86a12.81,12.81,0,0,0,12.8-12.81h-6.82v6.83a6,6,0,0,1-6,6h0"/><path class="cls-3" d="M162.37,339.88c0,.1,0,.18,0,.28l5.26-.93a12.65,12.65,0,0,0,1.59-6.18h-6.82Z"/><path class="cls-6" d="M126,358a6.7,6.7,0,0,0-13.4,0,20.14,20.14,0,1,1-9.23-17,21.33,21.33,0,0,1,2,1.46,6.7,6.7,0,1,0,8.58-10.29,33.15,33.15,0,0,0-3.27-2.41,33.5,33.5,0,0,0-28.39-3.78l25.88-25.88a7.14,7.14,0,0,0,0-10.1l-.28-.28a7.14,7.14,0,0,0-10.1,0L77,310.59,89,291.66a7.15,7.15,0,0,0-2.19-9.87h0A7.14,7.14,0,0,0,77,284L64.07,304.22l4.13-15.11a7.15,7.15,0,0,0-13.79-3.76l-6.33,23.18v-4.24a6.87,6.87,0,1,0-13.73,0v189H79.23V402.35L108,387.8l-.13,0A33.58,33.58,0,0,0,126,358Z"/></svg>