<svg xmlns="http://www.w3.org/2000/svg" xmlns:xlink="http://www.w3.org/1999/xlink" viewBox="0 0 600 750"><defs><style>.cls-1{isolation:isolate;}.cls-2{fill:#a2cacc;}.cls-10,.cls-11,.cls-3,.cls-9{fill:#fff;}.cls-4{fill:#fbbc23;}.cls-5{fill:#474747;}.cls-6,.cls-7{fill:#40bead;}.cls-6{opacity:0.13;}.cls-7{opacity:0.17;}.cls-8{mix-blend-mode:multiply;fill:url(#linear-gradient);}.cls-9{opacity:0.47;}.cls-10{opacity:0.7;}.cls-11{opacity:0.33;}.cls-12{opacity:0.38;fill:url(#linear-gradient-2);}.cls-13{opacity:0.2;}.cls-14{fill:url(#linear-gradient-3);}.cls-15{fill:url(#linear-gradient-4);}.cls-16{fill:url(#linear-gradient-5);}.cls-17{fill:url(#linear-gradient-6);}.cls-18{fill:url(#linear-gradient-7);}.cls-19{fill:url(#linear-gradient-8);}.cls-20{fill:url(#linear-gradient-9);}.cls-21{opacity:0.26;}</style><linearGradient id="linear-gradient" x1="-1641.68" y1="543.9" x2="-1479.11" y2="405.99" gradientTransform="translate(1583.81 1201.67) rotate(42.83)" gradientUnits="userSpaceOnUse"><stop offset="0" stop-color="#fbbc23"/><stop offset="1" stop-color="#fbbc23" stop-opacity="0"/></linearGradient><linearGradient id="linear-gradient-2" x1="-772.67" y1="-1632.9" x2="-676.59" y2="-1594.92" gradientTransform="matrix(0.93, 0.36, -0.36, 0.93, 208.82, 2265.29)" gradientUnits="userSpaceOnUse"><stop offset="0" stop-color="#fff"/><stop offset="0.92" stop-color="#fff" stop-opacity="0"/></linearGradient><linearGradient id="linear-gradient-3" x1="-730.33" y1="-1668.99" x2="-726.68" y2="-1960.34" gradientTransform="matrix(0.93, 0.36, -0.36, 0.93, 208.82, 2265.29)" gradientUnits="userSpaceOnUse"><stop offset="0" stop-color="#fff"/><stop offset="1" stop-color="#fff" stop-opacity="0"/></linearGradient><linearGradient id="linear-gradient-4" x1="-725.8" y1="-1668.93" x2="-722.14" y2="-1960.28" xlink:href="#linear-gradient-3"/><linearGradient id="linear-gradient-5" x1="-720.17" y1="-1668.86" x2="-716.52" y2="-1960.21" xlink:href="#linear-gradient-3"/><linearGradient id="linear-gradient-6" x1="-703.35" y1="-1668.65" x2="-699.7" y2="-1960" xlink:href="#linear-gradient-3"/><linearGradient id="linear-gradient-7" x1="-742.46" y1="-1669.14" x2="-738.81" y2="-1960.49" xlink:href="#linear-gradient-3"/><linearGradient id="linear-gradient-8" x1="-743.19" y1="-1669.15" x2="-739.53" y2="-1960.5" xlink:href="#linear-gradient-3"/><linearGradient id="linear-gradient-9" x1="-761.85" y1="-1669.39" x2="-758.19" y2="-1960.73" xlink:href="#linear-gradient-3"/></defs><title>Health</title><g class="cls-1"><g id="Layer_2" data-name="Layer 2"><g id="Layer_1-2" data-name="Layer 1"><rect class="cls-2" width="600" height="750"/><path class="cls-3" d="M336.55,211.92l-32.31,9-34-157.18H176.11l50.09,179,25.56,91.32,4.31,15.4,19.28,68.9A12.73,12.73,0,0,0,291,427.25h0a12.72,12.72,0,0,0,8.82-15.69l-19.28-68.91,8.36-2.33,22.46,80.26a12.72,12.72,0,0,0,15.69,8.82h0a12.71,12.71,0,0,0,8.82-15.68l-22.46-80.26,8.36-2.34,26.91,96.17a12.73,12.73,0,0,0,15.69,8.83h0a12.73,12.73,0,0,0,8.83-15.69l-26.91-96.17,8.35-2.34L379.88,412a12.72,12.72,0,0,0,15.69,8.82h0a12.72,12.72,0,0,0,8.83-15.68l-26.67-95.3h-.06L365,264.46a7.88,7.88,0,0,1,5.46-9.71h0a7.88,7.88,0,0,1,9.71,5.46L393,306.27a15.34,15.34,0,0,0,18.9,10.64h0A15.34,15.34,0,0,0,422.58,298l-12.51-44.71a59.65,59.65,0,0,0-73.52-41.37Z"/><polygon class="cls-4" points="303.82 158.17 199.08 187.49 141.21 0 263.71 0 303.82 158.17"/><circle class="cls-5" cx="205.09" cy="200.87" r="5.15"/><circle class="cls-5" cx="221.72" cy="197.2" r="5.15"/><circle class="cls-5" cx="238.34" cy="193.53" r="5.15"/><circle class="cls-5" cx="254.97" cy="189.86" r="5.15"/><circle class="cls-5" cx="271.59" cy="186.2" r="5.15"/><circle class="cls-5" cx="288.22" cy="182.53" r="5.15"/><circle class="cls-5" cx="304.84" cy="178.86" r="5.15"/><circle class="cls-6" cx="348.07" cy="253.91" r="5.02"/><circle class="cls-6" cx="335.13" cy="267.96" r="2.51"/><circle class="cls-6" cx="292.66" cy="305.45" r="2.51"/><circle class="cls-6" cx="251.08" cy="239.06" r="2.51"/><path class="cls-7" d="M274.21,324.43a1.22,1.22,0,0,1-.77-1.22l2.17-29.38a115.82,115.82,0,0,0-4-39.9l-7.13-25.48a1.22,1.22,0,1,1,2.35-.65L274,253.27A118.44,118.44,0,0,1,278,294l-2.17,29.38a1.21,1.21,0,0,1-1.3,1.12A1.35,1.35,0,0,1,274.21,324.43Z"/><path class="cls-7" d="M321.5,315.47a1.24,1.24,0,0,1-.48-.34l-.95-1.1a119.41,119.41,0,0,1-24.57-45.7l-4.36-15.56a1.22,1.22,0,0,1,2.35-.66l4.35,15.56a117,117,0,0,0,24.07,44.76l.95,1.1a1.22,1.22,0,0,1-.12,1.72A1.23,1.23,0,0,1,321.5,315.47Z"/><path class="cls-7" d="M315.84,274.37a1.21,1.21,0,0,1-.74-.8l-2.7-9.66a96,96,0,0,0-8.53-20.74l-5.19-9.31a1.22,1.22,0,0,1,.47-1.66,1.23,1.23,0,0,1,1.66.47L306,242a97.88,97.88,0,0,1,8.76,21.26l2.7,9.66a1.22,1.22,0,0,1-.84,1.5A1.12,1.12,0,0,1,315.84,274.37Z"/><path class="cls-3" d="M182.94,552.2a22,22,0,0,1-9.4-7,22.21,22.21,0,1,1,9.4,7ZM198.65,512a21,21,0,1,0,5.28,36.05h0A21,21,0,0,0,198.65,512Zm5.65,36.53h0Z"/><path class="cls-3" d="M88.81,616.41a6.92,6.92,0,0,1-4.31-7.47,6.84,6.84,0,0,1,2.9-4.64l86.41-59.79.75,1L95.9,615.14a6.84,6.84,0,0,1-5.2,1.71A7,7,0,0,1,88.81,616.41Zm77.33-65.11-78,54a5.69,5.69,0,1,0,7,8.93Z"/><path class="cls-3" d="M76.4,583.74a101.55,101.55,0,1,1,111.41-25.57A101.1,101.1,0,0,1,76.4,583.74Zm73.31-188.17a100.36,100.36,0,1,0,37.21,161.77l.45.42-.45-.42a100.46,100.46,0,0,0-37.21-161.77Z"/><circle class="cls-3" cx="113.33" cy="489.14" r="72.16"/><circle class="cls-4" cx="113.33" cy="489.14" r="63.16"/><circle class="cls-8" cx="113.33" cy="489.14" r="63.16"/><path class="cls-3" d="M57.37,443.83a5.09,5.09,0,0,1-1.64-1L33.4,422.11a5.18,5.18,0,1,1,7-7.59l22.32,20.69a5.18,5.18,0,0,1-5.39,8.62Z"/><path class="cls-3" d="M64.92,492.71a4.73,4.73,0,0,1-1.48-.93,4.7,4.7,0,0,1-.26-6.65,4.72,4.72,0,0,1,6.66-.26,4.72,4.72,0,0,1,.25,6.66h0A4.72,4.72,0,0,1,64.92,492.71Zm3.24-8.29a4.19,4.19,0,1,0,1.55,6.75,4.11,4.11,0,0,0,1.11-3,4.16,4.16,0,0,0-1.33-2.92A4.43,4.43,0,0,0,68.16,484.42Zm1.74,6.93h0Z"/><path class="cls-3" d="M156.1,505.2a3,3,0,0,1-.9-.57,2.84,2.84,0,1,1,4.76-2.19,2.8,2.8,0,0,1-.75,2h0a2.83,2.83,0,0,1-2,.91A3.14,3.14,0,0,1,156.1,505.2Zm1.9-4.86a2.38,2.38,0,1,0-.78,4.59,2.43,2.43,0,0,0,1.66-.76h0a2.38,2.38,0,0,0-.13-3.36A2.3,2.3,0,0,0,158,500.34Z"/><path class="cls-9" d="M156.1,463.39a2.93,2.93,0,0,1-1.85-2.6,2.92,2.92,0,0,1,4.89-2.25,2.93,2.93,0,0,1,.15,4.12h0A2.91,2.91,0,0,1,156.1,463.39Zm1.89-4.86a2.37,2.37,0,0,0-.92-.15,2.28,2.28,0,0,0-1.6.73,2.26,2.26,0,0,0-.61,1.66,2.28,2.28,0,0,0,.73,1.6,2.32,2.32,0,0,0,3.26-.13h0a2.3,2.3,0,0,0-.13-3.25A2.15,2.15,0,0,0,158,458.53Zm1.08,3.92h0Z"/><circle class="cls-10" cx="60.06" cy="474.08" r="2.61"/><circle class="cls-11" cx="76.5" cy="445.88" r="6.74"/><circle class="cls-11" cx="174.64" cy="506.56" r="6.36"/><circle class="cls-10" cx="167.16" cy="491.74" r="2.61"/><path class="cls-12" d="M166.12,523.16a55.32,55.32,0,0,1-44,16.46,54.52,54.52,0,0,1-22.56-7,53,53,0,0,1-9.49-7,47.65,47.65,0,0,1-4.19-4.31,43.31,43.31,0,0,1-3.62-4.9,43.89,43.89,0,0,1-6.9-22.81,42.94,42.94,0,0,1,9.2-27.54c.6-.77,1.24-1.51,1.88-2.24s1.31-1.42,2.08-2.1l1.12-1a13.24,13.24,0,0,1,1.15-1l2.43-1.82,2.59-1.57a13.18,13.18,0,0,1,1.35-.69l1.36-.65a34.48,34.48,0,0,1,33.91,3.12l1.18.86a11,11,0,0,1,1.14.9c.73.64,1.45,1.28,2.16,1.94s1.38,1.46,2,2.23,1.24,1.59,1.78,2.43a28,28,0,0,1,3.5,22.79,27.22,27.22,0,0,1-5.49,10.18,22.24,22.24,0,0,1-2,2.12c-.37.33-.72.68-1.11,1l-1.2.9a11.7,11.7,0,0,1-1.25.82c-.43.25-.85.52-1.29.74a21.27,21.27,0,0,1-2.73,1.19,22.21,22.21,0,0,1-11.58.95,21.64,21.64,0,0,1-10.27-5c-.35-.33-.72-.62-1-1l-1-1.1a18.4,18.4,0,0,1-1.69-2.42,17.86,17.86,0,0,1-2.07-5.48,17,17,0,0,1,5-15.79,13.94,13.94,0,0,1,10.63-3.73,13.5,13.5,0,0,1,5.41,1.63,13.15,13.15,0,0,1,4.24,3.7,11,11,0,0,1,2,5.3,10.82,10.82,0,0,1-.93,5.48,10.13,10.13,0,0,1-3.54,4.22,8.55,8.55,0,0,1-5.32,1.36,8.31,8.31,0,0,1-4.94-2.11,6.72,6.72,0,0,1-2.29-4.8,6.54,6.54,0,0,1,1.88-4.84l.76.71a5.28,5.28,0,0,0-1.25,4,5.13,5.13,0,0,0,2,3.56,6.46,6.46,0,0,0,3.91,1.35,6.38,6.38,0,0,0,3.82-1.28,7.54,7.54,0,0,0,2.35-3.3,7.81,7.81,0,0,0,.38-4,7.57,7.57,0,0,0-1.64-3.56,9.22,9.22,0,0,0-3.19-2.37,9.42,9.42,0,0,0-7.69-.08,9.28,9.28,0,0,0-3.1,2.22,12.5,12.5,0,0,0-2.14,3.32,11.92,11.92,0,0,0-.5,7.65,11.59,11.59,0,0,0,1.61,3.43,13.59,13.59,0,0,0,1.18,1.45l.69.64c.22.22.52.4.77.61a14.6,14.6,0,0,0,7.14,2.88,14.36,14.36,0,0,0,7.43-1.19,13,13,0,0,0,1.65-.87,8,8,0,0,0,.76-.53,6.54,6.54,0,0,0,.74-.56l.69-.61c.23-.2.43-.45.64-.67a13.06,13.06,0,0,0,1.21-1.49,17.93,17.93,0,0,0,3.12-7,17.72,17.72,0,0,0-3.23-14.17c-.37-.49-.81-.92-1.19-1.39s-.9-.83-1.33-1.25L127.66,469a7,7,0,0,0-.8-.54l-.83-.5a22.46,22.46,0,0,0-7.08-2.68,21.86,21.86,0,0,0-14.43,2.23l-.79.46a5.21,5.21,0,0,0-.78.47l-1.47,1c-.45.41-.91.81-1.36,1.2a5.53,5.53,0,0,0-.64.64l-.62.67a17.79,17.79,0,0,0-1.21,1.43c-.39.51-.77,1-1.13,1.56a31,31,0,0,0-1.9,3.3A27.45,27.45,0,0,0,92,492.84a26.41,26.41,0,0,0,5.21,13.46A25.22,25.22,0,0,0,99.56,509a28.76,28.76,0,0,0,2.76,2.42,34,34,0,0,0,20.89,7.3,33.72,33.72,0,0,0,14.21-3.08A33,33,0,0,0,148.7,507Z"/><g class="cls-13"><path class="cls-14" d="M119.88,463l-8.14,20.92A11.22,11.22,0,0,0,119.88,463Z"/><path class="cls-15" d="M141.29,410,126.7,447.49A20.11,20.11,0,1,0,141.29,410Z"/><path class="cls-16" d="M171.43,332.5l-24.13,62a33.28,33.28,0,1,0,24.13-62Z"/><path class="cls-17" d="M250.29,129.78l-52.13,134a71.9,71.9,0,1,0,52.13-134Z"/><path class="cls-18" d="M117.39,470.56l10-25.7a13.79,13.79,0,0,0-10,25.7Z"/><path class="cls-19" d="M138.47,416.37l10-25.69a13.78,13.78,0,0,0-10,25.69Z"/><path class="cls-20" d="M168.61,338.87l35.23-90.56a48.59,48.59,0,0,0-35.23,90.56Z"/></g><rect class="cls-4" x="545.48" y="195.51" width="3.24" height="3.24" transform="translate(108.68 -184.93) rotate(21.26)"/><rect class="cls-4" x="508.85" y="298.27" width="5.3" height="5.3" transform="translate(45.62 668.54) rotate(-68.74)"/><path class="cls-4" d="M441.8,209.42,437,207.54l1.88-4.83,4.82,1.88ZM438,207.1l3.4,1.33,1.32-3.4-3.4-1.33Z"/><path class="cls-4" d="M570.77,228.67l-.18-3.95,3.94-.17.18,3.94Zm.43-3.39.12,2.78,2.78-.12-.12-2.78Z"/><path class="cls-4" d="M529.54,212.1l-3.92-1.53,1.53-3.92,3.92,1.53Zm-3.11-1.88,2.76,1.07,1.07-2.76-2.76-1.07Z"/><path class="cls-5" d="M449.08,341.38a10.67,10.67,0,0,1,6.46,7.12l21.79,77.88,4.87,17.4L511.09,547l56.8,203h3.8L514.6,546,485.72,442.79l-4.87-17.4-21.79-77.87a14.36,14.36,0,0,0-8.65-9.54h0a14.29,14.29,0,0,0-9.09-.44h0a14.38,14.38,0,0,0-10,17.73l21.79,77.88-9.44,2.64-25.39-90.71a14.39,14.39,0,1,0-27.71,7.75L416,443.55l-9.45,2.64L376.12,337.48a14.38,14.38,0,0,0-17.73-10h0a14.39,14.39,0,0,0-10,17.73l30.42,108.7-9.44,2.65L340.91,354.81a14.39,14.39,0,0,0-27.71,7.75l30.14,107.72.06,0,13.6,48.6-17.15,4.8L326,474.27a17.34,17.34,0,0,0-33.4,9.35l14.15,50.53a66.92,66.92,0,0,0,31.86,40.59,67.71,67.71,0,0,0,8.75,4.14,66.82,66.82,0,0,0,42.48,2l22.71-6.35L461.68,750h3.79L416.1,573.57l-1-3.51-3.52,1-22.7,6.35a63,63,0,0,1-40.18-1.91,65.79,65.79,0,0,1-8.28-3.92,63.37,63.37,0,0,1-30.14-38.39l-14.14-50.54a13.7,13.7,0,0,1,9.49-16.86,13.69,13.69,0,0,1,16.87,9.49l13.82,49.38,1,3.52,3.52-1L358,522.38l3.51-1-1-3.52-13.6-48.59-1-3.52h-.06L316.72,361.58a10.73,10.73,0,0,1,20.67-5.79l28.48,101.78,1,3.52,3.51-1,9.45-2.64,3.52-1-1-3.52L351.93,344.25a10.73,10.73,0,1,1,20.67-5.78L403,447.17l1,3.52,3.52-1,9.44-2.65,3.52-1-1-3.52-25.38-90.71a10.73,10.73,0,0,1,20.67-5.79l25.39,90.72,1,3.51,3.52-1,9.44-2.64,3.52-1-1-3.52-21.8-77.88a10.75,10.75,0,0,1,14.22-12.9h0"/><g class="cls-21"><path class="cls-5" d="M501.38,574.19a32.24,32.24,0,0,0-56.05,15.69l-37.19,10.4L415.61,627l37.19-10.4a32.24,32.24,0,0,0,56.05-15.69l31.24-8.74-7.47-26.69Zm-18.72,42.08a21.62,21.62,0,1,1,15-26.65A21.63,21.63,0,0,1,482.66,616.27Z"/></g><path class="cls-4" d="M574.55,240.54A24.34,24.34,0,1,1,543,254.4a24.37,24.37,0,0,1,31.51-13.86m.88-2.27a26.78,26.78,0,1,0,15.25,34.66,26.77,26.77,0,0,0-15.25-34.66Z"/><rect class="cls-4" x="550.38" y="256.52" width="37.03" height="0.61" transform="translate(-55.26 250.81) rotate(-23.74)"/><rect class="cls-4" x="548.64" y="268.06" width="31.03" height="0.61" transform="translate(-60.31 249.88) rotate(-23.74)"/><path class="cls-4" d="M483.18,230.84A36.38,36.38,0,1,1,523.74,173a1.22,1.22,0,0,1-.6,2,10.59,10.59,0,0,0-7.41,13.24,1.22,1.22,0,0,1-1.21,1.56,10.63,10.63,0,0,0-6.37,19.39,1.21,1.21,0,0,1,.36,1.62,11.25,11.25,0,0,0-.75,1.53,10.64,10.64,0,0,0,6.06,13.77l.28.1.21.07a1.21,1.21,0,0,1,.22,2.21A36.24,36.24,0,0,1,483.18,230.84Zm25.49-65.54a33.94,33.94,0,1,0,2.47,62.19,13.11,13.11,0,0,1-5.65-16.08c.12-.3.25-.6.4-.91A13.07,13.07,0,0,1,513,187.37a12.88,12.88,0,0,1,.7-6.89,13.16,13.16,0,0,1,6.94-7.23A33.63,33.63,0,0,0,508.67,165.3Z"/><rect class="cls-4" x="459.88" y="192.16" width="32.81" height="0.61" transform="translate(-37.18 208.07) rotate(-23.74)"/><rect class="cls-4" x="473.7" y="199.46" width="32.38" height="0.61" transform="translate(-38.97 214.17) rotate(-23.74)"/><rect class="cls-4" x="477.34" y="176.58" width="41.5" height="0.61" transform="translate(-29.06 215.53) rotate(-23.74)"/></g></g></g></svg>