<svg xmlns="http://www.w3.org/2000/svg" viewBox="0 0 2218.3 486.12"><title>iGCSE</title><style type="text/css" media="screen">
	path { fill: #3bae73; }
</style><g id="Layer_2" data-name="Layer 2"><g id="Layer_1-2" data-name="Layer 1"><path d="M171.49,387.24c0,19.36,4.84,29.73,24.9,29.73h28.35v55.32H2.07V417H31.81c20.05,0,24.89-10.37,24.89-29.73V233.73c0-19.37-4.84-29.74-24.89-29.74H0V148.67H171.49Zm0-327.08c0,33.88-26.28,60.16-60.16,60.16S51.17,94,51.17,60.16,77.45,0,111.33,0,171.49,26.28,171.49,60.16Z"/><path d="M781.39,291.12H749.58c-17.29,0-27,10.37-27,27.66v159H662.45l-15.21-33.88C607.13,475.06,556,486.12,511,486.12c-143.83,0-244.79-81.59-244.79-236.49C266.22,93.35,363.72,0,511,0c40.11,0,89.9,13.14,124.47,46.33L649.31,7.61h62.23V195.69h-64.3c-2.08-68.45-42.88-131.38-112.72-131.38-80.21,0-118.24,59.47-118.24,179.1s38,177,118.24,177c26.28,0,58.09-10.37,58.09-42.87V318.78c0-17.29-9.68-27.66-27-27.66h-36V230.27H781.39Z"/><path d="M1191.44,7.61h62.24V195.69h-64.31c0-71.22-38.73-131.38-116.87-131.38-76.75,0-118.24,55.32-118.24,178.41,0,109.25,27,179.09,123.78,179.09,72.6,0,111.33-60.16,111.33-124.47h64.31c-2.08,127.24-77.45,188.78-205.38,188.78-143.14,0-244.1-81.59-244.1-243.4C804.2,96.12,905.16,0,1039.31,0c34.58,0,107.88,17.29,138.3,46.33Z"/><path d="M1704.52,177.71H1640.9c-10.37-72.6-74.68-113.4-135.53-113.4-40.11,0-77.45,13.14-77.45,59.47,0,87.13,299.42,17.29,299.42,214.36,0,110.64-95.43,148-190.85,148-53.25,0-107.19-11.06-150.75-42.87l-18,36.65h-58.09V298.73H1374c9,72.6,69.15,123.08,150.75,123.08,36,0,79.52-20.05,79.52-59.47,0-98.88-299.42-18.67-299.42-217.13C1304.83,31.12,1407.87,0,1503.29,0c47,0,92,15.21,131.39,40.11l12.45-32.5h57.39Z"/><path d="M1828.29,102.34c0-17.29-9.68-27.66-27-27.66h-42.87V13.83H2218.3V189.47H2154c0-99.58-38.73-114.79-127.24-114.79h-68.46V206.76h21.44c40.11,0,54.63-15.91,54.63-58.78V132.77h57.39V341.6h-57.39V325c0-25.58-9.68-57.39-34.58-57.39h-41.49V411.44h84.37c72.6,0,111.33-15.21,111.33-126.54h64.31V472.29H1759.14V411.44h42.18c17.29,0,27-10.37,27-27.66Z"/></g></g></svg>
