<svg xmlns="http://www.w3.org/2000/svg" viewBox="0 0 600 750.91"><defs><style>.cls-1{fill:#f969a4;}.cls-2{fill:#fff;}.cls-3{fill:#a3cbcc;}.cls-10,.cls-4,.cls-5,.cls-6,.cls-7,.cls-8,.cls-9{fill:none;stroke-miterlimit:10;}.cls-4,.cls-7{stroke:#474747;}.cls-4,.cls-5{stroke-width:3.41px;}.cls-5,.cls-6,.cls-9{stroke:#a3cbcc;}.cls-6{stroke-width:1.36px;}.cls-7{stroke-width:2.73px;}.cls-10,.cls-8{stroke:#fff;}.cls-8{stroke-width:13.87px;}.cls-9{stroke-linecap:round;stroke-width:4.62px;}.cls-10{stroke-width:2.31px;}.cls-11{fill:#40bead;}</style></defs><title>Interior Design</title><g id="Layer_2" data-name="Layer 2"><g id="Layer_1-2" data-name="Layer 1"><rect class="cls-1" width="600" height="750"/><circle class="cls-2" cx="455.22" cy="346.8" r="100.28"/><polygon class="cls-2" points="514.7 609.8 451.38 618.63 384.78 608.4 435.98 284.79 554.17 362.63 514.7 609.8"/><rect class="cls-3" x="403.63" y="364.06" width="74.22" height="251.7" transform="translate(82.93 -63.47) rotate(9.09)"/><path class="cls-2" d="M408.13,336.45l-51.49-8.24-22.71,141.9a15.4,15.4,0,0,0,12.78,17.64L383,493.56a77.61,77.61,0,0,0,88.9-64.38l12.87-80.47Z"/><polygon class="cls-2" points="477.17 296.15 457.33 420.68 324.61 399.44 353.29 350.34 477.17 296.15"/><path class="cls-3" d="M496.52,371.38a23.53,23.53,0,0,1-7.44,46.46"/><path class="cls-3" d="M489.08,417.84a11.76,11.76,0,1,1-3.71,23.23"/><circle class="cls-4" cx="384.55" cy="362.94" r="11.4"/><polygon class="cls-3" points="442.4 410.37 465.3 414.03 477 340.91 442.92 335.46 442.4 410.37"/><polygon class="cls-3" points="422.16 351.14 552.74 372.03 560.3 324.78 433.57 279.83 422.16 351.14"/><circle class="cls-5" cx="384.55" cy="362.94" r="24.22"/><path class="cls-6" d="M384.29,398.05a29.52,29.52,0,0,1-24.48-33.8"/><path class="cls-3" d="M388.38,339A24.21,24.21,0,0,1,408,357l-44-7A24.21,24.21,0,0,1,388.38,339Z"/><rect class="cls-3" x="347.49" y="356.76" width="140.81" height="5.34" transform="translate(757.85 793.32) rotate(-168.78)"/><path class="cls-3" d="M499,363.5l1.48-9.22,53.7,8.59-6.27,39.19-23.18-3.7A30.92,30.92,0,0,0,499,363.5Z"/><path class="cls-3" d="M524.75,398.36c-1.55,9.66-5.91,34.69,16.2,47.39l9.85-61.6Z"/><line class="cls-6" x1="466" y1="300.45" x2="471.82" y2="264.07"/><line class="cls-6" x1="452.77" y1="289.36" x2="458.59" y2="252.97"/><line class="cls-6" x1="472.12" y1="297.98" x2="477.94" y2="261.6"/><line class="cls-6" x1="482.03" y1="309.47" x2="487.85" y2="273.09"/><path class="cls-7" d="M379.37,427.9a41.44,41.44,0,0,1-41.17,4.59"/><line class="cls-6" x1="409.91" y1="325.57" x2="370.38" y2="319.25"/><line class="cls-6" x1="438.11" y1="319.14" x2="381.46" y2="310.08"/><polygon class="cls-2" points="393.09 557.83 302.16 750.91 583.36 750 523.91 552.23 393.09 557.83"/><circle class="cls-3" cx="399.21" cy="397.14" r="1.68"/><circle class="cls-3" cx="434.74" cy="429.59" r="1.68"/><circle class="cls-3" cx="353.25" cy="459.48" r="1.68"/><path class="cls-1" d="M497.9,598.34a55.73,55.73,0,0,1,48.28,28l-7.79-25.94a67.23,67.23,0,0,0-107.76,53.67h11.56A55.78,55.78,0,0,1,497.9,598.34Z"/><polyline class="cls-6" points="394.28 557.1 385.25 607.51 525.18 553.93"/><circle class="cls-8" cx="51.4" cy="326.75" r="34.59"/><polyline class="cls-9" points="49.77 329.08 38.03 332.6 51.66 388.92 68.9 384.27 95.54 485.72"/><circle class="cls-2" cx="116.26" cy="289.31" r="4.54"/><circle class="cls-2" cx="116.26" cy="268.63" r="1.41"/><circle class="cls-2" cx="199.8" cy="374.98" r="4.54"/><circle class="cls-2" cx="219.63" cy="369.12" r="1.41"/><circle class="cls-2" cx="484.94" cy="328.21" r="1.41"/><circle class="cls-2" cx="106.99" cy="264.01" r="1.41"/><circle class="cls-2" cx="164.19" cy="198.91" r="1.41"/><circle class="cls-2" cx="210.37" cy="113.28" r="1.41"/><circle class="cls-2" cx="153.46" cy="384.82" r="1.41"/><circle class="cls-2" cx="219.63" cy="408.62" r="1.41"/><circle class="cls-2" cx="239.89" cy="286.92" r="1.41"/><circle class="cls-2" cx="241.3" cy="141.96" r="1.41"/><circle class="cls-2" cx="280.57" cy="224.33" r="1.41"/><circle class="cls-2" cx="290.51" cy="429.59" r="1.41"/><circle class="cls-2" cx="510.77" cy="354.28" r="1.41"/><circle class="cls-2" cx="173.37" cy="282.27" r="9.18"/><path class="cls-10" d="M102.14,541.49a35.2,35.2,0,0,0,43,25l20.26-5.6"/><rect class="cls-11" x="87.67" y="436.86" width="23.88" height="129.91" transform="translate(-125.44 42.37) rotate(-14.87)"/><path class="cls-2" d="M145.35,482.33a38.53,38.53,0,0,0-48.1-25.49A7.39,7.39,0,0,0,101.59,471a23.76,23.76,0,0,1,29.64,15.71L161.08,579l14.13-4.34Z"/><path class="cls-2" d="M116.8,494.34,71,508.42a7.39,7.39,0,0,1-4.34-14.13l45.8-14.07a7.39,7.39,0,1,1,4.34,14.12Z"/><path class="cls-2" d="M122.15,511.74,76.34,525.81A7.39,7.39,0,0,1,72,511.69l45.81-14.08a7.39,7.39,0,0,1,4.34,14.13Z"/><path class="cls-2" d="M127.49,529.13l-45.8,14.08a7.39,7.39,0,0,1-4.34-14.13L123.15,515a7.39,7.39,0,1,1,4.34,14.12Z"/><path class="cls-2" d="M132.84,546.53,87,560.6a7.39,7.39,0,0,1-4.34-14.12l45.81-14.07a7.39,7.39,0,1,1,4.34,14.12Z"/><polygon class="cls-2" points="172.79 567.15 122.02 585.18 173.38 750.91 274.13 750 172.79 567.15"/></g></g></svg>