<svg xmlns="http://www.w3.org/2000/svg" viewBox="0 0 63.29 26.67"><defs><style>.cls-1{fill:#008066;}</style></defs><title>SAGE</title><g id="Layer_2" data-name="Layer 2"><g id="Layer_1-2" data-name="Layer 1"><path class="cls-1" d="M28.42,12.54V11.17H23.18c-2.57,0-3.77.89-3.77,2.25s1.15,2.36,4.12,2.36c3.64,0,4.89-.33,4.89-3.24M17.22,3.41,15.37,5.27A10.78,10.78,0,0,0,9.53,3.54c-2.79,0-3.73,1-3.73,2.24,0,.82.68,1.63,2.87,1.77l3.61.22a7.35,7.35,0,0,1,4.8,1.74,8,8,0,0,1,5.29-1.66h6.05V6c0-1.77-1.33-2.39-4.46-2.39a6.8,6.8,0,0,0-4.91,1.72ZM49.78,8.14H59.9c0-3.24-2.4-4.84-5.07-4.84s-5,1.57-5,4.84M34.63,9.57c0,3,.09,3.53.89,4.39a5.24,5.24,0,0,0,3.77,1.45A4.71,4.71,0,0,0,42.83,14c.79-.86.88-1.38.88-4.39S43.62,6,42.83,5.14a4.71,4.71,0,0,0-3.54-1.45,5.24,5.24,0,0,0-3.77,1.45c-.8.86-.93,1.35-.89,4.43M31.88,2.84c.14-.18.3-.36.47-.55A7.76,7.76,0,0,1,38.1,0a7.92,7.92,0,0,1,5.62,2.22v-2H48.1v2A9.07,9.07,0,0,1,54.35,0c4.79,0,8.92,3.29,8.94,8.8,0,.94-.1,2.63-.1,2.63H49.78c0,3.05,2.08,4.2,5.07,4.2a8.34,8.34,0,0,0,5.07-1.9l2.94,2.13a11.28,11.28,0,0,1-7.92,3.29,10,10,0,0,1-6.84-2.26v1.57c0,5.64-4.46,8.21-9.44,8.21a11.21,11.21,0,0,1-7.56-3.13l3.4-2.32a6.66,6.66,0,0,0,4.25,1.7c2.92,0,5-1.44,5-4.05V17a8.27,8.27,0,0,1-5.62,2.17,8,8,0,0,1-5.3-1.84v1.89H28.42V17.26h-.09c-.9,1.29-2.4,1.88-5.36,1.88A8.56,8.56,0,0,1,16.79,17a11.46,11.46,0,0,1-7.22,2.08A14.93,14.93,0,0,1,0,15.77l3.05-2.58a10,10,0,0,0,6.87,2.39c2.49,0,4.29-.81,4.29-2.39,0-1.33-1.16-1.73-2.66-1.84l-3.87-.3C4.08,10.8,1.42,9,1.42,5.75,1.42,2,4.94,0,9.53,0A14,14,0,0,1,17.2,2C18.8.53,20.91,0,23.74,0c3.78,0,6.72.77,8.14,2.82"/></g></g></svg>