<svg xmlns="http://www.w3.org/2000/svg" viewBox="0 0 442.57 267.76"><defs><style>.cls-1{fill:#152027;}.cls-2{fill:#fcdc04;}.cls-3{fill:#fac607;}.cls-4{fill:#f79b22;}</style></defs><title>ILM</title><g id="Layer_2" data-name="Layer 2"><g id="Layer_1-2" data-name="Layer 1"><polygon class="cls-1" points="16.73 92.05 16.73 92.05 65.56 92.05 65.56 265.36 16.73 265.36 16.73 92.05"/><path class="cls-1" d="M95.64,18.45h49.88l-.45,193c0,15.08,4.73,16.43,22.13,16.43v38.79c-8,.68-15.45,1.05-23.48,1.05-8.7,0-25.42-.37-36.45-10.43-10.65-9.68-11.7-22.73-11.7-35.41Z"/><path class="cls-1" d="M238.84,92.05h0v23.48c2.4-4.72,5.4-11.1,13.43-17.1C261,91.75,273.65,88.08,286,88.08a61.87,61.87,0,0,1,19.06,3c19.72,6.67,25.43,20.7,27.75,26.78,15.45-25.81,39.83-29.48,52.89-29.48,16,0,30.08,5.4,39.45,13.73,16.73,14.7,17.4,30.76,17.4,71v92.28H393.44V183.43c0-27.76-.67-33.46-5.7-40.81-5.4-8-13.05-9.75-20.4-9.75a25.93,25.93,0,0,0-21.08,10c-5.4,8.4-5.4,22.73-5.4,36.84v85.6H291.72V178c0-18.68,0-27.08-5-34.74a24,24,0,0,0-20.1-10.42,28,28,0,0,0-12.68,3.07c-14.4,7.35-14.7,20-14.7,52.82v76.6H190V92.05Z"/><polygon class="cls-2" points="31.5 39.16 31.5 39.16 35.56 40.81 39.68 39.16 41.41 35.03 39.68 30.98 35.56 29.26 31.5 30.98 29.78 35.03 31.5 39.16"/><polygon class="cls-2" points="54.01 39.16 54.01 39.16 58.06 40.81 62.19 39.16 63.84 35.03 62.19 30.98 58.06 29.26 54.01 30.98 52.28 35.03 54.01 39.16"/><polygon class="cls-2" points="20.18 50.41 20.18 50.41 24.3 52.06 28.43 50.41 30.08 46.29 28.43 42.16 24.3 40.51 20.18 42.16 18.53 46.29 20.18 50.41"/><path class="cls-2" d="M52.51,46.29h0a5.63,5.63,0,1,1-5.63-5.63A5.61,5.61,0,0,1,52.51,46.29Z"/><path class="cls-2" d="M29.93,23.93h0a5.63,5.63,0,1,1-11.25,0,5.63,5.63,0,1,1,11.25,0Z"/><path class="cls-2" d="M63.69,57.24h0a5.63,5.63,0,1,1-5.63-5.63A5.64,5.64,0,0,1,63.69,57.24Z"/><polygon class="cls-2" points="46.88 29.33 46.88 29.33 41.48 23.93 46.88 18.53 52.28 23.93 46.88 29.33"/><polygon class="cls-2" points="58.06 51.69 58.06 51.69 52.66 46.29 58.06 40.88 63.54 46.29 58.06 51.69"/><polygon class="cls-2" points="35.56 62.72 35.56 62.72 30.16 57.24 35.56 51.84 41.03 57.24 35.56 62.72"/><polygon class="cls-2" points="15.53 32.33 15.53 32.33 12.75 31.21 10.05 32.33 8.93 35.03 10.05 37.73 12.75 38.86 15.53 37.73 16.65 35.03 15.53 32.33"/><polygon class="cls-2" points="15.3 21.3 15.3 21.3 12.75 20.25 10.2 21.38 9.15 23.93 10.2 26.56 12.83 27.61 15.38 26.48 16.43 23.93 15.3 21.3"/><polygon class="cls-2" points="8.93 47.86 8.93 47.86 11.18 50.11 14.33 50.11 16.58 47.86 16.58 44.71 14.33 42.46 11.18 42.46 8.93 44.71 8.93 47.86"/><polygon class="cls-2" points="71.94 32.33 71.94 32.33 69.24 31.21 66.54 32.33 65.34 35.03 66.54 37.73 69.24 38.86 71.94 37.73 73.06 35.03 71.94 32.33"/><polygon class="cls-2" points="71.41 54.99 71.41 54.99 69.16 54.09 66.99 55.06 66.09 57.32 66.99 59.49 69.24 60.47 71.49 59.49 72.39 57.24 71.41 54.99"/><polygon class="cls-2" points="44.78 4.87 44.78 4.87 46.81 5.77 48.91 4.95 49.73 2.92 48.91 0.9 46.88 0 44.86 0.82 43.96 2.85 44.78 4.87"/><polygon class="cls-2" points="56.41 4.5 56.41 4.5 58.06 5.17 59.71 4.5 60.38 2.85 59.71 1.2 58.06 0.52 56.41 1.2 55.73 2.85 56.41 4.5"/><polygon class="cls-2" points="22.65 4.5 22.65 4.5 24.3 5.17 25.95 4.5 26.63 2.85 25.95 1.2 24.3 0.52 22.65 1.2 21.98 2.85 22.65 4.5"/><polygon class="cls-2" points="60.76 65.27 60.76 65.27 58.06 64.14 55.43 65.27 54.31 67.89 55.43 70.59 58.06 71.65 60.76 70.59 61.81 67.89 60.76 65.27"/><polygon class="cls-2" points="27 65.27 27 65.27 24.3 64.14 21.68 65.27 20.55 67.89 21.68 70.59 24.3 71.65 27 70.59 28.05 67.89 27 65.27"/><path class="cls-2" d="M39.38,67.89h0a3.79,3.79,0,1,1-3.82-3.75A3.78,3.78,0,0,1,39.38,67.89Z"/><path class="cls-3" d="M39.38,67.89h0a3.79,3.79,0,1,1-3.82-3.75A3.78,3.78,0,0,1,39.38,67.89Z"/><path class="cls-2" d="M12.9,65.42h0A2.44,2.44,0,0,1,15.23,68a2.41,2.41,0,0,1-2.55,2.4,2.55,2.55,0,0,1-2.4-2.55A2.51,2.51,0,0,1,12.9,65.42Z"/><path class="cls-2" d="M12.9,10.42h0A2.45,2.45,0,0,1,15.23,13a2.41,2.41,0,0,1-2.55,2.4,2.55,2.55,0,0,1-2.4-2.55A2.47,2.47,0,0,1,12.9,10.42Z"/><path class="cls-2" d="M69.31,10.42h0A2.51,2.51,0,0,1,71.71,13a2.47,2.47,0,0,1-2.62,2.4,2.48,2.48,0,0,1,.22-5Z"/><polygon class="cls-2" points="37.66 75.77 37.66 75.77 35.63 74.87 33.61 75.7 32.71 77.72 33.53 79.82 35.56 80.65 37.58 79.82 38.48 77.8 37.66 75.77"/><polygon class="cls-2" points="25.95 76.15 25.95 76.15 24.3 75.47 22.65 76.15 21.98 77.8 22.65 79.45 24.3 80.12 25.95 79.45 26.63 77.8 25.95 76.15"/><polygon class="cls-2" points="4.5 55.59 4.5 55.59 2.85 54.91 1.2 55.59 0.53 57.24 1.2 58.89 2.85 59.57 4.5 58.89 5.18 57.24 4.5 55.59"/><polygon class="cls-2" points="4.5 22.28 4.5 22.28 2.85 21.6 1.2 22.28 0.53 23.93 1.2 25.58 2.85 26.26 4.5 25.58 5.18 23.93 4.5 22.28"/><polygon class="cls-2" points="82.14 33.91 82.14 33.91 80.56 32.33 78.39 32.33 76.81 33.91 76.81 36.16 78.39 37.73 80.56 37.73 82.14 36.16 82.14 33.91"/><polygon class="cls-2" points="81.09 55.59 81.09 55.59 79.44 54.91 77.79 55.59 77.11 57.24 77.79 58.89 79.44 59.57 81.09 58.89 81.76 57.24 81.09 55.59"/><polygon class="cls-2" points="81.09 22.28 81.09 22.28 79.44 21.6 77.79 22.28 77.11 23.93 77.79 25.58 79.44 26.26 81.09 25.58 81.76 23.93 81.09 22.28"/><polygon class="cls-2" points="59.71 76.15 59.71 76.15 58.06 75.47 56.41 76.15 55.73 77.8 56.41 79.45 58.06 80.12 59.71 79.45 60.38 77.8 59.71 76.15"/><polygon class="cls-2" points="21.68 15.53 21.68 15.53 24.3 16.65 26.93 15.53 28.05 12.9 26.93 10.27 24.3 9.15 21.68 10.27 20.55 12.9 21.68 15.53"/><path class="cls-2" d="M43.13,12.9h0a3.75,3.75,0,1,1,3.75,3.75A3.71,3.71,0,0,1,43.13,12.9Z"/><path class="cls-3" d="M43.13,12.9h0a3.75,3.75,0,1,1,3.75,3.75A3.71,3.71,0,0,1,43.13,12.9Z"/><polygon class="cls-4" points="52.36 32.78 52.36 32.78 49.13 29.56 44.56 29.56 41.33 32.78 41.33 37.36 44.56 40.58 49.13 40.58 52.36 37.36 52.36 32.78"/><polygon class="cls-4" points="41.11 44.04 41.11 44.04 37.88 40.81 33.31 40.81 30.08 44.04 30.08 48.54 33.31 51.76 37.88 51.76 41.11 48.54 41.11 44.04"/><polygon class="cls-4" points="63.61 21.68 63.61 21.68 60.38 18.45 55.81 18.45 52.58 21.68 52.58 26.18 55.81 29.48 60.38 29.48 63.61 26.18 63.61 21.68"/><polygon class="cls-4" points="52.43 54.99 52.43 54.99 49.13 51.76 44.56 51.76 41.33 54.99 41.33 59.57 44.56 62.79 49.13 62.79 52.43 59.57 52.43 54.99"/><polygon class="cls-4" points="29.86 54.99 29.86 54.99 26.63 51.76 21.98 51.76 18.75 54.99 18.75 59.57 21.98 62.79 26.63 62.79 29.86 59.57 29.86 54.99"/><polygon class="cls-4" points="41.11 21.68 41.11 21.68 37.88 18.45 33.31 18.45 30.08 21.68 30.08 26.18 33.31 29.48 37.88 29.48 41.11 26.18 41.11 21.68"/><polygon class="cls-4" points="24.3 40.43 24.3 40.43 18.9 35.03 24.3 29.63 29.7 35.03 24.3 40.43"/><polygon class="cls-4" points="15.23 54.76 15.23 54.76 12.75 53.79 10.28 54.84 9.3 57.32 10.35 59.72 12.83 60.77 15.23 59.72 16.28 57.24 15.23 54.76"/><polygon class="cls-4" points="71.41 21.68 71.41 21.68 69.16 20.78 66.99 21.68 66.09 23.93 66.99 26.18 69.24 27.08 71.49 26.18 72.39 23.93 71.41 21.68"/><polygon class="cls-4" points="65.41 47.86 65.41 47.86 67.66 50.11 70.81 50.11 73.06 47.86 73.06 44.71 70.81 42.46 67.66 42.46 65.41 44.71 65.41 47.86"/><polygon class="cls-4" points="38.26 1.72 38.26 1.72 36.68 0.15 34.51 0.22 32.93 1.72 32.93 3.97 34.51 5.55 36.68 5.55 38.26 3.97 38.26 1.72"/><polygon class="cls-4" points="5.55 33.91 5.55 33.91 3.98 32.33 1.73 32.33 0.15 33.91 0.15 36.16 1.73 37.73 3.98 37.73 5.55 36.16 5.55 33.91"/><path class="cls-4" d="M69.31,65.42h0a2.48,2.48,0,1,1-.22,5,2.44,2.44,0,0,1-2.33-2.55A2.5,2.5,0,0,1,69.31,65.42Z"/><polygon class="cls-4" points="4.88 44.26 4.88 44.26 2.85 43.44 0.82 44.19 0 46.21 0.75 48.31 2.78 49.14 4.88 48.39 5.7 46.36 4.88 44.26"/><polygon class="cls-4" points="81.54 44.26 81.54 44.26 79.51 43.44 77.49 44.19 76.59 46.21 77.41 48.31 79.44 49.14 81.46 48.39 82.36 46.36 81.54 44.26"/><polygon class="cls-4" points="42.98 69.54 42.98 69.54 45.23 71.8 48.46 71.8 50.78 69.54 50.78 66.32 48.46 63.99 45.23 63.99 42.98 66.32 42.98 69.54"/><polygon class="cls-4" points="55.43 15.53 55.43 15.53 58.06 16.65 60.76 15.53 61.88 12.9 60.76 10.27 58.06 9.15 55.43 10.27 54.31 12.9 55.43 15.53"/><polygon class="cls-4" points="39.46 11.32 39.46 11.32 37.21 9 33.98 9 31.73 11.32 31.73 14.48 33.98 16.8 37.21 16.8 39.46 14.48 39.46 11.32"/><polygon class="cls-4" points="44.18 78.92 44.18 78.92 45.76 80.5 48.01 80.5 49.58 78.92 49.58 76.67 48.01 75.1 45.76 75.1 44.18 76.67 44.18 78.92"/></g></g></svg>