<svg xmlns="http://www.w3.org/2000/svg" viewBox="0 0 455.08 255.49"><title>IAB-logo0</title><g id="Layer_2" data-name="Layer 2"><g id="Layer_1-2" data-name="Layer 1"><path d="M426.47,106.72c-12.5-6.29-27.41-9.93-44.58-11.5,23-4.13,44.13-11.26,55.27-27.44,5.47-7.94,8.82-20.92,4.64-33.08-3.38-9.85-10.51-17.39-19-22.39C405.37,2,376.68,3.43,349,3.43H266.29V8.67h19.37c-.13,63.08.27,126.7-.2,189.44H260C237.22,131.89,214,66.13,191.05,0H169.46c-.28.05-.23.44-.4.61-9.88,30.45-20,62.38-30.87,95.22-5.2,15.72-10,32-15.33,47.81-4.61,13.72-9.2,28.08-13.52,41.55-1.22,3.8-2.25,7.61-4.64,9.89-2.55,2.44-5.35,2.68-9.68,3a93,93,0,0,1-15.74.2C79.42,135,79,71.08,79.48,8.07H98.85V3.43H2.22V8.07H21.59c-.14,63.41.26,127.36-.21,190.44H2.22v4.64H134.36a29.59,29.59,0,0,0-.61-5c-8,.22-14.78-.37-16.54-6.06-1.71-5.52.92-11.44,2.42-16.34,3.68-12,7.75-26,11.3-36.91h49.22c6.46,17,12.8,34.8,19,51.84a50.05,50.05,0,0,1,2.43,7.47H188.42v5H356.27c18.72,0,37.61.77,53.46-2.62,14.67-3.15,27-10.41,35.3-20.58,8.11-10,13.18-26.62,7.87-43.78C448.53,122,438.84,112.94,426.47,106.72Zm-293.32,27c7.08-22.36,14.55-44.35,21.78-66.57,8.14,21.92,15.73,44.39,23.81,66.37C164,134,148.28,133.62,133.15,133.75Zm210-125.08c16-1.51,32.62.71,40,9.49,6.7,8,8.56,22.13,8.07,36.31-.48,13.87-2.57,26.21-11.1,33.29S358.63,95.3,343.15,94Zm42.37,182.17c-9.81,8.56-24.61,8.41-42.37,7.47V99.05c18.79-1.64,37.44.88,45.8,11.3,7.61,9.48,8.67,25.5,8.67,42C397.62,168.55,394.88,182.68,385.52,190.84Z"/><path d="M256.81,224.74c.81-4.57.56-10.2,4.44-11.71.56,1.4,3.46,2.77,4.44.81-.2-1.7-1.86-2.13-3.23-2.22-4.24-.26-8.53,3.79-8.67,7.26.22.42.21.43-.21.21,0-.22-.26-.16-.2.2-.6,1.62-.57,3.87-1.21,5.45-1.28.06-3.14-.45-2.82,1.21.48.59,2.34-.2,2.82.4-.15,2.24-.43,4.94-.6,7.06a14.35,14.35,0,0,1-.41,2.62c-.08.31.05.69,0,1-.86,6.4-.69,14.51-5.24,16.75-1-.39-2.2-2.34-3.84-1.82-2.16.69-.37,3.14,1.22,3.43,3.68.66,7.35-2.35,8.67-4,4.35-5.57,3.22-17.22,4.84-25.21,1-.24,3.05.49,3.43-.41,0-.38.23-.44.2-.8C259.63,224.47,258,224.87,256.81,224.74Z"/><path d="M111.76,219.89c2.92,1.39,5.19-1.13,4.44-3.43C115.13,213.17,109.35,217.22,111.76,219.89Z"/><path d="M152.92,242.08c-.66-1.33-.48-3.19-.41-4.64.26-4.92,1.54-9.86,2.22-14.32.11,0,.23-.16,0-.2-.15.45-1.13.08-1.61.2-.13.54-.09,1.26-.41,1.62-2.72-1.26-7.1-.3-8.47.4a4,4,0,0,1-.6.2,15.24,15.24,0,0,0-8.07,10.29c-.68,3.41.27,8.19,2.62,9.08,5.09,1.93,8.29-5,10.29-7.67-.28,2.3-1.11,5.67-.2,7.87a13.08,13.08,0,0,0,4.84-1.41c1.41-.65,3.53-1.44,3.23-2.42C155.5,240.27,154.3,242.14,152.92,242.08Zm-5.25-6.45c-1,2.43-2.94,6.44-5.65,6.05-3.45-.49-1.55-7.5-1.21-9.68,1.83-3.09,3.48-7.06,8.88-6.26A29.82,29.82,0,0,1,147.67,235.63Z"/><path d="M129.92,223.93a10,10,0,0,0-5,1.81,13.39,13.39,0,0,0-5.25,5.25c-.2.38,0,.91-.2,1.41,0,.06-.53.27-.61.4a13.46,13.46,0,0,0-.8,4.85c-.06,7.49,6.91,8.57,12.5,5.85,1.32-.65,3.25-1.57,3-3-.9-.67-1.64.75-2.42,1.21-2.42,1.42-5.88,1.74-7.26-.6-3-5.13,1-14.71,5.44-15.74.22,1.72,5,3.54,5.25.81C134.68,224.59,132.13,223.82,129.92,223.93Z"/><path d="M176.32,242.29c-.59-6.25,2-12.1,1.41-18.36a16.37,16.37,0,0,0-5.45,1.21c-1,.34-2.83.47-2.62,1.61.7.88,2-.71,3.23-.6.8,2.24,0,4.95-.4,7.46-.59,3.85-1.63,8-.41,11.3a18.45,18.45,0,0,0,4.64-1c1.37-.51,3.47-1.07,3.23-2.62C178.88,241,178,242.47,176.32,242.29Z"/><path d="M449.47,224.53c-.29,0-.22-.32-.6-.4-4.63-.94-10.08,1.45-10.09,5.65,0,3.09,2.66,4.28,4,5.45,1.87,1.58,4.18,3.17,3.84,5.64-.3,2.09-1.61,2.62-4.85,2.63a4,4,0,0,0-2.21-2.63c-1.16-.51-2.56-.59-2.83.81-.31,1.59,1.1,1.34,1.41,2.22a20.55,20.55,0,0,0,4.44,1,10.38,10.38,0,0,0,5.25-1.41,6.2,6.2,0,0,0,2.62-2.22,4.42,4.42,0,0,0,.81-2c.44-5.6-6.29-6.54-7.87-9.68-1.3-2.6.93-4.53,3.43-4.24a3.61,3.61,0,0,0,2.62,2c1,.24,2.06-.1,2.22-1C452,224.85,450.3,224.63,449.47,224.53Z"/><path d="M103.09,224.74c.84-4.78.43-9.89,4.44-11.71.8,1.45,3.16,2.73,4.43.81-1.36-4.07-8-1.59-9.68.4,0,.76-.76,1-1.21,1.62-1.53,2.27-1.84,5.93-2.62,8.88-1.24.11-3.23-.54-2.83,1.21.48.59,2.35-.2,2.83.4-.37,3.43-.57,7.25-1,11.09-.78,6.8-.84,13.81-5.25,16.35-.9-1.08-4.69-3.22-4.84-.41-.17,3.26,6.14,1.66,7.67.81.29-.16.83-.91,1-1,6.88-3.8,5.24-18.2,7.06-27,1-.24,3,.49,3.43-.41,0-.38.22-.44.2-.8C105.91,224.47,104.23,224.87,103.09,224.74Z"/><path d="M79.28,242.08c-.91-2.37-.14-5,.2-7.46,1.09-7.6,2.42-15.51,2.43-22.59a28,28,0,0,0-5.86,1c-1.11.33-3.13.74-2.62,1.82.84,1,1.92-.76,3.43-.4,0,6.83-1.3,14.32-2,21.18-.35,3.4-1.28,7.33.21,9.28a17,17,0,0,0,4.64-1.21c1.16-.51,3.43-1.44,3-2.62C81.92,240.32,80.81,242.28,79.28,242.08Z"/><path d="M322,224.53c-2.79,1.3-4.56,4.82-6.05,6.66.77-6.23,2.42-12.63,2.22-19.16-2.38.41-5.14.47-7.26,1.41-.55.24-1.66.53-1.21,1.41.8.92,2-.68,3.43-.4-.27,9.5-2.2,20.69-3.43,29.45-.05.34-.54,1.44.2,1.61,1.48.41,1-1.16,1.61-1.61a12.47,12.47,0,0,0,9.08-.61A14.64,14.64,0,0,0,329,229.58C328.85,225.67,326.12,222.61,322,224.53Zm-1.21,16.55a7.92,7.92,0,0,1-6.25,2,31.33,31.33,0,0,1,1.81-9.88c.39-.92,1.17-1.65,1.42-2.42.1-.34-.47-.73,0-.41,1.35-1.6,2.41-3.5,5-3.83C326.24,229.29,323.67,238.29,320.76,241.08Z"/><path d="M374,215.86a2.93,2.93,0,0,0-1,4c4.58,2.57,6.31-6,1.62-4.43-.39.12.11.28,0,.4S374.22,215.72,374,215.86Z"/><path d="M27,229.38c1.2-7.62-2.66-14.48-10.49-14.93a15.92,15.92,0,0,0-5.44.6c-.23.08-.28.62-.61.2-.5.36-.29.34,0,.81-.38-.09-.36-.58-1-.4C4.31,218.48.13,222.31,0,230.18c.5,1.3.37,2.69,1,3.84,2.14,3.86,8.43,3.81,12.1,1.41.84-.55,2.54-1.66,1.82-2.63-.89-1.14-1.21,1.2-1.62.61-1.9,2-5.57,1.25-6.85-.4-4.47-5.77,1-18.18,9.28-16.95,8.52,1.27,7.17,16.83,3.22,21.79-2,2.56-5.18,4.07-8.87,4.84C8,239.58.1,238.34,0,244.1c1.27.43,1.57-1.1,2.62-1.21,1.57-.16,5.23,2.93,6.46,3.83,3.6,2.67,9.31,8.22,14.32,5.45.53-.29.46-1,1.21-.81.4-.46.4-.54,0-1,.82.78,3.12-1,2.22-2-1.27-.17-1.89.87-3.23,1-2,.2-4.27-.85-6.05-1.82s-3.24-2.76-4.84-2.82c.51-.51-.39-.64-.61-1,3.84-.48,6.79-2.42,9.08-3.83C24,237,26.31,233.94,27,229.38Z"/><path d="M92.8,216.46c-1-3.22-6.73.56-4.44,3.43C90.54,221.43,93.57,218.85,92.8,216.46Z"/><path d="M177.53,215.25c-1.67-.46-3.13,1.4-3.63,2.22a3.13,3.13,0,0,0,.6,2.63C178.44,221.7,180.13,216,177.53,215.25Z"/><path d="M165,224.74c-.11-2.22,1.08-4.14.61-6.06-1.71.14-2.4,2.28-2.63,3.23-1.37.58-1.53,2.37-3,2.83h-1.82c.15.61-.35.59-.2,1.21s1.94-.19,2.22.4c-.56,4.27-1.77,9-2,13.52-.24,4.31,1.48,5.46,4.64,4.84,1.95-.39,5.67-1.76,5.65-3,0-.42-.61.35-.2-.6-1,.24-2.82,1.48-4.64,1.61a6.23,6.23,0,0,1-.81-4.24,120.55,120.55,0,0,1,2-12.3c1.56-.32,4.72.95,4.24-1.41C167.78,224.68,165.64,224.82,165,224.74Z"/><path d="M68.79,242.08c-.65-1.35-.48-3.11-.4-4.64.27-5.12,1.86-10.6,2-14.32H69.2c-.69.12-.12,1.5-.61,1.82-.09-.59-1.07-.55-1.41-.61a15.78,15.78,0,0,0-3.63-.2c-6.79.47-11.93,7.19-12.31,13.92-.21,3.79,1.73,7.3,5,6.86,4-.53,6.1-5.1,8.07-7.87-.28,2.29-1.12,5.66-.2,7.87a8.49,8.49,0,0,0,3.63-1,22.65,22.65,0,0,0,3-1.41c.49-.3,1.93-.43,1.41-1.41C71.38,240.27,70.18,242.14,68.79,242.08Zm-4-9.07c-.06.23-.25,0-.41.2a19,19,0,0,0-.6,2.42,14,14,0,0,1-3.43,5.24c-2.06,1.5-4,.65-4.44-1.81-.67-3.95,1.26-7.92,2.62-9.89,0-.23,0-.36-.2-.4,0-.23.2-.11.2,0,1.52-1.72,3.68-3.85,7.06-3a22.4,22.4,0,0,1-.8,5.65C64.67,231.86,64.85,232.65,64.76,233Z"/><path d="M271.74,224.13a9.45,9.45,0,0,0-4.84,1.41c-3.21,2.08-6.58,8-6,13.52.39,4.14,3.67,6.11,7.66,5.85,6.32-.42,11.89-7.43,11.1-15.13C279.18,225.66,276.13,223.7,271.74,224.13Zm-3.63,19.37c-3.66-.92-2.61-9.53-2-12.11.86-2.6,2.47-6.55,5.85-6,1.12.17,1.59,1.13,2.22,1.41C276.18,231,274.55,245.11,268.11,243.5Z"/><path d="M419.65,226.35c-.12.14-1.26,1-1.45.81a7,7,0,0,0-.2-2c-.77-.6-1.16-1.07-2-1.21a11.37,11.37,0,0,0-9.68,3.43c-3.83,3.82-5.49,11.19-2.83,15.13,1.85,2.72,6.28,2.89,9.89,1.61.21-.69.5-.23,1-.6.24-.18,0-.32.2-.41s.61.12.81,0a11,11,0,0,0,1.81-1.61c.62-.61,1.57-1,.61-1.82-1.66,1-4.69,3.78-7.47,3.23-1.5-.29-2.41-1.72-2.82-3.23a9.19,9.19,0,0,1-.2-3c3.06-2.32,7.18-5.07,10.29-7.47a10,10,0,0,0,1.81-1.21C419.72,227.56,420.68,226.39,419.65,226.35ZM414.37,230c-1.6,1.5-5.42,3-6.05,4.44-.1.2-.73,0-.83.2,0,.07,0,.14,0,.2a.37.37,0,0,1,0-.2c-.24-3.78,2.38-10.25,6.47-9.08C414.92,226.3,414.56,228.64,414.37,230Z"/><path d="M419.61,226.35h0S419.66,226.32,419.61,226.35Z"/><path d="M221.73,241.71a1.41,1.41,0,0,1,.18.17l-.18-.17c-.78-.64-1.41.62-2.64.37-.4-5.13,1.45-10.18,1-14.72-.5-5-5.54-3.57-8.28-.41-1.62,1.88-2.47,4.39-3.43,5.65.14-3.23,1-5.88.61-8.67-1.74.27-2.93.12-4.24,1a5.44,5.44,0,0,0-4,1.61c.35.21.25,1.18.81.61.58-.12-.31-.32-.21-.61.83,1,1.59-.37,2.83-.2.62.77.44,2,.4,2.82-.21,4.93-1.75,10-2,14.93H207a29.87,29.87,0,0,1,4.64-14.93c.61-1,.32-.64,1-1s1.55-1.43,2.62-1a5.58,5.58,0,0,1,.81,3.43.66.66,0,0,0-.4.4,99,99,0,0,0-1.42,10.69,4.65,4.65,0,0,0,.61,3,14.78,14.78,0,0,0,5-1.21c1.2-.49,3.81-1.22,2.42-2.63C221.94,241.27,221.36,241.28,221.73,241.71Z"/><path d="M232.8,223.93c-3.54.22-7.58,2.15-7.46,6,.15,4.78,7.56,5.89,7.87,9.89.24,3.11-1.52,3.55-4.64,3.63-1-.82-.71-1.94-2-2.63-1-.54-3-.64-3.23.81-.4,2.23,3.76,3.2,6.06,3.23,3.21,0,7.42-1.52,8.27-4.84,1-3.91-2-5.65-4.44-7.47-1.32-1-3.54-2.49-3.63-4.23-.12-2.26.89-2.65,3.63-3,.94.54.9,1.61,2.22,2s2.74,0,2.82-1.21C238.34,224.69,235.83,223.74,232.8,223.93Z"/><path d="M297.76,223.93a1.88,1.88,0,0,0-1.61.4c-.23.08-.3-.32-.61-.2-3,1.14-5.12,6.11-6.45,8.47.08-2.91,1.1-5.85.6-8.67a16.57,16.57,0,0,0-3.63.6c-.71.21-.43,0-1,.21a14,14,0,0,0-2.21.8c-.66.35-1.7.54-1.21,1.62,1,.31,1.83-1.09,3.42-.81.43,6.15-1.37,11.8-1.81,17.75h4.44a33.23,33.23,0,0,1,2.62-11.5c.78-1.61,2.11-3,2.22-4.44,1.09.17.87-1,2.22-1.21.75-.12,1.54.56,2.42.41C299,227,299.63,224.57,297.76,223.93Z"/><path d="M113.38,242.29c.33-6.27,2.14-12.1,1.81-18.36a16.07,16.07,0,0,0-4.23.81c-1.53.42-3.19.71-4,1.81.7,1.3,2.08-.5,3.43-.4.76,1.82.12,4.17-.2,6.25-.28,1.75-.5,3.36-.61,4.84a12,12,0,0,1-.4,1.82c-.25,2.08-.53,4.07.4,5.85a18.09,18.09,0,0,0,4.64-1c1.38-.51,3.46-1.06,3.23-2.62C116.37,241.14,114.67,242.63,113.38,242.29Z"/><path d="M197.7,225.14c-2.49-1.89-7.73-1.38-10.49.4-4.5,2.92-8.7,12.89-4.44,17.55.59.65.79.12,1.21,1a13.69,13.69,0,0,0,4.85.81c.44,0,.51-.38.6-.4s.39.28.81.2a9.54,9.54,0,0,0,3-1.21c3.58-1.95,7-7.5,6.66-13.12C199.83,228.57,199.18,226.26,197.7,225.14Zm-4.23,15.53c-.79,1.41-2.69,3.42-5.05,2.83-3.7-.93-3.19-11.05-.8-15.34a5,5,0,0,1,5.24-2.82C196.54,227.61,195.54,237,193.47,240.67Z"/><path d="M430.31,223.93c-2.58.06-6,1.36-7.27,3.43-.25.42.27.39,0,1.21,0,0-.32-.1-.4,0-.46.58-.19,2,0,2.62.1.36.27-.08.4.2,0,.05,0,.76,0,.81.63,1.36,2.55,2.44,3.84,3.43s2.2,2,3.22,2.82c.77,2.64-.65,5.7-4.43,5.05-1.11-.75-.33-1.48-1.62-2.42-1-.71-3.48-1.12-3.63.8s3.17,2.9,5.65,3c2.92.15,6.62-1.06,8.07-3.23,2.75-4.13-1.49-7.56-4-9.48-1.12-.84-3.05-1.56-3.43-3.43a4.35,4.35,0,0,1,.41-2.42,5,5,0,0,1,3.43-1,3.83,3.83,0,0,0,2.62,2c1.05.26,2.15-.15,2.22-1.21C435.45,224.47,432.29,223.88,430.31,223.93Z"/><path d="M47.21,242.08c-1.09-5.72.47-12.12,1.21-17.34H44.18c-.55,3.47-.85,7.1-2,10.08-1,2.66-2.59,5.86-5.65,6.46-1.36-.92-.73-2.66-.6-4,.43-4.5,1.66-9.12,1.41-13.31a15.8,15.8,0,0,0-5.45,1.21c-1.19.4-3,.55-2.62,1.81.68.85,1.65-.88,3-.6,1.13,3.88-1.58,11-1,15.33.5,3.82,4.26,3.76,6.66,1.82,2.18-1.77,3.61-5.16,4.84-7.67.33,3.17-.78,6.54.2,9.08a18.69,18.69,0,0,0,6.25-2.22c.54-.3,1.72-.34,1.21-1.21C49.6,240.52,48.65,242.37,47.21,242.08Z"/><path d="M348.2,242.08c-1.11-5.41.47-11.44,1-16.54-.18-.22-.68,0,0-.4,0-.25.31-.41-.2-.4h-3.84c-.56,3.45-.85,7.1-2,10.08-1,2.66-2.59,5.86-5.64,6.46-1.32-1-.75-2.66-.61-4,.45-4.48,1.65-9.13,1.41-13.31a14.79,14.79,0,0,0-3.63.6c-.25.07-.35.39-.4.41-.23.07-.29-.3-.61-.2a15.53,15.53,0,0,0-2.22.8c-.55.28-1.66.49-1.21,1.41.68.85,1.65-.88,3-.6,1.58,4.36-2.88,13.61-.4,17.35,1,1.56,3.79,1.19,4.84.6a7.88,7.88,0,0,0,1.41-1.41,1.66,1.66,0,0,0,.61-.2,26.27,26.27,0,0,0,4-6.86c.32,3.14-.8,6.55.2,9.08,1.71-.24,3.92-.84,4.44-1.62.81.06,3.87-.79,2.82-2C350.37,240.9,349.55,242.29,348.2,242.08Z"/><path d="M397.42,242.08c-.79-4.44,1.75-10.14,1.21-14.72-.21-1.84-1.34-3.35-3-3.43-2.46-.12-3.71,1.52-5.05,3-.34.39-.67.56-1,1a41.41,41.41,0,0,0-2.82,4.64c.11-2.88,1.1-5.85.61-8.67a14.76,14.76,0,0,0-4.64,1c-1.32.38-3.84.56-3.43,2,.66.85,1.87-.84,3.22-.6.79,2.82,0,5.94-.4,8.88s-.87,6-1.21,8.87h4.44c-.13-1.85.58-3.9.8-5.24.11-.64-.12-1.34,0-1.82,0,0,.37,0,.41,0s0-.5,0-.6c1.23-3.62,3-9,7.06-9.28,1.23,2.53.26,5.71-.2,8.67s-1.42,6.23-.2,8.88c1.43-.08,3.43-.34,3.63-1,1,.06,4.7-1,4.23-2.62C400,240.79,399,242.24,397.42,242.08Z"/><path d="M361.92,223.93a10.62,10.62,0,0,0-5.05,1.61c-2,1.1-3.52,3.41-2.22,6.05,0-.06-.15.35,0,.61,1.71,2.9,7,4.4,7.27,7.67.22,2.82-1.35,3.65-4.64,3.63-.94-.8-.76-2-2-2.63-1.09-.57-2.83-.66-3.23.81-.5,1.85,3.51,3.31,6.66,3.23,4.44-.12,10.21-4.18,7.06-9.08-.23-.36-.79-.56-1-.81a23.79,23.79,0,0,0-3.23-3c-1.29-1-3.13-1.86-3.22-3.63-.11-2.09.87-2.71,3.63-3,.86.61,1.67,2.53,3.63,2.22a1.58,1.58,0,0,0,1.41-1.41C367.05,224.66,364.39,223.88,361.92,223.93Z"/><path d="M92,243.09s.22.26.41.2c.76-.23,2-1,1.61-2-.81-.26-1.89,1.06-3.63,1-.6-6.27,2-12.1,1.41-18.36a22,22,0,0,0-6.86,1.61c-.44.22-1.71.48-1.21,1.21.7.88,2-.71,3.23-.6.8,2.24,0,4.94-.4,7.46-.57,3.86-1.64,8-.41,11.3a15.17,15.17,0,0,0,5.45-1.41C92,243.36,91.89,243.14,92,243.09Z"/><path d="M375,242.29c-.59-6.25,2-12.1,1.41-18.36a16.37,16.37,0,0,0-5.45,1.21c-1,.34-2.83.47-2.62,1.61.7.88,2-.71,3.23-.6.93,2.58-.31,5.52-.61,8.07-.1.91.13,1.89,0,2.82,0,0-.37.12-.4.2s0,.43,0,.61c-.38,2.1-.75,5.6.2,7.06a18.38,18.38,0,0,0,4.84-1c1.3-.48,3.25-1.17,3-2.62C377.58,241,376.71,242.52,375,242.29Z"/></g></g></svg>
