<svg xmlns="http://www.w3.org/2000/svg" viewBox="0 0 85.02 49.21"><title>AAT-logo0</title><style>
	path { fill: #00ab4e }
	rect { fill: #00ab4e }
</style><g id="Layer_2" data-name="Layer 2"><g id="Layer_1-2" data-name="Layer 1"><path d="M13.28,11.15A24,24,0,0,0,2.1,13.88v4.21c2.07-1.15,6.71-3,10.24-3,4.67,0,8.06,1.63,8.07,7.27v2.91C8.62,25.28,0,28,0,37.71c0,6.67,4.43,11.52,13.94,11.5,5.08,0,9.36-1,12.15-2.6l0-23.57c0-9-6-11.9-12.77-11.89M20.44,44.5a13.16,13.16,0,0,1-6,1.24c-5.43,0-8.71-2.86-8.71-8.18,0-7.42,5.49-8.79,14.71-8.81Z"/><path d="M77.32,45.18c-4.69,0-8.43-1.63-8.44-7.28l0-37.9L63.19,2v9.75H59V15.5h4.22l0,21.74c0,9,6,11.9,12.8,11.89a24.67,24.67,0,0,0,9-1.74V43.1a20.8,20.8,0,0,1-7.7,2.08"/><path d="M43.76,11.1a24.05,24.05,0,0,0-11.18,2.74V18c2.07-1.14,6.69-3,10.23-3,4.69,0,8.09,1.62,8.1,7.27v2.9c-11.82,0-20.44,2.7-20.43,12.45,0,6.67,4.43,11.51,13.94,11.5,5.1,0,9.38-1,12.16-2.61l0-23.57c0-9-6-11.9-12.79-11.89m7.18,33.36a13.24,13.24,0,0,1-6,1.23c-5.43,0-8.7-2.85-8.7-8.17,0-7.43,5.47-8.8,14.73-8.81Z"/><rect x="71.13" y="11.71" width="13.84" height="3.77"/><rect x="71.14" y="17.97" width="13.84" height="3.78" transform="translate(-0.03 0.11) rotate(-0.08)"/></g></g></svg>
