<svg xmlns="http://www.w3.org/2000/svg" viewBox="0 0 26.39 35.35"><defs><style>.cls-1{fill:#7f9fd3;}.cls-1,.cls-10,.cls-11,.cls-2,.cls-3,.cls-4,.cls-5,.cls-6,.cls-8,.cls-9{fill-rule:evenodd;}.cls-2{fill:#dee4f3;}.cls-3{fill:#8097cd;}.cls-4{fill:#467fc1;}.cls-5{fill:#c6d2ea;}.cls-6{fill:#777e87;}.cls-7,.cls-8{fill:#01519d;}.cls-9{fill:#cdd6ec;}.cls-10{fill:#e64925;}.cls-11{fill:#fff;}</style></defs><title>EADL</title><g id="Layer_2" data-name="Layer 2"><g id="Layer_1-2" data-name="Layer 1"><path class="cls-1" d="M0,0C2.46,0,5.07,0,7.53,0Z"/><path class="cls-1" d="M18.64,0V0c2.57,0,5.19,0,7.72,0Z"/><path class="cls-2" d="M7.53.54s0,.16,0,.23S7.54.61,7.53.54Z"/><path class="cls-2" d="M7.92.54s0,.16,0,.23S7.94.61,7.92.54Z"/><path class="cls-3" d="M13.2,9.15a3.35,3.35,0,0,1-1.41-3,3.29,3.29,0,0,1,1.7-2.71,3.51,3.51,0,0,1,3.43.08A3.31,3.31,0,0,1,18.5,6.4a3.36,3.36,0,0,1-.91,2.3,3.46,3.46,0,0,1-3.42.93C13.84,9.48,13.51,9.32,13.2,9.15Z"/><path class="cls-4" d="M20.67,5a.77.77,0,0,1,0,.37Z"/><path class="cls-4" d="M5.79,5v.27A.42.42,0,0,1,5.79,5Z"/><path class="cls-2" d="M7.68,6.4a.94.94,0,0,1,.47,0Z"/><path class="cls-2" d="M7.68,6.79a1.24,1.24,0,0,1,.47,0Z"/><path class="cls-1" d="M10.84,9a.55.55,0,0,1,0,.36Z"/><path class="cls-4" d="M4.32,9.79v.38A.81.81,0,0,1,4.32,9.79Z"/><path class="cls-1" d="M4.72,10.17a.56.56,0,0,1,0-.36Z"/><path class="cls-2" d="M17.77,10.43c.22,0,.5,0,.69,0A3.89,3.89,0,0,1,17.77,10.43Z"/><path class="cls-2" d="M17.79,10.83H18v0C18,10.83,17.83,10.87,17.79,10.83Z"/><path class="cls-1" d="M8.11,13.19a.77.77,0,0,1-.37,0Z"/><path class="cls-4" d="M7.72,13.58h.39A.86.86,0,0,1,7.72,13.58Z"/><path class="cls-4" d="M1.47,15.25v9C1.43,21.3,1.43,18.21,1.47,15.25Z"/><path class="cls-5" d="M1.47,15.27v0H6.39v0Z"/><path class="cls-4" d="M14.34,15.27s.14,0,.2,0v0Z"/><path class="cls-1" d="M14.54,15.27v0h.25v0Z"/><path class="cls-4" d="M6.37,19.91v-1.2a6.22,6.22,0,0,1,0,1.22Z"/><path class="cls-5" d="M2.75,19.93c1.17-.05,2.42,0,3.62,0v0H2.75Z"/><path class="cls-4" d="M2.75,19.93h0V23C2.72,22,2.77,21,2.75,19.93Z"/><path class="cls-5" d="M15.64,23.05h.46A.9.9,0,0,1,15.64,23.05Z"/><path class="cls-6" d="M0,26.39H26.36C17.62,26.42,8.74,26.42,0,26.39Z"/><ellipse class="cls-7" cx="0.01" cy="28.89" rx="0.01" ry="2.08"/><path class="cls-8" d="M0,27.42H1.1v.33a4.8,4.8,0,0,0-.67,0v.89a2.94,2.94,0,0,0,.6,0V29a5.72,5.72,0,0,0-.6,0v1c.18,0,.45,0,.67,0v.35H0Z"/><path class="cls-8" d="M.43,27.77h0v.89h0Z"/><path class="cls-8" d="M21.87,27.81a1,1,0,0,1,.41,0h-.41Z"/><path class="cls-8" d="M21.87,27.81h.39a4.52,4.52,0,0,0,0,.54h.27v.29h-.29v1.72h-.39v-1.7s-.13,0-.19,0v-.29c.06,0,.17,0,.19,0Z"/><path class="cls-8" d="M22.26,27.81h0v.54A4.52,4.52,0,0,1,22.26,27.81Z"/><path class="cls-8" d="M21.66,28.35c0-.05.15,0,.21,0s-.13,0-.19,0Z"/><path class="cls-8" d="M1.39,28.35v1.47A9,9,0,0,1,1.39,28.35Z"/><path class="cls-8" d="M1.39,28.37v0h.37v0Z"/><path class="cls-8" d="M3,28.35v2C3,29.74,3,29,3,28.35Z"/><path class="cls-8" d="M10.26,28.35v2C10.23,29.74,10.23,29,10.26,28.35Z"/><path class="cls-8" d="M19.43,28.35v2A16.85,16.85,0,0,1,19.43,28.35Z"/><path class="cls-8" d="M19.43,28.37v0c.12,0,.3,0,.39,0Z"/><path class="cls-8" d="M25.14,28.35v2A16.85,16.85,0,0,1,25.14,28.35Z"/><path class="cls-8" d="M19.43,28.37h.39v2h-.39Z"/><path class="cls-8" d="M22.78,30.36v-2h.37v2Z"/><path class="cls-8" d="M.43,28.66H1v0A2.94,2.94,0,0,1,.43,28.66Z"/><path class="cls-8" d="M21.85,28.66h0v1.7C21.82,29.83,21.86,29.22,21.85,28.66Z"/><path class="cls-8" d="M26,28.89v1.47A9,9,0,0,1,26,28.89Z"/><path class="cls-8" d="M.43,29h0v1h0Z"/><path class="cls-8" d="M9.52,29.08a.54.54,0,0,1,0,.31Z"/><path class="cls-8" d="M4,29.59a1,1,0,0,1,0-.43Z"/><path class="cls-8" d="M24.79,29.16a1.24,1.24,0,0,1,0,.47Z"/><path class="cls-8" d="M6,29.18v.43A.79.79,0,0,1,6,29.18Z"/><path class="cls-8" d="M7.14,29.61a.79.79,0,0,1,0-.43Z"/><path class="cls-8" d="M18.23,29.53a.32.32,0,0,1,0-.27Z"/><path class="cls-8" d="M20.55,29.28v.27A.32.32,0,0,1,20.55,29.28Z"/><path class="cls-8" d="M10.26,30.36v0h.4C10.57,30.39,10.39,30.34,10.26,30.36Z"/><path class="cls-8" d="M25.14,30.36v0h.39C25.44,30.39,25.26,30.34,25.14,30.36Z"/><path class="cls-8" d="M9.89,30.36a.86.86,0,0,1-.39,0Z"/><path class="cls-8" d="M5.59,31.17H6A1,1,0,0,1,5.59,31.17Z"/><path class="cls-8" d="M4.57,31.6v2.92C4.54,33.59,4.54,32.52,4.57,31.6Z"/><path class="cls-8" d="M17,34.52H15.87V31.6h.41v2.54a4.72,4.72,0,0,0,.67,0Z"/><path class="cls-8" d="M8.32,32h0v.52h0Z"/><path class="cls-8" d="M8.34,32h.37v.52c.06,0,.2,0,.29,0v.27c-.09,0-.23,0-.29,0v1.68H8.34c0-.55,0-1.16,0-1.68H8.13v-.29h.21V32Z"/><path class="cls-8" d="M.23,32.2c0,.11,0,.28,0,.35C.22,32.44.18,32.28.23,32.2Z"/><path class="cls-8" d="M8.13,32.53v.31A.54.54,0,0,1,8.13,32.53Z"/><path class="cls-8" d="M8.13,32.55v0h.21v0Z"/><path class="cls-8" d="M9,32.55v0a.54.54,0,0,1,0,.31v-.29Z"/><path class="cls-8" d="M6.35,32.55h.37v2H6.35Z"/><path class="cls-8" d="M6.72,32.55c0,.62,0,1.32,0,2h0Z"/><path class="cls-8" d="M19.39,32.57a.86.86,0,0,1,.39,0Z"/><path class="cls-8" d="M20.53,32.55h0c0,.06,0,.17,0,.19S20.53,32.61,20.53,32.55Z"/><path class="cls-8" d="M22.76,32.55h.39v2h-.39Z"/><path class="cls-8" d="M13.16,32.59a.69.69,0,0,1,0,.35Z"/><path class="cls-8" d="M8.71,32.84c.06-.05.2,0,.29,0v0H8.71Z"/><path class="cls-8" d="M.62,32.86c.06,0,.2,0,.29,0C.85,32.89.71,32.85.62,32.86Z"/><path class="cls-8" d="M8.32,34.52V32.84c0,.52,0,1.13,0,1.68Z"/><path class="cls-8" d="M.21,32.86h0v1.68C.18,34,.22,33.41.21,32.86Z"/><path class="cls-8" d="M21.58,33.13v1.39h0C21.57,34.06,21.53,33.55,21.58,33.13Z"/><path class="cls-8" d="M3,33.25v1.27H3C3,34.1,3,33.63,3,33.25Z"/><path class="cls-8" d="M10,33.25a.39.39,0,0,1,0,.3Z"/><path class="cls-8" d="M1.39,33.38v.23A.24.24,0,0,1,1.39,33.38Z"/><path class="cls-8" d="M12.29,33.73a.69.69,0,0,1,0-.35Z"/><path class="cls-8" d="M9.54,33.44v.29A.37.37,0,0,1,9.54,33.44Z"/><path class="cls-8" d="M18.27,33.44a.26.26,0,0,1,0,.21Z"/><path class="cls-8" d="M19.41,33.44h0c0,.07,0,.19,0,.23Z"/><path class="cls-8" d="M17.92,33.9a.53.53,0,0,1,.35,0Z"/><path class="cls-8" d="M16.28,34.14a5.08,5.08,0,0,1,.69,0h0A4.72,4.72,0,0,1,16.28,34.14Z"/><path class="cls-8" d="M17,34.17h0v.35h0Z"/><path class="cls-8" d="M.23,34.54v0H.62C.53,34.57.35,34.52.23,34.54Z"/><path class="cls-8" d="M2.61,34.54v0H3C2.91,34.57,2.73,34.52,2.61,34.54Z"/><path class="cls-8" d="M5,34.54c-.11,0-.26,0-.33,0H5Z"/><path class="cls-8" d="M19.39,34.52h.39A.86.86,0,0,1,19.39,34.52Z"/><path class="cls-8" d="M22,34.52h.4A.9.9,0,0,1,22,34.52Z"/><path class="cls-1" d="M25.64,7.83a1,1,0,0,1,.2-.21A1.34,1.34,0,0,1,25.64,7.83Z"/><path class="cls-9" d="M11.07,8.12a10.69,10.69,0,0,0,6.72,2.71s.16,0,.23,0a7.2,7.2,0,0,1-4.24,1.71c-.08,0-.22,0-.27,0H13c-.05-.05-.2,0-.29,0a7.79,7.79,0,0,1-1.92-.37A3.75,3.75,0,0,0,11,8.05C11,8,11,8.12,11.07,8.12Z"/><path class="cls-2" d="M11,8.05c-.05,0-.07-.06-.09-.12a.69.69,0,0,1,.19.19S11,8,11,8.05Z"/><path class="cls-1" d="M10.3,12.69a3,3,0,0,1,.31-.31A2.27,2.27,0,0,1,10.3,12.69Z"/><path class="cls-1" d="M5.26,7.56a1.2,1.2,0,0,1,.22-.23A1.58,1.58,0,0,1,5.26,7.56Z"/><path class="cls-2" d="M10,7c.06,0,.07.07.11.1S10,7.06,10,7,10,7,10,7Z"/><path class="cls-2" d="M10.78,7.29a2.27,2.27,0,0,1,.31.31A3,3,0,0,1,10.78,7.29Z"/><path class="cls-1" d="M25.22,7.68c.16-.17.32-.34.5-.5A4.72,4.72,0,0,1,25.22,7.68Z"/><path class="cls-1" d="M18.48,10.45a1.81,1.81,0,0,1,.29-.33c0,.09-.41.33-.17.31C18.6,10.48,18.51,10.44,18.48,10.45Z"/><path class="cls-9" d="M14.17,9.63a3.46,3.46,0,0,0,3.42-.93,3.36,3.36,0,0,0,.91-2.3,3.31,3.31,0,0,0-1.58-2.84,3.51,3.51,0,0,0-3.43-.08,3.29,3.29,0,0,0-1.7,2.71,3.35,3.35,0,0,0,1.41,3A9.66,9.66,0,0,1,11.09,7.6a2.27,2.27,0,0,0-.31-.31A10,10,0,0,1,8,.77c0-.07,0-.19,0-.23V0H18.64V0a7.24,7.24,0,0,1,2,4.53c0,.07,0,.2,0,.25v.68c-.05,0,0,.17,0,.25a7.2,7.2,0,0,1-1.88,4.38,1.81,1.81,0,0,0-.29.33h0c-.19,0-.47,0-.69,0A9.6,9.6,0,0,1,14.17,9.63Z"/><path class="cls-8" d="M7.53.36A7.21,7.21,0,0,0,5.81,4.58s0,.17,0,.25V5a.42.42,0,0,0,0,.27v.19c0,.07,0,.2,0,.25A6.36,6.36,0,0,0,6,6.94a3.36,3.36,0,0,0-.52.39,1.2,1.2,0,0,0-.22.23,3.55,3.55,0,0,0-.94,2.23.81.81,0,0,0,0,.38,3.54,3.54,0,0,0,3.4,3.41.86.86,0,0,0,.39,0,3.55,3.55,0,0,0,2.19-.89,2.27,2.27,0,0,0,.31-.31,1.39,1.39,0,0,0,.15-.19,7.79,7.79,0,0,0,1.92.37c.06,0,.2,0,.29,0h.54c.08,0,.22,0,.27,0A7.2,7.2,0,0,0,18,10.85a5.72,5.72,0,0,0,.6,0,10.58,10.58,0,0,0,7-3,1.34,1.34,0,0,0,.2-.21l.27-.29c.09-.09.18-.24.25-.23V26.39H0V0H7.53Zm6.62,23.25q-1.92-4.45-3.87-8.89C9,17.49,7.67,20.27,6.33,23H2.77V19.93h3.6a6.22,6.22,0,0,0,0-1.22c-1.19,0-2.44,0-3.6,0V16.54H5.5a5.51,5.51,0,0,0,.91,0,1.6,1.6,0,0,0,0-.31,7.63,7.63,0,0,0,0-1H1.47c0,3,0,6.05,0,9H6.35a5.89,5.89,0,0,0,.85,0c.33-.72.68-1.41,1-2.13H12.1c.33.71.59,1.47.93,2.15h1.39c.69,0,1.44,0,2.09,0,2.55-.08,3.95-1.3,4.47-3.41.06,1.1,0,2.34,0,3.43h4.53c.05-.36,0-.82,0-1.22-1.07,0-2.2,0-3.24,0V15.25H21c-.06,1,0,2.19,0,3.21-.51-2.07-2-3.17-4.55-3.19-.06,0-.2,0-.29,0h-1.6c-.06,0-.17,0-.2,0h-.15C14.13,18,14.21,20.88,14.15,23.61Z"/><path class="cls-8" d="M26.36,0V5.59a4.16,4.16,0,0,1,0,.79c-.07.33-.53.56-.64.8s-.34.33-.5.5a10.08,10.08,0,0,1-6.62,2.75c-.24,0,.16-.22.17-.31a7.2,7.2,0,0,0,1.88-4.38c.05,0,0-.18,0-.25V5.32a.77.77,0,0,0,0-.37V4.81c0-.08,0-.21,0-.25a7.24,7.24,0,0,0-2-4.53Z"/><path class="cls-1" d="M5.5,12.11a1.59,1.59,0,0,1,.29.29A4,4,0,0,1,5.5,12.11Z"/><path class="cls-9" d="M6.12,7.35a2.7,2.7,0,0,1,1.56-.56h.47a3,3,0,0,1,2.17,1.08A3.88,3.88,0,0,0,10,7.64a1.73,1.73,0,0,0-1.51-.1,1.58,1.58,0,0,0-.7.51,1.8,1.8,0,0,0-.19,1.89.06.06,0,0,1,0,.06s0,0-.06,0A7.09,7.09,0,0,1,6.12,7.35Z"/><path class="cls-1" d="M10,7.64a3.88,3.88,0,0,1,.33.23s.06,0,.07.08a2.92,2.92,0,0,0-.4-.29Z"/><path class="cls-1" d="M7.78,8.05a1.58,1.58,0,0,1,.7-.51,2.06,2.06,0,0,0-.68.51Z"/><path class="cls-1" d="M7.59,9.94c0,.05.14.17.13.2S7.61,10,7.55,10s0,0,.06,0A.06.06,0,0,0,7.59,9.94Z"/><path class="cls-10" d="M8.48,7.54a1.73,1.73,0,0,1,1.51.1v0a2.92,2.92,0,0,1,.4.29,2.78,2.78,0,0,1,.35.52,1.77,1.77,0,0,1,.1.49v.36a1,1,0,0,1-.1.45c-.07.1-.12.23-.19.33v0c-.14.15-.28.3-.43.44a1.79,1.79,0,0,1-1.89.06s-.22-.18-.12-.06a2,2,0,0,1-.39-.42s-.08-.15-.13-.2a1.8,1.8,0,0,1,.19-1.89h0A2.06,2.06,0,0,1,8.48,7.54Z"/><path class="cls-1" d="M8.11,10.56c-.1-.12.09,0,.12.06s0,0,0,.06S8.17,10.59,8.11,10.56Z"/><path class="cls-1" d="M10.74,9.77a.82.82,0,0,1-.19.33C10.62,10,10.67,9.87,10.74,9.77Z"/><path class="cls-1" d="M10.12,10.56c.15-.14.29-.29.43-.44A1.5,1.5,0,0,1,10.12,10.56Z"/><path class="cls-9" d="M10.84,9a1.77,1.77,0,0,0-.1-.49,3.25,3.25,0,0,1-.37,3.6,2.57,2.57,0,0,0-.56-.31,6.79,6.79,0,0,1-1.55-1.08s-.08,0,0-.06a1.79,1.79,0,0,0,1.89-.06,1.5,1.5,0,0,0,.43-.44v0a.82.82,0,0,0,.19-.33,1,1,0,0,0,.1-.45A.55.55,0,0,0,10.84,9Z"/><path class="cls-5" d="M21,15.25h1.31V23c1,0,2.17,0,3.24,0,0,.4,0,.86,0,1.22v-1.2H22.3V15.27H21Z"/><path class="cls-1" d="M6.39,15.25a7.63,7.63,0,0,1,0,1,1.6,1.6,0,0,1,0,.31,5.51,5.51,0,0,1-.91,0H2.77c.73,0,1.81,0,2.69,0a4.6,4.6,0,0,0,.91,0c.09-.08,0-.52,0-.6v-.67Z"/><path class="cls-1" d="M18.77,22.23A1.72,1.72,0,0,1,19,22Z"/><path class="cls-8" d="M13.1,29.84c.06-.11.48-.08.58,0a1.75,1.75,0,0,0-.56,0S13.11,29.84,13.1,29.84Z"/><path class="cls-8" d="M.46,30c.36,0,.81-.16.66.37h0V30c-.22,0-.49,0-.67,0Z"/><path class="cls-8" d="M22.28,28.35v0c.1,0,.23,0,.29,0v.29h0v-.29Z"/><path class="cls-8" d="M3.5,28.5s0,.05,0,.08,0-.16,0-.23,0,.12,0,.17Z"/><path class="cls-8" d="M14.32,30.36c0-.07-.06-.5,0-.37C14.27,30,14.34,30.25,14.32,30.36Z"/><path class="cls-8" d="M4,29.16c-.13-1,1.32-1.12,1.26-.13,0,.07,0,.18,0,.21,0,.59-.1,1.11-.54,1.18S4,30.11,4,29.59Zm.4.51c0,.22.06.41.24.4.35,0,.4-1.45,0-1.39-.14,0-.19.15-.2.38A1.57,1.57,0,0,0,4.37,29.67Z"/><path class="cls-8" d="M16.66,29.08a.64.64,0,1,1,1.26.06v.52c0,.5-.36.89-.85.74s-.44-.59-.44-1.12C16.68,29.25,16.64,29.14,16.66,29.08Zm.87,0c.11-.46-.52-.52-.48-.09a3.31,3.31,0,0,0,0,.77c0,.45.55.34.48-.09A2,2,0,0,0,17.53,29.08Z"/><path class="cls-8" d="M25.14,28.35h.35c.08,0,0,.1,0,.15s.15-.15.25-.17c.93-.22.47,1.35.58,2H26V28.89c0-.16-.07-.22-.19-.23-.46,0-.16,1.25-.25,1.68h-.39Z"/><path class="cls-8" d="M2.63,29.9c0,.69-1.37.68-1.24-.08V28.37h.37c0,.49,0,1,0,1.49,0,.12.07.17.16.19.55.09.19-1.27.29-1.7h.4Z"/><path class="cls-8" d="M5.59,31.17V29.06c0-.16-.07-.64,0-.71s.36.06.41,0H5.61v2.8Z"/><path class="cls-8" d="M6,28.37v.13c.46-.45,1,.13.87.89,0,0,0,.15,0,.22.1.59-.42,1-.85.64v.92H5.61v-2.8Zm0,1.24c0,.23,0,.45.23.46.36,0,.36-1.19.1-1.39-.29,0-.32.23-.33.5A.79.79,0,0,0,6,29.61Z"/><path class="cls-8" d="M9.46,28.5c0-.21.3-.16.43-.13-.11,0-.3-.05-.37,0s0,.13-.06.15Z"/><path class="cls-8" d="M21,28.37a.85.85,0,0,1,.42,0v1.49a2.06,2.06,0,0,1,0,.5c-.08.09-.33,0-.42,0h0c.06-.07.29.09.38,0a1.92,1.92,0,0,0,0-.48V28.39C21.33,28.34,21.15,28.39,21,28.37Z"/><path class="cls-8" d="M20.94,30.28c0-.12.13-.08.1.08h0C21,30.22,21,30.2,20.94,30.28Z"/><path class="cls-8" d="M22.78,30.36c-.05-.63,0-1.35,0-2h.41c0,.66,0,1.38,0,2v-2h-.37Z"/><path class="cls-8" d="M.62,32.08c.05.13-.07.37,0,.45s.19,0,.29,0c-.39.12-.32-.22-.31-.49Z"/><path class="cls-8" d="M.87,31.41H.93c0,.08,0,.41,0,.38S1,31.43.87,31.41Z"/><path class="cls-8" d="M0,32.55c0,.2,0,.33.19.31H0C0,32.77,0,32.61,0,32.55Z"/><path class="cls-8" d="M.23,32.2c0-.41,0-.74.35-.79H.87c.1,0,.07.3,0,.38-.23,0-.32.06-.29.29h0c0,.27-.08.61.31.49v.27c-.09,0-.23,0-.29,0v1.66H.23V32.86c-.19,0-.22-.11-.19-.31H.21C.25,32.48.21,32.31.23,32.2Z"/><path class="cls-8" d="M17,34.52c-.34,0-.76,0-1.12,0V32.3c0-.15-.07-.65,0-.72s.38.06.43,0h-.41v2.92H17Z"/><path class="cls-8" d="M6.68,31.79a.24.24,0,0,1-.18.43A.24.24,0,1,1,6.68,31.79Z"/><path class="cls-8" d="M23.15,32.12c-.28.44-.74-.47-.14-.37A.23.23,0,0,1,23.15,32.12Z"/><path class="cls-8" d="M8.71,32h0c0,.26-.14.65.27.52v0c-.09,0-.23,0-.29,0Z"/><path class="cls-8" d="M8.71,32.84h0V34.1c0,.14,0,.37,0,.42s-.3,0-.41,0h.39Z"/><path class="cls-8" d="M2.61,34.54c0-.63,0-1.35,0-2a1.36,1.36,0,0,1,.41,0c-.07.07-.3-.09-.39,0s0,.38,0,.48v1.51Z"/><path class="cls-8" d="M7.86,32.57h.06c0,.08.06.44,0,.42S8,32.6,7.86,32.57Z"/><path class="cls-8" d="M20.92,32.51s0,0,.06,0,.05.43,0,.41S21,32.56,20.92,32.51Z"/><path class="cls-8" d="M20.55,33.17v1.35a1,1,0,0,1-.42,0v-2h0v2c.09,0,.26,0,.38,0C20.54,34.08,20.5,33.58,20.55,33.17Z"/><path class="cls-8" d="M23.53,32.55c.09,0,.28,0,.41,0v.13c0,.05,0,0,.08,0s0,.09-.1.09v-.15Z"/><path class="cls-8" d="M7.9,33c-.17-.2-.5-.12-.51.08s.47.37.56.72a.6.6,0,0,1-.44.79H7.28c-.07,0-.18,0-.24-.06v-.35c.09,0,.19.11.33.1A.25.25,0,0,0,7.59,34c0-.31-.4-.42-.51-.68a.59.59,0,0,1,.78-.79C8,32.6,7.93,32.89,7.9,33Z"/><path class="cls-8" d="M9.91,32.61c.08.1.07,0,.1-.06v.17A.36.36,0,0,1,9.91,32.61Z"/><path class="cls-8" d="M10.76,32.55a1.36,1.36,0,0,1,.41,0s0,.14,0,.15,0-.06,0-.13Z"/><path class="cls-8" d="M12,32.92c0,.49,0,1.07,0,1.6a.94.94,0,0,1-.41,0c0-.46,0-1,0-1.41V34.5c.08,0,.25,0,.37,0Z"/><path class="cls-8" d="M11.17,33.05v1.12a1.49,1.49,0,0,1,0,.37c-.08.08-.31,0-.41,0h.39C11.17,34,11.12,33.5,11.17,33.05Z"/><path class="cls-8" d="M21.58,34.52c-.1,0-.28,0-.41,0v-2a1.36,1.36,0,0,1,.41,0c-.07.07-.3-.09-.39,0s0,.37,0,.48V34.5c.08,0,.25,0,.37,0Z"/><path class="cls-8" d="M24,32.61a.43.43,0,0,1,.71.33v1.58h-.38V33.07a.21.21,0,1,0-.41,0c-.05.45,0,1,0,1.47h-.39v-2h.39v.15C24,32.7,24,32.65,24,32.61Z"/><path class="cls-8" d="M24.73,32.94c0,.49,0,1.06,0,1.58a1,1,0,0,1-.42,0c0-.48,0-1,0-1.45v1.45h.38Z"/><path class="cls-8" d="M23.94,33.05v1.49c-.13,0-.32,0-.41,0h.39C23.93,34,23.89,33.5,23.94,33.05Z"/><path class="cls-8" d="M25.93,34.46s0,0,0-.05h0c0,.11,0,.28,0,.36v-.34S26,34.46,25.93,34.46Z"/><path class="cls-8" d="M6.35,32.55v2h.39c-.08,0-.32.1-.41,0a4.77,4.77,0,0,1,0-1A9.14,9.14,0,0,1,6.35,32.55Z"/><path class="cls-8" d="M10,32.57v0h.4V34c0,.13.05.45,0,.5s-.33,0-.4,0h.38V32.59C10.3,32.55,10.13,32.59,10,32.57Z"/><path class="cls-8" d="M10,34.52v-.13a.74.74,0,0,1-.47.17c-.58-.1-.56-1.91,0-2h.21c.08,0,.08.05.14.06a.36.36,0,0,0,.1.11v-.15c.12,0,.29,0,.38,0v1.93Zm0-1.27c0-.61-.62-.35-.49.19a.37.37,0,0,0,0,.29c-.07.76.66.49.49-.18A.39.39,0,0,0,10,33.25Z"/><path class="cls-8" d="M13.14,34.14s.09.39,0,.38C13.19,34.47,13.17,34.22,13.14,34.14Z"/><path class="cls-8" d="M19.14,32.55a.38.38,0,0,1,.23.15s0-.09,0-.13h.39v2h-.39v-.13a.5.5,0,0,1-.85-.43c0-.06,0-.18,0-.21v-.2c.05,0,0-.19,0-.27,0-.36.08-.66.39-.73Zm.27.66c0-.18-.08-.36-.33-.33-.24.2-.28,1.33.06,1.35s.28-.3.27-.56c.05,0,0-.16,0-.23S19.46,33.25,19.41,33.21Z"/><path class="cls-8" d="M22.76,32.55v2h.39c-.08,0-.33.1-.41,0a4.77,4.77,0,0,1,0-1A7.05,7.05,0,0,1,22.76,32.55Z"/><path class="cls-9" d="M7.55.77A10.78,10.78,0,0,0,10,7s0,0,0,0A3.74,3.74,0,0,0,8.15,6.4a.94.94,0,0,0-.47,0A3.79,3.79,0,0,0,6,6.94a6.36,6.36,0,0,1-.19-1.22c0-.08,0-.21,0-.25V4.83s0-.18,0-.25A7.21,7.21,0,0,1,7.53.36V.54C7.54.61,7.51.74,7.55.77Z"/><path class="cls-1" d="M5.81,4.58c0,.07,0,.2,0,.25S5.77,4.62,5.81,4.58Z"/><path class="cls-1" d="M20.65,4.56c.05,0,0,.17,0,.25S20.66,4.63,20.65,4.56Z"/><path class="cls-1" d="M5.79,5.47s0,.17,0,.25S5.81,5.54,5.79,5.47Z"/><path class="cls-1" d="M20.67,5.49c0,.07,0,.2,0,.25S20.62,5.53,20.67,5.49Z"/><path class="cls-8" d="M6.12,7.35A7.09,7.09,0,0,0,7.55,10c.06.06.09.14.17.18a2,2,0,0,0,.39.42c.06,0,.08.09.15.12a6.79,6.79,0,0,0,1.55,1.08,2.57,2.57,0,0,1,.56.31,3.2,3.2,0,0,1-2.26,1.12H7.74a3.22,3.22,0,0,1-1.95-.79,1.59,1.59,0,0,0-.29-.29,3.16,3.16,0,0,1-.78-1.94V9.81A3,3,0,0,1,6.12,7.35Z"/><path class="cls-1" d="M18,10.83h.6a5.72,5.72,0,0,1-.6,0Z"/><path class="cls-1" d="M13.51,12.59c.05-.05.19,0,.27,0S13.59,12.57,13.51,12.59Z"/><path class="cls-5" d="M14.79,15.25h.33c-.06.05-.22,0-.33,0Z"/><path class="cls-1" d="M16.14,15.25c.09,0,.23,0,.29,0h-.29Z"/><path class="cls-8" d="M16.72,16.54a3,3,0,0,1,3.16,2.89v.44A3.47,3.47,0,0,1,19,22a1.72,1.72,0,0,0-.27.27,4,4,0,0,1-2.67.82h-.64V16.54h1.26Z"/><path class="cls-8" d="M8.77,20.9c.5-1,1-2.12,1.49-3.12.42,1,.89,2,1.33,3.08v0Z"/><path class="cls-1" d="M19.88,19.43a.82.82,0,0,1,0,.44Z"/><path class="cls-1" d="M21,20.82c0-.16,0-.05,0,0,.05,1.11,0,2.42,0,3.39C21,23.16,21,21.92,21,20.82Z"/><path class="cls-4" d="M14.19,15.27v7.31a5.22,5.22,0,0,1,0,1.05c0,.08,0,0,0,0C14.21,20.88,14.13,18,14.19,15.27Z"/><path class="cls-1" d="M6.35,24.25c.24,0,.57,0,.85,0A5.89,5.89,0,0,1,6.35,24.25Z"/><path class="cls-5" d="M14.42,24.25c.66,0,1.4,0,2.09,0C15.86,24.28,15.11,24.24,14.42,24.25Z"/><path class="cls-8" d="M12.58,30.3c.2-1,.45-1.91.64-2.9h.37c.17,1,.41,1.93.58,2.94v0h-.39s0,0,0,0c0-.17-.06-.33-.08-.5s-.52-.09-.58,0-.06.33-.11.48,0,0,0,0S12.6,30.43,12.58,30.3Zm1-1c-.07-.41-.1-.85-.2-1.24-.06.46-.16.88-.21,1.35.1.05.3,0,.43,0S13.64,29.35,13.59,29.34Z"/><path class="cls-8" d="M19.74,27.57a.21.21,0,0,1,.12.24.25.25,0,1,1-.12-.24Z"/><path class="cls-8" d="M23.11,27.59c.46.28-.5.73-.39.14A.25.25,0,0,1,23.11,27.59Z"/><path class="cls-8" d="M8.63,29.18c0-.47.08-.91.66-.83.05.06.14.07.17.15v0c.1,0,0-.1.06-.15s.26,0,.37,0v2H9.5v-.15a.51.51,0,0,1-.87-.49Zm.89-.1c0-.54-.61-.46-.5.08,0,0,0,.16,0,.23v0c0,.07,0,.2,0,.25,0,.71.63.29.5-.27A.54.54,0,0,0,9.52,29.08Z"/><path class="cls-8" d="M10.26,28.35h.35c.08,0,0,.1.05.15.12-.22.83-.27.8.18v1.68h-.37c0-.52,0-1.09,0-1.57a.17.17,0,0,0-.17-.13c-.46,0-.15,1.25-.24,1.68h-.4Z"/><path class="cls-8" d="M7.14,29.18c-.1-1.11,1.38-1.09,1.22,0v.25H7.51c-.12.54.45.83.48.25h.37a.62.62,0,1,1-1.22-.11Zm.85,0c.11-.51-.51-.6-.46-.08h0v.1A1.87,1.87,0,0,0,8,29.14Z"/><path class="cls-8" d="M14.36,30c.17.16.51.14.52-.15s-.4-.36-.54-.66a.61.61,0,0,1,.87-.77c0,.12,0,.29,0,.38-.19-.18-.51-.1-.52.1s.57.46.56.78v.25c0,.46-.5.6-.91.44C14.34,30.25,14.27,30,14.36,30Z"/><path class="cls-8" d="M20.15,29.22c-.09-.58.39-1.18.87-.7v-.15c.13,0,.31,0,.4,0v1.49a1.92,1.92,0,0,1,0,.48c-.09.09-.32-.07-.38,0,0-.16-.05-.2-.1-.08-.38.33-.84-.09-.79-.58ZM21,29c-.08-.59-.62-.25-.49.27a.32.32,0,0,0,0,.27c-.09.65.55.61.49,0A1.23,1.23,0,0,0,21,29Z"/><path class="cls-8" d="M24.79,29.63c0,.49-.32.94-.85.77s-.6-1.85,0-2,.91.21.87.81Zm-.4-.53c0-.18,0-.34-.14-.42-.56-.09-.45,1.42-.08,1.39.17,0,.21-.2.22-.41A1.32,1.32,0,0,0,24.39,29.1Z"/><path class="cls-8" d="M21.68,28.35v.29c.06,0,.17,0,.19,0h-.21v-.31Z"/><path class="cls-8" d="M22.55,28.64h0c-.05.05-.2,0-.29,0v0Z"/><path class="cls-8" d="M3.81,28.7c-.65,0-.28,1.08-.37,1.66H3v-2h.4c0,.07,0,.19,0,.23s0,0,0-.08a.55.55,0,0,1,.35-.19h0C3.84,28.43,3.94,28.68,3.81,28.7Z"/><path class="cls-8" d="M19.08,28.75c-.26-.13-.47.09-.44.39a1.57,1.57,0,0,0,0,.53c0,.25.21.48.44.32h0v.35c-.6.19-.89-.25-.87-.81v-.27c0-.59.24-1.07.85-.87,0,0,0,0,0,0S19.17,28.71,19.08,28.75Z"/><path class="cls-8" d="M15.83,28.81c-.1.36.43.47.54.76a.64.64,0,0,1-.91.79V30c.19.16.56.18.58-.11s-.74-.45-.58-1.11a.62.62,0,0,1,.91-.34v.38C16.27,28.72,15.93,28.6,15.83,28.81Z"/><path class="cls-8" d="M15.21,28.41c0,.07,0,.41,0,.38S15.19,28.53,15.21,28.41Z"/><path class="cls-8" d="M1,29v-.37A.59.59,0,0,1,1,29Z"/><path class="cls-8" d="M7.53,29.06v.06c.11.05.31,0,.46,0a1.87,1.87,0,0,1-.48,0v-.1Z"/><path class="cls-8" d="M5.23,29s0,.15,0,.21S5.25,29.1,5.23,29Z"/><path class="cls-8" d="M16.66,29.08c0,.06,0,.17,0,.2S16.61,29.1,16.66,29.08Z"/><path class="cls-8" d="M9,29.16c0,.07,0,.19,0,.23S9,29.19,9,29.16Z"/><path class="cls-8" d="M17.92,29.14a1.51,1.51,0,0,1,0,.52Z"/><path class="cls-8" d="M8.36,29.22a.36.36,0,0,1,0,.25Z"/><path class="cls-8" d="M13.59,29.34c.05,0,0,.09,0,.13s-.33,0-.43,0h.41Z"/><path class="cls-8" d="M6.87,29.39c0,.07,0,.19,0,.22S6.82,29.42,6.87,29.39Z"/><path class="cls-8" d="M9,29.41c.05,0,0,.17,0,.25S9,29.48,9,29.41Z"/><path class="cls-8" d="M24.39,29.1a1.32,1.32,0,0,1,0,.56Z"/><path class="cls-8" d="M17.53,29.08a2,2,0,0,1,0,.59Z"/><path class="cls-8" d="M18.64,29.14v.53A1.57,1.57,0,0,1,18.64,29.14Z"/><path class="cls-8" d="M17.05,29v.77A3.31,3.31,0,0,1,17.05,29Z"/><path class="cls-8" d="M15.23,29.67a.36.36,0,0,1,0,.25Z"/><path class="cls-8" d="M1.76,28.35c.05.46,0,1,0,1.51-.05-.45,0-1,0-1.49Z"/><path class="cls-8" d="M2.63,28.35a13.36,13.36,0,0,1,0,1.55Z"/><path class="cls-8" d="M13,30.32v.06c-.12,0-.48.07-.41-.08,0,.13.27,0,.39.06S13,30.32,13,30.32Z"/><path class="cls-8" d="M.58,31.41a.31.31,0,0,1,.23,0Z"/><path class="cls-8" d="M4.57,31.6a2.35,2.35,0,0,1,.54,0H4.57Z"/><path class="cls-8" d="M5.11,31.62c1.25-.18,1.12,2.63.35,2.88-.07,0-.14,0-.18,0H4.57v-2.9ZM5,32c0,.72,0,1.49,0,2.17.65.06.58-.61.62-1.18,0-.06,0-.19,0-.22,0-.4-.1-.7-.42-.77A.23.23,0,0,0,5,32Z"/><path class="cls-8" d="M5,32a.23.23,0,0,1,.2,0H5Z"/><path class="cls-8" d="M21.85,32.53a.26.26,0,0,1,.21,0Z"/><path class="cls-8" d="M9.56,32.55a.26.26,0,0,1,.21,0Z"/><path class="cls-8" d="M12.75,32.55a.28.28,0,0,1,.22,0Z"/><path class="cls-8" d="M18.93,32.55a.26.26,0,0,1,.21,0Z"/><path class="cls-8" d="M25.49,32.55a.26.26,0,0,1,.21,0Z"/><path class="cls-8" d="M22.06,32.53c.6.17.22,1.32.33,2H22V33c-.09-.21-.45-.1-.41.17s0,.93,0,1.39c-.12,0-.29,0-.37,0V33c0-.11-.05-.44,0-.48s.32.07.39,0v.15c.12,0,.13-.17.27-.17Z"/><path class="cls-8" d="M25.7,32.55c.12,0,.16.08.25.13s0,0,0,0,0-.13,0-.13h.35c-.16.93.43,2.74-.58,2.75h-.23c-.32,0-.46-.25-.47-.6h.35s0,.06,0,.07c0,.33.57.32.52,0,0-.08,0-.25,0-.36h0s0,0,0,.05c-.47.29-.94-.11-.87-.67v-.41c0-.39.08-.76.43-.83Zm.29.69a.61.61,0,0,0-.11-.32.29.29,0,0,0-.43.33,1.88,1.88,0,0,0,0,.58.59.59,0,0,0,.12.38A.3.3,0,0,0,26,33.9,2.43,2.43,0,0,0,26,33.24Z"/><path class="cls-8" d="M2.26,33.85c-.06.4-.15.59-.38.69-1.13.48-1.31-2.29-.06-2,.28.06.42.37.44.75Zm-.87-.24c0,.35,0,.63.24.62s.38-1.4,0-1.37c-.2,0-.21.27-.22.52A.24.24,0,0,0,1.39,33.61Z"/><path class="cls-8" d="M14.61,34a.59.59,0,0,1-.93.5c-.46-.34-.43-2.27.56-1.93.34.12.4.58.39,1.1h-.85c-.14.52.45.8.48.25.11,0,.27,0,.35,0Zm-.81-.64h.46C14.34,32.74,13.74,32.74,13.8,33.34Z"/><path class="cls-8" d="M17.07,33.3c0-.49.34-.91.81-.75.29.1.38.47.39.89v.21h-.85c-.1.54.42.81.5.25h.35a.62.62,0,0,1-.95.58.83.83,0,0,1-.25-.63Zm.37,0h.46C18,32.74,17.34,32.77,17.44,33.34Z"/><path class="cls-8" d="M5.59,32.74s0,.16,0,.22S5.6,32.81,5.59,32.74Z"/><path class="cls-8" d="M3.41,32.9c-.27,0-.42.09-.41.35s0,.85,0,1.27H2.61V33c0-.1,0-.44,0-.48s.32.07.39,0v.19c.08,0,.19-.22.37-.23h0Z"/><path class="cls-8" d="M20.94,32.9c-.24,0-.36.09-.39.27-.05.41,0,.91,0,1.35-.12,0-.29,0-.38,0v-2h.38c0,.06,0,.26,0,.19a.52.52,0,0,1,.35-.23C21,32.56,21,32.82,20.94,32.9Z"/><path class="cls-8" d="M13.16,32.94c-.65-.27-.57,1.05-.29,1.27.12,0,.22,0,.27-.07s0,.33,0,.38c-.56.17-.84-.26-.83-.79v-.35c0-.41.11-.75.46-.83H13a.53.53,0,0,1,.19,0Z"/><path class="cls-8" d="M19.41,33.21c.05,0,0,.16,0,.23h0Z"/><path class="cls-8" d="M26,33.24a2.43,2.43,0,0,1,0,.66Z"/><path class="cls-8" d="M18.54,33.28c0,.08,0,.22,0,.27S18.49,33.33,18.54,33.28Z"/><path class="cls-8" d="M25.06,33.38v.41A.72.72,0,0,1,25.06,33.38Z"/><path class="cls-8" d="M14.61,34v-.06c-.08-.05-.24,0-.35,0,.08,0,.25,0,.37,0V34Z"/><path class="cls-8" d="M18.52,33.75c.05,0,0,.15,0,.21S18.53,33.81,18.52,33.75Z"/><path class="cls-8" d="M5,32v2.17c0-.68,0-1.45,0-2.17Z"/><path class="cls-8" d="M5,34.52h.27s-.19,0-.27,0Z"/><path class="cls-8" d="M7.28,34.58h.23A.31.31,0,0,1,7.28,34.58Z"/><path class="cls-8" d="M25.08,34.72c.07,0,.39-.09.37.07,0,0,0,0,0-.07Z"/><path class="cls-8" d="M25.55,35.32h.23A.24.24,0,0,1,25.55,35.32Z"/><path class="cls-5" d="M15.91,15.25h.23v0C16.07,15.26,16,15.3,15.91,15.25Z"/><path class="cls-8" d="M0,27.42a6.73,6.73,0,0,1,1.1,0H0Z"/><path class="cls-8" d="M3.85,28.31s.1.5,0,.39c.13,0,0-.27.06-.39Z"/><path class="cls-8" d="M19.08,28.39h.06c0,.12.05.34,0,.4s0,0,0,0,0-.24,0-.34S19.08,28.41,19.08,28.39Z"/><path class="cls-8" d="M20.15,29.22v.48A1.29,1.29,0,0,1,20.15,29.22Z"/><path class="cls-8" d="M0,30.36h1.1a7,7,0,0,1-1.12,0Z"/><path class="cls-8" d="M13.76,30.32s0,0,0,0h.39v0C14.21,30.39,13.76,30.43,13.76,30.32Z"/><path class="cls-8" d="M8.32,32a1,1,0,0,1,.41,0H8.32Z"/><path class="cls-8" d="M20.13,32.55a1,1,0,0,1,.42,0h-.42Z"/><path class="cls-11" d="M2.77,23H6.33c1.34-2.74,2.64-5.52,3.95-8.29q2,4.43,3.87,8.89c0,.06,0,.1,0,0a5.22,5.22,0,0,0,0-1.05V15.27h.6c.11,0,.27,0,.33,0h.79c0,.05.16,0,.23,0h.29c2.57,0,4,1.12,4.55,3.19,0,0,0,0,0,.08.05-1,0-2.18,0-3.27H22.3v7.78h3.25v1.2H21c0-1,.05-2.28,0-3.39,0-.09,0-.2,0,0-.52,2.11-1.92,3.33-4.47,3.41-.69,0-1.43,0-2.09,0H13c-.34-.68-.6-1.44-.93-2.15v0c-1.29,0-2.63,0-3.89,0-.33.72-.68,1.41-1,2.13-.28,0-.61,0-.85,0H1.47v-9H6.39v.65c0,.08.07.52,0,.6a4.6,4.6,0,0,1-.91,0c-.88,0-2,0-2.69,0v2.15c1.16,0,2.41,0,3.6,0v1.2c-1.2,0-2.45,0-3.62,0C2.77,21,2.72,22,2.77,23Zm13.08-6.47h-.39v6.51h.18a.9.9,0,0,0,.46,0,4,4,0,0,0,2.67-.82L19,22a3.47,3.47,0,0,0,.84-2.09.82.82,0,0,0,0-.44,3,3,0,0,0-3.16-2.89A3.17,3.17,0,0,0,15.85,16.54Zm-4.26,4.32c-.44-1-.91-2-1.33-3.08-.53,1-1,2.08-1.49,3.12.91.05,1.9,0,2.84,0C11.6,20.9,11.61,20.86,11.59,20.86Z"/><path class="cls-1" d="M12.68,12.56c.09,0,.24,0,.29,0S12.74,12.61,12.68,12.56Z"/><path class="cls-1" d="M21,15.27c0,1.09,0,2.23,0,3.27,0,0,0,0,0-.08.06-1,0-2.19,0-3.21Z"/><path class="cls-4" d="M15.85,16.54a3.17,3.17,0,0,1,.87,0Z"/><path class="cls-4" d="M11.59,20.86s0,0,0,.06c-.94,0-1.93,0-2.84,0h2.82Z"/><path class="cls-4" d="M8.21,22.1c1.26-.05,2.6,0,3.89,0v0Z"/><path class="cls-8" d="M.43,27.77a4.8,4.8,0,0,1,.67,0,3.37,3.37,0,0,1-.64,0Z"/><path class="cls-8" d="M22.28,28.66c0,.56,0,1.17,0,1.7V28.64h0Z"/><path class="cls-8" d="M11.46,28.68a11.77,11.77,0,0,1,0,1.68Z"/><path class="cls-8" d="M.43,29A5.72,5.72,0,0,1,1,29v0H.43Z"/><path class="cls-8" d="M21,29a1.23,1.23,0,0,1,0,.54Z"/><path class="cls-8" d="M4.37,29.06v.61A1.57,1.57,0,0,1,4.37,29.06Z"/><path class="cls-8" d="M8.63,29.18v.54A1.23,1.23,0,0,1,8.63,29.18Z"/><path class="cls-8" d="M19.08,30c.07,0,.05.29,0,.35V30Z"/><path class="cls-8" d="M3.37,32.51s0,0,.07,0,0,.32,0,.41v-.39Z"/><path class="cls-8" d="M26,32.68s0-.09,0-.13.3,0,.39,0H26c-.06,0,0,.13,0,.13S25.94,32.69,26,32.68Z"/><path class="cls-8" d="M25.45,33.25v.58A1.88,1.88,0,0,1,25.45,33.25Z"/><path class="cls-8" d="M2.26,33.28a1.82,1.82,0,0,1,0,.57Z"/><path class="cls-8" d="M17.07,33.3v.55A1.69,1.69,0,0,1,17.07,33.3Z"/><path class="cls-8" d="M11.07,28.79c0,.48,0,1.05,0,1.57C11,29.88,11.08,29.3,11.07,28.79Z"/><path class="cls-8" d="M8,29.72a.59.59,0,0,1,.37,0Z"/><path class="cls-8" d="M11.19,32.68c.2-.29.81-.18.77.24v1.6c-.12,0-.29,0-.37,0V33.11c0-.1,0-.13,0-.21a.24.24,0,0,0-.38.15c-.05.45,0,1,0,1.47h-.39v-2h.39C11.15,32.62,11.14,32.79,11.19,32.68Z"/></g></g></svg>