<svg xmlns="http://www.w3.org/2000/svg" viewBox="0 0 503.92 94.03"><defs><style>.cls-1{fill:#9f3d86;}.cls-2{fill:#616160;}</style></defs><title>Active-IQ</title><g id="Layer_2" data-name="Layer 2"><g id="Layer_1-2" data-name="Layer 1"><g id="Layer_3" data-name="Layer 3"><path class="cls-1" d="M150,68.57l14.66,4.56c-3,10.47-13.87,20.37-29.78,20.37-18.83,0-33.29-14.19-33.29-32.76s14.46-32.89,33.29-32.89c15.91,0,26.81,10,29.74,20.29L150,52.78c-1.46-6.63-7.3-11-15.12-11-10.88,0-18,8.35-18,19s7.16,19,18,19C142.73,79.71,148.57,75.33,150,68.57Z"/><path class="cls-1" d="M209.43,91.38c-7,2.12-10.21,2.65-15.65,2.65-15,0-24.27-10-24.27-26.13V11.2l15.25-4.83V29.31H208V42.17H184.76V67.9c0,8.36,4.51,11.94,11.94,11.94a41,41,0,0,0,10.61-1.59Z"/><rect class="cls-1" x="214.2" y="29.31" width="15.25" height="62.73"/><polygon class="cls-1" points="276.41 92.04 262.89 92.04 233.97 29.31 250.29 29.31 269.65 72.55 289.14 29.31 305.32 29.31 276.41 92.04"/><path class="cls-1" d="M364.21,66.71H316.07c1.86,7.82,7.69,13.79,18.3,13.79,6.11,0,10.48-2,12.74-5.83l14.73,4.48c-5.72,9-15.53,14.35-27.86,14.35-20,0-33.29-14.19-33.29-32.76S314,27.85,334,27.85c17.37,0,30.5,13,30.63,31.83A42.29,42.29,0,0,1,364.21,66.71ZM315.94,55.3H349.1c-1.2-8.88-6.77-14.45-15.92-14.45C323.37,40.85,317.66,47.21,315.94,55.3Z"/><path class="cls-1" d="M212.52,12.64a9.36,9.36,0,0,1,18.71,0,9,9,0,0,1-9.3,9C216.66,21.6,212.52,17.79,212.52,12.64Z"/><path class="cls-2" d="M491.11,79,503.92,79l-8.83,15s-32.73-.07-38.3-.07A47,47,0,1,1,503.74,47C503.74,61.54,498.31,70.49,491.11,79Zm-34.19,0c17.51,0,30.77-14.45,30.77-32.09s-13.26-32.1-30.77-32.1S426,29.31,426,47,439.28,79,456.92,79ZM402.8,92H387.55V33.3l15.25-4Zm-16.94-79.4a9.36,9.36,0,0,1,18.71,0,9,9,0,0,1-9.3,9C390,21.6,385.86,17.79,385.86,12.64Z"/><path class="cls-1" d="M41.57,8.29,61.86,1.73h0L87.76,53.82l6.87,13.83L106.71,92h-17L79.89,72.27,17,91.94H0L6.27,79.33l35.3-71M53.35,18.86,26.44,73,73,58.43Zm8.31-17L41.57,8.29"/></g></g></g></svg>