<svg xmlns="http://www.w3.org/2000/svg" viewBox="0 0 482.42 263.85"><title>Higher Education</title><style type="text/css" media="screen">
	path { fill: #3caf74; }
</style><g id="Layer_2" data-name="Layer 2"><g id="Layer_1-2" data-name="Layer 1"><path d="M138.65,183.87H112.6v-3.59a12.82,12.82,0,0,0,4.84-.7,3.53,3.53,0,0,0,2.11-2A10.92,10.92,0,0,0,120,174v-15.9H95.45V174q0,3.28,1.37,4.77t6.25,1.48v3.59H76.82v-3.59a12.84,12.84,0,0,0,4.82-.7,3.64,3.64,0,0,0,2.15-2,10.31,10.31,0,0,0,.49-3.54V140.75a10.54,10.54,0,0,0-.47-3.5,3.71,3.71,0,0,0-2.07-2,12.42,12.42,0,0,0-4.92-.74v-3.59h26.25v3.59q-4.84,0-6.23,1.44t-1.39,4.81V153.8H120V140.75a11.26,11.26,0,0,0-.43-3.5,3.57,3.57,0,0,0-2-2,12.55,12.55,0,0,0-5-.74v-3.59h26.05v3.59a12.42,12.42,0,0,0-4.92.74,3.64,3.64,0,0,0-2,2,10.89,10.89,0,0,0-.45,3.5V174a11.63,11.63,0,0,0,.41,3.42,3.6,3.6,0,0,0,2.05,2.05,12.1,12.1,0,0,0,5,.78Z"/><path d="M169.69,183.87H142.82v-3.59a15.18,15.18,0,0,0,5.07-.64,3.61,3.61,0,0,0,2.25-1.94,10.07,10.07,0,0,0,.53-3.67V140.75c0-2.29-.48-3.91-1.43-4.84s-3.09-1.41-6.42-1.41v-3.59h26.87v3.59a14.94,14.94,0,0,0-5.08.66,3.7,3.7,0,0,0-2.24,1.94,9.88,9.88,0,0,0-.53,3.65V174a10,10,0,0,0,.51,3.56,3.74,3.74,0,0,0,2.17,2,14.08,14.08,0,0,0,5.17.7Z"/><path d="M230.22,163a12.19,12.19,0,0,0-3.42.72,2.74,2.74,0,0,0-1.58,1.68,11.54,11.54,0,0,0-.43,3.69v12.42A56.14,56.14,0,0,0,212.52,183c-3.17.7-5.56,1.19-7.14,1.46a34.06,34.06,0,0,1-5.63.41,26.28,26.28,0,0,1-14.73-4,25.6,25.6,0,0,1-9.19-10.35,29.46,29.46,0,0,1-3.07-13,27.51,27.51,0,0,1,3.63-14A26.8,26.8,0,0,1,199.83,130a24.85,24.85,0,0,1,16.37,6.21,16.53,16.53,0,0,0,1.44-4.61h3.79l.39,17.34h-3.59a19.6,19.6,0,0,0-3.09-7.22,17,17,0,0,0-5.64-5.2,14.93,14.93,0,0,0-7.44-1.91,16.92,16.92,0,0,0-5.82,1,14.19,14.19,0,0,0-5.34,3.6,18.34,18.34,0,0,0-4,7,34.22,34.22,0,0,0-1.5,10.9,47.65,47.65,0,0,0,1.17,10.66,18.13,18.13,0,0,0,4.76,8.79q3.6,3.67,10.16,3.67,5.16,0,7.81-1.62a7.63,7.63,0,0,0,3.46-4,16.28,16.28,0,0,0,.8-5.24,14,14,0,0,0-.41-4,3,3,0,0,0-1.92-1.84,13.59,13.59,0,0,0-4.62-.58v-3.6h23.59Z"/><path d="M293.08,183.87H267v-3.59a12.82,12.82,0,0,0,4.84-.7,3.56,3.56,0,0,0,2.11-2,10.92,10.92,0,0,0,.47-3.52v-15.9H249.88V174q0,3.28,1.36,4.77t6.25,1.48v3.59H231.24v-3.59a12.9,12.9,0,0,0,4.83-.7,3.64,3.64,0,0,0,2.15-2,10.56,10.56,0,0,0,.49-3.54V140.75a10.54,10.54,0,0,0-.47-3.5,3.78,3.78,0,0,0-2.07-2,12.45,12.45,0,0,0-4.93-.74v-3.59h26.25v3.59q-4.83,0-6.23,1.44t-1.38,4.81V153.8h24.57V140.75a11.57,11.57,0,0,0-.43-3.5,3.6,3.6,0,0,0-2-2,12.55,12.55,0,0,0-5-.74v-3.59h26.05v3.59a12.42,12.42,0,0,0-4.92.74,3.64,3.64,0,0,0-2.05,2,10.89,10.89,0,0,0-.45,3.5V174a11.63,11.63,0,0,0,.41,3.42,3.57,3.57,0,0,0,2.05,2.05,12.07,12.07,0,0,0,5,.78Z"/><path d="M345.07,166.45l-.42,17.42H297.46v-3.59q4.88,0,6.29-1.41c.93-.93,1.4-2.55,1.4-4.84V140.75a11,11,0,0,0-.45-3.54,3.56,3.56,0,0,0-2.11-2,13.65,13.65,0,0,0-5.13-.72v-3.59H341.4l.71,13.75h-3.6a18.51,18.51,0,0,0-2.79-6.55,6.46,6.46,0,0,0-3.56-2.42,28.62,28.62,0,0,0-5.91-.45h-9.93V154h5.4a13,13,0,0,0,4.14-.49,3.1,3.1,0,0,0,1.91-1.85,15.3,15.3,0,0,0,.74-4.3h3.75v17.62h-3.59a13.22,13.22,0,0,0-.78-4.32,3.31,3.31,0,0,0-2-1.85,13.15,13.15,0,0,0-4.12-.47h-5.47v12.46c0,2.08.06,3.61.16,4.57a4.91,4.91,0,0,0,.84,2.4,3.93,3.93,0,0,0,2.23,1.39,17.09,17.09,0,0,0,4.39.43h4.26a18.82,18.82,0,0,0,5.14-.69,9.93,9.93,0,0,0,4.78-3.51q2.34-2.84,3.28-8.89Z"/><path d="M406.94,183.87H392.76a24.25,24.25,0,0,1-1.94-2.5q-1.15-1.63-2.52-3.84L386,173.87l-3.6-5.93a48.31,48.31,0,0,0-3.65-5.45,5.49,5.49,0,0,0-2.81-1.88,24.48,24.48,0,0,0-5.37-.41h-2V174a11,11,0,0,0,.46,3.52,3.59,3.59,0,0,0,2.21,2,14.1,14.1,0,0,0,5.06.7v3.59H349.79v-3.59c3.23,0,5.3-.47,6.23-1.41s1.38-2.55,1.38-4.84V140.59c0-2.26-.44-3.87-1.34-4.82s-3-1.43-6.27-1.43v-3.67l12.26-.39c.94-.05,2-.09,3.23-.12s2.33,0,3.37,0c.81,0,2.15,0,4,.08q3.94.12,7.38.47a36.14,36.14,0,0,1,5.43.9,18.53,18.53,0,0,1,5.57,2.46,13.6,13.6,0,0,1,4.29,4.53,12.58,12.58,0,0,1,1.66,6.53,12.11,12.11,0,0,1-1.15,5.15,11.83,11.83,0,0,1-3.71,4.45,19.18,19.18,0,0,1-6.74,3.09,17.74,17.74,0,0,1,4.85,4.16q2,2.49,6.25,9.12a62.13,62.13,0,0,0,4.06,5.72,10,10,0,0,0,2.95,2.62,9.43,9.43,0,0,0,3.42.88ZM385,145q0-6.33-3.85-8.4a21.15,21.15,0,0,0-10.05-2.07l-1.35,0-1.11,0v21.29h2.46A22.81,22.81,0,0,0,381,154C383.65,152.68,385,149.69,385,145Z"/><path d="M47.62,245.45l-.43,17.42H0v-3.59q4.88,0,6.29-1.41c.94-.93,1.41-2.55,1.41-4.84V219.75a11.32,11.32,0,0,0-.45-3.54,3.59,3.59,0,0,0-2.11-2A13.71,13.71,0,0,0,0,213.5v-3.59H44l.7,13.75h-3.6a18.15,18.15,0,0,0-2.79-6.55,6.43,6.43,0,0,0-3.55-2.42,28.79,28.79,0,0,0-5.92-.45H18.87V233h5.39a13,13,0,0,0,4.14-.49,3.07,3.07,0,0,0,1.91-1.85,14.94,14.94,0,0,0,.74-4.3H34.8v17.62H31.21a12.71,12.71,0,0,0-.78-4.32,3.29,3.29,0,0,0-2-1.85,13.23,13.23,0,0,0-4.12-.47H18.87v12.46c0,2.08.05,3.61.15,4.57a5.12,5.12,0,0,0,.84,2.4,3.93,3.93,0,0,0,2.23,1.39,17.09,17.09,0,0,0,4.39.43h4.26a18.82,18.82,0,0,0,5.14-.69,9.88,9.88,0,0,0,4.78-3.51Q43,251.51,44,245.45Z"/><path d="M108.23,236.86a26.47,26.47,0,0,1-2,10.37,24,24,0,0,1-5,7.71,21.91,21.91,0,0,1-6.61,4.65q-7.41,3.29-18.16,3.28H52.29v-3.59a15.28,15.28,0,0,0,5.08-.64,3.66,3.66,0,0,0,2.25-1.94,10.1,10.1,0,0,0,.52-3.67V219.59q0-3.43-1.4-4.84t-6.45-1.41v-3.67l11.37-.23,4.76-.08,4.85-.08a75.14,75.14,0,0,1,11.07.7,36.37,36.37,0,0,1,8.34,2.27,23.16,23.16,0,0,1,6.41,3.93,24.8,24.8,0,0,1,4.94,5.74,27.3,27.3,0,0,1,3.1,7A28.45,28.45,0,0,1,108.23,236.86Zm-12.66-.24q0-8.24-3.14-13.8a16.83,16.83,0,0,0-8.54-7.72,18.14,18.14,0,0,0-5-1.19q-2.64-.25-7.56-.25v37.22a24.5,24.5,0,0,0,.32,4.67,3.17,3.17,0,0,0,1.83,2.23,11.23,11.23,0,0,0,4.73.76q9.49,0,13.42-6.64A29.53,29.53,0,0,0,95.57,236.62Z"/><path d="M167.75,213.5a11.54,11.54,0,0,0-5.1.82,3.52,3.52,0,0,0-1.9,2.34,23.12,23.12,0,0,0-.35,4.69v19.53A64.59,64.59,0,0,1,160,249a15.07,15.07,0,0,1-2,5.49,15.68,15.68,0,0,1-8.3,7.36,29.09,29.09,0,0,1-10.26,2,30.89,30.89,0,0,1-7.48-1,22.94,22.94,0,0,1-7.17-3.14,14.09,14.09,0,0,1-5-5.74,21,21,0,0,1-1.45-3.93,18.67,18.67,0,0,1-.6-3.71c-.07-1.16-.1-2.68-.1-4.55l-.08-22.07c0-2.29-.45-3.91-1.35-4.84s-3-1.41-6.31-1.41v-3.59h26.72v3.59a14.42,14.42,0,0,0-5.08.68,3.63,3.63,0,0,0-2.18,2,10,10,0,0,0-.51,3.61v22.07a47.21,47.21,0,0,0,.33,6,20.73,20.73,0,0,0,1,4.47,10.49,10.49,0,0,0,4.51,5.06,13.47,13.47,0,0,0,7,1.89,15.23,15.23,0,0,0,7.64-2,11,11,0,0,0,4.9-5.21,18.56,18.56,0,0,0,1.42-5.18,52.84,52.84,0,0,0,.34-6.39V221.35a34.82,34.82,0,0,0-.16-3.83,4.53,4.53,0,0,0-.86-2.2,4.05,4.05,0,0,0-2.32-1.39,18.15,18.15,0,0,0-4.48-.43v-3.59h19.5Z"/><path d="M220.22,262.33h-3.68a17.41,17.41,0,0,0-2.69-6,30.86,30.86,0,0,1-6.8,5.31q-3.83,2.24-10.35,2.23a26.32,26.32,0,0,1-13.26-3.48,25.94,25.94,0,0,1-9.75-9.7,27.41,27.41,0,0,1-3.63-14A28.89,28.89,0,0,1,172,226a26.92,26.92,0,0,1,5.63-8.87,26.1,26.1,0,0,1,8.71-6A27.55,27.55,0,0,1,197.44,209a22.25,22.25,0,0,1,16.41,6.48,24.88,24.88,0,0,0,1.68-4.88H219l.63,19.49h-3.75a24,24,0,0,0-3.67-8.83,18.91,18.91,0,0,0-6.31-5.91,15.37,15.37,0,0,0-7.64-2,13.8,13.8,0,0,0-8,2.44,15.8,15.8,0,0,0-5.56,7.44,33.59,33.59,0,0,0-2,12.46,37,37,0,0,0,1.68,12.09,18.64,18.64,0,0,0,4.16,7.28,13.54,13.54,0,0,0,5,3.34,14,14,0,0,0,4.68.88,15.21,15.21,0,0,0,8.66-2.58,21.35,21.35,0,0,0,6.3-6.5,24.26,24.26,0,0,0,3.29-7.79h3.75Z"/><path d="M279.05,262.87h-25v-3.59a16.94,16.94,0,0,0,4.61-.45,2,2,0,0,0,1.45-2.13,6.63,6.63,0,0,0-.47-2.38l-2.5-6.25H240l-1.29,3.44a13.7,13.7,0,0,0-1.09,4.18,2.77,2.77,0,0,0,1.81,3,13.29,13.29,0,0,0,4.24.62v3.59H225.42v-3.59a7.68,7.68,0,0,0,3.71-.82,8.18,8.18,0,0,0,2.91-3.11,41,41,0,0,0,3-6.46l15.27-40H254l16.14,41.25q1.75,4.38,2.58,5.92a5.83,5.83,0,0,0,2.26,2.38,8.13,8.13,0,0,0,4.06.84Zm-23.28-18.63-7.3-18.47-7,18.47Z"/><path d="M328.23,224.94h-3.71q-.51-4.92-2.17-7.26a6.89,6.89,0,0,0-3.57-2.89,15.92,15.92,0,0,0-4.41-.55h-6.72V253a10.46,10.46,0,0,0,.47,3.57,3.58,3.58,0,0,0,2.18,2,13.94,13.94,0,0,0,5,.7v3.59H288.78v-3.59q4.88,0,6.29-1.41c.94-.93,1.4-2.55,1.4-4.84V214.24h-5.62a24.16,24.16,0,0,0-5.51.53,6.66,6.66,0,0,0-3.85,2.89c-1.1,1.58-1.73,4-1.89,7.28h-3.71v-15h52.34Z"/><path d="M359.36,262.87H332.48v-3.59a15.28,15.28,0,0,0,5.08-.64,3.61,3.61,0,0,0,2.24-1.94,9.86,9.86,0,0,0,.53-3.67V219.75c0-2.29-.47-3.91-1.42-4.84s-3.1-1.41-6.43-1.41v-3.59h26.88v3.59a14.9,14.9,0,0,0-5.08.66A3.69,3.69,0,0,0,352,216.1a9.88,9.88,0,0,0-.53,3.65V253a10,10,0,0,0,.51,3.56,3.74,3.74,0,0,0,2.17,2,14.14,14.14,0,0,0,5.18.7Z"/><path d="M421.5,236.39a27.9,27.9,0,0,1-3.44,13.54A25.65,25.65,0,0,1,407.88,260,31.82,31.82,0,0,1,392,263.85a33.61,33.61,0,0,1-13.2-2.42,25.75,25.75,0,0,1-9.32-6.49,27.15,27.15,0,0,1-5.35-8.9,28.6,28.6,0,0,1-1.74-9.73A28.17,28.17,0,0,1,365.68,223a25.1,25.1,0,0,1,10-10.13,31.4,31.4,0,0,1,16-3.85,33.91,33.91,0,0,1,14.42,2.77,25,25,0,0,1,9.25,7,27.29,27.29,0,0,1,4.75,8.85A30,30,0,0,1,421.5,236.39Zm-12.66-.16a44.65,44.65,0,0,0-.76-8.43,22.09,22.09,0,0,0-2.68-7.21,14.12,14.12,0,0,0-5.23-5.12,16.4,16.4,0,0,0-8.21-1.89q-6.72,0-10.48,3.34a16.62,16.62,0,0,0-5.12,8.36A42.06,42.06,0,0,0,375,236.23a56.32,56.32,0,0,0,.43,6.84,25.94,25.94,0,0,0,2.07,7.28,15.05,15.05,0,0,0,5.24,6.29A15.61,15.61,0,0,0,392,259.2a15,15,0,0,0,9.2-2.63,15.57,15.57,0,0,0,5.16-6.45,26.59,26.59,0,0,0,2-7.28A57.28,57.28,0,0,0,408.84,236.23Z"/><path d="M482.42,213.5a13.85,13.85,0,0,0-5.42.76,3.42,3.42,0,0,0-2,2.25,21.15,21.15,0,0,0-.39,4.84v42H471l-34.65-41.17v29.18a20.52,20.52,0,0,0,.41,4.83,3.57,3.57,0,0,0,2.09,2.3,13.56,13.56,0,0,0,5.43.8v3.59H424.57v-3.59a12,12,0,0,0,5.1-.8,3.43,3.43,0,0,0,1.95-2.3,22.1,22.1,0,0,0,.38-4.83v-27a49.08,49.08,0,0,0-.18-4.92,7.78,7.78,0,0,0-.84-2.87,4.88,4.88,0,0,0-2.17-2,12.28,12.28,0,0,0-4.16-1v-3.59h15.43l30.16,35.62V221.35a19.38,19.38,0,0,0-.41-4.55,3.81,3.81,0,0,0-2-2.44,11.62,11.62,0,0,0-5.14-.86v-3.59h19.76Z"/><path d="M241,59.94a16.37,16.37,0,0,1-5.05-.72l-50.33-15V78a2.17,2.17,0,0,0,1.26,1.8L236.3,94.4a19.27,19.27,0,0,0,10.11,0l49.43-14.62A1.79,1.79,0,0,0,297.1,78V44.06L245.68,59.4A18.6,18.6,0,0,1,241,59.94Z"/><path d="M325.06,24.58,243.88.41a11.59,11.59,0,0,0-6.13,0L156.56,24.58a2.19,2.19,0,0,0,0,4.15L237.75,52.9a11.59,11.59,0,0,0,6.13,0l70-20.74v28.5a3.56,3.56,0,0,0-2.17,3.25v2.71a3.45,3.45,0,0,0,2.35,3.24l-4,9.38c-.36,1.09.18,2.17,1.26,2.17l3.25.36h2l3.25-.36a1.52,1.52,0,0,0,1.26-2.17l-4-9.38a3.72,3.72,0,0,0,2.35-3.24V63.91a3.56,3.56,0,0,0-2.17-3.25V31.26l7.76-2.35A2.25,2.25,0,0,0,325.06,24.58Z"/></g></g></svg>
