<svg xmlns="http://www.w3.org/2000/svg" viewBox="0 0 303.51 121.78"><defs><style>.cls-1,.cls-2{fill:#1d1d1b;}.cls-1{fill-rule:evenodd;}</style></defs><title>NCFE</title><g id="Layer_2" data-name="Layer 2"><g id="Layer_1-2" data-name="Layer 1"><path class="cls-1" d="M72.84,79.24c-.23-4.8-.66-9.59-1.22-14.34a86.47,86.47,0,0,0-1.68-8.57c-.21-1-.81-1.89-1-2.89A11.47,11.47,0,0,0,66.15,48a18.57,18.57,0,0,0-5.56-3.88c-3-1.62-5.94-3.26-9.36-3.87a43.09,43.09,0,0,0-11-1c-3.45.27-6.91.33-10.36.62-2.54.21-5.09.58-7.61,1-3,.52-5.89,1.26-8.85,1.75A74.09,74.09,0,0,0,2.25,45.8c-.92.31-1.65.74-1.21,2A2.76,2.76,0,0,1,.94,49,8.71,8.71,0,0,1,.3,51.62c-.35.75.26,1.9.3,2.88.07,1.53,0,3.07,0,4.6C.69,63,.85,66.85.85,70.72c0,4.21-.16,8.44-.26,12.67,0,2-.11,4-.16,6C.3,93.5.14,97.67.05,101.85c-.06,2.65-.08,5.31,0,8s.35,5,.54,7.54c.05.69.45.93,1.08,1,2.24.18,4.47.45,6.71.57,3.52.17,7,.36,10.57.35,2.17,0,4.34-.37,6.5-.58.6,0,.91-.3.66-1A4.59,4.59,0,0,1,26,116q.16-7,.35-13.94c.09-2.76.2-5.51.33-8.27.16-3.29.36-6.58.49-9.87.07-1.5,0-3,0-4.51q0-3.36.15-6.73c.06-2.46.18-4.92.21-7.39A1.33,1.33,0,0,1,28.6,64c.82-.27,1.64-.56,2.48-.75a27.9,27.9,0,0,1,10.22-.34c4,.54,6.26,2.79,6.28,7.13s.14,8.66.14,13-.07,8.58-.16,12.87c-.05,2-.24,4-.35,6-.25,4.89-.48,9.79-.74,14.67,0,.63.13,1,.73,1.14a20.79,20.79,0,0,0,3.23.39c3.25,0,6.5,0,9.75,0,3.68-.1,7.35-.29,11-.47a1.27,1.27,0,0,0,1.35-1.34c0-2.27,0-4.53-.07-6.79,0-4.11-.12-8.21-.14-12.31,0-1.89.11-3.78.13-5.67,0-.22-.2-.45-.36-.77A6.13,6.13,0,0,0,72.66,89c.12-3.26.35-6.54.18-9.79"/><path class="cls-1" d="M208.45,9.14a8.51,8.51,0,0,0-.55-4.22c-.35-1-1.37-1.15-2.11-1.66a20.07,20.07,0,0,0-11-3.22A73.65,73.65,0,0,0,180.4,1a16.91,16.91,0,0,0-6.84,2.65,29.14,29.14,0,0,0-9.43,10.1c-1.07,1.93-2.2,3.93-1.82,6.33,0,.16-.11.35-.16.52-.21.59-.38,1.19-.6,1.76-.69,1.82.45,3.84-.61,5.63-.21,3.8-.47,7.6-.61,11.4,0,1.33-.11,1.58-1.48,1.53-3-.08-6.09-.22-9.11-.24a1.52,1.52,0,0,0-1.19.78,8.17,8.17,0,0,0-.07,2.27c.07,2.31.22,4.61.26,6.92.06,3.55.06,7.1,0,10.65,0,1,.41,1.44,1.35,1.47.67,0,1.34,0,2,0,2.54,0,5.07,0,7.59.12a1.12,1.12,0,0,1,.71.78c.14,1.38.18,2.75.25,4.13s.14,2.81.25,4.2c0,.37.28.74.25,1.08-.08,1-.42,1.94-.4,2.89.07,4,.22,7.9.36,11.84,0,.27.27.53.45.85a9.84,9.84,0,0,0-.42,2.08c0,5.07,0,10.15.07,15.21,0,1.31.05,2.62,0,3.92,0,2.21-.11,4.41-.1,6.61,0,.91,1.18,2.26,1.84,2.2,1-.07,2-.21,3.06-.3a21,21,0,0,1,3-.25c3.14.08,6.28.26,9.41.39,2.37.09,4.76,0,7.09.31,1.54.2,2.56-.57,3.74-1.17a.44.44,0,0,0,.16-.33,33.65,33.65,0,0,0,.16-4.59c-.12-1.39-.56-2.72-.26-4.17a14.72,14.72,0,0,0,0-2.4c.06-2.48.13-5,.16-7.46,0-.39-.25-.77-.21-1.15.05-.55.35-1.1.35-1.65,0-1.63-.11-3.26-.14-4.9-.06-3-.08-6.07-.13-9.1s-.12-5.83-.18-8.74c0-1.68-.13-3.37-.16-5.07,0-1.55,0-3.13-.06-4.68,0-.72.11-1,.81-1.07.3,0,.59-.05.86-.05,3.44,0,6.88,0,10.29-.09a13.59,13.59,0,0,0,2.91-.47c.36-.1.87-.6.28-.91-.81-.44-.72-1-.62-1.7.21-1.44.66-2.87,0-4.3a1.09,1.09,0,0,1,0-.57c.17-4,.35-7.92.49-11.89,0-1.55-.2-1.72-1.76-1.73-2.74,0-5.5-.05-8.26-.06-2.31,0-4.61,0-6.91,0a.94.94,0,0,1-.76-.5,5.77,5.77,0,0,1-.15-1.71c.1-2.08.31-4.15.35-6.23a14.86,14.86,0,0,1,1.49-6.6,4.18,4.18,0,0,1,1.5-1.65c2.95-1.91,6.13-1.53,9.36-.8a21.28,21.28,0,0,1,7.5,3.57,1.25,1.25,0,0,0,1,.14c.19-.08.29-.58.29-.89-.05-2.4-.3-4.81-.17-7.21.18-3.18.56-6.37,1-9.53"/><path class="cls-1" d="M142.91,108.28c.09-4.19.28-8.37.42-12.11-.11-1.86-.16-3.26-.3-4.67,0-.35-.25-.91-.48-1a1.76,1.76,0,0,0-1.18.32c-1,.64-1.91,1.42-3,2-1.91,1.08-3.89,2.08-5.87,3.06a18.37,18.37,0,0,1-16.7.32,17.3,17.3,0,0,1-7.92-6.92,15.72,15.72,0,0,1-2-3.6,30.75,30.75,0,0,1-.92-4.7,13.18,13.18,0,0,1,1.68-8.9,39.24,39.24,0,0,1,3-4.54c3.06-3.9,7-6.16,12-6.08,1.85,0,3.71-.14,5.56-.11a14.52,14.52,0,0,1,4.44.37c3.54,1.21,6.4,3.57,9.25,5.92a3.93,3.93,0,0,0,1,.47,4.37,4.37,0,0,0,.22-1c-.05-2.49-.21-5-.2-7.48,0-3,.19-6,.24-8.93,0-1.35-.13-2.68-.16-4a1.11,1.11,0,0,1,.18-.8c.71-.72.32-1.33-.21-1.83a5.16,5.16,0,0,0-1.65-1.13,60.4,60.4,0,0,0-7.19-2.36,43.15,43.15,0,0,0-13.65-1.05,68.83,68.83,0,0,0-12.76,2.29A63,63,0,0,0,98,45c-1.42.67-3.12.81-4.27,2.21-1.5,1.83-3.28,3.41-4.93,5.13A25.63,25.63,0,0,0,84,59.82a67.09,67.09,0,0,0-3.28,8.43A69.11,69.11,0,0,0,79,78a25.51,25.51,0,0,0,.28,9.93,93,93,0,0,0,3.45,10.18A23.18,23.18,0,0,0,89,107.4c1.81,1.56,3.5,3.27,5.36,4.74a28.59,28.59,0,0,0,7,4.5,56.67,56.67,0,0,0,6.57,2.64,77.09,77.09,0,0,0,8.34,1.36,23.19,23.19,0,0,0,9.59-.79,82.23,82.23,0,0,0,13.89-5.08,11.18,11.18,0,0,1,2.18-1c1.12-.27,1.38-.54,1.26-1.67a28.9,28.9,0,0,1-.28-3.83"/><path class="cls-1" d="M292.62,100.45c4.7-.4,10.52,4.21,10.86,10.27a6.17,6.17,0,0,1-.29,2.82c-1.83,4.12-4.7,7.21-9.34,8.08a11.68,11.68,0,0,1-4.25-.07,14.13,14.13,0,0,1-6.33-3.21,6.37,6.37,0,0,1-2.47-5.67,20,20,0,0,1,.71-4.22c1.87-5.87,5-8.06,11.11-8"/><path class="cls-2" d="M276.8,71.69c-.22-2-.49-4-.72-6a22.27,22.27,0,0,0-3.31-9.17A25.77,25.77,0,0,0,267,50a26.74,26.74,0,0,0-8-4.65c-3-1-6-1.79-9.05-2.62a11.24,11.24,0,0,0-2.86-.51c-3.26,0-6.57-.26-9.79.51-1.76.43-3.63.29-5.33,1.08A15.67,15.67,0,0,1,228.5,45a16.39,16.39,0,0,0-5.78,2.78,41,41,0,0,0-5,4.1A35.82,35.82,0,0,0,211,60.19a51,51,0,0,0-4.13,9.39,55.2,55.2,0,0,0-2.48,9.78,27.74,27.74,0,0,0-.24,8.67,77.4,77.4,0,0,0,2.18,9.65,23.7,23.7,0,0,0,4.89,8.76c1.58,1.84,3.37,3.5,5.08,5.23a2.62,2.62,0,0,0,.69.49A58.68,58.68,0,0,1,222.5,115a31.49,31.49,0,0,0,10,4.06c2.69.63,5.47.88,8.19,1.3a27.12,27.12,0,0,0,3.06.43c2.56.07,5.11.12,7.67,0A38.21,38.21,0,0,0,258,120c4.47-1,8.58-3,12.72-4.86a7.1,7.1,0,0,0,1.73-1.26,1.08,1.08,0,0,0,.19-1.71,1.49,1.49,0,0,1-.21-1c0-.75.05-1.5.1-2.24l.54-9.43c.06-1,.18-2.06.17-3.08s-1.07-2-1.64-1.66a12.73,12.73,0,0,1-3.82,1.61c-.11,0-.18.17-.29.23a11.86,11.86,0,0,1-1.49.91,19.09,19.09,0,0,1-2.36.89,45.15,45.15,0,0,1-6.15,1.84,46.08,46.08,0,0,1-11.73.56,18.31,18.31,0,0,1-7.45-2c-3.46-1.94-6.05-4.87-8.49-7.92a2.91,2.91,0,0,1-.31-.84,3.18,3.18,0,0,1,.92-.23c1.63,0,3.25.17,4.87.15,4.71,0,9.42-.14,14.12-.22,1.25,0,2.5-.16,3.74-.1,1.74.06,3.48.26,5.22.4,0-.09,0-.16,0-.24,2.46.18,4.9.45,7.36.52,2.92.09,5.86,0,8.77,0a1.26,1.26,0,0,0,.89-.66,14.73,14.73,0,0,0,1.29-3.91,58.45,58.45,0,0,0,.09-14m-23.08,3.4a8.41,8.41,0,0,1-1.4.26c-1.26.08-2.52.15-3.78.18a35.72,35.72,0,0,1-4.51,0c-1.06-.1-2.12-.16-3.18-.21-1.35-.07-2.69-.12-4-.21a24.08,24.08,0,0,1-3.3-.27,9.25,9.25,0,0,0-2.93.15c-.23,0-.46.08-.7.09a2.22,2.22,0,0,1-.48-.07,1.12,1.12,0,0,1,0-1c.51-1.2,1-2.41,1.54-3.59a14,14,0,0,1,2.19-2.94,4.91,4.91,0,0,1,1.14-.85,20.41,20.41,0,0,1,4.47-2.39,22,22,0,0,1,4.49-1,7.35,7.35,0,0,1,2.11.26,10.57,10.57,0,0,1,4.6,2.35,8,8,0,0,1,1.31,1.51,15.1,15.1,0,0,1,1.86,3.56c.35.88.7,1.76,1,2.65a2.15,2.15,0,0,1,.14.45c.14.58,0,.94-.59,1.1"/></g></g></svg>