<svg xmlns="http://www.w3.org/2000/svg" viewBox="0 0 787.94 246.61"><defs><style>.cls-1{fill:#2f3f90;}.cls-2{fill:#fff;}.cls-3{fill:#7a7b7e;}</style></defs><title>IAB</title><g id="Layer_2" data-name="Layer 2"><g id="Layer_3" data-name="Layer 3"><path class="cls-1" d="M123.31,246.61a123.31,123.31,0,1,1,123.3-123.3A123.45,123.45,0,0,1,123.31,246.61Zm0-237A113.73,113.73,0,1,0,237,123.31,113.86,113.86,0,0,0,123.31,9.58Z"/><circle class="cls-1" cx="123.31" cy="123.31" r="107.74" transform="translate(-25.05 214.95) rotate(-76.7)"/><path class="cls-2" d="M91.67,137.68H83.73V80.82h7.94Zm-4-65.58c-3.44,0-5.5-2-5.5-5.26s2.06-5.26,5.5-5.26,5.5,2,5.5,5.26S91.14,72.1,87.7,72.1Z"/><path class="cls-2" d="M123.68,139a29.08,29.08,0,0,1-21.18-8.76,29.41,29.41,0,0,1,0-42,29.12,29.12,0,0,1,21.18-8.76,30.45,30.45,0,0,1,15.43,4.27,26.13,26.13,0,0,1,6.41,5.15V80.7h7.94v57h-7.94v-8.35a27.41,27.41,0,0,1-6.7,5.48A29.45,29.45,0,0,1,123.68,139Zm.12-52.09a21,21,0,0,0-15.58,6.71,21.52,21.52,0,0,0-6.61,15.72,22.54,22.54,0,0,0,22.25,22.19,20.63,20.63,0,0,0,15.45-6.58,22.27,22.27,0,0,0-.06-31.39A20.68,20.68,0,0,0,123.8,86.88Z"/><path class="cls-2" d="M187.82,139A30.77,30.77,0,0,1,166,129.3v8.38H158V45.5H166V88.93a27.67,27.67,0,0,1,6.78-5.37,30,30,0,0,1,15.06-4.15,29.72,29.72,0,0,1,21.25,50.8A29.1,29.1,0,0,1,187.82,139Zm.12-52.09a21,21,0,0,0-15.58,6.71,21.52,21.52,0,0,0-6.61,15.72A22.54,22.54,0,0,0,188,131.5a20.63,20.63,0,0,0,15.45-6.58,22.27,22.27,0,0,0-.06-31.39A20.68,20.68,0,0,0,187.94,86.88Z"/><path class="cls-3" d="M290.74,28.3h8.85V80.72h-8.85Z"/><path class="cls-3" d="M318.79,59.12v21.6h-8.4V40.82h8.4V48.1A15.66,15.66,0,0,1,343,44.35q4.15,4.13,4.16,11.92V80.72h-8.4V58.82q0-11-9.15-11A11,11,0,0,0,322,50.68Q318.79,53.58,318.79,59.12Z"/><path class="cls-3" d="M364.45,47.57V67.82a6.6,6.6,0,0,0,1.5,4.54,5.34,5.34,0,0,0,4.2,1.69,7.15,7.15,0,0,0,5.17-2.63l3.45,5.93a14.31,14.31,0,0,1-9.78,4,12.6,12.6,0,0,1-9.15-3.71q-3.79-3.72-3.79-10V28.3h8.4V40.82H375v6.75Z"/><path class="cls-3" d="M400.17,40.22q8.18,0,13.58,4.54a14.9,14.9,0,0,1,5.47,11.81l.08.15L390.2,69a12.92,12.92,0,0,0,10.61,4.8,13.75,13.75,0,0,0,11.06-5.25L416.82,74A22.64,22.64,0,0,1,400,81.32a20.67,20.67,0,0,1-14.55-5.62q-6.08-5.62-6.07-14.85a20.12,20.12,0,0,1,3.15-11.22,19.61,19.61,0,0,1,7.8-7.12A21.86,21.86,0,0,1,400.17,40.22ZM387.5,61a9.71,9.71,0,0,0,.07,1.42L409.7,52.9Q407.15,48,400.62,48a13.7,13.7,0,0,0-9,3.45Q387.5,54.85,387.5,61Z"/><path class="cls-3" d="M446.47,48.7q-6.23,0-9.38,4t-3.15,10.87v17.1h-8.4V40.82h8.4v8a17.36,17.36,0,0,1,5.52-6.15,13.25,13.25,0,0,1,7.38-2.48l.08,8.48Z"/><path class="cls-3" d="M460.75,59.12v21.6h-8.4V40.82h8.4V48.1a15.65,15.65,0,0,1,24.18-3.75q4.17,4.13,4.17,11.92V80.72h-8.4V58.82q0-11-9.15-11A11,11,0,0,0,464,50.68Q460.75,53.58,460.75,59.12Z"/><path class="cls-3" d="M501.73,75.62q-5.62-5.7-5.62-15t5.77-14.85a19,19,0,0,1,13.65-5.55q7.88,0,13,7.5v-6.9h8.4v39.9h-8.4V74.2a15.94,15.94,0,0,1-6.11,5.28,16.67,16.67,0,0,1-7.47,1.84A18,18,0,0,1,501.73,75.62ZM504.51,61a12.5,12.5,0,0,0,3.67,9.34,11.94,11.94,0,0,0,8.63,3.6,11.16,11.16,0,0,0,8.4-3.64,13,13,0,0,0,3.45-9.34,13.68,13.68,0,0,0-3.45-9.52,11,11,0,0,0-8.48-3.83,11.43,11.43,0,0,0-8.62,3.83A13.39,13.39,0,0,0,504.51,61Z"/><path class="cls-3" d="M554.73,47.57V67.82a6.6,6.6,0,0,0,1.5,4.54,5.34,5.34,0,0,0,4.2,1.69,7.15,7.15,0,0,0,5.17-2.63l3.45,5.93a14.31,14.31,0,0,1-9.78,4,12.6,12.6,0,0,1-9.15-3.71q-3.79-3.72-3.79-10V28.3h8.4V40.82h10.5v6.75Z"/><path class="cls-3" d="M574.19,32.87a5.24,5.24,0,1,1,3.75,1.58A5.12,5.12,0,0,1,574.19,32.87Zm7.88,47.85h-8.4V40.82h8.4Z"/><path class="cls-3" d="M625,75.36a21.86,21.86,0,0,1-30,0,19.79,19.79,0,0,1-6-14.59,19.79,19.79,0,0,1,6-14.59,21.86,21.86,0,0,1,30,0,19.79,19.79,0,0,1,6,14.59A19.79,19.79,0,0,1,625,75.36Zm-24-5.18a13,13,0,0,0,18.07,0,12.85,12.85,0,0,0,3.57-9.41,12.85,12.85,0,0,0-3.57-9.41,13,13,0,0,0-18.07,0,12.85,12.85,0,0,0-3.56,9.41A12.85,12.85,0,0,0,601,70.18Z"/><path class="cls-3" d="M646.7,59.12v21.6h-8.4V40.82h8.4V48.1a15.66,15.66,0,0,1,24.19-3.75q4.15,4.13,4.16,11.92V80.72h-8.4V58.82q0-11-9.15-11a11,11,0,0,0-7.57,2.88C647.77,52.61,646.7,55.42,646.7,59.12Z"/><path class="cls-3" d="M687.69,75.62q-5.62-5.7-5.63-15t5.78-14.85a19,19,0,0,1,13.65-5.55q7.88,0,13,7.5v-6.9h8.4v39.9h-8.4V74.2a15.94,15.94,0,0,1-6.11,5.28,16.63,16.63,0,0,1-7.46,1.84A18,18,0,0,1,687.69,75.62ZM690.46,61a12.51,12.51,0,0,0,3.68,9.34,11.92,11.92,0,0,0,8.62,3.6,11.16,11.16,0,0,0,8.4-3.64,13,13,0,0,0,3.45-9.34,13.68,13.68,0,0,0-3.45-9.52,11,11,0,0,0-8.47-3.83,11.45,11.45,0,0,0-8.63,3.83A13.39,13.39,0,0,0,690.46,61Z"/><path class="cls-3" d="M752.64,77.87a10.54,10.54,0,0,1-8.4,3.45,11.81,11.81,0,0,1-8.67-3.22q-3.26-3.22-3.26-9.53V28.3h8.4V67.6q0,6,4.5,6A4,4,0,0,0,749,71.72Z"/><path class="cls-3" d="M292.61,145.62q-5.62-5.7-5.62-15t5.77-14.85a19,19,0,0,1,13.65-5.55q7.88,0,13,7.5v-6.9h8.4v39.9h-8.4V144.2a15.94,15.94,0,0,1-6.11,5.28,16.67,16.67,0,0,1-7.47,1.84A18,18,0,0,1,292.61,145.62ZM295.39,131a12.5,12.5,0,0,0,3.67,9.34,11.94,11.94,0,0,0,8.63,3.6,11.16,11.16,0,0,0,8.4-3.64,13,13,0,0,0,3.45-9.34,13.68,13.68,0,0,0-3.45-9.52,11,11,0,0,0-8.48-3.83A11.43,11.43,0,0,0,299,121.4,13.39,13.39,0,0,0,295.39,131Z"/><path class="cls-3" d="M366,138.8a11.22,11.22,0,0,1-4.12,9.11,16.08,16.08,0,0,1-10.58,3.41,28.25,28.25,0,0,1-9-1.57,27.12,27.12,0,0,1-8.29-4.43l4.05-6.52q7,5.25,13.5,5.25a7,7,0,0,0,4.5-1.32,4.06,4.06,0,0,0,1.65-3.33q0-3-7.95-5.4a9.2,9.2,0,0,0-.9-.3q-12.45-3.37-12.45-11.25a10.68,10.68,0,0,1,4.31-8.89q4.32-3.34,11.21-3.34a23.33,23.33,0,0,1,13.05,4l-3.15,6.23a18.78,18.78,0,0,0-10.57-3.23,9.61,9.61,0,0,0-4.88,1.09,3.52,3.52,0,0,0-1.87,3.26,3,3,0,0,0,1.95,2.85,18.74,18.74,0,0,0,3.79,1.28c1.62.4,3.06.8,4.31,1.2s2.46.85,3.64,1.35a23.73,23.73,0,0,1,3.78,2.1Q366,133.1,366,138.8Z"/><path class="cls-3" d="M401.79,138.8a11.22,11.22,0,0,1-4.12,9.11,16.08,16.08,0,0,1-10.58,3.41,28.35,28.35,0,0,1-9-1.57,27.18,27.18,0,0,1-8.28-4.43l4.05-6.52q7,5.25,13.5,5.25a7,7,0,0,0,4.5-1.32,4.06,4.06,0,0,0,1.65-3.33q0-3-8-5.4a9.2,9.2,0,0,0-.9-.3q-12.45-3.37-12.45-11.25a10.66,10.66,0,0,1,4.31-8.89q4.31-3.34,11.21-3.34a23.33,23.33,0,0,1,13.05,4l-3.15,6.23A18.78,18.78,0,0,0,387,117.27a9.61,9.61,0,0,0-4.88,1.09,3.52,3.52,0,0,0-1.87,3.26,3,3,0,0,0,2,2.85,18.83,18.83,0,0,0,3.78,1.28q2.44.6,4.32,1.2T394,128.3a23.36,23.36,0,0,1,3.79,2.1Q401.79,133.1,401.79,138.8Z"/><path class="cls-3" d="M442.22,145.36a21.86,21.86,0,0,1-30,0,20.74,20.74,0,0,1,0-29.18,21.86,21.86,0,0,1,30,0,20.74,20.74,0,0,1,0,29.18Zm-24-5.18a13,13,0,0,0,18.07,0,14.19,14.19,0,0,0,0-18.82,13,13,0,0,0-18.07,0,14.22,14.22,0,0,0,0,18.82Z"/><path class="cls-3" d="M473.25,151.32a20.15,20.15,0,0,1-14.32-5.66q-6-5.67-6-14.81A19.24,19.24,0,0,1,459.19,116a21.74,21.74,0,0,1,15.26-5.74,20.74,20.74,0,0,1,15.23,6.23l-4.95,6.07q-5.19-4.5-10.43-4.5a13.12,13.12,0,0,0-9.11,3.49,11.54,11.54,0,0,0-3.86,9,13,13,0,0,0,13.23,13.16q5.6,0,10.54-5.1l4.95,5.4Q482.78,151.32,473.25,151.32Z"/><path class="cls-3" d="M496.45,102.87a5.24,5.24,0,1,1,3.75,1.58A5.12,5.12,0,0,1,496.45,102.87Zm7.88,47.85h-8.4v-39.9h8.4Z"/><path class="cls-3" d="M517.12,145.62q-5.62-5.7-5.62-15t5.77-14.85a19,19,0,0,1,13.65-5.55q7.88,0,13,7.5v-6.9h8.4v39.9h-8.4V144.2a15.94,15.94,0,0,1-6.11,5.28,16.67,16.67,0,0,1-7.47,1.84A18,18,0,0,1,517.12,145.62ZM519.9,131a12.5,12.5,0,0,0,3.67,9.34,11.94,11.94,0,0,0,8.63,3.6,11.16,11.16,0,0,0,8.4-3.64,13,13,0,0,0,3.45-9.34,13.68,13.68,0,0,0-3.45-9.52,11,11,0,0,0-8.48-3.83,11.43,11.43,0,0,0-8.62,3.83A13.39,13.39,0,0,0,519.9,131Z"/><path class="cls-3" d="M570.12,117.57v20.25a6.6,6.6,0,0,0,1.5,4.54,5.34,5.34,0,0,0,4.2,1.69,7.15,7.15,0,0,0,5.17-2.63l3.45,5.93a14.31,14.31,0,0,1-9.78,4,12.6,12.6,0,0,1-9.15-3.71q-3.79-3.72-3.79-10V98.3h8.4v12.52h10.5v6.75Z"/><path class="cls-3" d="M589.58,102.87a5.24,5.24,0,1,1,3.75,1.58A5.12,5.12,0,0,1,589.58,102.87Zm7.87,47.85h-8.39v-39.9h8.39Z"/><path class="cls-3" d="M640.41,145.36a21.86,21.86,0,0,1-30,0,20.74,20.74,0,0,1,0-29.18,21.86,21.86,0,0,1,30,0,20.74,20.74,0,0,1,0,29.18Zm-24-5.18a13,13,0,0,0,18.07,0,14.19,14.19,0,0,0,0-18.82,13,13,0,0,0-18.07,0,14.22,14.22,0,0,0,0,18.82Z"/><path class="cls-3" d="M662.09,129.12v21.6h-8.4v-39.9h8.4v7.28a15.66,15.66,0,0,1,24.19-3.75q4.15,4.13,4.16,11.92v24.45H682v-21.9q0-11-9.15-11a11,11,0,0,0-7.58,2.88Q662.09,123.57,662.09,129.12Z"/><path class="cls-3" d="M749.69,145.36a21.86,21.86,0,0,1-30,0,20.74,20.74,0,0,1,0-29.18,21.86,21.86,0,0,1,30,0,20.74,20.74,0,0,1,0,29.18Zm-24-5.18a13,13,0,0,0,18.07,0,14.19,14.19,0,0,0,0-18.82,13,13,0,0,0-18.07,0,14.22,14.22,0,0,0,0,18.82Z"/><path class="cls-3" d="M771.37,110.52v7h10.5v6.75h-10.5v26.4H763v-40q0-6.45,4-10.09A14.7,14.7,0,0,1,777.26,97a15.43,15.43,0,0,1,10.68,4l-3.45,6.75a9.12,9.12,0,0,0-6.89-2.93C773.44,104.82,771.37,106.72,771.37,110.52Z"/><path class="cls-3" d="M310.91,180.22a19,19,0,0,1,13.73,5.55q5.7,5.55,5.7,14.78t-5.66,15a17.94,17.94,0,0,1-13.2,5.77q-7.55,0-13.54-6.6v6h-8.4V165.07h8.4V187.8Q302.89,180.23,310.91,180.22Zm-13.12,20.63a13,13,0,0,0,3.45,9.33,11.13,11.13,0,0,0,8.4,3.64,11.92,11.92,0,0,0,8.62-3.6,12.5,12.5,0,0,0,3.68-9.34,13.27,13.27,0,0,0-3.6-9.52,11.48,11.48,0,0,0-8.63-3.79,11,11,0,0,0-8.47,3.79A13.55,13.55,0,0,0,297.79,200.85Z"/><path class="cls-3" d="M371.29,215.36a21.86,21.86,0,0,1-30,0,20.74,20.74,0,0,1,0-29.18,21.86,21.86,0,0,1,30,0,20.74,20.74,0,0,1,0,29.18Zm-24-5.18a13,13,0,0,0,18.08,0,14.22,14.22,0,0,0,0-18.82,13,13,0,0,0-18.08,0,14.22,14.22,0,0,0,0,18.82Z"/><path class="cls-3" d="M418,215.36a21.86,21.86,0,0,1-30,0,20.74,20.74,0,0,1,0-29.18,21.86,21.86,0,0,1,30,0,20.74,20.74,0,0,1,0,29.18Zm-24-5.18a13,13,0,0,0,18.08,0,14.22,14.22,0,0,0,0-18.82,13,13,0,0,0-18.08,0,14.22,14.22,0,0,0,0,18.82Z"/><path class="cls-3" d="M439.68,220.72h-8.4V165.07h8.4v32.7l16.2-17h10.8l-15.15,15.83,16.28,24.07H457.6l-11.84-17.47-6.08,6.15Z"/><path class="cls-3" d="M481,220.72h-8.4V165.07H481v32.7l16.2-17H508l-15.15,15.83,16.28,24.07h-10.2l-11.85-17.47L481,209.4Z"/><path class="cls-3" d="M530.1,180.22q8.17,0,13.57,4.54a14.91,14.91,0,0,1,5.48,11.81l.07.15L520.12,209a13,13,0,0,0,10.62,4.8,13.75,13.75,0,0,0,11.06-5.25l5,5.47a22.64,22.64,0,0,1-16.8,7.35,20.67,20.67,0,0,1-14.55-5.62q-6.07-5.62-6.08-14.85a20.12,20.12,0,0,1,3.15-11.22,19.61,19.61,0,0,1,7.8-7.12A21.93,21.93,0,0,1,530.1,180.22ZM517.42,201a9.38,9.38,0,0,0,.08,1.42l22.12-9.52q-2.55-5-9.07-5a13.7,13.7,0,0,0-9,3.45Q517.43,194.85,517.42,201Z"/><path class="cls-3" d="M574.27,180.22q8.18,0,13.57,4.54a14.91,14.91,0,0,1,5.48,11.81l.07.15L564.29,209a13,13,0,0,0,10.61,4.8A13.75,13.75,0,0,0,586,208.5l4.95,5.47a22.64,22.64,0,0,1-16.8,7.35,20.67,20.67,0,0,1-14.55-5.62q-6.08-5.62-6.08-14.85a20.12,20.12,0,0,1,3.15-11.22,19.61,19.61,0,0,1,7.8-7.12A21.93,21.93,0,0,1,574.27,180.22ZM561.59,201a9.38,9.38,0,0,0,.08,1.42l22.12-9.52q-2.55-5-9.07-5a13.68,13.68,0,0,0-9,3.45Q561.59,194.85,561.59,201Z"/><path class="cls-3" d="M621,180.22a19,19,0,0,1,13.72,5.55q5.7,5.55,5.7,14.78t-5.66,15a17.94,17.94,0,0,1-13.2,5.77q-7.55,0-13.54-6.6v20.55h-8.4V180.82H608v7Q613,180.23,621,180.22Zm-13.13,20.63a13,13,0,0,0,3.45,9.33,11.13,11.13,0,0,0,8.4,3.64,11.92,11.92,0,0,0,8.62-3.6,12.5,12.5,0,0,0,3.68-9.34,13.27,13.27,0,0,0-3.6-9.52,11.48,11.48,0,0,0-8.63-3.79,11,11,0,0,0-8.47,3.79A13.55,13.55,0,0,0,607.89,200.85Z"/><path class="cls-3" d="M666.16,180.22q8.18,0,13.58,4.54a14.9,14.9,0,0,1,5.47,11.81l.08.15L656.19,209a13,13,0,0,0,10.61,4.8,13.73,13.73,0,0,0,11.06-5.25l4.95,5.47A22.64,22.64,0,0,1,666,221.32a20.69,20.69,0,0,1-14.56-5.62q-6.08-5.62-6.07-14.85a20.12,20.12,0,0,1,3.15-11.22,19.61,19.61,0,0,1,7.8-7.12A21.89,21.89,0,0,1,666.16,180.22ZM653.49,201a9.71,9.71,0,0,0,.07,1.42l22.13-9.52q-2.55-5-9.08-5a13.66,13.66,0,0,0-9,3.45Q653.49,194.85,653.49,201Z"/><path class="cls-3" d="M712.46,188.7q-6.23,0-9.37,4.05t-3.15,10.87v17.1h-8.4v-39.9h8.4v8a17.33,17.33,0,0,1,5.51-6.15,13.28,13.28,0,0,1,7.39-2.48l.07,8.48Z"/><path class="cls-3" d="M747.31,208.8a11.23,11.23,0,0,1-4.13,9.11,16.06,16.06,0,0,1-10.58,3.41,28.25,28.25,0,0,1-9-1.57,27.12,27.12,0,0,1-8.29-4.43l4.05-6.52q7,5.25,13.5,5.25a7,7,0,0,0,4.5-1.32A4.06,4.06,0,0,0,739,209.4q0-3-8-5.4a9.2,9.2,0,0,0-.9-.3q-12.45-3.37-12.45-11.25a10.68,10.68,0,0,1,4.31-8.89c2.88-2.23,6.61-3.34,11.22-3.34a23.33,23.33,0,0,1,13,4.05l-3.16,6.23a18.78,18.78,0,0,0-10.57-3.23,9.57,9.57,0,0,0-4.87,1.09,3.53,3.53,0,0,0-1.88,3.26,3,3,0,0,0,2,2.85,18.74,18.74,0,0,0,3.79,1.28c1.62.4,3.06.8,4.31,1.2s2.46.85,3.64,1.35a23.79,23.79,0,0,1,3.79,2.1Q747.31,203.1,747.31,208.8Z"/></g></g></svg>