<svg xmlns="http://www.w3.org/2000/svg" xmlns:xlink="http://www.w3.org/1999/xlink" viewBox="0 0 600 750"><defs><style>.cls-1{fill:#40bdac;}.cls-2{fill:#fff;}.cls-12,.cls-3,.cls-7{opacity:0.58;}.cls-3{fill:url(#linear-gradient);}.cls-4{fill:#40bead;}.cls-5,.cls-8,.cls-9{fill:#f969a4;}.cls-5{opacity:0.2;}.cls-6{fill:#474747;}.cls-7{fill:url(#linear-gradient-2);}.cls-9{opacity:0.16;}.cls-10{opacity:0.25;}.cls-11{fill:none;}.cls-12{fill:url(#linear-gradient-3);}.cls-13{fill:#fabb22;}</style><linearGradient id="linear-gradient" x1="206.31" y1="519.73" x2="242.77" y2="696.81" gradientUnits="userSpaceOnUse"><stop offset="0" stop-color="#fcc74a"/><stop offset="1" stop-color="#fcc74a" stop-opacity="0"/></linearGradient><linearGradient id="linear-gradient-2" x1="283.65" y1="-7.24" x2="255.87" y2="240.67" xlink:href="#linear-gradient"/><linearGradient id="linear-gradient-3" x1="262.42" y1="612.33" x2="191.59" y2="735.24" xlink:href="#linear-gradient"/></defs><title>Make Up</title><g id="Layer_2" data-name="Layer 2"><g id="Layer_1-2" data-name="Layer 1"><rect class="cls-1" width="600" height="750"/><path class="cls-2" d="M305.84,542.16s8.84,109.05,115.26,147H61.28s101.15-66.38,101.15-132.76S305.84,542.16,305.84,542.16Z"/><path class="cls-3" d="M305.84,542.16s8.84,109.05,115.26,147H61.28s101.15-66.38,101.15-132.76S305.84,542.16,305.84,542.16Z"/><path class="cls-2" d="M374.52,438.74v-5.26a10.86,10.86,0,1,0,0-21.71h-2.63v-6.28h2.63a23.59,23.59,0,0,0,0-47.17v-5.26a28.84,28.84,0,0,1,9,56.23,16.11,16.11,0,0,1-9,29.45Z"/><path class="cls-2" d="M245.17,199.16v0h-1.94v0A132.11,132.11,0,0,0,113.06,331.25v99.52c0,31.69,6.12,62.13,28.23,84.82l38.82,39.85a90,90,0,0,0,64.44,27.18h0A90,90,0,0,0,309,555.44l38.82-39.85c22.11-22.69,27.54-53.13,27.54-84.82V331.25A132.12,132.12,0,0,0,245.17,199.16Z"/><path class="cls-4" d="M306,367a16.24,16.24,0,1,1-16.24,16.24A16.25,16.25,0,0,1,306,367m0-5.41a21.65,21.65,0,1,0,21.65,21.65A21.65,21.65,0,0,0,306,361.54Z"/><circle class="cls-4" cx="306.04" cy="383.19" r="9.62"/><path class="cls-5" d="M330.3,533.71,348,515.54c22.11-22.7,27.54-53.14,27.54-84.83V397.64c-5.5,2.33-45.25,20.54-45.25,60.84Z"/><path class="cls-6" d="M111.32,379.56V331.19A132.16,132.16,0,0,1,217.39,201.65,91.81,91.81,0,0,1,244,21.75c50.47.36,91.47,42,91.14,92.42a91.86,91.86,0,0,1-65.79,87.45A132.14,132.14,0,0,1,375.55,331.19v48.37L362.46,339A19.87,19.87,0,0,0,345,324.35h0a17.67,17.67,0,0,1-16.1-17.6v-14.9c0-.32,0-.65,0-1a19.72,19.72,0,0,0-19.83-18.63H174a18.44,18.44,0,0,0-18.45,18.44v14.95A28.17,28.17,0,0,1,139,331.28l-15.82,7.18"/><path class="cls-7" d="M111.32,379.56V331.19A132.16,132.16,0,0,1,217.39,201.65,91.81,91.81,0,0,1,244,21.75c50.47.36,91.47,42,91.14,92.42a91.86,91.86,0,0,1-65.79,87.45A132.14,132.14,0,0,1,375.55,331.19v48.37L362.46,339A19.87,19.87,0,0,0,345,324.35h0a17.67,17.67,0,0,1-16.1-17.6v-14.9c0-.32,0-.65,0-1a19.72,19.72,0,0,0-19.83-18.63H174a18.44,18.44,0,0,0-18.45,18.44v14.95A28.17,28.17,0,0,1,139,331.28l-15.82,7.18"/><path class="cls-4" d="M253.92,461.54H229.38c-8.66,0-15.7-7.37-15.7-16.43a16.44,16.44,0,0,1,10.5-15.49l2.33-47.25a1.46,1.46,0,0,1,2.91.14L227,431.79l-1,.29a13.45,13.45,0,0,0-9.4,13c0,7.45,5.74,13.52,12.79,13.52h24.54c7.06,0,12.79-6.07,12.79-13.52a13.46,13.46,0,0,0-9.39-13l-1-.29-2.5-50.57a1.46,1.46,0,0,1,2.91-.14l2.4,48.54a16.44,16.44,0,0,1,10.5,15.49C269.63,454.17,262.58,461.54,253.92,461.54Z"/><path class="cls-8" d="M203.9,507.89a50,50,0,0,0,79.76,0Z"/><path class="cls-8" d="M284,498.12a27,27,0,0,0-47.41,0Z"/><path class="cls-8" d="M251,498.12a27.07,27.07,0,0,0-44.44-4.38,2.67,2.67,0,0,0,2,4.38Z"/><path class="cls-9" d="M224.71,543.78h38.15a20.58,20.58,0,0,0-38.15,0Z"/><rect class="cls-8" x="274.45" y="391.26" width="11.27" height="0.72" transform="translate(-107.34 105.76) rotate(-18.01)"/><rect class="cls-8" x="278.33" y="398.87" width="11.27" height="0.72" transform="translate(-180.46 243.25) rotate(-36.01)"/><rect class="cls-8" x="284.36" y="404.91" width="11.27" height="0.72" transform="translate(-208.32 401.67) rotate(-54)"/><rect class="cls-8" x="291.97" y="408.78" width="11.27" height="0.72" transform="translate(-183.49 565.7) rotate(-71.99)"/><rect class="cls-8" x="305.68" y="404.84" width="0.71" height="11.27"/><rect class="cls-8" x="314.11" y="403.5" width="0.72" height="11.27" transform="translate(-111.04 117.2) rotate(-18)"/><rect class="cls-8" x="321.72" y="399.63" width="0.72" height="11.27" transform="translate(-176.69 266.7) rotate(-36)"/><rect class="cls-8" x="327.76" y="393.59" width="0.72" height="11.27" transform="translate(-187.73 430.02) rotate(-54)"/><rect class="cls-8" x="331.63" y="385.98" width="0.72" height="11.27" transform="translate(-143.05 586.34) rotate(-72)"/><path class="cls-4" d="M177.61,367a16.24,16.24,0,1,1-16.24,16.24A16.26,16.26,0,0,1,177.61,367m0-5.41a21.65,21.65,0,1,0,21.65,21.65,21.65,21.65,0,0,0-21.65-21.65Z"/><circle class="cls-4" cx="177.61" cy="383.19" r="9.62"/><circle class="cls-8" cx="380.66" cy="471.66" r="13.16"/><circle class="cls-8" cx="380.66" cy="495.45" r="7.29"/><circle class="cls-8" cx="380.66" cy="513.55" r="5.15"/><path class="cls-8" d="M380.66,473.4a1.73,1.73,0,0,1-1.73-1.74V426.75a1.74,1.74,0,0,1,3.47,0v44.91A1.74,1.74,0,0,1,380.66,473.4Z"/><rect class="cls-6" x="285.18" y="409.66" width="53.61" height="12.42"/><rect class="cls-6" x="285.18" y="413.7" width="161.56" height="4.34"/><rect class="cls-6" x="287.47" y="403.1" width="1.96" height="25.53"/><rect class="cls-6" x="292.92" y="403.1" width="1.96" height="25.53"/><rect class="cls-6" x="299.02" y="403.1" width="1.96" height="25.53"/><rect class="cls-6" x="304.47" y="403.1" width="1.96" height="25.53"/><rect class="cls-6" x="309.92" y="403.1" width="1.96" height="25.53"/><rect class="cls-6" x="315.36" y="403.1" width="1.96" height="25.53"/><rect class="cls-6" x="321.46" y="403.1" width="1.96" height="25.53"/><rect class="cls-6" x="326.91" y="403.1" width="1.96" height="25.53"/><rect class="cls-8" x="287.47" y="403.1" width="1.96" height="9.61"/><rect class="cls-8" x="292.92" y="405.73" width="1.96" height="10.13"/><rect class="cls-8" x="299.02" y="403.1" width="1.96" height="9.61"/><rect class="cls-8" x="304.47" y="403.1" width="1.96" height="10.6"/><rect class="cls-8" x="309.92" y="403.1" width="1.96" height="12.77"/><rect class="cls-8" x="315.36" y="407.9" width="1.96" height="7.96"/><rect class="cls-8" x="321.46" y="403.1" width="1.96" height="12.77"/><rect class="cls-8" x="326.91" y="403.1" width="1.96" height="8.78"/><rect class="cls-8" x="287.47" y="415.87" width="1.96" height="9.61"/><rect class="cls-8" x="292.92" y="415.87" width="1.96" height="12.77"/><rect class="cls-8" x="299.02" y="418.03" width="1.96" height="7.44"/><rect class="cls-8" x="304.47" y="415.87" width="1.96" height="10.6"/><rect class="cls-8" x="309.92" y="415.87" width="1.96" height="12.77"/><rect class="cls-8" x="315.36" y="420.67" width="1.96" height="7.96"/><rect class="cls-8" x="321.46" y="415.87" width="1.96" height="8.78"/><rect class="cls-8" x="326.91" y="415.87" width="1.96" height="12.77"/><path class="cls-6" d="M404.18,403.1h56.49a7.58,7.58,0,0,1,7.58,7.58v10.37a7.58,7.58,0,0,1-7.58,7.58H404.18a0,0,0,0,1,0,0V403.1A0,0,0,0,1,404.18,403.1Z"/><path class="cls-2" d="M260.7,515.17H225.5a1.35,1.35,0,0,1,0-2.69h35.2a1.35,1.35,0,0,1,0,2.69Z"/><path class="cls-6" d="M335.52,356a37.5,37.5,0,0,0-13.73-8.8,36.83,36.83,0,0,0-16-2.09,36.24,36.24,0,0,0-26.64,15.53,5,5,0,1,1-8.17-5.61,2.43,2.43,0,0,1,.14-.2l0,0a45.62,45.62,0,0,1,15.17-12.74,44.76,44.76,0,0,1,38.08-1.52,44.07,44.07,0,0,1,15.63,11.18,3.12,3.12,0,0,1-4.54,4.29Z"/><path class="cls-6" d="M206.37,370.28a36.53,36.53,0,0,0-26.31-16.58A37.06,37.06,0,0,0,164,355.24a37.57,37.57,0,0,0-14,8.34h0a3.13,3.13,0,0,1-4.37-4.47,44.44,44.44,0,0,1,53.9-7.18,45.18,45.18,0,0,1,14.45,13.31v0a4.53,4.53,0,1,1-7.44,5.17Z"/><rect class="cls-4" x="145.76" y="372.25" width="21.36" height="5.41" transform="translate(-188.48 160.26) rotate(-35.45)"/><rect class="cls-4" x="322.85" y="363.21" width="5.41" height="21.36" transform="translate(-167.84 422.23) rotate(-54.55)"/><path class="cls-2" d="M476.1,491.94a49.37,49.37,0,0,1-49.31-49.31,14.24,14.24,0,1,1,28.47,0,20.84,20.84,0,1,0,41.68,0,14.24,14.24,0,1,1,28.47,0A49.37,49.37,0,0,1,476.1,491.94Z"/><path class="cls-2" d="M522.08,439.83a10.3,10.3,0,0,1-4.52-1,10.42,10.42,0,0,1-4.85-13.91A33.26,33.26,0,0,0,452.81,396a10.42,10.42,0,1,1-18.76-9.06,54.09,54.09,0,0,1,97.42,47.05A10.43,10.43,0,0,1,522.08,439.83Z"/><path class="cls-2" d="M497.77,439.86a10.42,10.42,0,0,1-6.1-18.87,33.26,33.26,0,1,0-38.84-54,10.42,10.42,0,1,1-12.17-16.91,54.09,54.09,0,1,1,63.18,87.82A10.33,10.33,0,0,1,497.77,439.86Z"/><path class="cls-2" d="M509.49,370.36a10.43,10.43,0,0,1-10.31-9,33.25,33.25,0,0,0-37.42-28.5A10.41,10.41,0,1,1,459,312.19a54.09,54.09,0,0,1,60.86,46.35,10.42,10.42,0,0,1-8.93,11.72A11.14,11.14,0,0,1,509.49,370.36Z"/><g class="cls-10"><path class="cls-2" d="M119,394.41l278.24-251a205.47,205.47,0,0,0-22.79-14L115.82,362.71Q116.66,378.4,119,394.41Z"/><path class="cls-2" d="M253.74,309.16l17.2,19L436.67,178.7a251.33,251.33,0,0,0-18.13-18.21Z"/><path class="cls-2" d="M284.79,622.22,514.92,414.61a333.63,333.63,0,0,0-.15-41.81L253.43,608.56A183.24,183.24,0,0,0,284.79,622.22Z"/></g><path class="cls-8" d="M441,375.8h0a5.91,5.91,0,0,1,2.07,8.56l-8.52,12.4a3.74,3.74,0,0,1-5.34.87h0a3.75,3.75,0,0,1-.73-5.25Z"/><path class="cls-8" d="M451.91,343.51h0a5.79,5.79,0,0,1-1.82,8.43l-12.8,7.28a3.66,3.66,0,0,1-5.08-1.51h0a3.67,3.67,0,0,1,1.6-4.94Z"/><path class="cls-8" d="M466.68,311.65h0a5.79,5.79,0,0,1-5.18,6.9l-9.51.58a3.67,3.67,0,0,1-4-3.5h0a3.67,3.67,0,0,1,3.51-3.82Z"/><path class="cls-8" d="M428.62,456.54h0a7.71,7.71,0,0,0,7.24-8.91l-2.33-14.8a4.87,4.87,0,0,0-5.8-4h0a4.87,4.87,0,0,0-3.8,5.76Z"/><path class="cls-1" d="M5.13,8.91V711h565.6V8.91ZM309.52,633.25c-109.28,0-197.86-117.37-197.86-262.14S200.24,109,309.52,109,507.37,226.34,507.37,371.11,418.79,633.25,309.52,633.25Z"/><path class="cls-11" d="M433.38,543.73c34.75-46.05,53.89-107.58,53.89-173.26s-19.14-127.21-53.89-173.26c-33.49-44.36-77.48-68.79-123.88-68.79s-90.39,24.43-123.88,68.79c-34.75,46-53.89,107.58-53.89,173.26s19.14,127.21,53.89,173.26c24.16,32,53.78,53.63,85.83,63.2l4-1.86a10,10,0,0,1,12.76,4h0a10.55,10.55,0,0,1,.84,1.85,132.51,132.51,0,0,0,20.42,1.6C355.9,612.52,399.89,588.09,433.38,543.73Z"/><path class="cls-2" d="M270.27,683.36l-87.7,38.41a34.34,34.34,0,0,1-45.24-17.68h0a34.23,34.23,0,0,1-1.82-22.24l-.36,0L115.5,750H270.27Z"/><path class="cls-12" d="M270.27,683.36l-87.7,38.41a34.34,34.34,0,0,1-45.24-17.68h0a34.23,34.23,0,0,1-1.82-22.24l-.36,0L115.5,750H270.27Z"/><path class="cls-13" d="M299.45,652.39a34.4,34.4,0,0,1-9.69,19.81L286,750h4.76a20.19,20.19,0,0,1,11.08-12.87,29.54,29.54,0,0,1,23.23-11.27h23.66v-7.1H325.07a29.56,29.56,0,0,1-23-11,20.16,20.16,0,0,1-12-18.45h0a20.15,20.15,0,0,1,11.63-18.26,29.56,29.56,0,0,1,23.44-11.52h23.66V648.18a172,172,0,0,1-39.23,4.51Q304.46,652.69,299.45,652.39Z"/><path class="cls-13" d="M289.76,672.2a34.11,34.11,0,0,1-10.6,7.27l-8.89,3.89V750H286Z"/><path class="cls-13" d="M228.49,626.67l16-7.36q-6.33-2.89-12.54-6.37c-23.69-13.27-45-32.27-63.22-56.46-37.51-49.7-58.17-115.76-58.17-186s20.66-136.31,58.17-186C187,160.27,208.27,141.27,232,128c24.56-13.76,50.64-20.73,77.54-20.73s53,7,77.54,20.73c23.69,13.28,45,32.28,63.22,56.47,37.51,49.7,58.17,115.76,58.17,186s-20.66,136.31-58.17,186C432,580.67,410.73,599.67,387,612.94a163.65,163.65,0,0,1-38.31,15.64v19.6a181.75,181.75,0,0,0,47.6-18.66c26-14.56,49.25-35.29,69.1-61.59,40-53,62-123.1,62-197.46s-22-144.48-62-197.46c-19.85-26.3-43.1-47-69.1-61.6C368.9,96.05,339.69,88.25,309.5,88.25s-59.4,7.8-86.83,23.16c-26,14.57-49.25,35.3-69.1,61.6-40,53-62,123.1-62,197.46s22,144.48,62,197.46c19.77,26.2,42.92,46.86,68.8,61.42l6.12-2.68Z"/><path class="cls-13" d="M185.62,543.73c-34.75-46.05-53.89-107.58-53.89-173.26s19.14-127.21,53.89-173.26c33.49-44.36,77.48-68.79,123.88-68.79s90.39,24.43,123.88,68.79c34.75,46,53.89,107.58,53.89,173.26s-19.14,127.21-53.89,173.26c-33.49,44.36-77.48,68.79-123.88,68.79a132.51,132.51,0,0,1-20.42-1.6,10,10,0,0,1-2.33,10.2l.46.37h61.52v4.88c37.55-10,72.09-34.45,99.82-71.19,37.23-49.33,57.73-114.92,57.73-184.71s-20.5-135.38-57.73-184.71-86.55-76.35-139-76.35-101.88,27.12-139,76.35-57.73,114.92-57.73,184.71,20.51,135.38,57.73,184.71c21.91,29,48.05,50.34,76.58,63l24.42-11.22C239.4,597.36,209.78,575.73,185.62,543.73Z"/><path class="cls-13" d="M309.5,633.68q-6.62,0-13.18-.57c.18.37.36.74.53,1.12h0a34.16,34.16,0,0,1,2.6,18.16q5,.3,10.05.3a172,172,0,0,0,39.23-4.51v-19.6A153,153,0,0,1,309.5,633.68Z"/><path class="cls-13" d="M287.21,621.49a33.93,33.93,0,0,1,7.92,9.36q7.14.67,14.37.68a151.8,151.8,0,0,0,39.23-5.16v-4.88Z"/><path class="cls-2" d="M170.45,555.18c-37.22-49.33-57.73-114.92-57.73-184.71s20.51-135.38,57.73-184.71S257,109.41,309.5,109.41s101.88,27.12,139.05,76.35,57.73,114.92,57.73,184.71-20.5,135.38-57.73,184.71c-27.73,36.74-62.27,61.16-99.82,71.19v2.21A163.65,163.65,0,0,0,387,612.94c23.69-13.27,45-32.27,63.22-56.46,37.51-49.7,58.17-115.76,58.17-186s-20.66-136.31-58.17-186C432,160.27,410.73,141.27,387,128c-24.55-13.76-50.64-20.73-77.54-20.73s-53,7-77.54,20.73c-23.69,13.28-45,32.28-63.22,56.47-37.51,49.7-58.17,115.76-58.17,186s20.66,136.31,58.17,186C187,580.67,208.27,599.67,232,612.94q6.21,3.48,12.54,6.37l2.53-1.16C218.5,605.52,192.36,584.19,170.45,555.18Z"/><path class="cls-2" d="M309.5,631.53q-7.23,0-14.37-.68c.43.73.82,1.49,1.19,2.26q6.56.57,13.18.57a153,153,0,0,0,39.23-5.1v-2.21A151.8,151.8,0,0,1,309.5,631.53Z"/><path class="cls-2" d="M375.8,718.76a29.62,29.62,0,0,0,29.62-29.62h0a29.62,29.62,0,0,0-29.62-29.61H348.73v59.23Z"/><path class="cls-2" d="M301.63,671.05a20.09,20.09,0,0,1,8.52-1.89h28.64v40.3H310.15a20.1,20.1,0,0,1-8.11-1.7,29.56,29.56,0,0,0,23,11h23.66V659.53H325.07A29.56,29.56,0,0,0,301.63,671.05Z"/><path class="cls-8" d="M295.46,689.14a29.46,29.46,0,0,1,6.17-18.09A20.15,20.15,0,0,0,290,689.31h0a20.16,20.16,0,0,0,12,18.45,29.47,29.47,0,0,1-6.58-18.62Z"/><path class="cls-8" d="M338.79,709.46v-40.3H310.15a20.09,20.09,0,0,0-8.52,1.89,29.46,29.46,0,0,0-6.17,18.09h0A29.47,29.47,0,0,0,302,707.76a20.1,20.1,0,0,0,8.11,1.7Z"/><path class="cls-2" d="M404.9,750a29.62,29.62,0,0,0-29.1-24.14H348.73V750Z"/><path class="cls-2" d="M301.84,737.13a20.06,20.06,0,0,1,8.31-1.8h28.64V750h9.94V725.86H325.07A29.54,29.54,0,0,0,301.84,737.13Z"/><path class="cls-8" d="M301.84,737.13A20.19,20.19,0,0,0,290.76,750H296A29.4,29.4,0,0,1,301.84,737.13Z"/><path class="cls-8" d="M338.79,750V735.33H310.15a20.06,20.06,0,0,0-8.31,1.8A29.4,29.4,0,0,0,296,750Z"/><path class="cls-2" d="M270.27,648.18a181.75,181.75,0,0,1-47.6-18.66l-.3-.17L155,658.85a34.32,34.32,0,0,0-19.5,23l134.76-12.79Z"/><path class="cls-2" d="M137.33,704.09h0a34.34,34.34,0,0,0,45.24,17.68l87.7-38.41v-14.3L135.51,681.85A34.23,34.23,0,0,0,137.33,704.09Z"/><path class="cls-2" d="M289.76,672.2a34.4,34.4,0,0,0,9.69-19.81,171.9,171.9,0,0,1-29.18-4.21v20.88L290,667.18Z"/><path class="cls-2" d="M289.76,672.2l.24-5-19.73,1.88v14.3l8.89-3.89A34.11,34.11,0,0,0,289.76,672.2Z"/><path class="cls-2" d="M270.27,648.18V629.26l-16,7.16a19.57,19.57,0,0,1-25.81-9.75l-6.12,2.68.3.17A181.75,181.75,0,0,0,270.27,648.18Z"/><path class="cls-2" d="M286.75,621.12l-.37.37h.83Z"/><path class="cls-2" d="M287.21,621.49h-.83a9.82,9.82,0,0,1-2.66,1.75l-9.31,4.17a152.82,152.82,0,0,0,20.72,3.44A33.93,33.93,0,0,0,287.21,621.49Z"/><path class="cls-2" d="M296.85,634.23h0c-.17-.38-.35-.75-.53-1.12a152,152,0,0,1-25.09-4.28l-1,.43v18.92a171.9,171.9,0,0,0,29.18,4.21A34.16,34.16,0,0,0,296.85,634.23Z"/><path class="cls-2" d="M274.41,627.41l-3.18,1.42a152,152,0,0,0,25.09,4.28c-.37-.77-.76-1.53-1.19-2.26A152.82,152.82,0,0,1,274.41,627.41Z"/><path class="cls-8" d="M288.24,609.07a10,10,0,0,0-12.76-4l-4,1.86a134.78,134.78,0,0,0,17.63,4,10.55,10.55,0,0,0-.84-1.85Z"/><path class="cls-8" d="M244.5,619.31l-16,7.36h0l16.39-7.18Z"/><path class="cls-8" d="M286.75,621.12a10,10,0,0,0,2.33-10.2,134.78,134.78,0,0,1-17.63-4L247,618.15l.45.2,4.13-1.8A34.3,34.3,0,0,1,286.75,621.12Z"/><path class="cls-8" d="M247.48,618.35l-.45-.2-2.53,1.16.38.18Z"/><path class="cls-8" d="M244.88,619.49l-16.39,7.18a19.57,19.57,0,0,0,25.81,9.75l16-7.16v-.68A160.19,160.19,0,0,1,244.88,619.49Z"/><path class="cls-8" d="M270.27,621.49h16.11l.37-.37a34.3,34.3,0,0,0-35.14-4.57l-4.13,1.8a159.07,159.07,0,0,0,22.79,8Z"/><path class="cls-8" d="M286.38,621.49H270.27v4.88c1.38.36,2.76.71,4.14,1l9.31-4.17A9.82,9.82,0,0,0,286.38,621.49Z"/><path class="cls-8" d="M270.27,628.58v.68l1-.43Z"/><path class="cls-8" d="M247.48,618.35l-2.6,1.14a160.19,160.19,0,0,0,25.39,9.09v-2.21A159.07,159.07,0,0,1,247.48,618.35Z"/><path class="cls-8" d="M270.27,626.37v2.21l1,.25,3.18-1.42C273,627.08,271.65,626.73,270.27,626.37Z"/></g></g></svg>