<svg xmlns="http://www.w3.org/2000/svg" xmlns:xlink="http://www.w3.org/1999/xlink" viewBox="0 0 805 869.75"><defs><style>.cls-1{isolation:isolate;}.cls-15,.cls-2{fill:#fff;}.cls-3{fill:url(#linear-gradient);}.cls-4{fill:#a3cbcc;}.cls-5{opacity:0.41;}.cls-6{fill:url(#linear-gradient-2);}.cls-7{fill:#1d1d1b;}.cls-13,.cls-8{fill:#474747;}.cls-17,.cls-18,.cls-9{mix-blend-mode:multiply;}.cls-9{fill:url(#linear-gradient-3);}.cls-10{fill:#f1f7f7;}.cls-11{opacity:0.35;}.cls-12{fill:#f969a4;}.cls-13{opacity:0.24;}.cls-14{fill:#f0468a;}.cls-15{opacity:0.4;}.cls-16{fill:#ee2375;}.cls-17{fill:url(#linear-gradient-4);}.cls-19{fill:url(#radial-gradient);}</style><linearGradient id="linear-gradient" x1="376.17" y1="188.87" x2="376.17" y2="555.45" gradientUnits="userSpaceOnUse"><stop offset="0" stop-color="#40bead"/><stop offset="1" stop-color="#40bead" stop-opacity="0"/></linearGradient><linearGradient id="linear-gradient-2" x1="376.65" y1="340.58" x2="376.65" y2="49.59" gradientUnits="userSpaceOnUse"><stop offset="0" stop-color="#474747"/><stop offset="1" stop-color="#474747" stop-opacity="0"/></linearGradient><linearGradient id="linear-gradient-3" x1="200.43" y1="425.57" x2="534.13" y2="676.35" gradientUnits="userSpaceOnUse"><stop offset="0" stop-color="#a3cbcc"/><stop offset="1" stop-color="#a3cbcc" stop-opacity="0"/></linearGradient><linearGradient id="linear-gradient-4" x1="529.34" y1="612.63" x2="667.83" y2="757.49" gradientUnits="userSpaceOnUse"><stop offset="0" stop-color="#ee2375"/><stop offset="1" stop-color="#ee2375" stop-opacity="0"/></linearGradient><radialGradient id="radial-gradient" cx="538.18" cy="624.45" r="47.33" xlink:href="#linear-gradient-4"/></defs><title>man</title><g class="cls-1"><g id="Layer_1" data-name="Layer 1"><g id="man"><path class="cls-2" d="M283.1,252.58V540.16c0,55.17,41.67,96.83,93.07,96.83s93.06-41.66,93.06-96.83V252.58Z"/><path class="cls-3" d="M283.1,252.58V540.16c0,55.17,41.67,96.83,93.07,96.83s93.06-41.66,93.06-96.83V252.58Z"/><path class="cls-2" d="M249,290.54V127.7A127.7,127.7,0,0,1,376.65,0h0a127.7,127.7,0,0,1,127.7,127.7V290.54l-90,95H339.74Z"/><path class="cls-4" d="M435.09,155.59c10.65,0,19.32,8.26,19.32,18.41s-8.67,18.41-19.32,18.41-19.32-8.26-19.32-18.41,8.67-18.41,19.32-18.41m0-5.87c-13.91,0-25.19,10.87-25.19,24.28s11.28,24.28,25.19,24.28,25.19-10.87,25.19-24.28S449,149.72,435.09,149.72Z"/><path class="cls-4" d="M435.09,165.33a8.68,8.68,0,1,1-9,8.67,8.87,8.87,0,0,1,9-8.67m0-1.17A9.85,9.85,0,1,0,445.3,174a10,10,0,0,0-10.21-9.84Z"/><path class="cls-4" d="M315.53,155.59c10.65,0,19.32,8.26,19.32,18.41s-8.67,18.41-19.32,18.41-19.32-8.26-19.32-18.41,8.67-18.41,19.32-18.41m0-5.87c-13.91,0-25.19,10.87-25.19,24.28s11.28,24.28,25.19,24.28,25.19-10.87,25.19-24.28-11.28-24.28-25.19-24.28Z"/><path class="cls-4" d="M315.53,165.33a8.68,8.68,0,1,1-9,8.67,8.87,8.87,0,0,1,9-8.67m0-1.17A9.85,9.85,0,1,0,325.74,174a10,10,0,0,0-10.21-9.84Z"/><g class="cls-5"><rect class="cls-4" x="358.62" y="165.9" width="36.06" height="100.03"/></g><path class="cls-4" d="M376.65,0A127.7,127.7,0,0,0,249,127.7v98.59h12.78V142.41c0-19.93,18.83-22.14,18.83-22.14v-36l190.86-14v50s18.84,2.21,18.84,22.14v83.88h14.09V127.7A127.7,127.7,0,0,0,376.65,0Z"/><path class="cls-6" d="M376.65,0A127.7,127.7,0,0,0,249,127.7v98.59h12.78V142.41c0-19.93,18.83-22.14,18.83-22.14v-36l190.86-14v50s18.84,2.21,18.84,22.14v83.88h14.09V127.7A127.7,127.7,0,0,0,376.65,0Z"/><line class="cls-4" x1="262.16" y1="165.9" x2="490.26" y2="165.9"/><rect class="cls-4" x="262.16" y="163.39" width="228.1" height="5.02"/><g class="cls-5"><path class="cls-4" d="M398.64,265.94H353.69a11.61,11.61,0,0,1-11.61-11.61V240.24h68.17v14.09A11.61,11.61,0,0,1,398.64,265.94Z"/></g><path class="cls-7" d="M399.85,264.68a4.64,4.64,0,1,1-4.64-4.64A4.64,4.64,0,0,1,399.85,264.68Z"/><path class="cls-7" d="M361.77,264.68a4.64,4.64,0,1,1-4.64-4.64A4.64,4.64,0,0,1,361.77,264.68Z"/><path class="cls-4" d="M396.89,335.24a2,2,0,0,1-2,2h-34a2,2,0,0,1-2-2h0a2,2,0,0,1,2-2h34a2,2,0,0,1,2,2Z"/><g class="cls-5"><g class="cls-5"><path class="cls-4" d="M457.31,257.46l.24,82.46,34.18-36.07,12.14-13.31-.24-50.14-29-.16A17.22,17.22,0,0,0,457.31,257.46Z"/></g><g class="cls-5"><path class="cls-4" d="M277.58,240.4H248.71l.24,50.14L295,338.78l-.24-81.16A17.22,17.22,0,0,0,277.58,240.4Z"/></g></g><path class="cls-2" d="M509.53,246.75v-3.52a9.81,9.81,0,1,0,0-19.62h-1.76v-4.4h1.76a20.72,20.72,0,1,0,0-41.44v-3.53a24.25,24.25,0,0,1,6.58,47.59,13.33,13.33,0,0,1-6.58,24.92Z"/><path class="cls-2" d="M243.77,246.75a13.33,13.33,0,0,1-6.58-24.92,24.25,24.25,0,0,1,6.58-47.59v3.53a20.72,20.72,0,1,0,0,41.44h1.76v4.4h-1.76a9.81,9.81,0,1,0,0,19.62Z"/><polygon class="cls-8" points="358.14 165.22 278.25 165.22 278.25 151.74 358.14 143.63 358.14 165.22"/><polygon class="cls-8" points="474.09 165.22 394.2 165.22 394.2 143.63 474.09 151.66 474.09 165.22"/><path class="cls-8" d="M518.65,246.3a5.9,5.9,0,1,1,5.89-5.9A5.9,5.9,0,0,1,518.65,246.3Zm0-9.44a3.55,3.55,0,1,0,3.54,3.54A3.55,3.55,0,0,0,518.65,236.86Z"/><path class="cls-2" d="M321.64,290.65c13.73,19.25,33.29,31.31,55,31.31s41.27-12.06,55-31.31Z"/><path class="cls-4" d="M424.48,294.17a72.86,72.86,0,0,1-19.11,16.31,55.81,55.81,0,0,1-57.45,0,72.82,72.82,0,0,1-19.1-16.31h95.66m7.17-3.52h-110c13.73,19.25,33.29,31.31,55,31.31s41.27-12.06,55-31.31Z"/><rect class="cls-4" x="346.23" y="310.34" width="60.84" height="2.06"/><path class="cls-2" d="M324,81.7l3.52-.34V9.81c-1.18.49-2.36,1-3.52,1.52Z"/><path class="cls-4" d="M407.07,469.16l-21.19,122.9-7.95,234.49H748.51l-33.8-226.3a155,155,0,0,0-83.17-115.32l-162.31-82.3Z"/><path class="cls-9" d="M407.07,469.16,386,588.58l-8.07,238H748.51l-33.8-226.3a155,155,0,0,0-83.17-115.32l-162.31-82.3Z"/><path class="cls-4" d="M390.57,750V598L362.82,465.38,283.1,401.92,127,481.14A166.62,166.62,0,0,0,38.09,601.87L0,826.55H390.57Z"/><polygon class="cls-10" points="359.96 846.69 357.96 846.69 357.96 597.78 333.16 465.56 335.13 465.19 359.96 597.6 359.96 846.69"/><g class="cls-11"><path class="cls-2" d="M667.39,510.07l-.5-.47V826.55h.5Z"/><polygon class="cls-2" points="616.12 477.11 615.62 476.86 615.62 826.55 616.12 826.55 616.12 477.11"/><path class="cls-2" d="M641.24,826.55h.5V490.61l-.5-.3Z"/><path class="cls-2" d="M692.51,826.55h.5V541.28l-.5-.82Z"/><polygon class="cls-2" points="589.09 463.4 588.59 463.15 588.59 826.55 589.09 826.55 589.09 463.4"/><polygon class="cls-2" points="719.54 826.55 720.04 826.55 720.04 635.93 719.54 632.58 719.54 826.55"/><polygon class="cls-2" points="745.66 807.47 745.16 804.12 745.16 826.55 745.66 826.55 745.66 807.47"/><polygon class="cls-2" points="563.47 450.41 562.97 450.16 562.97 826.55 563.47 826.55 563.47 450.41"/><polygon class="cls-2" points="461.53 411.99 461.03 412.6 461.03 826.55 461.53 826.55 461.53 411.99"/><polygon class="cls-2" points="410.46 826.55 410.96 826.55 410.96 464.43 410.46 465.03 410.46 826.55"/><polygon class="cls-2" points="436.58 442.3 436.08 442.91 436.08 826.55 436.58 826.55 436.58 442.3"/><polygon class="cls-2" points="486.65 826.55 487.15 826.55 487.15 411.71 486.65 411.46 486.65 826.55"/><polygon class="cls-2" points="514.18 425.42 513.68 425.17 513.68 826.55 514.18 826.55 514.18 425.42"/><polygon class="cls-2" points="539.8 438.41 539.3 438.16 539.3 826.55 539.8 826.55 539.8 438.41"/><polygon class="cls-2" points="383.43 826.55 383.93 826.55 383.93 566.24 383.43 563.86 383.43 826.55"/><polygon class="cls-2" points="358.31 461.79 357.81 461.39 357.81 826.55 358.31 826.55 358.31 461.79"/><polygon class="cls-2" points="27.81 662.53 27.31 665.48 27.31 826.55 27.81 826.55 27.81 662.53"/><polygon class="cls-2" points="256.38 415.48 255.88 415.74 255.88 826.55 256.38 826.55 256.38 415.48"/><polygon class="cls-2" points="232.77 427.46 232.27 427.71 232.27 826.55 232.77 826.55 232.77 427.46"/><polygon class="cls-2" points="207.16 440.46 206.66 440.71 206.66 826.55 207.16 826.55 207.16 440.46"/><path class="cls-2" d="M104.72,826.55h.5V494.37l-.5.37Z"/><polygon class="cls-2" points="308.52 826.55 309.02 826.55 309.02 422.56 308.52 422.16 308.52 826.55"/><polygon class="cls-2" points="334.64 442.95 334.14 442.55 334.14 826.55 334.64 826.55 334.64 442.95"/><polygon class="cls-2" points="281.99 402.49 281.49 402.74 281.49 826.55 281.99 826.55 281.99 402.49"/><polygon class="cls-2" points="180.12 454.17 179.62 454.43 179.62 826.55 180.12 826.55 180.12 454.17"/><path class="cls-2" d="M78.19,518.66c-.17.18-.34.36-.5.55V826.55h.5Z"/><polygon class="cls-2" points="1.69 826.55 2.19 826.55 2.19 813.63 1.69 816.58 1.69 826.55"/><path class="cls-2" d="M52.07,826.55h.5V556.8c-.17.35-.34.7-.5,1.05Z"/><polygon class="cls-2" points="130.34 826.55 130.84 826.55 130.84 479.18 130.34 479.43 130.34 826.55"/><polygon class="cls-2" points="154.51 467.17 154.01 467.42 154.01 826.55 154.51 826.55 154.51 467.17"/></g><polygon class="cls-12" points="283.1 379.2 362.82 465.38 310.76 511.26 258.7 414.3 283.1 379.2"/><polygon class="cls-12" points="407.07 469.16 459.29 518.17 499.49 417.97 469.23 379.2 407.07 469.16"/><rect class="cls-2" x="94.49" y="753.45" width="142.86" height="3.52" transform="translate(-596.48 884.09) rotate(-87.2)"/><rect class="cls-2" x="590.62" y="683.78" width="3.52" height="142.86" transform="translate(-36.3 29.94) rotate(-2.81)"/><polygon class="cls-2" points="391.57 841.95 389.57 841.95 389.57 598 385.01 558.88 387 558.65 391.57 597.95 391.57 841.95"/><rect class="cls-10" x="354.05" y="549.05" width="19.51" height="2" transform="translate(-146.68 132.54) rotate(-17.24)"/><path class="cls-13" d="M362.82,465.38,367.34,487l-3.61-4.65a11.33,11.33,0,0,0-12.21-3.9L346.23,480Z"/><path class="cls-13" d="M400.9,504.15,407,493.74A13.72,13.72,0,0,1,418.83,487H426l-19-17.8Z"/><circle class="cls-2" cx="375.12" cy="623.59" r="9.35"/><circle class="cls-4" cx="377.44" cy="623.59" r="1.38"/><circle class="cls-4" cx="372.81" cy="623.59" r="1.38"/><circle class="cls-2" cx="375.12" cy="744.54" r="9.35"/><circle class="cls-4" cx="377.38" cy="744.03" r="1.38"/><circle class="cls-4" cx="372.87" cy="745.06" r="1.38"/><circle class="cls-2" cx="408.63" cy="547.16" r="9.35"/><circle class="cls-4" cx="410.89" cy="546.64" r="1.38"/><circle class="cls-4" cx="406.38" cy="547.68" r="1.38"/><circle class="cls-2" cx="375.12" cy="683.51" r="9.35"/><circle class="cls-4" cx="377.41" cy="683.87" r="1.37"/><circle class="cls-4" cx="372.84" cy="683.15" r="1.38"/></g><g id="chocs"><path class="cls-14" d="M799.6,723.13A91.2,91.2,0,0,0,649.08,628a91.19,91.19,0,1,0-174.67,44.14h0l87.75,197.62,189.25-94.42A90.92,90.92,0,0,0,799.6,723.13Z"/><path class="cls-15" d="M567,856.25l-.22-.48L487.2,676.56h0A82.8,82.8,0,0,1,591.77,567c29.62,10.65,46.53,50.6,49.86,83.64,12.1-12,27.1-22.39,41.31-28.67,18.11-8,35.12-9.56,49.2-4.49a82.9,82.9,0,0,1,49.91,105.95l-.47-.16.47.16a82.15,82.15,0,0,1-43.78,47.4ZM488.86,677.82l78.63,177.07,170.35-85a81.79,81.79,0,0,0-6-151.51C703,608,665.7,627.82,641.59,652.06l-.75.76-.1-1.07c-3-32.94-19.78-73.23-49.31-83.85A81.79,81.79,0,0,0,488.51,677l.35.82Z"/><path class="cls-12" d="M501.63,564.85a90.68,90.68,0,0,0-23.34,27.66L692.45,804.12l.26.48,57.9-28.88Z"/><polygon class="cls-16" points="533.9 631.57 536.94 700.76 580.26 705.19 555.1 623.01 533.9 631.57"/><polygon class="cls-16" points="552 620.81 630.41 638.16 606.25 672.71 549.31 634.88 552 620.81"/><polygon class="cls-17" points="630.41 638.16 552 620.81 551.28 624.55 533.9 631.57 536.94 700.76 580.26 705.19 561.14 642.74 606.25 672.71 630.41 638.16"/><path class="cls-16" d="M540.62,611.3,562,566.37c1-2.18,4.09-2,5.77.39l35.5,49.88c1.6,2.26,1,5.09-1.27,5.55l-46.85,9.58Z"/><path class="cls-16" d="M539,641.23l-20.63,43.29c-1,2.1-3.95,1.9-5.57-.38l-34.2-48.06c-1.55-2.17-.92-4.9,1.22-5.34L525,621.5Z"/><g class="cls-18"><path class="cls-19" d="M540.62,611.3,562,566.37c1-2.18,4.09-2,5.77.39l35.5,49.88c1.6,2.26,1,5.09-1.27,5.55l-46.85,9.58Z"/><path class="cls-19" d="M539,641.23l-20.63,43.29c-1,2.1-3.95,1.9-5.57-.38l-34.2-48.06c-1.55-2.17-.92-4.9,1.22-5.34L525,621.5Z"/></g><circle class="cls-16" cx="540.35" cy="624.82" r="17.99"/></g></g></g></svg>