<svg xmlns="http://www.w3.org/2000/svg" viewBox="0 0 600 750"><defs><style>.cls-1{fill:#40bdac;}.cls-2{fill:#474747;}.cls-11,.cls-12,.cls-13,.cls-14,.cls-3{fill:#fff;}.cls-10,.cls-4{fill:#f969a4;}.cls-5,.cls-8{fill:#a3cbcc;}.cls-6,.cls-8{opacity:0.4;}.cls-7{opacity:0.34;}.cls-9{fill:#fcc74a;}.cls-10{opacity:0.43;}.cls-11{opacity:0.47;}.cls-12{opacity:0.49;}.cls-13{opacity:0.29;}.cls-14{opacity:0.27;}.cls-15{fill:#40bead;}</style></defs><title>Marketing &amp;amp; PR</title><g id="Layer_2" data-name="Layer 2"><g id="Layer_1-2" data-name="Layer 1"><rect class="cls-1" width="600" height="750"/><rect class="cls-2" x="213.61" y="476.52" width="111.01" height="111.01"/><path class="cls-2" d="M406.48,522.34l-.19,35.7A67.89,67.89,0,0,1,338,625.58l-68.43-.36.58-110.7Z"/><path class="cls-2" d="M385.72,393.09a21.93,21.93,0,0,1-15.5-37.43l88.51-88.52a21.93,21.93,0,0,1,31,31l-88.52,88.51A21.82,21.82,0,0,1,385.72,393.09Z"/><path class="cls-2" d="M305.94,620.42H251.25a76,76,0,0,1-75.88-75.88V470.07a61.51,61.51,0,0,1,61.45-61.44h20.52a24.91,24.91,0,1,1,0,49.82H236.82a11.64,11.64,0,0,0-11.63,11.62v74.47a26.09,26.09,0,0,0,26.06,26.06h54.69a24.91,24.91,0,1,1,0,49.82Z"/><rect class="cls-3" x="226.48" y="243.49" width="189.96" height="339.77" rx="18.17" ry="18.17"/><path class="cls-4" d="M398.27,245.25a16.42,16.42,0,0,1,16.4,16.41V565.09a16.42,16.42,0,0,1-16.4,16.4H244.65a16.42,16.42,0,0,1-16.4-16.4V261.66a16.42,16.42,0,0,1,16.4-16.41H398.27m0-1.76H244.65a18.16,18.16,0,0,0-18.17,18.17V565.09a18.16,18.16,0,0,0,18.17,18.16H398.27a18.17,18.17,0,0,0,18.17-18.16V261.66a18.17,18.17,0,0,0-18.17-18.17Z"/><path class="cls-5" d="M321.46,544.42a10.9,10.9,0,1,1-10.9,10.9,10.91,10.91,0,0,1,10.9-10.9m0-2.13a13,13,0,1,0,13,13,13,13,0,0,0-13-13Z"/><g class="cls-6"><rect class="cls-5" x="242.3" y="282.65" width="156.63" height="247.02"/></g><g class="cls-7"><rect class="cls-4" x="329.66" y="295.75" width="52.11" height="3.31"/></g><g class="cls-7"><rect class="cls-4" x="329.66" y="302.64" width="52.11" height="3.31"/></g><g class="cls-6"><circle class="cls-4" cx="309.24" cy="264.39" r="3.24"/></g><path class="cls-8" d="M344.17,267.15H321.46a2.76,2.76,0,1,1,0-5.52h22.71a2.76,2.76,0,0,1,0,5.52Zm-22.71-3.53a.77.77,0,0,0,0,1.54h22.71a.77.77,0,0,0,0-1.54Z"/><path class="cls-3" d="M312.48,310.32H258.19a.88.88,0,0,1-.88-.88V295.31a.89.89,0,0,1,.88-.89h54.29a.88.88,0,0,1,.88.89v14.13A.87.87,0,0,1,312.48,310.32Zm-53.4-1.76H311.6V296.19H259.08Z"/><rect class="cls-4" x="278.29" y="480.32" width="14.62" height="30.51" transform="translate(2.87 -1.64) rotate(0.33)"/><rect class="cls-5" x="332.38" y="463.35" width="14.62" height="47.8" transform="translate(2.82 -1.96) rotate(0.33)"/><rect class="cls-9" x="305.03" y="451.18" width="14.24" height="59.8" transform="translate(2.79 -1.8) rotate(0.33)"/><polygon class="cls-5" points="360 512 264.32 511.45 264.68 449.37 266.16 449.38 265.81 509.98 360.01 510.52 360 512"/><rect class="cls-3" x="293.14" y="518.57" width="34.71" height="1.48"/><polygon class="cls-5" points="279.61 456.54 278.56 455.49 312.6 421.45 336.65 445.5 358.24 423.91 359.29 424.96 336.65 447.6 312.6 423.55 279.61 456.54"/><polygon class="cls-5" points="359.96 434.45 358.48 434.45 358.48 424.63 348.96 424.63 348.96 423.14 359.96 423.14 359.96 434.45"/><rect class="cls-10" x="242.3" y="334.02" width="156.63" height="79.36"/><path class="cls-4" d="M291.22,384.41a21.74,21.74,0,0,0-1.43-37l-10.71,18.92L266,383.74A21.74,21.74,0,0,0,291.22,384.41Z"/><path class="cls-4" d="M279.08,366.37l-7.43-20.43A21.72,21.72,0,0,0,261,378.36Z"/><circle class="cls-3" cx="355.72" cy="378" r="29.04"/><path class="cls-4" d="M333.24,396.38a29,29,0,0,0,25.43,10.51L355.72,378Z"/><path class="cls-5" d="M326.71,376.62l29,1.38,7.14-28.15a29.07,29.07,0,0,0-36.15,26.77Z"/><path class="cls-9" d="M382.26,389.77a28.89,28.89,0,0,0,2.34-14.72L355.72,378Z"/><polygon class="cls-11" points="398.93 436.63 305.89 529.67 398.93 529.67 398.93 436.63"/><polygon class="cls-11" points="242.29 513.01 398.93 356.38 398.93 282.65 378.56 282.65 242.29 418.91 242.29 513.01"/><path class="cls-2" d="M398,454.69a21.93,21.93,0,0,1-15.51-37.43l47.69-47.68a21.92,21.92,0,0,1,31,31l-47.68,47.69A21.85,21.85,0,0,1,398,454.69Z"/><path class="cls-2" d="M398,522.29a21.93,21.93,0,0,1-15.51-37.43l47.69-47.68a21.92,21.92,0,0,1,31,31l-47.68,47.69A21.85,21.85,0,0,1,398,522.29Z"/><path class="cls-2" d="M405.89,581a21.93,21.93,0,0,1-15.5-37.43l39.8-39.79a21.92,21.92,0,1,1,31,31l-39.79,39.8A21.86,21.86,0,0,1,405.89,581Z"/><path class="cls-12" d="M400.71,449.53l-19.47-19.47,9.95-10a13.77,13.77,0,0,1,19.48,19.47Zm-19-19.47,19,19,9.71-9.71a13.44,13.44,0,0,0,0-19,13.42,13.42,0,0,0-19,0Z"/><path class="cls-12" d="M400.71,517.13l-19.47-19.47,9.95-10a13.77,13.77,0,1,1,19.48,19.47Zm-19-19.47,19,19,9.71-9.71a13.44,13.44,0,0,0,0-19,13.42,13.42,0,0,0-19,0Z"/><path class="cls-12" d="M408.23,575.17l-16.85-16.85L400,549.7a11.92,11.92,0,0,1,16.85,16.86Zm-16.36-16.85,16.36,16.36,8.37-8.37A11.57,11.57,0,1,0,400.24,550Z"/><polygon class="cls-2" points="201.13 591.85 118.07 750 287.39 750 360.01 593.77 201.13 591.85"/><path class="cls-3" d="M123.51,419.91a22.58,22.58,0,1,1,22.58-22.58A22.61,22.61,0,0,1,123.51,419.91Zm0-43.21a20.63,20.63,0,1,0,20.63,20.63A20.65,20.65,0,0,0,123.51,376.7Z"/><path class="cls-3" d="M535.19,238.53a27.11,27.11,0,1,1,27.11-27.11A27.14,27.14,0,0,1,535.19,238.53Zm0-51.88A24.77,24.77,0,1,0,560,211.42,24.8,24.8,0,0,0,535.19,186.65Z"/><path class="cls-3" d="M412.2,678a16.51,16.51,0,1,1,16.5-16.51A16.53,16.53,0,0,1,412.2,678Zm0-31.59a15.09,15.09,0,1,0,15.08,15.08A15.1,15.1,0,0,0,412.2,646.36Z"/><path class="cls-3" d="M512.68,390.2a16.51,16.51,0,1,1,16.51-16.51A16.52,16.52,0,0,1,512.68,390.2Zm0-31.59a15.08,15.08,0,1,0,15.08,15.08A15.1,15.1,0,0,0,512.68,358.61Z"/><circle class="cls-9" cx="521.54" cy="617.2" r="51.34"/><polygon class="cls-9" points="512.68 617.2 460.45 564.97 472.46 632.34 512.68 617.2"/><path class="cls-3" d="M517.78,620.59v.89a9.57,9.57,0,0,1-2.77,7,26.45,26.45,0,0,1,5.33,1.11,16.4,16.4,0,0,0,5.44,1.11c2.28,0,3.34-.84,4.61-3.11l2.73,1.5c-1.56,3.61-3.73,5.11-7.23,5.11a17.76,17.76,0,0,1-6.66-1.45,13.75,13.75,0,0,0-5.34-1.11h-.83a5.8,5.8,0,0,1-4.44,2.56c-1.56,0-2.61-1-2.61-2.06,0-1.89,1.88-3.55,5.55-3.72a10.16,10.16,0,0,0,2.72-6.89,5.93,5.93,0,0,0,0-.94h-5.72v-3.17h5.16l-.55-1.61a20,20,0,0,1-1.39-6.89A9.93,9.93,0,0,1,522,598.64c4.89,0,8.83,2.78,8.83,6,0,2.17-1.33,3.22-2.66,3.22a2.38,2.38,0,0,1-2.45-2.5,2.82,2.82,0,0,1,.72-1.88c-.66-.84-2-1.56-4.5-1.56-4.16,0-6.5,3.44-6.5,7a17.75,17.75,0,0,0,1.23,6.44c.22.73.5,1.39.66,2.06h9.61v3.17Z"/><circle class="cls-9" cx="300" cy="153.26" r="37.94"/><rect class="cls-3" x="281.68" y="133.72" width="38.07" height="38.07" rx="6.82" ry="6.82"/><path class="cls-9" d="M299.18,166.21H302V148.85h-2.77v-2.18h15.54V152h-2.37v-3.16h-7.92v7.85h7v2.11h-7v7.43h3v2.18h-8.25Z"/><circle class="cls-4" cx="80.04" cy="288.61" r="54.08"/><path class="cls-9" d="M108,308.5H52.92V267.4H108Zm-53.16-1.94h51.23V269.33H54.86Z"/><path class="cls-9" d="M80.47,293.5A5.2,5.2,0,0,1,76.85,292l-23.63-23,1.34-1.39,23.63,23a3.26,3.26,0,0,0,4.56,0l23.63-23,1.35,1.39L84.1,292A5.23,5.23,0,0,1,80.47,293.5Z"/><rect class="cls-9" x="49.92" y="296.77" width="28.1" height="1.93" transform="translate(-189.39 128.77) rotate(-44.18)"/><rect class="cls-9" x="96.29" y="283.69" width="1.93" height="28.1" transform="translate(-179.98 151.98) rotate(-44.18)"/><circle class="cls-5" cx="462.31" cy="113.49" r="60.57"/><polygon class="cls-5" points="495.44 164.49 407.08 211.42 446.49 113.49 495.44 164.49"/><path class="cls-3" d="M462.44,108.77a11.08,11.08,0,1,1,11.08-11.08A11.09,11.09,0,0,1,462.44,108.77Zm0-21a9.89,9.89,0,1,0,9.89,9.88A9.89,9.89,0,0,0,462.44,87.81Z"/><rect class="cls-3" x="429.63" y="93.72" width="65.62" height="50.02"/><rect class="cls-5" x="434.65" y="99.72" width="44.54" height="38.01" rx="9.16" ry="9.16"/><circle class="cls-5" cx="487.43" cy="106.04" r="4.16"/><circle class="cls-5" cx="487.43" cy="118.73" r="2.94"/><polygon class="cls-3" points="461.92 87.49 453.3 71.14 454.34 70.59 462.38 85.83 472.38 61.95 473.47 62.4 462.99 87.44 461.92 87.49"/><path class="cls-13" d="M458.69,99.72l-24,24v4.8a9,9,0,0,0,.68,3.46l32.31-32.31Z"/><path class="cls-13" d="M479.19,110.27v-1.38a9.2,9.2,0,0,0-.8-3.75l-32.59,32.6h5.93Z"/><circle class="cls-5" cx="100.7" cy="567.96" r="35.93"/><polygon class="cls-5" points="75.57 542.29 133.29 496.69 106.95 555.32 75.57 542.29"/><path class="cls-3" d="M107.48,546.39h0a12.12,12.12,0,0,0-12.13,12.12v3.64l-2.41,5.13a.67.67,0,0,0,.61,1h1.8v7.58a2.84,2.84,0,0,0,3.25,2.81l6.33-.92-.84,11.81,15.51-4.86V558.51A12.12,12.12,0,0,0,107.48,546.39Z"/><polygon class="cls-14" points="72.92 558.8 72.92 582.95 95.34 571.73 72.92 558.8"/><path class="cls-3" d="M201.68,233.44a1.81,1.81,0,0,1-1.29-.52l-78.33-76.57-.06-.06a42.76,42.76,0,1,1,50.92,7.16l30.44,67.39a1.83,1.83,0,0,1-.62,2.27A1.87,1.87,0,0,1,201.68,233.44Zm-77-79.68L196,223.43l-27.1-60a1.87,1.87,0,0,1-.18-1,1.84,1.84,0,0,1,1-1.5,39.08,39.08,0,1,0-45-7.25Z"/><circle class="cls-3" cx="150.05" cy="108.94" r="9.51"/><circle class="cls-3" cx="155.78" cy="137.5" r="9.51"/><rect class="cls-3" x="143.55" y="110.04" width="4.99" height="29.13" transform="translate(-21.67 31.18) rotate(-11.35)"/><path class="cls-15" d="M150.05,115.33a6.39,6.39,0,0,1-1.26-12.65,6.39,6.39,0,0,1,7.52,5h0a6.39,6.39,0,0,1-5,7.52A6.8,6.8,0,0,1,150.05,115.33Zm0-12.32a6.82,6.82,0,0,0-1.18.11,6,6,0,0,0-3.77,2.54,5.88,5.88,0,0,0-.88,4.45,5.94,5.94,0,0,0,11.64-2.33h0a5.89,5.89,0,0,0-2.53-3.78A6,6,0,0,0,150.06,103Z"/><path class="cls-15" d="M155.78,143.89a6.39,6.39,0,1,1,3.54-11.7,6.3,6.3,0,0,1,2.73,4.06,6.4,6.4,0,0,1-5,7.52A6.72,6.72,0,0,1,155.78,143.89Zm0-12.32a5.83,5.83,0,0,0-1.18.12,5.89,5.89,0,1,0,1.18-.12Z"/><circle class="cls-15" cx="158.1" cy="134.66" r="0.49"/><circle class="cls-15" cx="155.33" cy="135.22" r="0.49"/><circle class="cls-15" cx="152.55" cy="135.78" r="0.49"/><circle class="cls-15" cx="157.43" cy="137.36" r="0.49"/><circle class="cls-15" cx="160.15" cy="136.82" r="0.49"/><circle class="cls-15" cx="154.65" cy="137.92" r="0.49"/><circle class="cls-15" cx="151.87" cy="138.48" r="0.49"/><circle class="cls-15" cx="159.09" cy="139.59" r="0.49"/><circle class="cls-15" cx="156.32" cy="140.15" r="0.49"/><circle class="cls-15" cx="153.54" cy="140.7" r="0.49"/><path class="cls-3" d="M152.23,153.53a2.41,2.41,0,0,1-2.35-1.94h0a2.4,2.4,0,0,1,1.88-2.83,2.4,2.4,0,0,1,2.83,1.89,2.42,2.42,0,0,1-1.88,2.83A2.61,2.61,0,0,1,152.23,153.53Zm0-4.28a1.5,1.5,0,0,0-.37,0,1.86,1.86,0,0,0-1.47,2.2h0a1.87,1.87,0,1,0,2.87-1.93A1.91,1.91,0,0,0,152.24,149.25Z"/><path class="cls-3" d="M153.39,159.29a2.44,2.44,0,0,1-2.36-1.93,2.41,2.41,0,1,1,2.83,1.88A2.59,2.59,0,0,1,153.39,159.29Zm0-4.28a2.46,2.46,0,0,0-.37,0,1.86,1.86,0,0,0-1.46,2.2,1.89,1.89,0,0,0,.79,1.19,1.87,1.87,0,1,0,1-3.43Z"/><path class="cls-3" d="M154.54,165.05a2.39,2.39,0,0,1-2.35-1.93h0a2.41,2.41,0,0,1,1.88-2.83,2.4,2.4,0,1,1,1,4.71A2,2,0,0,1,154.54,165.05Zm0-4.27a2.31,2.31,0,0,0-.37,0,1.88,1.88,0,0,0-1.47,2.2h0a1.87,1.87,0,0,0,3.67-.73,1.86,1.86,0,0,0-.8-1.19A1.81,1.81,0,0,0,154.55,160.78Z"/><rect class="cls-3" x="150.69" y="139.48" width="0.53" height="32.32" transform="translate(-27.68 32.76) rotate(-11.35)"/><circle class="cls-4" cx="548.41" cy="450.68" r="30.86"/><polygon class="cls-4" points="548.41 419.82 490.14 419.82 534.08 446.18 548.41 419.82"/><circle class="cls-9" cx="556.54" cy="444.55" r="5.8"/><polygon class="cls-9" points="562.23 443.15 565.65 443.15 562.66 444.92 565.65 446.33 561.96 446.33 562.23 443.15"/><path class="cls-9" d="M559.77,447.92s.08,20-22.38,14.15c9.29-9.15,16.9-17.18,16.9-17.18Z"/><path class="cls-9" d="M531.73,443.94h0s.22.44.69,1.17c.83,1,2.65,2.32,6.6,3.38h-3.59c.46.83,2.11,2.74,7.78,4.13H540a26.61,26.61,0,0,0,14.68,4.14V443.94Z"/><path class="cls-9" d="M535.17,448.6l0-.11h-.12Z"/><path class="cls-2" d="M200.28,569.45a24.91,24.91,0,0,1-24.91-24.91V470.07a61.51,61.51,0,0,1,61.45-61.44h20.52a24.91,24.91,0,1,1,0,49.82H236.82a11.64,11.64,0,0,0-11.63,11.62v74.47A24.91,24.91,0,0,1,200.28,569.45Z"/><path class="cls-12" d="M269.79,422.67H244.87a13.77,13.77,0,0,1-13.75-13.75h.35a13.41,13.41,0,0,0,13.4,13.4h24.57v-8.95h.35Z"/></g></g></svg>