<?xml version="1.0" encoding="UTF-8"?>
<svg width="80px" height="80px" viewBox="0 0 80 80" version="1.1" xmlns="http://www.w3.org/2000/svg" xmlns:xlink="http://www.w3.org/1999/xlink">
    <!-- Generator: Sketch 51.2 (57519) - http://www.bohemiancoding.com/sketch -->
    <title>Asset 1</title>
    <desc>Created with Sketch.</desc>
    <defs>
        <circle id="path-1" cx="40" cy="40" r="40"></circle>
        <linearGradient x1="50.0269396%" y1="99.4491829%" x2="50.0269396%" y2="2.86479128%" id="linearGradient-3">
            <stop stop-color="#FFFFFF" offset="0%"></stop>
            <stop stop-color="#FFFFFF" stop-opacity="0" offset="100%"></stop>
        </linearGradient>
    </defs>
    <g id="Page-1" stroke="none" stroke-width="1" fill="none" fill-rule="evenodd">
        <g id="Asset-1">
            <circle id="Oval" fill="#A3CBCC" fill-rule="nonzero" cx="40" cy="40" r="40"></circle>
            <g id="Group">
                <mask id="mask-2" fill="white">
                    <use xlink:href="#path-1"></use>
                </mask>
                <use id="Mask" fill="#A3CBCC" fill-rule="nonzero" xlink:href="#path-1"></use>
                <g mask="url(#mask-2)">
                    <g transform="translate(6.000000, 8.000000)">
                        <path d="M24.37,31.15 L24.37,46 C24.2587954,49.3862658 26.0018758,52.564 28.9173362,54.2900514 C31.8327966,56.0161027 35.4572034,56.0161027 38.3726638,54.2900514 C41.2881242,52.564 43.0312046,49.3862658 42.92,46 L42.92,31.15 L24.37,31.15 Z" id="Shape" stroke="none" fill="url(#linearGradient-3)" fill-rule="nonzero"></path>
                        <path d="M21,34.94 L21,19.8 C20.9944715,12.7788374 26.6788439,7.08103739 33.7,7.07 C37.0762059,7.07 40.3141312,8.41119258 42.7014693,10.7985307 C45.0888074,13.1858688 46.43,16.4237941 46.43,19.8 L46.43,34.94 L37.43,44.41 L30,44.41 L21,34.94 Z" id="Shape" stroke="none" fill="#FFFFFF" fill-rule="nonzero"></path>
                        <path d="M39.52,21.49 C40.5174844,21.5391168 41.2913876,22.3788931 41.2590384,23.377062 C41.2266891,24.375231 40.4000352,25.1631355 39.4014636,25.147563 C38.4028921,25.1319905 37.6012085,24.3186922 37.6,23.32 C37.6326421,22.2879315 38.4875538,21.4730937 39.52,21.49 Z M39.52,20.9 C38.1917806,20.9329412 37.1385007,22.030562 37.1603267,23.3590105 C37.1821526,24.687459 38.2709214,25.7498866 39.599506,25.7391775 C40.9280907,25.7284683 41.9995916,24.6486277 42,23.32 C41.9894977,22.6657745 41.7187945,22.0426874 41.2477598,21.5885425 C40.7767252,21.1343975 40.1441729,20.8866167 39.49,20.9 L39.52,20.9 Z" id="Shape" stroke="none" fill="#A3CBCC" fill-rule="nonzero"></path>
                        <path d="M39.52,22.46 C39.9891352,22.4818442 40.3539917,22.8760087 40.3395954,23.3454315 C40.325199,23.8148543 39.9368743,24.1859201 39.4672822,24.1789752 C38.99769,24.1720303 38.6205083,23.7896432 38.62,23.32 C38.6252445,23.0865896 38.723027,22.8648299 38.8918231,22.7035358 C39.0606192,22.5422418 39.2865924,22.454635 39.52,22.46 Z M39.52,22.34 C38.9677153,22.34 38.52,22.7877153 38.52,23.34 C38.52,23.8922847 38.9677153,24.34 39.52,24.34 C40.0722847,24.34 40.52,23.8922847 40.52,23.34 C40.52,22.7877153 40.0722847,22.34 39.52,22.34 Z" id="Shape" stroke="none" fill="#A3CBCC" fill-rule="nonzero"></path>
                        <path d="M27.6,21.49 C28.5974844,21.5391168 29.3713876,22.3788931 29.3390384,23.377062 C29.3066891,24.375231 28.4800352,25.1631355 27.4814636,25.147563 C26.4828921,25.1319905 25.6812085,24.3186922 25.68,23.32 C25.7126421,22.2879315 26.5675538,21.4730937 27.6,21.49 Z M27.6,20.9 C26.2763082,20.9492626 25.2381903,22.0535676 25.2707309,23.377776 C25.3032715,24.7019845 26.3943771,25.7539668 27.7188909,25.7381534 C29.0434047,25.72234 30.1090836,24.6446079 30.11,23.32 C30.0826411,21.9597115 28.9603807,20.8776915 27.6,20.9 Z" id="Shape" stroke="none" fill="#A3CBCC" fill-rule="nonzero"></path>
                        <path d="M27.6,22.46 C28.0691352,22.4818442 28.4339917,22.8760087 28.4195954,23.3454315 C28.405199,23.8148543 28.0168743,24.1859201 27.5472822,24.1789752 C27.07769,24.1720303 26.7005083,23.7896432 26.7,23.32 C26.7052445,23.0865896 26.803027,22.8648299 26.9718231,22.7035358 C27.1406192,22.5422418 27.3665924,22.454635 27.6,22.46 Z M27.6,22.34 C27.0477153,22.34 26.6,22.7877153 26.6,23.34 C26.6,23.8922847 27.0477153,24.34 27.6,24.34 C28.1522847,24.34 28.6,23.8922847 28.6,23.34 C28.6,22.7877153 28.1522847,22.34 27.6,22.34 Z" id="Shape" stroke="none" fill="#A3CBCC" fill-rule="nonzero"></path>
                        <g id="Group" opacity="0.41" stroke="none" stroke-width="1" fill="none" fill-rule="evenodd" transform="translate(31.000000, 22.000000)">
                            <rect id="Rectangle-path" fill="#A3CBCC" fill-rule="nonzero" x="0.9" y="0.51" width="3.59" height="9.97"></rect>
                        </g>
                        <path d="M20.92,28.53 L22.24,28.53 L22.24,20.07 C22.2049769,18.9594427 23.0181936,18.0034806 24.12,17.86 L24.12,12.09 L43.12,12.09 L43.12,17.86 C44.2218064,18.0034806 45.0350231,18.9594427 45,20.07 L45,28.53 L46.41,28.53" id="Shape" stroke="#A3CBCC" stroke-width="0.47" fill="none"></path>
                        <path d="M22.28,22.51 L45.02,22.51" id="Shape" stroke="none" fill="#A3CBCC" fill-rule="nonzero"></path>
                        <rect id="Rectangle-path" stroke="none" fill="#A3CBCC" fill-rule="nonzero" x="22.28" y="22.26" width="22.74" height="1"></rect>
                        <g id="Group" opacity="0.41" stroke="none" stroke-width="1" fill="none" fill-rule="evenodd" transform="translate(30.000000, 29.000000)">
                            <path d="M5.89,3.48 L1.41,3.48 C1.10327209,3.4826673 0.808189511,3.36268547 0.590355016,3.14672885 C0.372520521,2.93077224 0.249988403,2.63673951 0.25,2.33 L0.25,0.92 L7.00004834,0.92 L7,2.33 C7.00567068,2.95195269 6.51176382,3.46365799 5.89,3.48 Z" id="Shape" fill="#A3CBCC" fill-rule="nonzero"></path>
                        </g>
                        <path d="M36,32.36 C36.0040404,32.5518574 35.8910364,32.7269022 35.714527,32.8022015 C35.5380175,32.8775009 35.3334577,32.8379297 35.197764,32.702236 C35.0620703,32.5665423 35.0224991,32.3619825 35.0977985,32.185473 C35.1730978,32.0089636 35.3481426,31.8959596 35.54,31.9 C35.6619996,31.9 35.7790024,31.9484641 35.8652691,32.0347309 C35.9515359,32.1209976 36,32.2380004 36,32.36 Z" id="Shape" stroke="none" fill="#1D1D1B" fill-rule="nonzero"></path>
                        <path d="M32.21,32.36 C32.21,32.614051 32.004051,32.82 31.75,32.82 C31.495949,32.82 31.29,32.614051 31.29,32.36 C31.29,32.105949 31.495949,31.9 31.75,31.9 C31.8719996,31.9 31.9890024,31.9484641 32.0752691,32.0347309 C32.1615359,32.1209976 32.21,32.2380004 32.21,32.36 Z" id="Shape" stroke="none" fill="#1D1D1B" fill-rule="nonzero"></path>
                        <path d="M35.71,39.39 C35.712746,39.4421003 35.6939471,39.4930375 35.6580132,39.5308626 C35.6220794,39.5686877 35.5721726,39.5900723 35.52,39.59 L32.13,39.59 C32.0195431,39.59 31.93,39.5004569 31.93,39.39 C31.9353333,39.2834666 32.0233333,39.1998666 32.13,39.2 L35.52,39.2 C35.6249341,39.2 35.71,39.2850659 35.71,39.39 Z" id="Shape" stroke="none" fill="#A3CBCC" fill-rule="nonzero"></path>
                        <g id="Group" opacity="0.41" stroke="none" stroke-width="1" fill="none" fill-rule="evenodd" transform="translate(20.000000, 29.000000)" fill-opacity="0.41">
                            <path d="M21.74,2.64 L21.74,10.86 L25.15,7.26 L26.36,5.94 L26.36,0.939969623 L23.47,0.94 C22.5239328,0.934435743 21.7509846,1.69398022 21.74,2.64 Z" id="Shape" fill="#A3CBCC" fill-rule="nonzero"></path>
                            <path d="M3.82,0.94 L0.94,0.94 L0.94,5.94 L5.53,10.75 L5.53,2.66 C5.53001599,1.71396181 4.7660222,0.945500222 3.82,0.94 Z" id="Shape" fill="#A3CBCC" fill-rule="nonzero"></path>
                        </g>
                        <path d="M46.94,30.4 C47.5363861,30.3444472 47.9924128,29.8439678 47.9924128,29.245 C47.9924128,28.6460322 47.5363861,28.1455528 46.94,28.09 L46.94,28 C48.1771178,28 49.18,26.9971178 49.18,25.76 C49.18,24.5228822 48.1771178,23.52 46.94,23.52" id="Shape" stroke="#FFFFFF" stroke-width="0.35" fill="none"></path>
                        <path d="M20.45,30.4 C19.8536139,30.3444472 19.3975872,29.8439678 19.3975872,29.245 C19.3975872,28.6460322 19.8536139,28.1455528 20.45,28.09 L20.45,28 C19.2128822,28 18.21,26.9971178 18.21,25.76 C18.21,24.5228822 19.2128822,23.52 20.45,23.52" id="Shape" stroke="#FFFFFF" stroke-width="0.35" fill="none"></path>
                        <polygon id="Shape" stroke="none" fill="#474747" fill-rule="nonzero" points="31.85 22.45 23.89 22.45 23.89 21.1 31.85 20.29"></polygon>
                        <polygon id="Shape" stroke="none" fill="#474747" fill-rule="nonzero" points="43.41 22.45 35.45 22.45 35.45 20.29 43.41 21.09"></polygon>
                        <circle id="Oval" stroke="#474747" stroke-width="0.23" fill="none" cx="47.85" cy="29.94" r="1"></circle>
                        <path d="M23.1,46.77 C22.9815863,50.6148009 24.9651516,54.2193216 28.2765119,56.1767202 C31.5878721,58.1341188 35.7021279,58.1341188 39.0134881,56.1767202 C42.3248484,54.2193216 44.3084137,50.6148009 44.19,46.77" id="Shape" stroke="#474747" stroke-width="0.82" fill="none" stroke-linecap="round"></path>
                        <path d="M52.55,0.22 L10.56,8.5" id="Shape" stroke="#474747" stroke-width="2.22" fill="none" stroke-linecap="round"></path>
                        <path d="M38.46,34.8 C37.3491885,36.3213351 35.5787098,37.2208083 33.695,37.2208083 C31.8112902,37.2208083 30.0408115,36.3213351 28.93,34.8 L38.46,34.8 Z M39.18,34.45 L28.18,34.45 C29.3893155,36.3255845 31.4397538,37.4908609 33.67,37.57 C35.8966625,37.4876385 37.9426832,36.3227508 39.15,34.45 L39.18,34.45 Z" id="Shape" stroke="none" fill="#A3CBCC" fill-rule="nonzero"></path>
                        <path d="M27,14 C29.303439,14.0150721 31.5509939,14.7109095 33.46,16 L33.84,16 C37.7338216,13.4408589 42.7761784,13.4408589 46.67,16 C45.5812327,9.64268831 40.0698702,4.99497204 33.62,4.99497204 C27.1701298,4.99497204 21.6587673,9.64268831 20.57,16 C22.4705117,14.7165447 24.7068008,14.0209649 27,14 Z" id="Shape" stroke="none" fill="#474747" fill-rule="nonzero"></path>
                        <path d="M36.73,36.52 L30.66,36.52" id="Shape" stroke="#A3CBCC" stroke-width="0.21" fill="none" stroke-linejoin="bevel"></path>
                        <polygon id="Shape" stroke="none" fill="#474747" fill-rule="nonzero" points="48.23 46.27 67.53 57.16 67.53 90.84 48.23 90.84"></polygon>
                        <polygon id="Shape" stroke="none" fill="#474747" fill-rule="nonzero" points="19.77 46.27 0.47 57.16 0.47 90.84 19.77 90.84"></polygon>
                        <rect id="Rectangle-path" stroke="none" fill="#F969A4" fill-rule="nonzero" x="22.11" y="55.79" width="1.37" height="35.04"></rect>
                        <rect id="Rectangle-path" stroke="none" fill="#F969A4" fill-rule="nonzero" x="44.88" y="51.08" width="1" height="39.75"></rect>
                        <rect id="Rectangle-path" stroke="none" fill="#474747" fill-rule="nonzero" x="40.23" y="58.65" width="2.41" height="32.19"></rect>
                        <rect id="Rectangle-path" stroke="none" fill="#474747" fill-rule="nonzero" x="25.62" y="60.26" width="3.47" height="30.57"></rect>
                        <path d="M15.48,4.83 L15.48,34.04" id="Shape" stroke="#FCC74A" stroke-width="0.47" fill="none"></path>
                        <circle id="Oval" stroke="#FCC74A" stroke-width="0.47" fill="none" cx="15.48" cy="34.72" r="1"></circle>
                        <polyline id="Shape" stroke="#FCC74A" stroke-width="0.23" fill="none" stroke-linejoin="bevel" points="14.2 39.2 15.48 35.57 16.7 38.83"></polyline>
                        <path d="M15.18,38.93 L15.48,35.57" id="Shape" stroke="#FCC74A" stroke-width="0.23" fill="none"></path>
                        <path d="M16.01,38.45 L15.45,35.66" id="Shape" stroke="#FCC74A" stroke-width="0.23" fill="none"></path>
                    </g>
                </g>
            </g>
        </g>
    </g>
</svg>