<svg id="Layer_1" data-name="Layer 1" xmlns="http://www.w3.org/2000/svg" xmlns:xlink="http://www.w3.org/1999/xlink" viewBox="0 0 395.21 540.59"><defs><style>.cls-1{fill:url(#linear-gradient);}.cls-2{fill:#fff;}.cls-3{fill:#a3cbcc;}.cls-4{opacity:0.41;}.cls-10,.cls-11,.cls-12,.cls-14,.cls-15,.cls-16,.cls-5,.cls-7,.cls-9{fill:none;}.cls-12,.cls-5{stroke:#a3cbcc;}.cls-10,.cls-11,.cls-14,.cls-16,.cls-5,.cls-7,.cls-9{stroke-miterlimit:10;}.cls-14,.cls-5{stroke-width:2.76px;}.cls-6{fill:#1d1d1b;}.cls-7{stroke:#fff;stroke-width:2.07px;}.cls-8{fill:#474747;}.cls-10,.cls-11,.cls-9{stroke:#474747;}.cls-15,.cls-16,.cls-9{stroke-width:1.38px;}.cls-10,.cls-11{stroke-linecap:round;}.cls-10{stroke-width:4.83px;}.cls-11{stroke-width:13.11px;}.cls-12,.cls-15{stroke-linejoin:bevel;}.cls-12{stroke-width:1.21px;}.cls-13{fill:#f969a4;}.cls-14,.cls-15,.cls-16{stroke:#fcc74a;}</style><linearGradient id="linear-gradient" x1="195.53" y1="332.06" x2="195.53" y2="192.98" gradientUnits="userSpaceOnUse"><stop offset="0" stop-color="#fff"/><stop offset="1" stop-color="#fff" stop-opacity="0"/></linearGradient></defs><title>boy</title><path class="cls-1" d="M140.86,188.87V276.6c0,32.41,24.47,56.89,54.67,56.89S250.2,309,250.2,276.6V188.87Z"/><path class="cls-2" d="M120.79,211.17V122a75,75,0,0,1,75-75h0a75,75,0,0,1,75,75v89.2L217.93,267h-43.8Z"/><path class="cls-3" d="M230.14,131.9a10.82,10.82,0,1,1-11.35,10.81,11.1,11.1,0,0,1,11.35-10.81m0-3.45a14.27,14.27,0,1,0,14.8,14.26,14.53,14.53,0,0,0-14.8-14.26Z"/><path class="cls-3" d="M230.14,137.62a5.09,5.09,0,1,1-5.31,5.09,5.21,5.21,0,0,1,5.31-5.09m0-.69a5.78,5.78,0,1,0,6,5.78,5.9,5.9,0,0,0-6-5.78Z"/><path class="cls-3" d="M159.91,131.9a10.82,10.82,0,1,1-11.35,10.81,11.1,11.1,0,0,1,11.35-10.81m0-3.45a14.27,14.27,0,1,0,14.79,14.26,14.53,14.53,0,0,0-14.79-14.26Z"/><path class="cls-3" d="M159.91,137.62a5.09,5.09,0,1,1-5.31,5.09,5.2,5.2,0,0,1,5.31-5.09m0-.69a5.78,5.78,0,1,0,6,5.78,5.89,5.89,0,0,0-6-5.78Z"/><g class="cls-4"><rect class="cls-3" x="185.22" y="137.95" width="21.18" height="58.77"/></g><path class="cls-5" d="M120.51,173.43h7.79V123.56c0-11.7,11.06-13,11.06-13v-34H251.49v34s11.06,1.3,11.06,13v49.87h8.28"/><rect class="cls-3" x="128.55" y="136.48" width="134" height="2.95"/><g class="cls-4"><path class="cls-3" d="M208.73,196.72h-26.4a6.83,6.83,0,0,1-6.83-6.82v-8.28h40.05v8.28A6.82,6.82,0,0,1,208.73,196.72Z"/></g><path class="cls-6" d="M209.44,196a2.73,2.73,0,1,1-2.73-2.73A2.73,2.73,0,0,1,209.44,196Z"/><path class="cls-6" d="M187.07,196a2.73,2.73,0,1,1-2.73-2.73A2.73,2.73,0,0,1,187.07,196Z"/><path class="cls-3" d="M207.7,237.43a1.15,1.15,0,0,1-1.15,1.16h-20a1.16,1.16,0,0,1-1.15-1.16h0a1.16,1.16,0,0,1,1.15-1.15h20a1.15,1.15,0,0,1,1.15,1.15Z"/><g class="cls-4"><g class="cls-4"><path class="cls-3" d="M243.2,191.74l.14,48.44L263.42,219l7.13-7.82-.15-29.45-17-.1A10.12,10.12,0,0,0,243.2,191.74Z"/></g><g class="cls-4"><path class="cls-3" d="M137.61,181.72h-17l.14,29.45,27.08,28.34-.14-47.68A10.12,10.12,0,0,0,137.61,181.72Z"/></g></g><path class="cls-7" d="M273.87,184.41a6.8,6.8,0,1,0,0-13.59v-.52a13.21,13.21,0,1,0,0-26.41"/><path class="cls-7" d="M117.75,184.41a6.8,6.8,0,1,1,0-13.59v-.52a13.21,13.21,0,1,1,0-26.41"/><polygon class="cls-8" points="184.94 137.55 138 137.55 138 129.63 184.94 124.87 184.94 137.55"/><polygon class="cls-8" points="253.05 137.55 206.12 137.55 206.12 124.87 253.05 129.58 253.05 137.55"/><circle class="cls-9" cx="279.23" cy="181.72" r="2.77"/><path class="cls-10" d="M133.38,280.93a62.15,62.15,0,1,0,124.29,0"/><line class="cls-11" x1="306.9" y1="6.55" x2="59.46" y2="55.35"/><path class="cls-3" d="M223.91,210.37c-7.74,9.22-17.59,14.25-28.1,14.25s-20.36-5-28.1-14.25h56.2m4.21-2.07H163.5c8.06,11.31,19.55,18.39,32.31,18.39s24.25-7.08,32.31-18.39Z"/><path class="cls-8" d="M156.59,88A68.67,68.67,0,0,1,194.4,99.31h2.25a69,69,0,0,1,75.63,0h.16a78,78,0,0,0-153.82,0h.16A68.64,68.64,0,0,1,156.59,88Z"/><line class="cls-12" x1="213.68" y1="220.47" x2="177.94" y2="220.47"/><polygon class="cls-8" points="281.45 277.94 395.21 342.15 395.21 540.59 281.45 540.59 281.45 277.94"/><polygon class="cls-8" points="113.76 277.94 0 342.15 0 540.59 113.76 540.59 113.76 277.94"/><rect class="cls-13" x="127.56" y="334.08" width="8.07" height="206.51"/><rect class="cls-13" x="261.71" y="306.31" width="5.89" height="234.28"/><rect class="cls-8" x="234.34" y="350.92" width="14.18" height="189.68"/><rect class="cls-8" x="148.19" y="360.42" width="20.45" height="180.17"/><line class="cls-14" x1="88.47" y1="33.77" x2="88.47" y2="205.87"/><circle class="cls-14" cx="88.47" cy="209.88" r="5.04"/><polyline class="cls-15" points="80.91 236.28 88.47 214.92 95.66 234.1"/><line class="cls-16" x1="86.69" y1="234.72" x2="88.47" y2="214.92"/><line class="cls-16" x1="91.61" y1="231.89" x2="88.29" y2="215.44"/></svg>