<?xml version="1.0" encoding="UTF-8"?>
<svg width="310px" height="423px" viewBox="0 0 310 423" version="1.1" xmlns="http://www.w3.org/2000/svg" xmlns:xlink="http://www.w3.org/1999/xlink">
    <!-- Generator: Sketch 51.2 (57519) - http://www.bohemiancoding.com/sketch -->
    <title>men11</title>
    <desc>Created with Sketch.</desc>
    <defs>
        <linearGradient x1="50.0233536%" y1="98.9767114%" x2="50.0233536%" y2="2.84050812%" id="linearGradient-1">
            <stop stop-color="#FFFFFF" offset="0%"></stop>
            <stop stop-color="#FFFFFF" stop-opacity="0" offset="100%"></stop>
        </linearGradient>
    </defs>
    <g id="Page-1" stroke="none" stroke-width="1" fill="none" fill-rule="evenodd">
        <g id="men11" transform="translate(0.000000, -1.000000)">
            <path d="M110.36,148.21 L110.36,217 C110.36,242.39 129.54,261.57 153.2,261.57 C176.86,261.57 196,242.35 196,217 L196,148.21 L110.36,148.21 Z" id="Shape" fill="url(#linearGradient-1)" fill-rule="nonzero"></path>
            <path d="M94.64,165.69 L94.64,95.8 C94.6346945,80.2071098 100.825227,65.2510482 111.849191,54.2233339 C122.873154,43.1956195 137.827109,36.9999991 153.42,37 C169.012891,36.9999991 183.966846,43.1956195 194.990809,54.2233339 C206.014773,65.2510482 212.205306,80.2071098 212.2,95.8 L212.2,165.69 L170.76,209.42 L136.43,209.42 L94.64,165.69 Z" id="Shape" fill="#FFFFFF" fill-rule="nonzero"></path>
            <path d="M180.32,103.17 C185.173014,103.38858 188.951917,107.462304 188.805988,112.318045 C188.660059,117.173787 184.643344,121.013231 179.785962,120.939986 C174.928581,120.866741 171.029455,116.907934 171.03,112.05 C171.15014,107.035548 175.305232,103.063834 180.32,103.17 Z M180.32,100.87 C174.205416,101.099871 169.411617,106.202498 169.563445,112.319517 C169.715273,118.436536 174.756314,123.295056 180.874772,123.221296 C186.99323,123.147535 191.915681,118.168901 191.92,112.05 C191.864815,109.029017 190.611546,106.15375 188.43601,104.056984 C186.260475,101.960218 183.340964,100.813788 180.32,100.87 Z" id="Shape" fill="#A3CBCC" fill-rule="nonzero"></path>
            <path d="M180.32,108 C182.543291,108.092947 184.27978,109.954229 184.218452,112.178617 C184.157125,114.403005 182.32072,116.165781 180.095684,116.136086 C177.870649,116.10639 176.081942,114.295232 176.08,112.07 C176.129201,109.776247 178.026154,107.955352 180.32,108 Z M180.32,107.54 C177.842417,107.633044 175.899938,109.700527 175.961393,112.179095 C176.022848,114.657662 178.065403,116.626337 180.544553,116.596481 C183.023702,116.566624 185.018254,114.549329 185.02,112.07 C184.970749,109.522212 182.867873,107.495398 180.32,107.54 Z" id="Shape" fill="#A3CBCC" fill-rule="nonzero"></path>
            <path d="M125.29,103.17 C130.141408,103.393982 133.915239,107.469832 133.76579,112.324108 C133.616341,117.178383 129.598928,121.014365 124.74293,120.939484 C119.886932,120.864603 115.989705,116.906576 115.99,112.05 C116.110115,107.031559 120.271366,103.058236 125.29,103.17 Z M125.29,100.87 C119.173867,101.094447 114.375006,106.194889 114.523284,112.313342 C114.671562,118.431796 119.711858,123.29379 125.831684,123.221704 C131.95151,123.149618 136.875883,118.170249 136.88,112.05 C136.765054,105.762991 131.577072,100.758536 125.29,100.87 Z" id="Shape" fill="#A3CBCC" fill-rule="nonzero"></path>
            <path d="M125.29,108 C127.513291,108.092947 129.24978,109.954229 129.188452,112.178617 C129.127125,114.403005 127.29072,116.165781 125.065684,116.136086 C122.840649,116.10639 121.051942,114.295232 121.05,112.07 C121.099201,109.776247 122.996154,107.955352 125.29,108 Z M125.29,107.54 C122.812417,107.633044 120.869938,109.700527 120.931393,112.179095 C120.992848,114.657662 123.035403,116.626337 125.514553,116.596481 C127.993702,116.566624 129.988254,114.549329 129.99,112.07 C129.940749,109.522212 127.837873,107.495398 125.29,107.54 Z" id="Shape" fill="#A3CBCC" fill-rule="nonzero"></path>
            <g id="Group" opacity="0.41" transform="translate(145.000000, 108.000000)" fill="#A3CBCC" fill-rule="nonzero">
                <rect id="Rectangle-path" x="0.12" y="0.32" width="16.6" height="46.04"></rect>
            </g>
            <path d="M212.2,137 L204.8,137 L204.8,97 C204.98233,92.3366495 201.569777,88.3075793 196.94,87.72 L196.13,87.62 L196.13,61.12 L110.13,61.12 L110.13,87.67 L109.32,87.77 C104.690223,88.3575793 101.27767,92.3866495 101.46,97.05 L101.46,137.05 L94.46,137.05 L94.46,135.2 L99.65,135.2 L99.65,97.05 C99.65,88.91 106.02,86.65 108.32,86.05 L108.32,59.28 L198,59.28 L198,86.1 C200.3,86.65 206.67,88.91 206.67,97.1 L206.67,135.2 L212.24,135.2 L212.2,137 Z" id="Shape" fill="#A3CBCC" fill-rule="nonzero"></path>
            <path d="M100.72,108.32 L205.72,108.32" id="Shape" fill="#A3CBCC" fill-rule="nonzero"></path>
            <rect id="Rectangle-path" fill="#A3CBCC" fill-rule="nonzero" x="100.72" y="107.16" width="104.99" height="2.31"></rect>
            <g id="Group" opacity="0.41" transform="translate(137.000000, 142.000000)" fill="#A3CBCC" fill-rule="nonzero">
                <path d="M26.54,12.36 L5.86,12.36 C2.90917743,12.3600052 0.515515556,9.97081742 0.51,7.02 L0.51,0.54 L31.8900375,0.54 L31.89,7 C31.8953263,8.42145278 31.3336987,9.78636836 30.3295117,10.7924324 C29.3253247,11.7984964 27.9614602,12.3626719 26.54,12.36 Z" id="Shape"></path>
            </g>
            <path d="M164.1,153.79 C164.099991,154.656457 163.577508,155.437404 162.776616,155.768041 C161.975725,156.098678 161.054493,155.913748 160.443252,155.299637 C159.832011,154.685526 159.651398,153.763439 159.985782,152.964105 C160.320167,152.16477 161.103552,151.645951 161.97,151.65 C162.536648,151.649994 163.079943,151.875776 163.479684,152.277394 C163.879425,152.679012 164.10266,153.223358 164.1,153.79 Z" id="Shape" fill="#1D1D1B" fill-rule="nonzero"></path>
            <path d="M146.57,153.79 C146.569991,154.656457 146.047508,155.437404 145.246616,155.768041 C144.445725,156.098678 143.524493,155.913748 142.913252,155.299637 C142.302011,154.685526 142.121398,153.763439 142.455782,152.964105 C142.790167,152.16477 143.573552,151.645951 144.44,151.65 C145.006648,151.649994 145.549943,151.875776 145.949684,152.277394 C146.349425,152.679012 146.57266,153.223358 146.57,153.79 Z" id="Shape" fill="#1D1D1B" fill-rule="nonzero"></path>
            <path d="M162.74,186.27 C162.74,186.508695 162.645179,186.737613 162.476396,186.906396 C162.307613,187.075179 162.078695,187.17 161.84,187.17 L146.19,187.17 C145.6913,187.17003 145.28548,186.76867 145.28,186.27 C145.28,185.767421 145.687421,185.36 146.19,185.36 L161.84,185.36 C162.080438,185.359985 162.310885,185.456178 162.479958,185.62713 C162.649031,185.798081 162.742672,186.029577 162.74,186.27 Z" id="Shape" fill="#A3CBCC" fill-rule="nonzero"></path>
            <g id="Group" opacity="0.41" transform="translate(94.000000, 142.000000)" fill="#A3CBCC" fill-rule="nonzero">
                <path d="M96.55,8.46 L96.66,46.46 L112.4,29.86 L117.98,23.73 L117.87,0.65 L104.52,0.58 C102.41775,0.566701353 100.396465,1.38976666 98.9015036,2.86784689 C97.4065417,4.34592713 96.5605756,6.35773449 96.55,8.46 Z" id="Shape"></path>
                <path d="M13.83,0.61 L0.53,0.61 L0.64,23.69 L21.86,45.89 L21.75,8.54 C21.7500035,4.16428421 18.2057123,0.615517927 13.83,0.61 Z" id="Shape"></path>
            </g>
            <path d="M214.59,145.41 L214.59,144 C217.0662,143.884952 219.014651,141.843871 219.014651,139.365 C219.014651,136.886129 217.0662,134.845048 214.59,134.73 L213.9,134.73 L213.9,133 L214.59,133 C218.041186,133 221.230213,131.158815 222.955806,128.17 C224.681399,125.181186 224.681399,121.498814 222.955806,118.51 C221.230213,115.521185 218.041186,113.68 214.59,113.68 L214.59,112.3 C220.195702,112.227426 224.959163,116.382255 225.648842,121.945842 C226.338522,127.509429 222.733746,132.70161 217.28,134 C219.798028,135.231104 221.128216,138.041515 220.48398,140.769342 C219.839743,143.497169 217.392754,145.415516 214.59,145.39 L214.59,145.41 Z" id="Shape" fill="#FFFFFF" fill-rule="nonzero"></path>
            <path d="M92.26,145.41 C89.4387917,145.460515 86.9635894,143.538442 86.3138312,140.792612 C85.664073,138.046782 87.0153505,135.219232 89.56,134 C84.0077979,132.784438 80.295904,127.539156 80.9964105,121.898781 C81.6969171,116.258406 86.5791279,112.08047 92.26,112.26 L92.26,113.64 C86.9249293,113.64 82.6,117.964929 82.6,123.3 C82.6,128.635071 86.9249293,132.96 92.26,132.96 L93,132.96 L93,134.74 L92.31,134.74 C90.6027122,134.660677 88.990046,135.526345 88.1126777,136.993092 C87.2353094,138.45984 87.2353094,140.29016 88.1126777,141.756908 C88.990046,143.223655 90.6027122,144.089323 92.31,144.01 L92.26,145.41 Z" id="Shape" fill="#FFFFFF" fill-rule="nonzero"></path>
            <polygon id="Shape" fill="#474747" fill-rule="nonzero" points="144.9 108 108.13 108 108.13 101.8 144.9 98.07"></polygon>
            <polygon id="Shape" fill="#474747" fill-rule="nonzero" points="198.27 108 161.5 108 161.5 98.07 198.27 101.76"></polygon>
            <circle id="Oval" stroke="#474747" stroke-width="0.92" cx="218.78" cy="142.61" r="2.17"></circle>
            <path d="M153.2,270.65 C125.433783,270.616938 102.933062,248.116217 102.9,220.35 C102.9,219.460822 103.620822,218.74 104.51,218.74 C105.399178,218.74 106.12,219.460822 106.12,220.35 C106.49508,246.08677 127.465497,266.753797 153.205,266.753797 C178.944503,266.753797 199.91492,246.08677 200.29,220.35 C200.242314,219.746345 200.537371,219.166985 201.053644,218.850544 C201.569917,218.534102 202.220083,218.534102 202.736356,218.850544 C203.252629,219.166985 203.547686,219.746345 203.5,220.35 C203.466938,248.116217 180.966217,270.616938 153.2,270.65 Z" id="Shape" fill="#474747" fill-rule="nonzero"></path>
            <path d="M46.59,48 C44.3421376,48.0044647 42.4593179,46.2992262 42.2418009,44.0619082 C42.0242839,41.8245902 43.543374,39.7886105 45.75,39.36 L239.62,1.09 C241.170353,0.731005129 242.793149,1.24520544 243.853848,2.43153997 C244.914547,3.6178745 245.244641,5.28787671 244.715058,6.78854768 C244.185475,8.28921864 242.880346,9.3821549 241.31,9.64 L47.43,47.88 C47.154111,47.9448223 46.8730037,47.9849805 46.59,48 Z" id="Shape" fill="#474747" fill-rule="nonzero"></path>
            <path d="M176,164.81 C169.84,172.35 161.92,176.47 153.46,176.47 C145,176.47 137.09,172.35 130.93,164.81 L176,164.81 Z M178.78,163.44 L128.1,163.44 C134.43,172.3 143.43,177.85 153.42,177.85 C163.41,177.85 172.42,172.3 178.74,163.44 L178.78,163.44 Z" id="Shape" fill="#A3CBCC" fill-rule="nonzero"></path>
            <path d="M122.69,69.19 C133.215245,69.1690127 143.516077,72.2317981 152.32,78 L154.08,78 C172.069072,66.1932163 195.350928,66.1932163 213.34,78 L213.46,78 C208.400826,48.6717269 182.961432,27.2449459 153.2,27.2449459 C123.438568,27.2449459 97.9991738,48.6717269 92.94,78 L93.07,78 C101.87033,72.2320615 112.167904,69.1692111 122.69,69.19 Z" id="Shape" fill="#474747" fill-rule="nonzero"></path>
            <rect id="Rectangle-path" fill="#A3CBCC" fill-rule="nonzero" x="139.42" y="172.57" width="28" height="1"></rect>
            <polygon id="Shape" fill="#474747" fill-rule="nonzero" points="220.52 218 309.66 268.31 309.66 423.8 220.52 423.8"></polygon>
            <polygon id="Shape" fill="#474747" fill-rule="nonzero" points="89.14 218 0 268.31 0 423.8 89.14 423.8"></polygon>
            <rect id="Rectangle-path" fill="#F969A4" fill-rule="nonzero" x="99.95" y="261.99" width="6.32" height="161.81"></rect>
            <rect id="Rectangle-path" fill="#F969A4" fill-rule="nonzero" x="205.06" y="240.24" width="4.62" height="183.56"></rect>
            <rect id="Rectangle-path" fill="#474747" fill-rule="nonzero" x="183.61" y="275.18" width="11.11" height="148.62"></rect>
            <rect id="Rectangle-path" fill="#474747" fill-rule="nonzero" x="116.11" y="282.63" width="16.02" height="141.17"></rect>
            <rect id="Rectangle-path" fill="#FFFFFF" fill-rule="nonzero" x="68.4" y="26.69" width="1.84" height="134.85"></rect>
            <path d="M69.32,169.54 C67.3493598,169.539996 65.5729517,168.352374 64.8197579,166.531351 C64.0665641,164.710329 64.4850568,162.614873 65.8799412,161.222853 C67.2748257,159.830832 69.3711376,159.416648 71.1906078,160.173583 C73.0100781,160.930518 74.1940465,162.709364 74.19,164.68 C74.1844852,167.365721 72.0057263,169.540006 69.32,169.54 Z M69.32,161.64 C67.6631458,161.64 66.32,162.983146 66.32,164.64 C66.32,166.296854 67.6631458,167.64 69.32,167.64 C70.9768542,167.64 72.32,166.296854 72.32,164.64 C72.32,162.983146 70.9768542,161.64 69.32,161.64 Z" id="Shape" fill="#FFFFFF" fill-rule="nonzero"></path>
            <polygon id="Shape" fill="#FFFFFF" fill-rule="nonzero" points="63.83 185.52 62.96 185.21 68.89 168.47 69.75 168.46 75.38 183.49 74.53 183.82 69.33 169.97"></polygon>
            <rect id="Rectangle-path" fill="#FFFFFF" fill-rule="nonzero" transform="translate(68.663048, 176.400187) rotate(-84.870000) translate(-68.663048, -176.400187) " x="60.8730477" y="175.900187" width="15.58" height="1"></rect>
            <rect id="Rectangle-path" fill="#FFFFFF" fill-rule="nonzero" transform="translate(70.522404, 175.465931) rotate(-11.410000) translate(-70.522404, -175.465931) " x="70.0224042" y="168.890931" width="1" height="13.15"></rect>
        </g>
    </g>
</svg>