<?xml version="1.0" encoding="UTF-8"?>
<svg width="396px" height="540px" viewBox="0 0 396 540" version="1.1" xmlns="http://www.w3.org/2000/svg" xmlns:xlink="http://www.w3.org/1999/xlink">
    <!-- Generator: Sketch 51.2 (57519) - http://www.bohemiancoding.com/sketch -->
    <title>Group 51</title>
    <desc>Created with Sketch.</desc>
    <defs>
        <path d="M0.46433908,0.531491228 L0.46433908,88.5707719 C0.46433908,121.091632 24.9301611,145.651649 55.10965,145.651649 C85.289139,145.651649 109.756237,121.091632 109.756237,88.5707719 L109.756237,0.531491228 L0.46433908,0.531491228 Z" id="path-1"></path>
        <linearGradient x1="49.9997952%" y1="99.0096767%" x2="49.9997952%" y2="2.84115635%" id="linearGradient-3">
            <stop stop-color="#FFFFFF" offset="0%"></stop>
            <stop stop-color="#FFFFFF" offset="100%"></stop>
        </linearGradient>
        <polygon id="path-4" points="0 541 395.565677 541 395.565677 0.259628842 0 0.259628842"></polygon>
    </defs>
    <g id="Page-1" stroke="none" stroke-width="1" fill="none" fill-rule="evenodd">
        <g id="Group-51" transform="translate(0.000000, -1.000000)">
            <g id="Group-3" transform="translate(140.000000, 188.000000)">
                <mask id="mask-2" fill="white">
                    <use xlink:href="#path-1"></use>
                </mask>
                <g id="Clip-2"></g>
                <path d="M0.46433908,0.531491228 L0.46433908,88.5707719 C0.46433908,121.091632 24.9301611,145.651649 55.10965,145.651649 C85.289139,145.651649 109.756237,121.091632 109.756237,88.5707719 L109.756237,0.531491228 L0.46433908,0.531491228 Z" id="Fill-1" fill="url(#linearGradient-3)" mask="url(#mask-2)"></path>
            </g>
            <g id="Group-50">
                <path d="M120.899439,210.887044 L120.899439,121.501822 C120.899439,79.9816702 154.516006,46.3245638 195.984871,46.3245638 C237.453735,46.3245638 271.071581,79.9816702 271.071581,121.501822 L271.071581,210.887044 L218.128935,266.821072 L174.282794,266.821072 L120.899439,210.887044 Z" id="Fill-4" fill="#FFFFFF"></path>
                <path d="M230.347579,127.988194 C222.168263,127.988194 215.538457,134.38683 215.538457,142.28057 C215.538457,150.17431 222.168263,156.574225 230.347579,156.574225 C238.526895,156.574225 245.157979,150.17431 245.157979,142.28057 C245.157979,134.38683 238.526895,127.988194 230.347579,127.988194 M230.347579,130.924686 C236.896908,130.924686 242.225025,136.018783 242.225025,142.28057 C242.225025,148.542357 236.896908,153.637733 230.347579,153.637733 C223.799528,153.637733 218.471412,148.542357 218.471412,142.28057 C218.471412,136.018783 223.799528,130.924686 230.347579,130.924686" id="Fill-6" fill="#A3CBCC"></path>
                <path d="M230.347579,136.487649 C227.032676,136.487649 224.344986,139.08138 224.344986,142.280058 C224.344986,145.480016 227.032676,148.075025 230.347579,148.075025 C233.66376,148.075025 236.35145,145.480016 236.35145,142.280058 C236.35145,139.08138 233.66376,136.487649 230.347579,136.487649 M230.347579,137.074692 C233.334186,137.074692 235.765115,139.410073 235.765115,142.280058 C235.765115,145.151323 233.334186,147.487983 230.347579,147.487983 C227.360973,147.487983 224.931321,145.151323 224.931321,142.280058 C224.931321,139.410073 227.360973,137.074692 230.347579,137.074692" id="Fill-8" fill="#A3CBCC"></path>
                <path d="M160.049021,127.988194 C151.869705,127.988194 145.238621,134.38683 145.238621,142.28057 C145.238621,150.17431 151.869705,156.574225 160.049021,156.574225 C168.228337,156.574225 174.858143,150.17431 174.858143,142.28057 C174.858143,134.38683 168.228337,127.988194 160.049021,127.988194 M160.049021,130.924686 C166.597072,130.924686 171.925188,136.018783 171.925188,142.28057 C171.925188,148.542357 166.597072,153.637733 160.049021,153.637733 C153.499692,153.637733 148.171575,148.542357 148.171575,142.28057 C148.171575,136.018783 153.499692,130.924686 160.049021,130.924686" id="Fill-10" fill="#A3CBCC"></path>
                <path d="M160.049021,136.487649 C156.73284,136.487649 154.04515,139.08138 154.04515,142.280058 C154.04515,145.480016 156.73284,148.075025 160.049021,148.075025 C163.363924,148.075025 166.051614,145.480016 166.051614,142.280058 C166.051614,139.08138 163.363924,136.487649 160.049021,136.487649 M160.049021,137.074692 C163.035627,137.074692 165.465279,139.410073 165.465279,142.280058 C165.465279,145.151323 163.035627,147.487983 160.049021,147.487983 C157.062414,147.487983 154.631485,145.151323 154.631485,142.280058 C154.631485,139.410073 157.062414,137.074692 160.049021,137.074692" id="Fill-12" fill="#A3CBCC"></path>
                <polygon id="Fill-14" fill="#A3CBCC" points="185.384206 196.403463 206.586813 196.403463 206.586813 137.515038 185.384206 137.515038"></polygon>
                <path d="M120.61649,173.065388 L128.413858,173.065388 L128.413858,123.09515 C128.413858,111.363251 139.487806,110.062549 139.487806,110.062549 L139.487806,75.9680385 L251.710374,75.9680385 L251.710374,110.062549 C251.710374,110.062549 262.784323,111.363251 262.784323,123.09515 L262.784323,173.065388 L271.070942,173.065388" id="Stroke-16" stroke="#A3CBCC" stroke-width="1.837"></path>
                <path d="M128.668065,137.515549 L262.784323,137.515549" id="Fill-18" fill="#A3CBCC"></path>
                <mask id="mask-5" fill="white">
                    <use xlink:href="#path-4"></use>
                </mask>
                <g id="Clip-21"></g>
                <polygon id="Fill-20" fill="#A3CBCC" mask="url(#mask-5)" points="128.668065 138.993515 262.784323 138.993515 262.784323 136.03656 128.668065 136.03656"></polygon>
                <path d="M208.915293,196.403847 L182.489319,196.403847 C178.718377,196.403847 175.661512,193.342017 175.661512,189.566528 L175.661512,181.27631 L215.743099,181.27631 L215.743099,189.566528 C215.743099,193.342017 212.686235,196.403847 208.915293,196.403847" id="Fill-22" fill="#A3CBCC" mask="url(#mask-5)"></path>
                <path d="M209.626688,195.66448 C209.626688,197.173653 208.404197,198.397617 206.89812,198.397617 C205.392043,198.397617 204.169552,197.173653 204.169552,195.66448 C204.169552,194.155308 205.392043,192.931343 206.89812,192.931343 C208.404197,192.931343 209.626688,194.155308 209.626688,195.66448" id="Fill-23" fill="#1D1D1B" mask="url(#mask-5)"></path>
                <path d="M187.236975,195.66448 C187.236975,197.173653 186.014485,198.397617 184.508408,198.397617 C183.001053,198.397617 181.77984,197.173653 181.77984,195.66448 C181.77984,194.155308 183.001053,192.931343 184.508408,192.931343 C186.014485,192.931343 187.236975,194.155308 187.236975,195.66448" id="Fill-24" fill="#1D1D1B" mask="url(#mask-5)"></path>
                <path d="M207.888886,237.204456 C207.888886,237.841378 207.372809,238.358077 206.735377,238.358077 L186.739932,238.358077 C186.102499,238.358077 185.586422,237.841378 185.586422,237.204456 C185.586422,236.566255 186.102499,236.049555 186.739932,236.049555 L206.735377,236.049555 C207.372809,236.049555 207.888886,236.566255 207.888886,237.204456" id="Fill-25" fill="#A3CBCC" mask="url(#mask-5)"></path>
                <g id="Group-28" mask="url(#mask-5)" fill="#A3CBCC">
                    <g transform="translate(120.077419, 180.333333)">
                        <path d="M123.337266,11.0783499 L123.477782,59.6251064 L143.576698,38.3905366 L150.711085,30.5543499 L150.569292,1.03851537 L133.517021,0.94387234 C127.90404,0.911898345 123.337266,5.45860047 123.337266,11.0783499" id="Fill-26"></path>
                        <path d="M17.6604503,1.03902695 L0.680992258,1.03902695 L0.821508387,30.5535825 L27.9245148,58.9503272 L27.7827213,11.1747835 C27.7827213,5.57677636 23.2504374,1.03902695 17.6604503,1.03902695" id="Fill-27"></path>
                    </g>
                </g>
                <path d="M274.117076,184.070198 C277.872689,184.070198 280.919334,181.021158 280.919334,177.261016 C280.919334,173.499595 277.872689,170.451834 274.117076,170.451834 L274.117076,169.933855 C281.418805,169.933855 287.338366,164.007156 287.338366,156.6979 C287.338366,149.387366 281.418805,143.460666 274.117076,143.460666" id="Stroke-29" stroke="#FFFFFF" stroke-width="1.377" mask="url(#mask-5)"></path>
                <path d="M117.853688,184.070198 C114.096797,184.070198 111.05143,181.021158 111.05143,177.261016 C111.05143,173.499595 114.096797,170.451834 117.853688,170.451834 L117.853688,169.933855 C110.551959,169.933855 104.632397,164.007156 104.632397,156.6979 C104.632397,149.387366 110.551959,143.460666 117.853688,143.460666" id="Stroke-30" stroke="#FFFFFF" stroke-width="1.377" mask="url(#mask-5)"></path>
                <polygon id="Fill-31" fill="#474747" mask="url(#mask-5)" points="185.101514 137.110887 138.126972 137.110887 138.126972 129.174941 185.101514 124.400584"></polygon>
                <polygon id="Fill-32" fill="#474747" mask="url(#mask-5)" points="253.27879 137.110887 206.304248 137.110887 206.304248 124.400584 253.27879 129.12634"></polygon>
                <path d="M282.254365,181.37236 C282.254365,182.907112 281.012714,184.15154 279.47981,184.15154 C277.946907,184.15154 276.703978,182.907112 276.703978,181.37236 C276.703978,179.838887 277.946907,178.59446 279.47981,178.59446 C281.012714,178.59446 282.254365,179.838887 282.254365,181.37236 Z" id="Stroke-33" stroke="#474747" stroke-width="0.918" mask="url(#mask-5)"></path>
                <path d="M133.50233,280.792685 C133.50233,315.186472 161.350072,343.067796 195.702434,343.067796 C230.054795,343.067796 257.902537,315.186472 257.902537,280.792685" id="Stroke-34" stroke="#474747" stroke-width="3.214" stroke-linecap="round" mask="url(#mask-5)"></path>
                <path d="M307.174006,5.83883522 L59.5156065,54.7347478" id="Stroke-35" stroke="#474747" stroke-width="8.724" stroke-linecap="round" mask="url(#mask-5)"></path>
                <path d="M228.327979,208.006954 L163.643295,208.006954 C171.717863,219.342375 183.215915,226.439323 195.984999,226.439323 C208.75536,226.439323 220.253412,219.342375 228.327979,208.006954 M224.772921,209.768082 C216.905295,219.411439 206.791966,224.678195 195.984999,224.678195 C185.179308,224.678195 175.065979,219.411439 167.198354,209.768082 L224.772921,209.768082" id="Fill-36" fill="#A3CBCC" mask="url(#mask-5)"></path>
                <path d="M156.72888,87.4736889 C170.70768,87.4736889 183.704145,91.6456558 194.576261,98.7937622 L196.829628,98.7937622 C207.700467,91.6456558 220.698209,87.4736889 234.675732,87.4736889 C248.653254,87.4736889 261.649719,91.6469348 272.520557,98.7937622 L272.684067,98.7937622 C266.392777,61.9213508 234.324441,33.8520199 195.702945,33.8520199 C157.08017,33.8520199 125.011835,61.9213508 118.720545,98.7937622 L118.884054,98.7937622 C129.75617,91.6469348 142.751357,87.4736889 156.72888,87.4736889" id="Fill-37" fill="#474747" mask="url(#mask-5)"></path>
                <path d="M213.871297,220.20708 L178.099723,220.20708" id="Stroke-38" stroke="#A3CBCC" stroke-width="0.806" stroke-linejoin="bevel" mask="url(#mask-5)"></path>
                <polygon id="Fill-39" fill="#474747" mask="url(#mask-5)" points="281.701754 277.792629 395.565805 342.140934 395.565805 541 281.701754 541"></polygon>
                <polygon id="Fill-40" fill="#474747" mask="url(#mask-5)" points="113.864179 277.792629 0.000127741935 342.140934 0.000127741935 541 113.864179 541"></polygon>
                <polygon id="Fill-41" fill="#F969A4" mask="url(#mask-5)" points="127.674232 541 135.75391 541 135.75391 334.051513 127.674232 334.051513"></polygon>
                <polygon id="Fill-42" fill="#F969A4" mask="url(#mask-5)" points="261.946335 541 267.842903 541 267.842903 306.2303 261.946335 306.2303"></polygon>
                <polygon id="Fill-43" fill="#474747" mask="url(#mask-5)" points="234.54569 541 248.741652 541 248.741652 350.92483 234.54569 350.92483"></polygon>
                <polygon id="Fill-44" fill="#474747" mask="url(#mask-5)" points="148.324994 541 168.794361 541 168.794361 360.447965 148.324994 360.447965"></polygon>
                <path d="M88.5509652,33.1141879 L88.5509652,205.578082" id="Stroke-45" stroke="#FFFFFF" stroke-width="1.837" mask="url(#mask-5)"></path>
                <path d="M93.5957497,209.59069 C93.5957497,212.380101 91.3372723,214.641302 88.5512206,214.641302 C85.7638916,214.641302 83.5054142,212.380101 83.5054142,209.59069 C83.5054142,206.8 85.7638916,204.538799 88.5512206,204.538799 C91.3372723,204.538799 93.5957497,206.8 93.5957497,209.59069 Z" id="Stroke-46" stroke="#FFFFFF" stroke-width="1.837" mask="url(#mask-5)"></path>
                <polyline id="Stroke-47" stroke="#FFFFFF" stroke-width="0.918" stroke-linejoin="bevel" mask="url(#mask-5)" points="80.9822555 236.049171 88.5509652 214.641942 95.7479458 233.864708"></polyline>
                <path d="M86.7655161,234.481678 L88.5513484,214.641174" id="Stroke-48" stroke="#FFFFFF" stroke-width="0.918" mask="url(#mask-5)"></path>
                <path d="M91.6874129,231.647759 L88.3648452,215.165804" id="Stroke-49" stroke="#FFFFFF" stroke-width="0.918" mask="url(#mask-5)"></path>
            </g>
        </g>
    </g>
</svg>