<svg xmlns="http://www.w3.org/2000/svg" xmlns:xlink="http://www.w3.org/1999/xlink" viewBox="0 0 600 750"><defs><style>.cls-1{fill:#40bdac;}.cls-2{fill:#ee2375;}.cls-3{fill:url(#linear-gradient);}.cls-10,.cls-12,.cls-13,.cls-4{fill:none;stroke:#fff;}.cls-10,.cls-12,.cls-4{stroke-miterlimit:10;}.cls-13,.cls-4{stroke-width:2.61px;}.cls-5{fill:#fbbc23;}.cls-6{fill:url(#linear-gradient-2);}.cls-7{fill:#fff;}.cls-8{fill:#fcc74a;}.cls-9{fill:url(#linear-gradient-3);}.cls-10{stroke-linecap:round;stroke-width:1.31px;}.cls-11{fill:#474747;}.cls-12{stroke-width:0.65px;}.cls-13{stroke-linejoin:bevel;}</style><linearGradient id="linear-gradient" x1="485.35" y1="540.95" x2="535.86" y2="617.77" gradientUnits="userSpaceOnUse"><stop offset="0" stop-color="#fff"/><stop offset="1" stop-color="#fff" stop-opacity="0"/></linearGradient><linearGradient id="linear-gradient-2" x1="541.06" y1="629.15" x2="575.59" y2="681.67" xlink:href="#linear-gradient"/><linearGradient id="linear-gradient-3" x1="3009.37" y1="-1305.56" x2="3118.94" y2="-1305.56" gradientTransform="translate(-2038.94 3079.86) rotate(-27.52)" gradientUnits="userSpaceOnUse"><stop offset="0" stop-color="#f969a4"/><stop offset="1" stop-color="#f969a4" stop-opacity="0"/></linearGradient></defs><title>Nail Technology</title><g id="Layer_2" data-name="Layer 2"><g id="Layer_1-2" data-name="Layer 1"><rect class="cls-1" width="600" height="750"/><circle class="cls-2" cx="515.36" cy="573.4" r="32.16"/><path class="cls-3" d="M483.19,573.4a32.16,32.16,0,0,0,32.17,32.16V541.24A32.16,32.16,0,0,0,483.19,573.4Z"/><path class="cls-2" d="M515.36,543.85a29.55,29.55,0,1,1-29.55,29.55,29.58,29.58,0,0,1,29.55-29.55m0-2.61a32.16,32.16,0,1,0,32.16,32.16,32.16,32.16,0,0,0-32.16-32.16Z"/><circle class="cls-2" cx="515.36" cy="573.4" r="11.81"/><circle class="cls-4" cx="515.36" cy="573.4" r="11.81"/><circle class="cls-2" cx="503.55" cy="589.47" r="4.26"/><circle class="cls-5" cx="561.57" cy="651.33" r="21.99"/><path class="cls-6" d="M539.59,651.33a22,22,0,0,0,22,22v-44A22,22,0,0,0,539.59,651.33Z"/><path class="cls-5" d="M561.57,632a19.38,19.38,0,1,1-19.37,19.37A19.39,19.39,0,0,1,561.57,632m0-2.61a22,22,0,1,0,22,22,22,22,0,0,0-22-22Z"/><circle class="cls-2" cx="561.57" cy="651.33" r="8.07"/><circle class="cls-7" cx="561.57" cy="651.33" r="8.07"/><circle class="cls-2" cx="468.54" cy="603.29" r="4.26"/><circle class="cls-2" cx="483.19" cy="630.54" r="2.13"/><rect class="cls-8" x="64.14" y="400.54" width="22.19" height="211.27" rx="11.1" ry="11.1" transform="translate(-204.4 77.6) rotate(-24.67)"/><rect class="cls-9" x="64.14" y="400.54" width="22.19" height="211.27" rx="11.1" ry="11.1" transform="translate(-204.4 77.6) rotate(-24.67)"/><path class="cls-10" d="M20,280.5a9.79,9.79,0,0,1,19.58,0"/><path class="cls-10" d="M61.39,321a9.79,9.79,0,0,1,13.85-13.85"/><path class="cls-10" d="M38.15,345.74A9.79,9.79,0,1,1,24.31,331.9"/><path class="cls-10" d="M398,659a7.61,7.61,0,0,1,14.11,5.68"/><path class="cls-10" d="M374.31,612.08a9.79,9.79,0,1,1-13.85-13.84"/><path class="cls-10" d="M358.78,679.65a6.24,6.24,0,1,1-8.83,8.83"/><path class="cls-11" d="M217.1,225.26H196.86V0h-91V402.21a12.35,12.35,0,0,0,12.35,12.36h0a12.36,12.36,0,0,0,12.36-12.36V332.79H139v80.87A12.35,12.35,0,0,0,151.39,426h0a12.35,12.35,0,0,0,12.35-12.35V332.79h8.42v96.9a12.35,12.35,0,0,0,12.35,12.36h0a12.35,12.35,0,0,0,12.35-12.36v-96.9h8.42v90.73a12.35,12.35,0,0,0,12.35,12.35h0A12.35,12.35,0,0,0,230,423.52v-96h0V284.17h15.28v44a14.88,14.88,0,0,0,14.88,14.88h0A14.89,14.89,0,0,0,275,328.2V283.14a57.89,57.89,0,0,0-57.88-57.88Z"/><path class="cls-2" d="M125.32,409.38H111.07V397.72a7.13,7.13,0,0,1,7.13-7.12h0a7.12,7.12,0,0,1,7.12,7.12Z"/><path class="cls-2" d="M158.12,420.46H143.88V408.8a7.12,7.12,0,0,1,7.12-7.12h0a7.12,7.12,0,0,1,7.12,7.12Z"/><path class="cls-2" d="M191.51,434.86H177.26V423.21a7.13,7.13,0,0,1,7.13-7.13h0a7.13,7.13,0,0,1,7.12,7.13Z"/><path class="cls-2" d="M225.13,429H210.88V417.33a7.12,7.12,0,0,1,7.12-7.12h0a7.13,7.13,0,0,1,7.13,7.12Z"/><path class="cls-2" d="M275,308.48h0a0,0,0,0,1,0,0v24.06a0,0,0,0,1,0,0H259.79a0,0,0,0,1,0,0v-8.87A15.19,15.19,0,0,1,275,308.48Z"/><path class="cls-11" d="M403.9,263.28h20.24V0h90.94V440.23a12.35,12.35,0,0,1-12.35,12.36h0a12.35,12.35,0,0,1-12.35-12.36V370.81H482v80.87A12.35,12.35,0,0,1,469.61,464h0a12.35,12.35,0,0,1-12.35-12.35V370.81h-8.42v96.9a12.35,12.35,0,0,1-12.35,12.36h0a12.35,12.35,0,0,1-12.35-12.36v-96.9h-8.42v90.73a12.35,12.35,0,0,1-12.35,12.35h0A12.35,12.35,0,0,1,391,461.54v-96h.06V322.19H375.78v44A14.88,14.88,0,0,1,360.9,381.1h0A14.88,14.88,0,0,1,346,366.22V321.16a57.87,57.87,0,0,1,57.88-57.88Z"/><path class="cls-12" d="M463.27,456.35V444.69a7.13,7.13,0,0,1,7.13-7.12h0a7.12,7.12,0,0,1,7.12,7.12"/><path class="cls-12" d="M495.64,442.37v-5.23a7.13,7.13,0,0,1,7.13-7.13h0a7.13,7.13,0,0,1,7.12,7.13"/><path class="cls-12" d="M429.61,459a7.13,7.13,0,0,1,7.13-7.13h0a7.13,7.13,0,0,1,7.12,7.13v11.65"/><path class="cls-2" d="M346,346.5h15.19a0,0,0,0,1,0,0v24.06a0,0,0,0,1,0,0h0A15.19,15.19,0,0,1,346,355.37V346.5A0,0,0,0,1,346,346.5Z" transform="translate(707.22 717.06) rotate(180)"/><rect class="cls-7" x="312.06" y="463.98" width="39.22" height="23.21"/><path class="cls-7" d="M391,477.83H351.29a2.25,2.25,0,1,1,0-4.49H391a2.25,2.25,0,1,1,0,4.49Z"/><path class="cls-7" d="M386.65,477.1a23,23,0,0,0,23-23H397.38v12.25a10.73,10.73,0,0,1-10.73,10.73h0"/><path class="cls-2" d="M397.38,466.37c0,.17-.05.33-.05.5l9.45-1.67a22.91,22.91,0,0,0,2.85-11.08H397.38Z"/><path class="cls-13" d="M248.14,750V578.52l51.71-26.12-.22,0A60.27,60.27,0,0,0,332.05,499,12,12,0,1,0,308,499a36.17,36.17,0,1,1-16.57-30.43,36.85,36.85,0,0,1,3.55,2.62,12,12,0,0,0,15.39-18.48,61.61,61.61,0,0,0-5.87-4.33,60.17,60.17,0,0,0-50.95-6.78L300,395.13A12.84,12.84,0,0,0,300,377l-.5-.5a12.84,12.84,0,0,0-18.14,0l-37.3,37.3,21.67-34a12.84,12.84,0,0,0-3.93-17.72h0A12.83,12.83,0,0,0,244.09,366l-23.16,36.33,7.41-27.11a12.83,12.83,0,1,0-24.75-6.76l-11.37,41.61v-7.61a12.33,12.33,0,1,0-24.65,0V750"/></g></g></svg>