<svg xmlns="http://www.w3.org/2000/svg" xmlns:xlink="http://www.w3.org/1999/xlink" viewBox="0 0 600 750"><defs><style>.cls-1{isolation:isolate;}.cls-2,.cls-30,.cls-40,.cls-41{fill:#fcc74a;}.cls-10,.cls-15,.cls-24,.cls-25,.cls-28,.cls-29,.cls-3,.cls-31,.cls-33,.cls-34,.cls-5,.cls-7,.cls-8{fill:#fff;}.cls-3{opacity:0.16;}.cls-4{fill:#f0468a;}.cls-5{opacity:0.29;}.cls-6{fill:#a3cbcc;}.cls-18,.cls-30,.cls-7{opacity:0.5;}.cls-8{opacity:0.45;}.cls-17,.cls-19,.cls-22,.cls-9{fill:#ee2375;}.cls-9{opacity:0.4;}.cls-10{opacity:0.81;}.cls-11{fill:url(#linear-gradient);}.cls-12,.cls-13{fill:#474747;}.cls-13{opacity:0.31;}.cls-14{opacity:0.58;}.cls-16{fill:url(#linear-gradient-2);}.cls-18{fill:url(#linear-gradient-3);}.cls-19,.cls-31{opacity:0.22;}.cls-20{opacity:0.38;}.cls-21,.cls-23{opacity:0.6;}.cls-21,.cls-37,.cls-38{mix-blend-mode:multiply;}.cls-22{opacity:0.42;}.cls-24{opacity:0.28;}.cls-25{opacity:0.15;}.cls-26{opacity:0.65;}.cls-27,.cls-34{opacity:0.76;}.cls-27{fill:url(#linear-gradient-4);}.cls-28{opacity:0.19;}.cls-29{opacity:0.23;}.cls-32,.cls-40{opacity:0.52;}.cls-32{fill:url(#linear-gradient-5);}.cls-33{opacity:0.41;}.cls-35{fill:url(#linear-gradient-6);}.cls-36{fill:#fbbc23;}.cls-37{fill:url(#linear-gradient-7);}.cls-38{fill:url(#linear-gradient-8);}.cls-39{fill:url(#linear-gradient-9);}.cls-41{opacity:0.79;}.cls-42{fill:url(#linear-gradient-10);}</style><linearGradient id="linear-gradient" x1="411.46" y1="535.47" x2="504.57" y2="635.05" gradientUnits="userSpaceOnUse"><stop offset="0" stop-color="#fcc74a"/><stop offset="1" stop-color="#fcc74a" stop-opacity="0"/></linearGradient><linearGradient id="linear-gradient-2" x1="272.7" y1="404.17" x2="325.22" y2="586.84" gradientUnits="userSpaceOnUse"><stop offset="0" stop-color="#fff"/><stop offset="1" stop-color="#fff" stop-opacity="0"/></linearGradient><linearGradient id="linear-gradient-3" x1="156.81" y1="470.5" x2="178.38" y2="325.05" xlink:href="#linear-gradient-2"/><linearGradient id="linear-gradient-4" x1="480.6" y1="461.52" x2="480.6" y2="585.41" gradientUnits="userSpaceOnUse"><stop offset="0" stop-color="#474747"/><stop offset="1" stop-color="#474747" stop-opacity="0"/></linearGradient><linearGradient id="linear-gradient-5" x1="92.67" y1="471.82" x2="69.77" y2="569.73" xlink:href="#linear-gradient"/><linearGradient id="linear-gradient-6" x1="519.58" y1="530.16" x2="589.51" y2="584.1" xlink:href="#linear-gradient-2"/><linearGradient id="linear-gradient-7" x1="515.18" y1="576.82" x2="543.55" y2="577.22" xlink:href="#linear-gradient"/><linearGradient id="linear-gradient-8" x1="498.55" y1="576.82" x2="526.92" y2="577.22" xlink:href="#linear-gradient"/><linearGradient id="linear-gradient-9" x1="273.94" y1="583.43" x2="271.55" y2="525.85" xlink:href="#linear-gradient"/><linearGradient id="linear-gradient-10" x1="467.3" y1="540.63" x2="436.45" y2="587.88" gradientUnits="userSpaceOnUse"><stop offset="0" stop-color="#fff"/><stop offset="1" stop-color="#fff" stop-opacity="0.3"/></linearGradient></defs><title>Nutrition</title><g class="cls-1"><g id="Layer_2" data-name="Layer 2"><g id="Layer_1-2" data-name="Layer 1"><rect class="cls-2" width="600" height="750"/><rect class="cls-3" x="168.4" y="566.41" width="129.18" height="54.49"/><rect class="cls-3" x="329.78" y="154.22" width="98.2" height="417.98"/><path class="cls-4" d="M507.16,584.13H437.91a10,10,0,0,1-10-10V348.45a44,44,0,0,1,17.25-34.79A24.87,24.87,0,0,0,455,294V224.87H452V211.45H455v-8.22h35.15v8.22H493v13.42h-2.93V294a24.88,24.88,0,0,0,9.76,19.68h0a44,44,0,0,1,17.24,34.79V574.18A10,10,0,0,1,507.16,584.13Zm-54-360.35h2.93V294a26,26,0,0,1-10.19,20.55,42.85,42.85,0,0,0-16.81,33.92V574.18a8.87,8.87,0,0,0,8.85,8.86h69.25a8.88,8.88,0,0,0,8.86-8.86V348.45a42.86,42.86,0,0,0-16.82-33.92A26,26,0,0,1,489,294v-70.2H492V212.54H489v-8.21H456.06v8.21h-2.93Z"/><rect class="cls-5" x="24.34" y="413.03" width="170.06" height="170.06"/><rect class="cls-6" x="310.32" y="319.8" width="179.83" height="263.78"/><polygon class="cls-7" points="310.32 493.61 490.16 411.36 490.16 353.36 310.32 435.62 310.32 493.61"/><circle class="cls-7" cx="330.48" cy="340.49" r="8.39"/><rect class="cls-2" x="311.12" y="476.35" width="179.03" height="2.4"/><path class="cls-8" d="M379.39,344.27c-3.09,0-6.73-1.1-10.5-2.23-7.38-2.22-15.73-4.74-21.66.44l-.73-.84c6.38-5.59,15.06-3,22.71-.68,6.24,1.88,11.63,3.5,14.76.68l.75.84A7.62,7.62,0,0,1,379.39,344.27Z"/><rect class="cls-9" x="327.87" y="408.42" width="148.2" height="5.59" transform="translate(-135.68 207.24) rotate(-24.88)"/><rect class="cls-9" x="369.53" y="419.09" width="109.92" height="8.79" transform="translate(-138.75 217.84) rotate(-24.87)"/><path class="cls-10" d="M435.05,512.11a19.79,19.79,0,0,0-27.2-2.79L360,447.69a5.77,5.77,0,1,0-8.67,7.6l54.84,55.48a19.79,19.79,0,1,0,28.85,1.34Z"/><path class="cls-7" d="M437.79,484.66a78.62,78.62,0,0,1,52.37,19.93v4a76,76,0,0,0-125.74,75h-3a79,79,0,0,1,76.4-98.92Z"/><path class="cls-11" d="M490.16,541.8a14.46,14.46,0,0,0-17.27,4.07,18,18,0,0,0-6.17-8,18.1,18.1,0,1,0-26.52-24.18,18,18,0,0,0-3,7.6c-.16-.13-.32-.26-.49-.38a9.83,9.83,0,0,0-11.29,16.1,14.4,14.4,0,0,0-8.78,13.48,9.86,9.86,0,0,0-9.36,1.9,14.2,14.2,0,0,0-4.11-4.4,14.46,14.46,0,0,0-19,21.55,9.81,9.81,0,0,0-6.76,14H395a9.82,9.82,0,0,0-.25-9.2,14.56,14.56,0,0,0,7.77-2.18,18.22,18.22,0,0,0,.65,11.38h87Z"/><polygon class="cls-2" points="310.03 429.89 309.39 428.5 417.82 378.41 396.43 374.25 416.3 361.79 405.44 341 427.57 348.77 437.06 327.32 444.78 349.46 467.46 343.51 455.98 361.74 489.83 345.79 490.48 347.17 451.91 365.34 464.12 345.96 443.8 351.29 436.89 331.46 428.39 350.67 408.58 343.71 418.3 362.33 400.5 373.49 422.74 377.81 310.03 429.89"/><path class="cls-12" d="M352.23,361.5a29,29,0,0,0-7.62,9.74l-.31-.06a29.14,29.14,0,0,0-3.92-11.72,24.63,24.63,0,0,0-9-8.34,29.09,29.09,0,0,0,4,12.33A24.8,24.8,0,0,0,343,371L309.79,563.89l2.88.5,33.21-192.87a24.84,24.84,0,0,0,9.78-4.56,29.2,29.2,0,0,0,7.88-10.29A24.5,24.5,0,0,0,352.23,361.5Z"/><path class="cls-12" d="M355.19,344.33a29.2,29.2,0,0,0-7.88,10.29,24.67,24.67,0,0,0,11.31-4.83,29.1,29.1,0,0,0,7.87-10.29A24.61,24.61,0,0,0,355.19,344.33Z"/><path class="cls-12" d="M358.14,327.17a29.17,29.17,0,0,0-7.87,10.28,24.54,24.54,0,0,0,11.31-4.83,29.25,29.25,0,0,0,7.87-10.29A24.62,24.62,0,0,0,358.14,327.17Z"/><path class="cls-12" d="M361.1,310a29,29,0,0,0-7.87,10.29,24.56,24.56,0,0,0,11.3-4.84,29.2,29.2,0,0,0,7.88-10.29A24.62,24.62,0,0,0,361.1,310Z"/><path class="cls-12" d="M334.3,334a29.16,29.16,0,0,0,4,12.33,24.63,24.63,0,0,0,9,8.34,29.09,29.09,0,0,0-4-12.33A24.57,24.57,0,0,0,334.3,334Z"/><path class="cls-12" d="M337.25,316.78a29.22,29.22,0,0,0,4,12.33,24.55,24.55,0,0,0,9,8.34,29.09,29.09,0,0,0-4-12.33A24.66,24.66,0,0,0,337.25,316.78Z"/><path class="cls-12" d="M340.21,299.62a29.09,29.09,0,0,0,4,12.33,24.66,24.66,0,0,0,9,8.34,29.22,29.22,0,0,0-4-12.33A24.63,24.63,0,0,0,340.21,299.62Z"/><path class="cls-12" d="M356.18,303.12a24.62,24.62,0,0,0,11.31-4.84A29.11,29.11,0,0,0,375.37,288a24.58,24.58,0,0,0-11.31,4.84,25.91,25.91,0,0,0-5,5.3,28.9,28.9,0,0,0,2.28-7.15,30.42,30.42,0,0,0-.83-13.17A30.39,30.39,0,0,0,355.36,290a28.39,28.39,0,0,0-.24,7.5,26.54,26.54,0,0,0-2.91-6.66,24.63,24.63,0,0,0-9-8.34,29.09,29.09,0,0,0,4,12.33A24.57,24.57,0,0,0,356.18,303.12Z"/><rect class="cls-13" x="309.34" y="349.58" width="95.53" height="0.25" transform="translate(-93.95 565.05) rotate(-69.92)"/><rect class="cls-13" x="289.83" y="318.04" width="115.96" height="0.25" transform="translate(5.41 642.15) rotate(-85.87)"/><rect class="cls-13" x="309.62" y="299.97" width="108.27" height="0.25" transform="translate(-15.17 580.78) rotate(-76.05)"/><rect class="cls-13" x="339.01" y="309.95" width="0.25" height="61.73" transform="translate(-53.64 63.51) rotate(-9.92)"/><rect class="cls-13" x="295.04" y="325.26" width="117.7" height="0.25" transform="translate(-34.05 609.3) rotate(-78.8)"/><g class="cls-14"><path class="cls-12" d="M311.93,376.29a27.31,27.31,0,0,1,6.75,9.41l.29,0a27.11,27.11,0,0,1,4.13-10.82,23,23,0,0,1,8.78-7.45,27.3,27.3,0,0,1-4.21,11.38,23.16,23.16,0,0,1-7.49,6.79l23.55,181.76-2.72.35L317.47,385.91a23.35,23.35,0,0,1-9-4.65,27.34,27.34,0,0,1-7-9.94A23,23,0,0,1,311.93,376.29Z"/><path class="cls-12" d="M309.83,360.11a27.35,27.35,0,0,1,7,9.93,23.1,23.1,0,0,1-10.4-5,27.34,27.34,0,0,1-7-9.94A23,23,0,0,1,309.83,360.11Z"/><path class="cls-12" d="M307.73,343.93a27.21,27.21,0,0,1,7,9.93,23,23,0,0,1-10.39-5,27.43,27.43,0,0,1-7-9.94A23.13,23.13,0,0,1,307.73,343.93Z"/><path class="cls-12" d="M305.64,327.75a27.34,27.34,0,0,1,7,9.94,23.13,23.13,0,0,1-10.39-5,27.34,27.34,0,0,1-7-9.94A23.13,23.13,0,0,1,305.64,327.75Z"/><path class="cls-12" d="M329.78,351.21a27.36,27.36,0,0,1-4.2,11.38A23.08,23.08,0,0,1,316.8,370a27.2,27.2,0,0,1,4.2-11.38A23,23,0,0,1,329.78,351.21Z"/><path class="cls-12" d="M327.69,335a27.3,27.3,0,0,1-4.21,11.38,23,23,0,0,1-8.78,7.45,27.36,27.36,0,0,1,4.2-11.38A23.07,23.07,0,0,1,327.69,335Z"/><path class="cls-12" d="M325.59,318.85a27.43,27.43,0,0,1-4.2,11.39,23.07,23.07,0,0,1-8.79,7.45,27.32,27.32,0,0,1,4.21-11.39A23,23,0,0,1,325.59,318.85Z"/><path class="cls-12" d="M310.51,321.51a23,23,0,0,1-10.39-5,27.21,27.21,0,0,1-7-9.93,23,23,0,0,1,10.39,5,24.38,24.38,0,0,1,4.45,5.16,26.75,26.75,0,0,1-1.86-6.78,28.54,28.54,0,0,1,1.29-12.3,28.53,28.53,0,0,1,4.37,11.56,26.81,26.81,0,0,1-.06,7,24.53,24.53,0,0,1,3-6.12,23.08,23.08,0,0,1,8.78-7.45,27.22,27.22,0,0,1-4.2,11.39A23.08,23.08,0,0,1,310.51,321.51Z"/><rect class="cls-13" x="307.7" y="320.33" width="0.23" height="89.46" transform="translate(-96.36 110.78) rotate(-17.69)"/><rect class="cls-13" x="317.64" y="281.62" width="0.23" height="108.6" transform="translate(-10.05 9.8) rotate(-1.74)"/><rect class="cls-13" x="303.42" y="267.68" width="0.23" height="101.4" transform="translate(-57.63 67.27) rotate(-11.56)"/><rect class="cls-13" x="296.08" y="357.32" width="57.8" height="0.23" transform="translate(-93.53 598.74) rotate(-77.69)"/><rect class="cls-13" x="311.66" y="287.31" width="0.23" height="110.23" transform="translate(-48.78 51.81) rotate(-8.81)"/></g><path class="cls-15" d="M331.77,580.51H272a15.29,15.29,0,0,1-15.27-15.27V452.4a59.88,59.88,0,0,1,7.69-29.33l20.11-35.69a.84.84,0,0,0,0-.85.85.85,0,0,0-.74-.43h-.25a7,7,0,0,1-7-7.23,7.18,7.18,0,0,1,7.25-6.79h36.42a7,7,0,0,1,7,7.22,7.19,7.19,0,0,1-7.25,6.8.82.82,0,0,0-.74.43.81.81,0,0,0,0,.85l20.11,35.69h0A59.78,59.78,0,0,1,347,452.4V565.24A15.29,15.29,0,0,1,331.77,580.51Zm-48-205.95A4.69,4.69,0,0,0,279,379a4.54,4.54,0,0,0,4.52,4.67h.25a3.34,3.34,0,0,1,2.91,5L266.6,424.29a57.31,57.31,0,0,0-7.38,28.11V565.24A12.81,12.81,0,0,0,272,578h59.76a12.8,12.8,0,0,0,12.78-12.79V452.4a57.41,57.41,0,0,0-7.37-28.11h0L317.07,388.6a3.33,3.33,0,0,1,2.91-5,4.69,4.69,0,0,0,4.76-4.39,4.53,4.53,0,0,0-4.52-4.67Z"/><path class="cls-4" d="M321.3,371.31H284.53a8.44,8.44,0,0,0-8.17,8.74l51.05-2.25-.12-1.42A6.15,6.15,0,0,0,321.3,371.31Z"/><path class="cls-16" d="M265.52,423.68A58.46,58.46,0,0,0,258,452.4V565.24a14,14,0,0,0,14,14h59.76a14,14,0,0,0,14-14V452.4a58.45,58.45,0,0,0-7.53-28.72l-10-17.73H275.51Z"/><path class="cls-6" d="M240.49,257.37H107.31V244.19H240.49Zm-131.58-1.6h130v-10h-130Z"/><rect class="cls-15" x="150.64" y="213.02" width="49.21" height="24.01"/><path class="cls-15" d="M202.07,214.43H148.41a1.42,1.42,0,1,1,0-2.83h53.66a1.42,1.42,0,1,1,0,2.83Z"/><path class="cls-6" d="M101.69,245v4.25l145.38-.72V245a20.22,20.22,0,0,0-20.22-20.22H121.9A20.21,20.21,0,0,0,101.69,245Z"/><rect class="cls-6" x="104.54" y="479.26" width="142.53" height="94.99" rx="20.02" ry="20.02"/><path class="cls-17" d="M110.87,317.16l12.79,136.55a21.84,21.84,0,0,0,21.75,19.87h60.78a21.84,21.84,0,0,0,21.75-19.87L239.69,327.3C192.2,352.28,156.89,301.15,110.87,317.16Z"/><path class="cls-18" d="M110.87,317.16l12.79,136.55a21.84,21.84,0,0,0,21.75,19.87h60.78a21.84,21.84,0,0,0,21.75-19.87L239.69,327.3C192.2,352.28,156.89,301.15,110.87,317.16Z"/><circle class="cls-19" cx="149.56" cy="466.33" r="7.26"/><path class="cls-15" d="M206.19,475.15H145.41a23.29,23.29,0,0,1-23.31-21.3L107.24,295.16l-23.4-46.53a1.56,1.56,0,0,1,1.4-2.27H247.07a1.56,1.56,0,0,1,1.16.51,1.6,1.6,0,0,1,.4,1.2L229.5,453.86A23.28,23.28,0,0,1,206.19,475.15ZM87.78,249.5,110.17,294a1.43,1.43,0,0,1,.16.56l14.89,159A20.19,20.19,0,0,0,145.41,472h60.78a20.17,20.17,0,0,0,20.19-18.44l19-204.07Z"/><path class="cls-15" d="M175.8,547.3a20.55,20.55,0,1,1,20.55-20.55A20.57,20.57,0,0,1,175.8,547.3Zm0-38a17.41,17.41,0,1,0,17.41,17.41A17.43,17.43,0,0,0,175.8,509.34Z"/><path class="cls-15" d="M170.67,517.55a.79.79,0,0,1-.71-.44l-3.53-6.88a.79.79,0,0,1,.34-1.07.8.8,0,0,1,1.08.34l3.53,6.88a.81.81,0,0,1-.35,1.08A.77.77,0,0,1,170.67,517.55Z"/><circle class="cls-17" cx="175.8" cy="497.58" r="1.65"/><circle class="cls-17" cx="153.85" cy="506.12" r="1.65"/><circle class="cls-17" cx="197.75" cy="506.12" r="1.65"/><path class="cls-15" d="M223.09,535.35H208.7a.8.8,0,0,1-.8-.8V520.17a.8.8,0,0,1,.8-.8h14.39a.8.8,0,0,1,.8.8v14.38A.8.8,0,0,1,223.09,535.35Zm-13.59-1.6h12.79V521H209.5Z"/><path class="cls-15" d="M142.9,535.35H128.52a.8.8,0,0,1-.8-.8V520.17a.8.8,0,0,1,.8-.8H142.9a.8.8,0,0,1,.8.8v14.38A.8.8,0,0,1,142.9,535.35Zm-13.58-1.6H142.1V521H129.32Z"/><g class="cls-20"><polygon class="cls-15" points="158.6 558.05 158.16 558.05 133.76 582.45 133.76 582.9 158.6 558.05"/><polygon class="cls-15" points="148.16 577.26 148.16 576.81 141.39 583.58 141.84 583.58 148.16 577.26"/><polygon class="cls-15" points="167.36 558.05 166.91 558.05 150.72 574.25 151.17 574.25 167.36 558.05"/><polygon class="cls-15" points="149.85 558.05 149.4 558.05 133.21 574.25 133.66 574.25 149.85 558.05"/><path class="cls-15" d="M114.38,558.06l-6.79,6.78.17.28,7.07-7.06Z"/><polygon class="cls-15" points="176.12 558.05 175.67 558.05 159.48 574.25 159.93 574.25 176.12 558.05"/><path class="cls-15" d="M140.65,558.06l-16.19,16.18h.44l16.19-16.19Z"/><path class="cls-15" d="M123.58,558.06h-.45l-11.47,11.47.24.2Z"/><path class="cls-15" d="M132.34,558.06h-.45l-14.76,14.76.32.12Z"/><polygon class="cls-15" points="236.96 558.05 220.77 574.25 221.22 574.25 237.41 558.05 236.96 558.05"/><polygon class="cls-15" points="228.65 558.05 228.21 558.05 203.44 582.82 203.44 583.26 228.65 558.05"/><polygon class="cls-15" points="203.44 574.51 219.9 558.05 219.45 558.05 203.26 574.25 203.44 574.25 203.44 574.51"/><polygon class="cls-15" points="184.87 558.05 184.43 558.05 168.24 574.25 168.68 574.25 184.87 558.05"/><path class="cls-15" d="M246.17,558.06h-.45l-16,16,.53-.08Z"/><polygon class="cls-15" points="217.84 577.62 217.84 577.18 211.44 583.58 211.88 583.58 217.84 577.62"/><polygon class="cls-15" points="211.14 558.05 210.69 558.05 194.5 574.25 194.95 574.25 211.14 558.05"/><polygon class="cls-15" points="193.63 558.05 193.18 558.05 176.99 574.25 177.44 574.25 193.63 558.05"/><polygon class="cls-15" points="202.39 558.05 201.94 558.05 185.75 574.25 186.19 574.25 202.39 558.05"/></g><rect class="cls-6" x="133.76" y="574.07" width="14.4" height="9.51"/><rect class="cls-6" x="203.44" y="574.07" width="14.4" height="9.51"/><g class="cls-21"><path class="cls-6" d="M104.91,558.06a20,20,0,0,0,19.65,16.19h9.2v9.33h14.4v-9.33h55.28v9.33h14.4v-9.33h9.21a20,20,0,0,0,19.65-16.19Z"/></g><path class="cls-15" d="M256.18,377.91H235.09V365.13h21.09A11.18,11.18,0,0,0,267.35,354v-50.4a11.18,11.18,0,0,0-11.17-11.17H243.62V279.61h12.56a24,24,0,0,1,24,23.95V354A24,24,0,0,1,256.18,377.91Z"/><path class="cls-17" d="M249.57,559.65H102a1.6,1.6,0,1,1,0-3.19H249.57a1.6,1.6,0,1,1,0,3.19Z"/><circle class="cls-22" cx="161.04" cy="429.81" r="3.3"/><g class="cls-23"><path class="cls-24" d="M175.24,439.9a6.8,6.8,0,0,1-6.79-6.79V286A6.79,6.79,0,1,1,182,286V433.11A6.8,6.8,0,0,1,175.24,439.9Zm0-158.29a4.4,4.4,0,0,0-4.39,4.39V433.11a4.4,4.4,0,0,0,8.79,0V286A4.4,4.4,0,0,0,175.24,281.61Z"/><path class="cls-24" d="M207.68,439.91h-.32a6.8,6.8,0,0,1-6.48-7.09l6.9-147a6.76,6.76,0,0,1,2.21-4.7,6.68,6.68,0,0,1,4.89-1.77,6.81,6.81,0,0,1,6.48,7.09l-6.91,147a6.79,6.79,0,0,1-6.77,6.49Zm-.21-2.41a4.39,4.39,0,0,0,4.59-4.19L219,286.36a4.39,4.39,0,1,0-8.78-.4l-6.9,147a4.39,4.39,0,0,0,4.19,4.58Z"/><path class="cls-24" d="M142.81,439.91a6.79,6.79,0,0,1-6.78-6.49l-6.9-146.95a6.79,6.79,0,0,1,13.57-.61l6.9,146.94a6.8,6.8,0,0,1-6.48,7.1h-.31Zm-6.9-158.14h-.2a4.4,4.4,0,0,0-4.19,4.59l6.9,147A4.39,4.39,0,0,0,143,437.5h0a4.39,4.39,0,0,0,4.19-4.58L140.3,286A4.39,4.39,0,0,0,135.91,281.77Z"/></g><circle class="cls-17" cx="232.71" cy="292.11" r="2.37"/><circle class="cls-5" cx="199.77" cy="449.38" r="2.3"/><circle class="cls-5" cx="197.47" cy="380.05" r="1.15"/><circle class="cls-5" cx="153.85" cy="345.28" r="1.15"/><circle class="cls-17" cx="204.53" cy="303.35" r="4.18"/><circle class="cls-22" cx="154.2" cy="276.84" r="3.56"/><circle class="cls-22" cx="191.91" cy="313.99" r="1.78"/><circle class="cls-25" cx="159.55" cy="358.15" r="1.78"/><circle class="cls-25" cx="126.38" cy="387.64" r="3.93"/><path class="cls-22" d="M118,267.36a3.07,3.07,0,1,1,3.07-3.07A3.07,3.07,0,0,1,118,267.36Zm0-5.35a2.28,2.28,0,1,0,2.27,2.28A2.28,2.28,0,0,0,118,262Z"/><g class="cls-26"><rect class="cls-15" x="186.68" y="297.7" width="0.8" height="138.5"/><rect class="cls-15" x="187.08" y="307.95" width="4.84" height="0.8"/><rect class="cls-15" x="187.08" y="318.78" width="8.83" height="0.8"/><rect class="cls-15" x="187.08" y="329.61" width="4.84" height="0.8"/><rect class="cls-15" x="187.08" y="340.43" width="8.83" height="0.8"/><rect class="cls-15" x="187.08" y="351.26" width="4.84" height="0.8"/><rect class="cls-15" x="187.08" y="362.09" width="8.83" height="0.8"/><rect class="cls-15" x="187.08" y="372.92" width="4.84" height="0.8"/><rect class="cls-15" x="187.08" y="383.75" width="8.83" height="0.8"/><rect class="cls-15" x="187.08" y="394.58" width="4.84" height="0.8"/><rect class="cls-15" x="187.08" y="405.41" width="8.83" height="0.8"/><rect class="cls-15" x="187.08" y="416.24" width="4.84" height="0.8"/><rect class="cls-15" x="187.08" y="427.06" width="8.83" height="0.8"/></g><polygon class="cls-15" points="487.49 468 462.09 573.34 466.17 574.32 491.81 468 487.49 468"/><path class="cls-15" d="M511.08,394.83a9.83,9.83,0,0,0-5,6.39L490,468h4.32l15.87-65.79a5.65,5.65,0,0,1,7.48-4L554.13,412l1.48-3.93-36.45-13.72A9.87,9.87,0,0,0,511.08,394.83Z"/><path class="cls-27" d="M451,468V575.84a6.54,6.54,0,0,0,6.55,6.54h46.13a6.54,6.54,0,0,0,6.55-6.54V468Z"/><path class="cls-2" d="M511.17,400.15a5.39,5.39,0,0,1,.55-.63l-3.25-2.68a8.14,8.14,0,0,0-.54.63Z"/><path class="cls-2" d="M510.22,395.34l2.26,3.55a4.73,4.73,0,0,1,.56-.35l.16-.07L511,394.91C510.7,395,510.46,395.19,510.22,395.34Z"/><path class="cls-2" d="M513.88,393.86c-.28.05-.55.11-.82.18l1,4.07a5.82,5.82,0,0,1,.83-.17Z"/><path class="cls-2" d="M510.32,401.78a6.71,6.71,0,0,1,.32-.78l-3.91-1.54c-.11.25-.23.51-.32.77Z"/><path class="cls-2" d="M516.13,393.69l-.26,4.2a5.7,5.7,0,0,1,.83.09l.27-4.21Z"/><path class="cls-2" d="M519.16,394.31h0l-1.55,3.91.09,0,.7.27,1.55-3.91Z"/><polygon class="cls-2" points="509.86 403.59 510.06 402.76 505.81 402.49 505.61 403.32 509.86 403.59"/><path class="cls-15" d="M503.67,582.8H457.53a7,7,0,0,1-7-7V443.3h60.07V575.84A7,7,0,0,1,503.67,582.8ZM451.4,444.14v131.7a6.13,6.13,0,0,0,6.13,6.12h46.14a6.13,6.13,0,0,0,6.12-6.12V444.14Z"/><path class="cls-7" d="M451,576.07a6.54,6.54,0,0,0,6.54,6.31h46.13a6.54,6.54,0,0,0,6.54-6.31Z"/><rect class="cls-28" x="502.31" y="443.72" width="3.3" height="132.35"/><path class="cls-29" d="M467.76,489.27a2.5,2.5,0,0,1-.89-.16L453.52,484a2.5,2.5,0,0,1-1.46-3.23l5.06-13.36a2.52,2.52,0,0,1,3.24-1.45l13.35,5.06a2.5,2.5,0,0,1,1.46,3.23l-5.06,13.36a2.55,2.55,0,0,1-1.32,1.4A2.48,2.48,0,0,1,467.76,489.27Zm-8.29-23a2.09,2.09,0,0,0-2,1.35L452.45,481a2.11,2.11,0,0,0,.05,1.6,2.09,2.09,0,0,0,1.17,1.09L467,488.71h0a2.1,2.1,0,0,0,2.7-1.21l5.06-13.35a2.1,2.1,0,0,0-1.22-2.7l-13.35-5.06A2.11,2.11,0,0,0,459.47,466.25Z"/><path class="cls-29" d="M477.73,497a2.73,2.73,0,0,1-2.64-2l-4-15.17a2.75,2.75,0,0,1,1.94-3.35l15.17-4a2.74,2.74,0,0,1,2.08.27,2.71,2.71,0,0,1,1.27,1.67l4,15.17a2.74,2.74,0,0,1-1.94,3.35l-.06-.21.06.21-15.17,4A2.88,2.88,0,0,1,477.73,497Zm11.15-24.26a2.47,2.47,0,0,0-.6.08l-15.17,4a2.32,2.32,0,0,0-1.64,2.83l4,15.17a2.33,2.33,0,0,0,2.84,1.65l15.17-4h0a2.32,2.32,0,0,0,1.65-2.83l-4-15.17a2.34,2.34,0,0,0-2.24-1.73Z"/><path class="cls-29" d="M498.67,485.52a2.37,2.37,0,0,1-1.66-.68h0l-9.4-9.4a2.35,2.35,0,0,1,0-3.33l9.4-9.4a2.36,2.36,0,0,1,3.32,0l9.4,9.4a2.35,2.35,0,0,1,0,3.33l-9.4,9.4A2.37,2.37,0,0,1,498.67,485.52Zm0-23.07a1.89,1.89,0,0,0-1.36.56l-9.4,9.4a1.89,1.89,0,0,0-.57,1.36,1.91,1.91,0,0,0,.57,1.37l9.4,9.4h0a1.94,1.94,0,0,0,2.73,0l9.4-9.4a1.94,1.94,0,0,0,0-2.73L500,463A1.91,1.91,0,0,0,498.67,462.45Z"/><path class="cls-29" d="M470.27,507.75l-.31,0L456.78,506a2.35,2.35,0,0,1-2-2.64h0l1.72-13.18a2.36,2.36,0,0,1,2.64-2l13.18,1.73a2.35,2.35,0,0,1,1.56.9,2.32,2.32,0,0,1,.46,1.73L472.6,505.7A2.36,2.36,0,0,1,470.27,507.75Zm-15.1-4.33a1.94,1.94,0,0,0,1.67,2.17L470,507.31a1.92,1.92,0,0,0,2.16-1.66l1.73-13.18a1.94,1.94,0,0,0-.39-1.43,1.87,1.87,0,0,0-1.28-.73l-13.18-1.73a1.93,1.93,0,0,0-2.16,1.66l-1.73,13.18Z"/><polygon class="cls-12" points="375.29 510.93 229.6 510.93 229.6 582.06 392.65 582.06 392.65 546.49 375.29 528.14 375.29 510.93"/><polygon class="cls-30" points="389.67 542.73 378.92 542.73 378.92 531.98 379.12 531.98 379.12 542.53 389.67 542.53 389.67 542.73"/><polygon class="cls-30" points="389.77 578.86 389.57 578.86 389.57 568.3 379.12 568.3 379.12 578.86 378.92 578.86 378.92 568.1 389.77 568.1 389.77 578.86"/><polygon class="cls-30" points="389.77 560.75 389.57 560.75 389.57 550.19 379.01 550.19 379.01 549.99 389.77 549.99 389.77 560.75"/><path class="cls-30" d="M371.66,525.05H360.8V514.19h10.86Zm-10.66-.2h10.46V514.39H361Z"/><polygon class="cls-30" points="371.56 542.73 360.8 542.73 360.8 531.88 371.56 531.88 371.56 532.08 361 532.08 361 542.53 371.56 542.53 371.56 542.73"/><path class="cls-30" d="M371.66,579H360.8V568.1h10.86Zm-10.66-.2h10.46V568.3H361Z"/><path class="cls-30" d="M371.66,560.85H360.8V550h10.86Zm-10.66-.2h10.46V550.19H361Z"/><path class="cls-30" d="M353.27,525.05H342.42V514.19h10.85Zm-10.65-.2h10.46V514.39H342.62Z"/><path class="cls-30" d="M353.27,542.73H342.42V531.87h10.85Zm-10.65-.2h10.46V532.07H342.62Z"/><path class="cls-30" d="M353.27,579H342.42V568.1h10.85Zm-10.65-.2h10.46V568.3H342.62Z"/><polygon class="cls-30" points="353.27 560.75 353.07 560.75 353.07 550.19 342.52 550.19 342.52 549.99 353.27 549.99 353.27 560.75"/><path class="cls-30" d="M334.85,525.05H324V514.19h10.86Zm-10.66-.2h10.46V514.39H324.19Z"/><polygon class="cls-30" points="334.85 542.63 334.65 542.63 334.65 532.08 324.19 532.08 324.19 542.63 323.99 542.63 323.99 531.88 334.85 531.88 334.85 542.63"/><polygon class="cls-30" points="324.19 578.86 323.99 578.86 323.99 568.1 334.75 568.1 334.75 568.3 324.19 568.3 324.19 578.86"/><path class="cls-30" d="M334.85,560.85H324V550h10.86Zm-10.66-.2h10.46V550.19H324.19Z"/><polygon class="cls-30" points="305.89 524.95 305.69 524.95 305.69 514.19 316.45 514.19 316.45 514.39 305.89 514.39 305.89 524.95"/><path class="cls-30" d="M316.55,542.73H305.7V531.87h10.85Zm-10.66-.2h10.46V532.07H305.89Z"/><path class="cls-30" d="M316.55,579H305.7V568.1h10.85Zm-10.66-.2h10.46V568.3H305.89Z"/><polygon class="cls-30" points="316.45 560.85 305.69 560.85 305.69 550.09 305.89 550.09 305.89 560.64 316.45 560.64 316.45 560.85"/><polygon class="cls-30" points="297.9 525.05 287.15 525.05 287.15 524.85 297.7 524.85 297.7 514.29 297.9 514.29 297.9 525.05"/><path class="cls-30" d="M297.9,542.73H287.05V531.87H297.9Zm-10.65-.2H297.7V532.07H287.25Z"/><polygon class="cls-30" points="297.9 578.86 297.7 578.86 297.7 568.3 287.25 568.3 287.25 578.86 287.05 578.86 287.05 568.1 297.9 568.1 297.9 578.86"/><path class="cls-30" d="M297.9,560.85H287.05V550H297.9Zm-10.65-.2H297.7V550.19H287.25Z"/><path class="cls-30" d="M279.91,525.05H269.05V514.19h10.86Zm-10.66-.2h10.46V514.39H269.25Z"/><polygon class="cls-30" points="279.91 542.73 269.05 542.73 269.05 531.98 269.25 531.98 269.25 542.53 279.71 542.53 279.71 531.98 279.91 531.98 279.91 542.73"/><path class="cls-30" d="M279.91,579H269.05V568.1h10.86Zm-10.66-.2h10.46V568.3H269.25Z"/><polygon class="cls-30" points="279.91 560.75 279.71 560.75 279.71 550.19 269.15 550.19 269.15 549.99 279.91 549.99 279.91 560.75"/><path class="cls-30" d="M261.79,525.05H250.94V514.19h10.85Zm-10.65-.2H261.6V514.39H251.14Z"/><polygon class="cls-30" points="261.8 542.63 261.6 542.63 261.6 532.08 251.04 532.08 251.04 531.88 261.8 531.88 261.8 542.63"/><polygon class="cls-30" points="261.8 578.96 251.04 578.96 251.04 578.76 261.6 578.76 261.6 568.3 251.04 568.3 251.04 568.1 261.8 568.1 261.8 578.96"/><path class="cls-30" d="M261.79,560.85H250.94V550h10.85Zm-10.65-.2H261.6V550.19H251.14Z"/><polygon class="cls-30" points="243.68 525.05 232.92 525.05 232.92 524.85 243.48 524.85 243.48 514.39 232.92 514.39 232.92 514.19 243.68 514.19 243.68 525.05"/><path class="cls-30" d="M243.68,542.73H232.82V531.87h10.86Zm-10.66-.2h10.46V532.07H233Z"/><path class="cls-30" d="M243.68,579H232.82V568.1h10.86Zm-10.66-.2h10.46V568.3H233Z"/><polygon class="cls-30" points="243.68 560.75 243.48 560.75 243.48 550.19 232.92 550.19 232.92 549.99 243.68 549.99 243.68 560.75"/><rect class="cls-2" x="374.89" y="528.14" width="0.8" height="53.91"/><rect class="cls-2" x="356.54" y="510.93" width="0.8" height="71.13"/><rect class="cls-2" x="338.19" y="510.93" width="0.8" height="71.13"/><rect class="cls-2" x="319.84" y="510.93" width="0.8" height="71.13"/><rect class="cls-2" x="301.49" y="510.93" width="0.8" height="71.13"/><rect class="cls-2" x="283.14" y="510.93" width="0.8" height="71.13"/><rect class="cls-2" x="264.79" y="510.93" width="0.8" height="71.13"/><rect class="cls-2" x="246.44" y="510.93" width="0.8" height="71.13"/><rect class="cls-2" x="229.6" y="564.44" width="163.05" height="0.8"/><rect class="cls-2" x="229.6" y="546.09" width="163.05" height="0.8"/><rect class="cls-2" x="229.6" y="527.74" width="145.69" height="0.8"/><path class="cls-15" d="M331.86,583.65h-101a2.9,2.9,0,0,1-2.83-3v-68.4a2.9,2.9,0,0,1,2.83-3h110Z"/><polygon class="cls-17" points="324.94 583.65 232.92 583.65 232.92 509.33 331.86 509.33 324.94 583.65"/><polygon class="cls-15" points="331.86 509.33 322.38 509.33 322.38 525.67 333.88 525.67 331.06 543.02 323.4 543.02 323.4 564.84 309.71 568.2 309.71 583.65 331.06 583.65 337.19 530.26 331.86 509.33"/><rect class="cls-24" x="242.77" y="519.79" width="89.09" height="24.37"/><rect class="cls-24" x="267.26" y="555.16" width="60.87" height="3.6"/><rect class="cls-24" x="243.58" y="566.41" width="82.96" height="5.35"/><path class="cls-31" d="M255.3,555.67a13,13,0,1,1,13-13A13.06,13.06,0,0,1,255.3,555.67Zm0-25.07a12,12,0,1,0,12,12A12,12,0,0,0,255.3,530.6Z"/><rect class="cls-12" x="372.82" y="597.76" width="9.17" height="9.17"/><polygon class="cls-12" points="398.18 601.96 403.14 606.92 403.14 601.96 398.18 601.96"/><rect class="cls-12" x="388.51" y="593.71" width="3.03" height="3.03"/><path class="cls-12" d="M81.13,514.76H78.37V503.83a31.54,31.54,0,0,1,2.56-12.49l1-2.46L84.52,490l-1,2.46a28.91,28.91,0,0,0-2.34,11.41Z"/><path class="cls-17" d="M122.39,535.53h0A24.92,24.92,0,0,0,81.8,509a3,3,0,0,1-4.1,0,24.92,24.92,0,0,0-40.59,26.55h0l0,.07,0,.06,13.73,34.73h0a17.75,17.75,0,0,0,26.26,9.34,5,5,0,0,1,5.22,0,17.76,17.76,0,0,0,26.27-9.34h0l13.72-34.73,0-.06Z"/><path class="cls-32" d="M122.39,535.53h0A24.92,24.92,0,0,0,81.8,509a3,3,0,0,1-4.1,0,24.92,24.92,0,0,0-40.59,26.55h0l0,.07,0,.06,13.73,34.73h0a17.75,17.75,0,0,0,26.26,9.34,5,5,0,0,1,5.22,0,17.76,17.76,0,0,0,26.27-9.34h0l13.72-34.73,0-.06Z"/><path class="cls-33" d="M116.4,527h-2.06a14.47,14.47,0,0,0-14.46-14.45v-2.07A16.54,16.54,0,0,1,116.4,527Z"/><path class="cls-24" d="M62.91,570.65a3.18,3.18,0,1,1,3.18-3.18A3.18,3.18,0,0,1,62.91,570.65Zm0-5.44a2.26,2.26,0,1,0,2.27,2.26A2.26,2.26,0,0,0,62.91,565.21Z"/><path class="cls-34" d="M65.64,558.18a1.48,1.48,0,1,1,1.47-1.47A1.47,1.47,0,0,1,65.64,558.18Zm0-2.72a1.25,1.25,0,1,0,1.24,1.25A1.25,1.25,0,0,0,65.64,555.46Z"/><circle class="cls-5" cx="99.88" cy="529.84" r="1.36"/><circle class="cls-5" cx="107.62" cy="535.95" r="0.68"/><path class="cls-34" d="M70.83,520.1A2.08,2.08,0,1,1,72.9,518,2.08,2.08,0,0,1,70.83,520.1Zm0-3.93A1.85,1.85,0,1,0,72.67,518,1.85,1.85,0,0,0,70.83,516.17Z"/><path class="cls-12" d="M74.13,510.17c-3.65,0-8.67-.67-12.61-3.69-6.89-5.28-7.69-15.59-7.72-16l0-.33.32-.06c.43-.09,10.59-2,17.48,3.28s7.68,15.59,7.71,16l0,.32-.32.06A26.63,26.63,0,0,1,74.13,510.17ZM54.57,490.74c.2,1.81,1.45,10.59,7.39,15.15s14.76,3.49,16.56,3.21c-.2-1.82-1.44-10.6-7.39-15.16S56.37,490.46,54.57,490.74Z"/><path class="cls-4" d="M559.14,527.36v-7.19H529.92v7.19h0a5,5,0,0,0-5,5V575.9a7,7,0,0,0,7,7h25.18a7,7,0,0,0,7-7V532.34a5,5,0,0,0-5-5Z"/><rect class="cls-15" x="527.35" y="510.17" width="34.36" height="13.98"/><rect class="cls-35" x="524.95" y="536.54" width="39.16" height="25.72"/><rect class="cls-2" x="557.52" y="510.17" width="0.4" height="14.02"/><rect class="cls-2" x="554.05" y="510.17" width="0.4" height="14.02"/><rect class="cls-2" x="548.86" y="510.17" width="0.4" height="14.02"/><rect class="cls-2" x="540.33" y="510.17" width="0.4" height="14.02"/><polygon class="cls-15" points="558.81 547.96 553.11 547.96 553.11 542.26 550.23 542.26 550.23 547.96 544.53 547.96 544.53 550.84 550.23 550.84 550.23 556.54 553.11 556.54 553.11 550.84 558.81 550.84 558.81 547.96"/><ellipse class="cls-36" cx="527.1" cy="576.99" rx="7.57" ry="5.39"/><ellipse class="cls-37" cx="527.1" cy="576.99" rx="7.57" ry="5.39"/><ellipse class="cls-36" cx="510.47" cy="576.99" rx="7.57" ry="5.39"/><ellipse class="cls-38" cx="510.47" cy="576.99" rx="7.57" ry="5.39"/><path class="cls-15" d="M549.54,582.84a5.86,5.86,0,1,1,5.85-5.85A5.87,5.87,0,0,1,549.54,582.84Zm0-10.94a5.09,5.09,0,1,0,5.09,5.09A5.1,5.1,0,0,0,549.54,571.9Z"/><rect class="cls-15" x="544.25" y="576.77" width="10.91" height="0.76" transform="translate(-247.1 557.51) rotate(-44.98)"/><circle class="cls-6" cx="535.11" cy="578.8" r="3.58"/><path class="cls-15" d="M291.41,541.32c0,14.66-8.6,24.75-19.22,24.75S253,556,253,541.32s8.6-28.84,19.22-28.84S291.41,526.67,291.41,541.32Z"/><path class="cls-39" d="M291.41,541.32c0,14.66-8.6,24.75-19.22,24.75S253,556,253,541.32s8.6-28.84,19.22-28.84S291.41,526.67,291.41,541.32Z"/><path class="cls-6" d="M253.44,554a18.75,18.75,0,0,0,37.5,0Z"/><circle class="cls-40" cx="280.49" cy="522.62" r="0.68"/><circle class="cls-40" cx="286.14" cy="542.31" r="0.68"/><path class="cls-41" d="M277.75,529.85a1.3,1.3,0,1,1,1.29-1.3A1.3,1.3,0,0,1,277.75,529.85Zm0-2.37a1.08,1.08,0,1,0,1.07,1.07A1.07,1.07,0,0,0,277.75,527.48Z"/><polygon class="cls-6" points="272.73 568.33 257.82 583.09 286.41 583.09 272.73 568.33"/><path class="cls-15" d="M588.92,584.78H11.08a1.2,1.2,0,0,1,0-2.4H588.92a1.2,1.2,0,0,1,0,2.4Z"/><path class="cls-42" d="M470.81,584.44H431.17V547.6a2.81,2.81,0,0,1,2.81-2.81h6.18v-7.74h21.66v7.74H468a2.8,2.8,0,0,1,2.8,2.81Zm-38.88-.76h38.12V547.6a2,2,0,0,0-2-2.05h-6.95v-7.74H440.92v7.74H434a2.05,2.05,0,0,0-2.05,2.05Z"/></g></g></g></svg>