<svg width="199" height="199" viewBox="0 0 199 199" version="1.1" xmlns="http://www.w3.org/2000/svg" xmlns:xlink="http://www.w3.org/1999/xlink" id="el_TPCZOnd6T"><style>@-webkit-keyframes el_06YMMUbqiDJ_Animation{36.67%{opacity: 1;}40%{opacity: 0;}0%{opacity: 1;}100%{opacity: 0;}}@keyframes el_06YMMUbqiDJ_Animation{36.67%{opacity: 1;}40%{opacity: 0;}0%{opacity: 1;}100%{opacity: 0;}}@-webkit-keyframes el_06YMMUbqiDJ_1qiAQ8eLw_Animation{0%{-webkit-transform: scale(0, 0);transform: scale(0, 0);}30%{-webkit-transform: scale(1, 1);transform: scale(1, 1);}100%{-webkit-transform: scale(1, 1);transform: scale(1, 1);}}@keyframes el_06YMMUbqiDJ_1qiAQ8eLw_Animation{0%{-webkit-transform: scale(0, 0);transform: scale(0, 0);}30%{-webkit-transform: scale(1, 1);transform: scale(1, 1);}100%{-webkit-transform: scale(1, 1);transform: scale(1, 1);}}@-webkit-keyframes el_IxTmtb5X5Yi_HHG3sDpLF_Animation{50%{-webkit-transform: translate(160px, 0px);transform: translate(160px, 0px);}90%{-webkit-transform: translate(0px, 0px);transform: translate(0px, 0px);}0%{-webkit-transform: translate(160px, 0px);transform: translate(160px, 0px);}100%{-webkit-transform: translate(0px, 0px);transform: translate(0px, 0px);}}@keyframes el_IxTmtb5X5Yi_HHG3sDpLF_Animation{50%{-webkit-transform: translate(160px, 0px);transform: translate(160px, 0px);}90%{-webkit-transform: translate(0px, 0px);transform: translate(0px, 0px);}0%{-webkit-transform: translate(160px, 0px);transform: translate(160px, 0px);}100%{-webkit-transform: translate(0px, 0px);transform: translate(0px, 0px);}}@-webkit-keyframes el_Wj_nC2fOKw_2pw0J53QZ_Animation{50%{-webkit-transform: translate(-160px, 0px);transform: translate(-160px, 0px);}90%{-webkit-transform: translate(0px, 0px);transform: translate(0px, 0px);}0%{-webkit-transform: translate(-160px, 0px);transform: translate(-160px, 0px);}100%{-webkit-transform: translate(0px, 0px);transform: translate(0px, 0px);}}@keyframes el_Wj_nC2fOKw_2pw0J53QZ_Animation{50%{-webkit-transform: translate(-160px, 0px);transform: translate(-160px, 0px);}90%{-webkit-transform: translate(0px, 0px);transform: translate(0px, 0px);}0%{-webkit-transform: translate(-160px, 0px);transform: translate(-160px, 0px);}100%{-webkit-transform: translate(0px, 0px);transform: translate(0px, 0px);}}@-webkit-keyframes el_WADL_5EwE1_nufICBFAg_Animation{33.33%{-webkit-transform: translate(0px, 100px);transform: translate(0px, 100px);}53.33%{-webkit-transform: translate(0px, 0px);transform: translate(0px, 0px);}0%{-webkit-transform: translate(0px, 100px);transform: translate(0px, 100px);}100%{-webkit-transform: translate(0px, 0px);transform: translate(0px, 0px);}}@keyframes el_WADL_5EwE1_nufICBFAg_Animation{33.33%{-webkit-transform: translate(0px, 100px);transform: translate(0px, 100px);}53.33%{-webkit-transform: translate(0px, 0px);transform: translate(0px, 0px);}0%{-webkit-transform: translate(0px, 100px);transform: translate(0px, 100px);}100%{-webkit-transform: translate(0px, 0px);transform: translate(0px, 0px);}}@-webkit-keyframes el_gzgXhvjPpA_Animation{30%{opacity: 0;}33.33%{opacity: 1;}0%{opacity: 0;}100%{opacity: 1;}}@keyframes el_gzgXhvjPpA_Animation{30%{opacity: 0;}33.33%{opacity: 1;}0%{opacity: 0;}100%{opacity: 1;}}@-webkit-keyframes el_ImkQ49BUfc_Animation{0%{opacity: 0;}100%{opacity: 0;}}@keyframes el_ImkQ49BUfc_Animation{0%{opacity: 0;}100%{opacity: 0;}}#el_TPCZOnd6T *{-webkit-animation-duration: 1s;animation-duration: 1s;-webkit-animation-timing-function: cubic-bezier(0, 0, 1, 1);animation-timing-function: cubic-bezier(0, 0, 1, 1);}#el_tCZQyxjArf{stroke: none;stroke-width: 1;fill: none;}#el_ImkQ49BUfc{fill: #D8D8D8;-webkit-animation-name: el_ImkQ49BUfc_Animation;animation-name: el_ImkQ49BUfc_Animation;opacity: 0;}#el_6_aYOZ6lUN{-webkit-transform: translate(-72px, -73px);transform: translate(-72px, -73px);}#el_gzgXhvjPpA{-webkit-transform: translate(40px, 0px);transform: translate(40px, 0px);-webkit-animation-name: el_gzgXhvjPpA_Animation;animation-name: el_gzgXhvjPpA_Animation;opacity: 1;}#el_USiejfcrFa{fill: #A3CBCC;}#el_J1SFgfjkpP{-webkit-transform: translate(4px, 104px);transform: translate(4px, 104px);}#el_WADL_5EwE1{fill: #FCC74A;}#el_Wj_nC2fOKw{-webkit-transform: translate(92px, 0px);transform: translate(92px, 0px);}#el_FLxFQ6iUWx{-webkit-transform: translate(47px, 81px);transform: translate(47px, 81px);}#el_4rMvKs2vc1{fill: #474747;}#el_T5TUsHqh0X{stroke: #474747;stroke-width: 0.89455;}#el_XuS83EyqAQ{stroke: #FFFFFF;stroke-width: 0.44727;}#el_0XyPsmO3uu{-webkit-transform: translate(94px, 76px);transform: translate(94px, 76px);}#el_JZ47YaQLIYV{fill: #FFFFFF;}#el_2-TATk4TBx8{stroke: #FFFFFF;stroke-width: 0.44727;}#el_hjubGBq6cNY{fill: #474747;}#el_j5w4kdJMkZs{fill: #A3CBCC;}#el_xnoy-DhIMVo{-webkit-transform: translate(10px, 94px);transform: translate(10px, 94px);}#el_NMUTJGhwRZz{fill: #F969A4;}#el_Jdwz2SOPoED{stroke: #F969A4;stroke-width: 0.44727;}#el_3x6t-kX4ocb{-webkit-transform: translate(39px, 34px);transform: translate(39px, 34px);fill: #FFFFFF;opacity: 0.48;}#el_NhXTk7mZKaE{opacity: 0.49;}#el_7Jw6KBsBNCP{fill: url(#linearGradient-3);}#el_1FzEJWXs9u5{fill: url(#linearGradient-4);}#el_7_cVQK3XJlj{fill: url(#linearGradient-5);}#el_H4p_dkhJeNs{fill: url(#linearGradient-6);}#el_aia_Sr4EaoQ{fill: url(#linearGradient-7);}#el_a9MMjGfmZyX{fill: url(#linearGradient-8);}#el_J9JEH7X_NdO{fill: url(#linearGradient-9);}#el_NRSCsmUJv_L{-webkit-transform: translate(79px, 17px);transform: translate(79px, 17px);}#el_aW3RMMh1ZM4{stroke: #474747;stroke-width: 0.447;}#el_TkLmjGn_qGc{stroke: #474747;stroke-width: 0.08945;}#el_0ix83HKX65-{fill: #474747;}#el_FYH2UkQnsoH{stroke: #474747;stroke-width: 0.447;}#el_l2iL85ArP3s{fill: #F1F7F7;}#el_Pm0B6Hi2Bqx{-webkit-transform: translate(37px, 103px);transform: translate(37px, 103px);}#el_yxzexn0MV87{fill: #474747;}#el_XJEoz7V_2Mi{-webkit-transform: translate(3px, 3px);transform: translate(3px, 3px);fill: #FCC74A;}#el_GxnSHj008Nj{-webkit-transform: translate(3px, 7px);transform: translate(3px, 7px);fill: #FCC74A;}#el_KYQIZ1irhzK{-webkit-transform: translate(3px, 11px);transform: translate(3px, 11px);fill: #FCC74A;}#el_W8ftVjccWPa{-webkit-transform: translate(3px, 16px);transform: translate(3px, 16px);fill: #FCC74A;}#el_pU1e4B1BPHU{-webkit-transform: translate(20px, 3px);transform: translate(20px, 3px);fill: #FCC74A;}#el_a3dFg0C56Bv{-webkit-transform: translate(20px, 7px);transform: translate(20px, 7px);fill: #FCC74A;}#el_qSHEeX7sdNa{-webkit-transform: translate(20px, 11px);transform: translate(20px, 11px);fill: #FCC74A;}#el_HjqWjRGhjF4{-webkit-transform: translate(59px, 3px);transform: translate(59px, 3px);fill: #FCC74A;}#el_ueMN-qwPEZ0{-webkit-transform: translate(59px, 7px);transform: translate(59px, 7px);fill: #FCC74A;}#el_u1EC1ht7PUI{-webkit-transform: translate(59px, 11px);transform: translate(59px, 11px);fill: #FCC74A;}#el_DLFTlKXp9FM{-webkit-transform: translate(59px, 16px);transform: translate(59px, 16px);fill: #FCC74A;}#el_S40Zo-dICsP{-webkit-transform: translate(38px, 3px);transform: translate(38px, 3px);fill: #FCC74A;}#el_TBggQirzT2b{-webkit-transform: translate(38px, 7px);transform: translate(38px, 7px);fill: #FCC74A;}#el_yvUOwfrMDpS{-webkit-transform: translate(38px, 11px);transform: translate(38px, 11px);fill: #FCC74A;}#el_-uz5cKhGxCr{-webkit-transform: translate(38px, 16px);transform: translate(38px, 16px);fill: #FCC74A;}#el_HibtlDKG5MG{fill: #FCC74A;}#el_CwTRgXRCvYJ{stroke: #F969A4;stroke-width: 0.44727;}#el_3Sf1a1vSvoP{stroke: #F969A4;stroke-width: 0.22364;}#el_C7-gobBh3FG{stroke: #F969A4;stroke-width: 0.22364;}#el_ddFquwWNKRY{stroke: #F969A4;stroke-width: 0.22364;}#el_IxTmtb5X5Yi{-webkit-transform: translate(82px, 60px);transform: translate(82px, 60px);}#el_y7fz0t3hJDf{fill: #F969A4;}#el_MlRN0GL5-l0{fill: #FFFFFF;}#el_ljPb6h1JOTX{-webkit-transform: translate(7px, 0px);transform: translate(7px, 0px);}#el_XForF8HzBuP{fill: #FFFFFF;}#el_BtphrdO2Ol9{fill: url(#linearGradient-10);}#el_Po4JMaMLP9z{fill: url(#linearGradient-11);}#el_4OlT4ZiVZhE{fill: url(#linearGradient-12);}#el_nWQzac0IcRt{fill: url(#linearGradient-10);}#el_06YMMUbqiDJ{fill: #A3CBCC;-webkit-animation-name: el_06YMMUbqiDJ_Animation;animation-name: el_06YMMUbqiDJ_Animation;opacity: 0;}#el_WADL_5EwE1_nufICBFAg{-webkit-animation-name: el_WADL_5EwE1_nufICBFAg_Animation;animation-name: el_WADL_5EwE1_nufICBFAg_Animation;-webkit-animation-timing-function: cubic-bezier(0.42, 0, 0.58, 1);animation-timing-function: cubic-bezier(0.42, 0, 0.58, 1);-webkit-transform-origin: 50% 50%;transform-origin: 50% 50%;transform-box: fill-box;-webkit-transform: translate(0px, 0px);transform: translate(0px, 0px);}#el_Wj_nC2fOKw_2pw0J53QZ{-webkit-animation-name: el_Wj_nC2fOKw_2pw0J53QZ_Animation;animation-name: el_Wj_nC2fOKw_2pw0J53QZ_Animation;-webkit-animation-timing-function: cubic-bezier(0.42, 0, 0.58, 1);animation-timing-function: cubic-bezier(0.42, 0, 0.58, 1);-webkit-transform-origin: 50% 50%;transform-origin: 50% 50%;transform-box: fill-box;-webkit-transform: translate(0px, 0px);transform: translate(0px, 0px);}#el_IxTmtb5X5Yi_HHG3sDpLF{-webkit-animation-name: el_IxTmtb5X5Yi_HHG3sDpLF_Animation;animation-name: el_IxTmtb5X5Yi_HHG3sDpLF_Animation;-webkit-animation-timing-function: cubic-bezier(0.42, 0, 0.58, 1);animation-timing-function: cubic-bezier(0.42, 0, 0.58, 1);-webkit-transform-origin: 50% 50%;transform-origin: 50% 50%;transform-box: fill-box;-webkit-transform: translate(0px, 0px);transform: translate(0px, 0px);}#el_06YMMUbqiDJ_1qiAQ8eLw{-webkit-animation-name: el_06YMMUbqiDJ_1qiAQ8eLw_Animation;animation-name: el_06YMMUbqiDJ_1qiAQ8eLw_Animation;-webkit-animation-timing-function: cubic-bezier(0.42, 0, 0.58, 1);animation-timing-function: cubic-bezier(0.42, 0, 0.58, 1);-webkit-transform-origin: 50% 50%;transform-origin: 50% 50%;transform-box: fill-box;-webkit-transform: scale(1, 1);transform: scale(1, 1);}</style>
    <!-- Generator: Sketch 51.2 (57519) - http://www.bohemiancoding.com/sketch -->
    <title>OSC-How-Anim</title>
    <desc>Created with Sketch.</desc>
    <defs>
        <circle id="path-1" cx="99.5" cy="99.5" r="99.5"/>
        <linearGradient x1="49.9996332%" y1="381.632803%" x2="49.9996332%" y2="-1304.66997%" id="linearGradient-3">
            <stop stop-color="#F969A4" offset="0%"/>
            <stop stop-color="#F969A4" stop-opacity="0" offset="100%"/>
        </linearGradient>
        <linearGradient x1="187602.081%" y1="354.909249%" x2="187602.081%" y2="-585.843769%" id="linearGradient-4">
            <stop stop-color="#F969A4" offset="0%"/>
            <stop stop-color="#F969A4" stop-opacity="0" offset="100%"/>
        </linearGradient>
        <linearGradient x1="113436.439%" y1="339.397947%" x2="113436.439%" y2="-229.137266%" id="linearGradient-5">
            <stop stop-color="#F969A4" offset="0%"/>
            <stop stop-color="#F969A4" stop-opacity="0" offset="100%"/>
        </linearGradient>
        <linearGradient x1="52593.5292%" y1="308.37754%" x2="52593.5292%" y2="45.1863064%" id="linearGradient-6">
            <stop stop-color="#F969A4" offset="0%"/>
            <stop stop-color="#F969A4" stop-opacity="0" offset="100%"/>
        </linearGradient>
        <linearGradient x1="273488.157%" y1="381.771885%" x2="273488.157%" y2="-991.024269%" id="linearGradient-7">
            <stop stop-color="#F969A4" offset="0%"/>
            <stop stop-color="#F969A4" stop-opacity="0" offset="100%"/>
        </linearGradient>
        <linearGradient x1="273488.157%" y1="592.638997%" x2="273488.157%" y2="-780.14691%" id="linearGradient-8">
            <stop stop-color="#F969A4" offset="0%"/>
            <stop stop-color="#F969A4" stop-opacity="0" offset="100%"/>
        </linearGradient>
        <linearGradient x1="77559.2958%" y1="325.348864%" x2="77559.2958%" y2="-64.1447565%" id="linearGradient-9">
            <stop stop-color="#F969A4" offset="0%"/>
            <stop stop-color="#F969A4" stop-opacity="0" offset="100%"/>
        </linearGradient>
        <linearGradient x1="49.9999858%" y1="111.645035%" x2="49.9999858%" y2="15.6170592%" id="linearGradient-10">
            <stop stop-color="#A3CBCC" offset="0%"/>
            <stop stop-color="#A3CBCC" stop-opacity="0" offset="100%"/>
        </linearGradient>
        <linearGradient x1="50.0004039%" y1="106.038784%" x2="50.0004039%" y2="19.2098223%" id="linearGradient-11">
            <stop stop-color="#A3CBCC" offset="0%"/>
            <stop stop-color="#A3CBCC" stop-opacity="0" offset="100%"/>
        </linearGradient>
        <linearGradient x1="50.0000843%" y1="106.038826%" x2="50.0000843%" y2="19.2098597%" id="linearGradient-12">
            <stop stop-color="#A3CBCC" offset="0%"/>
            <stop stop-color="#A3CBCC" stop-opacity="0" offset="100%"/>
        </linearGradient>
    </defs>
    <g id="el_tCZQyxjArf" fill-rule="evenodd">
        <g id="el_JD49YElYNV">
            <mask id="mask-2" fill="white">
                <use xlink:href="#path-1"/>
            </mask>
            <use id="el_ImkQ49BUfc" xlink:href="#path-1"/>
            <g mask="url(#mask-2)" id="el__xEC1cOiqc">
                <g id="el_6_aYOZ6lUN">
                    <g id="el_gzgXhvjPpA">
                        <rect id="el_USiejfcrFa" fill-rule="nonzero" x="0.48825" y="0" width="259.26612" height="259.26612"/>
                    </g>
                    <g id="el_J1SFgfjkpP">
                        <g id="el_WADL_5EwE1_nufICBFAg" data-animator-group="true" data-animator-type="0"><rect id="el_WADL_5EwE1" fill-rule="nonzero" x="0.89018" y="67.95153" width="330.46225" height="100.13646"/></g>
                        <g id="el_Wj_nC2fOKw_2pw0J53QZ" data-animator-group="true" data-animator-type="0"><g id="el_Wj_nC2fOKw">
                            <g id="el_FLxFQ6iUWx">
                                <rect id="el_4rMvKs2vc1" fill-rule="nonzero" x="23.68661" y="0.55718" width="6.86945" height="9.68493"/>
                                <path d="M0.53954,10.24211 L53.70312,10.24211" id="el_T5TUsHqh0X" stroke-linecap="round"/>
                            </g>
                            <path d="M54.83046,81.55718 L54.83046,92.6377 C54.83046,93.7720929 55.7500671,94.6917 56.88446,94.6917 L90.97546,94.6917 C92.1098529,94.6917 93.02946,95.6113071 93.02946,96.7457 C93.02946,97.8800929 92.1098529,98.7997 90.97546,98.7997 L76.1753,98.7997 C75.0409071,98.7997 74.1213,99.7193071 74.1213,100.8537 L74.1213,104.07025" id="el_XuS83EyqAQ"/>
                            <g id="el_0XyPsmO3uu">
                                <rect id="el_JZ47YaQLIYV" fill-rule="nonzero" x="30.94793" y="25.65754" width="12.03293" height="18.63934" rx="6.01646"/>
                                <path d="M36.96439,30.21688 L36.96439,25.39933 C36.96439,22.6480793 34.7340607,20.41775 31.98281,20.41775 L26.63588,20.41775 C25.3146838,20.4177527 24.0475994,19.8929113 23.1133716,18.9586855 C22.1791438,18.0244596 21.6543,16.7573762 21.6543,15.43618 C21.6543,12.6849293 19.4239707,10.4546 16.67272,10.4546 L5.74957,10.4546 C4.42837376,10.4546027 3.16128937,9.92976135 2.22706161,8.99553546 C1.29283385,8.06130958 0.76799,6.79422624 0.76799,5.47303 L0.76799,0.79964" id="el_2-TATk4TBx8"/>
                            </g>
                            <rect id="el_hjubGBq6cNY" fill-rule="nonzero" x="24.50456" y="23.45371" width="99.23354" height="59.14161"/>
                            <rect id="el_j5w4kdJMkZs" fill-rule="nonzero" x="27.60679" y="26.18489" width="93.02909" height="53.67924" rx="1.63013"/>
                            <g id="el_xnoy-DhIMVo">
                                <path d="M15.05873,1.13898 L15.05873,16.96222 C15.0574571,18.087859 14.145299,19.0000709 13.01966,19.00141 L3.01844,19.00141 C1.89280495,19.0000654 0.980652877,18.0878551 0.97938,16.96222 L0.97938,1.13898 L15.05873,1.13898 Z M15.50599,0.69171 L0.53212,0.69171 L0.53212,16.96222 C0.532090825,17.621654 0.794028127,18.2540895 1.26030616,18.7203919 C1.7265842,19.1866943 2.35900604,19.4486647 3.01844,19.44867 L13.01966,19.44867 C13.6790949,19.4486647 14.3115177,19.1866946 14.7777974,18.7203925 C15.244077,18.2540904 15.5060165,17.6216549 15.50599,16.96222 L15.50599,0.69171 Z" id="el_NMUTJGhwRZz" fill-rule="nonzero"/>
                                <path d="M16.93982,2.85047 C19.7161554,2.85047 21.96682,5.10113456 21.96682,7.87747 C21.96682,10.6538054 19.7161554,12.90447 16.93982,12.90447" id="el_Jdwz2SOPoED"/>
                            </g>
                            <g id="el_3x6t-kX4ocb" fill-rule="nonzero">
                                <rect id="el_LpLtx8OzdNy" x="21.92688" y="14.40461" width="6.79478" height="4.47074"/>
                                <rect id="el_IvvhXz2BKUa" x="21.92688" y="7.14373" width="6.79478" height="5.11942"/>
                                <rect id="el__OOAKon0BHe" x="21.92688" y="19.17402" width="6.79478" height="1"/>
                                <rect id="el_tP8jlR5RnW_" x="21.92688" y="20.42996" width="6.79478" height="2.08429"/>
                                <rect id="el_JHz6ybJC34V" x="29.02034" y="0.09068" width="7.08879" height="4.30843"/>
                                <rect id="el_q0vtwkTeoKl" x="29.02034" y="4.69778" width="7.08879" height="2.14729"/>
                                <rect id="el_Q3ol_v-gGf6" x="21.92688" y="22.81292" width="6.79478" height="1.74245"/>
                                <rect id="el_A064v-27bTH" x="14.42917" y="19.17402" width="7.19904" height="1"/>
                                <rect id="el_xnUPXF7rXS9" x="14.42917" y="14.40461" width="7.19904" height="4.47074"/>
                                <rect id="el_tFeiZLS1PMG" x="14.42917" y="22.81292" width="7.19904" height="1.74245"/>
                                <rect id="el_NMdAtcEAN_l" x="21.92688" y="4.69778" width="6.79478" height="2.14729"/>
                                <rect id="el_2V2-vw3NZJ5" x="14.42917" y="12.56183" width="7.19904" height="1.54411"/>
                                <rect id="el_yflDFjGpsFh" x="14.42917" y="20.42996" width="7.19904" height="2.08429"/>
                                <rect id="el_eRhTWlX12sv" x="21.92688" y="0.09068" width="6.79478" height="4.30843"/>
                                <rect id="el_NKGOkXQnID3" x="36.4078" y="19.17402" width="8.40656" height="1"/>
                                <rect id="el_JQ9FJiEriFZ" x="36.4078" y="7.14373" width="8.40656" height="5.11942"/>
                                <rect id="el_qC8gNl4B-xC" x="36.4078" y="12.56183" width="8.40656" height="1.54411"/>
                                <rect id="el_p-6PumI-ly4" x="36.4078" y="14.40461" width="8.40656" height="4.47074"/>
                                <rect id="el_XtVEaaom9Iq" x="36.4078" y="22.81292" width="8.40656" height="1.74245"/>
                                <rect id="el_hBclTK5DknE" x="36.4078" y="20.42996" width="8.40656" height="2.08429"/>
                                <rect id="el_2i7JksPN06T" x="29.02034" y="20.42996" width="7.08879" height="2.08429"/>
                                <rect id="el_xibiZWqu6h8" x="29.02034" y="14.40461" width="7.08879" height="4.47074"/>
                                <rect id="el_X1b4c68E9j2" x="29.02034" y="19.17402" width="7.08879" height="1"/>
                                <rect id="el_nCnMJcv0NZ2" x="36.4078" y="4.69778" width="8.40656" height="2.14729"/>
                                <rect id="el__AF79OazoRj" x="29.02034" y="12.56183" width="7.08879" height="1.54411"/>
                                <rect id="el_kdGYHk0CPft" x="29.02034" y="7.14373" width="7.08879" height="5.11942"/>
                                <rect id="el_naHfUfi_DuI" x="29.02034" y="22.81292" width="7.08879" height="1.74245"/>
                                <rect id="el_GfKqBHrd6Yy" x="21.92688" y="12.56183" width="6.79478" height="1.54411"/>
                                <rect id="el_xcndE44YVEO" x="45.11303" y="24.85404" width="7.27371" height="14.8178"/>
                                <rect id="el_5AmSqU8i37U" x="45.11303" y="22.81292" width="7.27371" height="1.74245"/>
                                <polygon id="el_7UfPIX5rfCj" points="7.086 24.854 0.219 24.854 0.219 24.555 7.086 24.555 7.086 22.813 0.219 22.813 0.219 22.514 7.086 22.514 7.086 20.43 0.219 20.43 0.219 20.131 7.086 20.131 7.086 19.174 0.219 19.174 0.219 18.875 7.086 18.875 7.086 14.405 0.219 14.405 0.219 14.106 7.086 14.106 7.086 12.562 0.219 12.562 0.219 12.263 7.086 12.263 7.086 7.144 0.219 7.144 0.219 6.845 7.086 6.845 7.086 4.698 0.219 4.698 0.219 4.399 7.086 4.399 7.086 0.091 0.219 0.091 0.219 39.672 7.086 39.672"/>
                                <rect id="el_4tC_IJv5TmD" x="36.4078" y="24.85404" width="8.40656" height="14.8178"/>
                                <rect id="el_dwRst_ykNDx" x="36.4078" y="0.09068" width="8.40656" height="4.30843"/>
                                <rect id="el_fvA_eygx7p8" x="45.11303" y="20.42996" width="7.27371" height="2.08429"/>
                                <rect id="el_cX2TLZAQe9T" x="45.11303" y="14.40461" width="7.27371" height="4.47074"/>
                                <rect id="el_q1cWsgZ9W-Z" x="45.11303" y="4.69778" width="7.27371" height="2.14729"/>
                                <rect id="el_msR9MwNYlGW" x="45.11303" y="7.14373" width="7.27371" height="5.11942"/>
                                <rect id="el_060jQQtodZq" x="45.11303" y="0.09068" width="7.27371" height="4.30843"/>
                                <rect id="el_FlVotlkxUh-" x="14.42917" y="7.14373" width="7.19904" height="5.11942"/>
                                <rect id="el_vUFcpcQieYd" x="45.11303" y="19.17402" width="7.27371" height="1"/>
                                <rect id="el_NunaNcSC1Rj" x="45.11303" y="12.56183" width="7.27371" height="1.54411"/>
                                <rect id="el_8gas1pnKvz1" x="29.02034" y="24.85404" width="7.08879" height="14.8178"/>
                                <rect id="el_zoT9JWB1oNS" x="7.38472" y="22.81292" width="6.74578" height="1.74245"/>
                                <rect id="el_zJZmcyzffJS" x="7.38472" y="19.17402" width="6.74578" height="1"/>
                                <rect id="el_6W7D4EwIXaz" x="7.38472" y="20.42996" width="6.74578" height="2.08429"/>
                                <rect id="el_HgTz0AjHIOx" x="14.42917" y="0.09068" width="7.19904" height="4.30843"/>
                                <rect id="el_4vOWeOK77sl" x="7.38472" y="14.40461" width="6.74578" height="4.47074"/>
                                <rect id="el_4GYi80fHlgS" x="14.42917" y="4.69778" width="7.19904" height="2.14729"/>
                                <rect id="el_Amq_ez7l3Bd" x="21.92688" y="24.85404" width="6.79478" height="14.8178"/>
                                <rect id="el_7z0dQThbPba" x="7.38472" y="24.85404" width="6.74578" height="14.8178"/>
                                <rect id="el_IdIEBhdr2bC" x="14.42917" y="24.85404" width="7.19904" height="14.8178"/>
                                <rect id="el_RUXD0T_dVDt" x="7.38472" y="12.56183" width="6.74578" height="1.54411"/>
                                <rect id="el_XbAguYEf27r" x="7.38472" y="0.09068" width="6.74578" height="4.30843"/>
                                <rect id="el_TCfyfLk6hEe" x="7.38472" y="4.69778" width="6.74578" height="2.14729"/>
                                <rect id="el_bP46UO_jQ1t" x="7.38472" y="7.14373" width="6.74578" height="5.11942"/>
                            </g>
                            <g id="el_NhXTk7mZKaE" fill-rule="nonzero">
                                <path d="M18.16117,87.47897 L18.16117,92.93168 C16.6554491,92.9316524 15.434839,91.7110109 15.43485,90.20529 C15.4348447,89.4822234 15.7220795,88.7887701 16.2333648,88.2774848 C16.7446501,87.7661995 17.4381034,87.4789647 18.16117,87.47897 Z" id="el_7Jw6KBsBNCP"/>
                                <path d="M17.97908,73.59947 L17.97908,83.37347 C16.6829532,83.37347 15.4399135,82.8585801 14.5234209,81.9420726 C13.6069283,81.025565 13.0920588,79.7825168 13.09208,78.48639 C13.09208,77.1902844 13.6069614,75.947265 14.523454,75.0307874 C15.4399466,74.1143099 16.6829744,73.5994488 17.97908,73.59947 Z" id="el_1FzEJWXs9u5"/>
                                <path d="M17.97908,53.39747 L17.97908,69.57047 C13.5130362,69.5703927 9.89264582,65.9499038 9.89269,61.48386 C9.89267939,59.3392128 10.7446325,57.2824017 12.2611271,55.7659071 C13.7776217,54.2494125 15.8344328,53.3974594 17.97908,53.39747 Z" id="el_7_cVQK3XJlj"/>
                                <path d="M17.97908,0.55269 L17.97908,35.48896 C8.3317103,35.4887943 0.511086111,27.6679597 0.51118,18.02059 C0.511153478,13.3878067 2.35150771,8.94476262 5.62738017,5.66889017 C8.90325262,2.39301771 13.3462967,0.552663478 17.97908,0.55269 Z" id="el_H4p_dkhJeNs"/>
                                <path d="M18.05631,89.41536 L18.05631,82.71741 C19.9058882,82.7174431 21.40525,84.2168318 21.40525,86.06641 C21.405258,86.9546075 21.0524271,87.8064291 20.4243776,88.4344805 C19.7963281,89.0625319 18.9445075,89.4153653 18.05631,89.41536 Z" id="el_aia_Sr4EaoQ"/>
                                <path d="M18.05631,75.29134 L18.05631,68.59334 C19.9058882,68.5933731 21.40525,70.0927618 21.40525,71.94234 C21.4052712,72.8305461 21.0524462,73.6823806 20.4243953,74.3104428 C19.7963443,74.938505 18.9445161,75.2913453 18.05631,75.29134 Z" id="el_a9MMjGfmZyX"/>
                                <path d="M18.05632,55.08936 L18.05632,31.48199 C24.5753033,31.4821005 29.8599063,36.7668467 29.85984,43.28583 C29.8598586,46.4163248 28.6162833,49.4186081 26.4026901,51.6322031 C24.189097,53.8457981 21.1868148,55.0893759 18.05632,55.08936 Z" id="el_J9JEH7X_NdO"/>
                            </g>
                            <g id="el_NRSCsmUJv_L">
                                <circle id="el_aW3RMMh1ZM4" cx="2.77374" cy="2.71462" r="2.62074"/>
                                <circle id="el_TkLmjGn_qGc" cx="2.77374" cy="2.71462" r="1.28204"/>
                                <circle id="el_0ix83HKX65-" fill-rule="nonzero" cx="2.77374" cy="2.71462" r="1"/>
                            </g>
                            <path d="M79.153,26.35025 L79.153,24.95609 C79.153,24.2610275 79.4291132,23.594433 79.9205976,23.1029505 C80.412082,22.611468 81.0786775,22.3353573 81.77374,22.33536 C83.2211308,22.33536 84.3944745,23.5086992 84.39448,24.95609 L84.39448,26.35025" id="el_FYH2UkQnsoH"/>
                            <path d="M119.00571,26.18491 L29.2369,26.18491 C28.3366424,26.1848879 27.6068107,26.9146524 27.60675,27.81491 L27.60675,28.96468 L120.63586,28.96468 L120.63586,27.81491 C120.635841,27.3825868 120.464083,26.967978 120.158371,26.6622934 C119.852658,26.3566088 119.438033,26.1848888 119.00571,26.18491 Z" id="el_l2iL85ArP3s" fill-rule="nonzero"/>
                            <g id="el_Pm0B6Hi2Bqx" fill-rule="nonzero">
                                <rect id="el_yxzexn0MV87" x="0.62582" y="0.68664" width="75.26529" height="20.76572"/>
                                <g id="el_XJEoz7V_2Mi">
                                    <path d="M3.32533,0.1601 L3.32533,3.08197 L0.40321,3.08197 L0.40321,0.1601 L3.32533,0.1601 Z M3.41468,0.07062 L0.31385,0.07062 L0.31385,3.17145 L3.41468,3.17145 L3.41468,0.07062 Z" id="el_a88_SUncrX8"/>
                                    <path d="M7.64735,0.1601 L7.64735,3.08197 L4.72523,3.08197 L4.72523,0.1601 L7.64735,0.1601 Z M7.7367,0.07062 L4.63587,0.07062 L4.63587,3.17145 L7.7367,3.17145 L7.7367,0.07062 Z" id="el_ZC6x_NyeylV"/>
                                    <path d="M11.96962,0.1601 L11.96962,3.08197 L9.04725,3.08197 L9.04725,0.1601 L11.96962,0.1601 Z M12.05897,0.07062 L8.9579,0.07062 L8.9579,3.17145 L12.05897,3.17145 L12.05897,0.07062 Z" id="el_Cq_z_TX526P"/>
                                    <path d="M16.29164,0.1601 L16.29164,3.08197 L13.36927,3.08197 L13.36927,0.1601 L16.29164,0.1601 Z M16.38099,0.07062 L13.27992,0.07062 L13.27992,3.17145 L16.38099,3.17145 L16.38099,0.07062 Z" id="el_QdM4E-NKZZx"/>
                                </g>
                                <g id="el_GxnSHj008Nj">
                                    <path d="M3.32533,0.56537 L3.32533,3.48725 L0.40321,3.48725 L0.40321,0.56537 L3.32533,0.56537 Z M3.41468,0.47589 L0.31385,0.47589 L0.31385,3.57672 L3.41468,3.57672 L3.41468,0.47589 Z" id="el_dE-POdCW5A6"/>
                                    <path d="M7.64735,0.56537 L7.64735,3.48725 L4.72523,3.48725 L4.72523,0.56537 L7.64735,0.56537 Z M7.7367,0.47589 L4.63587,0.47589 L4.63587,3.57672 L7.7367,3.57672 L7.7367,0.47589 Z" id="el_VbaaX7fvP06"/>
                                    <path d="M11.96962,0.56537 L11.96962,3.48725 L9.04725,3.48725 L9.04725,0.56537 L11.96962,0.56537 Z M12.05897,0.47589 L8.9579,0.47589 L8.9579,3.57672 L12.05897,3.57672 L12.05897,0.47589 Z" id="el_VW0XjVCsNd6"/>
                                    <path d="M16.29164,0.56537 L16.29164,3.48725 L13.36927,3.48725 L13.36927,0.56537 L16.29164,0.56537 Z M16.38099,0.47589 L13.27992,0.47589 L13.27992,3.57672 L16.38099,3.57672 L16.38099,0.47589 Z" id="el_ANOd62V4XbK"/>
                                </g>
                                <g id="el_KYQIZ1irhzK">
                                    <path d="M3.32533,0.97064 L3.32533,3.89252 L0.40321,3.89252 L0.40321,0.97064 L3.32533,0.97064 Z M3.41468,0.88117 L0.31385,0.88117 L0.31385,3.982 L3.41468,3.982 L3.41468,0.88117 Z" id="el_qQt-6pxjSfl"/>
                                    <path d="M7.64735,0.97064 L7.64735,3.89252 L4.72523,3.89252 L4.72523,0.97064 L7.64735,0.97064 Z M7.7367,0.88117 L4.63587,0.88117 L4.63587,3.982 L7.7367,3.982 L7.7367,0.88117 Z" id="el_v1Brj_apdjc"/>
                                    <path d="M11.96962,0.97064 L11.96962,3.89252 L9.04725,3.89252 L9.04725,0.97064 L11.96962,0.97064 Z M12.05897,0.88117 L8.9579,0.88117 L8.9579,3.982 L12.05897,3.982 L12.05897,0.88117 Z" id="el_sf3UyZ6h4Rc"/>
                                    <path d="M16.29164,0.97064 L16.29164,3.89252 L13.36927,3.89252 L13.36927,0.97064 L16.29164,0.97064 Z M16.38099,0.88117 L13.27992,0.88117 L13.27992,3.982 L16.38099,3.982 L16.38099,0.88117 Z" id="el_T72l4CIFWeU"/>
                                </g>
                                <g id="el_W8ftVjccWPa">
                                    <path d="M3.32533,0.37592 L3.32533,3.29779 L0.40321,3.29779 L0.40321,0.37592 L3.32533,0.37592 Z M3.41468,0.28644 L0.31385,0.28644 L0.31385,3.38727 L3.41468,3.38727 L3.41468,0.28644 Z" id="el_UdfIpPmuZ-F"/>
                                    <path d="M7.64735,0.37592 L7.64735,3.29779 L4.72523,3.29779 L4.72523,0.37592 L7.64735,0.37592 Z M7.7367,0.28644 L4.63587,0.28644 L4.63587,3.38727 L7.7367,3.38727 L7.7367,0.28644 Z" id="el_uYqtFZgteP_"/>
                                    <path d="M11.96962,0.37592 L11.96962,3.29779 L9.04725,3.29779 L9.04725,0.37592 L11.96962,0.37592 Z M12.05897,0.28644 L8.9579,0.28644 L8.9579,3.38727 L12.05897,3.38727 L12.05897,0.28644 Z" id="el_mstEcwcvEP-"/>
                                </g>
                                <g id="el_pU1e4B1BPHU">
                                    <path d="M3.68812,0.1601 L3.68812,3.08197 L0.766,3.08197 L0.766,0.1601 L3.68812,0.1601 Z M3.77748,0.07062 L0.67665,0.07062 L0.67665,3.17145 L3.77748,3.17145 L3.77748,0.07062 Z" id="el_HxFjIpgli6q"/>
                                    <path d="M8.01039,0.1601 L8.01039,3.08197 L5.08802,3.08197 L5.08802,0.1601 L8.01039,0.1601 Z M8.09974,0.07062 L4.99867,0.07062 L4.99867,3.17145 L8.09974,3.17145 L8.09974,0.07062 Z" id="el_htIXqeMyp-F"/>
                                    <path d="M12.33241,0.1601 L12.33241,3.08197 L9.41004,3.08197 L9.41004,0.1601 L12.33241,0.1601 Z M12.42176,0.07062 L9.32069,0.07062 L9.32069,3.17145 L12.42176,3.17145 L12.42176,0.07062 Z" id="el_OfdaQ9ZySJ0"/>
                                    <path d="M16.65443,0.1601 L16.65443,3.08197 L13.73231,3.08197 L13.73231,0.1601 L16.65443,0.1601 Z M16.74379,0.07062 L13.64295,0.07062 L13.64295,3.17145 L16.74379,3.17145 L16.74379,0.07062 Z" id="el_K7ihcrFNrwz"/>
                                </g>
                                <g id="el_a3dFg0C56Bv">
                                    <path d="M3.68812,0.56537 L3.68812,3.48725 L0.766,3.48725 L0.766,0.56537 L3.68812,0.56537 Z M3.77748,0.47589 L0.67665,0.47589 L0.67665,3.57672 L3.77748,3.57672 L3.77748,0.47589 Z" id="el_Oyvnh_zrV-Z"/>
                                    <path d="M8.01039,0.56537 L8.01039,3.48725 L5.08802,3.48725 L5.08802,0.56537 L8.01039,0.56537 Z M8.09974,0.47589 L4.99867,0.47589 L4.99867,3.57672 L8.09974,3.57672 L8.09974,0.47589 Z" id="el_v_-CoGfR6MR"/>
                                    <path d="M12.33241,0.56537 L12.33241,3.48725 L9.41004,3.48725 L9.41004,0.56537 L12.33241,0.56537 Z M12.42176,0.47589 L9.32069,0.47589 L9.32069,3.57672 L12.42176,3.57672 L12.42176,0.47589 Z" id="el_366FQSXo3M9"/>
                                    <path d="M16.65443,0.56537 L16.65443,3.48725 L13.73231,3.48725 L13.73231,0.56537 L16.65443,0.56537 Z M16.74379,0.47589 L13.64295,0.47589 L13.64295,3.57672 L16.74379,3.57672 L16.74379,0.47589 Z" id="el_RQUMF84BoRd"/>
                                </g>
                                <g id="el_qSHEeX7sdNa">
                                    <path d="M3.68812,0.97064 L3.68812,3.89252 L0.766,3.89252 L0.766,0.97064 L3.68812,0.97064 Z M3.77748,0.88117 L0.67665,0.88117 L0.67665,3.982 L3.77748,3.982 L3.77748,0.88117 Z" id="el_hasXcZ3FpYT"/>
                                    <path d="M8.01039,0.97064 L8.01039,3.89252 L5.08802,3.89252 L5.08802,0.97064 L8.01039,0.97064 Z M8.09974,0.88117 L4.99867,0.88117 L4.99867,3.982 L8.09974,3.982 L8.09974,0.88117 Z" id="el_zvfV_W1zc0A"/>
                                    <path d="M12.33241,0.97064 L12.33241,3.89252 L9.41004,3.89252 L9.41004,0.97064 L12.33241,0.97064 Z M12.42176,0.88117 L9.32069,0.88117 L9.32069,3.982 L12.42176,3.982 L12.42176,0.88117 Z" id="el_Gcf3FafO1cO"/>
                                    <path d="M16.65443,0.97064 L16.65443,3.89252 L13.73231,3.89252 L13.73231,0.97064 L16.65443,0.97064 Z M16.74379,0.88117 L13.64295,0.88117 L13.64295,3.982 L16.74379,3.982 L16.74379,0.88117 Z" id="el_v3eXZIJ7OFX"/>
                                </g>
                                <g id="el_HjqWjRGhjF4">
                                    <path d="M4.00306,0.1601 L4.00306,3.08197 L1.08094,3.08197 L1.08094,0.1601 L4.00306,0.1601 Z M4.09242,0.07062 L0.99159,0.07062 L0.99159,3.17145 L4.09242,3.17145 L4.09242,0.07062 Z" id="el_i8xUFIaM2RW"/>
                                    <path d="M8.32533,0.1601 L8.32533,3.08197 L5.40296,3.08197 L5.40296,0.1601 L8.32533,0.1601 Z M8.41468,0.07062 L5.31361,0.07062 L5.31361,3.17145 L8.41468,3.17145 L8.41468,0.07062 Z" id="el_-wAu75iGibG"/>
                                    <path d="M12.64735,0.1601 L12.64735,3.08197 L9.72523,3.08197 L9.72523,0.1601 L12.64735,0.1601 Z M12.7367,0.07062 L9.63587,0.07062 L9.63587,3.17145 L12.7367,3.17145 L12.7367,0.07062 Z" id="el_6EW2upe9s6q"/>
                                </g>
                                <g id="el_ueMN-qwPEZ0">
                                    <path d="M4.00306,0.56537 L4.00306,3.48725 L1.08094,3.48725 L1.08094,0.56537 L4.00306,0.56537 Z M4.09242,0.47589 L0.99159,0.47589 L0.99159,3.57672 L4.09242,3.57672 L4.09242,0.47589 Z" id="el_RZnrlXMBRYF"/>
                                    <path d="M8.32533,0.56537 L8.32533,3.48725 L5.40296,3.48725 L5.40296,0.56537 L8.32533,0.56537 Z M8.41468,0.47589 L5.31361,0.47589 L5.31361,3.57672 L8.41468,3.57672 L8.41468,0.47589 Z" id="el_EN07smZ9LCD"/>
                                    <path d="M12.64735,0.56537 L12.64735,3.48725 L9.72523,3.48725 L9.72523,0.56537 L12.64735,0.56537 Z M12.7367,0.47589 L9.63587,0.47589 L9.63587,3.57672 L12.7367,3.57672 L12.7367,0.47589 Z" id="el_43q1qkSrGPa"/>
                                </g>
                                <g id="el_u1EC1ht7PUI">
                                    <path d="M4.00306,0.97064 L4.00306,3.89252 L1.08094,3.89252 L1.08094,0.97064 L4.00306,0.97064 Z M4.09242,0.88117 L0.99159,0.88117 L0.99159,3.982 L4.09242,3.982 L4.09242,0.88117 Z" id="el_4wjJ5hcFNW7"/>
                                    <path d="M8.32533,0.97064 L8.32533,3.89252 L5.40296,3.89252 L5.40296,0.97064 L8.32533,0.97064 Z M8.41468,0.88117 L5.31361,0.88117 L5.31361,3.982 L8.41468,3.982 L8.41468,0.88117 Z" id="el_aGCHsJ1bpJH"/>
                                    <path d="M12.64735,0.97064 L12.64735,3.89252 L9.72523,3.89252 L9.72523,0.97064 L12.64735,0.97064 Z M12.7367,0.88117 L9.63587,0.88117 L9.63587,3.982 L12.7367,3.982 L12.7367,0.88117 Z" id="el_w9mqgMsUvjT"/>
                                </g>
                                <g id="el_DLFTlKXp9FM">
                                    <path d="M4.00306,0.37592 L4.00306,3.29779 L1.08094,3.29779 L1.08094,0.37592 L4.00306,0.37592 Z M4.09242,0.28644 L0.99159,0.28644 L0.99159,3.38727 L4.09242,3.38727 L4.09242,0.28644 Z" id="el_dM5_q6_y2tQ"/>
                                    <path d="M8.32533,0.37592 L8.32533,3.29779 L5.40296,3.29779 L5.40296,0.37592 L8.32533,0.37592 Z M8.41468,0.28644 L5.31361,0.28644 L5.31361,3.38727 L8.41468,3.38727 L8.41468,0.28644 Z" id="el_jtzLjJjAIGH"/>
                                    <path d="M12.64735,0.37592 L12.64735,3.29779 L9.72523,3.29779 L9.72523,0.37592 L12.64735,0.37592 Z M12.7367,0.28644 L9.63587,0.28644 L9.63587,3.38727 L12.7367,3.38727 L12.7367,0.28644 Z" id="el_M-e3K-cm6z8"/>
                                </g>
                                <g id="el_S40Zo-dICsP">
                                    <path d="M3.33119,0.1601 L3.33119,3.08197 L0.40907,3.08197 L0.40907,0.1601 L3.33119,0.1601 Z M3.42054,0.07062 L0.31971,0.07062 L0.31971,3.17145 L3.42054,3.17145 L3.42054,0.07062 Z" id="el_FAUX-ynTAiu"/>
                                    <path d="M7.65321,0.1601 L7.65321,3.08197 L4.73109,3.08197 L4.73109,0.1601 L7.65321,0.1601 Z M7.74256,0.07062 L4.64173,0.07062 L4.64173,3.17145 L7.74256,3.17145 L7.74256,0.07062 Z" id="el_r6GophqFnh9"/>
                                    <path d="M11.97523,0.1601 L11.97523,3.08197 L9.05311,3.08197 L9.05311,0.1601 L11.97523,0.1601 Z M12.06459,0.07062 L8.96376,0.07062 L8.96376,3.17145 L12.06459,3.17145 L12.06459,0.07062 Z" id="el_Oon4xrKxGB8"/>
                                    <path d="M16.2975,0.1601 L16.2975,3.08197 L13.37513,3.08197 L13.37513,0.1601 L16.2975,0.1601 Z M16.38685,0.07062 L13.28578,0.07062 L13.28578,3.17145 L16.38685,3.17145 L16.38685,0.07062 Z" id="el_Y7tpWagckGK"/>
                                </g>
                                <g id="el_TBggQirzT2b">
                                    <path d="M3.33119,0.56537 L3.33119,3.48725 L0.40907,3.48725 L0.40907,0.56537 L3.33119,0.56537 Z M3.42054,0.47589 L0.31971,0.47589 L0.31971,3.57672 L3.42054,3.57672 L3.42054,0.47589 Z" id="el_wy9tQ4g7YTU"/>
                                    <path d="M7.65321,0.56537 L7.65321,3.48725 L4.73109,3.48725 L4.73109,0.56537 L7.65321,0.56537 Z M7.74256,0.47589 L4.64173,0.47589 L4.64173,3.57672 L7.74256,3.57672 L7.74256,0.47589 Z" id="el_rtHLddndNNP"/>
                                    <path d="M16.2975,0.56537 L16.2975,3.48725 L9.05311,3.48725 L9.05311,0.56537 L16.2975,0.56537 Z M16.38685,0.47589 L8.96376,0.47589 L8.96376,3.57672 L16.38685,3.57672 L16.38685,0.47589 Z" id="el_q3pAExCvM_H"/>
                                </g>
                                <g id="el_yvUOwfrMDpS">
                                    <path d="M3.33119,0.97064 L3.33119,3.89252 L0.40907,3.89252 L0.40907,0.97064 L3.33119,0.97064 Z M3.42054,0.88117 L0.31971,0.88117 L0.31971,3.982 L3.42054,3.982 L3.42054,0.88117 Z" id="el_nT3scYVfj18"/>
                                    <path d="M7.65321,0.97064 L7.65321,3.89252 L4.73109,3.89252 L4.73109,0.97064 L7.65321,0.97064 Z M7.74256,0.88117 L4.64173,0.88117 L4.64173,3.982 L7.74256,3.982 L7.74256,0.88117 Z" id="el_QIXp7__WJsA"/>
                                    <path d="M11.97523,0.97064 L11.97523,3.89252 L9.05311,3.89252 L9.05311,0.97064 L11.97523,0.97064 Z M12.06459,0.88117 L8.96376,0.88117 L8.96376,3.982 L12.06459,3.982 L12.06459,0.88117 Z" id="el_PVO3kmqrOqE"/>
                                    <path d="M16.2975,0.97064 L16.2975,3.89252 L13.37513,3.89252 L13.37513,0.97064 L16.2975,0.97064 Z M16.38685,0.88117 L13.28578,0.88117 L13.28578,3.982 L16.38685,3.982 L16.38685,0.88117 Z" id="el_JLtElTQ9YwR"/>
                                </g>
                                <g id="el_-uz5cKhGxCr">
                                    <path d="M3.33119,0.37592 L3.33119,3.29779 L0.40907,3.29779 L0.40907,0.37592 L3.33119,0.37592 Z M3.42054,0.28644 L0.31971,0.28644 L0.31971,3.38727 L3.42054,3.38727 L3.42054,0.28644 Z" id="el_gAAZlP-FOp2"/>
                                    <path d="M7.65321,0.37592 L7.65321,3.29779 L4.73109,3.29779 L4.73109,0.37592 L7.65321,0.37592 Z M7.74256,0.28644 L4.64173,0.28644 L4.64173,3.38727 L7.74256,3.38727 L7.74256,0.28644 Z" id="el_ZPnLtOA9jEh"/>
                                    <path d="M11.97523,0.37592 L11.97523,3.29779 L9.05311,3.29779 L9.05311,0.37592 L11.97523,0.37592 Z M12.06459,0.28644 L8.96376,0.28644 L8.96376,3.38727 L12.06459,3.38727 L12.06459,0.28644 Z" id="el_q_gznGu4mdr"/>
                                    <path d="M16.2975,0.37592 L16.2975,3.29779 L13.37513,3.29779 L13.37513,0.37592 L16.2975,0.37592 Z M16.38685,0.28644 L13.28578,0.28644 L13.28578,3.38727 L16.38685,3.38727 L16.38685,0.28644 Z" id="el_NGKiN9sq4zy"/>
                                </g>
                                <path d="M36.65443,16.37592 L36.65443,19.29779 L16.36927,19.29779 L16.36927,16.37592 L36.65443,16.37592 Z M36.74379,16.28644 L16.27992,16.28644 L16.27992,19.38727 L36.74379,19.38727 L36.74379,16.28644 Z" id="el_HibtlDKG5MG"/>
                            </g>
                            <rect id="el_CwTRgXRCvYJ" x="77.55606" y="39.80091" width="27.37047" height="13.2236"/>
                            <polygon id="el_3Sf1a1vSvoP" points="112.866 71.435 112.866 70.855 110.093 70.855 110.093 71.435 110.093 72.016 110.093 74.937 115.639 74.937 115.639 71.435"/>
                            <polygon id="el_C7-gobBh3FG" points="112.866 64.312 112.866 63.732 110.093 63.732 110.093 64.312 110.093 64.892 110.093 67.813 115.639 67.813 115.639 64.312"/>
                            <polygon id="el_ddFquwWNKRY" points="112.866 57.244 112.866 56.664 110.093 56.664 110.093 57.244 110.093 57.824 110.093 60.745 115.639 60.745 115.639 57.244"/>
                        </g></g>
                        <g id="el_IxTmtb5X5Yi_HHG3sDpLF" data-animator-group="true" data-animator-type="0"><g id="el_IxTmtb5X5Yi" fill-rule="nonzero">
                            <path d="M139.27577,44.99555 C139.30458,44.99555 139.33338,44.99664 139.36268,44.99896 C139.645535,45.0208539 139.90787,45.1550107 140.0912,45.37152 C140.275652,45.5870478 140.366281,45.8673737 140.34291,46.15009 L139.45423,57.25309 L139.41859,57.6989 L139.86439,57.73454 L140.89466,57.81694 L141.34046,57.8527 L141.37611,57.40678 L142.07045,48.73295 C142.117076,48.178969 142.578719,47.7521155 143.13465,47.74895 C143.16346,47.74895 143.19227,47.75005 143.22157,47.75237 C143.50439,47.7743759 143.766682,47.9085121 143.95008,48.12493 C144.13452,48.3404644 144.225147,48.6207853 144.20179,48.9035 L143.5077,57.57745 L143.47206,58.02325 L143.91786,58.05889 L144.94786,58.14141 L145.39366,58.17718 L145.4293,57.73138 L145.68638,54.52117 C145.732902,53.967235 146.194504,53.5403878 146.75038,53.53728 C146.77919,53.53728 146.80824,53.53838 146.83729,53.5407 C147.425439,53.5886501 147.863932,54.1034083 147.81776,54.6917 L147.56068,57.90179 L147.52504,58.34771 L147.97084,58.38335 L149.00111,58.46575 L149.44691,58.50152 L149.48255,58.05559 L149.62733,56.24602 C149.67396,55.6920374 150.135607,55.265185 150.69154,55.26202 C150.72035,55.26202 150.74916,55.26311 150.77845,55.26543 C151.366602,55.3133748 151.805098,55.8281365 151.75892,56.41643 L151.61392,58.22637 L151.46692,60.08537 L149.6593,70.79631 L149.56409,70.77397 L149.53064,71.30241 L146.81264,114.01164 L135.75747,113.12687 L141.19326,69.22477 L141.24257,68.82597 L140.85146,68.7343 L137.24306,67.8892 L137.2416,67.88237 L136.97182,67.81877 C135.793764,67.5440176 134.735204,66.8979146 133.95229,65.97577 C132.968159,64.8268404 132.484635,63.3319131 132.60952,61.82428 L132.99135,57.05414 C133.040692,56.466803 133.530133,56.0142243 134.11953,56.01093 C134.15005,56.01093 134.18081,56.01215 134.21181,56.01459 C134.51178,56.0378352 134.790001,56.1800587 134.98452,56.40959 C135.180204,56.6380786 135.276376,56.9353403 135.25161,57.23515 L134.87832,61.89641 L134.84267,62.34221 L135.28847,62.37785 L136.44985,62.47085 L136.89565,62.50661 L136.9313,62.06069 L137.27773,57.73049 L137.30703,57.28323 L138.21181,45.97939 C138.258337,45.4254589 138.719937,44.9986173 139.27581,44.99551 L139.27577,44.99555 Z M139.27581,44.54824 C138.485928,44.5492563 137.829087,45.1563877 137.76604,45.94375 L136.82537,57.69436 L136.83196,57.69485 L136.48552,62.02505 L135.32415,61.93205 L135.69744,57.27079 C135.766965,56.4004097 135.117811,55.6384371 134.24744,55.56879 C134.20444,55.56537 134.16174,55.56366 134.11951,55.56366 C133.296012,55.5646513 132.611194,56.1976251 132.54551,57.0185 L132.16368,61.78864 C132.02891,63.4145779 132.550429,65.0268295 133.61192,66.26581 C134.456833,67.2600827 135.59849,67.9570054 136.869,68.25409 L136.87071,68.26142 L140.74937,69.16986 L135.25621,113.53546 L147.23008,114.49384 L149.97691,71.33084 L150.02085,71.34122 L151.90785,60.15982 L152.0597,58.262 L152.2047,56.45218 C152.271335,55.6174065 151.648826,54.8865886 150.81408,54.81961 C150.77308,54.81632 150.73208,54.81473 150.69152,54.81473 C149.901572,54.8156842 149.24463,55.4228167 149.18152,56.21024 L149.03674,58.01993 L148.00647,57.93753 L148.26355,54.72745 C148.330282,53.8926452 147.707722,53.1617681 146.87293,53.09488 C146.83193,53.09159 146.79093,53.09 146.75037,53.09 C145.960488,53.0910163 145.303647,53.6981477 145.2406,54.48551 L144.98352,57.69559 L143.95352,57.61307 L144.64761,48.93912 C144.714459,48.1043649 144.09198,47.3734565 143.25723,47.30655 C143.21623,47.30326 143.17523,47.30167 143.13467,47.30167 C142.344743,47.302677 141.687831,47.9097815 141.62467,48.69718 L140.93034,57.37118 L139.90007,57.28878 L140.78874,46.18578 C140.820886,45.7849054 140.692453,45.3876818 140.4317,45.0815088 C140.170948,44.7753359 139.799239,44.5852985 139.39836,44.55321 C139.35736,44.54992 139.31636,44.54833 139.2758,44.54833 L139.27581,44.54824 Z" id="el_y7fz0t3hJDf"/>
                            <path d="M87.55605,79.52109 L123.07806,79.52109 C128.784597,79.5210873 134.257409,81.7879991 138.29254,85.8231299 C142.327671,89.8582607 144.594583,95.3310733 144.59458,101.03761 L144.59458,109.11779 L87.55605,109.11779 L87.55605,79.52109 Z" id="el_MlRN0GL5-l0"/>
                            <g id="el_ljPb6h1JOTX">
                                <path d="M106.115,28.7463 C106.115021,21.2035926 103.118711,13.9698067 97.7852249,8.63629406 C92.4517385,3.30278139 85.2179674,0.306435913 77.67526,0.30642 C62.4400585,0.307598496 49.912443,12.3153992 49.266,27.53688 L49.23545,27.54488 L49.23545,49.52818 C49.1964851,53.7788526 45.7323892,57.2003057 41.48156,57.18662 C37.2901508,57.2392297 33.9199828,60.6519707 33.91999,64.84371 L33.91999,69.87928 C33.91999,74.1085054 30.4915254,77.53697 26.2623,77.53697 L18.46001,77.53697 C14.2307404,77.53697 10.80224,80.9654704 10.80224,85.19474 L10.80224,89.2403 C10.80224,93.4695254 7.37377541,96.89799 3.14455,96.89799 L0.39962,97.34526 L0.39962,108.08798 L77.67526,108.08798 L84.54282,108.0523 C96.4888446,107.990237 106.140226,98.2885859 106.14023,86.3424 L106.14023,28.74628 L106.115,28.7463 Z" id="el_XForF8HzBuP"/>
                                <path d="M106.115,28.7463 C106.115021,21.2035926 103.118711,13.9698067 97.7852249,8.63629406 C92.4517385,3.30278139 85.2179674,0.306435913 77.67526,0.30642 C62.4400441,0.307562556 49.9124077,12.3153832 49.266,27.53688 L49.23545,27.54488 L49.23545,49.52818 C49.1965178,53.7787875 45.7324637,57.2001941 41.4817,57.18647 C37.290255,57.2390575 33.9200323,60.6517951 33.91999,64.84357 L33.91999,69.87928 C33.91999,74.1085054 30.4915254,77.53697 26.2623,77.53697 L18.46001,77.53697 C14.2307404,77.53697 10.80224,80.9654704 10.80224,85.19474 L10.80224,89.2403 C10.80224,93.4695254 7.37377541,96.89799 3.14455,96.89799 L0.39962,97.34526 L0.39962,108.08798 L69.75244,108.08798 L84.51827,108.02798 C96.4739457,107.979408 106.140259,98.2737544 106.14027,86.31798 L106.14027,28.74631 L106.115,28.7463 Z" id="el_BtphrdO2Ol9"/>
                            </g>
                            <path d="M113.115,28.7463 C113.115,28.30923 113.10158,27.87537 113.082,27.44311 C113.0769,27.3295 113.0707,27.21604 113.06421,27.10273 C113.04248,26.72093 113.01433,26.34103 112.97766,25.96346 C112.97248,25.91052 112.9692,25.857 112.96373,25.80406 C112.92042,25.38274 112.8658,24.96492 112.80433,24.54929 C112.78833,24.44093 112.77064,24.33329 112.75333,24.22539 C112.69769,23.8772767 112.63593,23.5313533 112.56805,23.18762 C112.5523,23.10843 112.53844,23.02862 112.52211,22.94976 C112.43825,22.54492 112.345583,22.1434333 112.24411,21.7453 C112.21873,21.64497 112.19117,21.54551 112.16462,21.44547 C112.078953,21.1220033 111.98776,20.8007733 111.89104,20.48178 C111.86194,20.38597 111.83423,20.28957 111.80426,20.19434 C111.68256,19.80802 111.55306,19.4253 111.41576,19.04618 C111.38376,18.95794 111.34926,18.87103 111.31644,18.78338 C111.201233,18.4752267 111.080773,18.16965 110.95506,17.86665 C110.91206,17.76282 110.86968,17.65884 110.82549,17.55573 C110.66842,17.1891 110.5053,16.82582 110.33349,16.46736 C110.29936,16.39605 110.26276,16.32636 110.22805,16.25546 C110.081703,15.95664 109.930203,15.6608367 109.77355,15.36805 C109.71638,15.26115 109.65922,15.1544 109.60088,15.04823 C109.41057,14.70289 109.21588,14.36032 109.01188,14.02388 C108.9841,13.97809 108.95442,13.93346 108.92627,13.88782 C108.743097,13.58944 108.554313,13.2949467 108.35992,13.00434 C108.288967,12.89788 108.217337,12.7919567 108.14503,12.68657 C107.956097,12.4109433 107.762597,12.1388133 107.56453,11.87018 C107.52231,11.81301 107.48206,11.75438 107.43933,11.69765 C107.20877,11.39023 106.97003,11.08937 106.72751,10.79172 C106.64358,10.68872 106.55826,10.58711 106.47295,10.48532 C106.279617,10.2547533 106.08269,10.0274433 105.88217,9.80339 C105.8118,9.72464 105.74317,9.64428 105.67195,9.56626 C105.41695,9.28742 105.156243,9.01398 104.88983,8.74594 C104.79533,8.65041 104.69883,8.55679 104.60297,8.46258 C104.400837,8.26395333 104.195743,8.06843333 103.98769,7.87602 C103.89469,7.78984 103.80269,7.70248 103.70849,7.61746 C103.430737,7.36706 103.148033,7.1222 102.86038,6.88288 C102.75953,6.79888 102.6565,6.71751 102.55456,6.63496 C102.33872,6.46024667 102.120357,6.2886 101.89947,6.12002 C101.78841,6.03543 101.67787,5.95012 101.56547,5.86702 C101.266217,5.64578667 100.96271,5.42995 100.65495,5.21951 C100.55295,5.15009 100.44866,5.08388 100.3457,5.01578 C100.11112,4.86061333 99.8742333,4.70875 99.63504,4.56019 C99.51065,4.48304 99.38617,4.40604 99.26054,4.33079 C98.93992,4.13887 98.61654,3.95103 98.28795,3.77151 L98.28577,3.77034 L98.28577,106.91726 C107.154936,103.963878 113.138693,95.6659117 113.14017,86.31794 L113.14017,28.74633 L113.115,28.7463 Z" id="el_Po4JMaMLP9z"/>
                            <rect id="el_4OlT4ZiVZhE" x="85.25846" y="17.26356" width="5.93373" height="90.67656"/>
                            <path d="M56.266,27.49376 L56.23545,27.50176 L56.23545,49.48506 C56.2354224,53.7143052 52.8069252,57.1427666 48.57768,57.14275 C44.3484729,57.1427942 40.9200342,60.5712329 40.91999,64.80044 L40.91999,69.83616 C40.9199569,74.0654029 37.4914629,77.493861 33.26222,77.49385 L25.46001,77.49385 C21.2307648,77.4938334 17.8022676,80.9222948 17.80224,85.15154 L17.80224,89.19718 C17.8022427,91.2281265 16.9954535,93.1758914 15.5593575,94.6119875 C14.1232614,96.0480835 12.1754965,96.8548727 10.14455,96.85487 C5.3349,96.85487 0.97435,100.23945 0.97435,108.04487 L34.58576,108.04487 C35.1909152,106.945374 35.5075617,105.71045 35.50613,104.45542 L35.50613,101.11957 C35.5061599,97.1469792 38.6182994,93.8707468 42.58565,93.66677 L48.00047,93.38852 C51.967793,93.1845073 55.079892,89.9082851 55.07992,85.93572 L55.07992,80.473 C55.0799531,76.3515244 58.4210844,73.010429 62.54256,73.01044 L62.54263,73.01044 C66.5717101,73.0104309 69.8733013,69.812193 70.00141,65.78515 L70.77755,41.39498 L70.92644,3.81148 C62.2428226,8.60746944 56.6867529,17.5826706 56.266,27.49376 Z" id="el_nWQzac0IcRt"/>
                        </g></g>
                    </g>
                </g>
            </g>
            <g id="el_06YMMUbqiDJ_1qiAQ8eLw" data-animator-group="true" data-animator-type="2"><circle id="el_06YMMUbqiDJ" mask="url(#mask-2)" cx="99.5" cy="99.5" r="99.5"/></g>
        </g>
    </g>
<script>(function(){var a=document.querySelector('#el_TPCZOnd6T'),b=a.querySelectorAll('style'),c=function(d){b.forEach(function(f){var g=f.textContent;g&amp;&amp;(f.textContent=g.replace(/transform-box:[^;\r\n]*/gi,'transform-box: '+d))})};c('initial'),window.requestAnimationFrame(function(){return c('fill-box')})})();</script></svg>