<svg width="199" height="199" viewBox="0 0 199 199" version="1.1" xmlns="http://www.w3.org/2000/svg" xmlns:xlink="http://www.w3.org/1999/xlink" id="el_8XnxJKNxP"><style>@-webkit-keyframes el_Ewo6_uw252A_rIKvZz5zZ_Animation{56.67%{-webkit-transform: rotate(0deg);transform: rotate(0deg);}61.67%{-webkit-transform: rotate(10deg);transform: rotate(10deg);}71.67%{-webkit-transform: rotate(-10deg);transform: rotate(-10deg);}76.67%{-webkit-transform: rotate(0deg);transform: rotate(0deg);}0%{-webkit-transform: rotate(0deg);transform: rotate(0deg);}100%{-webkit-transform: rotate(0deg);transform: rotate(0deg);}}@keyframes el_Ewo6_uw252A_rIKvZz5zZ_Animation{56.67%{-webkit-transform: rotate(0deg);transform: rotate(0deg);}61.67%{-webkit-transform: rotate(10deg);transform: rotate(10deg);}71.67%{-webkit-transform: rotate(-10deg);transform: rotate(-10deg);}76.67%{-webkit-transform: rotate(0deg);transform: rotate(0deg);}0%{-webkit-transform: rotate(0deg);transform: rotate(0deg);}100%{-webkit-transform: rotate(0deg);transform: rotate(0deg);}}@-webkit-keyframes el_Ewo6_uw252A_UfDvTkLLk_Animation{30%{-webkit-transform: translate(0px, 180px);transform: translate(0px, 180px);}50%{-webkit-transform: translate(0px, 0px);transform: translate(0px, 0px);}0%{-webkit-transform: translate(0px, 180px);transform: translate(0px, 180px);}100%{-webkit-transform: translate(0px, 0px);transform: translate(0px, 0px);}}@keyframes el_Ewo6_uw252A_UfDvTkLLk_Animation{30%{-webkit-transform: translate(0px, 180px);transform: translate(0px, 180px);}50%{-webkit-transform: translate(0px, 0px);transform: translate(0px, 0px);}0%{-webkit-transform: translate(0px, 180px);transform: translate(0px, 180px);}100%{-webkit-transform: translate(0px, 0px);transform: translate(0px, 0px);}}@-webkit-keyframes el_u9jFSrkgYfH_vKXfL1vR0_Animation{31.67%{-webkit-transform: translate(0px, 180px);transform: translate(0px, 180px);}51.67%{-webkit-transform: translate(0px, 0px);transform: translate(0px, 0px);}0%{-webkit-transform: translate(0px, 180px);transform: translate(0px, 180px);}100%{-webkit-transform: translate(0px, 0px);transform: translate(0px, 0px);}}@keyframes el_u9jFSrkgYfH_vKXfL1vR0_Animation{31.67%{-webkit-transform: translate(0px, 180px);transform: translate(0px, 180px);}51.67%{-webkit-transform: translate(0px, 0px);transform: translate(0px, 0px);}0%{-webkit-transform: translate(0px, 180px);transform: translate(0px, 180px);}100%{-webkit-transform: translate(0px, 0px);transform: translate(0px, 0px);}}@-webkit-keyframes el_2jmtxTwfQDC_Animation{20%{opacity: 0;}33.33%{opacity: 1;}0%{opacity: 0;}100%{opacity: 1;}}@keyframes el_2jmtxTwfQDC_Animation{20%{opacity: 0;}33.33%{opacity: 1;}0%{opacity: 0;}100%{opacity: 1;}}@-webkit-keyframes el_bwHCoASZqwX_nsuw1QEXk_Animation{0%{-webkit-transform: translate(0px, 0px);transform: translate(0px, 0px);}13.33%{-webkit-transform: translate(160px, 0px);transform: translate(160px, 0px);}100%{-webkit-transform: translate(160px, 0px);transform: translate(160px, 0px);}}@keyframes el_bwHCoASZqwX_nsuw1QEXk_Animation{0%{-webkit-transform: translate(0px, 0px);transform: translate(0px, 0px);}13.33%{-webkit-transform: translate(160px, 0px);transform: translate(160px, 0px);}100%{-webkit-transform: translate(160px, 0px);transform: translate(160px, 0px);}}@-webkit-keyframes el__DVYxcdbxQ_N6WSnPEzb_Animation{0%{-webkit-transform: translate(0px, 0px);transform: translate(0px, 0px);}13.33%{-webkit-transform: translate(-160px, 0px);transform: translate(-160px, 0px);}100%{-webkit-transform: translate(-160px, 0px);transform: translate(-160px, 0px);}}@keyframes el__DVYxcdbxQ_N6WSnPEzb_Animation{0%{-webkit-transform: translate(0px, 0px);transform: translate(0px, 0px);}13.33%{-webkit-transform: translate(-160px, 0px);transform: translate(-160px, 0px);}100%{-webkit-transform: translate(-160px, 0px);transform: translate(-160px, 0px);}}@-webkit-keyframes el_K52kbJ5MaK_OYWGzrp1U_Animation{10%{-webkit-transform: translate(0px, 0px);transform: translate(0px, 0px);}20%{-webkit-transform: translate(0px, 100px);transform: translate(0px, 100px);}0%{-webkit-transform: translate(0px, 0px);transform: translate(0px, 0px);}100%{-webkit-transform: translate(0px, 100px);transform: translate(0px, 100px);}}@keyframes el_K52kbJ5MaK_OYWGzrp1U_Animation{10%{-webkit-transform: translate(0px, 0px);transform: translate(0px, 0px);}20%{-webkit-transform: translate(0px, 100px);transform: translate(0px, 100px);}0%{-webkit-transform: translate(0px, 0px);transform: translate(0px, 0px);}100%{-webkit-transform: translate(0px, 100px);transform: translate(0px, 100px);}}@-webkit-keyframes el_XmcI6LjSLI_AFjNWlmXV_Animation{0%{-webkit-transform: translate(0px, 15px);transform: translate(0px, 15px);}100%{-webkit-transform: translate(0px, 15px);transform: translate(0px, 15px);}}@keyframes el_XmcI6LjSLI_AFjNWlmXV_Animation{0%{-webkit-transform: translate(0px, 15px);transform: translate(0px, 15px);}100%{-webkit-transform: translate(0px, 15px);transform: translate(0px, 15px);}}#el_8XnxJKNxP *{-webkit-animation-duration: 2s;animation-duration: 2s;-webkit-animation-timing-function: cubic-bezier(0, 0, 1, 1);animation-timing-function: cubic-bezier(0, 0, 1, 1);}#el_bVaXji5QCw{stroke: none;stroke-width: 1;fill: none;}#el_vsiXIAeeFq{fill: #D8D8D8;}#el_hVcMy7C8Hq{-webkit-transform: translate(-72px, -73px);transform: translate(-72px, -73px);}#el_XmcI6LjSLI{-webkit-transform: translate(40px, 0px);transform: translate(40px, 0px);}#el_ubcFM275TP{fill: #A3CBCC;}#el_863KbjgvEb{-webkit-transform: translate(4px, 104px);transform: translate(4px, 104px);}#el_K52kbJ5MaK{fill: #FCC74A;}#el__DVYxcdbxQ{-webkit-transform: translate(92px, 0px);transform: translate(92px, 0px);}#el_5PVh2hp5nW{-webkit-transform: translate(47px, 81px);transform: translate(47px, 81px);}#el_tnqizojqCM{fill: #474747;}#el_slnKsWNUCf{stroke: #474747;stroke-width: 0.89455;}#el_9hkkp-seS9{stroke: #FFFFFF;stroke-width: 0.44727;}#el_i8POsN7ZpI{-webkit-transform: translate(94px, 76px);transform: translate(94px, 76px);}#el_Zyney1zUlMA{fill: #FFFFFF;}#el_Oqst5BU19ii{stroke: #FFFFFF;stroke-width: 0.44727;}#el_o485k5CHy6-{fill: #474747;}#el_ttzBBsLrAQC{fill: #A3CBCC;}#el_oLxbG2JVWYn{-webkit-transform: translate(10px, 94px);transform: translate(10px, 94px);}#el_wEnuA8sk34n{fill: #F969A4;}#el_Nn1XcHwSz_O{stroke: #F969A4;stroke-width: 0.44727;}#el_CCxUaEaL_ql{-webkit-transform: translate(39px, 34px);transform: translate(39px, 34px);fill: #FFFFFF;opacity: 0.48;}#el_Lq24qUzaSh-{opacity: 0.49;}#el_NpMBgYG7ulk{fill: url(#linearGradient-3);}#el_FGD9NOGV_3B{fill: url(#linearGradient-4);}#el__hJvaLGoR1Y{fill: url(#linearGradient-5);}#el_GWmG3vGbMEZ{fill: url(#linearGradient-6);}#el_OgCyq8_jdLq{fill: url(#linearGradient-7);}#el_jqXMpn6sZHW{fill: url(#linearGradient-8);}#el_HCJirDad7Jm{fill: url(#linearGradient-9);}#el_9-vMhKvH5T6{-webkit-transform: translate(79px, 17px);transform: translate(79px, 17px);}#el_X1Z804cSHAO{stroke: #474747;stroke-width: 0.447;}#el_NnoG5GXwusn{stroke: #474747;stroke-width: 0.08945;}#el_OvKBV-vlStH{fill: #474747;}#el_tAIMl3fm2LV{stroke: #474747;stroke-width: 0.447;}#el_OS-asVQSxpb{fill: #F1F7F7;}#el_iA1ASMuLbOa{-webkit-transform: translate(37px, 103px);transform: translate(37px, 103px);}#el_AFLfWzuH98N{fill: #474747;}#el_-euwNk_o-05{-webkit-transform: translate(3px, 3px);transform: translate(3px, 3px);fill: #FCC74A;}#el_RHcN_RZA1Kp{-webkit-transform: translate(3px, 7px);transform: translate(3px, 7px);fill: #FCC74A;}#el_lapvOS7N5rV{-webkit-transform: translate(3px, 11px);transform: translate(3px, 11px);fill: #FCC74A;}#el_c71CD5EeT3n{-webkit-transform: translate(3px, 16px);transform: translate(3px, 16px);fill: #FCC74A;}#el_W_jDe78W-aF{-webkit-transform: translate(20px, 3px);transform: translate(20px, 3px);fill: #FCC74A;}#el_BBrlUKrNKBr{-webkit-transform: translate(20px, 7px);transform: translate(20px, 7px);fill: #FCC74A;}#el_3w-OU8ukFON{-webkit-transform: translate(20px, 11px);transform: translate(20px, 11px);fill: #FCC74A;}#el_RDZvri6-lIF{-webkit-transform: translate(59px, 3px);transform: translate(59px, 3px);fill: #FCC74A;}#el_67PtfuKJrQ3{-webkit-transform: translate(59px, 7px);transform: translate(59px, 7px);fill: #FCC74A;}#el__yopZrWYWXC{-webkit-transform: translate(59px, 11px);transform: translate(59px, 11px);fill: #FCC74A;}#el_mn6D-BEzHKO{-webkit-transform: translate(59px, 16px);transform: translate(59px, 16px);fill: #FCC74A;}#el_JetMOQ1Ixnw{-webkit-transform: translate(38px, 3px);transform: translate(38px, 3px);fill: #FCC74A;}#el_1-9MD12uCAb{-webkit-transform: translate(38px, 7px);transform: translate(38px, 7px);fill: #FCC74A;}#el_D1ZeZZ-3Sxj{-webkit-transform: translate(38px, 11px);transform: translate(38px, 11px);fill: #FCC74A;}#el_GHemM2RyoKt{-webkit-transform: translate(38px, 16px);transform: translate(38px, 16px);fill: #FCC74A;}#el_SHsC72QNRxn{fill: #FCC74A;}#el_c_-BB_eWbVD{stroke: #F969A4;stroke-width: 0.44727;}#el_sxqmgNu-7Jo{stroke: #F969A4;stroke-width: 0.22364;}#el_XoENRFQm1e_{stroke: #F969A4;stroke-width: 0.22364;}#el_AUU5ksdJWux{stroke: #F969A4;stroke-width: 0.22364;}#el_bwHCoASZqwX{-webkit-transform: translate(82px, 60px);transform: translate(82px, 60px);}#el_Mo5_EBitT1X{fill: #F969A4;}#el_JbXy9UPkyxa{fill: #FFFFFF;}#el_GONLRVET9EP{-webkit-transform: translate(7px, 0px);transform: translate(7px, 0px);}#el_s8doaB4W0m3{fill: #FFFFFF;}#el_u_prHCL6L45{fill: url(#linearGradient-10);}#el_QTjx5V3uokr{fill: url(#linearGradient-11);}#el_DDbwCc2GdRf{fill: url(#linearGradient-12);}#el_RdVlSufeWAG{fill: url(#linearGradient-10);}#el_1Gzh7E4OBwD{-webkit-transform: translate(69px, 68px);transform: translate(69px, 68px);}#el_2jmtxTwfQDC{fill: #40BEAD;-webkit-animation-name: el_2jmtxTwfQDC_Animation;animation-name: el_2jmtxTwfQDC_Animation;opacity: 1;}#el_u9jFSrkgYfH{-webkit-transform: translate(78px, 174px);transform: translate(78px, 174px);}#el_k0E5LlRsXFl{fill: #A3CBCC;}#el_Q1UFgNrL1ar{fill: #FFFFFF;}#el_Ewo6_uw252A{-webkit-transform: translate(28px, 26px);transform: translate(28px, 26px);}#el_6pGqB-KgbCh{fill: #FCC74A;}#el_f1GmgalzW7t{fill: #FFFFFF;}#el_tlHRmiINsHV{fill: #EE2375;}#el_ealtjmOFKf-{fill: #EE2375;}#el_auwVDR6UqAP{opacity: 0.4;-webkit-transform: translate(16px, 13px);transform: translate(16px, 13px);fill: #A3CBCC;}#el_Dk6lTJ316df{-webkit-transform: translate(-23.212043306152438px, 56.15875224083135px) rotate(-45deg);transform: translate(-23.212043306152438px, 56.15875224083135px) rotate(-45deg);}#el_33MKOJ0wHp4{-webkit-transform: translate(87px, 66px);transform: translate(87px, 66px);fill: #EE2375;}#el_S-L1oBk5g4U{-webkit-transform: translate(73px, 36px);transform: translate(73px, 36px);fill: #474747;}#el_a41JhOklGo8{fill: #FFFFFF;}#el_JlaGUYjShPp{opacity: 0.43;-webkit-transform: translate(16px, 51px);transform: translate(16px, 51px);fill: #FFFFFF;}#el_VYgMqd65Fvz{fill: #A3CBCC;-webkit-transform: translate(-22.89372980056092px, 68.161529023317px) rotate(-45deg);transform: translate(-22.89372980056092px, 68.161529023317px) rotate(-45deg);}#el_os6xNFKfaRI{fill: #A3CBCC;-webkit-transform: translate(-28.743858921881255px, 65.73832795695124px) rotate(-45deg);transform: translate(-28.743858921881255px, 65.73832795695124px) rotate(-45deg);}#el_sHZreAFlp05{fill: #A3CBCC;-webkit-transform: translate(-35.24022262898803px, 63.047446589100836px) rotate(-45deg);transform: translate(-35.24022262898803px, 63.047446589100836px) rotate(-45deg);}#el_bTzGQc6j_7b{opacity: 0.4;-webkit-transform: translate(107px, 26px);transform: translate(107px, 26px);fill: #A3CBCC;}#el_9v5OCypJ8cN{opacity: 0.4;-webkit-transform: translate(110px, 29px);transform: translate(110px, 29px);fill: #A3CBCC;}#el_kEASZDAryB0{fill: #FFFFFF;}#el_dmHxEMvg1Ga{fill: #FFFFFF;}#el_HfS1DQAWcLh{opacity: 0.5;-webkit-transform: translate(81px, 21px);transform: translate(81px, 21px);fill: #F969A4;}#el_EUkXKraub12{fill: #FCC74A;}#el_HAdoi0Qskv1{-webkit-transform: translate(10px, 3px);transform: translate(10px, 3px);}#el_z53Xo0oZzv5{-webkit-transform: translate(3px, 1px);transform: translate(3px, 1px);fill: #FCC74A;}#el_6a-K4yQA5eH{fill: #FFFFFF;-webkit-transform: translate(-12.85248600322807px, 30.35846700002379px) rotate(-44.95157deg);transform: translate(-12.85248600322807px, 30.35846700002379px) rotate(-44.95157deg);}#el_SHIWhJ9F8x-{fill: #FCC74A;}#el_794TtV2NrLV{-webkit-transform: translate(0px, 69px);transform: translate(0px, 69px);visibility: hidden;}#el_KTgaSDx4dP7{fill: #A3CBCC;}#el_7-ocqSb7CAn{fill: #40BEAD;}#el_8VffbsGWV3n{-webkit-transform: translate(0px, 132px);transform: translate(0px, 132px);fill: #FBBC23;}#el_Ux9DmPlBv35{fill: #FFFFFF;-webkit-transform: translate(-14.267293647599047px, 16.90664308608129px) rotate(-6.27787deg);transform: translate(-14.267293647599047px, 16.90664308608129px) rotate(-6.27787deg);}#el_dY18WZomB93{-webkit-transform: translate(157px, 79px);transform: translate(157px, 79px);fill: #FFFFFF;}#el_jM-WBAuNazF{-webkit-transform: translate(117px, 59px);transform: translate(117px, 59px);}#el_u51yya8aK_e{fill: #FBBC23;}#el_311zKOV9csN{fill: #FFFFFF;}#el_Hi4VXdRYqEv{-webkit-transform: translate(30px, 20px);transform: translate(30px, 20px);fill: #FFFFFF;}#el_H1i081pFS0U{-webkit-transform: translate(197px, 138px);transform: translate(197px, 138px);fill: #474747;}#el_XmcI6LjSLI_AFjNWlmXV{-webkit-animation-name: el_XmcI6LjSLI_AFjNWlmXV_Animation;animation-name: el_XmcI6LjSLI_AFjNWlmXV_Animation;-webkit-transform-origin: 50% 50%;transform-origin: 50% 50%;transform-box: fill-box;-webkit-transform: translate(0px, 15px);transform: translate(0px, 15px);}#el_K52kbJ5MaK_OYWGzrp1U{-webkit-animation-name: el_K52kbJ5MaK_OYWGzrp1U_Animation;animation-name: el_K52kbJ5MaK_OYWGzrp1U_Animation;-webkit-transform-origin: 50% 50%;transform-origin: 50% 50%;transform-box: fill-box;-webkit-transform: translate(0px, 100px);transform: translate(0px, 100px);}#el__DVYxcdbxQ_N6WSnPEzb{-webkit-animation-name: el__DVYxcdbxQ_N6WSnPEzb_Animation;animation-name: el__DVYxcdbxQ_N6WSnPEzb_Animation;-webkit-animation-timing-function: cubic-bezier(0.42, 0, 0.58, 1);animation-timing-function: cubic-bezier(0.42, 0, 0.58, 1);-webkit-transform-origin: 50% 50%;transform-origin: 50% 50%;transform-box: fill-box;-webkit-transform: translate(-160px, 0px);transform: translate(-160px, 0px);}#el_bwHCoASZqwX_nsuw1QEXk{-webkit-animation-name: el_bwHCoASZqwX_nsuw1QEXk_Animation;animation-name: el_bwHCoASZqwX_nsuw1QEXk_Animation;-webkit-animation-timing-function: cubic-bezier(0.42, 0, 0.58, 1);animation-timing-function: cubic-bezier(0.42, 0, 0.58, 1);-webkit-transform-origin: 50% 50%;transform-origin: 50% 50%;transform-box: fill-box;-webkit-transform: translate(160px, 0px);transform: translate(160px, 0px);}#el_u9jFSrkgYfH_vKXfL1vR0{-webkit-animation-name: el_u9jFSrkgYfH_vKXfL1vR0_Animation;animation-name: el_u9jFSrkgYfH_vKXfL1vR0_Animation;-webkit-animation-timing-function: cubic-bezier(0.42, 0, 0.58, 1);animation-timing-function: cubic-bezier(0.42, 0, 0.58, 1);-webkit-transform-origin: 50% 50%;transform-origin: 50% 50%;transform-box: fill-box;-webkit-transform: translate(0px, 0px);transform: translate(0px, 0px);}#el_Ewo6_uw252A_UfDvTkLLk{-webkit-animation-name: el_Ewo6_uw252A_UfDvTkLLk_Animation;animation-name: el_Ewo6_uw252A_UfDvTkLLk_Animation;-webkit-animation-timing-function: cubic-bezier(0.42, 0, 0.58, 1);animation-timing-function: cubic-bezier(0.42, 0, 0.58, 1);-webkit-transform-origin: 50% 100%;transform-origin: 50% 100%;transform-box: fill-box;-webkit-transform: translate(0px, 0px);transform: translate(0px, 0px);}#el_Ewo6_uw252A_rIKvZz5zZ{-webkit-animation-name: el_Ewo6_uw252A_rIKvZz5zZ_Animation;animation-name: el_Ewo6_uw252A_rIKvZz5zZ_Animation;-webkit-animation-timing-function: cubic-bezier(0.42, 0, 0.58, 1);animation-timing-function: cubic-bezier(0.42, 0, 0.58, 1);-webkit-transform-origin: 50% 100%;transform-origin: 50% 100%;transform-box: fill-box;-webkit-transform: rotate(0deg);transform: rotate(0deg);}</style>
    <!-- Generator: Sketch 51.2 (57519) - http://www.bohemiancoding.com/sketch -->
    <title>OSC-How-Anim</title>
    <desc>Created with Sketch.</desc>
    <defs>
        <circle id="path-1" cx="99.5" cy="99.5" r="99.5"/>
        <linearGradient x1="49.9996332%" y1="381.632803%" x2="49.9996332%" y2="-1304.66997%" id="linearGradient-3">
            <stop stop-color="#F969A4" offset="0%"/>
            <stop stop-color="#F969A4" stop-opacity="0" offset="100%"/>
        </linearGradient>
        <linearGradient x1="187602.081%" y1="354.909249%" x2="187602.081%" y2="-585.843769%" id="linearGradient-4">
            <stop stop-color="#F969A4" offset="0%"/>
            <stop stop-color="#F969A4" stop-opacity="0" offset="100%"/>
        </linearGradient>
        <linearGradient x1="113436.439%" y1="339.397947%" x2="113436.439%" y2="-229.137266%" id="linearGradient-5">
            <stop stop-color="#F969A4" offset="0%"/>
            <stop stop-color="#F969A4" stop-opacity="0" offset="100%"/>
        </linearGradient>
        <linearGradient x1="52593.5292%" y1="308.37754%" x2="52593.5292%" y2="45.1863064%" id="linearGradient-6">
            <stop stop-color="#F969A4" offset="0%"/>
            <stop stop-color="#F969A4" stop-opacity="0" offset="100%"/>
        </linearGradient>
        <linearGradient x1="273488.157%" y1="381.771885%" x2="273488.157%" y2="-991.024269%" id="linearGradient-7">
            <stop stop-color="#F969A4" offset="0%"/>
            <stop stop-color="#F969A4" stop-opacity="0" offset="100%"/>
        </linearGradient>
        <linearGradient x1="273488.157%" y1="592.638997%" x2="273488.157%" y2="-780.14691%" id="linearGradient-8">
            <stop stop-color="#F969A4" offset="0%"/>
            <stop stop-color="#F969A4" stop-opacity="0" offset="100%"/>
        </linearGradient>
        <linearGradient x1="77559.2958%" y1="325.348864%" x2="77559.2958%" y2="-64.1447565%" id="linearGradient-9">
            <stop stop-color="#F969A4" offset="0%"/>
            <stop stop-color="#F969A4" stop-opacity="0" offset="100%"/>
        </linearGradient>
        <linearGradient x1="49.9999858%" y1="111.645035%" x2="49.9999858%" y2="15.6170592%" id="linearGradient-10">
            <stop stop-color="#A3CBCC" offset="0%"/>
            <stop stop-color="#A3CBCC" stop-opacity="0" offset="100%"/>
        </linearGradient>
        <linearGradient x1="50.0004039%" y1="106.038784%" x2="50.0004039%" y2="19.2098223%" id="linearGradient-11">
            <stop stop-color="#A3CBCC" offset="0%"/>
            <stop stop-color="#A3CBCC" stop-opacity="0" offset="100%"/>
        </linearGradient>
        <linearGradient x1="50.0000843%" y1="106.038826%" x2="50.0000843%" y2="19.2098597%" id="linearGradient-12">
            <stop stop-color="#A3CBCC" offset="0%"/>
            <stop stop-color="#A3CBCC" stop-opacity="0" offset="100%"/>
        </linearGradient>
    </defs>
    <g id="el_bVaXji5QCw" fill-rule="evenodd">
        <g id="el_w6HaXNPyK4">
            <mask id="mask-2" fill="white">
                <use xlink:href="#path-1"/>
            </mask>
            <use id="el_vsiXIAeeFq" xlink:href="#path-1"/>
            <g mask="url(#mask-2)" id="el_rZjbMxnawS">
                <g id="el_hVcMy7C8Hq">
                    <g id="el_XmcI6LjSLI_AFjNWlmXV" data-animator-group="true" data-animator-type="0"><g id="el_XmcI6LjSLI">
                        <rect id="el_ubcFM275TP" fill-rule="nonzero" x="0.48825" y="0" width="259.26612" height="259.26612"/>
                    </g></g>
                    <g id="el_863KbjgvEb">
                        <g id="el_K52kbJ5MaK_OYWGzrp1U" data-animator-group="true" data-animator-type="0"><rect id="el_K52kbJ5MaK" fill-rule="nonzero" x="0.89018" y="67.95153" width="330.46225" height="100.13646"/></g>
                        <g id="el__DVYxcdbxQ_N6WSnPEzb" data-animator-group="true" data-animator-type="0"><g id="el__DVYxcdbxQ">
                            <g id="el_5PVh2hp5nW">
                                <rect id="el_tnqizojqCM" fill-rule="nonzero" x="23.68661" y="0.55718" width="6.86945" height="9.68493"/>
                                <path d="M0.53954,10.24211 L53.70312,10.24211" id="el_slnKsWNUCf" stroke-linecap="round"/>
                            </g>
                            <path d="M54.83046,81.55718 L54.83046,92.6377 C54.83046,93.7720929 55.7500671,94.6917 56.88446,94.6917 L90.97546,94.6917 C92.1098529,94.6917 93.02946,95.6113071 93.02946,96.7457 C93.02946,97.8800929 92.1098529,98.7997 90.97546,98.7997 L76.1753,98.7997 C75.0409071,98.7997 74.1213,99.7193071 74.1213,100.8537 L74.1213,104.07025" id="el_9hkkp-seS9"/>
                            <g id="el_i8POsN7ZpI">
                                <rect id="el_Zyney1zUlMA" fill-rule="nonzero" x="30.94793" y="25.65754" width="12.03293" height="18.63934" rx="6.01646"/>
                                <path d="M36.96439,30.21688 L36.96439,25.39933 C36.96439,22.6480793 34.7340607,20.41775 31.98281,20.41775 L26.63588,20.41775 C25.3146838,20.4177527 24.0475994,19.8929113 23.1133716,18.9586855 C22.1791438,18.0244596 21.6543,16.7573762 21.6543,15.43618 C21.6543,12.6849293 19.4239707,10.4546 16.67272,10.4546 L5.74957,10.4546 C4.42837376,10.4546027 3.16128937,9.92976135 2.22706161,8.99553546 C1.29283385,8.06130958 0.76799,6.79422624 0.76799,5.47303 L0.76799,0.79964" id="el_Oqst5BU19ii"/>
                            </g>
                            <rect id="el_o485k5CHy6-" fill-rule="nonzero" x="24.50456" y="23.45371" width="99.23354" height="59.14161"/>
                            <rect id="el_ttzBBsLrAQC" fill-rule="nonzero" x="27.60679" y="26.18489" width="93.02909" height="53.67924" rx="1.63013"/>
                            <g id="el_oLxbG2JVWYn">
                                <path d="M15.05873,1.13898 L15.05873,16.96222 C15.0574571,18.087859 14.145299,19.0000709 13.01966,19.00141 L3.01844,19.00141 C1.89280495,19.0000654 0.980652877,18.0878551 0.97938,16.96222 L0.97938,1.13898 L15.05873,1.13898 Z M15.50599,0.69171 L0.53212,0.69171 L0.53212,16.96222 C0.532090825,17.621654 0.794028127,18.2540895 1.26030616,18.7203919 C1.7265842,19.1866943 2.35900604,19.4486647 3.01844,19.44867 L13.01966,19.44867 C13.6790949,19.4486647 14.3115177,19.1866946 14.7777974,18.7203925 C15.244077,18.2540904 15.5060165,17.6216549 15.50599,16.96222 L15.50599,0.69171 Z" id="el_wEnuA8sk34n" fill-rule="nonzero"/>
                                <path d="M16.93982,2.85047 C19.7161554,2.85047 21.96682,5.10113456 21.96682,7.87747 C21.96682,10.6538054 19.7161554,12.90447 16.93982,12.90447" id="el_Nn1XcHwSz_O"/>
                            </g>
                            <g id="el_CCxUaEaL_ql" fill-rule="nonzero">
                                <rect id="el_OWbGg0bFvhC" x="21.92688" y="14.40461" width="6.79478" height="4.47074"/>
                                <rect id="el_R2XO2WRDa5-" x="21.92688" y="7.14373" width="6.79478" height="5.11942"/>
                                <rect id="el_MizCF8zHZmV" x="21.92688" y="19.17402" width="6.79478" height="1"/>
                                <rect id="el__Tw5QvA7Zo4" x="21.92688" y="20.42996" width="6.79478" height="2.08429"/>
                                <rect id="el_4_YwEQ30Hcv" x="29.02034" y="0.09068" width="7.08879" height="4.30843"/>
                                <rect id="el_d0kA6RMFPed" x="29.02034" y="4.69778" width="7.08879" height="2.14729"/>
                                <rect id="el_M4xwty2y3_t" x="21.92688" y="22.81292" width="6.79478" height="1.74245"/>
                                <rect id="el_8Hx1pxdKiTD" x="14.42917" y="19.17402" width="7.19904" height="1"/>
                                <rect id="el_ex6q3G_Me7n" x="14.42917" y="14.40461" width="7.19904" height="4.47074"/>
                                <rect id="el_4_sDxEvuGft" x="14.42917" y="22.81292" width="7.19904" height="1.74245"/>
                                <rect id="el_G2l9II8BR_e" x="21.92688" y="4.69778" width="6.79478" height="2.14729"/>
                                <rect id="el_ovQrZHDD8hH" x="14.42917" y="12.56183" width="7.19904" height="1.54411"/>
                                <rect id="el_mrlTSG531ZM" x="14.42917" y="20.42996" width="7.19904" height="2.08429"/>
                                <rect id="el_Kblq3eco-6e" x="21.92688" y="0.09068" width="6.79478" height="4.30843"/>
                                <rect id="el_nxgTl4ZHjLC" x="36.4078" y="19.17402" width="8.40656" height="1"/>
                                <rect id="el_8kRkmys9K7s" x="36.4078" y="7.14373" width="8.40656" height="5.11942"/>
                                <rect id="el_Fl_MDjWk6W6" x="36.4078" y="12.56183" width="8.40656" height="1.54411"/>
                                <rect id="el_FRAg1oy2BPY" x="36.4078" y="14.40461" width="8.40656" height="4.47074"/>
                                <rect id="el_-iyzcI-1ykq" x="36.4078" y="22.81292" width="8.40656" height="1.74245"/>
                                <rect id="el_MDwTKXiB7Wb" x="36.4078" y="20.42996" width="8.40656" height="2.08429"/>
                                <rect id="el_qaCchNr-AfU" x="29.02034" y="20.42996" width="7.08879" height="2.08429"/>
                                <rect id="el_am31Zf9gq24" x="29.02034" y="14.40461" width="7.08879" height="4.47074"/>
                                <rect id="el_MUOvdEXeEiW" x="29.02034" y="19.17402" width="7.08879" height="1"/>
                                <rect id="el_cUgx8DHg9r_" x="36.4078" y="4.69778" width="8.40656" height="2.14729"/>
                                <rect id="el_tuRmI1CzoOX" x="29.02034" y="12.56183" width="7.08879" height="1.54411"/>
                                <rect id="el_Wr-5Jr4dhmn" x="29.02034" y="7.14373" width="7.08879" height="5.11942"/>
                                <rect id="el_hl7ZeKMOXaH" x="29.02034" y="22.81292" width="7.08879" height="1.74245"/>
                                <rect id="el_YoubP-copjr" x="21.92688" y="12.56183" width="6.79478" height="1.54411"/>
                                <rect id="el_3ZfkqR3h_dB" x="45.11303" y="24.85404" width="7.27371" height="14.8178"/>
                                <rect id="el_sxfoCBSi34i" x="45.11303" y="22.81292" width="7.27371" height="1.74245"/>
                                <polygon id="el_EBCIie9ZP3G" points="7.086 24.854 0.219 24.854 0.219 24.555 7.086 24.555 7.086 22.813 0.219 22.813 0.219 22.514 7.086 22.514 7.086 20.43 0.219 20.43 0.219 20.131 7.086 20.131 7.086 19.174 0.219 19.174 0.219 18.875 7.086 18.875 7.086 14.405 0.219 14.405 0.219 14.106 7.086 14.106 7.086 12.562 0.219 12.562 0.219 12.263 7.086 12.263 7.086 7.144 0.219 7.144 0.219 6.845 7.086 6.845 7.086 4.698 0.219 4.698 0.219 4.399 7.086 4.399 7.086 0.091 0.219 0.091 0.219 39.672 7.086 39.672"/>
                                <rect id="el_ip5k0VhUCtZ" x="36.4078" y="24.85404" width="8.40656" height="14.8178"/>
                                <rect id="el_IEqpi_1t-1E" x="36.4078" y="0.09068" width="8.40656" height="4.30843"/>
                                <rect id="el_7o5AaMj7_Fl" x="45.11303" y="20.42996" width="7.27371" height="2.08429"/>
                                <rect id="el_2MO1LNd2hMo" x="45.11303" y="14.40461" width="7.27371" height="4.47074"/>
                                <rect id="el_TbDXnoq0IoB" x="45.11303" y="4.69778" width="7.27371" height="2.14729"/>
                                <rect id="el_RD9ide1ogtT" x="45.11303" y="7.14373" width="7.27371" height="5.11942"/>
                                <rect id="el_LCl6E46FU8G" x="45.11303" y="0.09068" width="7.27371" height="4.30843"/>
                                <rect id="el_j9tfIraebDN" x="14.42917" y="7.14373" width="7.19904" height="5.11942"/>
                                <rect id="el_QCYMNqml2KP" x="45.11303" y="19.17402" width="7.27371" height="1"/>
                                <rect id="el_NBCnqPTdyP8" x="45.11303" y="12.56183" width="7.27371" height="1.54411"/>
                                <rect id="el_f6950rzeB1X" x="29.02034" y="24.85404" width="7.08879" height="14.8178"/>
                                <rect id="el_vgwWGy2fu4v" x="7.38472" y="22.81292" width="6.74578" height="1.74245"/>
                                <rect id="el_XawRPigRlq2" x="7.38472" y="19.17402" width="6.74578" height="1"/>
                                <rect id="el_Q9a_pmpfJ8T" x="7.38472" y="20.42996" width="6.74578" height="2.08429"/>
                                <rect id="el_Sn8uGQopsda" x="14.42917" y="0.09068" width="7.19904" height="4.30843"/>
                                <rect id="el_vKw3hHSvd29" x="7.38472" y="14.40461" width="6.74578" height="4.47074"/>
                                <rect id="el_AQLeqEqng_Z" x="14.42917" y="4.69778" width="7.19904" height="2.14729"/>
                                <rect id="el_p_zKhxngC3F" x="21.92688" y="24.85404" width="6.79478" height="14.8178"/>
                                <rect id="el_wZE7W3Y20LJ" x="7.38472" y="24.85404" width="6.74578" height="14.8178"/>
                                <rect id="el_XhEigQKT7Y5" x="14.42917" y="24.85404" width="7.19904" height="14.8178"/>
                                <rect id="el_ktZtUFvDmaX" x="7.38472" y="12.56183" width="6.74578" height="1.54411"/>
                                <rect id="el_KfKicECnZoZ" x="7.38472" y="0.09068" width="6.74578" height="4.30843"/>
                                <rect id="el_0OWm_3h2rST" x="7.38472" y="4.69778" width="6.74578" height="2.14729"/>
                                <rect id="el_9n9umqAIrM9" x="7.38472" y="7.14373" width="6.74578" height="5.11942"/>
                            </g>
                            <g id="el_Lq24qUzaSh-" fill-rule="nonzero">
                                <path d="M18.16117,87.47897 L18.16117,92.93168 C16.6554491,92.9316524 15.434839,91.7110109 15.43485,90.20529 C15.4348447,89.4822234 15.7220795,88.7887701 16.2333648,88.2774848 C16.7446501,87.7661995 17.4381034,87.4789647 18.16117,87.47897 Z" id="el_NpMBgYG7ulk"/>
                                <path d="M17.97908,73.59947 L17.97908,83.37347 C16.6829532,83.37347 15.4399135,82.8585801 14.5234209,81.9420726 C13.6069283,81.025565 13.0920588,79.7825168 13.09208,78.48639 C13.09208,77.1902844 13.6069614,75.947265 14.523454,75.0307874 C15.4399466,74.1143099 16.6829744,73.5994488 17.97908,73.59947 Z" id="el_FGD9NOGV_3B"/>
                                <path d="M17.97908,53.39747 L17.97908,69.57047 C13.5130362,69.5703927 9.89264582,65.9499038 9.89269,61.48386 C9.89267939,59.3392128 10.7446325,57.2824017 12.2611271,55.7659071 C13.7776217,54.2494125 15.8344328,53.3974594 17.97908,53.39747 Z" id="el__hJvaLGoR1Y"/>
                                <path d="M17.97908,0.55269 L17.97908,35.48896 C8.3317103,35.4887943 0.511086111,27.6679597 0.51118,18.02059 C0.511153478,13.3878067 2.35150771,8.94476262 5.62738017,5.66889017 C8.90325262,2.39301771 13.3462967,0.552663478 17.97908,0.55269 Z" id="el_GWmG3vGbMEZ"/>
                                <path d="M18.05631,89.41536 L18.05631,82.71741 C19.9058882,82.7174431 21.40525,84.2168318 21.40525,86.06641 C21.405258,86.9546075 21.0524271,87.8064291 20.4243776,88.4344805 C19.7963281,89.0625319 18.9445075,89.4153653 18.05631,89.41536 Z" id="el_OgCyq8_jdLq"/>
                                <path d="M18.05631,75.29134 L18.05631,68.59334 C19.9058882,68.5933731 21.40525,70.0927618 21.40525,71.94234 C21.4052712,72.8305461 21.0524462,73.6823806 20.4243953,74.3104428 C19.7963443,74.938505 18.9445161,75.2913453 18.05631,75.29134 Z" id="el_jqXMpn6sZHW"/>
                                <path d="M18.05632,55.08936 L18.05632,31.48199 C24.5753033,31.4821005 29.8599063,36.7668467 29.85984,43.28583 C29.8598586,46.4163248 28.6162833,49.4186081 26.4026901,51.6322031 C24.189097,53.8457981 21.1868148,55.0893759 18.05632,55.08936 Z" id="el_HCJirDad7Jm"/>
                            </g>
                            <g id="el_9-vMhKvH5T6">
                                <circle id="el_X1Z804cSHAO" cx="2.77374" cy="2.71462" r="2.62074"/>
                                <circle id="el_NnoG5GXwusn" cx="2.77374" cy="2.71462" r="1.28204"/>
                                <circle id="el_OvKBV-vlStH" fill-rule="nonzero" cx="2.77374" cy="2.71462" r="1"/>
                            </g>
                            <path d="M79.153,26.35025 L79.153,24.95609 C79.153,24.2610275 79.4291132,23.594433 79.9205976,23.1029505 C80.412082,22.611468 81.0786775,22.3353573 81.77374,22.33536 C83.2211308,22.33536 84.3944745,23.5086992 84.39448,24.95609 L84.39448,26.35025" id="el_tAIMl3fm2LV"/>
                            <path d="M119.00571,26.18491 L29.2369,26.18491 C28.3366424,26.1848879 27.6068107,26.9146524 27.60675,27.81491 L27.60675,28.96468 L120.63586,28.96468 L120.63586,27.81491 C120.635841,27.3825868 120.464083,26.967978 120.158371,26.6622934 C119.852658,26.3566088 119.438033,26.1848888 119.00571,26.18491 Z" id="el_OS-asVQSxpb" fill-rule="nonzero"/>
                            <g id="el_iA1ASMuLbOa" fill-rule="nonzero">
                                <rect id="el_AFLfWzuH98N" x="0.62582" y="0.68664" width="75.26529" height="20.76572"/>
                                <g id="el_-euwNk_o-05">
                                    <path d="M3.32533,0.1601 L3.32533,3.08197 L0.40321,3.08197 L0.40321,0.1601 L3.32533,0.1601 Z M3.41468,0.07062 L0.31385,0.07062 L0.31385,3.17145 L3.41468,3.17145 L3.41468,0.07062 Z" id="el_VQMdox9ohH6"/>
                                    <path d="M7.64735,0.1601 L7.64735,3.08197 L4.72523,3.08197 L4.72523,0.1601 L7.64735,0.1601 Z M7.7367,0.07062 L4.63587,0.07062 L4.63587,3.17145 L7.7367,3.17145 L7.7367,0.07062 Z" id="el_O-GQQ86fyEM"/>
                                    <path d="M11.96962,0.1601 L11.96962,3.08197 L9.04725,3.08197 L9.04725,0.1601 L11.96962,0.1601 Z M12.05897,0.07062 L8.9579,0.07062 L8.9579,3.17145 L12.05897,3.17145 L12.05897,0.07062 Z" id="el_w7VRM_F4RIv"/>
                                    <path d="M16.29164,0.1601 L16.29164,3.08197 L13.36927,3.08197 L13.36927,0.1601 L16.29164,0.1601 Z M16.38099,0.07062 L13.27992,0.07062 L13.27992,3.17145 L16.38099,3.17145 L16.38099,0.07062 Z" id="el_HdqHc0XtmNk"/>
                                </g>
                                <g id="el_RHcN_RZA1Kp">
                                    <path d="M3.32533,0.56537 L3.32533,3.48725 L0.40321,3.48725 L0.40321,0.56537 L3.32533,0.56537 Z M3.41468,0.47589 L0.31385,0.47589 L0.31385,3.57672 L3.41468,3.57672 L3.41468,0.47589 Z" id="el_4yCrB0qJmFp"/>
                                    <path d="M7.64735,0.56537 L7.64735,3.48725 L4.72523,3.48725 L4.72523,0.56537 L7.64735,0.56537 Z M7.7367,0.47589 L4.63587,0.47589 L4.63587,3.57672 L7.7367,3.57672 L7.7367,0.47589 Z" id="el_Z8ZJJKh20sx"/>
                                    <path d="M11.96962,0.56537 L11.96962,3.48725 L9.04725,3.48725 L9.04725,0.56537 L11.96962,0.56537 Z M12.05897,0.47589 L8.9579,0.47589 L8.9579,3.57672 L12.05897,3.57672 L12.05897,0.47589 Z" id="el_S8HxFETespt"/>
                                    <path d="M16.29164,0.56537 L16.29164,3.48725 L13.36927,3.48725 L13.36927,0.56537 L16.29164,0.56537 Z M16.38099,0.47589 L13.27992,0.47589 L13.27992,3.57672 L16.38099,3.57672 L16.38099,0.47589 Z" id="el_zDBGABUcaw-"/>
                                </g>
                                <g id="el_lapvOS7N5rV">
                                    <path d="M3.32533,0.97064 L3.32533,3.89252 L0.40321,3.89252 L0.40321,0.97064 L3.32533,0.97064 Z M3.41468,0.88117 L0.31385,0.88117 L0.31385,3.982 L3.41468,3.982 L3.41468,0.88117 Z" id="el_0UxcGzDBdSx"/>
                                    <path d="M7.64735,0.97064 L7.64735,3.89252 L4.72523,3.89252 L4.72523,0.97064 L7.64735,0.97064 Z M7.7367,0.88117 L4.63587,0.88117 L4.63587,3.982 L7.7367,3.982 L7.7367,0.88117 Z" id="el_yeUSK4EqVqZ"/>
                                    <path d="M11.96962,0.97064 L11.96962,3.89252 L9.04725,3.89252 L9.04725,0.97064 L11.96962,0.97064 Z M12.05897,0.88117 L8.9579,0.88117 L8.9579,3.982 L12.05897,3.982 L12.05897,0.88117 Z" id="el_7V-rjkFG1lH"/>
                                    <path d="M16.29164,0.97064 L16.29164,3.89252 L13.36927,3.89252 L13.36927,0.97064 L16.29164,0.97064 Z M16.38099,0.88117 L13.27992,0.88117 L13.27992,3.982 L16.38099,3.982 L16.38099,0.88117 Z" id="el_hky0hOgl144"/>
                                </g>
                                <g id="el_c71CD5EeT3n">
                                    <path d="M3.32533,0.37592 L3.32533,3.29779 L0.40321,3.29779 L0.40321,0.37592 L3.32533,0.37592 Z M3.41468,0.28644 L0.31385,0.28644 L0.31385,3.38727 L3.41468,3.38727 L3.41468,0.28644 Z" id="el_LbP2OvrJy4m"/>
                                    <path d="M7.64735,0.37592 L7.64735,3.29779 L4.72523,3.29779 L4.72523,0.37592 L7.64735,0.37592 Z M7.7367,0.28644 L4.63587,0.28644 L4.63587,3.38727 L7.7367,3.38727 L7.7367,0.28644 Z" id="el_p8R54eQfRw7"/>
                                    <path d="M11.96962,0.37592 L11.96962,3.29779 L9.04725,3.29779 L9.04725,0.37592 L11.96962,0.37592 Z M12.05897,0.28644 L8.9579,0.28644 L8.9579,3.38727 L12.05897,3.38727 L12.05897,0.28644 Z" id="el_RkDJEzMp26Y"/>
                                </g>
                                <g id="el_W_jDe78W-aF">
                                    <path d="M3.68812,0.1601 L3.68812,3.08197 L0.766,3.08197 L0.766,0.1601 L3.68812,0.1601 Z M3.77748,0.07062 L0.67665,0.07062 L0.67665,3.17145 L3.77748,3.17145 L3.77748,0.07062 Z" id="el_TptzJhOYYLw"/>
                                    <path d="M8.01039,0.1601 L8.01039,3.08197 L5.08802,3.08197 L5.08802,0.1601 L8.01039,0.1601 Z M8.09974,0.07062 L4.99867,0.07062 L4.99867,3.17145 L8.09974,3.17145 L8.09974,0.07062 Z" id="el_n8TcR4qUunU"/>
                                    <path d="M12.33241,0.1601 L12.33241,3.08197 L9.41004,3.08197 L9.41004,0.1601 L12.33241,0.1601 Z M12.42176,0.07062 L9.32069,0.07062 L9.32069,3.17145 L12.42176,3.17145 L12.42176,0.07062 Z" id="el_d6_26lvTLuB"/>
                                    <path d="M16.65443,0.1601 L16.65443,3.08197 L13.73231,3.08197 L13.73231,0.1601 L16.65443,0.1601 Z M16.74379,0.07062 L13.64295,0.07062 L13.64295,3.17145 L16.74379,3.17145 L16.74379,0.07062 Z" id="el_4R5EaS6TOU_"/>
                                </g>
                                <g id="el_BBrlUKrNKBr">
                                    <path d="M3.68812,0.56537 L3.68812,3.48725 L0.766,3.48725 L0.766,0.56537 L3.68812,0.56537 Z M3.77748,0.47589 L0.67665,0.47589 L0.67665,3.57672 L3.77748,3.57672 L3.77748,0.47589 Z" id="el_0u6ChJw7tGY"/>
                                    <path d="M8.01039,0.56537 L8.01039,3.48725 L5.08802,3.48725 L5.08802,0.56537 L8.01039,0.56537 Z M8.09974,0.47589 L4.99867,0.47589 L4.99867,3.57672 L8.09974,3.57672 L8.09974,0.47589 Z" id="el_FGcVDa8RHhY"/>
                                    <path d="M12.33241,0.56537 L12.33241,3.48725 L9.41004,3.48725 L9.41004,0.56537 L12.33241,0.56537 Z M12.42176,0.47589 L9.32069,0.47589 L9.32069,3.57672 L12.42176,3.57672 L12.42176,0.47589 Z" id="el_ycEgY29eZE4"/>
                                    <path d="M16.65443,0.56537 L16.65443,3.48725 L13.73231,3.48725 L13.73231,0.56537 L16.65443,0.56537 Z M16.74379,0.47589 L13.64295,0.47589 L13.64295,3.57672 L16.74379,3.57672 L16.74379,0.47589 Z" id="el_entI__IzKQX"/>
                                </g>
                                <g id="el_3w-OU8ukFON">
                                    <path d="M3.68812,0.97064 L3.68812,3.89252 L0.766,3.89252 L0.766,0.97064 L3.68812,0.97064 Z M3.77748,0.88117 L0.67665,0.88117 L0.67665,3.982 L3.77748,3.982 L3.77748,0.88117 Z" id="el_wIy5IMAfU-E"/>
                                    <path d="M8.01039,0.97064 L8.01039,3.89252 L5.08802,3.89252 L5.08802,0.97064 L8.01039,0.97064 Z M8.09974,0.88117 L4.99867,0.88117 L4.99867,3.982 L8.09974,3.982 L8.09974,0.88117 Z" id="el_bGWiVpExYH0"/>
                                    <path d="M12.33241,0.97064 L12.33241,3.89252 L9.41004,3.89252 L9.41004,0.97064 L12.33241,0.97064 Z M12.42176,0.88117 L9.32069,0.88117 L9.32069,3.982 L12.42176,3.982 L12.42176,0.88117 Z" id="el_pK1qluYRUDu"/>
                                    <path d="M16.65443,0.97064 L16.65443,3.89252 L13.73231,3.89252 L13.73231,0.97064 L16.65443,0.97064 Z M16.74379,0.88117 L13.64295,0.88117 L13.64295,3.982 L16.74379,3.982 L16.74379,0.88117 Z" id="el_GGyfS24OjBy"/>
                                </g>
                                <g id="el_RDZvri6-lIF">
                                    <path d="M4.00306,0.1601 L4.00306,3.08197 L1.08094,3.08197 L1.08094,0.1601 L4.00306,0.1601 Z M4.09242,0.07062 L0.99159,0.07062 L0.99159,3.17145 L4.09242,3.17145 L4.09242,0.07062 Z" id="el_MeJD3UxbjOA"/>
                                    <path d="M8.32533,0.1601 L8.32533,3.08197 L5.40296,3.08197 L5.40296,0.1601 L8.32533,0.1601 Z M8.41468,0.07062 L5.31361,0.07062 L5.31361,3.17145 L8.41468,3.17145 L8.41468,0.07062 Z" id="el_esDyPPFOw0D"/>
                                    <path d="M12.64735,0.1601 L12.64735,3.08197 L9.72523,3.08197 L9.72523,0.1601 L12.64735,0.1601 Z M12.7367,0.07062 L9.63587,0.07062 L9.63587,3.17145 L12.7367,3.17145 L12.7367,0.07062 Z" id="el_Fa96qpK4Ia3"/>
                                </g>
                                <g id="el_67PtfuKJrQ3">
                                    <path d="M4.00306,0.56537 L4.00306,3.48725 L1.08094,3.48725 L1.08094,0.56537 L4.00306,0.56537 Z M4.09242,0.47589 L0.99159,0.47589 L0.99159,3.57672 L4.09242,3.57672 L4.09242,0.47589 Z" id="el_5m9ea8gTu0K"/>
                                    <path d="M8.32533,0.56537 L8.32533,3.48725 L5.40296,3.48725 L5.40296,0.56537 L8.32533,0.56537 Z M8.41468,0.47589 L5.31361,0.47589 L5.31361,3.57672 L8.41468,3.57672 L8.41468,0.47589 Z" id="el_zHx4XG23jm6"/>
                                    <path d="M12.64735,0.56537 L12.64735,3.48725 L9.72523,3.48725 L9.72523,0.56537 L12.64735,0.56537 Z M12.7367,0.47589 L9.63587,0.47589 L9.63587,3.57672 L12.7367,3.57672 L12.7367,0.47589 Z" id="el_Bdsr71nsCdS"/>
                                </g>
                                <g id="el__yopZrWYWXC">
                                    <path d="M4.00306,0.97064 L4.00306,3.89252 L1.08094,3.89252 L1.08094,0.97064 L4.00306,0.97064 Z M4.09242,0.88117 L0.99159,0.88117 L0.99159,3.982 L4.09242,3.982 L4.09242,0.88117 Z" id="el_AM-OM7kkTS6"/>
                                    <path d="M8.32533,0.97064 L8.32533,3.89252 L5.40296,3.89252 L5.40296,0.97064 L8.32533,0.97064 Z M8.41468,0.88117 L5.31361,0.88117 L5.31361,3.982 L8.41468,3.982 L8.41468,0.88117 Z" id="el_DTTsdi1qK_O"/>
                                    <path d="M12.64735,0.97064 L12.64735,3.89252 L9.72523,3.89252 L9.72523,0.97064 L12.64735,0.97064 Z M12.7367,0.88117 L9.63587,0.88117 L9.63587,3.982 L12.7367,3.982 L12.7367,0.88117 Z" id="el_gkZSWD76EIZ"/>
                                </g>
                                <g id="el_mn6D-BEzHKO">
                                    <path d="M4.00306,0.37592 L4.00306,3.29779 L1.08094,3.29779 L1.08094,0.37592 L4.00306,0.37592 Z M4.09242,0.28644 L0.99159,0.28644 L0.99159,3.38727 L4.09242,3.38727 L4.09242,0.28644 Z" id="el_l9MYILYGSST"/>
                                    <path d="M8.32533,0.37592 L8.32533,3.29779 L5.40296,3.29779 L5.40296,0.37592 L8.32533,0.37592 Z M8.41468,0.28644 L5.31361,0.28644 L5.31361,3.38727 L8.41468,3.38727 L8.41468,0.28644 Z" id="el_bBj9noRPKf9"/>
                                    <path d="M12.64735,0.37592 L12.64735,3.29779 L9.72523,3.29779 L9.72523,0.37592 L12.64735,0.37592 Z M12.7367,0.28644 L9.63587,0.28644 L9.63587,3.38727 L12.7367,3.38727 L12.7367,0.28644 Z" id="el_w0R9b3ysLmU"/>
                                </g>
                                <g id="el_JetMOQ1Ixnw">
                                    <path d="M3.33119,0.1601 L3.33119,3.08197 L0.40907,3.08197 L0.40907,0.1601 L3.33119,0.1601 Z M3.42054,0.07062 L0.31971,0.07062 L0.31971,3.17145 L3.42054,3.17145 L3.42054,0.07062 Z" id="el_FnziDSx-OuD"/>
                                    <path d="M7.65321,0.1601 L7.65321,3.08197 L4.73109,3.08197 L4.73109,0.1601 L7.65321,0.1601 Z M7.74256,0.07062 L4.64173,0.07062 L4.64173,3.17145 L7.74256,3.17145 L7.74256,0.07062 Z" id="el_P7gXKQm853V"/>
                                    <path d="M11.97523,0.1601 L11.97523,3.08197 L9.05311,3.08197 L9.05311,0.1601 L11.97523,0.1601 Z M12.06459,0.07062 L8.96376,0.07062 L8.96376,3.17145 L12.06459,3.17145 L12.06459,0.07062 Z" id="el_rLvSRXvGsPc"/>
                                    <path d="M16.2975,0.1601 L16.2975,3.08197 L13.37513,3.08197 L13.37513,0.1601 L16.2975,0.1601 Z M16.38685,0.07062 L13.28578,0.07062 L13.28578,3.17145 L16.38685,3.17145 L16.38685,0.07062 Z" id="el_9oyObyx3X4i"/>
                                </g>
                                <g id="el_1-9MD12uCAb">
                                    <path d="M3.33119,0.56537 L3.33119,3.48725 L0.40907,3.48725 L0.40907,0.56537 L3.33119,0.56537 Z M3.42054,0.47589 L0.31971,0.47589 L0.31971,3.57672 L3.42054,3.57672 L3.42054,0.47589 Z" id="el_V7Y-iDD_nMT"/>
                                    <path d="M7.65321,0.56537 L7.65321,3.48725 L4.73109,3.48725 L4.73109,0.56537 L7.65321,0.56537 Z M7.74256,0.47589 L4.64173,0.47589 L4.64173,3.57672 L7.74256,3.57672 L7.74256,0.47589 Z" id="el_Xahm2sVeELI"/>
                                    <path d="M16.2975,0.56537 L16.2975,3.48725 L9.05311,3.48725 L9.05311,0.56537 L16.2975,0.56537 Z M16.38685,0.47589 L8.96376,0.47589 L8.96376,3.57672 L16.38685,3.57672 L16.38685,0.47589 Z" id="el_Xt9mMMtQP0j"/>
                                </g>
                                <g id="el_D1ZeZZ-3Sxj">
                                    <path d="M3.33119,0.97064 L3.33119,3.89252 L0.40907,3.89252 L0.40907,0.97064 L3.33119,0.97064 Z M3.42054,0.88117 L0.31971,0.88117 L0.31971,3.982 L3.42054,3.982 L3.42054,0.88117 Z" id="el_nQQylboWe_g"/>
                                    <path d="M7.65321,0.97064 L7.65321,3.89252 L4.73109,3.89252 L4.73109,0.97064 L7.65321,0.97064 Z M7.74256,0.88117 L4.64173,0.88117 L4.64173,3.982 L7.74256,3.982 L7.74256,0.88117 Z" id="el_zzFaOivEGdA"/>
                                    <path d="M11.97523,0.97064 L11.97523,3.89252 L9.05311,3.89252 L9.05311,0.97064 L11.97523,0.97064 Z M12.06459,0.88117 L8.96376,0.88117 L8.96376,3.982 L12.06459,3.982 L12.06459,0.88117 Z" id="el_v8YI3zNusaI"/>
                                    <path d="M16.2975,0.97064 L16.2975,3.89252 L13.37513,3.89252 L13.37513,0.97064 L16.2975,0.97064 Z M16.38685,0.88117 L13.28578,0.88117 L13.28578,3.982 L16.38685,3.982 L16.38685,0.88117 Z" id="el_62V_64BN9So"/>
                                </g>
                                <g id="el_GHemM2RyoKt">
                                    <path d="M3.33119,0.37592 L3.33119,3.29779 L0.40907,3.29779 L0.40907,0.37592 L3.33119,0.37592 Z M3.42054,0.28644 L0.31971,0.28644 L0.31971,3.38727 L3.42054,3.38727 L3.42054,0.28644 Z" id="el_OG3OnesTZim"/>
                                    <path d="M7.65321,0.37592 L7.65321,3.29779 L4.73109,3.29779 L4.73109,0.37592 L7.65321,0.37592 Z M7.74256,0.28644 L4.64173,0.28644 L4.64173,3.38727 L7.74256,3.38727 L7.74256,0.28644 Z" id="el_MEx9eLGdVfK"/>
                                    <path d="M11.97523,0.37592 L11.97523,3.29779 L9.05311,3.29779 L9.05311,0.37592 L11.97523,0.37592 Z M12.06459,0.28644 L8.96376,0.28644 L8.96376,3.38727 L12.06459,3.38727 L12.06459,0.28644 Z" id="el_Htf4a1fVt_6"/>
                                    <path d="M16.2975,0.37592 L16.2975,3.29779 L13.37513,3.29779 L13.37513,0.37592 L16.2975,0.37592 Z M16.38685,0.28644 L13.28578,0.28644 L13.28578,3.38727 L16.38685,3.38727 L16.38685,0.28644 Z" id="el_j-Bdzyohw48"/>
                                </g>
                                <path d="M36.65443,16.37592 L36.65443,19.29779 L16.36927,19.29779 L16.36927,16.37592 L36.65443,16.37592 Z M36.74379,16.28644 L16.27992,16.28644 L16.27992,19.38727 L36.74379,19.38727 L36.74379,16.28644 Z" id="el_SHsC72QNRxn"/>
                            </g>
                            <rect id="el_c_-BB_eWbVD" x="77.55606" y="39.80091" width="27.37047" height="13.2236"/>
                            <polygon id="el_sxqmgNu-7Jo" points="112.866 71.435 112.866 70.855 110.093 70.855 110.093 71.435 110.093 72.016 110.093 74.937 115.639 74.937 115.639 71.435"/>
                            <polygon id="el_XoENRFQm1e_" points="112.866 64.312 112.866 63.732 110.093 63.732 110.093 64.312 110.093 64.892 110.093 67.813 115.639 67.813 115.639 64.312"/>
                            <polygon id="el_AUU5ksdJWux" points="112.866 57.244 112.866 56.664 110.093 56.664 110.093 57.244 110.093 57.824 110.093 60.745 115.639 60.745 115.639 57.244"/>
                        </g></g>
                        <g id="el_bwHCoASZqwX_nsuw1QEXk" data-animator-group="true" data-animator-type="0"><g id="el_bwHCoASZqwX" fill-rule="nonzero">
                            <path d="M139.27577,44.99555 C139.30458,44.99555 139.33338,44.99664 139.36268,44.99896 C139.645535,45.0208539 139.90787,45.1550107 140.0912,45.37152 C140.275652,45.5870478 140.366281,45.8673737 140.34291,46.15009 L139.45423,57.25309 L139.41859,57.6989 L139.86439,57.73454 L140.89466,57.81694 L141.34046,57.8527 L141.37611,57.40678 L142.07045,48.73295 C142.117076,48.178969 142.578719,47.7521155 143.13465,47.74895 C143.16346,47.74895 143.19227,47.75005 143.22157,47.75237 C143.50439,47.7743759 143.766682,47.9085121 143.95008,48.12493 C144.13452,48.3404644 144.225147,48.6207853 144.20179,48.9035 L143.5077,57.57745 L143.47206,58.02325 L143.91786,58.05889 L144.94786,58.14141 L145.39366,58.17718 L145.4293,57.73138 L145.68638,54.52117 C145.732902,53.967235 146.194504,53.5403878 146.75038,53.53728 C146.77919,53.53728 146.80824,53.53838 146.83729,53.5407 C147.425439,53.5886501 147.863932,54.1034083 147.81776,54.6917 L147.56068,57.90179 L147.52504,58.34771 L147.97084,58.38335 L149.00111,58.46575 L149.44691,58.50152 L149.48255,58.05559 L149.62733,56.24602 C149.67396,55.6920374 150.135607,55.265185 150.69154,55.26202 C150.72035,55.26202 150.74916,55.26311 150.77845,55.26543 C151.366602,55.3133748 151.805098,55.8281365 151.75892,56.41643 L151.61392,58.22637 L151.46692,60.08537 L149.6593,70.79631 L149.56409,70.77397 L149.53064,71.30241 L146.81264,114.01164 L135.75747,113.12687 L141.19326,69.22477 L141.24257,68.82597 L140.85146,68.7343 L137.24306,67.8892 L137.2416,67.88237 L136.97182,67.81877 C135.793764,67.5440176 134.735204,66.8979146 133.95229,65.97577 C132.968159,64.8268404 132.484635,63.3319131 132.60952,61.82428 L132.99135,57.05414 C133.040692,56.466803 133.530133,56.0142243 134.11953,56.01093 C134.15005,56.01093 134.18081,56.01215 134.21181,56.01459 C134.51178,56.0378352 134.790001,56.1800587 134.98452,56.40959 C135.180204,56.6380786 135.276376,56.9353403 135.25161,57.23515 L134.87832,61.89641 L134.84267,62.34221 L135.28847,62.37785 L136.44985,62.47085 L136.89565,62.50661 L136.9313,62.06069 L137.27773,57.73049 L137.30703,57.28323 L138.21181,45.97939 C138.258337,45.4254589 138.719937,44.9986173 139.27581,44.99551 L139.27577,44.99555 Z M139.27581,44.54824 C138.485928,44.5492563 137.829087,45.1563877 137.76604,45.94375 L136.82537,57.69436 L136.83196,57.69485 L136.48552,62.02505 L135.32415,61.93205 L135.69744,57.27079 C135.766965,56.4004097 135.117811,55.6384371 134.24744,55.56879 C134.20444,55.56537 134.16174,55.56366 134.11951,55.56366 C133.296012,55.5646513 132.611194,56.1976251 132.54551,57.0185 L132.16368,61.78864 C132.02891,63.4145779 132.550429,65.0268295 133.61192,66.26581 C134.456833,67.2600827 135.59849,67.9570054 136.869,68.25409 L136.87071,68.26142 L140.74937,69.16986 L135.25621,113.53546 L147.23008,114.49384 L149.97691,71.33084 L150.02085,71.34122 L151.90785,60.15982 L152.0597,58.262 L152.2047,56.45218 C152.271335,55.6174065 151.648826,54.8865886 150.81408,54.81961 C150.77308,54.81632 150.73208,54.81473 150.69152,54.81473 C149.901572,54.8156842 149.24463,55.4228167 149.18152,56.21024 L149.03674,58.01993 L148.00647,57.93753 L148.26355,54.72745 C148.330282,53.8926452 147.707722,53.1617681 146.87293,53.09488 C146.83193,53.09159 146.79093,53.09 146.75037,53.09 C145.960488,53.0910163 145.303647,53.6981477 145.2406,54.48551 L144.98352,57.69559 L143.95352,57.61307 L144.64761,48.93912 C144.714459,48.1043649 144.09198,47.3734565 143.25723,47.30655 C143.21623,47.30326 143.17523,47.30167 143.13467,47.30167 C142.344743,47.302677 141.687831,47.9097815 141.62467,48.69718 L140.93034,57.37118 L139.90007,57.28878 L140.78874,46.18578 C140.820886,45.7849054 140.692453,45.3876818 140.4317,45.0815088 C140.170948,44.7753359 139.799239,44.5852985 139.39836,44.55321 C139.35736,44.54992 139.31636,44.54833 139.2758,44.54833 L139.27581,44.54824 Z" id="el_Mo5_EBitT1X"/>
                            <path d="M87.55605,79.52109 L123.07806,79.52109 C128.784597,79.5210873 134.257409,81.7879991 138.29254,85.8231299 C142.327671,89.8582607 144.594583,95.3310733 144.59458,101.03761 L144.59458,109.11779 L87.55605,109.11779 L87.55605,79.52109 Z" id="el_JbXy9UPkyxa"/>
                            <g id="el_GONLRVET9EP">
                                <path d="M106.115,28.7463 C106.115021,21.2035926 103.118711,13.9698067 97.7852249,8.63629406 C92.4517385,3.30278139 85.2179674,0.306435913 77.67526,0.30642 C62.4400585,0.307598496 49.912443,12.3153992 49.266,27.53688 L49.23545,27.54488 L49.23545,49.52818 C49.1964851,53.7788526 45.7323892,57.2003057 41.48156,57.18662 C37.2901508,57.2392297 33.9199828,60.6519707 33.91999,64.84371 L33.91999,69.87928 C33.91999,74.1085054 30.4915254,77.53697 26.2623,77.53697 L18.46001,77.53697 C14.2307404,77.53697 10.80224,80.9654704 10.80224,85.19474 L10.80224,89.2403 C10.80224,93.4695254 7.37377541,96.89799 3.14455,96.89799 L0.39962,97.34526 L0.39962,108.08798 L77.67526,108.08798 L84.54282,108.0523 C96.4888446,107.990237 106.140226,98.2885859 106.14023,86.3424 L106.14023,28.74628 L106.115,28.7463 Z" id="el_s8doaB4W0m3"/>
                                <path d="M106.115,28.7463 C106.115021,21.2035926 103.118711,13.9698067 97.7852249,8.63629406 C92.4517385,3.30278139 85.2179674,0.306435913 77.67526,0.30642 C62.4400441,0.307562556 49.9124077,12.3153832 49.266,27.53688 L49.23545,27.54488 L49.23545,49.52818 C49.1965178,53.7787875 45.7324637,57.2001941 41.4817,57.18647 C37.290255,57.2390575 33.9200323,60.6517951 33.91999,64.84357 L33.91999,69.87928 C33.91999,74.1085054 30.4915254,77.53697 26.2623,77.53697 L18.46001,77.53697 C14.2307404,77.53697 10.80224,80.9654704 10.80224,85.19474 L10.80224,89.2403 C10.80224,93.4695254 7.37377541,96.89799 3.14455,96.89799 L0.39962,97.34526 L0.39962,108.08798 L69.75244,108.08798 L84.51827,108.02798 C96.4739457,107.979408 106.140259,98.2737544 106.14027,86.31798 L106.14027,28.74631 L106.115,28.7463 Z" id="el_u_prHCL6L45"/>
                            </g>
                            <path d="M113.115,28.7463 C113.115,28.30923 113.10158,27.87537 113.082,27.44311 C113.0769,27.3295 113.0707,27.21604 113.06421,27.10273 C113.04248,26.72093 113.01433,26.34103 112.97766,25.96346 C112.97248,25.91052 112.9692,25.857 112.96373,25.80406 C112.92042,25.38274 112.8658,24.96492 112.80433,24.54929 C112.78833,24.44093 112.77064,24.33329 112.75333,24.22539 C112.69769,23.8772767 112.63593,23.5313533 112.56805,23.18762 C112.5523,23.10843 112.53844,23.02862 112.52211,22.94976 C112.43825,22.54492 112.345583,22.1434333 112.24411,21.7453 C112.21873,21.64497 112.19117,21.54551 112.16462,21.44547 C112.078953,21.1220033 111.98776,20.8007733 111.89104,20.48178 C111.86194,20.38597 111.83423,20.28957 111.80426,20.19434 C111.68256,19.80802 111.55306,19.4253 111.41576,19.04618 C111.38376,18.95794 111.34926,18.87103 111.31644,18.78338 C111.201233,18.4752267 111.080773,18.16965 110.95506,17.86665 C110.91206,17.76282 110.86968,17.65884 110.82549,17.55573 C110.66842,17.1891 110.5053,16.82582 110.33349,16.46736 C110.29936,16.39605 110.26276,16.32636 110.22805,16.25546 C110.081703,15.95664 109.930203,15.6608367 109.77355,15.36805 C109.71638,15.26115 109.65922,15.1544 109.60088,15.04823 C109.41057,14.70289 109.21588,14.36032 109.01188,14.02388 C108.9841,13.97809 108.95442,13.93346 108.92627,13.88782 C108.743097,13.58944 108.554313,13.2949467 108.35992,13.00434 C108.288967,12.89788 108.217337,12.7919567 108.14503,12.68657 C107.956097,12.4109433 107.762597,12.1388133 107.56453,11.87018 C107.52231,11.81301 107.48206,11.75438 107.43933,11.69765 C107.20877,11.39023 106.97003,11.08937 106.72751,10.79172 C106.64358,10.68872 106.55826,10.58711 106.47295,10.48532 C106.279617,10.2547533 106.08269,10.0274433 105.88217,9.80339 C105.8118,9.72464 105.74317,9.64428 105.67195,9.56626 C105.41695,9.28742 105.156243,9.01398 104.88983,8.74594 C104.79533,8.65041 104.69883,8.55679 104.60297,8.46258 C104.400837,8.26395333 104.195743,8.06843333 103.98769,7.87602 C103.89469,7.78984 103.80269,7.70248 103.70849,7.61746 C103.430737,7.36706 103.148033,7.1222 102.86038,6.88288 C102.75953,6.79888 102.6565,6.71751 102.55456,6.63496 C102.33872,6.46024667 102.120357,6.2886 101.89947,6.12002 C101.78841,6.03543 101.67787,5.95012 101.56547,5.86702 C101.266217,5.64578667 100.96271,5.42995 100.65495,5.21951 C100.55295,5.15009 100.44866,5.08388 100.3457,5.01578 C100.11112,4.86061333 99.8742333,4.70875 99.63504,4.56019 C99.51065,4.48304 99.38617,4.40604 99.26054,4.33079 C98.93992,4.13887 98.61654,3.95103 98.28795,3.77151 L98.28577,3.77034 L98.28577,106.91726 C107.154936,103.963878 113.138693,95.6659117 113.14017,86.31794 L113.14017,28.74633 L113.115,28.7463 Z" id="el_QTjx5V3uokr"/>
                            <rect id="el_DDbwCc2GdRf" x="85.25846" y="17.26356" width="5.93373" height="90.67656"/>
                            <path d="M56.266,27.49376 L56.23545,27.50176 L56.23545,49.48506 C56.2354224,53.7143052 52.8069252,57.1427666 48.57768,57.14275 C44.3484729,57.1427942 40.9200342,60.5712329 40.91999,64.80044 L40.91999,69.83616 C40.9199569,74.0654029 37.4914629,77.493861 33.26222,77.49385 L25.46001,77.49385 C21.2307648,77.4938334 17.8022676,80.9222948 17.80224,85.15154 L17.80224,89.19718 C17.8022427,91.2281265 16.9954535,93.1758914 15.5593575,94.6119875 C14.1232614,96.0480835 12.1754965,96.8548727 10.14455,96.85487 C5.3349,96.85487 0.97435,100.23945 0.97435,108.04487 L34.58576,108.04487 C35.1909152,106.945374 35.5075617,105.71045 35.50613,104.45542 L35.50613,101.11957 C35.5061599,97.1469792 38.6182994,93.8707468 42.58565,93.66677 L48.00047,93.38852 C51.967793,93.1845073 55.079892,89.9082851 55.07992,85.93572 L55.07992,80.473 C55.0799531,76.3515244 58.4210844,73.010429 62.54256,73.01044 L62.54263,73.01044 C66.5717101,73.0104309 69.8733013,69.812193 70.00141,65.78515 L70.77755,41.39498 L70.92644,3.81148 C62.2428226,8.60746944 56.6867529,17.5826706 56.266,27.49376 Z" id="el_RdVlSufeWAG"/>
                        </g></g>
                    </g>
                    <g id="el_1Gzh7E4OBwD">
                        <rect id="el_2jmtxTwfQDC" fill-rule="nonzero" x="0.43778" y="0.88948" width="202.85403" height="202.85361"/>
                        <g id="el_u9jFSrkgYfH_vKXfL1vR0" data-animator-group="true" data-animator-type="0"><g id="el_u9jFSrkgYfH" fill-rule="nonzero">
                            <rect id="el_k0E5LlRsXFl" x="0.10481" y="0.01453" width="56.8644" height="77.70484"/>
                            <path d="M48.88773,4.18518 C49.9938794,4.18215911 51.0552564,4.62183237 51.83524,5.40618 C53.460467,7.03512875 53.460467,9.67223125 51.83524,11.30118 C51.0552446,12.0855028 49.9938701,12.5251534 48.88773,12.52212 C47.7815893,12.5251568 46.7202135,12.0855056 45.94022,11.30118 C44.314982,9.6722358 44.314982,7.0351242 45.94022,5.40618 C46.7202011,4.62182859 47.7815797,4.18215465 48.88773,4.18518 Z M48.88773,3.36902 C47.5653869,3.36734964 46.2969094,3.89278389 45.36307,4.82902 C43.4165303,6.77566754 43.4165303,9.93169246 45.36307,11.87834 C46.2969119,12.8145724 47.5653878,13.3400059 48.88773,13.33834 C50.210078,13.3400497 51.4785669,12.8146093 52.41238,11.87834 C54.3589197,9.93169246 54.3589197,6.77566754 52.41238,4.82902 C51.4785669,3.89275072 50.210078,3.36731026 48.88773,3.36902 Z" id="el_Q1UFgNrL1ar"/>
                        </g></g>
                        <g id="el_Ewo6_uw252A_UfDvTkLLk" data-animator-group="true" data-animator-type="0"><g id="el_Ewo6_uw252A_rIKvZz5zZ" data-animator-group="true" data-animator-type="1"><g id="el_Ewo6_uw252A" fill-rule="nonzero">
                            <path d="M106.17574,136.85516 L85.61574,136.85516 C62.5505544,136.85516 43.8525255,118.157136 43.85252,95.09195 L43.85252,51.1082 L106.17574,51.1082 L106.17574,136.85516 Z" id="el_6pGqB-KgbCh"/>
                            <g id="el_wIiJgDg1Sie">
                                <g id="el_3jtpiYYaC3u">
                                    <path d="M49.68777,141.28772 C47.9086619,141.292533 46.2015757,140.585363 44.94705,139.32385 L2.42654,96.80334 C1.16525903,95.5484981 0.458290755,93.8412967 0.46316,92.06213 C0.458310515,90.2835426 1.16531587,88.5769575 2.42654,87.32288 L86.41336,3.33557 C87.6678857,2.07405736 89.3749719,1.36688726 91.15408,1.3717 C92.9332281,1.36669934 94.640387,2.07389804 95.89481,3.33557 L138.41531,45.85608 C139.676723,47.1104321 140.383739,48.8173955 140.37869,50.59631 C140.383739,52.3752275 139.676724,54.0821942 138.41531,55.33655 L54.4285,139.32288 C53.1743272,140.585042 51.4670897,141.292623 49.68777,141.28772 Z" id="el_f1GmgalzW7t"/>
                                    <path d="M91.15433,1.77966 C92.8250318,1.77512343 94.4281108,2.43917023 95.60623,3.62378 L138.12674,46.14416 C140.581332,48.6047318 140.581332,52.5877682 138.12674,55.04834 L54.13992,139.03503 C52.9617303,140.219687 51.3585551,140.883737 49.68777,140.87915 C48.0169877,140.883737 46.4138154,140.219688 45.23563,139.03503 L2.71536,96.51465 C1.53076673,95.3364885 0.866761609,93.7333698 0.87136,92.06265 C0.866757146,90.3919293 1.53076296,88.788809 2.71536,87.61065 L86.70218,3.62383 C87.8803697,2.43917269 89.4835449,1.77512333 91.15433,1.77971 L91.15433,1.77966 Z M91.15408,0.96355 C89.2673252,0.961085596 87.4574112,1.71078707 86.12503,3.04668 L2.13821,87.0335 C0.804370872,88.3673101 0.0550254084,90.1763622 0.0550254084,92.062675 C0.0550254084,93.9489878 0.804370872,95.7580399 2.13821,97.09185 L44.65848,139.61223 C45.9909256,140.948174 47.8009341,141.697878 49.68777,141.69536 C51.5746092,141.69788 53.3846214,140.948175 54.71707,139.61223 L138.70389,55.62554 C141.481229,52.8478747 141.481229,48.3447353 138.70389,45.56707 L96.18338,3.04668 C94.8509289,1.71073872 93.0409183,0.961034531 91.15408,0.96355 Z" id="el_tlHRmiINsHV"/>
                                </g>
                                <path d="M29.3782,108.96753 C30.2816648,108.965049 31.1485704,109.324127 31.78567,109.96472 C32.4262951,110.601808 32.7854183,111.46871 32.78299,112.37219 C32.7854217,113.275671 32.4262979,114.142574 31.78567,114.77966 C31.1485836,115.420288 30.2816807,115.779412 29.3782,115.77698 C28.47472,115.779408 27.6078183,115.420285 26.97073,114.77966 C26.3301086,114.14257 25.970989,113.275669 25.97342,112.37219 C25.9709924,111.468712 26.3301114,110.601812 26.97073,109.96472 C27.6078322,109.324131 28.4747361,108.965054 29.3782,108.96753 Z M29.3782,108.15137 C28.258485,108.149965 27.1843761,108.59485 26.39358,109.38757 C25.6019777,110.179124 25.157256,111.25273 25.157256,112.37219 C25.157256,113.49165 25.6019777,114.565256 26.39358,115.35681 C27.184329,116.149616 28.2584573,116.594556 29.3782,116.59314 C30.4979431,116.594559 31.5720723,116.149618 32.36282,115.35681 C33.1544248,114.565258 33.5991481,113.491651 33.5991481,112.37219 C33.5991481,111.252729 33.1544248,110.179122 32.36282,109.38757 C31.5720252,108.594848 30.4979154,108.149962 29.3782,108.15137 Z" id="el_ealtjmOFKf-"/>
                                <g id="el_auwVDR6UqAP">
                                    <rect x="7.83566876" y="25.4419457" width="96.69584" height="61.31369" id="el_Dk6lTJ316df"/>
                                </g>
                                <g id="el_33MKOJ0wHp4">
                                    <polygon id="el_SBHQQyjGyLi" points="0.893 30.744 2.39 7.539 15.49 10.159"/>
                                    <circle id="el_DmB-yXZscaz" cx="10.25016" cy="3.42243" r="2.64651"/>
                                </g>
                                <g id="el_S-L1oBk5g4U">
                                    <polygon points="0.50764 2.69326 0.89402 3.08046 3.34753 0.62653 2.96116 0.24016 3.18082 0.02008 5.25582 2.09508 4.60097 2.75034 4.35938 2.50876 4.79457 2.07357 3.59863 0.87804 2.51273 1.96353 3.49314 2.94394 3.27307 3.16402 2.29266 2.18361 1.14512 3.33115 2.34106 4.52667 2.77624 4.09148 3.01783 4.33307 2.36298 4.98833 0.28798 2.91333" id="el_7USv7sQJaXS"/>
                                    <path d="M4.87151,4.53412 C5.2699356,4.47277643 5.67544255,4.58648008 5.98389,4.84603 C6.2018918,5.02211395 6.30220013,5.30592577 6.24326,5.57989 C6.18676556,5.76376509 6.08206665,5.92915912 5.94004,6.05889 L4.8893,7.11045 L5.19708,7.41823 L4.99479,7.6201 L4.15503,6.78034 L4.35731,6.57846 L4.66468,6.88541 L5.6848,5.86529 C5.78147833,5.77825724 5.85678882,5.67010621 5.90488,5.54924 C5.96268711,5.35566519 5.89643453,5.14641835 5.73775,5.02139 C5.44952947,4.77360657 5.06574506,4.66741863 4.69115,4.73181 L3.60115,5.82226 L3.90893,6.13004 L3.70664,6.33191 L2.86647,5.49215 L3.06875,5.28945 L3.37653,5.59722 L4.8186,4.15515 L4.51083,3.84737 L4.71312,3.6455 L5.23683,4.16921 L4.87151,4.53412 Z" id="el_VPrTvdHEIQ3"/>
                                    <path d="M8.32075,7.60447 C8.22092357,7.70787605 8.05655223,7.71192965 7.95175,7.61357 C7.8632146,7.52022279 7.8437678,7.3809371 7.90335,7.26691 C7.63956903,7.1627522 7.34637853,7.16096881 7.08135,7.26191 L6.06123,8.28203 L6.42154,8.64276 L6.21925,8.84463 L5.32654,7.95192 L5.52883,7.75005 L5.8366,8.05782 L7.27868,6.61574 L6.9709,6.30797 L7.17319,6.10527 L7.6969,6.62898 L7.27909,7.0468 C7.60895516,6.91403823 7.98276115,6.94983983 8.28143,7.1428 C8.35085302,7.19682865 8.39457002,7.27738531 8.40203528,7.36503759 C8.40950054,7.45268986 8.38003626,7.5394793 8.32075,7.60447 Z" id="el_8xQ4k7EZ7jU"/>
                                    <path d="M7.78173,8.56084 C8.02457662,8.29673943 8.36567417,8.14460134 8.72442995,8.14037211 C9.08318572,8.13614288 9.42777498,8.28019768 9.67678,8.5385 C9.93481459,8.78756567 10.0786896,9.13203564 10.0744612,9.49064083 C10.0702328,9.84924602 9.91827558,10.1902278 9.65444,10.43314 C9.41157182,10.6970529 9.07057463,10.8490653 8.71194239,10.853294 C8.35331016,10.8575227 8.00882346,10.7135929 7.7598,10.45548 C7.50144276,10.2066161 7.35730507,9.86212064 7.36145692,9.50342236 C7.36560877,9.14472408 7.51768167,8.80365717 7.78173,8.56084 Z M9.4174,10.19652 C9.62812449,10.0171942 9.75418502,9.75786399 9.76503117,9.48137727 C9.77587733,9.20489055 9.67051919,8.93648211 9.47449,8.7412 C9.27935414,8.54488981 9.01088183,8.43933761 8.73429916,8.45018761 C8.45771649,8.4610376 8.19833785,8.58729674 8.01918,8.79829 C7.80726288,8.97685114 7.68028506,9.23635941 7.66934464,9.51325876 C7.65840421,9.79015812 7.76451156,10.0588757 7.96168,10.2536 C8.15661767,10.4504538 8.42527654,10.5563755 8.70210554,10.5455208 C8.97893453,10.5346661 9.23847474,10.4080333 9.4174,10.19652 Z" id="el_yXzb14CXAc6"/>
                                    <polygon points="9.3053 11.52607 9.63045 11.85122 12.44427 9.0374 12.11912 8.71225 12.32141 8.50954 12.87077 9.05891 9.85466 12.07543 10.18477 12.40555 9.98248 12.60825 9.10301 11.72877" id="el_bSGrHDMCRZj"/>
                                    <path d="M13.35188,13.01365 C13.7501354,12.9531719 14.1551739,13.066783 14.46388,13.32556 C14.6818272,13.5020476 14.7820887,13.7860477 14.72325,14.06025 C14.6665591,14.2440346 14.5618909,14.4093803 14.42003,14.53925 L13.36929,15.58999 L13.67707,15.89776 L13.47478,16.10046 L12.63502,15.2607 L12.8373,15.058 L13.14467,15.36578 L14.16438,14.34565 C14.261119,14.2585832 14.3365569,14.1504508 14.38487,14.0296 C14.4431163,13.8360218 14.3767856,13.6265283 14.21774,13.50175 C13.9297372,13.2538324 13.5461338,13.1473522 13.17155,13.21135 L12.0811,14.3018 L12.38888,14.60958 L12.18659,14.81228 L11.34642,13.97169 L11.5487,13.76981 L11.85648,14.07759 L13.29855,12.63551 L12.99078,12.32774 L13.19307,12.12504 L13.71678,12.64875 L13.35188,13.01365 Z" id="el_IQs0VLyNYom"/>
                                    <path d="M14.69963,15.47834 C14.9425787,15.214415 15.2836428,15.0624024 15.6423385,15.0581739 C16.0010343,15.0539454 16.345587,15.1978755 16.59469,15.456 C16.8527197,15.7052356 16.9965763,16.0498287 16.9923484,16.4085485 C16.9881205,16.7672682 16.8361822,17.1083751 16.57235,17.35146 C16.3292997,17.6151847 15.9882848,17.7670555 15.6296676,17.7712832 C15.2710504,17.7755109 14.92655,17.6317216 14.67735,17.3738 C14.4192155,17.1246249 14.2752802,16.7800157 14.2794971,16.4212625 C14.2837141,16.0625093 14.4357098,15.7213786 14.69963,15.47834 Z M16.33531,17.11401 C16.5459525,16.9346359 16.6719528,16.6753224 16.6827979,16.3988667 C16.6936429,16.1224111 16.5883436,15.854024 16.3924,15.6587 C16.1971721,15.462569 15.9287415,15.3571405 15.6522209,15.3679881 C15.3757004,15.3788357 15.1163536,15.5049682 14.93709,15.71579 C14.725223,15.8944072 14.5983177,16.1539488 14.5874552,16.430849 C14.5765928,16.7077493 14.6827764,16.9764347 14.88,17.1711 C15.0747633,17.3681338 15.3434043,17.4741861 15.6202385,17.4633262 C15.8970726,17.4524664 16.1565802,17.3256955 16.33531,17.11401 Z" id="el_mNmkI6dcrK9"/>
                                    <polygon points="17.79228 17.1289 17.51967 16.8567 17.72195 16.654 18.5311 17.46315 18.3375 17.65675 18.02973 17.34898 17.11095 19.01527 18.93072 18.29382 19.01924 18.38234 18.30234 20.19834 19.96449 19.28334 19.64803 18.96729 19.84163 18.77369 20.65037 19.58284 20.44808 19.78472 20.17092 19.50755 17.91969 20.70308 17.83199 20.61538 18.5795 18.72488 16.68859 19.4728 16.60006 19.38428" id="el_aMsNen87Fae"/>
                                </g>
                                <path d="M93.51283,67.56024 C93.4046761,67.5602027 93.3009307,67.5173715 93.22425,67.4411 L70.96986,45.18524 C67.9151701,42.1234992 67.9151701,37.1669108 70.96986,34.10517 C72.4359649,32.6310742 74.4308239,31.8047093 76.50986,31.81024 L76.51035,31.81024 C78.5893494,31.8048955 80.5841395,32.6312319 82.05035,34.10517 L96.50689,48.56122 C97.9811811,50.0276423 98.8077023,52.0228212 98.8023,54.10222 C98.8077023,56.1816188 97.9811811,58.1767977 96.50689,59.64322 C95.3891928,60.766998 93.9530929,61.520078 92.39312,61.80045 L93.90484,67.03873 C93.9564341,67.2176324 93.8805336,67.408788 93.72027,67.50357 C93.6574478,67.5407003 93.5858045,67.5602724 93.51283,67.56024 Z M76.50941,32.62665 C74.6471571,32.6218121 72.860325,33.3620022 71.54701,34.68231 C68.8106803,37.4251417 68.8106803,41.8652583 71.54701,44.60809 L92.68177,65.74384 L91.48646,61.60126 C91.4635969,61.5361019 91.4577152,61.4661922 91.46937,61.39813 C91.4998666,61.2208063 91.6428625,61.084358 91.82142,61.0622 C93.376867,60.8793992 94.8247737,60.1759218 95.92982,59.0661 C97.250497,57.7523949 97.9908667,55.9650295 97.98597,54.10224 C97.9910446,52.2397001 97.2506278,50.4525702 95.92982,49.13935 L81.47328,34.68329 C80.1599945,33.3622211 78.3726712,32.6216208 76.5099,32.62665 L76.50941,32.62665 Z" id="el_a41JhOklGo8"/>
                                <g id="el_JlaGUYjShPp">
                                    <polygon points="30.538 0.389 0.319 30.608 30.538 60.828" id="el_B7cfZrXqmSy"/>
                                </g>
                                <rect id="el_VYgMqd65Fvz" x="68.2382236" y="43.4592913" width="5.18631" height="36.5133"/>
                                <rect id="el_os6xNFKfaRI" x="63.7958721" y="49.309421" width="2.37076" height="36.5133"/>
                                <rect id="el_sHZreAFlp05" x="55.2319636" y="55.8057849" width="6.50585" height="36.5133"/>
                                <g id="el_bTzGQc6j_7b">
                                    <circle cx="2.01177" cy="1.44731" r="1.26776" id="el_1a-K9QAi6Hg"/>
                                </g>
                                <g id="el_9v5OCypJ8cN">
                                    <path d="M7.943,8.19501 C7.7264572,8.19518038 7.51876738,8.10908018 7.36586,7.95575 L1.08021,1.67059 C0.927091063,1.51754847 0.84106323,1.30993315 0.84106323,1.093445 C0.84106323,0.876956852 0.927091063,0.669341529 1.08021,0.5163 C1.39912246,0.197938549 1.91559754,0.197938549 2.23451,0.5163 L8.52015,6.80145 C8.673272,6.95449193 8.75930177,7.1621094 8.75930177,7.3786 C8.75930177,7.5950906 8.673272,7.80270807 8.52015,7.95575 C8.36723954,8.1090817 8.15954604,8.19518193 7.943,8.19501 Z" id="el_dtg3Ikc3R9M"/>
                                </g>
                                <path d="M35.87318,101.16376 L35.29603,100.58563 L53.26234,82.61981 L38.97425,68.33173 L21.00795,86.29755 L20.4308,85.7204 L38.68568,67.46649 C38.7620318,67.3896111 38.8659039,67.3463764 38.974255,67.3463764 C39.0826061,67.3463764 39.1864782,67.3896111 39.26283,67.46649 L54.12806,82.33075 C54.2872407,82.4902062 54.2872407,82.7484438 54.12806,82.9079 L35.87318,101.16376 Z" id="el_kEASZDAryB0"/>
                                <path d="M46.82679,112.11688 L46.24964,111.53876 L64.21595,93.57294 L57.36048,86.71747 L39.39418,104.68427 L38.81703,104.10712 L57.07191,85.85126 C57.2317697,85.6930576 57.4892003,85.6930576 57.64906,85.85126 L65.08168,93.28388 C65.2408596,93.4433328 65.2408596,93.7015672 65.08168,93.86102 L46.82679,112.11688 Z" id="el_dmHxEMvg1Ga"/>
                                <g id="el_HfS1DQAWcLh">
                                    <path d="M4.58963,0.71619 L39.4053,35.5321 L36.07083,38.8667 L1.25491,4.05078 L4.58963,0.71619 Z M4.58963,0.13904 L0.67776,4.05078 L36.07083,39.44385 L39.98245,35.5321 L4.58963,0.13904 Z" id="el_qvXL9MhIa6i"/>
                                </g>
                            </g>
                            <polygon id="el_EUkXKraub12" points="120.615 96.229 100.249 96.229 100.249 121.458"/>
                            <g id="el_HAdoi0Qskv1">
                                <g id="el_z53Xo0oZzv5">
                                    <circle cx="53.48161" cy="7.01203" r="6.79008" id="el_k6eUn7kZeSm"/>
                                    <circle cx="37.06049" cy="21.7856" r="7.95507" id="el_XZs0B_SzC_L"/>
                                    <circle cx="21.32924" cy="38.22698" r="7.45293" id="el_lCtqEUvoZm2"/>
                                    <circle cx="6.67259" cy="54.76502" r="6.12258" id="el_rgfTkBG_c-p"/>
                                </g>
                                <rect id="el_6a-K4yQA5eH" x="-11.4424862" y="30.2121207" width="83.41201" height="1"/>
                            </g>
                            <path d="M130.60232,94.00908 L130.60232,68.89133 C130.602325,66.6905212 129.72806,64.5798502 128.171855,63.0236425 C126.615649,61.4674347 124.504979,60.5931673 122.30417,60.59317 C117.721228,60.59317 114.00602,64.3083783 114.00602,68.89132 L114.00602,94.00908 C114.017766,98.1686281 112.364635,102.159935 109.41524,105.09303 C106.545446,107.978887 102.65949,109.625938 98.58999,109.68128 C93.9997898,109.666013 90.2197426,113.284271 90.03433,117.87075 C90.0016257,120.11029 90.8783406,122.267396 92.46413,123.84913 C94.0188597,125.407519 96.1304525,126.282198 98.33176,126.27966 C106.895053,126.303344 115.111882,122.899998 121.15052,116.82831 C127.22246,110.789612 130.625976,102.572594 130.60232,94.00908 Z" id="el_SHIWhJ9F8x-"/>
                        </g></g></g>
                    </g>
                    <g id="el_794TtV2NrLV">
                        <rect id="el_KTgaSDx4dP7" fill-rule="nonzero" x="69.88284" y="0.27568" width="202.58897" height="202.58897"/>
                        <polygon id="el_7-ocqSb7CAn" fill-rule="nonzero" points="69.883 35.98 69.883 202.865 237.147 202.865"/>
                        <g id="el_8VffbsGWV3n" fill-rule="nonzero">
                            <path d="M69.88286,140.74764 C31.3057298,140.70395 0.0436847724,109.4419 -9.09494702e-13,70.86477 C0.0436847831,32.2876415 31.3057315,1.02559478 69.88286,0.98191 C108.45999,1.02559477 139.72204,32.2876398 139.76573,70.86477 C139.722045,109.441904 108.459994,140.703955 69.88286,140.74764 Z M69.88286,3.59012 C32.7454895,3.63208007 2.65016559,33.7273995 2.6082,70.86477 C2.65016008,108.002144 32.7454856,138.09747 69.88286,138.13943 C107.020256,138.097503 137.115615,108.002166 137.15757,70.86477 C137.11561,33.7273777 107.020252,3.63204702 69.88286,3.59012 Z" id="el_liDvtqcJkdu"/>
                        </g>
                        <rect id="el_Ux9DmPlBv35" fill-rule="nonzero" x="100.635661" y="74.2744654" width="92.75384" height="128.52166"/>
                        <g id="el_dY18WZomB93" fill-rule="nonzero">
                            <path d="M79.97831,119.0589 L79.52694,119.00472 L0.74313,109.45472 L0.79769,109.00298 L14.0089,0.01298 L14.46026,0.06715 L93.24407,9.61634 L93.18951,10.06808 L79.97831,119.0589 Z M1.75498,108.66117 L79.1847,118.04705 L92.23223,10.41005 L14.8025,1.02493 L1.75498,108.66117 Z" id="el_ns3b5B1LlcJ"/>
                        </g>
                        <g id="el_jM-WBAuNazF" fill-rule="nonzero">
                            <rect id="el_u51yya8aK_e" x="0.61034" y="0.87536" width="108.69812" height="148.52738" rx="3.7866"/>
                            <rect id="el_311zKOV9csN" x="14.21275" y="0.87503" width="1" height="112.15368"/>
                            <g id="el_Hi4VXdRYqEv">
                                <path d="M0.67696,6.69662 C0.656250673,5.03001033 1.31541834,3.42689106 2.50247993,2.25689043 C3.68954152,1.0868898 5.30203473,0.45099749 6.96817,0.49583 C9.75036,0.49583 11.60503,1.95026 11.60503,3.38714 C11.6394669,3.75905501 11.5181428,4.12859918 11.2699631,4.40772909 C11.0217834,4.686859 10.6689699,4.85058153 10.29558,4.85989 C9.93584833,4.89290542 9.5791374,4.77073877 9.31517504,4.52412011 C9.05121268,4.27750146 8.90512165,3.92990285 8.91365,3.56876 C8.91136723,3.35597792 8.9548244,3.14518865 9.04108,2.95066 C8.40901773,2.54481175 7.66298022,2.35348682 6.91361,2.40506 C5.79197778,2.39525352 4.71582317,2.84785255 3.9383523,3.65636603 C3.16088143,4.4648795 2.75074025,5.5579206 2.80443,6.67831 C2.75087111,7.81774564 3.17248273,8.9283268 3.96870279,9.74515955 C4.76492284,10.5619923 5.86436783,11.0118452 7.0048,10.98742 C8.32451323,10.9789664 9.57666631,10.4025912 10.44133,9.40556 L11.80496,10.82412 C10.570621,12.1635836 8.82615949,12.916777 7.0048,12.89665 C5.31971162,12.9989761 3.67006129,12.3831732 2.46421325,11.2016809 C1.25836521,10.0201887 0.609034393,8.3834453 0.67696,6.69662 Z" id="el_wGg5od0xQxq"/>
                                <path d="M12.89845,8.69665 C12.8850424,7.57878974 13.3307488,6.50435997 14.1314981,5.72423697 C14.9322474,4.94411397 16.0179401,4.52659155 17.13507,4.56916 C18.2555691,4.51421203 19.3484597,4.92767161 20.152006,5.71051956 C20.9555522,6.49336751 21.397385,7.5750987 21.37169,8.69665 C21.3849761,9.8144742 20.9392317,10.8888329 20.1385102,11.6689307 C19.3377888,12.4490285 18.2521671,12.8665933 17.13507,12.82415 C16.0145691,12.8790981 14.9216769,12.4656372 14.1181303,11.682787 C13.3145837,10.8999369 12.8727522,9.81820302 12.89845,8.69665 Z M19.33545,8.69665 C19.3980724,8.0708153 19.1958244,7.44734556 18.7777546,6.97744313 C18.3596848,6.5075407 17.7639803,6.23412713 17.13511,6.22351 C16.5062931,6.23420292 15.9106678,6.50765181 15.4926687,6.97754735 C15.0746697,7.44744289 14.872473,8.07086917 14.93511,8.69665 C14.8726217,9.32232383 15.0748936,9.94558846 15.4928838,10.4153296 C15.910874,10.8850708 16.5064134,11.1583938 17.13511,11.16903 C17.763853,11.1584586 18.359461,10.885166 18.7775131,10.4154193 C19.1955652,9.94567263 19.3978833,9.32237088 19.33541,8.69665 L19.33545,8.69665 Z" id="el_LdO9T5K5nu3"/>
                                <path d="M23.738,11.76958 C23.4608136,11.2828046 23.3223863,10.7293517 23.33777,10.1694 L23.33777,6.38681 L22.15614,6.38681 L22.15614,4.71414 L25.31987,4.71414 L25.31987,9.67798 C25.308382,9.96005214 25.3645021,10.2407829 25.48355,10.49676 C25.6768014,10.8521141 26.0622735,11.0591586 26.46525,11.02405 C27.2346506,10.9533667 27.9581033,10.6266353 28.51984,10.09614 L28.51984,6.38681 L27.28365,6.38681 L27.28365,4.71414 L30.50194,4.71414 L30.50194,11.0416 L31.68357,11.0416 L31.68357,12.67841 L28.59272,12.67841 L28.59272,11.40559 C27.8956881,12.2356933 26.8917609,12.7475675 25.81053,12.82415 C24.979729,12.8736859 24.187029,12.4703346 23.738,11.76958 Z" id="el_cIeqUgxdi8b"/>
                                <path d="M39.81343,5.87784 C39.8254409,6.54445051 39.2982618,7.09633271 38.6318,7.11484 C38.1371606,7.13124361 37.6799819,6.85244197 37.4681,6.40518 C36.7850412,6.71456148 36.2272995,7.24674417 35.88624,7.91455 L35.88624,11.04165 L37.26779,11.04165 L37.26779,12.67846 L32.72212,12.67846 L32.72212,11.04165 L33.90412,11.04165 L33.90412,6.38686 L32.72212,6.38686 L32.72212,4.71419 L35.81336,4.71419 L35.81336,6.5143 C36.48602,5.44141 37.32236,4.56921 38.34068,4.56921 C38.7151682,4.5219215 39.0918388,4.63861474 39.3740033,4.88933539 C39.6561677,5.14005604 39.8163491,5.50038922 39.81343,5.87784 Z" id="el_Shwk4mo67ZL"/>
                                <path d="M46.28857,7.55047 C46.0120925,7.5796794 45.7363563,7.48897715 45.5312097,7.3013396 C45.3260631,7.11370204 45.2111865,6.84712983 45.21568,6.56915 C45.2087165,6.45269114 45.221094,6.33588316 45.25231,6.22347 C44.8916468,6.08930293 44.5096649,6.0215697 44.12486,6.02355 C43.23396,6.02355 42.79748,6.4234 42.79748,6.84155 C42.79748,7.29634 43.2519,7.5329 44.47015,7.86026 C46.37938,8.36926 47.48852,8.84158 47.48852,10.27846 C47.48852,11.95113 45.92496,12.84165 44.12486,12.84165 C43.0273396,12.8732515 41.951205,12.5339881 41.07025,11.87865 C40.7706064,11.6036343 40.604735,11.2123373 40.61545,10.80576 C40.6086499,10.5223631 40.7169704,10.2483045 40.9156874,10.0461373 C41.1144044,9.84397006 41.3865581,9.73094868 41.67003,9.73287 C41.9553294,9.71924637 42.2333637,9.82534151 42.4370623,10.0255619 C42.640761,10.2257823 42.7516284,10.5019483 42.74292,10.78744 C42.7397176,10.8973646 42.7275944,11.0068477 42.70667,11.11481 C43.1658531,11.2869444 43.6528007,11.3730797 44.14317,11.36891 C44.94288,11.36891 45.5976,11.09649 45.5976,10.51426 C45.5976,10.11441 45.25231,9.87785 44.03405,9.55126 C41.83371,8.96903 40.90657,8.44175 40.90657,7.07812 C40.90657,5.84193 41.92452,4.5508 44.1611,4.5508 C45.1304391,4.53533582 46.0751398,4.85652919 46.83417,5.45963 C47.1128814,5.72516955 47.2705104,6.09338389 47.27027,6.47834 C47.2962192,6.75408287 47.204316,7.02793541 47.017279,7.2322015 C46.8302419,7.43646759 46.5655265,7.55208384 46.28857,7.55047 Z" id="el_A3hRGXT3l7n"/>
                                <path d="M50.85405,9.36893 C51.1434741,10.5446264 52.2726892,11.3130116 53.47256,11.15072 C54.492043,11.1248781 55.4876785,10.8368429 56.36349,10.31438 L56.19981,12.09694 C55.2767695,12.604768 54.2344765,12.8558856 53.18144,12.82415 C50.58125,12.82415 48.78114,11.18735 48.78114,8.71421 C48.733817,7.61994381 49.140235,6.55466406 49.9043978,5.76999016 C50.6685606,4.98531627 51.7227044,4.55083103 52.81784,4.56916 C53.8572987,4.49130837 54.8796723,4.86656128 55.6219481,5.59838232 C56.3642239,6.33020337 56.7539403,7.34715159 56.69084,8.38761 C56.689184,8.71673599 56.6587987,9.04508914 56.60003,9.36893 L50.85405,9.36893 Z M50.83574,7.98699 L54.70874,7.98699 C54.7233632,7.48433158 54.5236745,6.99914292 54.1594641,6.65240073 C53.7952538,6.30565854 53.3008437,6.13003864 52.79951,6.16933 C51.7661271,6.1576776 50.9038607,6.95578898 50.83574,7.98699 Z" id="el_SBIEYHewXrm"/>
                                <path d="M9.95257,26.84647 L11.31657,26.84647 L11.31657,18.55561 L9.95257,18.55561 L9.95257,16.71887 L14.77104,16.71887 C17.33499,16.71887 19.29877,18.19162 19.29877,20.62813 C19.29877,23.3737 17.35292,24.71901 14.53487,24.71901 C13.97095,24.71901 13.62566,24.71901 13.37117,24.70145 L13.37117,26.84645 L14.86185,26.84645 L14.86185,28.68319 L9.95257,28.68319 L9.95257,26.84647 Z M17.17131,20.62813 C17.17131,19.37363 16.13466,18.55561 14.66192,18.55561 L13.37117,18.55561 L13.37117,22.88304 C13.58941,22.90135 13.88017,22.9189 14.71648,22.9189 C15.3598087,22.9991763 16.0056016,22.789927 16.4796016,22.3476147 C16.9536015,21.9053024 17.2069629,21.2755074 17.17132,20.62817 L17.17131,20.62813 Z" id="el_KQnBpUg299E"/>
                                <path d="M20.2099,26.59241 C20.2099,25.10135 21.51897,24.19176 23.4099,24.19176 C24.0887389,24.1885181 24.7657843,24.261726 25.42824,24.41 L25.42824,23.77359 C25.4505755,23.385728 25.3417341,23.0016342 25.11924,22.68315 C24.7199913,22.2519353 24.139739,22.0358627 23.55569,22.10092 C23.2892699,22.0937362 23.0238923,22.1369717 22.77353,22.22835 C22.8154414,22.3578162 22.8399463,22.492282 22.8464,22.62821 C22.8475586,22.9098161 22.7336752,23.1796836 22.5311202,23.375323 C22.3285652,23.5709625 22.054906,23.6754064 21.77351,23.66447 C21.487453,23.6756171 21.2099552,23.5656317 21.0092071,23.3615409 C20.808459,23.1574501 20.7030708,22.8781739 20.71894,22.59234 C20.71894,21.61026 21.71894,20.57399 23.88305,20.57399 C24.9492659,20.4713729 26.0030365,20.8674209 26.73773,21.64689 C27.1701495,22.2213538 27.3887264,22.9286195 27.35582,23.64689 L27.35582,27.04647 L28.53782,27.04647 L28.53782,28.68328 L25.46489,28.68328 L25.46489,27.81028 C24.7199579,28.4512319 23.7743883,28.8115896 22.79182,28.82899 C22.1458307,28.9075942 21.4967247,28.7093718 21.0048548,28.2832911 C20.5129849,27.8572104 20.2242216,27.2430064 20.2099,26.59241 Z M25.42822,26.68321 L25.42822,25.42871 C24.8916242,25.3049016 24.3424874,25.2436999 23.7918,25.24633 C22.82803,25.24633 22.24618,25.68282 22.24618,26.41003 C22.24618,27.04644 22.71929,27.39211 23.42818,27.39211 C24.1529868,27.3729129 24.8531125,27.1247583 25.42822,26.68321 Z" id="el_h4GPM12Jp8n"/>
                                <path d="M29.32146,24.62824 C29.326912,22.3982432 31.1281978,20.5891215 33.35815,20.57399 C35.54015,20.57399 36.97668,21.9918 36.97668,23.2463 C37.0031034,23.5979429 36.8800626,23.9444325 36.6377816,24.2006567 C36.3955005,24.4568809 36.0564301,24.5990967 35.70386,24.59237 C35.0433549,24.5865756 34.5093299,24.052555 34.50353,23.39205 C34.510316,23.1454244 34.6001159,22.9083022 34.7584,22.71905 C34.3875668,22.3393488 33.8695052,22.1403719 33.33984,22.17421 C32.7316073,22.2150631 32.167479,22.5060743 31.7816329,22.9780264 C31.3957869,23.4499785 31.2227069,24.0606925 31.30356,24.66491 C31.2909843,25.3453201 31.5620851,26.0002832 32.0518614,26.4727609 C32.5416376,26.9452387 33.2059216,27.1926232 33.88544,27.1556 C34.8881517,27.1321129 35.8667681,26.8435553 36.72181,26.31926 L36.55851,28.10182 C35.7005849,28.6072737 34.7170469,28.8594068 33.72176,28.82903 C32.566519,28.9106812 31.430413,28.5013406 30.5927263,27.7016346 C29.7550395,26.9019286 29.2934615,25.7860245 29.32146,24.62824 Z" id="el_Dj49VC_yij6"/>
                                <polygon id="el_g_8wSzCXSs3" points="38.2514 27.04647 39.4334 27.04647 39.4334 17.04628 38.2514 17.04628 38.2514 15.3736 41.41513 15.3736 41.41513 24.30088 43.74253 22.30088 42.63339 22.30088 42.63339 20.71901 47.34274 20.71901 47.34274 22.39168 45.86999 22.39168 44.01533 23.956 46.03367 27.0106 47.34274 27.0106 47.34274 28.68328 44.85166 28.68328 42.5609 25.10138 41.41513 26.06515 41.41513 27.0831 42.41513 27.0831 42.41513 28.68328 38.25138 28.68328"/>
                            </g>
                        </g>
                        <g id="el_H1i081pFS0U" fill-rule="nonzero">
                            <path d="M101.26813,1.44501 L101.26813,80.54263 L1.67892,80.54263 L1.67892,1.44501 L101.26813,1.44501 Z M102.1775,0.5357 L0.76957,0.5357 L0.76957,81.45194 L102.1775,81.45194 L102.1775,0.5357 Z" id="el_zLRjCX5KeKL"/>
                            <rect id="el_CMWV7ADmtDF" x="16.43882" y="10.36102" width="60.57978" height="1"/>
                            <rect id="el_Uhe72qzOSrq" x="16.43882" y="27.94239" width="60.57978" height="1"/>
                            <rect id="el_ZeDFQDnDzVv" x="16.43882" y="34.68267" width="69.03661" height="1"/>
                            <rect id="el_h5rXTh92fFQ" x="16.43882" y="17.63623" width="40.67331" height="1"/>
                            <path d="M85.93022,70.07585 L60.16482,70.07585 L60.16482,44.31047 L85.93022,44.31047 L85.93022,70.07585 Z M61.07442,69.16626 L85.02063,69.16626 L85.02063,45.22004 L61.07442,45.22004 L61.07442,69.16626 Z" id="el_TwwHUHFoB2i"/>
                        </g>
                    </g>
                </g>
            </g>
        </g>
    </g>
<script>(function(){var a=document.querySelector('#el_8XnxJKNxP'),b=a.querySelectorAll('style'),c=function(d){b.forEach(function(f){var g=f.textContent;g&amp;&amp;(f.textContent=g.replace(/transform-box:[^;\r\n]*/gi,'transform-box: '+d))})};c('initial'),window.requestAnimationFrame(function(){return c('fill-box')})})();</script></svg>