<svg xmlns="http://www.w3.org/2000/svg" xmlns:xlink="http://www.w3.org/1999/xlink" viewBox="0 0 600 750"><defs><style>.cls-1{isolation:isolate;}.cls-2,.cls-24{fill:#f969a4;}.cls-22,.cls-3,.cls-4{fill:#a3cbcc;}.cls-4{opacity:0.46;}.cls-11,.cls-23,.cls-4{mix-blend-mode:multiply;}.cls-5{fill:#fff;}.cls-11,.cls-6{fill:#fcc74a;}.cls-18,.cls-19,.cls-7,.cls-8{opacity:0.4;}.cls-7{fill:url(#linear-gradient);}.cls-8{fill:url(#linear-gradient-2);}.cls-10,.cls-9{opacity:0.52;}.cls-9{fill:url(#linear-gradient-3);}.cls-10{fill:url(#linear-gradient-4);}.cls-11{opacity:0.34;}.cls-12{fill:#474747;}.cls-13{fill:url(#linear-gradient-5);}.cls-14{fill:url(#linear-gradient-6);}.cls-15{fill:url(#linear-gradient-7);}.cls-16{fill:url(#linear-gradient-8);}.cls-17{opacity:0.57;fill:url(#linear-gradient-9);}.cls-18{fill:url(#linear-gradient-10);}.cls-19{fill:url(#linear-gradient-11);}.cls-20{fill:#1d1d1b;}.cls-21{opacity:0.41;}.cls-22{opacity:0.68;}.cls-23{fill:url(#linear-gradient-12);}.cls-24{opacity:0.3;}</style><linearGradient id="linear-gradient" x1="342.04" y1="539.51" x2="344.58" y2="615.14" gradientUnits="userSpaceOnUse"><stop offset="0" stop-color="#f969a4"/><stop offset="1" stop-color="#f969a4" stop-opacity="0"/></linearGradient><linearGradient id="linear-gradient-2" x1="257.59" y1="542.21" x2="260.13" y2="617.84" xlink:href="#linear-gradient"/><linearGradient id="linear-gradient-3" x1="173.61" y1="333.91" x2="218.05" y2="370.78" xlink:href="#linear-gradient"/><linearGradient id="linear-gradient-4" x1="1662.69" y1="333.91" x2="1707.12" y2="370.78" gradientTransform="matrix(-1, 0, 0, 1, 2089.08, 0)" xlink:href="#linear-gradient"/><linearGradient id="linear-gradient-5" x1="177.23" y1="375.45" x2="200.93" y2="396.65" xlink:href="#linear-gradient"/><linearGradient id="linear-gradient-6" x1="197.28" y1="406.98" x2="163.47" y2="405.78" gradientUnits="userSpaceOnUse"><stop offset="0" stop-color="#fff"/><stop offset="1" stop-color="#fff" stop-opacity="0"/></linearGradient><linearGradient id="linear-gradient-7" x1="1553.47" y1="375.45" x2="1577.17" y2="396.65" gradientTransform="matrix(-1, 0, 0, 1, 1975.37, 0)" xlink:href="#linear-gradient"/><linearGradient id="linear-gradient-8" x1="1573.52" y1="406.98" x2="1539.71" y2="405.78" gradientTransform="matrix(1, 0, 0, -1, -1148.89, 813.66)" xlink:href="#linear-gradient-6"/><linearGradient id="linear-gradient-9" x1="298.49" y1="322.25" x2="301.6" y2="362.66" xlink:href="#linear-gradient"/><linearGradient id="linear-gradient-10" x1="300" y1="375.26" x2="300" y2="346.32" xlink:href="#linear-gradient"/><linearGradient id="linear-gradient-11" x1="300.28" y1="313.92" x2="299.21" y2="295.85" xlink:href="#linear-gradient"/><linearGradient id="linear-gradient-12" x1="305.99" y1="189.17" x2="220.19" y2="77.26" gradientUnits="userSpaceOnUse"><stop offset="0" stop-color="#a3cbcc"/><stop offset="1" stop-color="#a3cbcc" stop-opacity="0"/></linearGradient></defs><title>Personal Fitness</title><g class="cls-1"><g id="Layer_2" data-name="Layer 2"><g id="Layer_1-2" data-name="Layer 1"><rect class="cls-2" width="600" height="750"/><rect class="cls-3" x="153.24" y="309.51" width="69.98" height="4.97"/><rect class="cls-3" x="148.89" y="291.52" width="8.7" height="39.56"/><rect class="cls-4" x="148.89" y="311.31" width="8.7" height="19.78"/><rect class="cls-3" x="380.12" y="309.51" width="69.98" height="4.97"/><rect class="cls-3" x="445.75" y="291.52" width="8.7" height="39.56"/><rect class="cls-4" x="445.75" y="311.31" width="8.7" height="19.78"/><polygon class="cls-3" points="415.73 310.37 410.75 310.37 410.75 293.73 380.69 293.73 380.69 288.76 415.73 288.76 415.73 310.37"/><polygon class="cls-3" points="191.8 310.37 186.82 310.37 186.82 288.76 221.87 288.76 221.87 293.73 191.8 293.73 191.8 310.37"/><path class="cls-5" d="M255.17,655.54a.66.66,0,0,1-.5-.23l-9.18-10.48,7.28-28.63a.67.67,0,0,1,1.3.33l-7.12,28,8.72,9.95a.67.67,0,0,1-.07.94A.65.65,0,0,1,255.17,655.54Z"/><path class="cls-5" d="M225.78,645.89a.66.66,0,0,1-.66-.58.67.67,0,0,1,.58-.75l11.22-1.44,7.56-29.49a.67.67,0,0,1,.81-.48.68.68,0,0,1,.48.82L238,644.32l-12.11,1.57Z"/><path class="cls-5" d="M239.13,663.43a9.34,9.34,0,0,1-1.89-.2,9,9,0,0,1-7.06-8.77v-9.24a.31.31,0,0,1,.62,0v9.24a8.35,8.35,0,0,0,16,3.38l3.63-8.2a.31.31,0,0,1,.57.25l-3.63,8.2A9,9,0,0,1,239.13,663.43Z"/><path class="cls-3" d="M249.11,644.23H249l-13.65-1.4a.67.67,0,0,1,.13-1.33l13.65,1.4a.67.67,0,0,1-.06,1.33Z"/><path class="cls-3" d="M249.51,641.17a.52.52,0,0,1-.17,0l-13.55-3.6a.67.67,0,0,1-.48-.81.68.68,0,0,1,.82-.48l13.55,3.6a.68.68,0,0,1,.48.82A.66.66,0,0,1,249.51,641.17Z"/><circle class="cls-5" cx="243" cy="657.83" r="0.32"/><circle class="cls-5" cx="239.38" cy="657.39" r="0.32"/><circle class="cls-5" cx="235.77" cy="656.95" r="0.32"/><circle class="cls-5" cx="243.65" cy="652.48" r="0.32"/><circle class="cls-5" cx="240.04" cy="652.04" r="0.32"/><circle class="cls-5" cx="236.42" cy="651.6" r="0.32"/><circle class="cls-5" cx="241.38" cy="654.94" r="0.32"/><circle class="cls-5" cx="244.52" cy="655.33" r="0.32"/><circle class="cls-5" cx="237.76" cy="654.5" r="0.32"/><circle class="cls-5" cx="234.15" cy="654.06" r="0.32"/><path class="cls-3" d="M238.24,677.67a11.51,11.51,0,0,1-3.43-.52h0a18.55,18.55,0,0,1-10.66-9.35,21,21,0,0,1-1.47-15.71L237,609.9l25.57,8.72-7.38,41.8c-1.33,6.4-5.39,12.41-10.35,15.34A12.88,12.88,0,0,1,238.24,677.67Zm-2.88-2.31a10.39,10.39,0,0,0,8.52-1.2c4.46-2.64,8.27-8.3,9.47-14.09l7.1-40.2-22.29-7.6-13.7,40.39c-2.51,8.35,1.35,19.75,10.9,22.7Z"/><path class="cls-5" d="M349.68,654.49a.68.68,0,0,1-.44-.16.67.67,0,0,1-.06-.94l8.72-10-7.12-27.95a.67.67,0,1,1,1.29-.33l7.29,28.63-9.18,10.49A.65.65,0,0,1,349.68,654.49Z"/><path class="cls-5" d="M379.07,644.85H379l-12.11-1.56-7.79-30.36a.67.67,0,1,1,1.29-.33l7.56,29.48,11.22,1.45a.67.67,0,0,1-.08,1.33Z"/><path class="cls-5" d="M365.72,662.38A9,9,0,0,1,357.5,657l-3.63-8.2a.31.31,0,0,1,.16-.41.32.32,0,0,1,.41.16l3.63,8.2a8.35,8.35,0,0,0,16-3.38v-9.23a.31.31,0,1,1,.62,0v9.23a9,9,0,0,1-7.07,8.77A8.58,8.58,0,0,1,365.72,662.38Z"/><path class="cls-3" d="M355.74,643.19a.67.67,0,0,1-.07-1.33l13.66-1.4a.67.67,0,0,1,.73.59.66.66,0,0,1-.6.73l-13.65,1.4Z"/><path class="cls-3" d="M355.34,640.13a.67.67,0,0,1-.17-1.31l13.55-3.6a.67.67,0,1,1,.34,1.29l-13.55,3.6Z"/><circle class="cls-5" cx="361.85" cy="656.78" r="0.32"/><circle class="cls-5" cx="365.46" cy="656.34" r="0.32"/><circle class="cls-5" cx="369.08" cy="655.9" r="0.32"/><circle class="cls-5" cx="361.2" cy="651.43" r="0.32"/><circle class="cls-5" cx="364.81" cy="650.99" r="0.32"/><circle class="cls-5" cx="368.42" cy="650.55" r="0.32"/><circle class="cls-5" cx="363.47" cy="653.9" r="0.32"/><circle class="cls-5" cx="360.33" cy="654.28" r="0.32"/><circle class="cls-5" cx="367.08" cy="653.46" r="0.32"/><circle class="cls-5" cx="370.7" cy="653.02" r="0.32"/><path class="cls-3" d="M366.61,676.62a13,13,0,0,1-6.59-1.9c-5-2.93-9-9-10.34-15.32l-8-41.83,26.21-8.71L382.16,651a20.94,20.94,0,0,1-1.47,15.74A18.48,18.48,0,0,1,370,676.1h0A11.56,11.56,0,0,1,366.61,676.62Zm3.16-1.41Zm-26-56.38L351.51,659c1.19,5.77,5,11.44,9.46,14.07a10.4,10.4,0,0,0,8.52,1.21h0c7.67-2.37,14-12.29,10.89-22.74l-13.69-40.36Z"/><path class="cls-5" d="M370.6,605.49H232.29a10.78,10.78,0,0,1-10.77-10.77V249.07a10.78,10.78,0,0,1,10.77-10.77H370.6a10.78,10.78,0,0,1,10.77,10.77V594.72A10.78,10.78,0,0,1,370.6,605.49ZM232.29,239.68a9.41,9.41,0,0,0-9.4,9.39V594.72a9.41,9.41,0,0,0,9.4,9.39H370.6a9.41,9.41,0,0,0,9.4-9.39V249.07a9.41,9.41,0,0,0-9.4-9.39Z"/><polygon class="cls-6" points="242.86 341.3 357.47 341.3 344.23 474.87 254.24 474.87 242.86 341.3"/><path class="cls-5" d="M361.63,558.19l12.59,52.38a19.94,19.94,0,0,1-15.52,24.22h0a19.94,19.94,0,0,1-22.37-12.17l-23.7-59.38Z"/><path class="cls-7" d="M361.63,558.19l12.59,52.38a19.94,19.94,0,0,1-15.52,24.22h0a19.94,19.94,0,0,1-22.37-12.17l-23.7-59.38Z"/><path class="cls-5" d="M241.25,558.19l-12.59,52.38a19.94,19.94,0,0,0,15.52,24.22h0a20,20,0,0,0,22.37-12.17l23.7-59.38Z"/><path class="cls-8" d="M241.25,558.19l-12.59,52.38a19.94,19.94,0,0,0,15.52,24.22h0a20,20,0,0,0,22.37-12.17l23.7-59.38Z"/><polygon class="cls-3" points="342.25 480.87 252.26 480.87 230.54 576.03 292.95 576.03 302.95 557.41 315.01 576.03 372.77 576.03 342.25 480.87"/><polygon class="cls-5" points="228.57 348.71 182.36 398.38 209.78 398.37 246.28 371.84 228.57 348.71"/><circle class="cls-5" cx="244.26" cy="361.31" r="20"/><path class="cls-5" d="M205.11,368c-13.74,10.5-20.45,24.79-15,31.93l49.75-38C234.41,354.75,218.85,357.48,205.11,368Z"/><path class="cls-5" d="M231.51,390c9-6.69,11.51-18.63,5.55-26.68l-32.68,24.22C210.34,395.58,222.49,396.68,231.51,390Z"/><path class="cls-9" d="M244.26,341.3a20,20,0,0,0-15.61,7.51l-.08-.1-11.28,12.13A55.49,55.49,0,0,0,205.11,368c-9.66,7.38-15.85,16.65-16.77,24l-6,6.42h6.82a8.56,8.56,0,0,0,.93,1.53l2-1.53h17.66l5.82-4.24A21.38,21.38,0,0,0,231.51,390a22,22,0,0,0,7.36-9.42,20,20,0,1,0,5.39-39.27Z"/><polygon class="cls-5" points="371.43 348.71 417.64 398.38 390.22 398.37 353.72 371.84 371.43 348.71"/><circle class="cls-5" cx="355.74" cy="361.31" r="20"/><path class="cls-5" d="M394.89,368c13.74,10.5,20.45,24.79,15,31.93l-49.75-38C365.59,354.75,381.15,357.48,394.89,368Z"/><path class="cls-5" d="M368.49,390c-9-6.69-11.51-18.63-5.55-26.68l32.68,24.22C389.66,395.58,377.51,396.68,368.49,390Z"/><path class="cls-10" d="M355.74,341.3a20,20,0,0,1,15.61,7.51l.08-.1,11.28,12.13A55.49,55.49,0,0,1,394.89,368c9.66,7.38,15.85,16.65,16.77,24l6,6.42h-6.82a8.56,8.56,0,0,1-.93,1.53l-2-1.53H390.22l-5.82-4.24A21.38,21.38,0,0,1,368.49,390a22,22,0,0,1-7.36-9.42,20,20,0,1,1-5.39-39.27Z"/><path class="cls-6" d="M246.28,381.4s12.19-14.39-.33-40c17,0,27.62-.35,27.62-.35v44.59Z"/><path class="cls-11" d="M259.76,341.29v54.76a12,12,0,0,0,12,12h9.27a8.33,8.33,0,0,1,8.33,8.33v7.48a7.3,7.3,0,0,0,7.3,7.3h0a7.3,7.3,0,0,0,7.31-7.3V391.36a5.89,5.89,0,0,1,5.89-5.89h0a5.89,5.89,0,0,0,5.89-5.89V341.3Z"/><circle class="cls-11" cx="331.85" cy="377.43" r="3.88"/><circle class="cls-11" cx="313.84" cy="416.13" r="1.94"/><path class="cls-6" d="M354.38,381.4s-12.19-14.39.32-40c-17,0-27.61-.35-27.61-.35v44.59Z"/><rect class="cls-3" x="53.15" y="391.92" width="493.37" height="7.48"/><rect class="cls-12" x="487.37" y="320.63" width="11.85" height="150.05"/><rect class="cls-12" x="506.09" y="339.91" width="11.85" height="111.49"/><rect class="cls-12" x="524.8" y="355.71" width="11.85" height="79.9"/><rect class="cls-12" x="100.46" y="320.63" width="11.85" height="150.05"/><rect class="cls-12" x="81.74" y="339.91" width="11.85" height="111.49"/><rect class="cls-12" x="63.02" y="355.71" width="11.85" height="79.9"/><path class="cls-5" d="M540.85,406.76a.66.66,0,0,1-.66-.62L539.1,386a.66.66,0,0,1,.62-.7.65.65,0,0,1,.69.63l1.1,20.18a.66.66,0,0,1-.62.7Z"/><path class="cls-5" d="M58.1,407.2h0a.66.66,0,0,1-.62-.69l1-21.07a.67.67,0,0,1,.69-.63.66.66,0,0,1,.63.69l-1,21.07A.66.66,0,0,1,58.1,407.2Z"/><path class="cls-5" d="M190.63,404.73a3.3,3.3,0,0,1-3.29-3.29v-16a3.29,3.29,0,0,1,6.58,0v16A3.29,3.29,0,0,1,190.63,404.73Z"/><path class="cls-5" d="M182.73,404.73a3.3,3.3,0,0,1-3.29-3.29v-16a3.3,3.3,0,0,1,6.59,0v16A3.3,3.3,0,0,1,182.73,404.73Z"/><path class="cls-5" d="M175.05,404.73a3.3,3.3,0,0,1-3.29-3.29v-16a3.3,3.3,0,0,1,6.59,0v16A3.3,3.3,0,0,1,175.05,404.73Z"/><path class="cls-5" d="M167.15,404.73a3.3,3.3,0,0,1-3.29-3.29v-16a3.3,3.3,0,0,1,6.59,0v16A3.3,3.3,0,0,1,167.15,404.73Z"/><path class="cls-5" d="M202.3,405.35a4.06,4.06,0,0,1-4.06-4.06v-4a2.31,2.31,0,0,0-2.31-2.31H191.7a4.06,4.06,0,1,1,0-8.11h4.23a10.43,10.43,0,0,1,10.42,10.42v4A4.05,4.05,0,0,1,202.3,405.35Z"/><path class="cls-13" d="M202.3,405.35a4.06,4.06,0,0,1-4.06-4.06v-4a2.31,2.31,0,0,0-2.31-2.31H191.7a4.06,4.06,0,1,1,0-8.11h4.23a10.43,10.43,0,0,1,10.42,10.42v4A4.05,4.05,0,0,1,202.3,405.35Z"/><path class="cls-14" d="M165.31,399.47h41.14a0,0,0,0,1,0,0v0a14.71,14.71,0,0,1-14.71,14.71H180a14.71,14.71,0,0,1-14.71-14.71v0A0,0,0,0,1,165.31,399.47Z"/><path class="cls-5" d="M408.49,404.73a3.29,3.29,0,0,1-3.29-3.29v-16a3.29,3.29,0,1,1,6.58,0v16A3.29,3.29,0,0,1,408.49,404.73Z"/><path class="cls-5" d="M416.39,404.73a3.29,3.29,0,0,1-3.29-3.29v-16a3.29,3.29,0,1,1,6.58,0v16A3.29,3.29,0,0,1,416.39,404.73Z"/><path class="cls-5" d="M424.07,404.73a3.29,3.29,0,0,1-3.29-3.29v-16a3.29,3.29,0,0,1,6.58,0v16A3.29,3.29,0,0,1,424.07,404.73Z"/><path class="cls-5" d="M432,404.73a3.29,3.29,0,0,1-3.29-3.29v-16a3.29,3.29,0,1,1,6.58,0v16A3.29,3.29,0,0,1,432,404.73Z"/><path class="cls-5" d="M396.83,405.35a4.06,4.06,0,0,1-4.06-4.06v-4a10.44,10.44,0,0,1,10.42-10.42h4.24a4.06,4.06,0,0,1,0,8.11h-4.24a2.32,2.32,0,0,0-2.31,2.31v4A4.05,4.05,0,0,1,396.83,405.35Z"/><path class="cls-15" d="M396.83,405.35a4.05,4.05,0,0,0,4.05-4.06v-4a2.32,2.32,0,0,1,2.31-2.31h4.24a4.06,4.06,0,0,0,0-8.11h-4.24a10.44,10.44,0,0,0-10.42,10.42v4A4.06,4.06,0,0,0,396.83,405.35Z"/><path class="cls-16" d="M407.38,399.47H419.1a14.71,14.71,0,0,1,14.71,14.71v0a0,0,0,0,1,0,0H392.67a0,0,0,0,1,0,0v0a14.71,14.71,0,0,1,14.71-14.71Z" transform="translate(826.48 813.66) rotate(180)"/><path class="cls-5" d="M372.77,576.69a.66.66,0,0,1-.63-.46L345,491.53l-94.09-1.67-19.71,86.32a.66.66,0,0,1-1.28-.3l19.94-87.36,96.1,1.71,27.45,85.6a.66.66,0,0,1-.42.83Z"/><path class="cls-5" d="M368.44,576.69a.66.66,0,0,1-.62-.46L340.27,491a.66.66,0,0,1,.42-.83.65.65,0,0,1,.83.42l27.55,85.23a.66.66,0,0,1-.42.83Z"/><path class="cls-5" d="M235.14,576.69l-.15,0a.64.64,0,0,1-.49-.79l20.08-86.75a.66.66,0,1,1,1.28.29l-20.08,86.76A.66.66,0,0,1,235.14,576.69Z"/><path class="cls-5" d="M305.18,488.56a6.42,6.42,0,1,1,6.42-6.42A6.43,6.43,0,0,1,305.18,488.56Zm0-11.52a5.11,5.11,0,1,0,5.1,5.1A5.11,5.11,0,0,0,305.18,477Z"/><path class="cls-5" d="M294.31,488.39a5.58,5.58,0,1,1,5.57-5.58A5.58,5.58,0,0,1,294.31,488.39Zm0-9.84a4.26,4.26,0,1,0,4.26,4.26A4.26,4.26,0,0,0,294.31,478.55Z"/><path class="cls-5" d="M294.31,502.83a.66.66,0,0,1-.66-.66,36.27,36.27,0,0,1,5-18.58l.41-.62.57.48a16.78,16.78,0,0,1,5,12.42.66.66,0,1,1-1.31,0,16.15,16.15,0,0,0-4-10.85A36.24,36.24,0,0,0,295,502.17.67.67,0,0,1,294.31,502.83Z"/><path class="cls-5" d="M317.78,335.48l-1.16-18.74H283.81l-1.16,18.74a6.21,6.21,0,0,1-6.2,5.82h-7.72a31.27,31.27,0,0,0,62.54,0H324A6.2,6.2,0,0,1,317.78,335.48Z"/><path class="cls-17" d="M317.78,335.48l-1.16-18.74H283.81l-1.16,18.74a6.21,6.21,0,0,1-6.2,5.82h-7.72a31.27,31.27,0,0,0,62.54,0H324A6.2,6.2,0,0,1,317.78,335.48Z"/><path class="cls-5" d="M300,377.44a36.43,36.43,0,0,1-36.39-36.39h1.31a35.08,35.08,0,0,0,70.16,0h1.31A36.43,36.43,0,0,1,300,377.44Z"/><path class="cls-18" d="M270.74,352.34h16.14a13.6,13.6,0,0,1,9.07,3.47l3.47,3.1,1.7-1.93a13.59,13.59,0,0,1,10.23-4.64h17.91a31.08,31.08,0,0,0,2-11H268.73A31.08,31.08,0,0,0,270.74,352.34Z"/><path class="cls-12" d="M97.58,692.82a.71.71,0,0,1-.49-.2.69.69,0,0,1,0-1L169,619.72a24,24,0,0,0-33.94-33.93L97.83,623a18.13,18.13,0,0,1-25.64-25.65l68.22-68.23-10.94-10.94a16.45,16.45,0,0,1,23.26-23.27l.29.29a16.46,16.46,0,0,1,0,23.27l-10.66,10.65L151.2,538a.69.69,0,0,1-1,1l-8.83-8.83L73.16,598.35a16.76,16.76,0,1,0,23.7,23.7l37.24-37.24A25.38,25.38,0,0,1,170,620.7L98.07,692.62A.71.71,0,0,1,97.58,692.82ZM141.1,491.51a15.07,15.07,0,0,0-10.66,25.72l10.95,10.95,10.66-10.66a15.09,15.09,0,0,0,0-21.31l-.29-.29A15,15,0,0,0,141.1,491.51Z"/><path class="cls-5" d="M170.26,562.51a5.13,5.13,0,0,1-3.63-1.5l-19-19,7.26-7.26,19,19a5.13,5.13,0,0,1-3.63,8.76ZM167.61,560a3.75,3.75,0,0,0,5.31-5.31l-18-18-5.31,5.3Z"/><path class="cls-5" d="M79.08,715.76A5.13,5.13,0,0,1,75.45,707l19-19,7.26,7.26-19,19A5.13,5.13,0,0,1,79.08,715.76ZM94.44,690l-18,18a3.75,3.75,0,0,0,5.31,5.31l18-18Z"/><path class="cls-5" d="M325.13,312.08v-.72a2,2,0,0,0,0-4.05h-.37v-.9h.37a4.28,4.28,0,0,0,0-8.56v-.72a5,5,0,0,1,1.33,9.81,2.75,2.75,0,0,1-1.33,5.14Z"/><path class="cls-5" d="M275.45,312.08a2.75,2.75,0,0,1-1.33-5.14,5,5,0,0,1,1.33-9.81v.72a4.28,4.28,0,0,0,0,8.56h.36v.9h-.36a2,2,0,0,0,0,4.05Z"/><path class="cls-5" d="M278.42,323.87a9,9,0,0,1-2.43-6.15v-27a24.46,24.46,0,0,1,24.3-24.61h0a24.46,24.46,0,0,1,24.3,24.61v27a9,9,0,0,1-2.41,6.13l-11.1,11.86a12.18,12.18,0,0,1-8.89,3.87H298.5a12.16,12.16,0,0,1-8.85-3.83Z"/><path class="cls-12" d="M311,295.14a2.92,2.92,0,1,1-3,2.91,3,3,0,0,1,3-2.91m0-.92a3.84,3.84,0,1,0,3.92,3.83,3.88,3.88,0,0,0-3.92-3.83Z"/><path class="cls-12" d="M311,296.69a1.37,1.37,0,1,1-1.41,1.36,1.39,1.39,0,0,1,1.41-1.36m0-.19a1.56,1.56,0,1,0,1.59,1.55A1.57,1.57,0,0,0,311,296.5Z"/><path class="cls-12" d="M289.05,294.57a3.16,3.16,0,1,1-3.27,3.16,3.22,3.22,0,0,1,3.27-3.16m0-1a4.16,4.16,0,1,0,4.26,4.16,4.2,4.2,0,0,0-4.26-4.16Z"/><path class="cls-12" d="M289.05,296.24a1.49,1.49,0,1,1-1.53,1.49,1.51,1.51,0,0,1,1.53-1.49m0-.2a1.69,1.69,0,1,0,1.72,1.69,1.71,1.71,0,0,0-1.72-1.69Z"/><path class="cls-3" d="M300.29,266.16A24.46,24.46,0,0,0,276,290.77v16.88h2.43V291.29A4.13,4.13,0,0,1,282,287v-5.9l36.32-.36V287a4.14,4.14,0,0,1,3.59,4.26v16.36h2.68V290.77A24.46,24.46,0,0,0,300.29,266.16Z"/><path class="cls-19" d="M304.24,310.34h-1.19V295.6h-5.53v14.74h-1.36a2.23,2.23,0,0,0-2.23,2.23v.12a2.16,2.16,0,0,0,2.14,2.17h8.26a2.16,2.16,0,0,0,2.14-2.17v-.12A2.23,2.23,0,0,0,304.24,310.34Z"/><path class="cls-20" d="M303.7,313.87a.76.76,0,1,1-.74.75.75.75,0,0,1,.74-.75m0-.11a.85.85,0,0,0-.85.86.86.86,0,1,0,.85-.86Z"/><path class="cls-20" d="M296.7,313.87a.76.76,0,1,1-.74.75.75.75,0,0,1,.74-.75m0-.11a.87.87,0,1,0,.85.86.86.86,0,0,0-.85-.86Z"/><g class="cls-21"><g class="cls-21"><path class="cls-3" d="M315.64,313.66l0,17.15,6.51-6.95h0a9,9,0,0,0,2.29-6l0-7.45-5.52,0A3.3,3.3,0,0,0,315.64,313.66Z"/></g><g class="cls-21"><path class="cls-3" d="M281.44,310.37h-5.5l0,7.37a9,9,0,0,0,2.44,6.12l6.35,6.73-.05-16.9A3.29,3.29,0,0,0,281.44,310.37Z"/></g></g><polygon class="cls-3" points="295.66 295.62 280.96 295.72 280.95 293.2 295.64 291.6 295.66 295.62"/><polygon class="cls-3" points="319.34 296.07 304.66 295.26 304.88 291.24 319.48 293.55 319.34 296.07"/><path class="cls-3" d="M306.51,325.49H293.72a3.44,3.44,0,1,1,0-6.87h12.79a3.44,3.44,0,0,1,0,6.87Zm-12.79-5.88a2.45,2.45,0,1,0,0,4.9h12.79a2.45,2.45,0,1,0,0-4.9Z"/><rect class="cls-3" x="290.77" y="322.88" width="18.68" height="0.65"/><path class="cls-3" d="M326.29,288.66c-2.5-27.44-26.18-26.34-26.18-26.34s-8.61-2-19.16,6.71c-8.34,6.85-7.47,18.92-7.12,23.55a8.38,8.38,0,0,0,1,3.92l2.12,2.91-.95-8.64L279.23,278l8.09-4.57H315s3.4,3.91,5.68,7l3.23,20.29,1.65-3.05C326.87,295.23,326.54,291.47,326.29,288.66Z"/><path class="cls-3" d="M317.18,280.77c6,0,12.1-10,12.1-10H312Z"/><path class="cls-3" d="M309.06,277.88c8.57,0,17.23-14.24,17.23-14.24H301.7Z"/><path class="cls-3" d="M300,273.58c7.14-1.82,11.3-15.5,11.3-15.5l-17.79,4.73Z"/><rect class="cls-5" x="304.88" y="301.75" width="12.76" height="4.47"/><rect class="cls-5" x="283.08" y="301.75" width="12.76" height="4.47"/><polygon class="cls-3" points="280.95 269.03 295.84 258.08 295.5 266.64 280.95 269.03"/><path class="cls-3" d="M319.42,302.57h0l-1-2.78-1,2.78h0a1.35,1.35,0,0,0-.06.35,1.07,1.07,0,0,0,2.13,0A1,1,0,0,0,319.42,302.57Z"/><path class="cls-22" d="M322.7,312.41h0l-1-2.79-1,2.79h0a1,1,0,0,0-.06.35,1.07,1.07,0,1,0,2.13,0A1,1,0,0,0,322.7,312.41Z"/><path class="cls-22" d="M283.2,305.7h0l-.68-1.9-.68,1.9h0a.61.61,0,0,0,0,.24.72.72,0,1,0,1.44,0A.61.61,0,0,0,283.2,305.7Z"/><path class="cls-3" d="M288.27,285.22h0l-.75-2.1-.75,2.1h0a.76.76,0,0,0-.05.27.8.8,0,0,0,1.6,0A.77.77,0,0,0,288.27,285.22Z"/><circle class="cls-3" cx="244.84" cy="109.4" r="70.83"/><path class="cls-5" d="M244.84,167a57.64,57.64,0,1,1,57.63-57.64A57.7,57.7,0,0,1,244.84,167Zm0-114.65a57,57,0,1,0,57,57A57.08,57.08,0,0,0,244.84,52.39Z"/><path class="cls-5" d="M244.84,150a40.6,40.6,0,1,1,40.59-40.6A40.64,40.64,0,0,1,244.84,150Zm0-80.76A40.16,40.16,0,1,0,285,109.4,40.2,40.2,0,0,0,244.84,69.24Z"/><path class="cls-5" d="M244.84,140.9a31.5,31.5,0,1,1,31.49-31.5A31.53,31.53,0,0,1,244.84,140.9Zm0-62.65A31.16,31.16,0,1,0,276,109.4,31.19,31.19,0,0,0,244.84,78.25Z"/><path class="cls-5" d="M244.84,131.13a21.73,21.73,0,1,1,21.73-21.73A21.75,21.75,0,0,1,244.84,131.13Zm0-43.23a21.5,21.5,0,1,0,21.49,21.5A21.52,21.52,0,0,0,244.84,87.9Z"/><path class="cls-5" d="M244.84,121.53A12.13,12.13,0,1,1,257,109.4,12.14,12.14,0,0,1,244.84,121.53Zm0-24.12a12,12,0,1,0,12,12A12,12,0,0,0,244.84,97.41Z"/><path class="cls-5" d="M244.84,180.3a.07.07,0,0,1-.07-.07V131a.07.07,0,0,1,.07-.07.07.07,0,0,1,.06.07v49.21A.07.07,0,0,1,244.84,180.3Z"/><path class="cls-5" d="M315.66,109.47H266.45a.07.07,0,0,1-.07-.07.07.07,0,0,1,.07-.06h49.21a.07.07,0,0,1,.07.06A.07.07,0,0,1,315.66,109.47Z"/><path class="cls-5" d="M223.22,109.47H174a.07.07,0,0,1-.07-.07.07.07,0,0,1,.07-.06h49.19a.07.07,0,0,1,.07.06A.07.07,0,0,1,223.22,109.47Z"/><path class="cls-5" d="M244.84,97.41a.07.07,0,0,1-.07-.07V38.58a.07.07,0,0,1,.07-.06.06.06,0,0,1,.06.06V97.34A.07.07,0,0,1,244.84,97.41Z"/><circle class="cls-23" cx="244.84" cy="109.4" r="70.83"/><rect class="cls-5" x="458.08" y="579.46" width="51.47" height="7.74" transform="translate(554.18 -171.26) rotate(45)"/><rect class="cls-5" x="497.4" y="580.63" width="9.22" height="41.78" transform="translate(572.38 -178.79) rotate(45)"/><rect class="cls-24" x="497.4" y="590.27" width="9.22" height="22.51" transform="translate(572.38 -178.79) rotate(45)"/><rect class="cls-5" x="461" y="544.24" width="9.22" height="41.78" transform="translate(535.98 -163.72) rotate(45)"/><rect class="cls-24" x="461" y="553.87" width="9.22" height="22.51" transform="translate(535.98 -163.72) rotate(45)"/><rect class="cls-5" x="463.57" y="658.34" width="43.65" height="6.56" transform="translate(970.78 1323.25) rotate(180)"/><rect class="cls-5" x="459.66" y="643.91" width="7.82" height="35.43" transform="translate(927.13 1323.25) rotate(180)"/><rect class="cls-24" x="459.66" y="652.08" width="7.82" height="19.09" transform="translate(927.13 1323.25) rotate(180)"/><rect class="cls-5" x="503.31" y="643.91" width="7.82" height="35.43" transform="translate(1014.43 1323.25) rotate(180)"/><rect class="cls-24" x="503.31" y="652.08" width="7.82" height="19.09" transform="translate(1014.43 1323.25) rotate(180)"/><rect class="cls-6" x="363.14" y="151.55" width="158.17" height="68.32" rx="17.12" ry="17.12" transform="translate(623.6 629.73) rotate(-135)"/><path class="cls-3" d="M485.24,235.51a.31.31,0,0,1-.24-.1l-92.48-92.47a.35.35,0,0,1,.49-.49l92.47,92.48a.34.34,0,0,1,0,.48A.33.33,0,0,1,485.24,235.51Z"/><path class="cls-5" d="M444.75,240.07l-4.35-4.34,13.36-13.36-14.51-14.51a12.2,12.2,0,0,1,0-17.23,6,6,0,0,0,0-8.53l-17.51-17.51L395.5,190.82l-4.35-4.34,7.57-7.57-6.16-6.16a16.27,16.27,0,0,1,23-23l6.17,6.16,23.74-23.74a37.9,37.9,0,0,1,53.6,53.59Zm-18.67-79.83,17.52,17.52a12.19,12.19,0,0,1,0,17.22,6,6,0,0,0,0,8.53L458.11,218l36.62-36.62a31.75,31.75,0,1,0-44.9-44.91Zm-22-9.13a10.13,10.13,0,0,0-7.16,17.29l6.16,6.17,14.33-14.33-6.16-6.16A10.1,10.1,0,0,0,404.06,151.11Z"/><path class="cls-3" d="M483.94,233.86a1.2,1.2,0,0,1-1.19-1.19,1.19,1.19,0,0,1,.35-.85l2.9-2.89a1.19,1.19,0,0,1,1.69,0h0a1.21,1.21,0,0,1,0,1.69l-2.9,2.89A1.19,1.19,0,0,1,483.94,233.86Zm2.9-4.6a.51.51,0,0,0-.36.15l-2.9,2.9a.48.48,0,0,0-.15.36.51.51,0,0,0,.15.36.54.54,0,0,0,.73,0l2.89-2.9a.51.51,0,0,0-.36-.87Z"/></g></g></g></svg>