<svg xmlns="http://www.w3.org/2000/svg" viewBox="0 0 600 750"><defs><style>.cls-1{isolation:isolate;}.cls-2{fill:#fcc74a;}.cls-10,.cls-3,.cls-6,.cls-9{fill:#474747;}.cls-4{fill:#a3cbcc;}.cls-5{fill:#f0468a;}.cls-16,.cls-6{opacity:0.3;}.cls-10,.cls-6{mix-blend-mode:multiply;}.cls-7{fill:#fbbc23;}.cls-11,.cls-12,.cls-14,.cls-15,.cls-19,.cls-8{fill:#fff;}.cls-9{opacity:0.14;}.cls-10{opacity:0.45;}.cls-11{opacity:0.04;}.cls-12{opacity:0.1;}.cls-13{opacity:0.06;}.cls-14{opacity:0.5;}.cls-15{opacity:0.25;}.cls-17{fill:#525252;}.cls-18{fill:none;}.cls-19{opacity:0.22;}</style></defs><title>Photography</title><g class="cls-1"><g id="Layer_2" data-name="Layer 2"><g id="Layer_1-2" data-name="Layer 1"><rect class="cls-2" width="600" height="750"/><path class="cls-3" d="M352.48,222.41,345.92,199a9.57,9.57,0,0,1,6.62-11.78l37.77-10.6a9.54,9.54,0,0,1,11.77,6.62l6.57,23.38Zm40.42-44.73a8,8,0,0,0-2.22.31l-37.77,10.6a8.16,8.16,0,0,0-5.65,10.06l6.18,22,53.49-15-6.18-22.05a8.17,8.17,0,0,0-7.85-6Z"/><rect class="cls-3" x="126.35" y="242.3" width="69.16" height="28.87" transform="translate(-63.39 53.03) rotate(-15.68)"/><polygon class="cls-3" points="67.2 292.93 61.94 274.21 105.4 262.02 110.65 280.74 109.32 281.11 104.44 263.73 63.66 275.17 68.53 292.56 67.2 292.93"/><rect class="cls-4" x="60.83" y="234.43" width="390.95" height="214.41" rx="8.92" ry="8.92" transform="translate(-82.78 81.96) rotate(-15.68)"/><rect class="cls-3" x="64.47" y="284.81" width="390.95" height="139.58" transform="translate(-86.14 83.43) rotate(-15.68)"/><path class="cls-5" d="M391,323.19l-8.12-28.95,17.38,1.37a10.53,10.53,0,0,1,4.46,19.61Zm-6.72-27.8,7.36,26.22,12.56-7.29a9.49,9.49,0,0,0-4-17.67Z"/><rect class="cls-6" x="119.09" y="318.44" width="42.01" height="139.58" transform="translate(-99.69 52.3) rotate(-15.68)"/><path class="cls-7" d="M165.58,401.79a.53.53,0,0,1-.51-.38l-23.8-84.84a.52.52,0,0,1,1-.28l23.81,84.84a.53.53,0,0,1-.36.64Z"/><rect class="cls-8" x="83.32" y="420.05" width="390.95" height="3.47" transform="translate(-103.6 91.03) rotate(-15.68)"/><rect class="cls-8" x="45.61" y="285.32" width="390.95" height="4.17" transform="translate(-68.69 75.83) rotate(-15.68)"/><path class="cls-4" d="M306.05,176.44l-95.16,26.25a14,14,0,0,0-10.29,13.74l2.1,125.05,91.1-25.57,91.11-25.57L321.86,182.86A14,14,0,0,0,306.05,176.44Z"/><path class="cls-8" d="M193.38,352.73,186,326.33l26.4-7.41,7.41,26.4Zm-5.7-25.44L194.34,351l23.73-6.66-6.66-23.73Z"/><polygon class="cls-3" points="202.51 330.55 205.37 340.73 293.8 315.91 384.91 290.34 348.43 228.15 201.49 269.39 202.51 330.55"/><rect class="cls-4" x="115.18" y="256.85" width="25" height="18.75" transform="translate(-67.19 44.4) rotate(-15.68)"/><path class="cls-9" d="M241.32,432.31a114.67,114.67,0,0,0,38.92,14l93-26.09a114.76,114.76,0,0,0,26-32.18Z"/><circle class="cls-8" cx="298.7" cy="333.35" r="97.45"/><circle class="cls-3" cx="298.7" cy="333.35" r="87.84"/><circle class="cls-10" cx="298.7" cy="333.35" r="59.11"/><path class="cls-7" d="M298.6,394.73a61.37,61.37,0,1,1,59.17-78h0a61.44,61.44,0,0,1-59.17,78Zm.08-118.25A56.87,56.87,0,1,0,353.45,318h0A57,57,0,0,0,298.68,276.48Z"/><path class="cls-8" d="M298.59,402.64A69.36,69.36,0,0,1,232,352.06l.66-.19a68.56,68.56,0,0,0,132-37.05l.67-.18a69.25,69.25,0,0,1-48,85.39A69.75,69.75,0,0,1,298.59,402.64Z"/><circle class="cls-11" cx="298.7" cy="333.35" r="32.66"/><path class="cls-12" d="M298.71,373.12a39.85,39.85,0,1,1,10.73-1.49A39.83,39.83,0,0,1,298.71,373.12Zm.05-78.81a39.08,39.08,0,0,0-37.63,49.58,39,39,0,1,0,37.63-49.58Z"/><path class="cls-5" d="M319.82,409.16a.53.53,0,0,1-.5-.38.54.54,0,0,1,.36-.65,77.67,77.67,0,0,0-42-149.57.51.51,0,0,1-.64-.36.52.52,0,0,1,.36-.64A78.72,78.72,0,0,1,320,409.14Z"/><g class="cls-13"><path class="cls-8" d="M304.6,274.53,251.54,369a59.11,59.11,0,0,0,8.32,8.91L316.54,277A60,60,0,0,0,304.6,274.53Z"/><path class="cls-8" d="M347.7,300.29a59,59,0,0,0-17.22-16.77l-57.8,102.9a59.19,59.19,0,0,0,23.28,6Z"/></g><path class="cls-8" d="M124.47,301.75l-4.37-15.56,51.48-14.45L176,287.3Zm-2.66-14.6L125.43,300l48.81-13.7-3.62-12.89Z"/><path class="cls-7" d="M69.68,360.1a7.94,7.94,0,1,1,3.9-14.87,7.94,7.94,0,0,1-1.74,14.57A8,8,0,0,1,69.68,360.1Zm0-14.5a6.75,6.75,0,0,0-1.78.24,6.56,6.56,0,1,0,5,.6A6.48,6.48,0,0,0,69.7,345.6Z"/><path class="cls-7" d="M421.09,261.48a7.93,7.93,0,1,1,2.14-.29A7.88,7.88,0,0,1,421.09,261.48Zm0-14.5a6.43,6.43,0,0,0-1.78.25,6.52,6.52,0,1,0,1.78-.25Z"/><circle class="cls-4" cx="399.38" cy="305.24" r="4.31"/><polygon class="cls-6" points="201.25 255.31 341.31 216 336.49 207.79 201.09 245.79 201.25 255.31"/><polygon class="cls-3" points="388.3 193.25 382.38 172.19 353.99 180.16 353.61 178.82 383.35 170.47 389.63 192.87 388.3 193.25"/><path class="cls-5" d="M208.9,404.6a.52.52,0,0,1-.5-.38l-5.82-20.73a.52.52,0,0,1,1-.28l5.81,20.72a.52.52,0,0,1-.36.65Z"/><path class="cls-9" d="M317.69,178.4a14,14,0,0,0-11.64-2l-95.16,26.25a14,14,0,0,0-10.15,11.63Z"/><rect class="cls-8" x="90.83" y="467.91" width="104.51" height="0.69" transform="translate(-121.12 56.03) rotate(-15.66)"/><rect class="cls-8" x="137.14" y="248.84" width="65.08" height="0.69" transform="translate(-60.98 55.07) rotate(-15.66)"/><polygon class="cls-14" points="226.08 220.38 229.46 232.41 305.31 211.13 301.93 199.09 293.83 201.37 282.15 213.38 279.88 205.28 265.34 209.36 267.55 217.23 255.32 220.66 253.11 212.79 245.11 215.04 240 224.14 226.08 220.38"/><circle class="cls-4" cx="211.86" cy="414.61" r="10.94"/><path class="cls-15" d="M282.55,372.42a11.37,11.37,0,0,1-3.08-22.31,11.37,11.37,0,0,1,14,7.87,11.38,11.38,0,0,1-7.88,14A11.19,11.19,0,0,1,282.55,372.42Zm0-22.05a10.68,10.68,0,1,0,5.21,1.37A10.68,10.68,0,0,0,282.56,350.37Z"/><g class="cls-16"><polygon class="cls-8" points="85.82 457.59 85.91 457.92 119.94 397.35 119.85 397.02 85.82 457.59"/><polygon class="cls-7" points="85.81 458.82 85.45 457.55 119.95 396.12 120.31 397.39 85.81 458.82"/><polygon class="cls-8" points="88.87 468.47 88.97 468.8 122.99 408.23 122.9 407.9 88.87 468.47"/><polygon class="cls-7" points="88.86 469.7 88.5 468.43 123.01 407 123.37 408.27 88.86 469.7"/><polygon class="cls-8" points="95.34 473.28 95.67 473.18 126.05 419.11 125.95 418.78 95.34 473.28"/><polygon class="cls-7" points="94.63 473.84 126.06 417.88 126.42 419.15 95.9 473.48 94.63 473.84"/><polygon class="cls-8" points="82.77 446.71 82.86 447.04 116.89 386.47 116.79 386.14 82.77 446.71"/><polygon class="cls-7" points="82.75 447.94 82.39 446.67 116.9 385.23 117.26 386.51 82.75 447.94"/><polygon class="cls-8" points="117.1 467.17 117.43 467.08 132.15 440.87 132.06 440.54 117.1 467.17"/><polygon class="cls-7" points="116.39 467.73 132.17 439.64 132.53 440.91 117.66 467.37 116.39 467.73"/><polygon class="cls-8" points="128.31 464.02 135.21 451.75 135.11 451.42 127.98 464.12 128.31 464.02"/><polygon class="cls-7" points="127.27 464.68 135.22 450.52 135.58 451.79 128.54 464.32 127.27 464.68"/><polygon class="cls-8" points="79.71 435.83 79.81 436.16 113.83 375.59 113.74 375.25 79.71 435.83"/><polygon class="cls-7" points="79.7 437.06 79.34 435.79 79.41 435.66 113.85 374.36 114.21 375.63 79.7 437.06"/><polygon class="cls-8" points="106.22 470.22 106.55 470.13 129.1 429.99 129.01 429.66 106.22 470.22"/><polygon class="cls-7" points="105.51 470.78 129.12 428.76 129.47 430.03 106.78 470.43 105.51 470.78"/><polygon class="cls-8" points="70.55 403.19 70.65 403.52 104.67 342.95 104.58 342.62 70.55 403.19"/><polygon class="cls-7" points="70.54 404.42 70.18 403.15 104.69 341.71 105.05 342.99 70.54 404.42"/><polygon class="cls-8" points="61.39 370.55 61.48 370.88 83.54 331.62 83.21 331.71 61.39 370.55"/><polygon class="cls-7" points="61.38 371.78 61.02 370.51 82.98 331.42 84.25 331.06 61.38 371.78"/><polygon class="cls-8" points="58.34 359.67 58.43 360 72.66 334.67 72.33 334.77 58.34 359.67"/><polygon class="cls-7" points="58.32 360.9 57.97 359.63 72.1 334.47 73.37 334.11 58.32 360.9"/><polygon class="cls-8" points="64.45 381.43 64.54 381.76 94.42 328.57 94.09 328.66 64.45 381.43"/><polygon class="cls-7" points="64.43 382.66 64.07 381.39 64.14 381.26 93.86 328.36 95.13 328.01 64.43 382.66"/><polygon class="cls-8" points="67.5 392.31 67.59 392.64 101.62 332.07 101.53 331.74 67.5 392.31"/><polygon class="cls-7" points="67.48 393.54 67.13 392.27 67.2 392.14 101.63 330.83 101.99 332.11 67.48 393.54"/><polygon class="cls-8" points="73.61 414.07 73.7 414.4 107.73 353.83 107.63 353.5 73.61 414.07"/><polygon class="cls-7" points="73.59 415.3 73.23 414.03 107.74 352.59 108.1 353.87 73.59 415.3"/><polygon class="cls-8" points="76.66 424.95 76.75 425.28 110.78 364.71 110.69 364.38 76.66 424.95"/><polygon class="cls-7" points="76.64 426.18 76.29 424.91 110.79 363.47 111.15 364.75 111.08 364.88 76.64 426.18"/><polygon class="cls-8" points="55.29 348.79 55.38 349.12 61.78 337.73 61.45 337.82 55.29 348.79"/><polygon class="cls-7" points="55.27 350.02 54.91 348.75 61.22 337.52 62.49 337.17 55.27 350.02"/></g><polygon class="cls-3" points="449.82 566.62 547.19 750 562.09 750 461.44 560.45 449.82 566.62"/><polygon class="cls-3" points="464.11 536.43 438.57 488.34 420.73 497.81 402.89 507.29 428.43 555.37 449.82 566.62 455.63 563.53 461.44 560.45 464.11 536.43"/><rect class="cls-8" x="443.46" y="510.71" width="7.01" height="0.52" transform="translate(-187.43 269.29) rotate(-27.97)"/><rect class="cls-8" x="441.24" y="506.46" width="7.01" height="0.52" transform="translate(-185.7 267.75) rotate(-27.97)"/><rect class="cls-8" x="445.44" y="514.71" width="7.01" height="0.52" transform="translate(-189.08 270.69) rotate(-27.97)"/><rect class="cls-8" x="447.41" y="518.93" width="7.01" height="0.52" transform="translate(-190.83 272.11) rotate(-27.97)"/><rect class="cls-8" x="413.83" y="526.35" width="7.01" height="0.52" transform="translate(-198.23 257.22) rotate(-27.97)"/><rect class="cls-8" x="411.6" y="522.1" width="7.01" height="0.52" transform="translate(-196.5 255.69) rotate(-27.97)"/><rect class="cls-8" x="415.8" y="530.35" width="7.01" height="0.52" transform="translate(-199.87 258.6) rotate(-27.97)"/><rect class="cls-8" x="417.78" y="534.57" width="7.01" height="0.52" transform="translate(-201.62 260.04) rotate(-27.97)"/><polygon class="cls-8" points="394.28 480.36 421.09 466.12 434.13 490.7 433.17 491.21 420.63 467.61 395.76 480.81 408.3 504.41 407.33 504.93 394.28 480.36"/><rect class="cls-8" x="419.11" y="481.2" width="4.71" height="6.27" transform="translate(651.58 -115.04) rotate(62.03)"/><rect class="cls-8" x="406.55" y="487.87" width="4.71" height="6.27" transform="translate(650.8 -100.42) rotate(62.03)"/><polygon class="cls-8" points="493.94 631.68 494.66 631.3 557.69 750 556.76 750 493.94 631.68"/><circle class="cls-3" cx="92.49" cy="685.67" r="43.3"/><path class="cls-6" d="M92.49,652.86a32.81,32.81,0,1,0,32.81,32.81A32.81,32.81,0,0,0,92.49,652.86Zm0,53.45a20.64,20.64,0,1,1,20.64-20.64A20.64,20.64,0,0,1,92.49,706.31Z"/><rect class="cls-17" x="165.16" y="522.55" width="65.62" height="115.86" transform="translate(205.91 -32.78) rotate(19.57)"/><path class="cls-17" d="M290.13,558.83l-48.95-17.4-1.86,5.23,4.81,1.71-2.87,8.07-4.81-1.71-24.76,69.64,1.54.55L210.36,633l-1.54-.55L207.21,637l19.63,7,11.1-31.22a21.49,21.49,0,0,1,27.46-13.05l9.06,3.22a2.67,2.67,0,0,0,3.42-1.63l13.87-39A2.68,2.68,0,0,0,290.13,558.83Zm-66.11,79L216,635l2.87-8.07,8.07,2.87Zm30.91-76.55-8.07-2.87,2.86-8.07,8.07,2.87Zm13.66,4.86-8.07-2.87,2.87-8.07,8.07,2.87ZM282.25,571l-8.07-2.87,2.87-8.07,8.07,2.87Z"/><rect class="cls-17" x="199.16" y="517.35" width="34.62" height="22.22" transform="translate(189.55 -41.98) rotate(19.57)"/><rect class="cls-4" x="165.36" y="529.24" width="65.62" height="101.39" transform="translate(205.74 -32.88) rotate(19.57)"/><path class="cls-5" d="M179.77,621.55l-24-8.53,30-84.41,24,8.53Zm-22.22-9.37,21.38,7.6L208,538l-21.38-7.6Z"/><rect class="cls-7" x="178.86" y="568.42" width="59.26" height="1.39" transform="translate(-397.58 574.91) rotate(-70.43)"/><path class="cls-8" d="M523.05,501.72a5,5,0,0,1-4.83-3.62l-13-44.2a1.57,1.57,0,0,1,.13-1.2l8.46-15.51a1.57,1.57,0,0,1,.94-.75l33.93-10a1.58,1.58,0,0,1,2,1.07l16.52,56.18a5.06,5.06,0,0,1-3.42,6.27l-39.27,11.54A5,5,0,0,1,523.05,501.72Zm-14.61-48.08,12.81,43.57a1.88,1.88,0,0,0,2.34,1.28L562.86,487a1.9,1.9,0,0,0,1.28-2.35l-16.07-54.67-31.8,9.35Z"/><path class="cls-5" d="M545.37,445.57l-3.21-10.93,4.36-1.29,3.21,10.94Zm-2.77-10.69,3,10.25,3.68-1.08-3-10.25Z"/><path class="cls-5" d="M539.13,447.41l-3.22-10.94,4.36-1.28,3.22,10.94Zm-2.77-10.7,3,10.26,3.68-1.08-3-10.26Z"/><path class="cls-5" d="M532.88,449.25l-3.21-10.94L534,437,537.24,448Zm-2.77-10.7,3,10.25,3.67-1.08-3-10.25Z"/><path class="cls-5" d="M526.64,451.08l-3.22-10.94,4.37-1.28L531,449.8Zm-2.77-10.7,3,10.26,3.68-1.08-3-10.26Z"/><path class="cls-5" d="M520.4,452.92,517.18,442l4.36-1.28,3.22,10.94Zm-2.78-10.7,3,10.25,3.67-1.08-3-10.25Z"/><path class="cls-5" d="M515.14,460.22l-3.21-10.94,4.36-1.28,3.21,10.94Zm-2.77-10.7,3,10.26,3.68-1.09-3-10.25Z"/><path class="cls-8" d="M430,725.66a2.91,2.91,0,0,1-1.46-.4l-22.83-13.73a.93.93,0,0,1-.44-.62l-2.17-10.41a1,1,0,0,1,.11-.68l11.39-18.93a1,1,0,0,1,1.3-.33l29,17.45a2.86,2.86,0,0,1,1.33,1.89,3.21,3.21,0,0,1-.4,2.3l-13.17,21.91a3.21,3.21,0,0,1-1.85,1.43A2.92,2.92,0,0,1,430,725.66Zm-23-15.54,22.48,13.51a1,1,0,0,0,.79.09,1.3,1.3,0,0,0,.74-.59l13.17-21.91a1.24,1.24,0,0,0,.17-.93,1,1,0,0,0-.45-.65l-28.21-17L405,700.48Z"/><path class="cls-5" d="M420.45,690.68l-5.66-3.4,1.46-2.43,5.66,3.4Zm-5.37-3.48,5.29,3.18,1.24-2-5.29-3.18Z"/><path class="cls-5" d="M418.35,694.16l-5.65-3.4,1.45-2.42,5.66,3.4ZM413,690.69l5.29,3.18,1.24-2.06-5.29-3.18Z"/><path class="cls-5" d="M416.26,697.65l-5.66-3.4,1.46-2.43,5.66,3.4Zm-5.36-3.48,5.29,3.18,1.23-2.06-5.29-3.18Z"/><path class="cls-5" d="M414.16,701.13l-5.65-3.4L410,695.3l5.66,3.4Zm-5.36-3.47,5.29,3.18,1.24-2.06L410,695.6Z"/><path class="cls-5" d="M412.07,704.62l-5.66-3.41,1.46-2.42,5.66,3.4Zm-5.36-3.48,5.29,3.18,1.23-2.06-5.29-3.18Z"/><path class="cls-5" d="M412.52,710.06l-5.66-3.4,1.46-2.43,5.66,3.41Zm-5.36-3.47,5.29,3.18,1.24-2.06-5.29-3.18Z"/><path class="cls-8" d="M341.12,674a4.38,4.38,0,0,1-2.17-.57l-31.4-17.66a4.43,4.43,0,0,1-1.69-6l25.27-44.92a1.38,1.38,0,0,1,1.89-.53l27.14,15.26a1.39,1.39,0,0,1,.66.84l4.19,15a1.41,1.41,0,0,1-.13,1.06L345,671.71A4.44,4.44,0,0,1,341.12,674Zm-8.25-66.63-24.59,43.71a1.67,1.67,0,0,0,.64,2.27L340.31,671a1.67,1.67,0,0,0,2.27-.63l19.6-34.85-3.88-13.86Z"/><path class="cls-5" d="M338.69,665.23a3.67,3.67,0,0,1-1.82-.48L316.05,653a3.72,3.72,0,0,1-1.42-5.07L330,620.66a3.71,3.71,0,0,1,5.06-1.42L355.88,631A3.71,3.71,0,0,1,357.3,636l-15.37,27.32a3.66,3.66,0,0,1-2.24,1.76A3.83,3.83,0,0,1,338.69,665.23Zm-1.67-.75a3.41,3.41,0,0,0,4.64-1.3L357,635.86a3.42,3.42,0,0,0-1.3-4.64l-20.82-11.71a3.41,3.41,0,0,0-4.64,1.3l-15.36,27.32a3.39,3.39,0,0,0-.32,2.59,3.44,3.44,0,0,0,1.61,2Z"/><rect class="cls-5" x="334.85" y="621.29" width="0.31" height="17.71" transform="translate(-378.45 613.18) rotate(-60.64)"/><path class="cls-4" d="M338.72,661.13,330,656.21l4.92-8.74,8.74,4.92Zm-8.32-5,8.2,4.61,4.61-8.19L335,647.9Z"/><path class="cls-18" d="M262.76,67.15A58.58,58.58,0,0,0,321.27,8.64,58.67,58.67,0,0,0,320.62,0H204.9a58.52,58.52,0,0,0,57.86,67.15Z"/><path class="cls-3" d="M321.27,8.64A58.51,58.51,0,1,1,204.9,0H184.11A79.14,79.14,0,1,0,341.42,0h-20.8A58.67,58.67,0,0,1,321.27,8.64Z"/><path class="cls-3" d="M412.62,69A71.63,71.63,0,1,0,503.47,0H465A71.74,71.74,0,0,0,412.62,69Zm132,0A60.34,60.34,0,1,1,484.25,8.64,60.4,60.4,0,0,1,544.58,69Z"/><path class="cls-3" d="M560.73,69A76.49,76.49,0,1,1,451.23,0H417.85A95.8,95.8,0,1,0,550.64,0H517.27A76.6,76.6,0,0,1,560.73,69Z"/><path class="cls-3" d="M580.77,69a96.53,96.53,0,1,1-164-69h-6.15A100.88,100.88,0,1,0,557.84,0H551.7A96.24,96.24,0,0,1,580.77,69Z"/><path class="cls-4" d="M387.72,69a96.53,96.53,0,1,0,164-69h-1.06A95.79,95.79,0,1,1,417.85,0H416.8A96.25,96.25,0,0,0,387.72,69Z"/><path class="cls-3" d="M451.38,99.18a5.25,5.25,0,0,0-2.61-.69,5.57,5.57,0,0,0-1.45.2,5.35,5.35,0,0,0-3.21,2.53,5.25,5.25,0,0,0,.28,5.63l7.39-7.39A4.85,4.85,0,0,0,451.38,99.18Z"/><path class="cls-6" d="M451.38,99.18a5.25,5.25,0,0,0-2.61-.69,5.57,5.57,0,0,0-1.45.2,5.35,5.35,0,0,0-3.21,2.53,5.25,5.25,0,0,0,.28,5.63l7.39-7.39A4.85,4.85,0,0,0,451.38,99.18Z"/><path class="cls-3" d="M512.21,39,524.13,27.1a57.72,57.72,0,0,0-11.39-8.47L500.17,31.2A40.94,40.94,0,0,1,512.21,39Z"/><path class="cls-6" d="M512.21,39,524.13,27.1a57.72,57.72,0,0,0-11.39-8.47L500.17,31.2A40.94,40.94,0,0,1,512.21,39Z"/><path class="cls-3" d="M426.37,69a57.77,57.77,0,0,0,1.47,12.9l15.51-15.51a41,41,0,0,1,38.29-38.29l15.51-15.51A57.82,57.82,0,0,0,426.37,69Z"/><path class="cls-6" d="M426.37,69a57.77,57.77,0,0,0,1.47,12.9l15.51-15.51a41,41,0,0,1,38.29-38.29l15.51-15.51A57.82,57.82,0,0,0,426.37,69Z"/><path class="cls-3" d="M443.29,105.37a5.7,5.7,0,0,1,3.94-7,5.64,5.64,0,0,1,4.79.85l2.27-2.27a40.84,40.84,0,0,1-7.83-12L433.9,97.47a58.08,58.08,0,0,0,8.47,11.4l1.75-1.76A5.82,5.82,0,0,1,443.29,105.37Z"/><path class="cls-6" d="M443.29,105.37a5.7,5.7,0,0,1,3.94-7,5.64,5.64,0,0,1,4.79.85l2.27-2.27a40.84,40.84,0,0,1-7.83-12L433.9,97.47a58.08,58.08,0,0,0,8.47,11.4l1.75-1.76A5.82,5.82,0,0,1,443.29,105.37Z"/><path class="cls-3" d="M487.7,109.82,472,125.54a57.85,57.85,0,0,0,68.83-68.82L525.08,72.44A41,41,0,0,1,487.7,109.82Z"/><path class="cls-6" d="M487.7,109.82,472,125.54a57.85,57.85,0,0,0,68.83-68.82L525.08,72.44A41,41,0,0,1,487.7,109.82Z"/><path class="cls-3" d="M470.39,78.2a10.73,10.73,0,0,0-4-1.29l-3.1,3.1a23.72,23.72,0,0,0,3.25,4.68L472,79.28A10.06,10.06,0,0,0,470.39,78.2Z"/><path class="cls-6" d="M470.39,78.2a10.73,10.73,0,0,0-4-1.29l-3.1,3.1a23.72,23.72,0,0,0,3.25,4.68L472,79.28A10.06,10.06,0,0,0,470.39,78.2Z"/><path class="cls-6" d="M470.39,78.2a10.73,10.73,0,0,0-4-1.29l-3.1,3.1a23.72,23.72,0,0,0,3.25,4.68L472,79.28A10.06,10.06,0,0,0,470.39,78.2Z"/><path class="cls-3" d="M464.16,76.19,477.85,62.5h0c.2-.19.4-.37.61-.54h-9l-8.78,8.78a23.09,23.09,0,0,0,1.21,5.9l.25-.08A11.54,11.54,0,0,1,464.16,76.19Z"/><path class="cls-6" d="M464.16,76.19,477.85,62.5h0c.2-.19.4-.37.61-.54h-9l-8.78,8.78a23.09,23.09,0,0,0,1.21,5.9l.25-.08A11.54,11.54,0,0,1,464.16,76.19Z"/><path class="cls-6" d="M464.16,76.19,477.85,62.5h0c.2-.19.4-.37.61-.54h-9l-8.78,8.78a23.09,23.09,0,0,0,1.21,5.9l.25-.08A11.54,11.54,0,0,1,464.16,76.19Z"/><path class="cls-3" d="M500.94,50.29,512.21,39a40.94,40.94,0,0,0-12-7.82L487.28,44.09A25,25,0,0,1,500.94,50.29Z"/><path class="cls-6" d="M500.94,50.29,512.21,39a40.94,40.94,0,0,0-12-7.82L487.28,44.09A25,25,0,0,1,500.94,50.29Z"/><path class="cls-6" d="M500.94,50.29,512.21,39a40.94,40.94,0,0,0-12-7.82L487.28,44.09A25,25,0,0,1,500.94,50.29Z"/><path class="cls-3" d="M454.21,90.58a11.39,11.39,0,0,1,6.33-13.45A24.14,24.14,0,0,1,459.36,72L446.46,84.9a40.84,40.84,0,0,0,7.83,12l2.15-2.15A11.46,11.46,0,0,1,454.21,90.58Z"/><path class="cls-6" d="M454.21,90.58a11.39,11.39,0,0,1,6.33-13.45A24.14,24.14,0,0,1,459.36,72L446.46,84.9a40.84,40.84,0,0,0,7.83,12l2.15-2.15A11.46,11.46,0,0,1,454.21,90.58Z"/><path class="cls-6" d="M454.21,90.58a11.39,11.39,0,0,1,6.33-13.45A24.14,24.14,0,0,1,459.36,72L446.46,84.9a40.84,40.84,0,0,0,7.83,12l2.15-2.15A11.46,11.46,0,0,1,454.21,90.58Z"/><path class="cls-3" d="M500,51.27a23.61,23.61,0,0,0-6.61-4.16V57.88Z"/><path class="cls-6" d="M500,51.27a23.61,23.61,0,0,0-6.61-4.16V57.88Z"/><path class="cls-6" d="M500,51.27a23.61,23.61,0,0,0-6.61-4.16V57.88Z"/><path class="cls-3" d="M460.77,77.79a10.65,10.65,0,0,0-3.84,16.51l8.62-8.62A25.19,25.19,0,0,1,460.77,77.79Z"/><path class="cls-6" d="M460.77,77.79a10.65,10.65,0,0,0-3.84,16.51l8.62-8.62A25.19,25.19,0,0,1,460.77,77.79Z"/><path class="cls-6" d="M460.77,77.79a10.65,10.65,0,0,0-3.84,16.51l8.62-8.62A25.19,25.19,0,0,1,460.77,77.79Z"/><path class="cls-3" d="M463.34,77a10.16,10.16,0,0,0-1.07.22l-.2.07c.09.23.18.47.28.7Z"/><path class="cls-6" d="M463.34,77a10.16,10.16,0,0,0-1.07.22l-.2.07c.09.23.18.47.28.7Z"/><path class="cls-6" d="M463.34,77a10.16,10.16,0,0,0-1.07.22l-.2.07c.09.23.18.47.28.7Z"/><path class="cls-3" d="M488.11,63.12A7,7,0,0,0,477.22,69a6.92,6.92,0,0,0,1.17,3.86Z"/><path class="cls-6" d="M488.11,63.12A7,7,0,0,0,477.22,69a6.92,6.92,0,0,0,1.17,3.86Z"/><path class="cls-6" d="M488.11,63.12A7,7,0,0,0,477.22,69a6.92,6.92,0,0,0,1.17,3.86Z"/><path class="cls-3" d="M475.14,68.92h0c0-.27,0-.54,0-.81L467,76.3a11.31,11.31,0,0,1,5.45,2.49l2.7-2.7V68.92Z"/><path class="cls-6" d="M475.14,68.92h0c0-.27,0-.54,0-.81L467,76.3a11.31,11.31,0,0,1,5.45,2.49l2.7-2.7V68.92Z"/><path class="cls-6" d="M475.14,68.92h0c0-.27,0-.54,0-.81L467,76.3a11.31,11.31,0,0,1,5.45,2.49l2.7-2.7V68.92Z"/><path class="cls-3" d="M484.3,59.87h0a7.38,7.38,0,0,1,.82,0l-6.84-6.84-6.79,6.79H484.3Z"/><path class="cls-6" d="M484.3,59.87h0a7.38,7.38,0,0,1,.82,0l-6.84-6.84-6.79,6.79H484.3Z"/><path class="cls-6" d="M484.3,59.87h0a7.38,7.38,0,0,1,.82,0l-6.84-6.84-6.79,6.79H484.3Z"/><path class="cls-3" d="M443.35,66.37l38.29-38.29A41,41,0,0,0,443.35,66.37Z"/><path class="cls-6" d="M443.35,66.37l38.29-38.29A41,41,0,0,0,443.35,66.37Z"/><path class="cls-6" d="M443.35,66.37l38.29-38.29A41,41,0,0,0,443.35,66.37Z"/><path class="cls-3" d="M489.69,61.54,491.27,60V46.35a24.1,24.1,0,0,0-5.26-1l-6.25,6.25Z"/><path class="cls-6" d="M489.69,61.54,491.27,60V46.35a24.1,24.1,0,0,0-5.26-1l-6.25,6.25Z"/><path class="cls-6" d="M489.69,61.54,491.27,60V46.35a24.1,24.1,0,0,0-5.26-1l-6.25,6.25Z"/><path class="cls-3" d="M525.08,72.44,487.7,109.82A41,41,0,0,0,525.08,72.44Z"/><path class="cls-6" d="M525.08,72.44,487.7,109.82A41,41,0,0,0,525.08,72.44Z"/><path class="cls-6" d="M525.08,72.44,487.7,109.82A41,41,0,0,0,525.08,72.44Z"/><path class="cls-5" d="M423.91,69A60.34,60.34,0,1,0,484.25,8.64,60.41,60.41,0,0,0,423.91,69Zm89.74-51.26h0A59.2,59.2,0,0,1,525,26.21h0a57.76,57.76,0,0,1,5.71,6.29h0a59.53,59.53,0,0,1,4.77,7.07h0a59.09,59.09,0,0,1-87.74,75.89h0A59.63,59.63,0,0,1,433,98.39h0a58.51,58.51,0,0,1-3.6-7.43l0-.09a56.33,56.33,0,0,1-1.95-5.75l-.08-.26a59.1,59.1,0,0,1,70.87-73.31h0l1.93.5.28.08q2.92.84,5.73,2l.1,0a58.57,58.57,0,0,1,7.43,3.61Z"/><path class="cls-5" d="M498.18,11.54l1.93.5Z"/><path class="cls-5" d="M500.39,12.12q2.92.84,5.73,2Q503.32,13,500.39,12.12Z"/><path class="cls-5" d="M540.81,56.72A57.86,57.86,0,0,1,472,125.54l-1,1a58.9,58.9,0,0,1-23.17-11.09,59.09,59.09,0,0,0,87.74-75.89,58.45,58.45,0,0,1,6.31,16.1Z"/><path class="cls-5" d="M530.75,32.52a59.53,59.53,0,0,1,4.77,7.07A59.53,59.53,0,0,0,530.75,32.52Z"/><path class="cls-5" d="M441.48,109.75l.89-.88a58.08,58.08,0,0,1-8.47-11.4l-.92.92a59.63,59.63,0,0,0,14.8,17.09A59,59,0,0,1,441.48,109.75Z"/><path class="cls-5" d="M513.65,17.72a58.57,58.57,0,0,0-7.43-3.61A58.57,58.57,0,0,1,513.65,17.72Z"/><path class="cls-5" d="M524.13,27.1l.89-.89a59.2,59.2,0,0,0-11.37-8.49l-.91.91A57.72,57.72,0,0,1,524.13,27.1Z"/><path class="cls-5" d="M530.74,32.51A57.76,57.76,0,0,0,525,26.22,57.76,57.76,0,0,1,530.74,32.51Z"/><path class="cls-5" d="M429.34,90.86a56.33,56.33,0,0,1-1.95-5.75A56.33,56.33,0,0,0,429.34,90.86Z"/><path class="cls-5" d="M433,98.38a58.51,58.51,0,0,1-3.6-7.43A58.51,58.51,0,0,0,433,98.38Z"/><path class="cls-5" d="M427.84,81.88a57.82,57.82,0,0,1,69.31-69.31l1-1a59.11,59.11,0,0,0-70.87,73.31c-.18-.64-.35-1.29-.5-1.94Z"/><path class="cls-3" d="M475.18,68.11c0,.27,0,.54,0,.81h2.08V69a7,7,0,0,1,7-7h-5.79c-.21.17-.41.35-.61.54L479.32,64Z"/><path class="cls-3" d="M488.22,63l-3.1-3.1a7.38,7.38,0,0,0-.82,0V62h-.05a7,7,0,0,1,3.86,1.16Z"/><path class="cls-3" d="M478.39,72.84A6.92,6.92,0,0,1,477.22,69v5Z"/><path class="cls-4" d="M407.76,69A76.49,76.49,0,1,0,517.27,0h-13.8A71.63,71.63,0,1,1,465,0H451.23A76.59,76.59,0,0,0,407.76,69Z"/><path class="cls-3" d="M493.35,57.88V47.11c-.68-.28-1.37-.54-2.08-.76V60Z"/><path class="cls-3" d="M489.6,61.63l.09-.09-9.93-9.93-1.48,1.47,6.84,6.84A9,9,0,0,1,489.6,61.63Z"/><path class="cls-3" d="M489.6,61.63a9,9,0,0,0-4.48-1.71l3.1,3.1Z"/><path class="cls-3" d="M484.25,59.87h0Z"/><path class="cls-3" d="M471.49,59.87,469.41,62h9a9.06,9.06,0,0,1,5.79-2.09Z"/><path class="cls-3" d="M484.3,62V59.88h-.05A9.06,9.06,0,0,0,478.46,62h5.84Z"/><path class="cls-3" d="M467,76.3l8.19-8.19a9.11,9.11,0,0,1,2.67-5.61h0L464.16,76.19A11.12,11.12,0,0,1,467,76.3Z"/><path class="cls-3" d="M463.29,80l3.1-3.1a9.87,9.87,0,0,0-1.22-.08,10.32,10.32,0,0,0-1.83.18l-1,1A21.58,21.58,0,0,0,463.29,80Z"/><path class="cls-3" d="M475.18,68.11,479.32,64l-1.47-1.47A9.11,9.11,0,0,0,475.18,68.11Z"/><path class="cls-3" d="M475.14,76.09l1.76-1.76A9,9,0,0,1,475.14,69Z"/><path class="cls-3" d="M475.14,69v-.06h0Z"/><path class="cls-3" d="M477.22,69v-.06h-2.08V69a9,9,0,0,0,1.76,5.35l.32-.32Z"/><path class="cls-7" d="M491.27,46.35v-.62h2.08v1.38A23.61,23.61,0,0,1,500,51.27l1-1a25,25,0,0,0-13.66-6.2L486,45.36A24.1,24.1,0,0,1,491.27,46.35Z"/><path class="cls-7" d="M466.54,84.69A23.72,23.72,0,0,1,463.29,80l-.45.44L461.37,79l1-1c-.1-.23-.19-.47-.28-.7a9.65,9.65,0,0,0-1.3.49,25.19,25.19,0,0,0,4.78,7.89Z"/><path class="cls-7" d="M461.84,76.64a23.09,23.09,0,0,1-1.21-5.9L459.36,72a24.14,24.14,0,0,0,1.18,5.12A12.49,12.49,0,0,1,461.84,76.64Z"/><path class="cls-7" d="M493.35,45.73h-2.08v.62c.71.22,1.4.48,2.08.76Z"/><path class="cls-7" d="M461.37,79l1.47,1.47.45-.44a21.58,21.58,0,0,1-.94-2Z"/><path class="cls-3" d="M446.15,108.48a5.33,5.33,0,0,0,7.75-6.09,5.26,5.26,0,0,0-2.12-2.93l-7.39,7.39A5.2,5.2,0,0,0,446.15,108.48Z"/><path class="cls-6" d="M446.15,108.48a5.33,5.33,0,0,0,7.75-6.09,5.26,5.26,0,0,0-2.12-2.93l-7.39,7.39A5.2,5.2,0,0,0,446.15,108.48Z"/><path class="cls-19" d="M446.15,108.48a5.33,5.33,0,0,0,7.75-6.09,5.26,5.26,0,0,0-2.12-2.93l-7.39,7.39A5.2,5.2,0,0,0,446.15,108.48Z"/><path class="cls-3" d="M525.24,69c0,1.17-.06,2.32-.16,3.46l15.73-15.72A57.9,57.9,0,0,0,524.13,27.1L512.21,39A40.87,40.87,0,0,1,525.24,69Z"/><path class="cls-6" d="M525.24,69c0,1.17-.06,2.32-.16,3.46l15.73-15.72A57.9,57.9,0,0,0,524.13,27.1L512.21,39A40.87,40.87,0,0,1,525.24,69Z"/><path class="cls-19" d="M525.24,69c0,1.17-.06,2.32-.16,3.46l15.73-15.72A57.9,57.9,0,0,0,524.13,27.1L512.21,39A40.87,40.87,0,0,1,525.24,69Z"/><path class="cls-3" d="M484.25,110a40.84,40.84,0,0,1-30-13L452,99.21a5.64,5.64,0,0,1-1.72,10.09,5.44,5.44,0,0,1-1.53.22,5.74,5.74,0,0,1-4.65-2.41l-1.75,1.76A57.85,57.85,0,0,0,472,125.54l15.72-15.72C486.56,109.91,485.41,110,484.25,110Z"/><path class="cls-6" d="M484.25,110a40.84,40.84,0,0,1-30-13L452,99.21a5.64,5.64,0,0,1-1.72,10.09,5.44,5.44,0,0,1-1.53.22,5.74,5.74,0,0,1-4.65-2.41l-1.75,1.76A57.85,57.85,0,0,0,472,125.54l15.72-15.72C486.56,109.91,485.41,110,484.25,110Z"/><path class="cls-19" d="M484.25,110a40.84,40.84,0,0,1-30-13L452,99.21a5.64,5.64,0,0,1-1.72,10.09,5.44,5.44,0,0,1-1.53.22,5.74,5.74,0,0,1-4.65-2.41l-1.75,1.76A57.85,57.85,0,0,0,472,125.54l15.72-15.72C486.56,109.91,485.41,110,484.25,110Z"/><path class="cls-3" d="M488.11,63.12l-9.72,9.72a7,7,0,1,0,9.72-9.72Z"/><path class="cls-6" d="M488.11,63.12l-9.72,9.72a7,7,0,1,0,9.72-9.72Z"/><path class="cls-6" d="M488.11,63.12l-9.72,9.72a7,7,0,1,0,9.72-9.72Z"/><path class="cls-19" d="M488.11,63.12l-9.72,9.72a7,7,0,1,0,9.72-9.72Z"/><path class="cls-3" d="M475.14,82.08v-6l-2.7,2.7A11.08,11.08,0,0,1,475.14,82.08Z"/><path class="cls-6" d="M475.14,82.08v-6l-2.7,2.7A11.08,11.08,0,0,1,475.14,82.08Z"/><path class="cls-6" d="M475.14,82.08v-6l-2.7,2.7A11.08,11.08,0,0,1,475.14,82.08Z"/><path class="cls-19" d="M475.14,82.08v-6l-2.7,2.7A11.08,11.08,0,0,1,475.14,82.08Z"/><path class="cls-3" d="M490.64,75.46a7.7,7.7,0,0,1-.6.54h16.83a23.6,23.6,0,0,0-.72-16l-15.5,15.5Z"/><path class="cls-6" d="M490.64,75.46a7.7,7.7,0,0,1-.6.54h16.83a23.6,23.6,0,0,0-.72-16l-15.5,15.5Z"/><path class="cls-6" d="M490.64,75.46a7.7,7.7,0,0,1-.6.54h16.83a23.6,23.6,0,0,0-.72-16l-15.5,15.5Z"/><path class="cls-19" d="M490.64,75.46a7.7,7.7,0,0,1-.6.54h16.83a23.6,23.6,0,0,0-.72-16l-15.5,15.5Z"/><path class="cls-3" d="M493.35,69V69h0a7.32,7.32,0,0,1,0,.81L505.21,58A24,24,0,0,0,500,51.27l-6.61,6.61Z"/><path class="cls-6" d="M493.35,69V69h0a7.32,7.32,0,0,1,0,.81L505.21,58A24,24,0,0,0,500,51.27l-6.61,6.61Z"/><path class="cls-6" d="M493.35,69V69h0a7.32,7.32,0,0,1,0,.81L505.21,58A24,24,0,0,0,500,51.27l-6.61,6.61Z"/><path class="cls-19" d="M493.35,69V69h0a7.32,7.32,0,0,1,0,.81L505.21,58A24,24,0,0,0,500,51.27l-6.61,6.61Z"/><path class="cls-3" d="M490.72,62.59a7.82,7.82,0,0,1,.55.6V60l-1.58,1.58,1,1Z"/><path class="cls-6" d="M490.72,62.59a7.82,7.82,0,0,1,.55.6V60l-1.58,1.58,1,1Z"/><path class="cls-6" d="M490.72,62.59a7.82,7.82,0,0,1,.55.6V60l-1.58,1.58,1,1Z"/><path class="cls-19" d="M490.72,62.59a7.82,7.82,0,0,1,.55.6V60l-1.58,1.58,1,1Z"/><path class="cls-3" d="M465.55,85.68l-8.62,8.62a10.71,10.71,0,0,0,3,2.51,10.67,10.67,0,0,0,14.53-4.08,5.68,5.68,0,0,0,.28-.55A25.17,25.17,0,0,1,465.55,85.68Z"/><path class="cls-6" d="M465.55,85.68l-8.62,8.62a10.71,10.71,0,0,0,3,2.51,10.67,10.67,0,0,0,14.53-4.08,5.68,5.68,0,0,0,.28-.55A25.17,25.17,0,0,1,465.55,85.68Z"/><path class="cls-6" d="M465.55,85.68l-8.62,8.62a10.71,10.71,0,0,0,3,2.51,10.67,10.67,0,0,0,14.53-4.08,5.68,5.68,0,0,0,.28-.55A25.17,25.17,0,0,1,465.55,85.68Z"/><path class="cls-19" d="M465.55,85.68l-8.62,8.62a10.71,10.71,0,0,0,3,2.51,10.67,10.67,0,0,0,14.53-4.08,5.68,5.68,0,0,0,.28-.55A25.17,25.17,0,0,1,465.55,85.68Z"/><path class="cls-3" d="M509.33,69a25.08,25.08,0,0,1-33.95,23.46,11.33,11.33,0,0,1-18.94,2.35l-2.15,2.15a40.84,40.84,0,0,0,30,13c1.16,0,2.31-.06,3.45-.15l37.38-37.38c.1-1.14.16-2.29.16-3.46a40.87,40.87,0,0,0-13-30L500.94,50.29A25,25,0,0,1,509.33,69Z"/><path class="cls-6" d="M509.33,69a25.08,25.08,0,0,1-33.95,23.46,11.33,11.33,0,0,1-18.94,2.35l-2.15,2.15a40.84,40.84,0,0,0,30,13c1.16,0,2.31-.06,3.45-.15l37.38-37.38c.1-1.14.16-2.29.16-3.46a40.87,40.87,0,0,0-13-30L500.94,50.29A25,25,0,0,1,509.33,69Z"/><path class="cls-6" d="M509.33,69a25.08,25.08,0,0,1-33.95,23.46,11.33,11.33,0,0,1-18.94,2.35l-2.15,2.15a40.84,40.84,0,0,0,30,13c1.16,0,2.31-.06,3.45-.15l37.38-37.38c.1-1.14.16-2.29.16-3.46a40.87,40.87,0,0,0-13-30L500.94,50.29A25,25,0,0,1,509.33,69Z"/><path class="cls-19" d="M509.33,69a25.08,25.08,0,0,1-33.95,23.46,11.33,11.33,0,0,1-18.94,2.35l-2.15,2.15a40.84,40.84,0,0,0,30,13c1.16,0,2.31-.06,3.45-.15l37.38-37.38c.1-1.14.16-2.29.16-3.46a40.87,40.87,0,0,0-13-30L500.94,50.29A25,25,0,0,1,509.33,69Z"/><path class="cls-3" d="M472,79.28l-5.41,5.41a23.77,23.77,0,0,0,8.6,6.16V83.74A10.5,10.5,0,0,0,472,79.28Z"/><path class="cls-6" d="M472,79.28l-5.41,5.41a23.77,23.77,0,0,0,8.6,6.16V83.74A10.5,10.5,0,0,0,472,79.28Z"/><path class="cls-6" d="M472,79.28l-5.41,5.41a23.77,23.77,0,0,0,8.6,6.16V83.74A10.5,10.5,0,0,0,472,79.28Z"/><path class="cls-19" d="M472,79.28l-5.41,5.41a23.77,23.77,0,0,0,8.6,6.16V83.74A10.5,10.5,0,0,0,472,79.28Z"/><path class="cls-3" d="M484.19,78.09h0a7.2,7.2,0,0,1-.81,0l11.89,11.9a23.84,23.84,0,0,0,10.84-11.85H484.19Z"/><path class="cls-6" d="M484.19,78.09h0a7.2,7.2,0,0,1-.81,0l11.89,11.9a23.84,23.84,0,0,0,10.84-11.85H484.19Z"/><path class="cls-6" d="M484.19,78.09h0a7.2,7.2,0,0,1-.81,0l11.89,11.9a23.84,23.84,0,0,0,10.84-11.85H484.19Z"/><path class="cls-19" d="M484.19,78.09h0a7.2,7.2,0,0,1-.81,0l11.89,11.9a23.84,23.84,0,0,0,10.84-11.85H484.19Z"/><path class="cls-3" d="M477.77,75.37c-.19-.19-.37-.39-.55-.6V91.61a23.72,23.72,0,0,0,16-.73l-15.5-15.5Z"/><path class="cls-6" d="M477.77,75.37c-.19-.19-.37-.39-.55-.6V91.61a23.72,23.72,0,0,0,16-.73l-15.5-15.5Z"/><path class="cls-6" d="M477.77,75.37c-.19-.19-.37-.39-.55-.6V91.61a23.72,23.72,0,0,0,16-.73l-15.5-15.5Z"/><path class="cls-19" d="M477.77,75.37c-.19-.19-.37-.39-.55-.6V91.61a23.72,23.72,0,0,0,16-.73l-15.5-15.5Z"/><path class="cls-5" d="M447.78,115.48Z"/><path class="cls-19" d="M447.78,115.48Z"/><path class="cls-5" d="M535.52,39.59Z"/><path class="cls-19" d="M535.52,39.59Z"/><path class="cls-5" d="M530.74,32.51h0Z"/><path class="cls-19" d="M530.74,32.51h0Z"/><polygon class="cls-5" points="525.02 26.21 525.02 26.21 525.03 26.22 525.02 26.21"/><polygon class="cls-19" points="525.02 26.21 525.02 26.21 525.03 26.22 525.02 26.21"/><path class="cls-5" d="M472,125.54a57.85,57.85,0,0,1-29.61-16.67l-.89.88a59,59,0,0,0,6.3,5.73h0A58.9,58.9,0,0,0,471,126.57Z"/><path class="cls-19" d="M472,125.54a57.85,57.85,0,0,1-29.61-16.67l-.89.88a59,59,0,0,0,6.3,5.73h0A58.9,58.9,0,0,0,471,126.57Z"/><path class="cls-5" d="M540.81,56.72l1-1a58.45,58.45,0,0,0-6.31-16.1h0a59.53,59.53,0,0,0-4.77-7.07h0A57.76,57.76,0,0,0,525,26.22h0l-.89.89A57.9,57.9,0,0,1,540.81,56.72Z"/><path class="cls-19" d="M540.81,56.72l1-1a58.45,58.45,0,0,0-6.31-16.1h0a59.53,59.53,0,0,0-4.77-7.07h0A57.76,57.76,0,0,0,525,26.22h0l-.89.89A57.9,57.9,0,0,1,540.81,56.72Z"/><path class="cls-3" d="M491.27,69a7,7,0,0,1-7,7H490a7.7,7.7,0,0,0,.6-.54L489.17,74l4.14-4.14a7.32,7.32,0,0,0,0-.81h-2.08Z"/><path class="cls-19" d="M491.27,69a7,7,0,0,1-7,7H490a7.7,7.7,0,0,0,.6-.54L489.17,74l4.14-4.14a7.32,7.32,0,0,0,0-.81h-2.08Z"/><path class="cls-3" d="M484.25,76a7,7,0,0,1-5.86-3.16L477.22,74v.76c.18.21.36.41.55.6l1.47-1.46L483.38,78a7.2,7.2,0,0,0,.81,0V76Z"/><path class="cls-19" d="M484.25,76a7,7,0,0,1-5.86-3.16L477.22,74v.76c.18.21.36.41.55.6l1.47-1.46L483.38,78a7.2,7.2,0,0,0,.81,0V76Z"/><path class="cls-3" d="M488.22,63l-.11.1A7,7,0,0,1,491.27,69V63.19a7.82,7.82,0,0,0-.55-.6l-1.47,1.46Z"/><path class="cls-19" d="M488.22,63l-.11.1A7,7,0,0,1,491.27,69V63.19a7.82,7.82,0,0,0-.55-.6l-1.47,1.46Z"/><path class="cls-3" d="M493.35,69v0Z"/><path class="cls-19" d="M493.35,69v0Z"/><path class="cls-3" d="M493.35,69V57.88L491.27,60v3.23A9,9,0,0,1,493.35,69Z"/><path class="cls-19" d="M493.35,69V57.88L491.27,60v3.23A9,9,0,0,1,493.35,69Z"/><path class="cls-3" d="M491.27,69V69h2.08V69a9,9,0,0,0-2.08-5.79Z"/><path class="cls-19" d="M491.27,69V69h2.08V69a9,9,0,0,0-2.08-5.79Z"/><path class="cls-3" d="M490.72,62.59h0l-1-1-.09.09A8.59,8.59,0,0,1,490.72,62.59Z"/><path class="cls-19" d="M490.72,62.59h0l-1-1-.09.09A8.59,8.59,0,0,1,490.72,62.59Z"/><path class="cls-3" d="M489.25,64.05l1.47-1.46a8.59,8.59,0,0,0-1.12-1L488.22,63Z"/><path class="cls-19" d="M489.25,64.05l1.47-1.46a8.59,8.59,0,0,0-1.12-1L488.22,63Z"/><path class="cls-3" d="M475.43,84.62a9.06,9.06,0,0,0-.29-.88v7.11l.14.05A10.58,10.58,0,0,0,475.43,84.62Z"/><path class="cls-19" d="M475.43,84.62a9.06,9.06,0,0,0-.29-.88v7.11l.14.05A10.58,10.58,0,0,0,475.43,84.62Z"/><path class="cls-3" d="M476.9,74.33l-1.76,1.76v6a11.3,11.3,0,0,1,.78,9.07c.43.17.86.32,1.3.46V74.77C477.11,74.63,477,74.48,476.9,74.33Z"/><path class="cls-19" d="M476.9,74.33l-1.76,1.76v6a11.3,11.3,0,0,1,.78,9.07c.43.17.86.32,1.3.46V74.77C477.11,74.63,477,74.48,476.9,74.33Z"/><path class="cls-3" d="M476.9,74.33c.1.15.21.3.32.44V74Z"/><path class="cls-19" d="M476.9,74.33c.1.15.21.3.32.44V74Z"/><path class="cls-3" d="M477.77,75.37h0l15.5,15.5c.68-.28,1.35-.6,2-.94L483.38,78A9.08,9.08,0,0,1,477.77,75.37Z"/><path class="cls-19" d="M477.77,75.37h0l15.5,15.5c.68-.28,1.35-.6,2-.94L483.38,78A9.08,9.08,0,0,1,477.77,75.37Z"/><path class="cls-3" d="M477.77,75.37A9.08,9.08,0,0,0,483.38,78l-4.14-4.13Z"/><path class="cls-19" d="M477.77,75.37A9.08,9.08,0,0,0,483.38,78l-4.14-4.13Z"/><path class="cls-3" d="M484.25,78.09h21.86a21.7,21.7,0,0,0,.76-2.09H490A9.1,9.1,0,0,1,484.25,78.09Z"/><path class="cls-19" d="M484.25,78.09h21.86a21.7,21.7,0,0,0,.76-2.09H490A9.1,9.1,0,0,1,484.25,78.09Z"/><path class="cls-3" d="M484.19,78.09h0Z"/><path class="cls-19" d="M484.19,78.09h0Z"/><path class="cls-3" d="M484.19,76v2.08h.06A9.1,9.1,0,0,0,490,76h-5.85Z"/><path class="cls-19" d="M484.19,76v2.08h.06A9.1,9.1,0,0,0,490,76h-5.85Z"/><path class="cls-3" d="M490.64,75.46h0L506.15,60c-.29-.69-.6-1.35-.94-2l-11.9,11.9A9.11,9.11,0,0,1,490.64,75.46Z"/><path class="cls-19" d="M490.64,75.46h0L506.15,60c-.29-.69-.6-1.35-.94-2l-11.9,11.9A9.11,9.11,0,0,1,490.64,75.46Z"/><path class="cls-3" d="M490.64,75.46a9.11,9.11,0,0,0,2.67-5.61L489.17,74Z"/><path class="cls-19" d="M490.64,75.46a9.11,9.11,0,0,0,2.67-5.61L489.17,74Z"/><path class="cls-7" d="M466.54,84.69l-1,1a25.17,25.17,0,0,0,9.19,6.5c.15-.3.28-.61.4-.92v-.41A23.77,23.77,0,0,1,466.54,84.69Z"/><path class="cls-19" d="M466.54,84.69l-1,1a25.17,25.17,0,0,0,9.19,6.5c.15-.3.28-.61.4-.92v-.41A23.77,23.77,0,0,1,466.54,84.69Z"/><path class="cls-7" d="M505.21,58l.44-.44L507.13,59l-1,1a23.6,23.6,0,0,1,.72,16h.63v2.09h-1.39a23.84,23.84,0,0,1-10.84,11.85l.45.45-1.47,1.47-1-1a23.72,23.72,0,0,1-16,.73v.62h-1.73l-.11.21a25.06,25.06,0,0,0,25.56-42.15l-1,1A24,24,0,0,1,505.21,58Z"/><path class="cls-19" d="M505.21,58l.44-.44L507.13,59l-1,1a23.6,23.6,0,0,1,.72,16h.63v2.09h-1.39a23.84,23.84,0,0,1-10.84,11.85l.45.45-1.47,1.47-1-1a23.72,23.72,0,0,1-16,.73v.62h-1.73l-.11.21a25.06,25.06,0,0,0,25.56-42.15l-1,1A24,24,0,0,1,505.21,58Z"/><path class="cls-7" d="M475.14,90.85v.41c0-.12.09-.24.14-.36Z"/><path class="cls-19" d="M475.14,90.85v.41c0-.12.09-.24.14-.36Z"/><path class="cls-7" d="M475.49,92.23h1.73v-.62c-.44-.14-.87-.29-1.3-.46C475.79,91.52,475.65,91.88,475.49,92.23Z"/><path class="cls-19" d="M475.49,92.23h1.73v-.62c-.44-.14-.87-.29-1.3-.46C475.79,91.52,475.65,91.88,475.49,92.23Z"/><path class="cls-7" d="M494.25,91.86l1.47-1.47-.45-.45c-.65.34-1.32.66-2,.94Z"/><path class="cls-19" d="M494.25,91.86l1.47-1.47-.45-.45c-.65.34-1.32.66-2,.94Z"/><path class="cls-7" d="M507.5,78.09V76h-.63a21.7,21.7,0,0,1-.76,2.09Z"/><path class="cls-19" d="M507.5,78.09V76h-.63a21.7,21.7,0,0,1-.76,2.09Z"/><path class="cls-7" d="M507.13,59l-1.48-1.47-.44.44c.34.66.65,1.32.94,2Z"/><path class="cls-19" d="M507.13,59l-1.48-1.47-.44.44c.34.66.65,1.32.94,2Z"/><path class="cls-3" d="M443.25,69c0-.88,0-1.75.1-2.61L427.84,81.88a57,57,0,0,0,6.06,15.59L446.46,84.9A40.92,40.92,0,0,1,443.25,69Z"/><path class="cls-6" d="M443.25,69c0-.88,0-1.75.1-2.61L427.84,81.88a57,57,0,0,0,6.06,15.59L446.46,84.9A40.92,40.92,0,0,1,443.25,69Z"/><path class="cls-19" d="M443.25,69c0-.88,0-1.75.1-2.61L427.84,81.88a57,57,0,0,0,6.06,15.59L446.46,84.9A40.92,40.92,0,0,1,443.25,69Z"/><path class="cls-3" d="M484.25,28a40.78,40.78,0,0,1,15.92,3.21l12.57-12.57a57.68,57.68,0,0,0-15.59-6.06L481.64,28.08Q482.93,28,484.25,28Z"/><path class="cls-6" d="M484.25,28a40.78,40.78,0,0,1,15.92,3.21l12.57-12.57a57.68,57.68,0,0,0-15.59-6.06L481.64,28.08Q482.93,28,484.25,28Z"/><path class="cls-19" d="M484.25,28a40.78,40.78,0,0,1,15.92,3.21l12.57-12.57a57.68,57.68,0,0,0-15.59-6.06L481.64,28.08Q482.93,28,484.25,28Z"/><path class="cls-3" d="M446.46,84.9,459.36,72A25,25,0,0,1,484.25,43.9a25.41,25.41,0,0,1,3,.19L500.17,31.2A40.78,40.78,0,0,0,484.25,28q-1.32,0-2.61.09L443.35,66.37c-.06.86-.1,1.73-.1,2.61A40.92,40.92,0,0,0,446.46,84.9Z"/><path class="cls-6" d="M446.46,84.9,459.36,72A25,25,0,0,1,484.25,43.9a25.41,25.41,0,0,1,3,.19L500.17,31.2A40.78,40.78,0,0,0,484.25,28q-1.32,0-2.61.09L443.35,66.37c-.06.86-.1,1.73-.1,2.61A40.92,40.92,0,0,0,446.46,84.9Z"/><path class="cls-6" d="M446.46,84.9,459.36,72A25,25,0,0,1,484.25,43.9a25.41,25.41,0,0,1,3,.19L500.17,31.2A40.78,40.78,0,0,0,484.25,28q-1.32,0-2.61.09L443.35,66.37c-.06.86-.1,1.73-.1,2.61A40.92,40.92,0,0,0,446.46,84.9Z"/><path class="cls-19" d="M446.46,84.9,459.36,72A25,25,0,0,1,484.25,43.9a25.41,25.41,0,0,1,3,.19L500.17,31.2A40.78,40.78,0,0,0,484.25,28q-1.32,0-2.61.09L443.35,66.37c-.06.86-.1,1.73-.1,2.61A40.92,40.92,0,0,0,446.46,84.9Z"/><path class="cls-3" d="M461.62,62a23.63,23.63,0,0,0-1.06,7c0,.59,0,1.18.07,1.76L469.41,62Z"/><path class="cls-6" d="M461.62,62a23.63,23.63,0,0,0-1.06,7c0,.59,0,1.18.07,1.76L469.41,62Z"/><path class="cls-6" d="M461.62,62a23.63,23.63,0,0,0-1.06,7c0,.59,0,1.18.07,1.76L469.41,62Z"/><path class="cls-19" d="M461.62,62a23.63,23.63,0,0,0-1.06,7c0,.59,0,1.18.07,1.76L469.41,62Z"/><path class="cls-3" d="M486,45.36c-.59,0-1.17-.07-1.76-.07a23.61,23.61,0,0,0-9,1.79l4.54,4.53Z"/><path class="cls-6" d="M486,45.36c-.59,0-1.17-.07-1.76-.07a23.61,23.61,0,0,0-9,1.79l4.54,4.53Z"/><path class="cls-6" d="M486,45.36c-.59,0-1.17-.07-1.76-.07a23.61,23.61,0,0,0-9,1.79l4.54,4.53Z"/><path class="cls-19" d="M486,45.36c-.59,0-1.17-.07-1.76-.07a23.61,23.61,0,0,0-9,1.79l4.54,4.53Z"/><path class="cls-3" d="M478.28,53.08,473.22,48a23.84,23.84,0,0,0-10.84,11.85h9.11Z"/><path class="cls-6" d="M478.28,53.08,473.22,48a23.84,23.84,0,0,0-10.84,11.85h9.11Z"/><path class="cls-6" d="M478.28,53.08,473.22,48a23.84,23.84,0,0,0-10.84,11.85h9.11Z"/><path class="cls-19" d="M478.28,53.08,473.22,48a23.84,23.84,0,0,0-10.84,11.85h9.11Z"/><path class="cls-5" d="M427.39,85.11l-.08-.26Z"/><path class="cls-19" d="M427.39,85.11l-.08-.26Z"/><polygon class="cls-5" points="513.65 17.71 513.65 17.71 513.65 17.71 513.65 17.71"/><polygon class="cls-19" points="513.65 17.71 513.65 17.71 513.65 17.71 513.65 17.71"/><polygon class="cls-5" points="498.18 11.54 498.18 11.54 498.18 11.54 498.18 11.54"/><polygon class="cls-19" points="498.18 11.54 498.18 11.54 498.18 11.54 498.18 11.54"/><path class="cls-5" d="M429.38,91l0-.09Z"/><path class="cls-19" d="M429.38,91l0-.09Z"/><path class="cls-5" d="M500.11,12l.28.08Z"/><path class="cls-19" d="M500.11,12l.28.08Z"/><path class="cls-5" d="M506.12,14.07l.1,0Z"/><path class="cls-19" d="M506.12,14.07l.1,0Z"/><polygon class="cls-5" points="432.98 98.39 432.98 98.39 432.98 98.38 432.98 98.39"/><polygon class="cls-19" points="432.98 98.39 432.98 98.39 432.98 98.38 432.98 98.39"/><path class="cls-5" d="M427.84,81.88l-1,1c.15.65.32,1.3.5,1.94l.08.26a56.33,56.33,0,0,0,1.95,5.75l0,.09a58.51,58.51,0,0,0,3.6,7.43h0l.92-.92A57,57,0,0,1,427.84,81.88Z"/><path class="cls-19" d="M427.84,81.88l-1,1c.15.65.32,1.3.5,1.94l.08.26a56.33,56.33,0,0,0,1.95,5.75l0,.09a58.51,58.51,0,0,0,3.6,7.43h0l.92-.92A57,57,0,0,1,427.84,81.88Z"/><path class="cls-5" d="M506.12,14.07q-2.81-1.11-5.73-2l-.28-.08-1.93-.5h0l-1,1a57.68,57.68,0,0,1,15.59,6.06l.91-.91h0a58.57,58.57,0,0,0-7.43-3.61Z"/><path class="cls-19" d="M506.12,14.07q-2.81-1.11-5.73-2l-.28-.08-1.93-.5h0l-1,1a57.68,57.68,0,0,1,15.59,6.06l.91-.91h0a58.57,58.57,0,0,0-7.43-3.61Z"/><path class="cls-3" d="M479.76,51.61l-4.54-4.53c-.68.28-1.35.6-2,.94l5.06,5.06Z"/><path class="cls-19" d="M479.76,51.61l-4.54-4.53c-.68.28-1.35.6-2,.94l5.06,5.06Z"/><path class="cls-3" d="M471.49,59.87h-9.11c-.28.68-.54,1.38-.76,2.09h7.79Z"/><path class="cls-19" d="M471.49,59.87h-9.11c-.28.68-.54,1.38-.76,2.09h7.79Z"/><path class="cls-7" d="M460.56,69a23.63,23.63,0,0,1,1.06-7H461V59.87h1.38A23.84,23.84,0,0,1,473.22,48l-.45-.45,1.48-1.47,1,1a23.61,23.61,0,0,1,9-1.79c.59,0,1.17,0,1.76.07l1.27-1.27a25.41,25.41,0,0,0-3-.19A25,25,0,0,0,459.36,72l1.27-1.27C460.59,70.16,460.56,69.57,460.56,69Z"/><path class="cls-19" d="M460.56,69a23.63,23.63,0,0,1,1.06-7H461V59.87h1.38A23.84,23.84,0,0,1,473.22,48l-.45-.45,1.48-1.47,1,1a23.61,23.61,0,0,1,9-1.79c.59,0,1.17,0,1.76.07l1.27-1.27a25.41,25.41,0,0,0-3-.19A25,25,0,0,0,459.36,72l1.27-1.27C460.59,70.16,460.56,69.57,460.56,69Z"/><path class="cls-7" d="M474.25,46.1l-1.48,1.47.45.45c.65-.34,1.32-.66,2-.94Z"/><path class="cls-19" d="M474.25,46.1l-1.48,1.47.45.45c.65-.34,1.32-.66,2-.94Z"/><path class="cls-7" d="M461,59.87V62h.62c.22-.71.48-1.41.76-2.09Z"/><path class="cls-19" d="M461,59.87V62h.62c.22-.71.48-1.41.76-2.09Z"/><path class="cls-3" d="M454.88,90.39a10.64,10.64,0,0,1,5.89-12.6c-.08-.22-.16-.44-.23-.66a11.33,11.33,0,0,0-4.1,17.66l.49-.49A10.7,10.7,0,0,1,454.88,90.39Z"/><path class="cls-6" d="M454.88,90.39a10.64,10.64,0,0,1,5.89-12.6c-.08-.22-.16-.44-.23-.66a11.33,11.33,0,0,0-4.1,17.66l.49-.49A10.7,10.7,0,0,1,454.88,90.39Z"/><path class="cls-6" d="M454.88,90.39a10.64,10.64,0,0,1,5.89-12.6c-.08-.22-.16-.44-.23-.66a11.33,11.33,0,0,0-4.1,17.66l.49-.49A10.7,10.7,0,0,1,454.88,90.39Z"/><path class="cls-14" d="M454.88,90.39a10.64,10.64,0,0,1,5.89-12.6c-.08-.22-.16-.44-.23-.66a11.33,11.33,0,0,0-4.1,17.66l.49-.49A10.7,10.7,0,0,1,454.88,90.39Z"/><path class="cls-3" d="M462.27,77.23a10.16,10.16,0,0,1,1.07-.22l.82-.82a11.54,11.54,0,0,0-2.07.37l-.25.08c.07.22.15.44.23.66Z"/><path class="cls-6" d="M462.27,77.23a10.16,10.16,0,0,1,1.07-.22l.82-.82a11.54,11.54,0,0,0-2.07.37l-.25.08c.07.22.15.44.23.66Z"/><path class="cls-6" d="M462.27,77.23a10.16,10.16,0,0,1,1.07-.22l.82-.82a11.54,11.54,0,0,0-2.07.37l-.25.08c.07.22.15.44.23.66Z"/><path class="cls-14" d="M462.27,77.23a10.16,10.16,0,0,1,1.07-.22l.82-.82a11.54,11.54,0,0,0-2.07.37l-.25.08c.07.22.15.44.23.66Z"/><path class="cls-3" d="M472,79.28l.49-.49A11.31,11.31,0,0,0,467,76.3l-.6.61a10.73,10.73,0,0,1,4,1.29A10.06,10.06,0,0,1,472,79.28Z"/><path class="cls-6" d="M472,79.28l.49-.49A11.31,11.31,0,0,0,467,76.3l-.6.61a10.73,10.73,0,0,1,4,1.29A10.06,10.06,0,0,1,472,79.28Z"/><path class="cls-6" d="M472,79.28l.49-.49A11.31,11.31,0,0,0,467,76.3l-.6.61a10.73,10.73,0,0,1,4,1.29A10.06,10.06,0,0,1,472,79.28Z"/><path class="cls-14" d="M472,79.28l.49-.49A11.31,11.31,0,0,0,467,76.3l-.6.61a10.73,10.73,0,0,1,4,1.29A10.06,10.06,0,0,1,472,79.28Z"/><path class="cls-3" d="M466.39,76.91l.6-.61a11.12,11.12,0,0,0-2.83-.11l-.82.82a10.32,10.32,0,0,1,1.83-.18A9.87,9.87,0,0,1,466.39,76.91Z"/><path class="cls-14" d="M466.39,76.91l.6-.61a11.12,11.12,0,0,0-2.83-.11l-.82.82a10.32,10.32,0,0,1,1.83-.18A9.87,9.87,0,0,1,466.39,76.91Z"/><path class="cls-7" d="M462.07,77.3c-.08-.22-.16-.44-.23-.66a12.49,12.49,0,0,0-1.3.49c.07.22.15.44.23.66A9.65,9.65,0,0,1,462.07,77.3Z"/><path class="cls-14" d="M462.07,77.3c-.08-.22-.16-.44-.23-.66a12.49,12.49,0,0,0-1.3.49c.07.22.15.44.23.66A9.65,9.65,0,0,1,462.07,77.3Z"/><path class="cls-3" d="M474.46,92.73a10.67,10.67,0,0,1-14.53,4.08,10.71,10.71,0,0,1-3-2.51l-.49.49a11.34,11.34,0,0,0,18.94-2.35l-.64-.26A5.68,5.68,0,0,1,474.46,92.73Z"/><path class="cls-6" d="M474.46,92.73a10.67,10.67,0,0,1-14.53,4.08,10.71,10.71,0,0,1-3-2.51l-.49.49a11.34,11.34,0,0,0,18.94-2.35l-.64-.26A5.68,5.68,0,0,1,474.46,92.73Z"/><path class="cls-6" d="M474.46,92.73a10.67,10.67,0,0,1-14.53,4.08,10.71,10.71,0,0,1-3-2.51l-.49.49a11.34,11.34,0,0,0,18.94-2.35l-.64-.26A5.68,5.68,0,0,1,474.46,92.73Z"/><path class="cls-19" d="M474.46,92.73a10.67,10.67,0,0,1-14.53,4.08,10.71,10.71,0,0,1-3-2.51l-.49.49a11.34,11.34,0,0,0,18.94-2.35l-.64-.26A5.68,5.68,0,0,1,474.46,92.73Z"/><path class="cls-14" d="M474.46,92.73a10.67,10.67,0,0,1-14.53,4.08,10.71,10.71,0,0,1-3-2.51l-.49.49a11.34,11.34,0,0,0,18.94-2.35l-.64-.26A5.68,5.68,0,0,1,474.46,92.73Z"/><path class="cls-3" d="M472.44,78.79l-.49.49a10.5,10.5,0,0,1,3.19,4.46V82.08A11.08,11.08,0,0,0,472.44,78.79Z"/><path class="cls-6" d="M472.44,78.79l-.49.49a10.5,10.5,0,0,1,3.19,4.46V82.08A11.08,11.08,0,0,0,472.44,78.79Z"/><path class="cls-6" d="M472.44,78.79l-.49.49a10.5,10.5,0,0,1,3.19,4.46V82.08A11.08,11.08,0,0,0,472.44,78.79Z"/><path class="cls-19" d="M472.44,78.79l-.49.49a10.5,10.5,0,0,1,3.19,4.46V82.08A11.08,11.08,0,0,0,472.44,78.79Z"/><path class="cls-14" d="M472.44,78.79l-.49.49a10.5,10.5,0,0,1,3.19,4.46V82.08A11.08,11.08,0,0,0,472.44,78.79Z"/><path class="cls-3" d="M475.43,84.62a10.58,10.58,0,0,1-.15,6.28l.64.25a11.3,11.3,0,0,0-.78-9.07v1.66A9.06,9.06,0,0,1,475.43,84.62Z"/><path class="cls-19" d="M475.43,84.62a10.58,10.58,0,0,1-.15,6.28l.64.25a11.3,11.3,0,0,0-.78-9.07v1.66A9.06,9.06,0,0,1,475.43,84.62Z"/><path class="cls-14" d="M475.43,84.62a10.58,10.58,0,0,1-.15,6.28l.64.25a11.3,11.3,0,0,0-.78-9.07v1.66A9.06,9.06,0,0,1,475.43,84.62Z"/><path class="cls-7" d="M475.14,92.23v-1c-.12.31-.25.62-.4.92l.64.26.11-.21Z"/><path class="cls-19" d="M475.14,92.23v-1c-.12.31-.25.62-.4.92l.64.26.11-.21Z"/><path class="cls-14" d="M475.14,92.23v-1c-.12.31-.25.62-.4.92l.64.26.11-.21Z"/><path class="cls-7" d="M475.28,90.9c0,.12-.1.24-.14.36v1h.35c.16-.35.3-.71.43-1.08Z"/><path class="cls-19" d="M475.28,90.9c0,.12-.1.24-.14.36v1h.35c.16-.35.3-.71.43-1.08Z"/><path class="cls-14" d="M475.28,90.9c0,.12-.1.24-.14.36v1h.35c.16-.35.3-.71.43-1.08Z"/><path class="cls-3" d="M447.23,98.36a5.7,5.7,0,0,0-3.94,7,5.82,5.82,0,0,0,.83,1.74l.27-.26a5.25,5.25,0,0,1-.28-5.63,5.35,5.35,0,0,1,3.21-2.53,5.57,5.57,0,0,1,1.45-.2,5.25,5.25,0,0,1,2.61.69,4.85,4.85,0,0,1,.4.28l.24-.25A5.64,5.64,0,0,0,447.23,98.36Z"/><path class="cls-6" d="M447.23,98.36a5.7,5.7,0,0,0-3.94,7,5.82,5.82,0,0,0,.83,1.74l.27-.26a5.25,5.25,0,0,1-.28-5.63,5.35,5.35,0,0,1,3.21-2.53,5.57,5.57,0,0,1,1.45-.2,5.25,5.25,0,0,1,2.61.69,4.85,4.85,0,0,1,.4.28l.24-.25A5.64,5.64,0,0,0,447.23,98.36Z"/><path class="cls-14" d="M447.23,98.36a5.7,5.7,0,0,0-3.94,7,5.82,5.82,0,0,0,.83,1.74l.27-.26a5.25,5.25,0,0,1-.28-5.63,5.35,5.35,0,0,1,3.21-2.53,5.57,5.57,0,0,1,1.45-.2,5.25,5.25,0,0,1,2.61.69,4.85,4.85,0,0,1,.4.28l.24-.25A5.64,5.64,0,0,0,447.23,98.36Z"/><path class="cls-3" d="M453.9,102.39a5.33,5.33,0,0,1-7.75,6.09,5.2,5.2,0,0,1-1.76-1.63l-.27.26a5.74,5.74,0,0,0,4.65,2.41,5.44,5.44,0,0,0,1.53-.22A5.64,5.64,0,0,0,452,99.21l-.24.25A5.26,5.26,0,0,1,453.9,102.39Z"/><path class="cls-6" d="M453.9,102.39a5.33,5.33,0,0,1-7.75,6.09,5.2,5.2,0,0,1-1.76-1.63l-.27.26a5.74,5.74,0,0,0,4.65,2.41,5.44,5.44,0,0,0,1.53-.22A5.64,5.64,0,0,0,452,99.21l-.24.25A5.26,5.26,0,0,1,453.9,102.39Z"/><path class="cls-19" d="M453.9,102.39a5.33,5.33,0,0,1-7.75,6.09,5.2,5.2,0,0,1-1.76-1.63l-.27.26a5.74,5.74,0,0,0,4.65,2.41,5.44,5.44,0,0,0,1.53-.22A5.64,5.64,0,0,0,452,99.21l-.24.25A5.26,5.26,0,0,1,453.9,102.39Z"/><path class="cls-14" d="M453.9,102.39a5.33,5.33,0,0,1-7.75,6.09,5.2,5.2,0,0,1-1.76-1.63l-.27.26a5.74,5.74,0,0,0,4.65,2.41,5.44,5.44,0,0,0,1.53-.22A5.64,5.64,0,0,0,452,99.21l-.24.25A5.26,5.26,0,0,1,453.9,102.39Z"/></g></g></g></svg>