<svg id="Layer_1" data-name="Layer 1" xmlns="http://www.w3.org/2000/svg" xmlns:xlink="http://www.w3.org/1999/xlink" viewBox="0 0 46.37 50.93"><defs><style>.cls-1{fill:#ee2375;}.cls-2{fill:url(#linear-gradient);}.cls-3{fill:none;stroke:#fff;stroke-miterlimit:10;}</style><linearGradient id="linear-gradient" x1="11.73" y1="-0.16" x2="39.87" y2="42.64" gradientUnits="userSpaceOnUse"><stop offset="0" stop-color="#fff"/><stop offset="1" stop-color="#fff" stop-opacity="0"/></linearGradient></defs><title>pink-circle</title><circle class="cls-1" cx="28.45" cy="17.92" r="17.92"/><path class="cls-2" d="M10.53,17.92A17.91,17.91,0,0,0,28.45,35.83V0A17.92,17.92,0,0,0,10.53,17.92Z"/><path class="cls-1" d="M28.45,1A16.92,16.92,0,1,1,11.53,17.92,16.94,16.94,0,0,1,28.45,1m0-1A17.92,17.92,0,1,0,46.37,17.92,17.92,17.92,0,0,0,28.45,0Z"/><circle class="cls-1" cx="28.45" cy="17.92" r="6.58"/><circle class="cls-3" cx="28.45" cy="17.92" r="6.58"/><circle class="cls-1" cx="21.87" cy="26.87" r="2.37"/><circle class="cls-1" cx="2.37" cy="34.57" r="2.37"/><circle class="cls-1" cx="10.53" cy="49.75" r="1.19"/></svg>