<?xml version="1.0" encoding="UTF-8"?>
<svg width="148px" height="364px" viewBox="0 0 148 364" version="1.1" xmlns="http://www.w3.org/2000/svg" xmlns:xlink="http://www.w3.org/1999/xlink">
    <!-- Generator: Sketch 51.2 (57519) - http://www.bohemiancoding.com/sketch -->
    <title>Group 8</title>
    <desc>Created with Sketch.</desc>
    <defs>
        <polygon id="path-1" points="0 0.391994862 147.672286 0.391994862 147.672286 283.936957 0 283.936957"></polygon>
    </defs>
    <g id="Page-1" stroke="none" stroke-width="1" fill="none" fill-rule="evenodd">
        <g id="Group-8">
            <g id="Group-3">
                <mask id="mask-2" fill="white">
                    <use xlink:href="#path-1"></use>
                </mask>
                <g id="Clip-2"></g>
                <path d="M119.40051,113.001839 C139.744469,93.9017125 147.44651,70.0016484 147.44651,70.0016484 C147.44651,70.0016484 122.167204,77.0672162 101.823245,96.1688526 C89.8548776,107.404932 82.2645918,120.298348 78.040551,129.012196 L78.2368776,94.6715137 C86.2832449,91.7975891 104.345286,84.2399523 119.625531,69.89448 C139.96798,50.7958624 147.673041,26.894289 147.673041,26.894289 C147.673041,26.894289 122.390714,33.9628756 102.048265,53.0614931 C92.0220204,62.4772188 85.070551,73.0521745 80.5943061,81.3630089 C83.4063061,72.7940646 85.9691224,61.6877951 86.0340612,49.5279545 C86.1548776,26.5501425 77.3065918,7.21303752 74.5867143,1.81839126 L74.5867143,0.391994862 L73.0765102,0.391994862 L73.0765102,1.83650423 C70.3475714,7.25681053 61.5189184,26.5742932 61.6382245,49.5279545 C61.7031633,61.6877951 64.2674898,72.7940646 67.0794898,81.3630089 C62.6032449,73.0521745 55.6517755,62.4772188 45.6240204,53.0614931 C25.2815714,33.9628756 -0.000755102041,26.894289 -0.000755102041,26.894289 C-0.000755102041,26.894289 7.70430612,50.7958624 28.0482653,69.89448 C43.327,84.2399523 61.3890408,91.7975891 69.4354082,94.6715137 L69.6317347,129.012196 C65.4076939,120.298348 57.8189184,107.404932 45.850551,96.1688526 C25.5050816,77.0672162 0.22577551,70.0016484 0.22577551,70.0016484 C0.22577551,70.0016484 7.92781633,93.9017125 28.2717755,113.001839 C43.5656122,127.359387 61.6442653,134.917024 69.6815714,137.783401 L69.885449,173.597272 C65.6659388,164.878895 58.0711224,151.962838 46.0831224,140.707137 C25.7376531,121.60701 0.458346939,114.541442 0.458346939,114.541442 C0.458346939,114.541442 8.16189796,138.441506 28.5043469,157.541633 C43.8117755,171.911256 61.9100612,179.468893 69.9352857,182.332251 L70.1361429,217.566507 C65.9196531,208.851149 58.3203061,195.910941 46.3126735,184.638636 C25.9687143,165.538509 0.689408163,158.469923 0.689408163,158.469923 C0.689408163,158.469923 8.39144898,182.371496 28.7354082,201.470114 C44.0549184,215.854831 62.1698163,223.412468 70.1859796,226.269789 L70.5136939,283.936957 L73.8316122,283.920354 L73.8316122,269.001304 L73.8406735,269.001304 L73.8406735,283.920354 L77.1585918,283.936957 L77.4878163,226.269789 C85.5039796,223.412468 103.617367,215.854831 118.936878,201.470114 C139.280837,182.371496 146.984388,158.469923 146.984388,158.469923 C146.984388,158.469923 121.703571,165.538509 101.361122,184.638636 C89.3534898,195.910941 81.7526327,208.851149 77.5361429,217.566507 L77.7385102,182.332251 C85.7637347,179.468893 103.86202,171.911256 119.167939,157.541633 C139.510388,138.441506 147.213939,114.541442 147.213939,114.541442 C147.213939,114.541442 121.934633,121.60701 101.590673,140.707137 C89.6041837,151.962838 82.0078571,164.878895 77.7868367,173.597272 L77.9922245,137.783401 C86.0280204,134.917024 104.106673,127.359387 119.40051,113.001839" id="Fill-1" fill="#48B8AA" mask="url(#mask-2)"></path>
            </g>
            <polygon id="Fill-4" fill="#F969A4" points="82.4882637 268 74 268 65.510211 268 20 268 38.4331836 364 65.510211 364 74 364 82.4882637 364 109.566816 364 128 268"></polygon>
            <polygon id="Fill-6" fill="#EE2375" points="73.4954869 268 72.0001439 268 16 268 16 292 72.0001439 292 73.4954869 292 131 292 131 268"></polygon>
        </g>
    </g>
</svg>