<svg id="Layer_1" data-name="Layer 1" xmlns="http://www.w3.org/2000/svg" viewBox="0 0 74 363.43"><defs><style>.cls-1{fill:#40bead;}.cls-2{fill:#f969a4;}.cls-3{fill:#fff;}</style></defs><title>flower</title><path class="cls-1" d="M45.42,69.23C65.53,50.2,73.15,26.4,73.15,26.4s-25,7-45.11,26.06A110.94,110.94,0,0,0,6.83,80.65,105.27,105.27,0,0,0,12.2,48.94C12.34,22.8.91,1.39.15,0V282.39l3.28,0L3.75,225c7.93-2.84,25.84-10.37,41-24.69a113.49,113.49,0,0,0,27.73-42.83s-25,7-45.1,26.06A113.29,113.29,0,0,0,3.8,216.31l.2-35.1c7.94-2.85,25.83-10.38,41-24.69,20.12-19,27.73-42.83,27.73-42.83s-25,7-45.11,26.06A113.12,113.12,0,0,0,4.05,172.51l.2-35.67c8-2.85,25.82-10.38,40.94-24.68A113.49,113.49,0,0,0,72.92,69.33s-25,7-45.11,26.06A113.21,113.21,0,0,0,4.3,128.11L4.5,93.9C12.45,91,30.31,83.51,45.42,69.23Z" transform="translate(0.85 0)"/><polygon class="cls-2" points="9.3 267.54 0.99 267.54 0.99 363.43 9.3 363.43 35.81 363.43 53.85 267.54 9.3 267.54"/><rect class="cls-3" y="266.54" width="57.99" height="23.63"/></svg>