<svg id="Layer_1" data-name="Layer 1" xmlns="http://www.w3.org/2000/svg" viewBox="0 0 40.61 51.26"><defs><style>.cls-1,.cls-4{fill:none;stroke:#474747;stroke-miterlimit:10;}.cls-1{stroke-width:0.32px;}.cls-2{fill:#474747;}.cls-3{fill:#fcfcfc;}.cls-4{stroke-width:0.63px;}</style></defs><title>frame-02</title><polyline class="cls-1" points="31.43 9.73 21.3 1.14 9.65 9.73"/><path class="cls-2" d="M38.71,10.84V49.36H1.9V10.84H38.71m1.9-1.9H0V51.26H40.61V8.94Z"/><path class="cls-2" d="M37.23,12.37V47.83H3.37V12.37H37.23m.32-.32H3.06v36.1H37.55V12.05Z"/><path class="cls-3" d="M21.3,0a1.14,1.14,0,1,1-1.14,1.14A1.14,1.14,0,0,1,21.3,0"/><circle class="cls-3" cx="27.71" cy="35.8" r="4.5"/><line class="cls-4" x1="11.07" y1="17.59" x2="32.26" y2="17.59"/><line class="cls-4" x1="10.27" y1="23.12" x2="33.05" y2="23.12"/><line class="cls-1" x1="7.27" y1="28.6" x2="32.21" y2="28.6"/><line class="cls-4" x1="12.77" y1="44.83" x2="25.55" y2="44.83"/><line class="cls-4" x1="18.18" y1="20.21" x2="25.14" y2="20.21"/><path class="cls-2" d="M20,35.66v2H9.59v-2H20m.31-.32h-11V38h11V35.34Z"/></svg>