<svg id="Layer_1" data-name="Layer 1" xmlns="http://www.w3.org/2000/svg" xmlns:xlink="http://www.w3.org/1999/xlink" viewBox="0 0 250 232.14"><defs><style>.cls-1{fill:#fff;}.cls-2{opacity:0.6;}.cls-3{fill:url(#linear-gradient);}.cls-4{fill:url(#linear-gradient-2);}.cls-5{fill:url(#linear-gradient-3);}</style><linearGradient id="linear-gradient" x1="77.98" y1="110.47" x2="64.64" y2="229.8" gradientUnits="userSpaceOnUse"><stop offset="0" stop-color="#fff"/><stop offset="1" stop-color="#fff" stop-opacity="0"/></linearGradient><linearGradient id="linear-gradient-2" x1="98.5" y1="112.76" x2="85.16" y2="232.1" xlink:href="#linear-gradient"/><linearGradient id="linear-gradient-3" x1="100.93" y1="113.04" x2="87.6" y2="232.37" xlink:href="#linear-gradient"/></defs><title>poster</title><path class="cls-1" d="M125,44.28c65.18,0,118.21,40.62,118.21,90.54s-53,90.53-118.21,90.53S6.79,184.74,6.79,134.82,59.82,44.28,125,44.28m0-6.79C56,37.49,0,81.06,0,134.82s56,97.32,125,97.32,125-43.57,125-97.32S194,37.49,125,37.49Z"/><path class="cls-1" d="M125,57.93c56.79,0,103,34.49,103,76.89S181.79,211.7,125,211.7,22,177.21,22,134.82,68.21,57.93,125,57.93m0-3c-58.53,0-106,35.77-106,79.89S66.47,214.7,125,214.7s106-35.77,106-79.88S183.53,54.93,125,54.93Z"/><g class="cls-2"><path class="cls-1" d="M155.41,76.12a20.48,20.48,0,0,1,20.46,20.45v27.85l-1.67,1.76-.08.08h0l-2.92,3.08-1,1-.55.58v10.56l.43.54,5.32,6.82.27.36.4.2,23.22,11.77a25.27,25.27,0,0,1,12.95,15.95C193,199.42,160.44,212.7,125,212.7a135.92,135.92,0,0,1-32-3.77l3-17.44L96,191l1.81-10.67a26.9,26.9,0,0,1,2.3-7.22l.07-.17a27.52,27.52,0,0,1,4.11-6.15l.09-.1a26.93,26.93,0,0,1,8-6.14l14.1-7.16L131,151.1l0,0,4.06-2.07.09,0,.41-.21.45-.23.29-.41,4.29-6.18.36-.51V130.7l-.56-.58L135,124.41l0-6h0V96.57a20.43,20.43,0,0,1,20.46-20.45m0-2a22.36,22.36,0,0,0-9.26,2h0A22.45,22.45,0,0,0,133,96.57V116.4h0l0,8.81,6,6.29v9.3L134.67,147l-.41.21-.09,0-4.06,2.06-.05,0-4.46,2.26h0l-14.07,7.14a29.33,29.33,0,0,0-8.58,6.6.3.3,0,0,1-.08.08A29.87,29.87,0,0,0,98.41,172a1.42,1.42,0,0,1-.08.18A29.38,29.38,0,0,0,95.87,180l-1.81,10.67-.09.52-3.26,19.27A137.58,137.58,0,0,0,125,214.7c37.62,0,70.66-14.78,89.47-37a27.24,27.24,0,0,0-8-13.88l0,0a27.13,27.13,0,0,0-6.21-4.34L177,147.62l-5.32-6.82v-9.07l1-1,3-3.16h0l2.22-2.34V96.57a22.46,22.46,0,0,0-22.46-22.45Z"/><path class="cls-1" d="M178,105.07V113a4,4,0,1,0,0-7.91Z"/><path class="cls-1" d="M132.74,105.07a4,4,0,0,0,0,7.91v-7.91Z"/><path class="cls-1" d="M178,113.13v4.07a2,2,0,1,0,0-4.07Z"/><path class="cls-1" d="M132.74,113.13a2,2,0,0,0,0,4.07v-4.07Z"/></g><g class="cls-2"><path class="cls-3" d="M76.13,134.4a7.4,7.4,0,0,0,7.14-9,.77.77,0,0,1-.11-.39s0,0,0,0a7.32,7.32,0,1,0-7,9.4Z"/><path class="cls-4" d="M96.91,134.4a7.42,7.42,0,1,0-7-9.4v0a.87.87,0,0,1-.1.39,7.4,7.4,0,0,0,7.14,9Z"/><path class="cls-5" d="M125,214.7c3.24,0,6.44-.12,9.6-.33l-10.88-29.18a11.6,11.6,0,0,0-5.46-6.42l-3.92-2.12V120.37h0a30.28,30.28,0,0,0-4.13-15.3l4.05-6.21c.24-.37.1-.82-.27-.84l-7.16-.51a2.63,2.63,0,0,0-1.13-1.61,2.68,2.68,0,0,0-1.93-.39l-3.92-6c-.19-.3-.64-.23-.87.13l-2.29,3.52a26.7,26.7,0,0,0-10.27-2C71,91.08,58.5,104.22,58.5,120.44h0v56.31l-3.73,2a11.6,11.6,0,0,0-5.46,6.42l-1.9,4C66.77,204.9,94.36,214.7,125,214.7ZM76.56,165.19a3.66,3.66,0,0,1-1.91,2.89l-.08,0a.92.92,0,0,0-.72-.34,1,1,0,0,0-.95.94,1.1,1.1,0,0,0,0,.27l-2,1.09,0,0-2.2,1.18-1.18.64V140.79a20.45,20.45,0,0,0,1.75,4.2h.07a19.7,19.7,0,0,0,8.33,8.09Zm28.88,6.64-1.1-.59-2.19-1.18,0,0L100,168.94a.78.78,0,0,0,0-.22.94.94,0,0,0-.94-.94,1,1,0,0,0-.7.31,3.66,3.66,0,0,1-1.78-2.85l-1-12.27a19.68,19.68,0,0,0,8.1-8h.07a21.78,21.78,0,0,0,1.66-3.9ZM76.13,118A8.84,8.84,0,0,1,84,122.79a3.27,3.27,0,0,1,5.14,0,9,9,0,1,1-1,4.2,9,9,0,0,1,.27-2.16,1.8,1.8,0,0,0-3.6,0,8.84,8.84,0,1,1-8.59-6.8Z"/></g><polygon class="cls-1" points="68.13 53.07 66.42 51.16 123.43 0 171.34 46.54 169.56 48.38 123.36 3.5 68.13 53.07"/></svg>