<svg xmlns="http://www.w3.org/2000/svg" xmlns:xlink="http://www.w3.org/1999/xlink" viewBox="0 0 600 750"><defs><style>.cls-1{fill:#40bdac;}.cls-2{fill:#fff;}.cls-3{fill:#f969a4;}.cls-4{opacity:0.5;}.cls-5{fill:url(#linear-gradient);}.cls-6{fill:#474747;}.cls-7{fill:url(#linear-gradient-2);}.cls-8{fill:#fbbc23;}.cls-9{opacity:0.56;}.cls-10{fill:url(#linear-gradient-3);}.cls-11{opacity:0.34;}.cls-12{fill:url(#linear-gradient-4);}.cls-13{fill:url(#linear-gradient-5);}.cls-14{fill:#a3cbcc;}</style><linearGradient id="linear-gradient" x1="338.27" y1="600.36" x2="208.08" y2="659.18" gradientUnits="userSpaceOnUse"><stop offset="0" stop-color="#40bdac"/><stop offset="1" stop-color="#40bdac" stop-opacity="0"/></linearGradient><linearGradient id="linear-gradient-2" x1="438.88" y1="197.49" x2="436.58" y2="387.7" xlink:href="#linear-gradient"/><linearGradient id="linear-gradient-3" x1="300.32" y1="-48.52" x2="372.19" y2="30.07" gradientTransform="matrix(1, 0.06, -0.07, 1.01, 47.08, 255.98)" gradientUnits="userSpaceOnUse"><stop offset="0" stop-color="#fff"/><stop offset="1" stop-color="#fff" stop-opacity="0"/></linearGradient><linearGradient id="linear-gradient-4" x1="548" y1="228.71" x2="378.52" y2="279.68" gradientTransform="matrix(1, 0, 0, 1, 0, 0)" xlink:href="#linear-gradient-3"/><linearGradient id="linear-gradient-5" x1="277.6" y1="405.85" x2="458.28" y2="617.46" xlink:href="#linear-gradient"/></defs><title>Project Management</title><g id="Layer_2" data-name="Layer 2"><g id="Layer_1-2" data-name="Layer 1"><rect class="cls-1" width="600" height="750"/><path class="cls-2" d="M152.35,576.13l-5.63-10.29a4.79,4.79,0,0,1,2-6.54l8.89-4.68v-9.79a6.53,6.53,0,0,1,3.35-5.71l25.56-14.19a6.52,6.52,0,0,1,6.66.2l7,4.46,8.91-4.6a4.82,4.82,0,0,1,6.28,1.74l6.24,10.1Zm37.3-50.7a5.19,5.19,0,0,0-2.53.66l-25.56,14.19a5.21,5.21,0,0,0-2.67,4.55v10.58l-9.59,5.06a3.48,3.48,0,0,0-1.42,4.74l5,9.11,66.91-38-5.52-8.94a3.5,3.5,0,0,0-4.55-1.26l-9.58,5-7.69-4.88A5.17,5.17,0,0,0,189.65,525.43Zm-13.07,15.43a3.19,3.19,0,1,1,3.18-3.19A3.19,3.19,0,0,1,176.58,540.86Zm0-5.05a1.87,1.87,0,1,0,1.86,1.86A1.87,1.87,0,0,0,176.58,535.81Z"/><polygon class="cls-3" points="361.68 707.33 282.81 750 199.12 750 112.23 589.39 255.84 511.69 361.68 707.33"/><polygon class="cls-2" points="354.31 703.84 269 750 204.6 750 119.59 592.87 254.72 519.76 354.31 703.84"/><g class="cls-4"><polygon class="cls-5" points="354.31 703.84 269 750 204.6 750 119.59 592.87 254.72 519.76 354.31 703.84"/></g><rect class="cls-6" x="151.98" y="570.6" width="98.96" height="0.74" transform="translate(-253.35 171.3) rotate(-29.26)"/><rect class="cls-6" x="152.82" y="593.83" width="113.89" height="0.74" transform="translate(-263.64 178.32) rotate(-29.26)"/><rect class="cls-6" x="161.29" y="619.75" width="63.54" height="0.74" transform="translate(-278.44 173.46) rotate(-29.26)"/><rect class="cls-6" x="150.69" y="596.21" width="63.54" height="0.74" transform="translate(-268.29 165.28) rotate(-29.26)"/><rect class="cls-6" x="178.91" y="646.52" width="55.59" height="0.74" transform="translate(-289.79 183.55) rotate(-29.26)"/><rect class="cls-6" x="196.2" y="683.39" width="55.59" height="0.74" transform="translate(-305.6 196.7) rotate(-29.26)"/><rect class="cls-6" x="167.56" y="620.54" width="112.55" height="0.74" transform="translate(-274.9 188.6) rotate(-29.26)"/><rect class="cls-6" x="203.91" y="696.18" width="63.54" height="0.74" transform="translate(-310.36 204.04) rotate(-29.26)"/><rect class="cls-6" x="229.18" y="692.02" width="92.26" height="0.74" transform="translate(-303.27 222.88) rotate(-29.26)"/><rect class="cls-6" x="184.96" y="655.9" width="112.54" height="0.74" transform="translate(-289.97 201.62) rotate(-29.26)"/><rect class="cls-6" x="218.83" y="711.71" width="112.54" height="0.74" transform="translate(-312.92 225.29) rotate(-29.26)"/><path class="cls-3" d="M167.31,576.93a1.86,1.86,0,0,1-1.41-.65l-9-10.62,2.81-2.38,8,9.45,46.67-26.48-3.86-10.33,3.45-1.29,4.41,11.81a1.83,1.83,0,0,1-.82,2.24l-49.35,28A1.88,1.88,0,0,1,167.31,576.93Z"/><path class="cls-6" d="M475.68,299.28c-33-4.93-84.18-12.61-119.85-18.16a82.89,82.89,0,1,1,119.85,18.16Z"/><polygon class="cls-6" points="499.4 438.38 446.09 436.34 399.04 434.55 396.32 185.22 507 237.58 499.4 438.38"/><g class="cls-4"><path class="cls-7" d="M461.19,250.51h0a19.44,19.44,0,0,1-1.48,38.84v0a9.71,9.71,0,0,1-.74,19.37l-5.36,140.46-19.56-.75-35.92-1.37.89-23.47-2-175.58Z"/></g><path class="cls-6" d="M384.56,230.6,341.49,229l-3,79.34a2.9,2.9,0,0,0,2.9,3h26a5.48,5.48,0,0,1-4.68,5.21l-22.25,3.29a2.91,2.91,0,0,0-2.48,2.76L337,345.7a17.51,17.51,0,0,0,16.83,18.17l25.58,1A64.15,64.15,0,0,0,446,303.18l2.67-70.13Z"/><path class="cls-6" d="M437.21,190.68,433.3,294.83,333.69,291a7.82,7.82,0,0,1-6.88-10.91l15.29-35.36Z"/><path class="cls-8" d="M367.6,263.54a8.89,8.89,0,1,0-8.54-9.23A8.9,8.9,0,0,0,367.6,263.54Zm.59-15.46a6.58,6.58,0,1,1-6.82,6.32A6.59,6.59,0,0,1,368.19,248.08Z"/><polygon class="cls-6" points="351.91 246.85 385.37 247.1 385.61 241.68 352.46 233.99 351.91 246.85"/><g class="cls-9"><polygon class="cls-10" points="351.91 246.85 385.37 247.1 385.61 241.68 352.46 233.99 351.91 246.85"/></g><g class="cls-11"><path class="cls-12" d="M413.33,190.68l-9.52,28.23h0l-7.48,22.49,27.9.66-5.41,35.59,19.16.74,1.75-35.33,20.9.79v.06a25.56,25.56,0,0,1,24.58,26l-1.14,29.85c-.41,10.69,9.1,20.3,19.79,20.71l.74-19.65,2.29-60.39c.07-1,.13-2,.17-3A82.52,82.52,0,0,0,502,205.59Z"/></g><path class="cls-6" d="M460.44,258.18v23.54a11.77,11.77,0,0,0,0-23.54Z"/><path class="cls-2" d="M502.58,397l51.3,94a149.09,149.09,0,0,1,16.62,93.38L545.9,750H416.12l27-347.11Z"/><path class="cls-2" d="M397.53,415.32,362.2,479.6a257.71,257.71,0,0,0-31.38,140.2L338.93,750H492.49L461.15,402.89Z"/><g class="cls-4"><path class="cls-13" d="M553.88,491l-51.3-94-59.45,5.87-.28,3.57-45.32,8.86L362.2,479.6a257.71,257.71,0,0,0-31.38,140.2L338.93,750h207l24.6-165.63A149.09,149.09,0,0,0,553.88,491Z"/></g><path class="cls-6" d="M280.28,410.93l-7.13-42.36a20.56,20.56,0,0,0-17.29-16.92l-9.68-1.41A8,8,0,0,0,237.1,357h0a8,8,0,0,0,6.76,9.08l6.54,1,6.35,30.17Z"/><path class="cls-6" d="M333.59,708.75,329,587.24A161.88,161.88,0,0,1,346.07,509l39.66-82.55,5,2.39L351,511.41A156.47,156.47,0,0,0,334.54,587l4.57,121.5Z"/><path class="cls-14" d="M263.92,348,234.31,451.25a10.29,10.29,0,0,1-9.88,7.44h-24.5a10.28,10.28,0,0,1-9.81-13.32L225,333.1Z"/><path class="cls-14" d="M97.25,340v73.51l20.38-18.65c31.24-28.59,75.65-44.44,118-44.44H278A10.42,10.42,0,0,0,288.45,340V315.07H97.25Z"/><rect class="cls-2" x="288.45" y="297.03" width="11.54" height="36.07"/><path class="cls-6" d="M91.3,336.54a21.47,21.47,0,0,1,0-42.94v2.87a18.6,18.6,0,0,0,0,37.19Z"/><path class="cls-2" d="M278,279.75h-43v70.65h43A10.42,10.42,0,0,0,288.45,340V290.18h0A10.43,10.43,0,0,0,278,279.75Z"/><path class="cls-14" d="M288.45,298.83h-26.7a1.8,1.8,0,0,1,0-3.6h26.7a1.8,1.8,0,1,1,0,3.6Z"/><path class="cls-14" d="M288.45,316.87h-26.7a1.81,1.81,0,0,1,0-3.61h26.7a1.81,1.81,0,0,1,0,3.61Z"/><path class="cls-14" d="M288.45,334.91h-26.7a1.81,1.81,0,0,1,0-3.61h26.7a1.81,1.81,0,0,1,0,3.61Z"/><path class="cls-3" d="M224,383.84H209.66a1.44,1.44,0,0,1-1.43-1.44v-30h2.87V381H224Z"/><path class="cls-2" d="M97.25,415.63a2.23,2.23,0,0,1-.88-.18,2.18,2.18,0,0,1-1.29-2V216.67a2.17,2.17,0,0,1,3.63-1.6l20.38,18.65c30,27.47,73.58,43.86,116.53,43.86H278a12.61,12.61,0,0,1,12.6,12.6V340A12.61,12.61,0,0,1,278,352.55h-42.4c-43,0-86.51,16.4-116.53,43.86L98.71,415.06A2.13,2.13,0,0,1,97.25,415.63Zm2.16-194v187l16.76-15.33c30.79-28.18,75.45-45,119.45-45H278a8.28,8.28,0,0,0,8.27-8.26V290.18a8.28,8.28,0,0,0-8.27-8.27h-42.4c-44,0-88.66-16.82-119.45-45Z"/><path class="cls-2" d="M97.25,421.4a7.93,7.93,0,0,1-7.94-7.93V216.67a7.94,7.94,0,1,1,15.87,0v196.8A7.93,7.93,0,0,1,97.25,421.4Z"/><path class="cls-2" d="M238,300.44H189.66a.69.69,0,0,1-.69-.69v-7.93a.69.69,0,0,1,.69-.69H238a.68.68,0,0,1,.68.69v7.93A.68.68,0,0,1,238,300.44Zm-47.65-1.38h47v-6.55h-47Z"/><path class="cls-14" d="M97.25,335.74a1,1,0,0,1-1-1V255.84a1,1,0,1,1,2.06,0v78.87A1,1,0,0,1,97.25,335.74Z"/><circle class="cls-3" cx="246.21" cy="295.79" r="2.69"/><path class="cls-6" d="M398.71,396.06l-9,9.2a28.39,28.39,0,0,0-8.09,19.84v19.16L400.67,410Z"/><path class="cls-6" d="M336.35,708.64l11.23-17.55-6.24-130.85A55.17,55.17,0,0,1,346,538L395.8,418.46h-7.58L341.34,526.89l-9.44,50.54Z"/><polygon class="cls-2" points="398.71 396.06 507 365.92 507 405.11 386.21 443.39 398.71 396.06"/><rect class="cls-6" x="186.75" y="374.29" width="73.69" height="16.34" rx="8.17" ry="8.17" transform="translate(57.6 -28.29) rotate(8.31)"/><rect class="cls-6" x="177.79" y="391.34" width="73.69" height="16.34" rx="8.17" ry="8.17" transform="translate(59.97 -26.82) rotate(8.31)"/><rect class="cls-6" x="171.83" y="408.83" width="73.69" height="16.34" rx="8.17" ry="8.17" transform="matrix(0.99, 0.14, -0.14, 0.99, 62.43, -25.77)"/><rect class="cls-6" x="172.54" y="427.29" width="73.69" height="16.34" rx="8.17" ry="8.17" transform="translate(65.11 -25.68) rotate(8.31)"/><path class="cls-6" d="M226.39,374.61l32.37,4.72a22.83,22.83,0,0,1,19.14,18.43L303.61,536.7l-60.14-8.78-10.63-89Z"/><rect class="cls-6" x="212.55" y="389" width="40.04" height="52.51" transform="translate(62.43 -29.24) rotate(8.31)"/><path class="cls-2" d="M490.84,458.29h0a52.88,52.88,0,0,0-70.69,16.39L327,600,290.5,447.88l-60.95,9.49,35.28,216.74c5.84,27.69,28.21,44.7,52.39,47.4A59.22,59.22,0,0,0,370,700.13L504.87,537.77A52.89,52.89,0,0,0,490.84,458.29Z"/><rect class="cls-1" x="248.22" y="468.32" width="46.67" height="1.32" transform="translate(-104.07 78.36) rotate(-13.81)"/><path class="cls-8" d="M367.94,271.75a17.1,17.1,0,1,1,17.1-17.1A17.12,17.12,0,0,1,367.94,271.75Zm0-32.87a15.78,15.78,0,1,0,15.78,15.77A15.8,15.8,0,0,0,367.94,238.88Z"/><rect class="cls-8" x="383.71" y="250.01" width="64.32" height="1.32"/><path class="cls-8" d="M350.91,251.92c-.11-.22-2.83-5.4-10.13-4.16l-.23-1.31c8.29-1.4,11.51,4.81,11.54,4.87Z"/><path class="cls-6" d="M175.58,662.49h0a8.17,8.17,0,0,0-11.07-3.28l-15.34,8.95a8.16,8.16,0,0,0-3.07,11h0a8.17,8.17,0,0,0,11.29,3.15l14.91-8.69A8.16,8.16,0,0,0,175.58,662.49Z"/><path class="cls-6" d="M172.53,643.47a8.16,8.16,0,0,0-11.07-3.27l-21.18,12a8.16,8.16,0,0,0-3.14,11h0a8.16,8.16,0,0,0,11.21,3.2l20.91-11.89A8.16,8.16,0,0,0,172.53,643.47Z"/><path class="cls-6" d="M166.82,625.9a8.17,8.17,0,0,0-11.07-3.28l-24.23,14a8.16,8.16,0,0,0-3.09,11h0a8.16,8.16,0,0,0,11.25,3.17L163.54,637A8.16,8.16,0,0,0,166.82,625.9Z"/><path class="cls-6" d="M155.19,611.54h0a8.16,8.16,0,0,0-11.07-3.27l-21.19,12a8.17,8.17,0,0,0-3.13,11h0a8.16,8.16,0,0,0,11.21,3.2l20.9-11.89A8.17,8.17,0,0,0,155.19,611.54Z"/><rect class="cls-8" x="56.84" y="266.76" width="1.92" height="29.07" transform="translate(-154.3 87.7) rotate(-36)"/><rect class="cls-8" x="40.93" y="290.15" width="1.92" height="29.07" transform="translate(-260.83 250.37) rotate(-72)"/><rect class="cls-8" x="28.23" y="332" width="29.07" height="1.92" transform="translate(-100.81 29.51) rotate(-18)"/><rect class="cls-8" x="45.55" y="354.36" width="29.07" height="1.92" transform="translate(-262.69 195.06) rotate(-54)"/></g></g></svg>