<svg xmlns="http://www.w3.org/2000/svg" xmlns:xlink="http://www.w3.org/1999/xlink" viewBox="0 0 238.08 621.22"><defs><style>.cls-1{isolation:isolate;}.cls-2{fill:#40bead;}.cls-3,.cls-4{fill:#ee2375;}.cls-4{mix-blend-mode:multiply;}.cls-5{fill:#fff;}.cls-6{fill:url(#linear-gradient);}</style><linearGradient id="linear-gradient" x1="135.49" y1="384.79" x2="97.3" y2="617.16" gradientUnits="userSpaceOnUse"><stop offset="0" stop-color="#fff"/><stop offset="1" stop-color="#fff" stop-opacity="0"/></linearGradient></defs><title>roses1</title><g class="cls-1"><g id="Layer_1" data-name="Layer 1"><g id="roses"><rect class="cls-2" x="-164.97" y="322.27" width="567.01" height="6.4" transform="translate(-217.21 410.63) rotate(-84.22)"/><rect class="cls-2" x="-102.64" y="381.8" width="439.18" height="6.4" transform="translate(-284.82 362.93) rotate(-69.96)"/><path class="cls-2" d="M236.11,260s-17.11,16-36.32,14.32-33.25-20.46-33.25-20.46,17.11-16,36.32-14.32S236.11,260,236.11,260Z"/><path class="cls-2" d="M148.33,297.61s-14.27-1.56-21.15-11.16-3.76-23.61-3.76-23.61,14.27,1.56,21.14,11.16S148.33,297.61,148.33,297.61Z"/><path class="cls-2" d="M185.68,195.53s-14.27-1.56-21.14-11.16-3.77-23.61-3.77-23.61,14.27,1.56,21.15,11.16S185.68,195.53,185.68,195.53Z"/><path class="cls-2" d="M137.41,154.52s-26.09,4.94-43.44-8.35-19.38-39.76-19.38-39.76,26.09-4.94,43.44,8.35S137.41,154.52,137.41,154.52Z"/><path class="cls-3" d="M106,3.67h83.13a0,0,0,0,1,0,0V45.23a41.56,41.56,0,0,1-41.56,41.56h0A41.56,41.56,0,0,1,106,45.23V3.67a0,0,0,0,1,0,0Z" transform="translate(4.82 -13.47) rotate(5.31)"/><path class="cls-4" d="M118.69,75.11h0a41.41,41.41,0,0,0,25,11.51h0A41.57,41.57,0,0,0,189,49.08L192.8,7.69S140.06,21.55,118.69,75.11Z"/><path class="cls-4" d="M143.72,86.62h0a41.58,41.58,0,0,0,43.47-28.85C144.18,51.25,110,0,110,0l-3.85,41.38A41.57,41.57,0,0,0,143.72,86.62Z"/><path class="cls-5" d="M168.14,81.46c-30-40.2-20.75-77.75-20.65-78.12l1.74.45c-.09.37-9.09,37.12,20.35,76.59Z"/><path class="cls-5" d="M134.21,33.43a84.51,84.51,0,0,1-27.14-4.24l.65-1.69c.47.18,47.35,17.58,84.43-20.44l1.29,1.26C173.72,28.54,151.27,33.43,134.21,33.43Z"/><path class="cls-3" d="M199.63,138.92h0A29.09,29.09,0,0,1,228.72,168V197.1a0,0,0,0,1,0,0H170.54a0,0,0,0,1,0,0V168a29.09,29.09,0,0,1,29.09-29.09Z" transform="translate(312.9 403.06) rotate(-155.81)"/><path class="cls-4" d="M206.92,196.16h0a28.93,28.93,0,0,1-19.21-1.62h0a29.08,29.08,0,0,1-14.61-38.45L185,129.56S212.36,156.17,206.92,196.16Z"/><path class="cls-4" d="M187.71,194.54h0A29.1,29.1,0,0,1,171.17,162c28.45,10.85,66.91-8.6,66.91-8.6l-11.92,26.54A29.08,29.08,0,0,1,187.71,194.54Z"/><path class="cls-5" d="M179.82,183.41a42.13,42.13,0,0,1-5.54-.37l.17-1.25c32.64,4.37,53.66-32.47,53.87-32.84l1.1.61C229.22,149.92,210.13,183.41,179.82,183.41Z"/><path class="cls-5" d="M225.91,180.51c-.31-.14-31.83-14.14-41.51-50.79l1.22-.32c9.53,36.06,40.48,49.81,40.79,49.95Z"/><rect class="cls-2" x="105.04" y="182.15" width="6.4" height="439.18" transform="translate(-124.61 56.93) rotate(-18.95)"/><path class="cls-3" d="M35.93,152h0A29.09,29.09,0,0,1,65,181.07v29.09a0,0,0,0,1,0,0H6.84a0,0,0,0,1,0,0V181.07A29.09,29.09,0,0,1,35.93,152Z" transform="translate(116.96 346.94) rotate(165.19)"/><path class="cls-4" d="M59.32,198.36h0a29.06,29.06,0,0,1-16,10.84h0A29.1,29.1,0,0,1,7.81,188.51L.37,160.39S38.38,163.86,59.32,198.36Z"/><path class="cls-4" d="M43.37,209.2h0A29.1,29.1,0,0,1,10,194.31c28.93-9.47,46.58-48.79,46.58-48.79l7.44,28.12A29.09,29.09,0,0,1,43.37,209.2Z"/><path class="cls-5" d="M25.69,208.71,25,207.63c28.13-17.15,21.28-59,21.2-59.43l1.25-.21C47.55,148.42,54.55,191.11,25.69,208.71Z"/><path class="cls-5" d="M47.27,176.09A79.39,79.39,0,0,1,0,160.9l.75-1c30.09,22,62.8,13.24,63.13,13.15l.34,1.22A70.86,70.86,0,0,1,47.27,176.09Z"/><path class="cls-2" d="M99.51,268.64S87.44,271,79.37,264.9s-9.08-18.35-9.08-18.35,12.06-2.36,20.13,3.74S99.51,268.64,99.51,268.64Z"/><path class="cls-2" d="M101.57,256.52s-2-9.61,2.81-16.1S119,233,119,233s2,9.61-2.82,16.1S101.57,256.52,101.57,256.52Z"/><rect class="cls-2" x="108.89" y="221.76" width="5.3" height="397.92" transform="translate(-30.12 9.16) rotate(-4.15)"/><path class="cls-3" d="M96.09,189.34h0a21.25,21.25,0,0,1,21.25,21.25v21.25a0,0,0,0,1,0,0H74.83a0,0,0,0,1,0,0V210.6a21.25,21.25,0,0,1,21.25-21.25Z" transform="translate(216.49 408.3) rotate(173.18)"/><path class="cls-4" d="M111.25,225.49h0a21.12,21.12,0,0,1-12.64,6.21h0A21.25,21.25,0,0,1,75,213.12L72.46,192S99.61,198.39,111.25,225.49Z"/><path class="cls-4" d="M98.61,231.7h0A21.25,21.25,0,0,1,76,217.54C97.9,213.63,114.67,187,114.67,187l2.52,21.11A21.24,21.24,0,0,1,98.61,231.7Z"/><path class="cls-5" d="M85.87,229.55l-.37-.84c22.11-9.56,21.39-40.54,21.38-40.85l.93,0C107.82,188.15,108.54,219.75,85.87,229.55Z"/><path class="cls-5" d="M113,208.73c-8,0-25.91-1.81-40.89-16.38l.64-.66c19.53,19,44.11,16,44.35,15.93l.12.91A36.25,36.25,0,0,1,113,208.73Z"/><path class="cls-2" d="M141.86,106.34s2.12-14.19,12-20.68,23.74-2.82,23.74-2.82-2.12,14.19-12,20.68S141.86,106.34,141.86,106.34Z"/><path class="cls-5" d="M151.4,329.56l-12.79,21.58a34.09,34.09,0,0,0-1.19,32.72L205,519.41a55.56,55.56,0,0,1,.78,48.16l-22.56,49.17H35.33L12.77,567.57a55.56,55.56,0,0,1,.78-48.16L81.13,383.86a34.07,34.07,0,0,0-1.19-32.72L67.15,329.56H151.4m7.86-4.48h-100l16.8,28.34a29.73,29.73,0,0,1,1,28.45L9.55,517.41a60.25,60.25,0,0,0-.84,52l23.75,51.78H186.09l23.75-51.78a60.25,60.25,0,0,0-.84-52L141.42,381.87a29.73,29.73,0,0,1,1-28.45l16.8-28.34Z"/><path class="cls-6" d="M10.05,516.42l-.5,1a60.25,60.25,0,0,0-.84,52l23.75,51.78H186.09l23.75-51.78a60.25,60.25,0,0,0-.13-50.5l-5.4-2.52Z"/></g></g></g></svg>