<svg xmlns="http://www.w3.org/2000/svg" xmlns:xlink="http://www.w3.org/1999/xlink" viewBox="0 0 600 750"><defs><style>.cls-1{fill:#40bdac;}.cls-2{fill:#c1e2e5;}.cls-14,.cls-23,.cls-24,.cls-3,.cls-4{fill:#fff;}.cls-4{opacity:0.3;}.cls-5{fill:#474747;}.cls-6{fill:#fcc74a;}.cls-20,.cls-22,.cls-7{fill:#fbbc23;}.cls-11,.cls-7{opacity:0.5;}.cls-10,.cls-8{opacity:0.4;}.cls-10,.cls-18,.cls-19,.cls-9{fill:#a3cbcc;}.cls-12{opacity:0.48;}.cls-13,.cls-17{fill:#f969a4;}.cls-14{opacity:0.59;}.cls-15{fill:#a2cacc;}.cls-16{opacity:0.25;}.cls-17{opacity:0.51;}.cls-18{opacity:0.31;}.cls-19{opacity:0.29;}.cls-21{opacity:0.35;}.cls-22{opacity:0.47;}.cls-23{opacity:0.33;}.cls-24{opacity:0.7;}.cls-25{opacity:0.1;fill:url(#linear-gradient);}.cls-26{opacity:0.66;}</style><linearGradient id="linear-gradient" x1="561.64" y1="274.01" x2="516.47" y2="192.26" gradientUnits="userSpaceOnUse"><stop offset="0" stop-color="#fbbc23"/><stop offset="0.92" stop-color="#fbbc23" stop-opacity="0"/></linearGradient></defs><title>Secretarial</title><g id="Layer_2" data-name="Layer 2"><g id="Layer_1-2" data-name="Layer 1"><rect class="cls-1" width="600" height="750"/><path class="cls-2" d="M285.53,231l-89.94-32.88,1.07-.05-39.09,21a4,4,0,0,1-3.76-7,3.89,3.89,0,0,1,.42-.19l41.25-16.33.58-.23.5.18,89.93,32.89a1.4,1.4,0,1,1-1,2.63Z"/><path class="cls-2" d="M176.76,181.76l86,42.13.47.24.24.57,16.61,40.6a4,4,0,0,1-7.36,3c-.05-.14-.11-.3-.15-.44l-11.76-42.26.71.8-86-42.12a1.41,1.41,0,0,1,1.23-2.53Z"/><path class="cls-3" d="M258.2,260.33a28.24,28.24,0,1,1,25.86-16.9h0a28.32,28.32,0,0,1-25.86,16.9Zm0-51.79a23.55,23.55,0,1,0,21.54,33h0a23.59,23.59,0,0,0-12.11-31A23.35,23.35,0,0,0,258.24,208.54Z"/><path class="cls-3" d="M194.18,232.25a28.23,28.23,0,1,1,25.89-16.89h0A28.25,28.25,0,0,1,194.18,232.25Zm0-51.79a23.58,23.58,0,1,0,9.45,2A23.6,23.6,0,0,0,194.23,180.46Z"/><path class="cls-3" d="M238.66,214.64a22.1,22.1,0,0,0-18.36-8.06l-.43-7.47a29.65,29.65,0,0,1,24.58,10.78Z"/><rect class="cls-3" x="285.17" y="227.14" width="7.48" height="9.74" transform="translate(-39.61 403.4) rotate(-66.32)"/><rect class="cls-3" x="169.86" y="176.57" width="7.48" height="9.74" transform="translate(-62.29 267.54) rotate(-66.32)"/><rect class="cls-4" x="377.89" y="112.75" width="185.59" height="248.29" transform="matrix(0.99, -0.1, 0.1, 0.99, -21.64, 49.06)"/><path class="cls-1" d="M432.82,169.73a30.2,30.2,0,0,1,3,60.25c-1,.1-2.08.16-3.11.16a30.2,30.2,0,0,1-3-60.25,29.45,29.45,0,0,1,3.11-.16m0-1.63c-1.08,0-2.18.05-3.28.16a31.84,31.84,0,0,0,3.2,63.51c1.08,0,2.17-.06,3.27-.17a31.83,31.83,0,0,0-3.19-63.5Z"/><polygon class="cls-1" points="423.22 325.52 415.44 249.29 417.26 249.11 424.86 323.52 540.54 311.7 540.73 313.52 423.22 325.52"/><rect class="cls-1" x="436.74" y="255.56" width="18.05" height="66.57" transform="translate(-27.05 46.8) rotate(-5.83)"/><rect class="cls-1" x="503.5" y="256.33" width="18.05" height="59" transform="translate(-26.39 53.57) rotate(-5.83)"/><rect class="cls-1" x="470.4" y="270.38" width="17.58" height="48.38" transform="translate(-27.46 50.22) rotate(-5.83)"/><path class="cls-1" d="M408.14,220.08A31.77,31.77,0,0,0,436,231.6l-3.23-31.67Z"/><path class="cls-1" d="M401,198.42l31.8,1.51,7.83-30.86A31.84,31.84,0,0,0,401,198.42Z"/><path class="cls-1" d="M461.88,212.83a31.68,31.68,0,0,0,2.57-16.13l-31.67,3.23Z"/><path class="cls-1" d="M520.94,158.85a21.68,21.68,0,0,0-36.86,1.43L503,171l17.33,13A21.7,21.7,0,0,0,520.94,158.85Z"/><path class="cls-1" d="M503,171l-20.38,7.41A21.68,21.68,0,0,0,514.91,189Z"/><rect class="cls-5" x="321.28" y="80.06" width="73.4" height="137.05" rx="7.02" ry="7.02" transform="translate(133.24 -167.2) rotate(32.02)"/><path class="cls-6" d="M365.43,74.36h0a6.35,6.35,0,0,1,3.36,1l50.33,31.47a6.35,6.35,0,0,1,2,8.74L355.91,219.83a6.32,6.32,0,0,1-8.73,2l-50.33-31.47a6.34,6.34,0,0,1-2-8.73l65.22-104.3a6.33,6.33,0,0,1,5.38-3m0-.68a7,7,0,0,0-6,3.3L294.25,181.27a7,7,0,0,0,2.24,9.68l50.32,31.47a7,7,0,0,0,9.68-2.23L421.71,115.9a7,7,0,0,0-2.23-9.68L369.15,74.75a7,7,0,0,0-3.72-1.07Z"/><path class="cls-7" d="M327.58,192.14h0a5.07,5.07,0,1,1-4.31,2.38,5.09,5.09,0,0,1,4.31-2.38m0-1a6.06,6.06,0,1,0,3.21.92,6.07,6.07,0,0,0-3.21-.92Z"/><g class="cls-8"><rect class="cls-9" x="308.58" y="115.79" width="101.21" height="60.52" transform="translate(44.91 373.16) rotate(-57.98)"/></g><g class="cls-8"><circle class="cls-9" cx="386.9" cy="95.38" r="1.25"/></g><path class="cls-10" d="M397.47,102.67a.68.68,0,0,1-.36-.1l-7.44-4.66a.68.68,0,1,1,.72-1.15l7.44,4.65a.68.68,0,0,1,.22.94A.67.67,0,0,1,397.47,102.67Z"/><g class="cls-11"><rect class="cls-5" x="335.99" y="203.77" width="10.33" height="3.68" transform="matrix(0.85, 0.53, -0.53, 0.85, 160.91, -149.6)"/><path class="cls-6" d="M338,202.25l7.6,4.75-1.23,2-7.6-4.75,1.23-2m-.22-.94-1.95,3.12,8.76,5.47,1.95-3.12-8.76-5.47Z"/></g><g class="cls-11"><rect class="cls-5" x="308.99" y="186.88" width="10.33" height="3.68" transform="translate(147.85 -137.86) rotate(32.02)"/><path class="cls-6" d="M311,185.36l7.6,4.76-1.23,2-7.6-4.75,1.23-2m-.22-.94-1.95,3.12,8.76,5.48,1.95-3.12-8.76-5.48Z"/></g><g class="cls-12"><g class="cls-8"><polygon class="cls-9" points="361.58 199.3 369.37 186.84 343.91 113.4 336.12 125.86 361.58 199.3"/></g><g class="cls-8"><polygon class="cls-9" points="359.82 87.96 355.92 94.19 381.38 167.63 385.28 161.4 359.82 87.96"/></g></g><path class="cls-3" d="M89.94,568.34l-.27-.78-75.4-220.8,163.64-55.88.26.78,75.4,220.81ZM16.36,347.78,91,566.25l160.52-54.81L176.88,293Z"/><rect class="cls-13" x="26.24" y="439.94" width="101.04" height="50.15" transform="translate(-146.15 49.75) rotate(-18.85)"/><path class="cls-3" d="M251,467.88H88.74V239.7H251Zm-160.7-1.54H249.44V241.24H90.28Z"/><path class="cls-3" d="M129.76,261.11a.84.84,0,0,1,.76-.93.68.68,0,0,1,.72.68,1.1,1.1,0,0,1-.34.77,3.39,3.39,0,0,0,2.39.77c1.56,0,2.5-.84,2.5-2.12s-1.09-1.77-2.38-2.28c-1.83-.72-3.24-1.41-3.24-3.24,0-1.64,1.28-2.8,3.25-2.8,1.69,0,3.08,1,3.08,2.08a.74.74,0,0,1-.74.82.72.72,0,0,1-.75-.72,1,1,0,0,1,.3-.68,2.86,2.86,0,0,0-1.92-.65c-1.41,0-2.29.79-2.29,1.89,0,1.26,1.08,1.79,2.57,2.38,1.72.68,3.05,1.36,3.05,3.14s-1.49,3-3.46,3C131.14,263.25,129.76,262.06,129.76,261.11Z"/><path class="cls-3" d="M138.79,257.7a5.56,5.56,0,0,1,5.46-5.74c2.18,0,4,1.41,4,2.72a.9.9,0,0,1-.86.95.75.75,0,0,1-.75-.75.74.74,0,0,1,.55-.71,3.42,3.42,0,0,0-2.95-1.36,4.81,4.81,0,0,0,.06,9.61,5,5,0,0,0,3.48-1.39l.52.68a5.82,5.82,0,0,1-4,1.56A5.52,5.52,0,0,1,138.79,257.7Z"/><path class="cls-3" d="M150.3,262.24h1.46V253H150.3v-.83h3.86V253H152.7V257h6.5V253h-1.46v-.83h3.86V253h-1.46v9.25h1.46v.83h-3.86v-.83h1.46v-4.36h-6.5v4.36h1.46v.83H150.3Z"/><path class="cls-3" d="M163.33,262.24h1.46V253h-1.46v-.83h7.82v2.47h-.91V253h-4.51v4.09h3.7v.83h-3.7v4.33h4.51V260.6h.91v2.47h-7.82Z"/><path class="cls-3" d="M173.16,262.24h1.46V253h-1.46v-.83h4.06c3.75,0,6.26,2.12,6.26,5.34s-2.35,5.57-6.23,5.57h-4.09Zm4.18,0c3.46,0,5.18-2,5.18-4.77S180.45,253,177.2,253h-1.64v9.25Z"/><path class="cls-3" d="M186.54,259.4V253h-1.46v-.83h3.86V253h-1.49v6.33c0,2.07,1.08,3.08,3,3.08a2.71,2.71,0,0,0,3-3V253h-1.5v-.83h3.87V253h-1.46v6.35a3.59,3.59,0,0,1-3.93,3.93A3.51,3.51,0,0,1,186.54,259.4Z"/><path class="cls-3" d="M197.25,262.24h1.46V253h-1.46v-.83h3.94V253h-1.54v9.25h4.13v-1.72h.91v2.55h-7.44Z"/><path class="cls-3" d="M206.48,262.24h1.46V253h-1.46v-.83h7.82v2.47h-.91V253h-4.5v4.09h3.69v.83h-3.69v4.33h4.5V260.6h.91v2.47h-7.82Z"/><path class="cls-14" d="M230.67,418.72H109.56V278.6H230.67ZM110.25,418H230V279.29H110.25Z"/><rect class="cls-14" x="135.38" y="278.95" width="0.69" height="139.43"/><rect class="cls-14" x="135.72" y="298.36" width="94.6" height="0.69"/><rect class="cls-14" x="135.72" y="320.25" width="94.6" height="0.69"/><rect class="cls-14" x="135.72" y="340.64" width="94.6" height="0.69"/><path class="cls-15" d="M69,750,54.85,675.38a28.81,28.81,0,0,1,56.62-10.71l1.65,8.73a18.85,18.85,0,1,0,37-7L126,538.62A34.8,34.8,0,0,1,153.71,498l25.51-4.83.66,3.5-25.51,4.82A31.23,31.23,0,0,0,129.51,538l24.16,127.77a22.41,22.41,0,1,1-44,8.33L108,665.33a25.26,25.26,0,0,0-49.64,9.39L72.58,750Z"/><rect class="cls-3" x="167.91" y="434.69" width="329.67" height="197.68" rx="8.16" ry="8.16" transform="translate(-93.32 71.1) rotate(-10.71)"/><path class="cls-5" d="M470.68,399.2,155.3,458.83a4.83,4.83,0,0,1-5.53-3.36l-28-93a10.53,10.53,0,0,1,8.13-13.38l324.3-61.31a10.52,10.52,0,0,1,12.45,9.49l7.92,96.78A4.84,4.84,0,0,1,470.68,399.2Z"/><path class="cls-3" d="M456.2,295.53a2.62,2.62,0,0,1,2.59,2.39l7.68,94-309.92,58.6L129.39,360.2a2.59,2.59,0,0,1,.27-2.1,2.54,2.54,0,0,1,1.75-1.21L455.7,295.57a2.89,2.89,0,0,1,.5,0m0-7.93a10.19,10.19,0,0,0-2,.19L129.93,349.1a10.53,10.53,0,0,0-8.13,13.38l28,93a4.83,4.83,0,0,0,4.62,3.45,4.76,4.76,0,0,0,.91-.09L470.68,399.2a4.84,4.84,0,0,0,3.92-5.14l-7.92-96.78a10.53,10.53,0,0,0-10.48-9.68Z"/><rect class="cls-9" x="181.52" y="497.48" width="14.34" height="14.34" transform="translate(-90.47 43.84) rotate(-10.71)"/><rect class="cls-9" x="200.63" y="493.87" width="14.34" height="14.34" transform="translate(-89.46 47.33) rotate(-10.71)"/><rect class="cls-9" x="219.75" y="490.25" width="14.34" height="14.34" transform="translate(-88.46 50.81) rotate(-10.71)"/><rect class="cls-9" x="238.87" y="486.64" width="14.34" height="14.34" transform="translate(-87.45 54.3) rotate(-10.71)"/><rect class="cls-9" x="257.98" y="483.03" width="14.34" height="14.34" transform="translate(-86.45 57.79) rotate(-10.71)"/><rect class="cls-9" x="277.1" y="479.41" width="14.34" height="14.34" transform="translate(-85.45 61.28) rotate(-10.71)"/><rect class="cls-9" x="296.22" y="475.8" width="14.34" height="14.34" transform="translate(-84.44 64.77) rotate(-10.71)"/><rect class="cls-9" x="315.33" y="472.18" width="14.34" height="14.34" transform="translate(-83.44 68.26) rotate(-10.71)"/><rect class="cls-9" x="334.45" y="468.57" width="14.34" height="14.34" transform="translate(-82.43 71.74) rotate(-10.71)"/><rect class="cls-9" x="353.57" y="464.95" width="14.34" height="14.34" transform="translate(-81.43 75.23) rotate(-10.71)"/><rect class="cls-9" x="372.68" y="461.34" width="14.34" height="14.34" transform="translate(-80.42 78.72) rotate(-10.71)"/><rect class="cls-9" x="391.8" y="457.73" width="14.34" height="14.34" transform="translate(-79.42 82.21) rotate(-10.71)"/><rect class="cls-9" x="410.92" y="454.11" width="14.34" height="14.34" transform="translate(-78.42 85.7) rotate(-10.71)"/><rect class="cls-9" x="429.87" y="448.69" width="33.79" height="14.34" transform="translate(-76.91 90.93) rotate(-10.71)"/><rect class="cls-9" x="178.76" y="486.49" width="14.34" height="7.17" transform="translate(-87.81 43.07) rotate(-10.71)"/><rect class="cls-9" x="197.88" y="482.88" width="14.34" height="7.17" transform="translate(-86.8 46.56) rotate(-10.71)"/><rect class="cls-9" x="216.99" y="479.26" width="14.34" height="7.17" transform="translate(-85.8 50.05) rotate(-10.71)"/><rect class="cls-9" x="236.11" y="475.65" width="14.34" height="7.17" transform="translate(-84.79 53.54) rotate(-10.71)"/><rect class="cls-9" x="255.23" y="472.04" width="14.34" height="7.17" transform="translate(-83.79 57.03) rotate(-10.71)"/><rect class="cls-9" x="274.35" y="468.42" width="14.34" height="7.17" transform="translate(-82.79 60.51) rotate(-10.71)"/><rect class="cls-9" x="293.46" y="464.81" width="14.34" height="7.17" transform="translate(-81.78 64) rotate(-10.71)"/><rect class="cls-9" x="312.58" y="461.19" width="14.34" height="7.17" transform="translate(-80.78 67.49) rotate(-10.71)"/><rect class="cls-9" x="331.7" y="457.58" width="14.34" height="7.17" transform="translate(-79.77 70.98) rotate(-10.71)"/><rect class="cls-9" x="350.81" y="453.96" width="14.34" height="7.17" transform="translate(-78.77 74.47) rotate(-10.71)"/><rect class="cls-9" x="369.93" y="450.35" width="14.34" height="7.17" transform="translate(-77.76 77.96) rotate(-10.71)"/><rect class="cls-9" x="389.05" y="446.74" width="14.34" height="7.17" transform="translate(-76.76 81.44) rotate(-10.71)"/><rect class="cls-9" x="408.16" y="443.12" width="14.34" height="7.17" transform="translate(-75.76 84.93) rotate(-10.71)"/><rect class="cls-9" x="427.28" y="439.51" width="14.34" height="7.17" transform="translate(-74.75 88.42) rotate(-10.71)"/><rect class="cls-9" x="446.4" y="435.89" width="14.34" height="7.17" transform="translate(-73.75 91.91) rotate(-10.71)"/><rect class="cls-9" x="188.36" y="533.68" width="14.34" height="14.34" transform="translate(-97.07 45.74) rotate(-10.71)"/><rect class="cls-9" x="207.48" y="530.06" width="14.34" height="14.34" transform="translate(-96.07 49.23) rotate(-10.71)"/><rect class="cls-9" x="226.59" y="526.45" width="14.34" height="14.34" transform="translate(-95.06 52.72) rotate(-10.71)"/><rect class="cls-9" x="245.71" y="522.83" width="14.34" height="14.34" transform="translate(-94.06 56.2) rotate(-10.71)"/><rect class="cls-9" x="264.83" y="519.22" width="14.34" height="14.34" transform="translate(-93.05 59.69) rotate(-10.71)"/><rect class="cls-9" x="283.94" y="515.6" width="14.34" height="14.34" transform="translate(-92.05 63.18) rotate(-10.71)"/><rect class="cls-9" x="303.06" y="511.99" width="14.34" height="14.34" transform="translate(-91.05 66.67) rotate(-10.71)"/><rect class="cls-9" x="322.18" y="508.38" width="14.34" height="14.34" transform="translate(-90.04 70.16) rotate(-10.71)"/><rect class="cls-9" x="341.29" y="504.76" width="14.34" height="14.34" transform="translate(-89.04 73.65) rotate(-10.71)"/><rect class="cls-9" x="360.41" y="501.15" width="14.34" height="14.34" transform="translate(-88.03 77.13) rotate(-10.71)"/><rect class="cls-9" x="379.53" y="497.53" width="14.34" height="14.34" transform="translate(-87.03 80.62) rotate(-10.71)"/><rect class="cls-9" x="398.64" y="493.92" width="14.34" height="14.34" transform="translate(-86.02 84.11) rotate(-10.71)"/><rect class="cls-9" x="417.76" y="490.31" width="14.34" height="14.34" transform="translate(-85.02 87.6) rotate(-10.71)"/><rect class="cls-9" x="436.88" y="486.69" width="14.34" height="14.34" transform="translate(-84.02 91.09) rotate(-10.71)"/><rect class="cls-9" x="455.36" y="476.29" width="14.34" height="21.19" transform="translate(-82.4 94.4) rotate(-10.71)"/><rect class="cls-9" x="195.2" y="569.87" width="14.34" height="14.34" transform="translate(-103.68 47.64) rotate(-10.71)"/><rect class="cls-9" x="214.32" y="566.26" width="14.34" height="14.34" transform="translate(-102.67 51.13) rotate(-10.71)"/><rect class="cls-9" x="233.44" y="562.64" width="14.34" height="14.34" transform="translate(-101.67 54.62) rotate(-10.71)"/><rect class="cls-9" x="252.55" y="559.03" width="14.34" height="14.34" transform="translate(-100.66 58.11) rotate(-10.71)"/><rect class="cls-9" x="271.67" y="555.41" width="14.34" height="14.34" transform="translate(-99.66 61.59) rotate(-10.71)"/><rect class="cls-9" x="290.11" y="544.57" width="92.16" height="14.34" transform="translate(-96.65 72.06) rotate(-10.71)"/><rect class="cls-9" x="386.37" y="533.73" width="14.34" height="14.34" transform="translate(-93.63 82.52) rotate(-10.71)"/><rect class="cls-9" x="405.89" y="534.37" width="14.34" height="10.05" transform="translate(-93.01 86.12) rotate(-10.71)"/><rect class="cls-9" x="424.6" y="526.5" width="14.34" height="14.34" transform="translate(-91.63 89.5) rotate(-10.71)"/><rect class="cls-9" x="444.12" y="527.14" width="14.34" height="10.05" transform="translate(-91.01 93.1) rotate(-10.71)"/><rect class="cls-9" x="462.84" y="519.27" width="14.34" height="14.34" transform="translate(-89.62 96.48) rotate(-10.71)"/><rect class="cls-9" x="185.02" y="516.46" width="4.83" height="14.34" transform="translate(-94.01 43.94) rotate(-10.71)"/><rect class="cls-9" x="194.71" y="513.73" width="14.34" height="14.34" transform="translate(-93.26 46.57) rotate(-10.71)"/><rect class="cls-9" x="213.83" y="510.12" width="14.34" height="14.34" transform="translate(-92.25 50.06) rotate(-10.71)"/><rect class="cls-9" x="232.94" y="506.5" width="14.34" height="14.34" transform="translate(-91.25 53.55) rotate(-10.71)"/><rect class="cls-9" x="252.06" y="502.89" width="14.34" height="14.34" transform="translate(-90.24 57.04) rotate(-10.71)"/><rect class="cls-9" x="271.18" y="499.27" width="14.34" height="14.34" transform="translate(-89.24 60.53) rotate(-10.71)"/><rect class="cls-9" x="290.29" y="495.66" width="14.34" height="14.34" transform="translate(-88.23 64.01) rotate(-10.71)"/><rect class="cls-9" x="309.41" y="492.05" width="14.34" height="14.34" transform="translate(-87.23 67.5) rotate(-10.71)"/><rect class="cls-9" x="328.53" y="488.43" width="14.34" height="14.34" transform="translate(-86.23 70.99) rotate(-10.71)"/><rect class="cls-9" x="347.64" y="484.82" width="14.34" height="14.34" transform="translate(-85.22 74.48) rotate(-10.71)"/><rect class="cls-9" x="366.76" y="481.2" width="14.34" height="14.34" transform="translate(-84.22 77.97) rotate(-10.71)"/><rect class="cls-9" x="385.88" y="477.59" width="14.34" height="14.34" transform="translate(-83.21 81.46) rotate(-10.71)"/><rect class="cls-9" x="404.99" y="473.97" width="14.34" height="14.34" transform="translate(-82.21 84.94) rotate(-10.71)"/><rect class="cls-9" x="424.11" y="470.36" width="14.34" height="14.34" transform="translate(-81.2 88.43) rotate(-10.71)"/><rect class="cls-9" x="443.15" y="465.86" width="23.85" height="14.34" transform="translate(-79.95 92.77) rotate(-10.71)"/><rect class="cls-9" x="191.69" y="550.85" width="24.28" height="14.34" transform="translate(-100.12 47.58) rotate(-10.71)"/><rect class="cls-9" x="220.67" y="546.31" width="14.34" height="14.34" transform="translate(-98.86 51.96) rotate(-10.71)"/><rect class="cls-9" x="239.79" y="542.7" width="14.34" height="14.34" transform="translate(-97.85 55.45) rotate(-10.71)"/><rect class="cls-9" x="258.9" y="539.08" width="14.34" height="14.34" transform="matrix(0.98, -0.19, 0.19, 0.98, -96.85, 58.94)"/><rect class="cls-9" x="278.02" y="535.47" width="14.34" height="14.34" transform="translate(-95.84 62.43) rotate(-10.71)"/><rect class="cls-9" x="297.14" y="531.85" width="14.34" height="14.34" transform="translate(-94.84 65.91) rotate(-10.71)"/><rect class="cls-9" x="316.25" y="528.24" width="14.34" height="14.34" transform="translate(-93.83 69.4) rotate(-10.71)"/><rect class="cls-9" x="335.37" y="524.63" width="14.34" height="14.34" transform="translate(-92.83 72.89) rotate(-10.71)"/><rect class="cls-9" x="354.49" y="521.01" width="14.34" height="14.34" transform="translate(-91.83 76.38) rotate(-10.71)"/><rect class="cls-9" x="373.6" y="517.4" width="14.34" height="14.34" transform="translate(-90.82 79.87) rotate(-10.71)"/><rect class="cls-9" x="392.72" y="513.78" width="14.34" height="14.34" transform="translate(-89.82 83.36) rotate(-10.71)"/><rect class="cls-9" x="411.84" y="510.17" width="14.34" height="14.34" transform="translate(-88.81 86.85) rotate(-10.71)"/><rect class="cls-9" x="430.95" y="506.55" width="14.34" height="14.34" transform="translate(-87.81 90.33) rotate(-10.71)"/><rect class="cls-9" x="450.07" y="502.94" width="14.34" height="14.34" transform="translate(-86.81 93.82) rotate(-10.71)"/><rect class="cls-9" x="467.69" y="500.4" width="5.99" height="14.34" transform="translate(-86.1 96.28) rotate(-10.71)"/><circle class="cls-9" cx="292.82" cy="322.34" r="1.19"/><path class="cls-9" d="M307,626.71a5.29,5.29,0,0,1-5.18-4.3l-7.76-41a5.28,5.28,0,0,1,4.21-6.17L380,559.77a5.28,5.28,0,0,1,6.17,4.21L394,605a5.29,5.29,0,0,1-4.21,6.17l-.14-.78.14.78L308,626.61A4.75,4.75,0,0,1,307,626.71Zm74-65.45a3.23,3.23,0,0,0-.69.07l-81.74,15.45a3.61,3.61,0,0,0-2.36,1.55,3.67,3.67,0,0,0-.58,2.77l7.75,41a3.71,3.71,0,0,0,4.32,2.95l81.74-15.46a3.69,3.69,0,0,0,2.94-4.31l-7.75-41a3.74,3.74,0,0,0-1.55-2.37A3.7,3.7,0,0,0,381,561.26Z"/><path class="cls-9" d="M239.68,461a.79.79,0,0,1-.77-.65L237.14,451l1.56-.29,1.62,8.56,151.37-28.62-1.62-8.57,1.56-.29,1.77,9.34a.8.8,0,0,1-.63.93L239.83,461Z"/><path class="cls-9" d="M450.71,430a6.09,6.09,0,0,1-6-4.94h0a6.08,6.08,0,0,1,4.84-7.09,6.08,6.08,0,0,1,7.09,4.83,6.06,6.06,0,0,1-4.84,7.09A6.18,6.18,0,0,1,450.71,430Zm-5.18-5.09a5.28,5.28,0,0,0,6.17,4.2,5.28,5.28,0,0,0,4.2-6.16,5.28,5.28,0,0,0-10.37,2Z"/><g class="cls-16"><polygon class="cls-3" points="305.73 315.86 274.73 321.72 185.06 453.2 216.06 447.34 305.73 315.86"/><path class="cls-3" d="M385.84,415.24,466.62,296.8a10.53,10.53,0,0,0-6.22-8.31L372.2,417.82Z"/><polygon class="cls-3" points="359.27 305.74 341.47 309.11 251.8 440.59 269.6 437.22 359.27 305.74"/></g><path class="cls-17" d="M427,337.5l-2.44-15.45,14.75-2.54,1.94,15.41Zm-1.62-14.87,2.21,14,12.87-2.33-1.76-14Z"/><path class="cls-17" d="M259.47,408.68l-8.12-29.88,30.44-6.05,6,30.16Zm-7.23-29.33,7.74,28.5,26.93-5.49-5.68-28.78Z"/><polygon class="cls-18" points="176.29 366.29 265.15 349.93 272.23 384.53 188.69 399.73 176.29 366.29"/><polygon class="cls-19" points="294.42 346.37 307.18 410.69 424.93 389.06 414.14 323.53 294.42 346.37"/><path class="cls-6" d="M476.39,610.92l12.9-2.46,14.25,74.61,58-11.07L547.3,597.38,536.1,538.7l-1.89-9.89-8.45-44.29a8,8,0,0,0-9.39-6.37h0a8,8,0,0,0-6.37,9.38l8.45,44.28-5.37,1-9.84-51.58a8,8,0,0,0-9.38-6.37h0a8,8,0,0,0-6.38,9.38l9.85,51.58-5.37,1-11.8-61.81a8,8,0,0,0-9.38-6.37h0a8,8,0,0,0-6.38,9.38l11.8,61.81-5.37,1-11-57.87a8,8,0,0,0-9.38-6.37h0A8,8,0,0,0,444,486l11.69,61.25h0L461,574.91l-9.75,1.86-5.36-28.08a9.66,9.66,0,0,0-11.3-7.68h0a9.67,9.67,0,0,0-7.68,11.31l5.48,28.73a37.59,37.59,0,0,0,44,29.87Z"/><path class="cls-3" d="M518.46,493.67a4.8,4.8,0,0,1-4.69-3.89l-1.45-7.58,9.39-1.8,1.45,7.59a4.78,4.78,0,0,1-3.8,5.59A4.58,4.58,0,0,1,518.46,493.67Zm-5.78-11.23,1.4,7.29a4.47,4.47,0,1,0,8.78-1.68l-1.39-7.28Z"/><path class="cls-3" d="M496.19,490.59a4.79,4.79,0,0,1-4.69-3.88l-1.45-7.59,9.39-1.79,1.45,7.59a4.78,4.78,0,0,1-3.8,5.59A5.47,5.47,0,0,1,496.19,490.59Zm-5.77-11.22,1.39,7.28a4.47,4.47,0,1,0,8.78-1.68l-1.39-7.28Z"/><path class="cls-3" d="M473.15,485.47a4.8,4.8,0,0,1-4.7-3.88L467,474l9.4-1.79,1.44,7.58a4.79,4.79,0,0,1-3.8,5.6A5.45,5.45,0,0,1,473.15,485.47Zm-5.78-11.22,1.39,7.28a4.47,4.47,0,1,0,8.78-1.68l-1.39-7.28Z"/><path class="cls-3" d="M452.41,493.31a4.79,4.79,0,0,1-4.68-3.89l-1.45-7.58,9.39-1.79,1.45,7.58a4.78,4.78,0,0,1-3.8,5.6A5.59,5.59,0,0,1,452.41,493.31Zm-5.77-11.23,1.39,7.29a4.47,4.47,0,0,0,5.23,3.55,4.47,4.47,0,0,0,3.55-5.23l-1.38-7.28Z"/><path class="cls-3" d="M429.21,565.07l0-.15-3-15.5,10-1.9,1.11,5.81a10,10,0,0,1-8,11.71Zm-2.62-15.4,2.87,15A9.7,9.7,0,0,0,437,553.38l-1-5.5Z"/><path class="cls-6" d="M305.43,676.67,292,679.24,305.49,750H242.75l-11.31-59.19-11.71-61.24-2-10.32-6.07-31.76a8.36,8.36,0,0,1,6.65-9.79h0a8.37,8.37,0,0,1,9.79,6.65l6.07,31.76,5.6-1.07-2.56-13.39a8.36,8.36,0,0,1,6.65-9.79h0a8.37,8.37,0,0,1,9.79,6.65l2.56,13.39,5.61-1.08-8.14-42.56a8.37,8.37,0,0,1,6.65-9.79h0a8.37,8.37,0,0,1,9.79,6.65l8.14,42.56,5.6-1.07-11.54-60.38a8.36,8.36,0,0,1,6.65-9.79h0a8.37,8.37,0,0,1,9.79,6.64L301,607h0l5.51,28.83,10.17-1.94-5.6-29.3a10.08,10.08,0,0,1,8-11.8h0a10.08,10.08,0,0,1,11.8,8l5.73,30a39.23,39.23,0,0,1-31.16,45.89Z"/><path class="cls-3" d="M281.38,554.53a5,5,0,0,1-4.9-4L275,542.56l9.8-1.87,1.52,7.91a5,5,0,0,1-4.9,5.93Zm-6-11.71,1.45,7.6a4.68,4.68,0,0,0,5.46,3.7,4.66,4.66,0,0,0,3.71-5.46l-1.45-7.6Z"/><path class="cls-3" d="M219.82,592.23a5,5,0,0,1-4.9-4.05l-1-5.49,9.8-1.87,1.05,5.48a5,5,0,0,1-4,5.84A5.07,5.07,0,0,1,219.82,592.23ZM214.25,583l1,5.16a4.67,4.67,0,0,0,5.46,3.71,4.66,4.66,0,0,0,3.7-5.46l-1-5.16Z"/><path class="cls-3" d="M331.21,615.08a10.48,10.48,0,0,1-10.27-8.49l-1.16-6.06,10.43-2,3.12,16.32-.16,0A10.16,10.16,0,0,1,331.21,615.08Zm-11-14.29,1.1,5.74A10.14,10.14,0,0,0,333,614.61l-3-15.7Z"/><polygon class="cls-5" points="490.8 627.42 553.45 607.8 595.04 750 505.06 750 490.8 627.42"/><polygon class="cls-5" points="298.8 693.37 231.01 700.99 235.18 750 313.5 750 298.8 693.37"/><rect class="cls-5" x="538.94" y="392.23" width="1.39" height="85.67" transform="translate(-141.29 305.33) rotate(-28.09)"/><polygon class="cls-20" points="515.99 399.13 513.82 388.9 514.25 387.5 515.65 387.93 522.95 395.42 515.99 399.13"/><path class="cls-3" d="M522.66,396.36l54.2,101.54L571.12,501,516.93,399.42l5.73-3.06m.29-.94-7,3.71L570.84,501.9l6.95-3.71L523,395.42Z"/><circle class="cls-5" cx="514.74" cy="388.42" r="1.04"/><path class="cls-5" d="M566.27,493.34l14,26.25a3.93,3.93,0,0,0,5.33,1.62h0a3.93,3.93,0,0,0,1.62-5.33l-14-26.25Z"/><polygon class="cls-5" points="577.57 501.76 578.88 497.28 568.66 478.13 569.88 477.47 580.37 497.13 578.9 502.15 577.57 501.76"/><g class="cls-21"><path class="cls-5" d="M518.7,307.74a1.39,1.39,0,1,1,0-2.77,33.45,33.45,0,0,0,13.75-2.92,1.38,1.38,0,0,1,1.83.7,1.39,1.39,0,0,1-.7,1.83A36.34,36.34,0,0,1,518.7,307.74Z"/><path class="cls-5" d="M499.08,301.75a1.4,1.4,0,0,1-.78-.24c-.77-.52-1.53-1.08-2.27-1.66a1.39,1.39,0,1,1,1.73-2.17c.67.53,1.38,1.05,2.09,1.53a1.4,1.4,0,0,1,.38,1.93A1.41,1.41,0,0,1,499.08,301.75Z"/><path class="cls-5" d="M491.3,294.58a1.37,1.37,0,0,1-1.08-.52A36.48,36.48,0,1,1,548,293a1.39,1.39,0,0,1-1.94.28,1.37,1.37,0,0,1-.29-1.93,33.71,33.71,0,1,0-53.39,1,1.39,1.39,0,0,1-1.08,2.26Z"/></g><circle class="cls-3" cx="536.29" cy="240.78" r="44.46"/><circle class="cls-5" cx="536.29" cy="240.78" r="38.91"/><rect class="cls-3" x="557.58" y="277.36" width="13.14" height="26.36" transform="translate(-70.15 309.09) rotate(-28.92)"/><path class="cls-20" d="M563.46,253.17a2.9,2.9,0,0,1-1.41-5.44h0a2.9,2.9,0,1,1,2.81,5.07A2.88,2.88,0,0,1,563.46,253.17ZM562.21,248a2.58,2.58,0,1,0,2.49,4.51,2.58,2.58,0,0,0-.53-4.73,2.49,2.49,0,0,0-2,.22Z"/><path class="cls-3" d="M515.1,224.84a1.3,1.3,0,0,1-.63-2.43h0a1.3,1.3,0,0,1,1.76.51,1.3,1.3,0,0,1-.51,1.76A1.27,1.27,0,0,1,515.1,224.84Zm0-2.38a1.07,1.07,0,0,0-.52.14h0a1.09,1.09,0,1,0,1,1.9,1.09,1.09,0,0,0-.23-2A1,1,0,0,0,515.09,222.46Zm-.57,0Z"/><path class="cls-22" d="M503.56,238.53a1.68,1.68,0,0,1-.5-.07,1.83,1.83,0,0,1-1.08-.85,1.82,1.82,0,0,1-.15-1.37,1.77,1.77,0,0,1,.86-1.07,1.8,1.8,0,0,1,2.43.7,1.78,1.78,0,0,1-.7,2.44A1.75,1.75,0,0,1,503.56,238.53Zm0-3.21a1.36,1.36,0,0,0-.68.18h0a1.41,1.41,0,0,0,.29,2.6,1.4,1.4,0,0,0,1.08-.12,1.41,1.41,0,0,0,.55-1.93,1.44,1.44,0,0,0-1.24-.73Zm-.77,0Z"/><ellipse class="cls-23" cx="522.49" cy="276.09" rx="3.92" ry="3.67"/><circle class="cls-24" cx="552.9" cy="269.31" r="0.8"/><path class="cls-25" d="M505.23,198.48a50.25,50.25,0,0,1,42.44-1.66A48.94,48.94,0,0,1,565,209.24l1.76,2,1.57,2.15c.51.73,1.07,1.42,1.51,2.19l1.34,2.29a40.94,40.94,0,0,1,2.39,4.88c.38.83.63,1.73.93,2.59a21.64,21.64,0,0,1,.78,2.64l.61,2.68c.16.9.25,1.81.37,2.72l.16,1.36,0,1.36c0,.92.06,1.83,0,2.73a42.23,42.23,0,0,1-1.77,10.68,39.1,39.1,0,0,1-11.5,17.79,41,41,0,0,1-4.2,3.25c-.73.49-1.51.9-2.27,1.35a20.25,20.25,0,0,1-2.36,1.25c-.84.37-1.65.79-2.52,1.09l-2.6.86-2.67.61c-.89.19-1.8.26-2.7.39a31.64,31.64,0,0,1-20.53-5,31.25,31.25,0,0,1-7.69-7.26,24.52,24.52,0,0,1-1.49-2.17c-.44-.75-.89-1.51-1.31-2.27s-.77-1.65-1.11-2.49-.61-1.72-.83-2.6a25.28,25.28,0,0,1,3.46-20.54,24.48,24.48,0,0,1,7.6-7.19,20.29,20.29,0,0,1,10.15-3.07,20,20,0,0,1,10.21,2.46,19.58,19.58,0,0,1,7.38,7.24,15.61,15.61,0,0,1-6.61,22.35,12.71,12.71,0,0,1-5.1,1.17,12.36,12.36,0,0,1-9.26-3.92,11.86,11.86,0,0,1-2.59-4.37,9.86,9.86,0,0,1-.19-5.11,9.55,9.55,0,0,1,6.59-7.06,7.67,7.67,0,0,1,4.94.34,7.53,7.53,0,0,1,3.65,3.21,6.05,6.05,0,0,1,.6,4.77,5.88,5.88,0,0,1-3,3.62l-.46-.82a4.8,4.8,0,0,0,2.22-3.12,4.59,4.59,0,0,0-.74-3.62,5.73,5.73,0,0,0-6.61-2.26,6.74,6.74,0,0,0-2.95,2.17,6.92,6.92,0,0,0-1.07,6.85,8.57,8.57,0,0,0,8.65,5.18,8.23,8.23,0,0,0,3.29-1,11.55,11.55,0,0,0,2.78-2.24,10.83,10.83,0,0,0,2.6-6.42,10.28,10.28,0,0,0-1.92-6.47,13.17,13.17,0,0,0-5.31-4.49,13,13,0,0,0-6.71-1.09,11.78,11.78,0,0,0-3.26.79l-.77.33c-.25.11-.49.26-.73.39a12.4,12.4,0,0,0-1.47.93,16.31,16.31,0,0,0-4.65,5.11,16,16,0,0,0-1.24,13.08c.17.52.43,1,.62,1.53l.79,1.45,1,1.45c.3.49.74.89,1.09,1.35a20.61,20.61,0,0,0,5.32,4.31,19.77,19.77,0,0,0,13,2.18c.53-.13,1.08-.19,1.61-.35l1.56-.49,1.51-.64c.5-.2,1-.52,1.44-.77a10.41,10.41,0,0,0,1.44-.91c.47-.34,1-.63,1.42-1a25.41,25.41,0,0,0,2.54-2.32,24.67,24.67,0,0,0,6.41-11.75,26.89,26.89,0,0,0,.58-6.61c0-.55-.12-1.1-.17-1.64l-.08-.82-.17-.8c-.12-.53-.2-1.07-.34-1.6l-.49-1.55A10.39,10.39,0,0,0,559,231c-.22-.49-.38-1-.65-1.48a25.17,25.17,0,0,0-1.71-2.84l-1-1.43a17.1,17.1,0,0,0-1.09-1.33l-1.1-1.31-1.23-1.18a30.18,30.18,0,0,0-24.51-8.3,29.52,29.52,0,0,0-12.13,4.19Z"/><g class="cls-26"><circle class="cls-5" cx="556.71" cy="334.41" r="1.9"/><circle class="cls-5" cx="543.46" cy="368.1" r="5.71"/></g></g></g></svg>