<svg id="Layer_1" data-name="Layer 1" xmlns="http://www.w3.org/2000/svg" viewBox="0 0 2439.91 1040.38"><defs><style>.cls-1{fill:#fff;}.cls-11,.cls-12,.cls-13,.cls-14,.cls-2,.cls-3,.cls-4,.cls-6,.cls-7,.cls-8,.cls-9{fill:none;stroke:#fff;}.cls-2{stroke-miterlimit:10;}.cls-2,.cls-3{stroke-width:2px;}.cls-11,.cls-12,.cls-13,.cls-14,.cls-3,.cls-4,.cls-6,.cls-7,.cls-8,.cls-9{stroke-linejoin:bevel;}.cls-4{stroke-width:1.46px;}.cls-5{opacity:0.72;}.cls-6{stroke-width:2.33px;}.cls-7{stroke-width:3px;}.cls-9{stroke-width:0.5px;}.cls-10{opacity:0.56;}.cls-11{stroke-width:3.65px;}.cls-12{stroke-width:1.62px;}.cls-13{stroke-width:1.01px;}.cls-14{stroke-width:1.73px;}</style></defs><title>snow</title><circle class="cls-1" cx="2085.96" cy="340.5" r="12.73"/><circle class="cls-1" cx="1981.94" cy="221.63" r="12.73"/><circle class="cls-1" cx="2093.13" cy="583.03" r="8.69"/><circle class="cls-1" cx="285.91" cy="116.17" r="8.69"/><circle class="cls-1" cx="2319.8" cy="1031.7" r="8.69"/><circle class="cls-1" cx="2052.41" cy="180.27" r="8.69"/><circle class="cls-1" cx="630.96" cy="872.31" r="8.69"/><circle class="cls-1" cx="1685.64" cy="814.23" r="12.73"/><circle class="cls-1" cx="116.18" cy="669.4" r="12.73"/><circle class="cls-1" cx="379.55" cy="479.21" r="12.73"/><circle class="cls-1" cx="2331.7" cy="635.63" r="20.59"/><circle class="cls-1" cx="632.86" cy="609.12" r="20.59"/><circle class="cls-2" cx="1822.6" cy="480.19" r="8.2"/><circle class="cls-2" cx="2386.71" cy="960.6" r="8.2"/><circle class="cls-2" cx="2163.13" cy="369.68" r="8.2"/><circle class="cls-2" cx="1576.66" cy="712.47" r="8.2"/><circle class="cls-2" cx="447.26" cy="424.87" r="8.2"/><circle class="cls-2" cx="306.25" cy="705.26" r="8.2"/><circle class="cls-2" cx="60.22" cy="575.66" r="8.2"/><circle class="cls-2" cx="442.15" cy="62.5" r="8.2"/><line class="cls-3" x1="520.6" y1="530.43" x2="582.96" y2="530.43"/><polyline class="cls-3" points="581.82 541.52 570.72 530.42 581.82 519.33"/><polyline class="cls-3" points="573.47 539.34 564.55 530.42 573.47 521.51"/><polyline class="cls-3" points="521.74 519.33 532.83 530.42 521.74 541.52"/><polyline class="cls-3" points="530.09 521.51 539.01 530.42 530.09 539.34"/><line class="cls-3" x1="536.05" y1="557.19" x2="567.23" y2="503.19"/><polyline class="cls-3" points="576.27 509.72 561.12 513.78 557.05 498.63"/><polyline class="cls-3" points="570.21 515.87 558.03 519.13 554.76 506.95"/><polyline class="cls-3" points="527.01 550.66 542.17 546.6 546.23 561.75"/><polyline class="cls-3" points="533.08 544.51 545.26 541.25 548.52 553.43"/><line class="cls-3" x1="566.96" y1="557.19" x2="535.78" y2="503.19"/><polyline class="cls-3" points="545.96 498.63 541.9 513.78 526.74 509.72"/><polyline class="cls-3" points="548.25 506.95 544.99 519.13 532.81 515.87"/><polyline class="cls-3" points="556.78 561.75 560.85 546.6 576 550.66"/><polyline class="cls-3" points="554.49 553.43 557.76 541.25 569.94 544.51"/><line class="cls-4" x1="1881.37" y1="429.43" x2="1918.8" y2="429.43"/><polyline class="cls-4" points="1918.12 436.09 1911.46 429.43 1918.12 422.77"/><polyline class="cls-4" points="1913.1 434.78 1907.75 429.43 1913.1 424.08"/><polyline class="cls-4" points="1882.05 422.77 1888.71 429.43 1882.05 436.09"/><polyline class="cls-4" points="1887.07 424.08 1892.42 429.43 1887.07 434.78"/><line class="cls-4" x1="1890.65" y1="445.5" x2="1909.36" y2="413.08"/><polyline class="cls-4" points="1914.79 417 1905.69 419.44 1903.25 410.34"/><polyline class="cls-4" points="1911.15 420.69 1903.84 422.65 1901.88 415.34"/><polyline class="cls-4" points="1885.22 441.57 1894.32 439.13 1896.76 448.23"/><polyline class="cls-4" points="1888.86 437.88 1896.17 435.93 1898.13 443.24"/><line class="cls-4" x1="1909.2" y1="445.5" x2="1890.48" y2="413.08"/><polyline class="cls-4" points="1896.59 410.34 1894.15 419.44 1885.06 417"/><polyline class="cls-4" points="1897.97 415.34 1896.01 422.65 1888.7 420.69"/><polyline class="cls-4" points="1903.09 448.23 1905.53 439.13 1914.62 441.57"/><polyline class="cls-4" points="1901.71 443.24 1903.67 435.93 1910.98 437.88"/><g class="cls-5"><line class="cls-4" x1="703.27" y1="960.74" x2="740.7" y2="960.74"/><polyline class="cls-4" points="740.02 967.4 733.36 960.74 740.02 954.08"/><polyline class="cls-4" points="735.01 966.09 729.65 960.74 735.01 955.39"/><polyline class="cls-4" points="703.96 954.08 710.62 960.74 703.96 967.4"/><polyline class="cls-4" points="708.97 955.39 714.32 960.74 708.97 966.09"/><line class="cls-4" x1="712.55" y1="976.81" x2="731.27" y2="944.39"/><polyline class="cls-4" points="736.69 948.32 727.59 950.75 725.16 941.66"/><polyline class="cls-4" points="733.05 952 725.74 953.96 723.78 946.65"/><polyline class="cls-4" points="707.13 972.89 716.22 970.45 718.66 979.55"/><polyline class="cls-4" points="710.76 969.2 718.08 967.24 720.03 974.55"/><line class="cls-4" x1="731.1" y1="976.81" x2="712.39" y2="944.39"/><polyline class="cls-4" points="718.5 941.66 716.06 950.75 706.96 948.32"/><polyline class="cls-4" points="719.87 946.65 717.91 953.96 710.6 952"/><polyline class="cls-4" points="724.99 979.55 727.43 970.45 736.53 972.89"/><polyline class="cls-4" points="723.62 974.55 725.58 967.24 732.89 969.2"/></g><line class="cls-6" x1="2137.72" y1="89.66" x2="2215.97" y2="170.56"/><polyline class="cls-6" points="2200.14 183 2200.61 154.69 2228.93 155.16"/><polyline class="cls-6" points="2192.49 169.44 2192.87 146.68 2215.62 147.06"/><polyline class="cls-6" points="2153.54 77.22 2153.07 105.53 2124.76 105.06"/><polyline class="cls-6" points="2161.19 90.79 2160.82 113.54 2138.06 113.17"/><line class="cls-6" x1="2122.38" y1="143.3" x2="2231.57" y2="115.98"/><polyline class="cls-6" points="2234.43 135.91 2210.15 121.34 2224.71 97.06"/><polyline class="cls-6" points="2218.86 135.75 2199.34 124.05 2211.04 104.53"/><polyline class="cls-6" points="2119.52 123.37 2143.81 137.94 2129.24 162.22"/><polyline class="cls-6" points="2135.1 123.53 2154.61 135.24 2142.91 154.75"/><line class="cls-6" x1="2161.17" y1="183.4" x2="2192.1" y2="75.18"/><polyline class="cls-6" points="2210.79 82.66 2186.03 96.41 2172.28 71.66"/><polyline class="cls-6" points="2202.87 96.08 2182.97 107.13 2171.92 87.23"/><polyline class="cls-6" points="2142.48 175.91 2167.24 162.16 2180.99 186.92"/><polyline class="cls-6" points="2150.4 162.5 2170.3 151.45 2181.35 171.35"/><line class="cls-7" y1="335.13" x2="80.5" y2="335.13"/><polyline class="cls-7" points="79.03 349.45 64.7 335.13 79.03 320.81"/><polyline class="cls-7" points="68.25 346.64 56.73 335.13 68.25 323.62"/><polyline class="cls-7" points="1.47 320.81 15.79 335.13 1.47 349.45"/><polyline class="cls-7" points="12.25 323.62 23.76 335.13 12.25 346.64"/><line class="cls-7" x1="19.95" y1="369.68" x2="60.2" y2="299.97"/><polyline class="cls-7" points="71.86 308.41 52.3 313.65 47.06 294.08"/><polyline class="cls-7" points="64.04 316.34 48.32 320.55 44.1 304.83"/><polyline class="cls-7" points="8.28 361.25 27.85 356 33.09 375.57"/><polyline class="cls-7" points="16.11 353.32 31.83 349.1 36.04 364.83"/><line class="cls-7" x1="59.85" y1="369.68" x2="19.6" y2="299.97"/><polyline class="cls-7" points="32.74 294.08 27.5 313.65 7.93 308.41"/><polyline class="cls-7" points="35.69 304.83 31.48 320.55 15.76 316.34"/><polyline class="cls-7" points="46.71 375.57 51.95 356 71.52 361.25"/><polyline class="cls-7" points="43.75 364.83 47.97 349.1 63.69 353.32"/><line class="cls-8" x1="197.41" y1="35.04" x2="265.88" y2="35.04"/><polyline class="cls-8" points="264.63 47.23 252.45 35.04 264.63 22.86"/><polyline class="cls-8" points="255.46 44.83 245.67 35.04 255.46 25.25"/><polyline class="cls-8" points="198.66 22.86 210.84 35.04 198.66 47.23"/><polyline class="cls-8" points="207.83 25.25 217.62 35.04 207.83 44.83"/><line class="cls-8" x1="214.38" y1="64.43" x2="248.61" y2="5.14"/><polyline class="cls-8" points="258.54 12.31 241.9 16.77 237.44 0.13"/><polyline class="cls-8" points="251.88 19.06 238.51 22.64 234.92 9.27"/><polyline class="cls-8" points="204.46 57.26 221.1 52.8 225.56 69.44"/><polyline class="cls-8" points="211.11 50.51 224.49 46.93 228.07 60.3"/><line class="cls-8" x1="248.32" y1="64.43" x2="214.08" y2="5.14"/><polyline class="cls-8" points="225.26 0.13 220.8 16.77 204.16 12.31"/><polyline class="cls-8" points="227.77 9.27 224.19 22.64 210.81 19.06"/><polyline class="cls-8" points="237.14 69.44 241.6 52.8 258.24 57.26"/><polyline class="cls-8" points="234.63 60.3 238.21 46.93 251.59 50.51"/><line class="cls-9" x1="2405.39" y1="558.76" x2="2439.91" y2="558.76"/><polyline class="cls-9" points="2439.28 564.9 2433.14 558.76 2439.28 552.62"/><polyline class="cls-9" points="2434.66 563.7 2429.72 558.76 2434.66 553.82"/><polyline class="cls-9" points="2406.02 552.62 2412.16 558.76 2406.02 564.9"/><polyline class="cls-9" points="2410.64 553.82 2415.58 558.76 2410.64 563.7"/><line class="cls-9" x1="2413.95" y1="573.58" x2="2431.21" y2="543.68"/><polyline class="cls-9" points="2436.21 547.3 2427.82 549.55 2425.57 541.15"/><polyline class="cls-9" points="2432.86 550.7 2426.11 552.51 2424.31 545.76"/><polyline class="cls-9" points="2408.94 569.96 2417.33 567.71 2419.58 576.1"/><polyline class="cls-9" points="2412.3 566.56 2419.04 564.75 2420.85 571.5"/><line class="cls-9" x1="2431.06" y1="573.58" x2="2413.8" y2="543.68"/><polyline class="cls-9" points="2419.43 541.15 2417.18 549.55 2408.79 547.3"/><polyline class="cls-9" points="2420.7 545.76 2418.89 552.51 2412.15 550.7"/><polyline class="cls-9" points="2425.42 576.1 2427.67 567.71 2436.06 569.96"/><polyline class="cls-9" points="2424.16 571.5 2425.96 564.75 2432.71 566.56"/><g class="cls-10"><line class="cls-11" x1="2308.78" y1="371.22" x2="2416.67" y2="407.33"/><polyline class="cls-11" points="2399.01 418.57 2388.75 397.99 2409.34 387.72"/><rect class="cls-1" x="2405.58" y="395.36" width="23.46" height="23.46" transform="translate(72.28 1121.21) rotate(-26.5)"/><polyline class="cls-11" points="2326.57 359.57 2336.84 380.16 2316.25 390.42"/><rect class="cls-1" x="2296.55" y="359.32" width="23.46" height="23.46" transform="translate(4539.64 -326.68) rotate(153.5)"/><line class="cls-11" x1="2320.06" y1="426.68" x2="2405.27" y2="351.31"/><polyline class="cls-11" points="2406.19 372.22 2383.22 370.81 2384.63 347.85"/><rect class="cls-1" x="2393.66" y="338.9" width="23.46" height="23.46" transform="translate(1908.41 2730.1) rotate(-86.5)"/><polyline class="cls-11" points="2318.87 405.45 2341.83 406.86 2340.42 429.82"/><rect class="cls-1" x="2307.93" y="415.31" width="23.46" height="23.46" transform="translate(2887.67 -1862.19) rotate(93.5)"/><line class="cls-11" x1="2373.73" y1="444.65" x2="2351.06" y2="333.16"/><polyline class="cls-11" points="2369.63 342.83 2356.93 362.01 2337.74 349.31"/><rect class="cls-1" x="2338.8" y="320.99" width="23.46" height="23.46" transform="translate(4126.86 1907.65) rotate(-146.5)"/><polyline class="cls-11" points="2354.75 435.06 2367.45 415.88 2386.63 428.58"/><rect class="cls-1" x="2362.11" y="433.44" width="23.46" height="23.46" transform="translate(640.15 -1236.38) rotate(33.5)"/><polygon class="cls-11" points="2377.46 375.95 2358.98 369.77 2344.38 382.68 2348.26 401.79 2366.75 407.97 2381.35 395.06 2377.46 375.95"/></g><g class="cls-10"><line class="cls-12" x1="127.76" y1="733.78" x2="175.52" y2="749.77"/><polyline class="cls-12" points="167.71 754.75 163.16 745.63 172.28 741.09"/><rect class="cls-1" x="170.61" y="744.47" width="10.39" height="10.39" transform="translate(-315.99 157.18) rotate(-26.5)"/><polyline class="cls-12" points="135.63 728.62 140.18 737.74 131.06 742.28"/><rect class="cls-1" x="122.34" y="728.51" width="10.39" height="10.39" transform="translate(569.01 1333.45) rotate(153.5)"/><line class="cls-12" x1="132.75" y1="758.34" x2="170.48" y2="724.96"/><polyline class="cls-12" points="170.88 734.22 160.72 733.6 161.34 723.43"/><rect class="cls-1" x="165.34" y="719.47" width="10.39" height="10.39" transform="translate(-563.2 850.59) rotate(-86.5)"/><polyline class="cls-12" points="132.22 748.93 142.39 749.56 141.77 759.72"/><rect class="cls-1" x="127.38" y="753.3" width="10.39" height="10.39" transform="translate(897.75 672.52) rotate(93.5)"/><line class="cls-12" x1="156.51" y1="766.29" x2="146.48" y2="716.93"/><polyline class="cls-12" points="154.7 721.21 149.07 729.7 140.58 724.08"/><rect class="cls-1" x="141.05" y="711.54" width="10.39" height="10.39" transform="translate(-127.44 1395.11) rotate(-146.5)"/><polyline class="cls-12" points="148.11 762.05 153.73 753.55 162.22 759.17"/><rect class="cls-1" x="151.37" y="761.33" width="10.39" height="10.39" transform="translate(449.13 40.94) rotate(33.5)"/><polygon class="cls-12" points="158.17 735.88 149.98 733.14 143.52 738.85 145.24 747.31 153.42 750.05 159.89 744.33 158.17 735.88"/></g><line class="cls-13" x1="2200.93" y1="507.21" x2="2229.29" y2="520.96"/><polyline class="cls-13" points="2224.04 523.42 2221.95 517.4 2227.97 515.31"/><rect class="cls-1" x="2226.23" y="517.67" width="6.5" height="6.5" transform="translate(-47.57 759.63) rotate(-19.14)"/><polyline class="cls-13" points="2206.23 504.64 2208.32 510.66 2202.3 512.75"/><rect class="cls-1" x="2197.54" y="503.89" width="6.5" height="6.5" transform="translate(4446.23 264.82) rotate(160.86)"/><line class="cls-13" x1="2202.06" y1="522.85" x2="2228.15" y2="505.16"/><polyline class="cls-13" points="2227.66 510.94 2221.4 509.74 2222.6 503.48"/><rect class="cls-1" x="2224.96" y="501.73" width="6.5" height="6.5" transform="translate(1312.31 2598.07) rotate(-79.14)"/><polyline class="cls-13" points="2202.48 516.97 2208.74 518.17 2207.54 524.43"/><rect class="cls-1" x="2198.69" y="519.68" width="6.5" height="6.5" transform="translate(3130.52 -1540.98) rotate(100.86)"/><line class="cls-13" x1="2216.17" y1="529.69" x2="2213.9" y2="498.25"/><polyline class="cls-13" points="2218.66 501.56 2214.49 506.39 2209.66 502.22"/><rect class="cls-1" x="2210.52" y="494.86" width="6.5" height="6.5" transform="translate(3562.06 2323.21) rotate(-139.14)"/><polyline class="cls-13" points="2211.29 526.38 2215.46 521.56 2220.28 525.73"/><rect class="cls-1" x="2212.93" y="526.59" width="6.5" height="6.5" transform="translate(886.82 -1320.83) rotate(40.86)"/><polygon class="cls-13" points="2219.63 510.95 2214.77 508.59 2210.3 511.62 2210.69 517.01 2215.55 519.37 2220.02 516.33 2219.63 510.95"/><line class="cls-14" x1="1470.52" y1="823.51" x2="1486.29" y2="874.98"/><polyline class="cls-14" points="1477.11 871.28 1482.21 861.66 1491.83 866.77"/><rect class="cls-1" x="1481.01" y="869.61" width="11.1" height="11.1" transform="translate(583.97 -594.91) rotate(27.96)"/><polyline class="cls-14" points="1479.9 827.16 1474.8 836.77 1465.18 831.67"/><rect class="cls-1" x="1464.9" y="817.72" width="11.1" height="11.1" transform="translate(2383.14 2239.96) rotate(-152.04)"/><line class="cls-14" x1="1452.27" y1="843.11" x2="1504.73" y2="855.19"/><polyline class="cls-14" points="1496.93 861.29 1491.15 852.06 1500.38 846.29"/><rect class="cls-1" x="1499.47" y="849.49" width="11.1" height="11.1" transform="translate(-224.37 928.52) rotate(-32.04)"/><polyline class="cls-14" points="1460.12 836.81 1465.89 846.04 1456.66 851.81"/><rect class="cls-1" x="1446.48" y="837.5" width="11.1" height="11.1" transform="matrix(-0.85, 0.53, -0.53, -0.85, 3130.13, 787.52)"/><line class="cls-14" x1="1460.12" y1="868.71" x2="1496.8" y2="829.32"/><polyline class="cls-14" points="1498.19 839.13 1487.31 839.52 1486.92 828.64"/><rect class="cls-1" x="1491.28" y="823.45" width="11.1" height="11.1" transform="translate(721.5 2354.32) rotate(-92.04)"/><polyline class="cls-14" points="1458.59 858.77 1469.46 858.38 1469.85 869.26"/><rect class="cls-1" x="1454.4" y="863.35" width="11.1" height="11.1" transform="translate(2276.45 -620.98) rotate(87.96)"/><polygon class="cls-14" points="1487.59 851.26 1484.89 842.44 1475.9 840.37 1469.61 847.12 1472.32 855.94 1481.3 858.01 1487.59 851.26"/></svg>