<svg xmlns="http://www.w3.org/2000/svg" xmlns:xlink="http://www.w3.org/1999/xlink" viewBox="0 0 600 750"><defs><style>.cls-1,.cls-12{fill:#a3cbcc;}.cls-2{opacity:0.33;}.cls-3{fill:#fff;}.cls-4{fill:#fbbc23;}.cls-5{opacity:0.5;}.cls-6,.cls-7{fill:#fcc74a;}.cls-7{opacity:0.38;}.cls-8{fill:#f0468a;}.cls-9{fill:#f969a4;}.cls-10{fill:#474747;}.cls-11{opacity:0.41;}.cls-12{opacity:0.51;}.cls-13{fill:url(#linear-gradient);}.cls-14{fill:url(#linear-gradient-2);}.cls-15{fill:url(#linear-gradient-3);}.cls-16{opacity:0.55;}.cls-17{opacity:0.59;}.cls-18{fill:url(#linear-gradient-4);}.cls-19{fill:url(#linear-gradient-6);}.cls-20{fill:url(#linear-gradient-7);}.cls-21{opacity:0.73;}.cls-22{fill:url(#linear-gradient-8);}.cls-23{fill:url(#linear-gradient-9);}.cls-24{fill:url(#linear-gradient-10);}.cls-25{fill:url(#linear-gradient-11);}.cls-26{fill:url(#linear-gradient-12);}.cls-27{fill:url(#linear-gradient-14);}.cls-28{fill:url(#linear-gradient-15);}.cls-29{fill:url(#linear-gradient-16);}.cls-30{fill:url(#linear-gradient-17);}.cls-31{fill:url(#linear-gradient-18);}.cls-32{fill:url(#linear-gradient-19);}.cls-33{fill:url(#linear-gradient-21);}</style><linearGradient id="linear-gradient" x1="292.53" y1="505.54" x2="292.53" y2="584.13" gradientUnits="userSpaceOnUse"><stop offset="0" stop-color="#a3cbcc"/><stop offset="1" stop-color="#a3cbcc" stop-opacity="0"/></linearGradient><linearGradient id="linear-gradient-2" x1="337.61" y1="505.54" x2="337.61" y2="584.13" xlink:href="#linear-gradient"/><linearGradient id="linear-gradient-3" x1="315.07" y1="505.54" x2="315.07" y2="584.13" xlink:href="#linear-gradient"/><linearGradient id="linear-gradient-4" x1="153.44" y1="503.52" x2="153.44" y2="537.17" gradientUnits="userSpaceOnUse"><stop offset="0" stop-color="#474747"/><stop offset="1" stop-color="#474747" stop-opacity="0"/></linearGradient><linearGradient id="linear-gradient-6" x1="130.65" y1="503.16" x2="130.65" y2="543.9" xlink:href="#linear-gradient-4"/><linearGradient id="linear-gradient-7" x1="125.4" y1="500.06" x2="125.4" y2="540.81" xlink:href="#linear-gradient-4"/><linearGradient id="linear-gradient-8" x1="-607.49" y1="586.65" x2="-607.49" y2="477.65" gradientTransform="translate(677.36)" gradientUnits="userSpaceOnUse"><stop offset="0" stop-color="#fff"/><stop offset="1" stop-color="#fff" stop-opacity="0"/></linearGradient><linearGradient id="linear-gradient-9" x1="-606.36" y1="586.65" x2="-606.36" y2="477.65" xlink:href="#linear-gradient-8"/><linearGradient id="linear-gradient-10" x1="-604.93" y1="586.65" x2="-604.93" y2="477.65" xlink:href="#linear-gradient-8"/><linearGradient id="linear-gradient-11" x1="-600.73" y1="586.65" x2="-600.73" y2="477.65" xlink:href="#linear-gradient-8"/><linearGradient id="linear-gradient-12" x1="-610.12" y1="586.65" x2="-610.12" y2="477.65" xlink:href="#linear-gradient-8"/><linearGradient id="linear-gradient-14" x1="-613.9" y1="586.65" x2="-613.9" y2="477.65" xlink:href="#linear-gradient-8"/><linearGradient id="linear-gradient-15" x1="3535.02" y1="572.96" x2="3535.02" y2="508.51" gradientTransform="matrix(-1, 0, 0, 1, 3753.72, 0)" xlink:href="#linear-gradient"/><linearGradient id="linear-gradient-16" x1="3535.69" y1="572.96" x2="3535.69" y2="508.51" gradientTransform="matrix(-1, 0, 0, 1, 3753.72, 0)" xlink:href="#linear-gradient"/><linearGradient id="linear-gradient-17" x1="3536.54" y1="572.96" x2="3536.54" y2="508.51" gradientTransform="matrix(-1, 0, 0, 1, 3753.72, 0)" xlink:href="#linear-gradient"/><linearGradient id="linear-gradient-18" x1="3539.02" y1="572.96" x2="3539.02" y2="508.51" gradientTransform="matrix(-1, 0, 0, 1, 3753.72, 0)" xlink:href="#linear-gradient"/><linearGradient id="linear-gradient-19" x1="3533.47" y1="572.96" x2="3533.47" y2="508.51" gradientTransform="matrix(-1, 0, 0, 1, 3753.72, 0)" xlink:href="#linear-gradient"/><linearGradient id="linear-gradient-21" x1="3531.23" y1="572.96" x2="3531.23" y2="508.51" gradientTransform="matrix(-1, 0, 0, 1, 3753.72, 0)" xlink:href="#linear-gradient"/></defs><title>Sociology</title><g id="Layer_2" data-name="Layer 2"><g id="Layer_1-2" data-name="Layer 1"><rect class="cls-1" width="600" height="750"/><g class="cls-2"><path class="cls-3" d="M434.58,376.16a9.94,9.94,0,0,1,9.95,9.94h-19.9A10,10,0,0,1,434.58,376.16Z"/><path class="cls-3" d="M405.28,379.4a6.7,6.7,0,0,1,6.7,6.7h12.65a6.7,6.7,0,1,1-13.4,0H398.57A6.71,6.71,0,0,1,405.28,379.4Z"/><path class="cls-3" d="M459.78,370.86A15.24,15.24,0,0,1,475,386.1H444.53A15.24,15.24,0,0,1,459.78,370.86Z"/></g><path class="cls-3" d="M406.15,255a18.31,18.31,0,0,0-18.31,18.31h36.62A18.31,18.31,0,0,0,406.15,255Z"/><path class="cls-3" d="M460.08,260.94a12.34,12.34,0,0,0-12.33,12.34h24.67A12.34,12.34,0,0,0,460.08,260.94Z"/><path class="cls-3" d="M436.8,285.62a12.34,12.34,0,0,0,12.34-12.34H424.46A12.33,12.33,0,0,0,436.8,285.62Z"/><path class="cls-3" d="M359.77,245.22a28.06,28.06,0,0,0-28.06,28.06h56.13A28.06,28.06,0,0,0,359.77,245.22Z"/><path class="cls-4" d="M224.15,201.12a32.65,32.65,0,1,1,32.64-32.65A32.69,32.69,0,0,1,224.15,201.12Zm0-61.74a29.1,29.1,0,1,0,29.09,29.09A29.13,29.13,0,0,0,224.15,139.38Z"/><path class="cls-3" d="M383,130.91a29.06,29.06,0,0,1,28.76,24.81l1.21.09a14.7,14.7,0,0,1,28.79,3.56H319.47A19.49,19.49,0,0,1,355.06,149l1.08-.11a29,29,0,0,1,26.87-18m0-.62a29.7,29.7,0,0,0-27.44,18.36A20.11,20.11,0,0,0,318.84,160H442.4a15.32,15.32,0,0,0-30-4.36A29.71,29.71,0,0,0,383,130.29Z"/><g class="cls-5"><path class="cls-3" d="M104.23,260.49a14.64,14.64,0,0,1,14,10.49,28.42,28.42,0,0,1,54.37-6.68,19.24,19.24,0,0,1,35.14,10.85H89.57A14.66,14.66,0,0,1,104.23,260.49Z"/></g><path class="cls-6" d="M325.3,215.57H270.07V215a11.12,11.12,0,0,1,20.28-6.32A18,18,0,0,1,325.3,215Zm-54-1.24h52.73a16.81,16.81,0,0,0-32.94-4.06l-.43,1.49-.71-1.37a9.89,9.89,0,0,0-18.65,3.94Z"/><path class="cls-6" d="M120,402.38H94.59v-.33a5.14,5.14,0,0,1,9.33-3,8.32,8.32,0,0,1,16.08,3Zm-24.75-.65h24.1a7.67,7.67,0,0,0-15-1.81l-.23.78-.37-.72a4.49,4.49,0,0,0-8.47,1.75Z"/><path class="cls-7" d="M345.9,347.78a10.52,10.52,0,0,0-9.32,5.66,17.42,17.42,0,0,0-34.16,4.85h54A10.5,10.5,0,0,0,345.9,347.78Z"/><polygon class="cls-8" points="222.33 326.88 221.09 326.88 221.09 309.42 167.06 309.42 167.06 326.88 165.82 326.88 165.82 308.18 222.33 308.18 222.33 326.88"/><polygon class="cls-8" points="80.11 608.38 78.87 608.38 78.87 528.27 97.04 528.27 97.04 462.22 153.44 462.22 153.44 463.46 98.28 463.46 98.28 529.51 80.11 529.51 80.11 608.38"/><polygon class="cls-8" points="435.38 609.42 433.52 609.42 433.52 318.37 492.63 318.37 492.63 320.23 435.38 320.23 435.38 609.42"/><polygon class="cls-8" points="360.25 609.42 359.01 609.42 359.01 432.39 330.04 403.42 330.04 433.84 305.76 433.84 305.76 371.24 250.23 371.24 250.23 370 307 370 307 432.6 328.8 432.6 328.8 400.42 360.25 431.87 360.25 609.42"/><path class="cls-3" d="M384.94,469.9H337.28V460h47.66Zm-47-.65h46.36v-8.62H337.93Z"/><path class="cls-3" d="M435.43,469.9H387.78V460h47.65Zm-47-.65h46.35v-8.62H388.43Z"/><path class="cls-3" d="M343.81,469.89a1.27,1.27,0,1,1-2.53,0"/><path class="cls-3" d="M347.84,469.89a1.27,1.27,0,1,1-2.53,0"/><path class="cls-3" d="M372.68,469.89a1.27,1.27,0,1,1-2.53,0"/><path class="cls-3" d="M376.71,469.89a1.27,1.27,0,1,1-2.53,0"/><path class="cls-3" d="M396.29,469.89a1.27,1.27,0,1,1-2.53,0"/><path class="cls-3" d="M400.32,469.89a1.27,1.27,0,1,1-2.53,0"/><path class="cls-3" d="M425.38,469.89a1.27,1.27,0,1,1-2.54,0"/><path class="cls-3" d="M429.41,469.89a1.27,1.27,0,1,1-2.53,0"/><path class="cls-3" d="M484.9,469.9H437.25V460H484.9Zm-47-.65h46.35v-8.62H437.9Z"/><path class="cls-3" d="M445.76,469.89a1.27,1.27,0,1,1-2.53,0"/><path class="cls-3" d="M449.79,469.89a1.27,1.27,0,1,1-2.53,0"/><path class="cls-3" d="M474.85,469.89a1.27,1.27,0,1,1-2.53,0"/><path class="cls-3" d="M478.88,469.89a1.27,1.27,0,1,1-2.53,0"/><rect class="cls-3" x="340.41" y="462.66" width="35.68" height="2.28"/><rect class="cls-3" x="391.88" y="462.66" width="35.68" height="2.28"/><rect class="cls-3" x="440.67" y="462.66" width="35.68" height="2.28"/><path class="cls-9" d="M315.07,471.16H161.21V483a12,12,0,0,1,12,12v68.56h14.48V495a12,12,0,0,1,24,0v68.56h14.48V495a12,12,0,0,1,24,0v68.56h14.48V495a12,12,0,0,1,24,0v68.56h14.48V495a12,12,0,0,1,24,0v68.56h14.48V495a12,12,0,0,1,24,0v68.56H380V495a12,12,0,0,1,24,0v68.56h14.48V495a12,12,0,0,1,24,0v68.56h14.49V495a12,12,0,0,1,12-12V471.16Z"/><rect class="cls-10" x="411.6" y="448.36" width="51.94" height="161.05"/><path class="cls-3" d="M460,503.58h-39.4V474.92H460Zm-39-.38h38.66V475.3H420.93Z"/><path class="cls-3" d="M440.45,514.61H429.22V498.33h11.23Zm-10.85-.38h10.47V498.71H429.6Z"/><path class="cls-3" d="M447.45,533.51h-9.23v-9.22h9.23Zm-8.85-.37h8.47v-8.48H438.6Z"/><path class="cls-3" d="M519.93,239.09H481.62v-25h38.31Zm-36.54-1.78h34.76V215.84H483.39Z"/><rect class="cls-6" x="455.04" y="226.31" width="109.49" height="383.11"/><rect class="cls-10" x="455.04" y="237.56" width="109.49" height="1.28"/><rect class="cls-3" x="468.41" y="299.54" width="18.52" height="18.52"/><rect class="cls-3" x="500.52" y="299.54" width="18.52" height="18.52"/><rect class="cls-3" x="532.63" y="299.54" width="18.52" height="18.52"/><polyline class="cls-3" points="468.41 257.46 486.94 257.46 486.94 275.98"/><rect class="cls-3" x="500.52" y="257.46" width="18.52" height="18.52"/><rect class="cls-3" x="532.63" y="257.46" width="18.52" height="18.52"/><rect class="cls-3" x="468.41" y="341.62" width="18.52" height="18.52"/><rect class="cls-3" x="500.52" y="341.62" width="18.52" height="18.52"/><rect class="cls-3" x="532.63" y="341.62" width="18.52" height="18.52"/><rect class="cls-3" x="468.41" y="425.79" width="18.52" height="18.52"/><rect class="cls-3" x="500.52" y="425.79" width="18.52" height="18.52"/><rect class="cls-3" x="532.63" y="425.79" width="18.52" height="18.52"/><rect class="cls-3" x="468.41" y="383.7" width="18.52" height="18.52"/><polyline class="cls-3" points="519.04 383.7 519.04 402.23 500.52 402.23"/><rect class="cls-3" x="532.63" y="383.7" width="18.52" height="18.52"/><rect class="cls-3" x="468.41" y="467.87" width="18.52" height="18.52"/><rect class="cls-3" x="500.52" y="467.87" width="18.52" height="18.52"/><polyline class="cls-3" points="532.63 467.87 551.15 467.87 551.15 486.39"/><rect class="cls-3" x="468.41" y="509.95" width="18.52" height="18.52"/><rect class="cls-3" x="500.52" y="509.95" width="18.52" height="18.52"/><rect class="cls-3" x="532.63" y="509.95" width="18.52" height="18.52"/><g class="cls-11"><rect class="cls-3" x="455.04" y="444.31" width="109.49" height="8.82"/><rect class="cls-3" x="455.04" y="486.39" width="109.49" height="8.82"/><rect class="cls-3" x="455.04" y="528.56" width="109.49" height="8.82"/><rect class="cls-3" x="455.04" y="360.14" width="109.49" height="8.82"/><rect class="cls-3" x="455.04" y="402.08" width="109.49" height="8.82"/><rect class="cls-3" x="455.04" y="275.98" width="109.49" height="8.82"/><rect class="cls-3" x="455.04" y="318.06" width="109.49" height="8.82"/></g><path class="cls-3" d="M532,221.71a8.87,8.87,0,1,1,8.87-8.86A8.88,8.88,0,0,1,532,221.71Zm0-16a7.09,7.09,0,1,0,7.1,7.09A7.1,7.1,0,0,0,532,205.76Z"/><path class="cls-3" d="M543.88,221.67H532a.64.64,0,0,1,0-1.28h10.34l-1.51-1.51a.65.65,0,0,1,0-.91.63.63,0,0,1,.9,0l2.61,2.61a.63.63,0,0,1,.14.69A.64.64,0,0,1,543.88,221.67Z"/><rect class="cls-9" x="474.07" y="308.36" width="9.71" height="9.71"/><circle class="cls-9" cx="478.92" cy="305.18" r="1.78"/><path class="cls-1" d="M538.88,393.89h0a4.17,4.17,0,0,1,4.17,4.17v4.17a0,0,0,0,1,0,0h-8.34a0,0,0,0,1,0,0v-4.17A4.17,4.17,0,0,1,538.88,393.89Z"/><circle class="cls-1" cx="538.88" cy="391.16" r="1.53"/><path class="cls-6" d="M508.09,481.43h0a2.48,2.48,0,0,1,2.48,2.48v2.48a0,0,0,0,1,0,0h-5a0,0,0,0,1,0,0v-2.48A2.48,2.48,0,0,1,508.09,481.43Z"/><circle class="cls-6" cx="508.09" cy="479.8" r="0.91"/><rect class="cls-6" x="309.29" y="550.15" width="160.04" height="59.27"/><rect class="cls-3" x="147.47" y="319.3" width="119.25" height="290.12"/><rect class="cls-6" x="228.87" y="511.85" width="160.04" height="97.57"/><polygon class="cls-3" points="333.1 608.2 333.1 589.54 369.86 589.54 369.86 575.57 393.37 575.57 393.37 608.2 333.1 608.2"/><circle class="cls-12" cx="402" cy="597.21" r="3.99"/><circle class="cls-12" cx="384.61" cy="597.21" r="3.99"/><circle class="cls-12" cx="367.23" cy="597.21" r="3.99"/><circle class="cls-12" cx="349.84" cy="597.21" r="3.99"/><circle class="cls-12" cx="332.46" cy="597.21" r="3.99"/><circle class="cls-12" cx="315.07" cy="597.21" r="3.99"/><circle class="cls-12" cx="297.68" cy="597.21" r="3.99"/><circle class="cls-12" cx="280.3" cy="597.21" r="3.99"/><circle class="cls-12" cx="262.91" cy="597.21" r="3.99"/><circle class="cls-12" cx="245.53" cy="597.21" r="3.99"/><circle class="cls-12" cx="228.14" cy="597.21" r="3.99"/><circle class="cls-12" cx="210.75" cy="597.21" r="3.99"/><circle class="cls-12" cx="193.37" cy="597.21" r="3.99"/><circle class="cls-12" cx="175.98" cy="597.21" r="3.99"/><circle class="cls-12" cx="158.6" cy="597.21" r="3.99"/><circle class="cls-12" cx="141.21" cy="597.21" r="3.99"/><polygon class="cls-3" points="276.31 507.6 315.07 477.13 353.83 507.6 353.83 608.2 276.31 608.2 276.31 507.6"/><rect class="cls-3" x="253.38" y="533.33" width="123.39" height="74.87"/><rect class="cls-3" x="314.11" y="448.14" width="1.92" height="45.71"/><rect class="cls-3" x="306.42" y="458.37" width="17.3" height="1.92"/><circle class="cls-1" cx="315.07" cy="502.42" r="8.52"/><path class="cls-13" d="M297.68,567.18h-10.3V517.75a12.43,12.43,0,0,1,2.7-7.74l2.45-3.08L295,510a12.43,12.43,0,0,1,2.7,7.74Z"/><path class="cls-14" d="M342.76,567.18h-10.3V517.75a12.43,12.43,0,0,1,2.7-7.74l2.45-3.08,2.45,3.08a12.43,12.43,0,0,1,2.7,7.74Z"/><path class="cls-15" d="M320.22,580.28h-10.3V530.85a12.48,12.48,0,0,1,2.7-7.75l2.45-3.07,2.45,3.07a12.48,12.48,0,0,1,2.7,7.75Z"/><polygon class="cls-3" points="538.02 576.06 480.23 576.06 454.32 550.15 426.99 577.48 426.99 609.42 538.02 609.42 538.02 576.06"/><polygon class="cls-3" points="536.73 577.36 511.31 551.93 454.35 551.93 454.35 550.15 512.04 550.15 537.99 576.1 536.73 577.36"/><rect class="cls-6" x="486.93" y="591.13" width="8.92" height="17.25"/><polygon class="cls-10" points="57.58 571.09 83.35 550.74 108.3 570.44 133.26 550.74 158.21 570.44 183.16 550.74 208.12 570.44 233.07 550.74 258.02 570.44 282.97 550.74 307.93 570.44 332.88 550.74 358.65 571.09 358.65 608.38 57.58 608.38 57.58 571.09"/><rect class="cls-10" x="65.87" y="554.56" width="6.03" height="12.15"/><rect class="cls-10" x="116.48" y="554.56" width="6.03" height="12.15"/><rect class="cls-10" x="167.3" y="554.56" width="6.03" height="12.15"/><rect class="cls-10" x="215.68" y="554.56" width="6.03" height="12.15"/><rect class="cls-10" x="266.29" y="554.56" width="6.03" height="12.15"/><rect class="cls-10" x="314.67" y="554.56" width="6.03" height="12.15"/><circle class="cls-10" cx="437.84" cy="586.61" r="2.51"/><path class="cls-10" d="M437.84,590.24h0a4.27,4.27,0,0,1,4.27,4.27v14.91a0,0,0,0,1,0,0h-8.54a0,0,0,0,1,0,0V594.51A4.27,4.27,0,0,1,437.84,590.24Z"/><g class="cls-16"><circle class="cls-3" cx="147.38" cy="592.41" r="1.87"/><path class="cls-3" d="M150.56,609.42h-6.37V598.31a3.19,3.19,0,0,1,3.19-3.19h0a3.19,3.19,0,0,1,3.18,3.19Z"/></g><rect class="cls-10" x="445.21" y="596.49" width="6.78" height="12.93"/><circle class="cls-10" cx="448.6" cy="593.89" r="1.67"/><rect class="cls-10" x="440.27" y="598.79" width="6.71" height="1.59" transform="translate(-300.42 547.56) rotate(-49.5)"/><rect class="cls-6" x="300.41" y="596.02" width="12.21" height="12.21"/><circle class="cls-6" cx="306.51" cy="592.02" r="2.24"/><rect class="cls-1" x="517.91" y="597.64" width="10.59" height="10.59"/><circle class="cls-1" cx="523.21" cy="594.17" r="1.94"/><rect class="cls-1" x="233.21" y="336.21" width="19.43" height="19.43"/><rect class="cls-1" x="197.38" y="336.21" width="19.43" height="19.43"/><rect class="cls-1" x="161.54" y="375.18" width="19.43" height="19.43"/><rect class="cls-1" x="197.38" y="375.18" width="19.43" height="19.43"/><rect class="cls-1" x="233.21" y="414.15" width="19.43" height="19.43"/><rect class="cls-1" x="161.54" y="414.15" width="19.43" height="19.43"/><polyline class="cls-1" points="197.38 433.58 216.8 433.58 216.8 414.15 197.38 414.15"/><rect class="cls-1" x="233.21" y="453.13" width="19.43" height="19.43"/><rect class="cls-1" x="197.38" y="453.13" width="19.43" height="19.43"/><rect class="cls-6" x="236.21" y="426.21" width="7.37" height="7.37"/><circle class="cls-6" cx="239.9" cy="423.79" r="1.35"/><path class="cls-10" d="M207.18,387.23H211a1.79,1.79,0,0,1,1.79,1.79v5.58a0,0,0,0,1,0,0h-7.37a0,0,0,0,1,0,0V389A1.79,1.79,0,0,1,207.18,387.23Z"/><circle class="cls-10" cx="209.08" cy="384.82" r="1.35"/><rect class="cls-3" x="35.13" y="592.44" width="9.11" height="15.78"/><circle class="cls-3" cx="39.68" cy="589.46" r="1.67"/><rect class="cls-3" x="262.1" y="586.26" width="12.68" height="21.97"/><circle class="cls-3" cx="268.44" cy="582.11" r="2.32"/><g class="cls-17"><path class="cls-6" d="M325.25,599.89h0a4.17,4.17,0,0,1,4.17,4.17v4.17a0,0,0,0,1,0,0h-8.34a0,0,0,0,1,0,0v-4.17a4.17,4.17,0,0,1,4.17-4.17Z"/><circle class="cls-6" cx="325.25" cy="597.16" r="1.53"/></g><path class="cls-9" d="M237.32,604.06h0a2.08,2.08,0,0,1,2.08,2.08v2.08a0,0,0,0,1,0,0h-4.17a0,0,0,0,1,0,0v-2.08A2.08,2.08,0,0,1,237.32,604.06Z"/><circle class="cls-9" cx="237.32" cy="602.69" r="0.76"/><path class="cls-9" d="M532.63,604.06h0a2.08,2.08,0,0,1,2.08,2.08v2.08a0,0,0,0,1,0,0h-4.17a0,0,0,0,1,0,0v-2.08A2.08,2.08,0,0,1,532.63,604.06Z"/><circle class="cls-9" cx="532.63" cy="602.69" r="0.76"/><path class="cls-9" d="M229.4,602.42h0a2.85,2.85,0,0,1,2.85,2.85v2.85a0,0,0,0,1,0,0h-5.69a0,0,0,0,1,0,0v-2.85A2.85,2.85,0,0,1,229.4,602.42Z"/><circle class="cls-9" cx="229.4" cy="600.56" r="1.04"/><path class="cls-18" d="M153.44,515.7h0a13,13,0,0,0-13,13v4.62h26v-4.62A13,13,0,0,0,153.44,515.7Z"/><circle class="cls-18" cx="153.44" cy="507.19" r="4.76"/><path class="cls-10" d="M174.29,497.32v32.17H113.64V497.32h60.65m3.84-3.83H109.8v39.84h68.33V493.49Z"/><polygon class="cls-10" points="190.35 533.29 171.47 533.29 171.47 532.65 189.57 532.65 175.22 518.3 175.67 517.85 190.57 532.75 190.35 533.29"/><path class="cls-10" d="M190.45,575.89H110.23l-.32-.32V533l.32-.32h80.22l.32.32v42.6Zm-79.9-.64h79.58v-42H110.55Z"/><rect class="cls-10" x="123.44" y="529.82" width="0.64" height="61.13" transform="translate(-235.25 112.66) rotate(-26.27)"/><rect class="cls-10" x="139.59" y="529.82" width="0.64" height="61.13" transform="translate(-233.58 119.81) rotate(-26.27)"/><rect class="cls-10" x="155.75" y="529.82" width="0.64" height="61.13" transform="translate(-231.91 126.96) rotate(-26.27)"/><rect class="cls-10" x="171.9" y="529.82" width="0.64" height="61.13" transform="translate(-230.24 134.11) rotate(-26.27)"/><rect class="cls-10" x="188.06" y="529.82" width="0.64" height="61.13" transform="translate(-228.57 141.25) rotate(-26.27)"/><rect class="cls-10" x="145.24" y="560.06" width="61.13" height="0.64" transform="translate(-404.53 470.11) rotate(-63.74)"/><rect class="cls-10" x="129.09" y="560.06" width="61.13" height="0.64" transform="translate(-413.53 455.62) rotate(-63.74)"/><rect class="cls-10" x="112.93" y="560.06" width="61.13" height="0.64" transform="translate(-422.54 441.13) rotate(-63.74)"/><rect class="cls-10" x="96.78" y="560.06" width="61.13" height="0.64" transform="translate(-431.55 426.64) rotate(-63.74)"/><rect class="cls-10" x="80.62" y="560.06" width="61.13" height="0.64" transform="translate(-440.55 412.16) rotate(-63.74)"/><rect class="cls-19" x="119.86" y="505.22" width="21.56" height="2.38"/><rect class="cls-20" x="119.86" y="512.04" width="11.08" height="2.78"/><polygon class="cls-6" points="106.14 600.86 110.11 596.14 117.07 596.14 121.57 600.86 126.68 600.86 126.68 606.18 102.7 606.18 102.7 600.86 106.14 600.86"/><circle class="cls-4" cx="107.29" cy="605.86" r="1.75"/><path class="cls-1" d="M107.29,608.09a2.23,2.23,0,1,1,2.23-2.23A2.23,2.23,0,0,1,107.29,608.09Zm0-3.51a1.28,1.28,0,1,0,1.28,1.28A1.27,1.27,0,0,0,107.29,604.58Z"/><circle class="cls-4" cx="119.74" cy="605.86" r="1.75"/><path class="cls-1" d="M119.74,608.09a2.23,2.23,0,1,1,2.23-2.23A2.23,2.23,0,0,1,119.74,608.09Zm0-3.51a1.28,1.28,0,1,0,1.28,1.28A1.27,1.27,0,0,0,119.74,604.58Z"/><circle class="cls-3" cx="80.56" cy="598.43" r="4.81"/><rect class="cls-3" x="79.91" y="599.35" width="1.3" height="9.03"/><circle class="cls-3" cx="565.59" cy="596.2" r="5.89"/><rect class="cls-3" x="564.8" y="597.33" width="1.59" height="11.05"/><circle class="cls-3" cx="97.65" cy="590.81" r="7.85"/><rect class="cls-3" x="96.68" y="595.41" width="1.95" height="12.97"/><rect class="cls-9" x="452.98" y="567.02" width="2.75" height="12.77"/><rect class="cls-9" x="452.98" y="567.02" width="2.75" height="12.77" transform="translate(1027.75 119.05) rotate(90)"/><polygon class="cls-3" points="203.91 599.22 198.97 593.34 187.08 593.34 181.49 599.22 173.51 599.22 173.51 605.83 208.99 605.83 208.99 599.22 203.91 599.22"/><circle class="cls-10" cx="202.48" cy="605.43" r="2.18"/><path class="cls-1" d="M202.48,608.2a2.77,2.77,0,1,1,2.77-2.77A2.78,2.78,0,0,1,202.48,608.2Zm0-4.36a1.59,1.59,0,1,0,1.58,1.59A1.59,1.59,0,0,0,202.48,603.84Z"/><circle class="cls-10" cx="182.15" cy="605.43" r="2.18"/><path class="cls-1" d="M182.15,608.2a2.77,2.77,0,1,1,2.77-2.77A2.78,2.78,0,0,1,182.15,608.2Zm0-4.36a1.59,1.59,0,1,0,1.58,1.59A1.59,1.59,0,0,0,182.15,603.84Z"/><path class="cls-3" d="M579.77,610.66H20.23a1.24,1.24,0,1,1,0-2.48H579.77a1.24,1.24,0,0,1,0,2.48Z"/><path class="cls-3" d="M302.65,608.38H302V600.8a1.61,1.61,0,1,1,3.22,0v.8h-.64v-.8a1,1,0,0,0-1.93,0Z"/><g class="cls-21"><path class="cls-22" d="M68.64,547.41v4.89a2.45,2.45,0,0,0,0-4.89Z"/><path class="cls-23" d="M68.8,535v8.75a4.38,4.38,0,1,0,0-8.75Z"/><path class="cls-24" d="M68.8,516.9v14.48a7.24,7.24,0,0,0,0-14.48Z"/><path class="cls-25" d="M68.8,469.59v31.28a15.64,15.64,0,0,0,0-31.28Z"/><path class="cls-26" d="M68.74,549.15v-6a3,3,0,0,0,0,6Z"/><path class="cls-26" d="M68.74,536.5v-6a3,3,0,1,0,0,6Z"/><path class="cls-27" d="M68.74,518.42V497.28a10.57,10.57,0,0,0,0,21.14Z"/></g><path class="cls-28" d="M219.43,549.76v2.89a1.45,1.45,0,1,1,0-2.89Z"/><path class="cls-29" d="M219.33,542.41v5.18a2.59,2.59,0,1,1,0-5.18Z"/><path class="cls-30" d="M219.33,531.72v8.56a4.28,4.28,0,0,1,0-8.56Z"/><path class="cls-31" d="M219.33,503.74v18.49a9.25,9.25,0,1,1,0-18.49Z"/><path class="cls-32" d="M219.37,550.78v-3.54a1.77,1.77,0,0,1,0,3.54Z"/><path class="cls-32" d="M219.37,543.31v-3.55a1.78,1.78,0,0,1,0,3.55Z"/><path class="cls-33" d="M219.37,532.61v-12.5a6.25,6.25,0,0,1,0,12.5Z"/></g></g></svg>