<svg xmlns="http://www.w3.org/2000/svg" xmlns:xlink="http://www.w3.org/1999/xlink" viewBox="0 0 600 750"><defs><style>.cls-1{fill:#b9d7d9;}.cls-2{fill:#474747;}.cls-3{fill:#fcc74a;}.cls-4{fill:#40bead;}.cls-5{fill:url(#linear-gradient);}.cls-11,.cls-6{fill:#fff;}.cls-7{fill:#18b29f;}.cls-8{fill:#40bdac;}.cls-9{fill:#a3cbcc;}.cls-10{fill:#f969a4;}.cls-11{opacity:0.48;}.cls-12{fill:url(#linear-gradient-2);}.cls-13{fill:url(#linear-gradient-3);}.cls-14{fill:url(#linear-gradient-4);}.cls-15{fill:url(#linear-gradient-5);}.cls-16{fill:url(#linear-gradient-6);}.cls-17{fill:url(#linear-gradient-8);}.cls-18{fill:#f1f7f7;}.cls-19{opacity:0.7;}.cls-20{fill:url(#linear-gradient-9);}.cls-21{fill:url(#linear-gradient-10);}.cls-22{fill:url(#linear-gradient-11);}.cls-23{fill:url(#linear-gradient-12);}</style><linearGradient id="linear-gradient" x1="365.76" y1="37.88" x2="191.03" y2="680.47" gradientUnits="userSpaceOnUse"><stop offset="0" stop-color="#f969a4"/><stop offset="1" stop-color="#f969a4" stop-opacity="0"/></linearGradient><linearGradient id="linear-gradient-2" x1="2104.44" y1="581.35" x2="2104.44" y2="322.04" gradientTransform="matrix(-1, 0, 0, 1, 2242.87, 0)" gradientUnits="userSpaceOnUse"><stop offset="0" stop-color="#fff"/><stop offset="1" stop-color="#fff" stop-opacity="0"/></linearGradient><linearGradient id="linear-gradient-3" x1="2108" y1="581.35" x2="2108" y2="322.04" xlink:href="#linear-gradient-2"/><linearGradient id="linear-gradient-4" x1="2112.51" y1="581.35" x2="2112.51" y2="322.04" xlink:href="#linear-gradient-2"/><linearGradient id="linear-gradient-5" x1="2125.74" y1="581.35" x2="2125.74" y2="322.04" xlink:href="#linear-gradient-2"/><linearGradient id="linear-gradient-6" x1="2096.17" y1="581.35" x2="2096.17" y2="322.04" xlink:href="#linear-gradient-2"/><linearGradient id="linear-gradient-8" x1="2084.25" y1="581.35" x2="2084.25" y2="322.04" xlink:href="#linear-gradient-2"/><linearGradient id="linear-gradient-9" x1="232.82" y1="785.4" x2="232.82" y2="493.51" gradientUnits="userSpaceOnUse"><stop offset="0" stop-color="#a3cbcc"/><stop offset="1" stop-color="#a3cbcc" stop-opacity="0"/></linearGradient><linearGradient id="linear-gradient-10" x1="360.98" y1="764.26" x2="360.98" y2="511.68" xlink:href="#linear-gradient-9"/><linearGradient id="linear-gradient-11" x1="311.66" y1="765.03" x2="311.66" y2="542.98" xlink:href="#linear-gradient-9"/><linearGradient id="linear-gradient-12" x1="164.24" y1="784.11" x2="164.24" y2="501.83" xlink:href="#linear-gradient-9"/></defs><title>Software Training</title><g id="Layer_2" data-name="Layer 2"><g id="Layer_1-2" data-name="Layer 1"><rect class="cls-1" width="600" height="750"/><rect class="cls-2" x="149.94" y="81.68" width="307.15" height="338.29"/><path class="cls-3" d="M212.19,285.56l75.87-75.87,28.13,28.13,49-49,96.69,96.69H460.4Zm75.87-74.09L215.23,284.3l243.64-.09-93.64-93.64-49,49Z"/><rect class="cls-3" x="160.16" y="276.6" width="288.76" height="155.8"/><polygon class="cls-4" points="243.82 301.52 204.75 170.83 165.67 301.52 200.36 301.52 200.36 324.72 209.13 324.72 209.13 301.52 243.82 301.52"/><path class="cls-5" d="M403.47,457.22A169.72,169.72,0,0,1,233.75,626.94C140,626.94,105,551,105,457.22S140,287.5,233.75,287.5A169.71,169.71,0,0,1,403.47,457.22Z"/><path class="cls-6" d="M234.49,170.58a15.83,15.83,0,1,1,15.82-15.83A15.85,15.85,0,0,1,234.49,170.58Zm0-30.39a14.56,14.56,0,1,0,14.56,14.56A14.58,14.58,0,0,0,234.49,140.19Z"/><rect class="cls-7" x="396.62" y="201.93" width="2.52" height="199.52"/><polygon class="cls-7" points="431.39 238.14 397.88 204.63 364.38 238.14 362.59 236.36 397.88 201.07 433.17 236.36 431.39 238.14"/><polygon class="cls-7" points="435.63 277.65 397.88 239.9 360.13 277.65 358.35 275.87 397.88 236.34 437.42 275.87 435.63 277.65"/><polygon class="cls-7" points="442.36 318.41 397.88 273.93 353.4 318.41 351.62 316.62 397.88 270.36 444.15 316.62 442.36 318.41"/><polygon class="cls-7" points="449.38 359.31 397.88 307.81 346.38 359.31 344.6 357.52 397.88 304.24 451.17 357.52 449.38 359.31"/><polygon class="cls-7" points="431.39 250.84 397.88 217.34 364.38 250.84 362.59 249.06 397.88 213.77 433.17 249.06 431.39 250.84"/><polygon class="cls-7" points="435.63 290.35 397.88 252.6 360.13 290.35 358.35 288.57 397.88 249.03 437.42 288.57 435.63 290.35"/><polygon class="cls-7" points="442.36 331.11 397.88 286.63 353.4 331.11 351.62 329.32 397.88 283.06 444.15 329.32 442.36 331.11"/><polygon class="cls-7" points="449.38 372.01 397.88 320.51 346.38 372.01 344.6 370.22 397.88 316.94 451.17 370.22 449.38 372.01"/><path class="cls-4" d="M271.65,335.62h-6.33v-9.89H245l23.49-58,23.5,58H271.65Zm-5.07-1.27h3.8v-9.88h19.73l-21.63-53.38-21.62,53.38h19.72Z"/><path class="cls-1" d="M425.11,102.56h-250v341h250ZM296.72,437.1H186.65v-174H296.72Zm0-180.77H186.65v-142H296.72ZM413.52,437.1H303.46v-174H413.52Zm0-180.77H303.46v-142H413.52Z"/><path class="cls-1" d="M89.35,66v683.6H510.83V66Zm340.81,382.6H170V97.51H430.16Z"/><polygon class="cls-8" points="590.17 750 9.83 750 100.7 467.6 499.33 467.6 590.17 750"/><rect class="cls-2" x="290.4" y="505.97" width="19.37" height="27.31"/><path class="cls-2" d="M375.05,534.54H225.12a1.26,1.26,0,0,1,0-2.52H375.05a1.26,1.26,0,1,1,0,2.52Z"/><path class="cls-6" d="M300.72,569.46h-1.26v-9.07a6.43,6.43,0,0,1,6.42-6.43h41.74a5.16,5.16,0,1,0,0-10.32H251.48a6.44,6.44,0,0,1-6.43-6.42V506h1.26v31.25a5.17,5.17,0,0,0,5.17,5.16h96.14a6.42,6.42,0,0,1,0,12.84H305.88a5.17,5.17,0,0,0-5.16,5.17Z"/><rect class="cls-6" x="443.43" y="562.65" width="33.94" height="52.57" rx="16.97" ry="16.97"/><path class="cls-6" d="M461,575.51h-1.26V561.93a13.43,13.43,0,0,0-13.42-13.42H431.27a14.7,14.7,0,0,1-14.68-14.68,13.43,13.43,0,0,0-13.42-13.42h-30.8a14.7,14.7,0,0,1-14.68-14.68V492.55H359v13.18a13.43,13.43,0,0,0,13.42,13.42h30.8a14.7,14.7,0,0,1,14.68,14.68,13.43,13.43,0,0,0,13.42,13.41h15.08A14.7,14.7,0,0,1,461,561.93Z"/><rect class="cls-2" x="160.16" y="342.1" width="279.86" height="166.79"/><rect class="cls-9" x="168.91" y="349.81" width="262.36" height="151.39" rx="4.6" ry="4.6"/><path class="cls-10" d="M479.85,750h-1.26l6.64-104.45.2.05,5.21-30.87.83-10.4a3.65,3.65,0,0,0-3.35-3.93,3.65,3.65,0,0,0-3.92,3.35l-.46,5.73-4.16-.34.77-9.68a3.65,3.65,0,0,0-3.34-3.92,3.65,3.65,0,0,0-3.92,3.34l-.78,9.68-4.16-.33,2-25.09a3.65,3.65,0,1,0-7.27-.58l-2,25.09-4.16-.34,2.55-31.94a3.56,3.56,0,0,0-.86-2.65,3.63,3.63,0,0,0-5.13-.41,3.55,3.55,0,0,0-1.27,2.48l-3.67,46-4.53-.36,1.1-13.77a3.74,3.74,0,0,0-.9-2.79,3.82,3.82,0,0,0-6.73,2.17l-1.07,13.46A16.67,16.67,0,0,0,449,637.05l11.5,2.71L447,749.09l-1.05-1.81,13.2-106.55-10.77-2.55A17.92,17.92,0,0,1,435,619.38L436,605.92a5.09,5.09,0,0,1,5.47-4.66A5,5,0,0,1,445,603a5.05,5.05,0,0,1,1.2,3.71l-1,12.51,2,.16,3.56-44.72a4.83,4.83,0,0,1,1.71-3.34,4.91,4.91,0,0,1,8.07,4.12l-2.46,30.69,1.65.13,1.91-23.83a4.91,4.91,0,1,1,9.78.78l-1.9,23.83,1.64.13.68-8.42a4.92,4.92,0,0,1,5.28-4.5,4.91,4.91,0,0,1,4.5,5.28l-.67,8.43,1.64.13.36-4.48a4.91,4.91,0,0,1,9.79.79l-.84,10.45-5.44,32.26-.05,0Z"/><path class="cls-10" d="M161.72,544.27v44.62a5.75,5.75,0,0,1-5.75,5.75h-28.2a5.75,5.75,0,0,1-5.75-5.75V544.27h39.7M163,543H120.75v45.88a7,7,0,0,0,7,7H156a7,7,0,0,0,7-7V543Z"/><path class="cls-10" d="M167,578.08v-1.26a13.55,13.55,0,0,0,0-27.09v-1.26a14.81,14.81,0,1,1,0,29.61Z"/><rect class="cls-11" x="262.88" y="412.47" width="19.16" height="12.61"/><rect class="cls-11" x="262.88" y="391.99" width="19.16" height="14.44"/><rect class="cls-11" x="262.88" y="425.92" width="19.16" height="2.7"/><rect class="cls-11" x="262.88" y="429.46" width="19.16" height="5.88"/><rect class="cls-11" x="282.88" y="372.1" width="19.99" height="12.15"/><rect class="cls-11" x="282.88" y="385.09" width="19.99" height="6.06"/><rect class="cls-11" x="262.88" y="436.18" width="19.16" height="4.91"/><rect class="cls-11" x="241.73" y="425.92" width="20.3" height="2.7"/><rect class="cls-11" x="241.73" y="412.47" width="20.3" height="12.61"/><rect class="cls-11" x="241.73" y="436.18" width="20.3" height="4.91"/><rect class="cls-11" x="262.88" y="385.09" width="19.16" height="6.06"/><rect class="cls-11" x="241.73" y="407.27" width="20.3" height="4.35"/><rect class="cls-11" x="241.73" y="429.46" width="20.3" height="5.88"/><rect class="cls-11" x="262.88" y="372.1" width="19.16" height="12.15"/><rect class="cls-11" x="303.72" y="425.92" width="23.71" height="2.7"/><rect class="cls-11" x="303.72" y="391.99" width="23.71" height="14.44"/><rect class="cls-11" x="303.72" y="407.27" width="23.71" height="4.35"/><rect class="cls-11" x="303.72" y="412.47" width="23.71" height="12.61"/><rect class="cls-11" x="303.72" y="436.18" width="23.71" height="4.91"/><rect class="cls-11" x="303.72" y="429.46" width="23.71" height="5.88"/><rect class="cls-11" x="282.88" y="429.46" width="19.99" height="5.88"/><rect class="cls-11" x="282.88" y="412.47" width="19.99" height="12.61"/><rect class="cls-11" x="282.88" y="425.92" width="19.99" height="2.7"/><rect class="cls-11" x="303.72" y="385.09" width="23.71" height="6.06"/><rect class="cls-11" x="282.88" y="407.27" width="19.99" height="4.35"/><rect class="cls-11" x="282.88" y="391.99" width="19.99" height="14.44"/><rect class="cls-11" x="282.88" y="436.18" width="19.99" height="4.91"/><rect class="cls-11" x="262.88" y="407.27" width="19.16" height="4.35"/><rect class="cls-11" x="328.27" y="441.94" width="20.51" height="41.79"/><rect class="cls-11" x="328.27" y="436.18" width="20.51" height="4.91"/><polygon class="cls-11" points="221.02 441.94 201.66 441.94 201.66 441.1 221.02 441.1 221.02 436.18 201.66 436.18 201.66 435.34 221.02 435.34 221.02 429.46 201.66 429.46 201.66 428.62 221.02 428.62 221.02 425.92 201.66 425.92 201.66 425.08 221.02 425.08 221.02 412.47 201.66 412.47 201.66 411.63 221.02 411.63 221.02 407.27 201.66 407.27 201.66 406.43 221.02 406.43 221.02 391.99 201.66 391.99 201.66 391.15 221.02 391.15 221.02 385.09 201.66 385.09 201.66 384.25 221.02 384.25 221.02 372.1 201.66 372.1 201.66 483.73 221.02 483.73 221.02 441.94"/><rect class="cls-11" x="303.72" y="441.94" width="23.71" height="41.79"/><rect class="cls-11" x="303.72" y="372.1" width="23.71" height="12.15"/><rect class="cls-11" x="328.27" y="429.46" width="20.51" height="5.88"/><rect class="cls-11" x="328.27" y="412.47" width="20.51" height="12.61"/><rect class="cls-11" x="328.27" y="385.09" width="20.51" height="6.06"/><rect class="cls-11" x="328.27" y="391.99" width="20.51" height="14.44"/><rect class="cls-11" x="328.27" y="372.1" width="20.51" height="12.15"/><rect class="cls-11" x="241.73" y="391.99" width="20.3" height="14.44"/><rect class="cls-11" x="328.27" y="425.92" width="20.51" height="2.7"/><rect class="cls-11" x="328.27" y="407.27" width="20.51" height="4.35"/><rect class="cls-11" x="282.88" y="441.94" width="19.99" height="41.79"/><rect class="cls-11" x="221.87" y="436.18" width="19.02" height="4.91"/><rect class="cls-11" x="221.87" y="425.92" width="19.02" height="2.7"/><rect class="cls-11" x="221.87" y="429.46" width="19.02" height="5.88"/><rect class="cls-11" x="241.73" y="372.1" width="20.3" height="12.15"/><rect class="cls-11" x="221.87" y="412.47" width="19.02" height="12.61"/><rect class="cls-11" x="241.73" y="385.09" width="20.3" height="6.06"/><rect class="cls-11" x="262.88" y="441.94" width="19.16" height="41.79"/><rect class="cls-11" x="221.87" y="441.94" width="19.02" height="41.79"/><rect class="cls-11" x="241.73" y="441.94" width="20.3" height="41.79"/><rect class="cls-11" x="221.87" y="407.27" width="19.02" height="4.35"/><rect class="cls-11" x="221.87" y="372.1" width="19.02" height="12.15"/><rect class="cls-11" x="221.87" y="385.09" width="19.02" height="6.06"/><rect class="cls-11" x="221.87" y="391.99" width="19.02" height="14.44"/><path class="cls-12" d="M142.27,522.67V538a7.69,7.69,0,1,1,0-15.37Z"/><path class="cls-13" d="M141.76,483.52v27.57a13.79,13.79,0,1,1,0-27.57Z"/><path class="cls-14" d="M141.76,426.55v45.61a22.81,22.81,0,1,1,0-45.61Z"/><path class="cls-15" d="M141.76,277.52V376a49.26,49.26,0,1,1,0-98.52Z"/><path class="cls-16" d="M142,528.13V509.24a9.45,9.45,0,1,1,0,18.89Z"/><path class="cls-16" d="M142,488.3V469.41a9.45,9.45,0,1,1,0,18.89Z"/><path class="cls-17" d="M142,431.32V364.74a33.29,33.29,0,1,1,0,66.58Z"/><path class="cls-9" d="M321.67,339.58a8,8,0,1,1,8-8A8,8,0,0,1,321.67,339.58Zm0-14.78a6.76,6.76,0,1,0,6.76,6.76A6.76,6.76,0,0,0,321.67,324.8Z"/><path class="cls-2" d="M321.67,335.3a3.74,3.74,0,1,1,3.74-3.74A3.75,3.75,0,0,1,321.67,335.3Zm0-7.23a3.49,3.49,0,1,0,3.49,3.49A3.49,3.49,0,0,0,321.67,328.07Z"/><circle class="cls-2" cx="321.67" cy="331.56" r="1.2"/><path class="cls-9" d="M329.69,350.27h-1.26v-3.93a6.76,6.76,0,0,0-13.52,0v3.93h-1.26v-3.93a8,8,0,0,1,16,0Z"/><path class="cls-18" d="M426.67,349.81H173.51a4.59,4.59,0,0,0-4.6,4.59v3.24H431.27V354.4A4.59,4.59,0,0,0,426.67,349.81Z"/><rect class="cls-2" x="197.16" y="568.38" width="212.26" height="58.56"/><path class="cls-3" d="M213.24,575.35v8.24H205v-8.24h8.24m.25-.25h-8.75v8.74h8.75V575.1Z"/><path class="cls-3" d="M225.43,575.35v8.24h-8.24v-8.24h8.24m.25-.25h-8.75v8.74h8.75V575.1Z"/><path class="cls-3" d="M237.62,575.35v8.24h-8.24v-8.24h8.24m.25-.25h-8.75v8.74h8.75V575.1Z"/><path class="cls-3" d="M249.8,575.35v8.24h-8.24v-8.24h8.24m.26-.25h-8.75v8.74h8.75V575.1Z"/><path class="cls-3" d="M213.24,587.77V596H205v-8.25h8.24m.25-.25h-8.75v8.75h8.75v-8.75Z"/><path class="cls-3" d="M225.43,587.77V596h-8.24v-8.25h8.24m.25-.25h-8.75v8.75h8.75v-8.75Z"/><path class="cls-3" d="M237.62,587.77V596h-8.24v-8.25h8.24m.25-.25h-8.75v8.75h8.75v-8.75Z"/><path class="cls-3" d="M249.8,587.77V596h-8.24v-8.25h8.24m.26-.25h-8.75v8.75h8.75v-8.75Z"/><path class="cls-3" d="M213.24,600.2v8.24H205V600.2h8.24m.25-.25h-8.75v8.74h8.75V600Z"/><path class="cls-3" d="M225.43,600.2v8.24h-8.24V600.2h8.24m.25-.25h-8.75v8.74h8.75V600Z"/><path class="cls-3" d="M237.62,600.2v8.24h-8.24V600.2h8.24m.25-.25h-8.75v8.74h8.75V600Z"/><path class="cls-3" d="M249.8,600.2v8.24h-8.24V600.2h8.24m.26-.25h-8.75v8.74h8.75V600Z"/><path class="cls-3" d="M213.24,612.62v8.24H205v-8.24h8.24m.25-.25h-8.75v8.75h8.75v-8.75Z"/><path class="cls-3" d="M225.43,612.62v8.24h-8.24v-8.24h8.24m.25-.25h-8.75v8.75h8.75v-8.75Z"/><path class="cls-3" d="M237.62,612.62v8.24h-8.24v-8.24h8.24m.25-.25h-8.75v8.75h8.75v-8.75Z"/><path class="cls-3" d="M262.2,575.35v8.24H254v-8.24h8.24m.26-.25h-8.75v8.74h8.75V575.1Z"/><path class="cls-3" d="M274.39,575.35v8.24h-8.24v-8.24h8.24m.26-.25H265.9v8.74h8.75V575.1Z"/><path class="cls-3" d="M286.58,575.35v8.24h-8.24v-8.24h8.24m.25-.25h-8.74v8.74h8.74V575.1Z"/><path class="cls-3" d="M298.77,575.35v8.24h-8.24v-8.24h8.24m.25-.25h-8.74v8.74H299V575.1Z"/><path class="cls-3" d="M262.2,587.77V596H254v-8.25h8.24m.26-.25h-8.75v8.75h8.75v-8.75Z"/><path class="cls-3" d="M274.39,587.77V596h-8.24v-8.25h8.24m.26-.25H265.9v8.75h8.75v-8.75Z"/><path class="cls-3" d="M286.58,587.77V596h-8.24v-8.25h8.24m.25-.25h-8.74v8.75h8.74v-8.75Z"/><path class="cls-3" d="M298.77,587.77V596h-8.24v-8.25h8.24m.25-.25h-8.74v8.75H299v-8.75Z"/><path class="cls-3" d="M262.2,600.2v8.24H254V600.2h8.24m.26-.25h-8.75v8.74h8.75V600Z"/><path class="cls-3" d="M274.39,600.2v8.24h-8.24V600.2h8.24m.26-.25H265.9v8.74h8.75V600Z"/><path class="cls-3" d="M286.58,600.2v8.24h-8.24V600.2h8.24m.25-.25h-8.74v8.74h8.74V600Z"/><path class="cls-3" d="M298.77,600.2v8.24h-8.24V600.2h8.24M299,600h-8.74v8.74H299V600Z"/><path class="cls-3" d="M373.08,575.35v8.24h-8.24v-8.24h8.24m.25-.25h-8.74v8.74h8.74V575.1Z"/><path class="cls-3" d="M385.27,575.35v8.24H377v-8.24h8.24m.25-.25h-8.74v8.74h8.74V575.1Z"/><path class="cls-3" d="M397.46,575.35v8.24h-8.24v-8.24h8.24m.25-.25H389v8.74h8.74V575.1Z"/><path class="cls-3" d="M373.08,587.77V596h-8.24v-8.25h8.24m.25-.25h-8.74v8.75h8.74v-8.75Z"/><path class="cls-3" d="M385.27,587.77V596H377v-8.25h8.24m.25-.25h-8.74v8.75h8.74v-8.75Z"/><path class="cls-3" d="M397.46,587.77V596h-8.24v-8.25h8.24m.25-.25H389v8.75h8.74v-8.75Z"/><path class="cls-3" d="M373.08,600.2v8.24h-8.24V600.2h8.24m.25-.25h-8.74v8.74h8.74V600Z"/><path class="cls-3" d="M385.27,600.2v8.24H377V600.2h8.24m.25-.25h-8.74v8.74h8.74V600Z"/><path class="cls-3" d="M397.46,600.2v8.24h-8.24V600.2h8.24m.25-.25H389v8.74h8.74V600Z"/><path class="cls-3" d="M373.08,612.62v8.24h-8.24v-8.24h8.24m.25-.25h-8.74v8.75h8.74v-8.75Z"/><path class="cls-3" d="M385.27,612.62v8.24H377v-8.24h8.24m.25-.25h-8.74v8.75h8.74v-8.75Z"/><path class="cls-3" d="M397.46,612.62v8.24h-8.24v-8.24h8.24m.25-.25H389v8.75h8.74v-8.75Z"/><path class="cls-3" d="M312,575.35v8.24h-8.24v-8.24H312m.25-.25h-8.74v8.74h8.74V575.1Z"/><path class="cls-3" d="M324.15,575.35v8.24h-8.24v-8.24h8.24m.25-.25h-8.74v8.74h8.74V575.1Z"/><path class="cls-3" d="M336.34,575.35v8.24H328.1v-8.24h8.24m.25-.25h-8.74v8.74h8.74V575.1Z"/><path class="cls-3" d="M348.53,575.35v8.24h-8.24v-8.24h8.24m.25-.25H340v8.74h8.74V575.1Z"/><path class="cls-3" d="M312,587.77V596h-8.24v-8.25H312m.25-.25h-8.74v8.75h8.74v-8.75Z"/><path class="cls-3" d="M324.15,587.77V596h-8.24v-8.25h8.24m.25-.25h-8.74v8.75h8.74v-8.75Z"/><path class="cls-3" d="M348.53,587.77V596H328.1v-8.25h20.43m.25-.25H327.85v8.75h20.93v-8.75Z"/><path class="cls-3" d="M312,600.2v8.24h-8.24V600.2H312m.25-.25h-8.74v8.74h8.74V600Z"/><path class="cls-3" d="M324.15,600.2v8.24h-8.24V600.2h8.24m.25-.25h-8.74v8.74h8.74V600Z"/><path class="cls-3" d="M336.34,600.2v8.24H328.1V600.2h8.24m.25-.25h-8.74v8.74h8.74V600Z"/><path class="cls-3" d="M348.53,600.2v8.24h-8.24V600.2h8.24m.25-.25H340v8.74h8.74V600Z"/><path class="cls-3" d="M312,612.62v8.24h-8.24v-8.24H312m.25-.25h-8.74v8.75h8.74v-8.75Z"/><path class="cls-3" d="M324.15,612.62v8.24h-8.24v-8.24h8.24m.25-.25h-8.74v8.75h8.74v-8.75Z"/><path class="cls-3" d="M336.34,612.62v8.24H328.1v-8.24h8.24m.25-.25h-8.74v8.75h8.74v-8.75Z"/><path class="cls-3" d="M348.53,612.62v8.24h-8.24v-8.24h8.24m.25-.25H340v8.75h8.74v-8.75Z"/><path class="cls-3" d="M298.77,612.62v8.24H241.56v-8.24h57.21m.25-.25H241.31v8.75H299v-8.75Z"/><path class="cls-10" d="M387.6,426.13H309.14V387.57H387.6Zm-77.19-1.26h75.92v-36H310.41Z"/><path class="cls-10" d="M417.49,487.61H401.22V475.47h8.45v1.63h7.82ZM401.85,487h15v-9.24H409V476.1h-7.19Z"/><path class="cls-10" d="M417.49,467.52H401.22V455.38h8.45V457h7.82Zm-15.64-.63h15v-9.24H409V456h-7.19Z"/><path class="cls-6" d="M309.78,669.44H410a60.67,60.67,0,0,1,60.68,60.68V750H309.78Z"/><path class="cls-10" d="M417.49,447.59H401.22V435.45h8.45v1.63h7.82ZM401.85,447h15v-9.25H409v-1.63h-7.19Z"/><path class="cls-6" d="M460.4,108.28a2.93,2.93,0,1,1,2.92-2.92A2.92,2.92,0,0,1,460.4,108.28Zm0-5.21a2.29,2.29,0,1,0,2.29,2.29A2.28,2.28,0,0,0,460.4,103.07Z"/><path class="cls-6" d="M134.87,283.32a2.92,2.92,0,1,1,2.92-2.92A2.93,2.93,0,0,1,134.87,283.32Zm0-5.21a2.29,2.29,0,1,0,2.29,2.29A2.3,2.3,0,0,0,134.87,278.11Z"/><g class="cls-19"><path class="cls-6" d="M265,179.19a2,2,0,1,1,2-2A2,2,0,0,1,265,179.19Zm0-3.43a1.4,1.4,0,1,0,1.4,1.4A1.4,1.4,0,0,0,265,175.76Z"/><path class="cls-6" d="M279.4,197.27a1,1,0,1,1,1-1A1,1,0,0,1,279.4,197.27Zm0-1.71a.7.7,0,1,0,.7.69A.7.7,0,0,0,279.4,195.56Z"/><path class="cls-6" d="M401.42,140.58a1,1,0,1,1,1-1A1,1,0,0,1,401.42,140.58Zm0-1.72a.7.7,0,1,0,.7.7A.69.69,0,0,0,401.42,138.86Z"/><path class="cls-6" d="M201.16,133.63a1,1,0,1,1,1-1A1,1,0,0,1,201.16,133.63Zm0-1.72a.7.7,0,1,0,.7.7A.69.69,0,0,0,201.16,131.91Z"/><path class="cls-6" d="M354.66,137.72a1,1,0,1,1,1-1A1,1,0,0,1,354.66,137.72Zm0-1.72a.7.7,0,1,0,0,1.4.7.7,0,0,0,0-1.4Z"/><path class="cls-6" d="M271.9,143.52a2.06,2.06,0,1,1,2.06-2.06A2.06,2.06,0,0,1,271.9,143.52Zm0-3.8a1.75,1.75,0,1,0,1.74,1.74A1.74,1.74,0,0,0,271.9,139.72Z"/><circle class="cls-6" cx="285.99" cy="137.24" r="1.46"/><circle class="cls-6" cx="368.87" cy="149.42" r="1.46"/><circle class="cls-6" cx="326.67" cy="178.87" r="1.46"/><circle class="cls-6" cx="362.13" cy="136.7" r="0.73"/><circle class="cls-6" cx="390.25" cy="173.67" r="0.73"/><circle class="cls-6" cx="318.78" cy="145.67" r="0.73"/><circle class="cls-6" cx="233.75" cy="214.82" r="0.73"/><circle class="cls-6" cx="314.13" cy="202.85" r="0.73"/><circle class="cls-6" cx="353.93" cy="142.36" r="0.73"/><circle class="cls-6" cx="257.18" cy="178.87" r="0.73"/></g><path class="cls-6" d="M381.86,526.24a80.2,80.2,0,0,0-160.33-3.41l-.09,0v62c0,12-9.84,21.45-21.86,21.6A21.59,21.59,0,0,0,178.25,628v14.2a21.6,21.6,0,0,1-21.59,21.6h-22a21.59,21.59,0,0,0-21.59,21.6v11.41a21.6,21.6,0,0,1-21.6,21.59l-7.74,1.26V750H301.65l19.37-.1a61.23,61.23,0,0,0,60.91-61.23V526.24Z"/><path class="cls-20" d="M381.86,526.24a80.2,80.2,0,0,0-160.33-3.41l-.09,0v62c0,12-9.84,21.45-21.86,21.6A21.6,21.6,0,0,0,178.25,628v14.2a21.6,21.6,0,0,1-21.59,21.6h-22a21.59,21.59,0,0,0-21.59,21.6v11.41a21.6,21.6,0,0,1-21.6,21.59l-7.74,1.26V750H279.31l41.64-.17a61.23,61.23,0,0,0,61-61.23V526.24Z"/><path class="cls-21" d="M381.86,526.24c0-1.23,0-2.46-.1-3.67,0-.32,0-.64-.05-1-.06-1.08-.14-2.15-.24-3.22,0-.15,0-.3,0-.45-.12-1.19-.28-2.36-.45-3.54,0-.3-.09-.6-.14-.91-.16-1-.33-2-.53-2.93,0-.22-.08-.44-.13-.67q-.35-1.71-.78-3.39c-.07-.29-.15-.57-.22-.85-.25-.91-.5-1.82-.78-2.72l-.24-.81c-.34-1.09-.71-2.17-1.1-3.24-.09-.24-.18-.49-.28-.74-.32-.87-.66-1.73-1-2.58-.13-.29-.25-.59-.37-.88-.44-1-.9-2.06-1.39-3.07-.09-.2-.2-.4-.3-.6-.41-.84-.84-1.67-1.28-2.5l-.48-.9c-.54-1-1.09-1.94-1.67-2.89-.07-.13-.16-.25-.24-.38-.51-.84-1.05-1.67-1.59-2.49l-.61-.9c-.53-.78-1.08-1.55-1.64-2.3l-.35-.49q-1-1.31-2-2.55c-.23-.3-.47-.58-.72-.87-.54-.65-1.1-1.29-1.66-1.92l-.59-.67c-.72-.79-1.46-1.56-2.21-2.31l-.81-.8c-.57-.56-1.15-1.11-1.73-1.66l-.79-.73c-.79-.7-1.58-1.39-2.39-2.07l-.87-.7c-.6-.49-1.22-1-1.84-1.45l-1-.71c-.84-.63-1.69-1.24-2.56-1.83-.29-.2-.59-.38-.88-.57-.66-.44-1.32-.87-2-1.29l-1.06-.65c-.9-.54-1.81-1.07-2.74-1.57h0V746.7a61.25,61.25,0,0,0,41.89-58.1V526.24Z"/><rect class="cls-22" x="303.3" y="493.86" width="16.73" height="255.73"/><path class="cls-6" d="M221.53,522.71l-.09,0v62a21.58,21.58,0,0,1-21.59,21.59,21.6,21.6,0,0,0-21.6,21.6v14.2a21.6,21.6,0,0,1-21.59,21.6h-22a21.59,21.59,0,0,0-21.59,21.59v11.41a21.6,21.6,0,0,1-21.6,21.6c-13.56,0-25.86,9.55-25.86,31.56h94.79A21,21,0,0,0,163,739.76v-9.41a21,21,0,0,1,20-21l15.27-.79a21,21,0,0,0,20-21V672.12a21,21,0,0,1,21-21h0a21.05,21.05,0,0,0,21-20.37l2.19-68.79.42-106A80.18,80.18,0,0,0,221.53,522.71Z"/><path class="cls-23" d="M221.53,522.71l-.09,0v62a21.58,21.58,0,0,1-21.59,21.59,21.6,21.6,0,0,0-21.6,21.6v14.2a21.6,21.6,0,0,1-21.59,21.6h-22a21.59,21.59,0,0,0-21.59,21.59v11.41a21.6,21.6,0,0,1-21.6,21.6c-13.56,0-25.86,9.55-25.86,31.56h94.79A21,21,0,0,0,163,739.76v-9.41a21,21,0,0,1,20-21l15.27-.79a21,21,0,0,0,20-21V672.12a21,21,0,0,1,21-21h0a21.05,21.05,0,0,0,21-20.37l2.19-68.79.42-106A80.18,80.18,0,0,0,221.53,522.71Z"/><path class="cls-23" d="M221.53,522.71l-.09,0v62a21.58,21.58,0,0,1-21.59,21.59,21.6,21.6,0,0,0-21.6,21.6v14.2a21.6,21.6,0,0,1-21.59,21.6h-22a21.59,21.59,0,0,0-21.59,21.59v11.41a21.6,21.6,0,0,1-21.6,21.6c-13.56,0-25.86,9.55-25.86,31.56h94.79A21,21,0,0,0,163,739.76v-9.41a21,21,0,0,1,20-21l15.27-.79a21,21,0,0,0,20-21V672.12a21,21,0,0,1,21-21h0a21.05,21.05,0,0,0,21-20.37l2.19-68.79.42-106A80.18,80.18,0,0,0,221.53,522.71Z"/></g></g></svg>