<svg id="Layer_1" data-name="Layer 1" xmlns="http://www.w3.org/2000/svg" viewBox="0 0 617.51 235.93"><defs><style>.cls-1{fill:#fff;}</style></defs><title>stars</title><rect class="cls-1" x="141.46" y="32.17" width="7.56" height="7.56"/><rect class="cls-1" x="505.28" y="157.52" width="7.56" height="7.56"/><rect class="cls-1" x="212.02" y="92.19" width="5.28" height="5.28"/><rect class="cls-1" x="459.24" y="199.94" width="5.28" height="5.28"/><rect class="cls-1" x="61.97" y="142.08" width="5.28" height="5.28"/><rect class="cls-1" x="518.61" y="7.17" width="5.28" height="5.28"/><rect class="cls-1" x="138.82" y="126.89" width="2.64" height="2.64"/><rect class="cls-1" x="99.71" y="100.11" width="2.64" height="2.64"/><rect class="cls-1" x="166.97" y="202.64" width="2.64" height="2.64"/><rect class="cls-1" x="612.23" y="78.03" width="5.28" height="5.28"/><rect class="cls-1" x="577.26" y="119.05" width="2.64" height="2.64"/><rect class="cls-1" x="82.26" y="86.5" width="2.64" height="2.64"/><rect class="cls-1" x="292.29" y="4.53" width="2.64" height="2.64"/><rect class="cls-1" x="427.92" y="85.18" width="2.64" height="2.64"/><rect class="cls-1" x="605.37" y="187.85" width="2.64" height="2.64"/><path class="cls-1" d="M231.47,44.72V49h-4.28V44.72h4.28m.5-.5h-5.28V49.5H232V44.22Z"/><path class="cls-1" d="M33.75,15.72V20H29.47V15.72h4.28m.5-.5H29V20.5h5.28V15.22Z"/><path class="cls-1" d="M419.21,120.66v4.28h-4.28v-4.28h4.28m.5-.5h-5.28v5.28h5.28v-5.28Z"/><path class="cls-1" d="M315.21,78v2.17H313V78h2.17m.5-.5h-3.17v3.17h3.17V77.5Z"/><path class="cls-1" d="M522.34,173.59v2.17h-2.17v-2.17h2.17m.5-.5h-3.17v3.17h3.17v-3.17Z"/><path class="cls-1" d="M242.92,141.46v2.17h-2.17v-2.17h2.17m.5-.5h-3.17v3.17h3.17V141Z"/><path class="cls-1" d="M395.8,92.61v2.17h-2.17V92.61h2.17m.5-.5h-3.17v3.17h3.17V92.11Z"/><path class="cls-1" d="M499.08,233.26v2.17h-2.17v-2.17h2.17m.5-.5h-3.17v3.17h3.17v-3.17Z"/><path class="cls-1" d="M176.08.5V2.67h-2.17V.5h2.17m.5-.5h-3.17V3.17h3.17V0Z"/><path class="cls-1" d="M112.5,48.42v2.17h-2.17V48.42h2.17m.5-.5h-3.17v3.17H113V47.92Z"/><path class="cls-1" d="M2.67,38.65v2.17H.5V38.65H2.67m.5-.5H0v3.17H3.17V38.15Z"/></svg>