<svg id="Layer_1" data-name="Layer 1" xmlns="http://www.w3.org/2000/svg" xmlns:xlink="http://www.w3.org/1999/xlink" viewBox="0 0 184.3 458.93"><defs><style>.cls-1{opacity:0.49;}.cls-2{fill:url(#linear-gradient);}.cls-3{fill:url(#linear-gradient-2);}.cls-4{fill:url(#linear-gradient-3);}.cls-5{fill:url(#linear-gradient-4);}.cls-6{fill:url(#linear-gradient-5);}.cls-7{fill:url(#linear-gradient-7);}.cls-8{fill:#40bead;}.cls-10,.cls-9{fill:none;stroke-miterlimit:10;}.cls-9{stroke:#f969a4;}.cls-10{stroke:#474747;}</style><linearGradient id="linear-gradient" x1="2565.41" y1="412.97" x2="2565.41" y2="60.51" gradientTransform="translate(-2255.16) scale(0.92 1)" gradientUnits="userSpaceOnUse"><stop offset="0" stop-color="#fff"/><stop offset="1" stop-color="#fff" stop-opacity="0"/></linearGradient><linearGradient id="linear-gradient-2" x1="2534.66" y1="412.97" x2="2534.66" y2="60.51" xlink:href="#linear-gradient"/><linearGradient id="linear-gradient-3" x1="2539.17" y1="412.97" x2="2539.17" y2="60.51" xlink:href="#linear-gradient"/><linearGradient id="linear-gradient-4" x1="2545.84" y1="412.97" x2="2545.84" y2="60.51" xlink:href="#linear-gradient"/><linearGradient id="linear-gradient-5" x1="2521.66" y1="412.97" x2="2521.66" y2="60.51" xlink:href="#linear-gradient"/><linearGradient id="linear-gradient-7" x1="2504.02" y1="412.97" x2="2504.02" y2="60.51" xlink:href="#linear-gradient"/></defs><title>coffee</title><g class="cls-1"><path class="cls-2" d="M76.6,0V133.92A67,67,0,1,0,76.6,0Z"/></g><g class="cls-1"><path class="cls-3" d="M76.6,333.21v20.9a10.45,10.45,0,1,0,0-20.9Z"/><path class="cls-4" d="M76.6,280v37.47a18.74,18.74,0,1,0,0-37.47Z"/><path class="cls-5" d="M76.6,202.56v62a31,31,0,1,0,0-62Z"/><path class="cls-6" d="M76.31,340.63V315a12.84,12.84,0,1,0,0,25.68Z"/><path class="cls-6" d="M76.31,286.49V260.81a12.84,12.84,0,1,0,0,25.68Z"/><path class="cls-7" d="M76.31,209.05V118.56a45.25,45.25,0,1,0,0,90.49Z"/></g><rect class="cls-8" x="0.03" y="401.61" width="154.82" height="17.75"/><path class="cls-9" d="M42.69,360.18a37.63,37.63,0,0,0,75.26,0Z"/><path class="cls-9" d="M37.35,360.18H25a12.28,12.28,0,0,0,12.31,12.26h0Z"/><rect class="cls-10" x="29.68" y="422.94" width="154.82" height="35.49"/><line class="cls-10" x1="61.06" y1="431.95" x2="61.06" y2="457.61"/><line class="cls-10" x1="151.72" y1="422.94" x2="151.72" y2="448.59"/><g class="cls-1"><path class="cls-2" d="M76.6,0V133.92A67,67,0,1,0,76.6,0Z"/></g><g class="cls-1"><path class="cls-3" d="M76.6,333.21v20.9a10.45,10.45,0,1,0,0-20.9Z"/><path class="cls-4" d="M76.6,280v37.47a18.74,18.74,0,1,0,0-37.47Z"/><path class="cls-5" d="M76.6,202.56v62a31,31,0,1,0,0-62Z"/><path class="cls-6" d="M76.31,340.63V315a12.84,12.84,0,1,0,0,25.68Z"/><path class="cls-6" d="M76.31,286.49V260.81a12.84,12.84,0,1,0,0,25.68Z"/><path class="cls-7" d="M76.31,209.05V118.56a45.25,45.25,0,1,0,0,90.49Z"/></g><rect class="cls-8" x="0.03" y="401.61" width="154.82" height="17.75"/><path class="cls-9" d="M42.69,360.18a37.63,37.63,0,0,0,75.26,0Z"/><path class="cls-9" d="M37.35,360.18H25a12.28,12.28,0,0,0,12.31,12.26h0Z"/><rect class="cls-10" x="29.68" y="422.94" width="154.82" height="35.49"/><line class="cls-10" x1="61.06" y1="431.95" x2="61.06" y2="457.61"/><line class="cls-10" x1="151.72" y1="422.94" x2="151.72" y2="448.59"/></svg>