<svg id="Layer_1" data-name="Layer 1" xmlns="http://www.w3.org/2000/svg" xmlns:xlink="http://www.w3.org/1999/xlink" viewBox="0 0 372 546.19"><defs><style>.cls-1{fill:url(#linear-gradient);}.cls-2{fill:#fff;}.cls-3{fill:#474747;}.cls-4,.cls-7{fill:#f0468a;}.cls-4{opacity:0.3;}.cls-5{fill:url(#linear-gradient-2);}.cls-6{fill:#f1f7f7;}.cls-8{fill:#f969a4;}</style><linearGradient id="linear-gradient" x1="234.65" y1="134.46" x2="241.39" y2="277.83" gradientUnits="userSpaceOnUse"><stop offset="0" stop-color="#fff"/><stop offset="1" stop-color="#fff" stop-opacity="0"/></linearGradient><linearGradient id="linear-gradient-2" x1="121.6" y1="385.08" x2="119.76" y2="372.22" xlink:href="#linear-gradient"/></defs><title>table-v</title><path class="cls-1" d="M191.19,166h93.09a0,0,0,0,1,0,0V233a46.54,46.54,0,0,1-46.54,46.54h0A46.54,46.54,0,0,1,191.19,233V166A0,0,0,0,1,191.19,166Z"/><path class="cls-2" d="M237.73,281.47A48.51,48.51,0,0,1,189.28,233L192,112.09h91.39L286.18,233A48.52,48.52,0,0,1,237.73,281.47Zm-42-165.56L193.1,233.06a44.64,44.64,0,0,0,89.27-.05l-2.67-117.1Z"/><path class="cls-2" d="M260.13,254a4.57,4.57,0,1,1,4.57-4.57A4.58,4.58,0,0,1,260.13,254Zm0-7.69a3.13,3.13,0,1,0,3.13,3.12A3.12,3.12,0,0,0,260.13,246.27Z"/><path class="cls-2" d="M217.45,241.75a7.78,7.78,0,1,1,7.77-7.77A7.78,7.78,0,0,1,217.45,241.75Zm0-14.1a6.33,6.33,0,1,0,6.33,6.33A6.34,6.34,0,0,0,217.45,227.65Z"/><path class="cls-2" d="M242.18,207.5a4.36,4.36,0,1,1,4.36-4.36A4.36,4.36,0,0,1,242.18,207.5Zm0-7.28a2.92,2.92,0,1,0,2.92,2.92A2.92,2.92,0,0,0,242.18,200.22Z"/><rect class="cls-2" x="235.82" y="281.39" width="3.82" height="142.15"/><path class="cls-2" d="M280.55,426.9H194.92a3.36,3.36,0,0,1,0-6.72h85.63a3.36,3.36,0,0,1,0,6.72Z"/><rect class="cls-2" x="215.34" y="81.79" width="21.36" height="2.38" transform="translate(7.53 184.12) rotate(-45)"/><rect class="cls-2" x="224.83" y="72.29" width="2.38" height="21.36" transform="translate(7.53 184.12) rotate(-45)"/><rect class="cls-2" x="254.79" y="42.2" width="10.68" height="1.19" transform="translate(45.84 196.35) rotate(-44.97)"/><rect class="cls-2" x="259.54" y="37.46" width="1.19" height="10.68" transform="translate(45.92 196.47) rotate(-45)"/><rect class="cls-2" x="223.52" y="5.76" width="17.07" height="1.9" transform="translate(63.22 166.05) rotate(-45)"/><rect class="cls-2" x="231.11" y="-1.83" width="1.9" height="17.07" transform="translate(63.22 166.05) rotate(-45)"/><rect class="cls-3" x="86.93" y="340.67" width="65.85" height="60.34" rx="9.87"/><rect class="cls-3" x="86.93" y="340.67" width="65.85" height="60.34" rx="9.87"/><path class="cls-4" d="M140,393.45H99.79a5.38,5.38,0,0,1-5.37-5.37V353.56a5.38,5.38,0,0,1,5.37-5.37H140a5.38,5.38,0,0,1,5.37,5.37v34.52A5.38,5.38,0,0,1,140,393.45ZM99.79,348.91a4.66,4.66,0,0,0-4.65,4.65v34.52a4.65,4.65,0,0,0,4.65,4.65H140a4.65,4.65,0,0,0,4.65-4.65V353.56a4.65,4.65,0,0,0-4.65-4.65Z"/><polygon class="cls-5" points="119.83 384.67 127.85 374.07 112.2 374.07 119.83 384.67"/><path class="cls-6" d="M125.31,370.8l1.49,2.66H113.42l2-2.66h9.94m.36-.61H115.06l-2.85,3.88h15.64l-2.18-3.88Z"/><polygon class="cls-6" points="120.01 374.09 115.22 370.82 115.56 370.31 120.04 373.36 125.16 370.3 125.48 370.83 120.01 374.09"/><path class="cls-6" d="M119.86,409.66a13.76,13.76,0,1,1,13.75-13.75A13.77,13.77,0,0,1,119.86,409.66Zm0-24.73a11,11,0,1,0,11,11A11,11,0,0,0,119.86,384.93Z"/><path class="cls-7" d="M90.56,406.17h56.75C117.47,378.28,90.56,406.17,90.56,406.17Z"/><path class="cls-3" d="M89.1,403.21h61.51a5,5,0,0,1,5,5v20.15a0,0,0,0,1,0,0H84.14a0,0,0,0,1,0,0V408.18A5,5,0,0,1,89.1,403.21Z"/><rect class="cls-8" y="426.74" width="310.46" height="43.54"/><g id="box1"><path class="cls-3" d="M372,546.19H57.35V470.56H372ZM61.54,542H367.8V474.76H61.54Z"/><rect class="cls-3" x="59.42" y="503.5" width="310.51" height="4.2" transform="translate(-9.03 3.93) rotate(-1.03)"/></g></svg>