<?xml version="1.0" encoding="UTF-8"?>
<svg width="594px" height="779px" viewBox="0 0 594 779" version="1.1" xmlns="http://www.w3.org/2000/svg" xmlns:xlink="http://www.w3.org/1999/xlink">
    <!-- Generator: Sketch 51.2 (57519) - http://www.bohemiancoding.com/sketch -->
    <title>Home-Kelly</title>
    <desc>Created with Sketch.</desc>
    <defs>
        <linearGradient x1="49.9999566%" y1="85.2962905%" x2="49.9999566%" y2="-25.2352912%" id="linearGradient-1">
            <stop stop-color="#FFFFFF" offset="0%"></stop>
            <stop stop-color="#FFFFFF" stop-opacity="0" offset="100%"></stop>
        </linearGradient>
        <linearGradient x1="41.5874297%" y1="4.97546027%" x2="55.7524928%" y2="157.734873%" id="linearGradient-2">
            <stop stop-color="#A3CBCC" offset="0%"></stop>
            <stop stop-color="#A3CBCC" stop-opacity="0" offset="100%"></stop>
        </linearGradient>
        <linearGradient x1="49.8300863%" y1="0.145542479%" x2="50.0004357%" y2="100.25568%" id="linearGradient-3">
            <stop stop-color="#508C8E" offset="0%"></stop>
            <stop stop-color="#85B7B9" stop-opacity="0" offset="100%"></stop>
        </linearGradient>
        <linearGradient x1="22.4399586%" y1="-19.1447888%" x2="61.4271341%" y2="71.5999809%" id="linearGradient-4">
            <stop stop-color="#F969A4" offset="0%"></stop>
            <stop stop-color="#F969A4" stop-opacity="0" offset="100%"></stop>
        </linearGradient>
    </defs>
    <g id="Page-1" stroke="none" stroke-width="1" fill="none" fill-rule="evenodd">
        <g id="Home-Kelly">
            <rect id="Rectangle-path" fill="#474747" fill-rule="nonzero" opacity="0.51" x="161.90593" y="137.877" width="265.42989" height="448.98615"></rect>
            <path d="M198.80532,148.74767 C247.3001,323.36133 239.48888,404.57152 198.80532,510.77478 C156.42957,621.39545 202.02573,690.83165 202.02573,690.83165 L172.15454,636.09185 L165.82754,138.67954 L198.80532,148.74767 Z" id="Shape" fill="#FBBC23" fill-rule="nonzero" opacity="0.8"></path>
            <path d="M305.52147,348.57675 L284.15376,348.57675 C237.789329,348.576754 199.296957,312.767425 195.95287,266.52375 L188.21887,159.57346 C186.163052,131.144463 195.851307,103.115548 215.023936,82.0242094 C234.196564,60.9328707 261.177207,48.6232295 289.67287,47.9664 L295.21271,47.8387 C324.542769,47.1626133 352.797105,58.8911722 373.026167,80.1395729 C393.255229,101.387974 403.581726,130.184329 401.46571,159.44577 L393.72246,266.52377 C390.378356,312.767473 351.88593,348.576802 305.52147,348.57675 Z" id="Shape" fill="#FFFFFF" fill-rule="nonzero"></path>
            <path d="M284.17082,176.47183 L282.35982,222.68422 C277.309798,224.257623 273.898154,228.967704 273.97765,234.25656 C273.97765,240.89402 279.09538,246.27471 285.40741,246.27471 L304.26798,246.27471 C310.57998,246.27471 315.69774,240.89402 315.69774,234.25656 C315.777076,228.967755 312.365494,224.257759 307.31557,222.68422 L305.50419,176.47183" id="Shape" stroke="#40BEAD" stroke-width="4.25513" stroke-linecap="round"></path>
            <g id="Group" opacity="0.7" transform="translate(191.000000, 206.000000)" fill="#A3CBCC" fill-rule="nonzero">
                <g opacity="0.39" transform="translate(164.000000, 0.000000)" id="Shape">
                    <path d="M38.72229,60.52368 L43.03992,0.81885 C40.9789061,0.429994433 38.8865467,0.231160136 36.78918,0.22485 C16.98918,0.22485 0.93738,17.10229 0.93738,37.92185 C0.93738,58.56735 16.72424,75.32685 36.29602,75.60568 C37.5366583,70.657406 38.3484201,65.6113926 38.72229,60.52368 Z"></path>
                </g>
                <g opacity="0.39" id="Shape">
                    <path d="M6.88538,0.22485 C4.78826568,0.231070627 2.69615132,0.429821492 0.63538,0.8186 L4.95288,60.52368 C5.32679466,65.6113955 6.13859651,70.6574085 7.37927,75.60568 C26.95142,75.32668 42.73792,58.56711 42.73792,37.92185 C42.73792,17.10229 26.68616,0.22485 6.88538,0.22485 Z"></path>
                </g>
            </g>
            <g id="Group" transform="translate(223.000000, 163.000000)" fill="#40BEAD" fill-rule="nonzero">
                <ellipse id="Oval" cx="124.07942" cy="20.2452" rx="10.87689" ry="11.43649"></ellipse>
                <path d="M124.07943,1.463 C133.9056,1.463 141.89974,9.88866 141.89974,20.2452 C141.89974,30.60174 133.9056,39.02739 124.07943,39.02739 C114.25326,39.02739 106.25912,30.60173 106.25912,20.2452 C106.25912,9.88867 114.25326,1.463 124.07943,1.463 Z M124.07943,0.588 C113.75423,0.588 105.38412,9.38881 105.38412,20.2452 C105.38412,31.10159 113.75423,39.90239 124.07943,39.90239 C134.40463,39.90239 142.77474,31.10155 142.77474,20.2452 C142.77474,9.38885 134.40462,0.588 124.07943,0.588 Z" id="Shape"></path>
                <ellipse id="Oval" cx="19.59588" cy="20.2452" rx="10.87689" ry="11.43649"></ellipse>
                <path d="M19.59579,1.463 C29.4222,1.463 37.41634,9.88866 37.41634,20.2452 C37.41634,30.60174 29.4222,39.02739 19.59579,39.02739 C9.76961,39.02739 1.77547,30.60173 1.77547,20.2452 C1.77547,9.88867 9.76961,1.463 19.59579,1.463 Z M19.59579,0.588 C9.27079,0.588 0.90047,9.38881 0.90047,20.2452 C0.90047,31.10159 9.27083,39.90239 19.59579,39.90239 C29.92098,39.90239 38.29134,31.10155 38.29134,20.2452 C38.29134,9.38885 29.921,0.588 19.59579,0.588 Z" id="Shape"></path>
            </g>
            <path d="M261.46229,268.34889 C280.905457,284.154983 308.769853,284.154983 328.21302,268.34889" id="Shape" stroke="#A3CBCC" stroke-width="5.82457" stroke-linecap="round"></path>
            <polygon id="Shape" fill="url(#linearGradient-1)" fill-rule="nonzero" points="353.282 397.937 347.841 306.735 243.396 306.735 237.194 399.838 144.876 449.985 228.438 531.295 361.238 531.295 444.366 447.774"></polygon>
            <path d="M506.37061,484.162 L435.36694,442.49288 C348.544255,488.64652 244.464045,488.64652 157.64136,442.49288 L86.63769,484.162 C55.5942208,502.380136 34.5689504,533.77656 29.54391,569.41848 L0,778.96973 L593.0083,778.96973 L563.46439,569.41852 C558.439361,533.776586 537.414089,502.380145 506.37061,484.162 Z" id="Shape" fill="#A3CBCC" fill-rule="nonzero"></path>
            <path d="M507.02357,484.162 L436.0199,442.49292 C349.197212,488.64656 245.116998,488.64656 158.29431,442.49292 L87.29064,484.162 C56.2471704,502.380134 35.2219025,533.77656 30.19687,569.41848 L0.653,778.96973 L593.6613,778.96973 L564.11734,569.41852 C559.092319,533.776585 538.06705,502.380142 507.02357,484.162 Z" id="Shape" fill="url(#linearGradient-2)" fill-rule="nonzero"></path>
            <path d="M572.76624,778.96973 L578.08337,778.96975 L544.21472,548.17236 L554.26572,537.56055 C553.49582,535.84668 552.67758,534.15723 551.82809,532.48462 L412.035,680.08008 L412.035,640.81958 L536.47888,509.43115 C535.339113,508.09229 534.16797,506.77929 532.96545,505.49215 L412.035,633.1709 L412.035,593.9109 L512.3934,487.95069 C510.914033,486.958023 509.407563,485.998877 507.87399,485.07325 L412.035,586.261 L412.035,547.00146 L483.99167,471.02881 L479.3353,468.29614 L412.035,539.35254 L412.035,500.09229 L441.2225,469.27563 C447.98862,465.64331 454.62526,461.756023 461.13242,457.61377 L456.01584,454.61084 C357.89177,515.551783 233.787212,515.939766 135.28403,455.61353 L130.1478,458.62769 C138.235933,463.715823 146.529713,468.40666 155.02914,472.7002 L180.9725,500.09155 L180.9725,539.35181 L113.6727,468.29639 L109.01651,471.02881 L180.97251,547.00024 L180.97251,586.2605 L85.1342,485.0735 C83.60362,486.002447 82.0970067,486.961673 80.61436,487.95118 L180.97253,593.9104 L180.97253,633.16968 L60.04327,505.4917 C58.8429033,506.780267 57.67162,508.093417 56.52942,509.43115 L180.97253,640.8186 L180.97253,680.0796 L41.18011,532.48462 C40.33069,534.15723 39.51251,535.84668 38.74261,537.56055 L49.53943,548.96 L15.78607,778.96975 L21.10327,778.96973 L54.14327,553.8208 L77.76815,578.76416 L48.38879,778.96973 L53.70593,778.96973 L82.372,583.625 L105.99767,608.56934 L80.99207,778.96973 L86.30927,778.96973 L110.60156,613.42993 L134.22693,638.374 L113.59485,778.96973 L118.912,778.96973 L138.83082,643.23486 L162.45594,668.17847 L146.19775,778.96973 L151.515,778.96973 L167.05993,673.03931 L180.97252,687.72852 L180.97252,778.96973 L186.23229,778.96973 L186.23229,486.36719 C195.081897,489.669917 204.08123,492.563797 213.23029,495.04883 L213.23029,778.96973 L218.49005,778.96973 L218.49005,496.4248 C227.37457,498.66504 236.37392,500.511883 245.4881,501.96533 L245.4881,778.96973 L250.74786,778.96973 L250.74786,502.75464 C259.66144,504.01636 268.66079,504.892907 277.74591,505.38428 L277.74591,778.96973 L283.00568,778.96973 L283.00568,505.62256 C286.93768,505.769293 290.88168,505.84465 294.83768,505.84863 C299.91312,505.84863 304.96812,505.724607 310.00268,505.47656 L310.00268,778.96973 L315.26244,778.96973 L315.26244,505.17993 C324.344233,504.593263 333.343583,503.61841 342.26049,502.25537 L342.26049,778.96973 L347.52026,778.96973 L347.52026,501.40625 C356.6311,499.85547 365.630433,497.90625 374.51826,495.55859 L374.51826,778.96973 L379.77803,778.96973 L379.77803,494.11963 C388.923543,491.530297 397.922567,488.526227 406.7751,485.10742 L406.7751,778.96973 L412.035,778.96973 L412.035,687.72973 L426.6937,672.25292 L442.354,778.96973 L447.67114,778.96973 L431.29749,667.39209 L454.92322,642.44775 L474.9574,778.96975 L480.27454,778.96975 L459.52722,637.58691 L483.15186,612.64355 L507.55969,778.96973 L512.87683,778.96973 L487.75574,607.78273 L511.38147,582.8384 L540.163,778.96973 L545.48014,778.96973 L515.98535,577.97754 L539.611,553.0332 L572.76624,778.96973 Z M180.97253,492.44189 L168.24963,479.00879 C172.44873,480.887703 176.689697,482.66765 180.97253,484.34863 L180.97253,492.44189 Z M427.33582,476.28833 L412.035,492.44287 L412.035,483.01978 C417.194333,480.91526 422.294607,478.671443 427.33582,476.28833 Z" id="Shape" fill="url(#linearGradient-3)" fill-rule="nonzero"></path>
            <g id="Group" transform="translate(209.000000, 414.000000)" stroke="#FCC74A">
                <polyline id="Shape" points="0.731 0.756 87.935 117.295 175.021 0.756"></polyline>
                <g transform="translate(78.000000, 106.000000)" id="Shape" stroke-linecap="round" stroke-width="3">
                    <path d="M9.93472,0 L9.93472,37.47238"></path>
                    <path d="M0.4071,10.29535 L19.9071,10.29535"></path>
                </g>
            </g>
            <g id="Group" transform="translate(212.000000, 158.000000)" stroke="#40BEAD" stroke-width="6">
                <path d="M105.69782,0.77097 L165.98113,2.77109" id="Shape"></path>
                <path d="M0.45423,2.77109 L60.73754,0.77097" id="Shape"></path>
            </g>
            <g id="Group" transform="translate(105.000000, 0.000000)" fill="#FBBC23" fill-rule="nonzero">
                <path d="M189.62087,71.60976 L175.20452,75.27524 C122.962111,88.5583454 86.3900589,135.59281 86.39006,189.49745 L86.39006,232 C86.39006,335 150.20106,386.95028 110.52506,510.24563 C84.65106,590.65063 115.95406,734 115.95406,734 L115.95399,733.99993 C68.1401417,692.412832 40.6873892,632.151233 40.6874,568.78207 L40.6874,148.93332 C40.6874,66.6797186 107.367119,1.51097414e-14 189.62087,0 L189.62087,71.60976 Z" id="Shape"></path>
                <path d="M291.16892,189.49745 C291.16892,135.59281 256.597,88.55835 204.35459,75.27524 L189.93823,71.60976 L189.93823,0 C229.437954,-2.65216498e-06 267.319729,15.6911402 295.250147,43.6215559 C323.180565,71.5519717 338.87171,109.433746 338.87171,148.93332 L338.87171,252 C338.87171,414.7556 322.33582,438.45584 322.33582,438.45584 L258.55494,403.55743 C258.55494,403.55743 291.16892,357.9949 291.16892,189.49745 Z" id="Shape"></path>
                <path d="M40.6874,163.78719 L40.6874,289.53527 C40.6874,426.0358 41.50301,470.25027 0.26502,530.29535 C18.4274474,530.295351 35.7834642,522.794413 48.2288892,509.566313 C60.6743143,496.338213 67.1040864,478.557509 65.99773,460.42888 L40.6874,163.78719 Z" id="Shape" opacity="0.8"></path>
                <path d="M111.4071,469 C111.4071,516.98171 102.4458,589.14416 137.59588,624.07208 C122.64208,624.072076 108.502351,617.261662 99.1802938,605.569204 C89.8582361,593.876745 86.3687455,578.575205 89.69987,563.99721 L111.4071,469 Z" id="Shape"></path>
                <path d="M338.861,130.29035 L338.861,415.76608 C338.861,506.35331 295.653,521.28926 295.653,521.28926 C295.653,521.28926 316.42585,503.06326 316.42585,425.28675 L316.42585,130.29035 L338.861,130.29035 Z" id="Shape"></path>
            </g>
            <path d="M443.861,130.29028 L442.71232,130.29028 C433.40007,56.5944432 371.213495,1.02397842 296.93835,0.02539 L296.93835,0 L292.93835,0 L292.93835,0.02124 C211.349077,0.938948607 145.689799,67.3389157 145.68735,148.93335 L145.68735,311.19971 C145.64975,430.92603 144.23735,473.54907 105.26498,530.29541 L105.26505,530.29541 C119.910697,530.321309 134.142555,525.438356 145.68735,516.42651 L145.68735,568.782 C145.687334,632.151217 173.140109,692.412869 220.954,734 L220.95412,734 C220.95412,734 207.48183,672.30371 205.51943,607.15894 C214.822364,617.931149 228.362637,624.107786 242.59583,624.072 C216.58483,598.22532 214.72998,551.99021 215.52332,510.2512 L215.52502,510.24559 C255.20105,386.9502 191.39,335 191.39,232 L191.39,189.49756 C191.389966,135.592862 227.962017,88.5583202 280.20447,75.27515 L294.62085,71.60986 L294.62085,71.60938 L294.93823,71.60938 L294.93823,71.60986 L309.35461,75.27515 C361.59705,88.55835 396.16895,135.59277 396.16895,189.49756 C396.16895,357.99487 363.55495,403.55737 363.55495,403.55737 L421.30776,435.15747 C419.64443,504.61768 400.65297,521.28931 400.65297,521.28931 C400.65297,521.28931 443.86097,506.35331 443.86097,415.76611 L443.86097,258.75977 C443.86732,256.53052 443.87171,254.28369 443.87171,252 L443.87171,148.93335 C443.87171,148.64941 443.86256,148.36792 443.86097,148.08447 L443.861,130.29028 Z" id="Shape" fill="url(#linearGradient-4)" fill-rule="nonzero"></path>
            <path d="M294.93823,75.61001 L294.93823,0" id="Shape" stroke="#FFFFFF" stroke-width="4"></path>
        </g>
    </g>
</svg>