<?xml version="1.0" encoding="UTF-8"?>
<svg width="80px" height="80px" viewBox="0 0 80 80" version="1.1" xmlns="http://www.w3.org/2000/svg" xmlns:xlink="http://www.w3.org/1999/xlink">
    <!-- Generator: Sketch 51.2 (57519) - http://www.bohemiancoding.com/sketch -->
    <title>w6</title>
    <desc>Created with Sketch.</desc>
    <defs></defs>
    <g id="Page-1" stroke="none" stroke-width="1" fill="none" fill-rule="evenodd">
        <g id="w6" fill-rule="nonzero">
            <circle id="Oval" fill="#18B29F" cx="40" cy="40" r="40"></circle>
            <path d="M25.6,60.69 C20.11,60.69 16.6,56.95 16.6,51.46 L16.6,28.23 C16.6,22.68 20.16,19 25.65,19 C31.14,19 34.65,22.68 34.65,28.23 L34.65,51.46 C34.65,57 31,60.69 25.6,60.69 Z M27.53,27.75 C27.5435126,27.2445725 27.3402309,26.7574936 26.9714305,26.4116238 C26.6026302,26.0657541 26.1035217,25.8941147 25.6,25.94 C25.0872761,25.8826396 24.5745866,26.0480448 24.1920569,26.3942342 C23.8095272,26.7404235 23.5939352,27.2341131 23.6,27.75 L23.6,51.88 C23.5939352,52.3958869 23.8095272,52.8895765 24.1920569,53.2357658 C24.5745866,53.5819552 25.0872761,53.7473604 25.6,53.69 C26.1035217,53.7358853 26.6026302,53.5642459 26.9714305,53.2183762 C27.3402309,52.8725064 27.5435126,52.3854275 27.53,51.88 L27.53,27.75 Z" id="Shape" fill="#FFFFFF"></path>
            <path d="M43.32,41.36 C41.9495597,41.4209093 40.6185432,40.8925539 39.6629783,39.908322 C38.7074134,38.9240901 38.2186205,37.578042 38.32,36.21 L38.32,27.87 C38.2156097,26.5002933 38.7030618,25.1514968 39.6589843,24.1649848 C40.6149068,23.1784727 41.9476854,22.6487912 43.32,22.71 C44.6913876,22.6520519 46.0222033,23.1827597 46.9773828,24.168505 C47.9325624,25.1542503 48.4211019,26.5011171 48.32,27.87 L48.32,36.21 C48.4181049,37.5772158 47.9282309,38.9213418 46.9734059,39.9048115 C46.0185808,40.8882813 44.6895177,41.4176606 43.32,41.36 Z M41.89,61 L39.75,59.41 L59.88,22.33 L62,23.92 L41.89,61 Z M44.89,27.26 C44.9366887,26.6820201 44.6547567,26.1268097 44.1605511,25.8234922 C43.6663456,25.5201747 43.0436544,25.5201747 42.5494489,25.8234922 C42.0552433,26.1268097 41.7733113,26.6820201 41.82,27.26 L41.82,36.81 C41.7733113,37.3879799 42.0552433,37.9431903 42.5494489,38.2465078 C43.0436544,38.5498253 43.6663456,38.5498253 44.1605511,38.2465078 C44.6547567,37.9431903 44.9366887,37.3879799 44.89,36.81 L44.89,27.26 Z M58.4,60.67 C57.0257705,60.7069854 55.6996828,60.1626219 54.7477991,59.170759 C53.7959154,58.1788962 53.3065393,56.8315464 53.4,55.46 L53.4,47.12 C53.4,44.330962 55.660962,42.07 58.45,42.07 C61.239038,42.07 63.5,44.330962 63.5,47.12 L63.5,55.46 C63.6056962,56.8520879 63.1063799,58.2222072 62.12978,59.219871 C61.1531801,60.2175348 59.7940262,60.7459704 58.4,60.67 Z M59.94,46.57 C59.970741,46.143776 59.8218292,45.7241187 59.5293072,45.4126018 C59.2367852,45.1010849 58.8273133,44.9260998 58.4,44.93 C57.9791508,44.9306864 57.5782189,45.1093149 57.2962645,45.4217509 C57.0143101,45.7341868 56.877632,46.1512883 56.92,46.57 L56.92,56.06 C56.8839873,56.4782672 57.0225691,56.8928036 57.3028867,57.2053198 C57.5832042,57.5178361 57.9802929,57.7004997 58.4,57.71 C58.8263309,57.7052455 59.2321387,57.5262043 59.5230501,57.2145135 C59.8139616,56.9028227 59.9646241,56.4856457 59.94,56.06 L59.94,46.57 Z" id="Shape" fill="#FFFFFF"></path>
        </g>
    </g>
</svg>