<?xml version="1.0" encoding="UTF-8"?>
<svg width="80px" height="80px" viewBox="0 0 80 80" version="1.1" xmlns="http://www.w3.org/2000/svg" xmlns:xlink="http://www.w3.org/1999/xlink">
    <!-- Generator: Sketch 51.2 (57519) - http://www.bohemiancoding.com/sketch -->
    <title>w7</title>
    <desc>Created with Sketch.</desc>
    <defs></defs>
    <g id="Page-1" stroke="none" stroke-width="1" fill="none" fill-rule="evenodd">
        <g id="w7" fill-rule="nonzero">
            <circle id="Oval" fill="#F869A3" cx="40" cy="40" r="40"></circle>
            <path d="M17.91,55.55 C13.45,55.55 10.8,52.94 10.8,48.48 L10.8,45.87 L15.8,45.87 L15.8,48.66 C15.7344761,49.181322 15.9026229,49.7049597 16.2594077,50.0906729 C16.6161924,50.4763861 17.1251602,50.6847644 17.65,50.66 C18.82,50.66 19.4,49.94 19.4,48.66 C19.4,46.23 17.96,44.38 15.94,41.86 C13.69,39.34 10.94,35.74 10.94,32.01 C10.94,27.91 13.33,24.4 18.19,24.4 C22.06,24.4 24.67,27.19 24.67,31.4 L24.67,34.01 L19.67,34.01 L19.67,31.01 C19.7273053,30.5813577 19.5980773,30.148717 19.3150671,29.8217255 C19.032057,29.4947341 18.6224296,29.3047782 18.19,29.3 C17.728245,29.2903059 17.2838068,29.4757645 16.9659034,29.8108004 C16.648,30.1458363 16.4861039,30.5993888 16.52,31.06 C16.51,34 18,35.3 20,38 C22.45,41 25,44.12 25,48 C25,52.71 21.91,55.55 17.91,55.55 Z" id="Shape" fill="#FFFFFF"></path>
            <path d="M35.46,55 L35.05,50.19 L31.63,50.19 L31.14,55 L25.92,55 L30.28,25 L36.94,25 L41.26,55 L35.46,55 Z M33.57,33.81 L32.26,45.47 L34.56,45.47 L33.57,33.81 Z" id="Shape" fill="#FFFFFF"></path>
            <polygon id="Shape" fill="#FFFFFF" points="43.11 55 43.11 25 48.87 25 48.87 49.83 54.94 49.83 54.94 55"></polygon>
            <polygon id="Shape" fill="#FFFFFF" points="57 55 57 25 69.2 25 69.2 30.09 62.77 30.09 62.77 37.24 67 37.24 67 41.92 62.77 41.92 62.77 49.7 69.2 49.7 69.2 55"></polygon>
        </g>
    </g>
</svg>