<svg xmlns="http://www.w3.org/2000/svg" xmlns:xlink="http://www.w3.org/1999/xlink" viewBox="0 0 600 750"><defs><style>.cls-1{fill:#a3cbcc;}.cls-2,.cls-4,.cls-7{fill:#fff;}.cls-3{fill:#f969a4;}.cls-4{opacity:0.4;}.cls-5{fill:url(#linear-gradient);}.cls-6{fill:#474747;}.cls-7{opacity:0.47;}.cls-8{fill:#fcc74a;}.cls-9{fill:url(#linear-gradient-2);}.cls-10{fill:url(#linear-gradient-3);}.cls-11{fill:#f1f7f7;}.cls-12{fill:#f6f6f6;}.cls-13{fill:#fbbc23;}</style><linearGradient id="linear-gradient" x1="210.57" y1="706.67" x2="210.57" y2="547.54" gradientUnits="userSpaceOnUse"><stop offset="0" stop-color="#a3cbcc"/><stop offset="1" stop-color="#a3cbcc" stop-opacity="0"/></linearGradient><linearGradient id="linear-gradient-2" x1="449.56" y1="425.73" x2="454.55" y2="532.05" gradientUnits="userSpaceOnUse"><stop offset="0" stop-color="#fbbc23"/><stop offset="1" stop-color="#fbbc23" stop-opacity="0"/></linearGradient><linearGradient id="linear-gradient-3" x1="551.83" y1="469.49" x2="555.32" y2="543.9" xlink:href="#linear-gradient-2"/></defs><title>Wedding Planning</title><g id="Layer_2" data-name="Layer 2"><g id="Layer_1-2" data-name="Layer 1"><rect class="cls-1" width="600" height="750"/><path class="cls-2" d="M453.11,338.9H270.86V141H453.11Zm-180.67-1.59H451.53V142.62H272.44Z"/><rect class="cls-2" x="271.65" y="245.37" width="180.67" height="1.59"/><rect class="cls-2" x="271.65" y="214.72" width="180.67" height="1.59"/><rect class="cls-2" x="271.65" y="306.67" width="180.67" height="1.59"/><rect class="cls-2" x="271.65" y="276.02" width="180.67" height="1.59"/><rect class="cls-2" x="361.3" y="184.87" width="1.46" height="153.24"/><rect class="cls-2" x="391.95" y="184.87" width="1.46" height="153.24"/><rect class="cls-2" x="422.8" y="184.87" width="1.46" height="153.24"/><rect class="cls-2" x="300.01" y="184.87" width="1.46" height="153.24"/><rect class="cls-2" x="330.66" y="184.87" width="1.46" height="153.24"/><path class="cls-3" d="M408.74,273.2h0a13.75,13.75,0,0,1,11.88,6.86,13.71,13.71,0,0,1-5,18.72,13.71,13.71,0,1,1-6.87-25.58m0-3.63a17.34,17.34,0,1,0,15,8.67,17.22,17.22,0,0,0-15-8.67Z"/><rect class="cls-3" x="296.13" y="229.15" width="34.79" height="2.18" transform="translate(-73.03 273.67) rotate(-42.7)"/><rect class="cls-3" x="311.77" y="221.08" width="2.18" height="22.58" transform="translate(-69.53 307.55) rotate(-47.72)"/><rect class="cls-3" x="332.01" y="227.37" width="30.49" height="3.63" transform="translate(-60.35 312.67) rotate(-45)"/><rect class="cls-3" x="345.08" y="214.12" width="3.63" height="29.49" transform="translate(-60.23 312.33) rotate(-45)"/><rect class="cls-3" x="361.42" y="230.34" width="31.47" height="2.18" transform="translate(-57.42 314.8) rotate(-42.39)"/><rect class="cls-3" x="374.79" y="216.19" width="2.18" height="27.74" transform="translate(-46 357.44) rotate(-48.27)"/><rect class="cls-3" x="393.81" y="229.62" width="29.9" height="3.63" transform="translate(-43.49 358.37) rotate(-45.2)"/><rect class="cls-3" x="405.12" y="216.16" width="3.63" height="28.46" transform="translate(-37.24 376.65) rotate(-47.74)"/><rect class="cls-3" x="436.18" y="217.35" width="3.63" height="28.16" transform="translate(-44.14 345.21) rotate(-41.13)"/><rect class="cls-3" x="425.18" y="231.59" width="24.54" height="3.63" transform="translate(-37.63 375.34) rotate(-44.72)"/><rect class="cls-3" x="313.59" y="247.07" width="3.63" height="26.84" transform="translate(-93.09 282.11) rotate(-42.58)"/><rect class="cls-3" x="304.3" y="260.13" width="21.11" height="3.63" transform="translate(-83.87 355.58) rotate(-52.97)"/><rect class="cls-3" x="344.82" y="247.11" width="2.18" height="28.95" transform="translate(-86.93 288.62) rotate(-40.67)"/><rect class="cls-3" x="336.2" y="260.09" width="20.15" height="2.18" transform="translate(-77.14 355.19) rotate(-49.54)"/><rect class="cls-3" x="393.53" y="199.13" width="30.46" height="2.18" transform="translate(-18.61 356.85) rotate(-46.23)"/><rect class="cls-3" x="406.76" y="186.56" width="2.18" height="28.42" transform="translate(-28.17 329.35) rotate(-42.64)"/><rect class="cls-2" x="269.16" y="141.83" width="183.16" height="43.04"/><rect class="cls-1" x="360.85" y="157.67" width="9.35" height="1.45" transform="translate(-8.22 296.28) rotate(-43.68)"/><circle class="cls-1" cx="370.67" cy="153.59" r="3.47"/><rect class="cls-3" x="437" y="186.74" width="3.63" height="24.4" transform="translate(-12.15 368.56) rotate(-45)"/><rect class="cls-3" x="424.9" y="197.31" width="24.91" height="3.63" transform="translate(-20.84 343.99) rotate(-42.02)"/><rect class="cls-2" x="266.11" y="141" width="5.55" height="197.1"/><rect class="cls-4" x="266.11" y="168.36" width="34.46" height="169.75"/><circle class="cls-1" cx="280.23" cy="285.34" r="1.58"/><circle class="cls-1" cx="271.76" cy="271.55" r="1.41"/><path class="cls-2" d="M38.74,502.42H382.4a24.1,24.1,0,0,1,24.1,24.1V642.8a0,0,0,0,1,0,0H14.64a0,0,0,0,1,0,0V526.52A24.1,24.1,0,0,1,38.74,502.42Z"/><path class="cls-5" d="M38.74,502.42H382.4a24.1,24.1,0,0,1,24.1,24.1V642.8a0,0,0,0,1,0,0H14.64a0,0,0,0,1,0,0V526.52A24.1,24.1,0,0,1,38.74,502.42Z"/><path class="cls-2" d="M154.36,248.51H266.78a24.1,24.1,0,0,1,24.1,24.1V375.46a0,0,0,0,1,0,0H130.26a0,0,0,0,1,0,0V272.6A24.1,24.1,0,0,1,154.36,248.51Z"/><path class="cls-2" d="M328.48,375.46a24.1,24.1,0,0,1,24.1,24.1V502.42h-284V399.56a24.1,24.1,0,0,1,24.1-24.1H328.48m0-5.33H92.67a29.46,29.46,0,0,0-29.43,29.43v108.2H357.91V399.56a29.46,29.46,0,0,0-29.43-29.43Z"/><rect class="cls-3" x="14.64" y="622.99" width="391.86" height="19.81"/><rect class="cls-3" x="130.26" y="349.77" width="160.62" height="19.81"/><rect class="cls-3" x="63.14" y="482.61" width="294.87" height="19.81"/><rect class="cls-1" x="130.22" y="330.98" width="160.7" height="4.57" transform="translate(-10.4 6.8) rotate(-1.81)"/><rect class="cls-1" x="130.26" y="310.16" width="160.62" height="10.67"/><rect class="cls-1" x="209.05" y="216.86" width="3.05" height="160.68" transform="translate(-92.5 499.24) rotate(-88.37)"/><rect class="cls-1" x="130.26" y="279.68" width="160.62" height="4.57"/><path class="cls-1" d="M283.52,255.27a14.24,14.24,0,0,1-26.81-6.68H255a14.24,14.24,0,0,1-28.48,0h-1.71a14.24,14.24,0,0,1-28.48,0h-1.71a14.24,14.24,0,0,1-28.48,0h-1.71a14.24,14.24,0,0,1-26.81,6.68c-.42.42-.83.84-1.23,1.28a15.93,15.93,0,0,0,28.9-2.85,15.93,15.93,0,0,0,30.19,0,15.93,15.93,0,0,0,30.19,0,15.93,15.93,0,0,0,30.19,0,15.92,15.92,0,0,0,28.89,2.85C284.36,256.11,284,255.69,283.52,255.27Z"/><polygon class="cls-6" points="189.78 248.59 186.06 205.02 205.87 205.02 202.16 248.59 189.78 248.59"/><polygon class="cls-2" points="215.02 205.02 219.59 219.5 211.97 248.59 238.63 248.59 228.73 218.73 231.78 205.02 215.02 205.02"/><polygon class="cls-2" points="190.25 205.02 195.97 217.97 200.92 205.02 190.25 205.02"/><path class="cls-6" d="M195,195.11a3.24,3.24,0,1,1-3.24,3.24,3.25,3.25,0,0,1,3.24-3.24m0-1.52a4.76,4.76,0,1,0,4.76,4.76,4.76,4.76,0,0,0-4.76-4.76Z"/><path class="cls-2" d="M223.14,195.75a2.61,2.61,0,1,1-2.6,2.6,2.61,2.61,0,0,1,2.6-2.6m0-.76a3.37,3.37,0,1,0,3.37,3.36,3.35,3.35,0,0,0-3.37-3.36Z"/><path class="cls-7" d="M223.14,193.56h0a5.48,5.48,0,0,1,5.48,5.48v11.82a0,0,0,0,1,0,0h-11a0,0,0,0,1,0,0V199a5.48,5.48,0,0,1,5.48-5.48Z"/><path class="cls-1" d="M48.33,526.26a23.88,23.88,0,0,1-23.42-19.47,22,22,0,0,0-2,1.58,26.11,26.11,0,0,0,50.26,2.11,32.69,32.69,0,0,0,63.36,0,26.12,26.12,0,0,0,49.81-.4,26.12,26.12,0,0,0,49.81.4,32.68,32.68,0,0,0,63.35,0,26.12,26.12,0,0,0,49.82-.42,26.11,26.11,0,0,0,50.12-.59q-.92-.9-1.92-1.71a23.83,23.83,0,0,1-47.06-5.34h-2.28a23.84,23.84,0,1,1-47.67,0h-2.29a30.4,30.4,0,1,1-60.79,0h-2.29a23.83,23.83,0,0,1-47.66.19c0-.07,0-.13,0-.19h-2.3a1.28,1.28,0,0,0,0,.19,23.83,23.83,0,0,1-47.66-.19h-2.29a30.4,30.4,0,0,1-60.8,0H72.17A23.87,23.87,0,0,1,48.33,526.26Z"/><path class="cls-1" d="M22.22,512.39a1.54,1.54,0,0,1,0-3.07,1.5,1.5,0,0,1,1.52,1.5v0A1.52,1.52,0,0,1,22.22,512.39Z"/><path class="cls-1" d="M51.63,538.26a1.56,1.56,0,0,1-1.55-1.34,1.5,1.5,0,0,1,1.3-1.69h.07a1.53,1.53,0,0,1,.37,3Zm-7.35-.11-.25,0a1.55,1.55,0,0,1-1.29-1.75,1.49,1.49,0,0,1,1.71-1.27h.07a1.52,1.52,0,0,1-.24,3Zm15.06-2-.68-1.37-.55-1.42a1.52,1.52,0,0,1,1.23,2.79ZM37.24,536a1.46,1.46,0,0,1-.61-.13l-.12-.05a1.53,1.53,0,1,1,1.34-2.74l-.67,1.37.69-1.36a1.52,1.52,0,0,1-.63,2.91Zm21.42-1.18h0ZM65,532.46a1.51,1.51,0,0,1-1-2.66l.05,0a1.52,1.52,0,1,1,.94,2.71Zm-34.88-.91a1.55,1.55,0,0,1-.13-2.17,1.51,1.51,0,0,1,2.13-.13l-1,1.14,1-1.13-1,1.17ZM69.89,527a1.46,1.46,0,0,1-.84-.26,1.48,1.48,0,0,1-.42-2.07.33.33,0,0,0,.06-.1,1.53,1.53,0,0,1,2.49,1.77A1.59,1.59,0,0,1,69.89,527Zm-43.58-.65a1.51,1.51,0,0,1-1.29-.71,1.55,1.55,0,0,1,.45-2.13,1.5,1.5,0,0,1,2.08.43l.05.07a1.53,1.53,0,0,1-.48,2.11A1.49,1.49,0,0,1,26.31,526.37Zm-3-6.7a1.52,1.52,0,0,1-1.46-1.09,1.56,1.56,0,0,1,1-1.93,1.5,1.5,0,0,1,1.88,1l0,.07a1.51,1.51,0,0,1-1,1.89A1.59,1.59,0,0,1,23.26,519.67Z"/><path class="cls-1" d="M73.17,520.42a1.52,1.52,0,0,1-1.47-1.95l0-.05a1.56,1.56,0,0,1,1.51-1,1.5,1.5,0,0,1,1.42,1.14,1.54,1.54,0,0,1-1.1,1.87A1.69,1.69,0,0,1,73.17,520.42Z"/><path class="cls-1" d="M101,544.8h-.23a1.57,1.57,0,0,1-1.33-1.72,1.5,1.5,0,0,1,1.65-1.32l.13,0a1.52,1.52,0,0,1-.22,3Zm7.82,0a1.56,1.56,0,0,1-1.55-1.35,1.49,1.49,0,0,1,1.3-1.68h.08a1.53,1.53,0,1,1,.35,3Zm7.54-1.85a1.52,1.52,0,0,1-.52-3l.52,1.44-.5-1.44a1.54,1.54,0,0,1,2,.86,1.52,1.52,0,0,1-.84,2l-.13.05A1.52,1.52,0,0,1,116.33,543Zm-23,0a1.6,1.6,0,0,1-.57-.11,1.57,1.57,0,0,1-.89-2,1.49,1.49,0,0,1,1.9-.9l.13,0a1.53,1.53,0,0,1-.57,2.94Zm-7-3.63a1.49,1.49,0,0,1-.85-.26l.79-1.31.87-1.25-.87,1.25.92-1.21a1.52,1.52,0,0,1-.86,2.78Zm37.79-.3-.93-1.21-.8-1.3A1.52,1.52,0,0,1,124.2,539Zm-.93-1.21h0Zm-42.74-3.65a1.54,1.54,0,0,1-1.12-.49l-.07-.08a1.53,1.53,0,0,1,2.28-2l-1.14,1,1.17-1a1.53,1.53,0,0,1-1.12,2.56Zm48.64,0a1.51,1.51,0,0,1-1-.39,1.49,1.49,0,0,1-.14-2.11l.08-.08a1.52,1.52,0,1,1,2.23,2.08A1.6,1.6,0,0,1,129.17,534.13Zm4.49-6.37a1.57,1.57,0,0,1-.72-.18,1.53,1.53,0,0,1-.62-2.07l1.34.73-1.31-.77a1.52,1.52,0,1,1,2.7,1.4l-.05.1A1.53,1.53,0,0,1,133.66,527.76Zm-57.63,0a1.52,1.52,0,0,1-1.35-.82,1.57,1.57,0,0,1,.61-2.09,1.5,1.5,0,0,1,2,.59l0,.09a1.53,1.53,0,0,1-.65,2.06A1.57,1.57,0,0,1,76,527.75Z"/><path class="cls-1" d="M136.52,520.43a1.52,1.52,0,0,1-.72-.19,1.49,1.49,0,0,1-.76-1.69v0a1.53,1.53,0,1,1,1.94,1.84A1.5,1.5,0,0,1,136.52,520.43Z"/><path class="cls-1" d="M158,538.24a1.1,1.1,0,0,1-.25,0,1.55,1.55,0,0,1-1.3-1.72,1.5,1.5,0,0,1,1.66-1.3h.13a1.52,1.52,0,0,1-.24,3Zm7.31-.06a1.54,1.54,0,0,1-1.54-1.31,1.48,1.48,0,0,1,1.22-1.71l.14,0a1.52,1.52,0,1,1,.36,3Zm-15-2a1.54,1.54,0,0,1-.8-2,1.48,1.48,0,0,1,2-.79l-.61,1.39.64-1.38Zm21.92,0a1.53,1.53,0,0,1-.62-2.92l.62,1.4-.59-1.41a1.53,1.53,0,0,1,1.32,2.75l-.11.05A1.5,1.5,0,0,1,172.2,536.11Zm-27.52-3.69a1.53,1.53,0,0,1-1-.35,1.57,1.57,0,0,1-.21-2.18,1.49,1.49,0,0,1,2.12-.2l.06,0a1.53,1.53,0,0,1,.18,2.15A1.51,1.51,0,0,1,144.68,532.42Zm33.7-.29a1.52,1.52,0,0,1-1-2.65l.06-.05a1.53,1.53,0,1,1,2,2.33A1.64,1.64,0,0,1,178.38,532.13ZM139.77,527a1.53,1.53,0,0,1-1.26-.66l1.22-.93,1.26-.84-1.26.84,1.29-.8a1.53,1.53,0,0,1-.39,2.12A1.51,1.51,0,0,1,139.77,527Zm43.42-.38a1.45,1.45,0,0,1-.82-.24,1.49,1.49,0,0,1-.46-2.06l.07-.1a1.52,1.52,0,1,1,2.51,1.72A1.58,1.58,0,0,1,183.19,526.63Z"/><path class="cls-1" d="M186.32,520a1.65,1.65,0,0,1-.43-.06,1.51,1.51,0,0,1-1-1.87l0-.06a1.54,1.54,0,0,1,1.46-1.07h0a1.51,1.51,0,0,1,1.45,1.07l-1.39.47,1.39.43A1.54,1.54,0,0,1,186.32,520Z"/><path class="cls-1" d="M214.71,538.24a1.52,1.52,0,0,1-.19-3l.19,1.51-.16-1.51a1.52,1.52,0,0,1,1.72,1.28,1.5,1.5,0,0,1-1.25,1.72l-.13,0Zm-7.24-.06h-.19l-.13,0a1.52,1.52,0,1,1,.49-3l-.24,1.51.26-1.5a1.53,1.53,0,0,1,1.3,1.71A1.5,1.5,0,0,1,207.47,538.18Zm14.34-1.92a1.55,1.55,0,0,1-1.42-.9,1.5,1.5,0,0,1,.75-2l.07,0a1.52,1.52,0,1,1,.6,2.92Zm-21.36-.16a1.5,1.5,0,0,1-.67-.16,1.56,1.56,0,0,1-.74-2,1.51,1.51,0,0,1,2-.76l.12.06a1.52,1.52,0,0,1-.68,2.89ZM228,532.4a1.51,1.51,0,0,1-1-2.65l.07-.06A1.53,1.53,0,0,1,229,532,1.62,1.62,0,0,1,228,532.4Zm-33.7-.25a1.53,1.53,0,0,1-1-.39,1.55,1.55,0,0,1-.15-2.16,1.48,1.48,0,0,1,2.1-.18l.09.08a1.52,1.52,0,0,1-1,2.65ZM232.9,527a1.57,1.57,0,0,1-.88-.27,1.52,1.52,0,0,1-.37-2.12l1.25.87-1.24-.9a1.53,1.53,0,0,1,2.55,1.68l-.07.09A1.48,1.48,0,0,1,232.9,527Zm-43.44-.37a1.51,1.51,0,0,1-1.24-.65l-.07-.1a1.52,1.52,0,1,1,2.56-1.65l-1.28.82,1.3-.8a1.55,1.55,0,0,1-.41,2.12A1.5,1.5,0,0,1,189.46,526.65Z"/><path class="cls-1" d="M236.14,520.42a1.49,1.49,0,0,1-1.46-1.13l1.4-.39-1.39-.46h0a1.53,1.53,0,1,1,1.83,1.94A1.58,1.58,0,0,1,236.14,520.42Zm1.46-1.09h0Z"/><path class="cls-1" d="M263.94,544.8h-.23a1.56,1.56,0,0,1-1.32-1.72,1.5,1.5,0,0,1,1.64-1.32l.14,0a1.52,1.52,0,0,1-.23,3Zm7.83,0a1.56,1.56,0,0,1-1.55-1.35,1.48,1.48,0,0,1,1.3-1.68h.08a1.52,1.52,0,0,1,.34,3ZM279.3,543a1.52,1.52,0,0,1-.51-3l.51,1.44-.49-1.44a1.52,1.52,0,0,1,2,.86,1.5,1.5,0,0,1-.83,2l-.13.05A1.58,1.58,0,0,1,279.3,543Zm-23,0a1.65,1.65,0,0,1-.57-.11,1.58,1.58,0,0,1-.89-2,1.5,1.5,0,0,1,1.91-.9l.12,0a1.53,1.53,0,0,1-.57,2.94Zm-6.94-3.63a1.52,1.52,0,0,1-.86-.26l.8-1.31.86-1.25-.86,1.25.92-1.21a1.52,1.52,0,0,1-.86,2.78Zm37.79-.3-.93-1.21-.8-1.3a1.52,1.52,0,1,1,1.73,2.51Zm-.93-1.21h0Zm-42.74-3.65a1.55,1.55,0,0,1-1.13-.49l-.07-.08a1.53,1.53,0,0,1,2.28-2l-1.14,1,1.18-1a1.52,1.52,0,0,1-.09,2.15A1.55,1.55,0,0,1,243.51,534.16Zm48.63,0a1.47,1.47,0,0,1-1-.39,1.48,1.48,0,0,1-.14-2.11l.07-.08a1.52,1.52,0,1,1,2.23,2.08A1.58,1.58,0,0,1,292.14,534.13Zm4.5-6.37a1.58,1.58,0,0,1-.73-.18,1.53,1.53,0,0,1-.61-2.07l1.34.73-1.32-.77a1.53,1.53,0,0,1,2.71,1.4l0,.1A1.54,1.54,0,0,1,296.64,527.76Zm-57.63,0a1.54,1.54,0,0,1-1.36-.82,1.57,1.57,0,0,1,.62-2.09,1.5,1.5,0,0,1,2,.59l.05.09a1.54,1.54,0,0,1-.65,2.06A1.64,1.64,0,0,1,239,527.75Z"/><path class="cls-1" d="M299.5,520.42a1.4,1.4,0,0,1-.7-.17,1.48,1.48,0,0,1-.78-1.7v0a1.53,1.53,0,1,1,1.94,1.85A1.88,1.88,0,0,1,299.5,520.42Z"/><path class="cls-1" d="M320.93,538.24a1,1,0,0,1-.24,0,1.56,1.56,0,0,1-1.31-1.72,1.5,1.5,0,0,1,1.66-1.3h.13a1.52,1.52,0,0,1-.24,3Zm7.31-.07a1.55,1.55,0,0,1-1.54-1.3,1.49,1.49,0,0,1,1.23-1.71l.13,0a1.52,1.52,0,1,1,.37,3Zm-14.36-1.89a1.51,1.51,0,0,1-.62-.14,1.55,1.55,0,0,1-.8-2,1.48,1.48,0,0,1,2-.79l.07,0a1.53,1.53,0,0,1-.62,2.92Zm21.31-.17a1.52,1.52,0,0,1-.62-2.92l.62,1.39-.6-1.4a1.52,1.52,0,0,1,1.33,2.74l-.11.05A1.59,1.59,0,0,1,335.19,536.11Zm-27.53-3.69a1.51,1.51,0,0,1-1-.35,1.56,1.56,0,0,1-.21-2.17,1.49,1.49,0,0,1,2.12-.21l.05,0a1.52,1.52,0,0,1-1,2.68Zm33.69-.26a1.53,1.53,0,0,1-1-2.69l1,1.16-1-1.18a1.53,1.53,0,1,1,2,2.27l-.09.07A1.46,1.46,0,0,1,341.35,532.16ZM302.75,527a1.51,1.51,0,0,1-1.26-.66l1.21-.93,1.27-.84-1.27.84,1.3-.8a1.53,1.53,0,0,1-.39,2.12A1.56,1.56,0,0,1,302.75,527Zm43.42-.39a1.53,1.53,0,0,1-.82-.24,1.51,1.51,0,0,1-.46-2.07l.07-.1a1.52,1.52,0,1,1,2.51,1.73A1.58,1.58,0,0,1,346.17,526.62Z"/><path class="cls-1" d="M349.31,520a1.51,1.51,0,0,1-1.43-1l1.38-.49-1.41-.45A1.54,1.54,0,0,1,349.3,517a1.49,1.49,0,0,1,1.46,1,1.55,1.55,0,0,1-.95,1.95A1.74,1.74,0,0,1,349.31,520Zm1.46-1.09h0Zm-2.91-.9,1.4.46Z"/><path class="cls-1" d="M370.78,538.23l-.24,0a1.56,1.56,0,0,1-1.31-1.72,1.49,1.49,0,0,1,1.66-1.31l.13,0a1.52,1.52,0,0,1-.24,3Zm7.39-.05a1.56,1.56,0,0,1-1.54-1.31,1.49,1.49,0,0,1,1.23-1.71l.14,0a1.51,1.51,0,0,1,1.69,1.33,1.53,1.53,0,0,1-1.33,1.7Zm-14.51-2a1.44,1.44,0,0,1-.66-.15,1.56,1.56,0,0,1-.76-2,1.5,1.5,0,0,1,2-.78l.11,0a1.52,1.52,0,0,1-.66,2.9Zm21.59-.15a1.51,1.51,0,0,1-1.4-.88,1.49,1.49,0,0,1,.68-2l.13,0a1.52,1.52,0,1,1,.59,2.92Zm-27.85-3.8a1.49,1.49,0,0,1-1-.38,1.56,1.56,0,0,1-.18-2.16,1.5,1.5,0,0,1,2.11-.19l.08.07a1.52,1.52,0,0,1-1,2.66Zm34-.19a1.53,1.53,0,0,1-1-2.69l1,1.16-1-1.18a1.53,1.53,0,0,1,2,2.27l-.1.08A1.5,1.5,0,0,1,391.41,532.06Zm-38.91-5.35a1.5,1.5,0,0,1-1.27-.67l1.22-.91,1.28-.83-1.28.83,1.31-.78a1.51,1.51,0,0,1-1.26,2.36Zm43.75-.28a1.51,1.51,0,0,1-1.27-2.31l0-.07a1.52,1.52,0,1,1,2.55,1.67A1.59,1.59,0,0,1,396.25,526.43Zm3.09-6.73a1.52,1.52,0,0,1-.42-.06,1.5,1.5,0,0,1-1-1.85l0-.08a1.52,1.52,0,1,1,2.91.88A1.57,1.57,0,0,1,399.34,519.7Z"/><path class="cls-1" d="M400.41,512.37a1.5,1.5,0,0,1-1.52-1.51v0a1.52,1.52,0,0,1,3,0A1.55,1.55,0,0,1,400.41,512.37Z"/><path class="cls-2" d="M72.46,397.07a21.71,21.71,0,0,1-3.72-.33,23,23,0,0,0-.17,2.77,23.84,23.84,0,0,0,3.89.32,24.4,24.4,0,0,0,23-16.3,24.36,24.36,0,0,0,46,0,24.35,24.35,0,0,0,46,0,24.35,24.35,0,0,0,46,0,24.36,24.36,0,0,0,46,0,24.35,24.35,0,0,0,46,0,24.41,24.41,0,0,0,23,16.3,23.69,23.69,0,0,0,4.32-.4,23.15,23.15,0,0,0-.17-2.77,21.09,21.09,0,0,1-4.15.41,21.63,21.63,0,0,1-21.61-21.61h-2.76a21.6,21.6,0,1,1-43.2,0h-2.76a21.61,21.61,0,1,1-43.21,0H232a21.61,21.61,0,1,1-43.21,0H186a21.6,21.6,0,1,1-43.2,0H140a21.61,21.61,0,1,1-43.21,0H94.06A21.63,21.63,0,0,1,72.46,397.07Z"/><path class="cls-3" d="M352.58,405.26v-1.08L348.35,400,325.6,422.72,303,400.12h-.82L279.7,422.61l-22.49-22.49h-.54l-22.48,22.49L211.7,400.12h-1.29l-22.48,22.49-22.49-22.49h-.53l-22.49,22.49-22.49-22.49h-.82l-22.6,22.6L73.76,400l-5.19,5.19v1.08L73.76,401,96,423.25,68.57,450.66v1.08l27.94-27.95,22.36,22.36-50.3,50.3v1.08l50.84-50.84,22.22,22.22L108.49,502H68.57v.38h40.62l33-33L164.76,492l-10.39,10.38h21.85L165.83,492l22.47-22.47,22.22,22.21-10.64,10.64h22.35L211.6,491.78l22.21-22.21L256.28,492l-10.39,10.38h21.85L257.36,492,280,469.44l33,33h39.65V502h-39l-33.13-33.13,22.21-22.22,49.88,49.87v-1.07l-49.34-49.34,22.36-22.36,27,27v-1.08l-26.44-26.44L348.35,401Zm-95.64-4.33,22.22,22.22-22.22,22.21-22.21-22.21Zm-46.21-.05h.65l22.27,22.27-22.59,22.59-22.59-22.59Zm-45.56.05,22.22,22.22-22.22,22.21L143,423.15ZM97.05,423.25l22.38-22.37h.19l22.26,22.27-22.47,22.46Zm22.9,22.9,22.47-22.47,22.21,22.22-22.46,22.47ZM174.76,502H155.83l9.47-9.47ZM165.3,491.5l-22.6-22.59,22.47-22.47L187.76,469Zm.41-45.6,22.22-22.22,22.59,22.6L188.3,468.49ZM220.78,502H201.34l9.72-9.72Zm-9.72-10.79L188.84,469l22.22-22.22L233.27,469Zm.54-45,22.59-22.6L256.4,445.9l-22.59,22.59ZM266.29,502H247.35l9.47-9.47Zm-9.47-10.54L234.35,469l22.59-22.59,22.47,22.47ZM280,468.37,257.48,445.9l22.22-22.22,22.46,22.47Zm22.75-22.76-22.47-22.46,22.27-22.27h.19l22.37,22.37Z"/><circle class="cls-1" cx="255.9" cy="266.12" r="1.58"/><circle class="cls-1" cx="178.75" cy="256.56" r="1.58"/><circle class="cls-1" cx="224.39" cy="270.51" r="2.82"/><circle class="cls-1" cx="188.47" cy="272.33" r="2.41"/><circle class="cls-1" cx="157.24" cy="271.92" r="1.41"/><circle class="cls-1" cx="142.77" cy="257.44" r="0.7"/><circle class="cls-1" cx="240.21" cy="252.26" r="0.7"/><circle class="cls-1" cx="147.59" cy="275.45" r="0.7"/><circle class="cls-1" cx="263.59" cy="275.45" r="0.7"/><circle class="cls-1" cx="197.38" cy="267.69" r="1.41"/><rect class="cls-8" x="324.42" y="524.24" width="181.99" height="118.56"/><polygon class="cls-2" points="415.41 594.94 323.94 524.86 324.9 523.61 415.41 592.96 505.93 523.61 506.88 524.86 415.41 594.94"/><rect class="cls-4" x="313.13" y="611.02" width="96.36" height="1.58" transform="translate(-308.77 375.5) rotate(-40.01)"/><rect class="cls-4" x="468.72" y="563.63" width="1.58" height="96.36" transform="translate(-300.94 577.83) rotate(-49.97)"/><path class="cls-9" d="M417.33,449.09h69a0,0,0,0,1,0,0v49.73a34.52,34.52,0,0,1-34.52,34.52h0a34.52,34.52,0,0,1-34.52-34.52V449.09A0,0,0,0,1,417.33,449.09Z"/><path class="cls-2" d="M451.84,534.75a36,36,0,0,1-35.93-35.93l2-89.68h67.77l2,89.65A36,36,0,0,1,451.84,534.75ZM420.72,412l-2,86.88a33.13,33.13,0,0,0,33.1,33.07h0A33.14,33.14,0,0,0,485,498.82L483,412Z"/><path class="cls-2" d="M468.51,468.18a3.39,3.39,0,1,1,3.39-3.39A3.39,3.39,0,0,1,468.51,468.18Zm0-5.71a2.32,2.32,0,1,0,2.32,2.32A2.32,2.32,0,0,0,468.51,462.47Z"/><path class="cls-2" d="M457.08,502.21a5.77,5.77,0,1,1,5.76-5.77A5.78,5.78,0,0,1,457.08,502.21Zm0-10.46a4.7,4.7,0,1,0,4.69,4.69A4.7,4.7,0,0,0,457.08,491.75Z"/><path class="cls-2" d="M434.21,481.34a3.24,3.24,0,1,1,3.23-3.24A3.24,3.24,0,0,1,434.21,481.34Zm0-5.4a2.17,2.17,0,1,0,2.16,2.16A2.17,2.17,0,0,0,434.21,475.94Z"/><rect class="cls-2" x="450.43" y="534.7" width="2.83" height="105.42"/><path class="cls-2" d="M488.28,642.6H415.41a2.49,2.49,0,1,1,0-5h72.87a2.49,2.49,0,0,1,0,5Z"/><path class="cls-10" d="M522.47,486.16h61.62a0,0,0,0,1,0,0V514a30.81,30.81,0,0,1-30.81,30.81h0A30.81,30.81,0,0,1,522.47,514V486.16A0,0,0,0,1,522.47,486.16Z"/><path class="cls-2" d="M553.28,546.06A32.11,32.11,0,0,1,521.2,514L523,433.93h60.5l1.82,80A32.11,32.11,0,0,1,553.28,546.06ZM525.5,436.46,523.73,514a29.55,29.55,0,0,0,59.1,0l-1.77-77.53Z"/><path class="cls-2" d="M564.45,498a2.49,2.49,0,1,1,2.49-2.49A2.49,2.49,0,0,1,564.45,498Zm0-4.67a2.19,2.19,0,1,0,2.19,2.18A2.19,2.19,0,0,0,564.45,493.31Z"/><path class="cls-2" d="M540.37,504.38a2.71,2.71,0,1,1,2.71-2.71A2.71,2.71,0,0,1,540.37,504.38Zm0-4.82a2.11,2.11,0,1,0,2.11,2.11A2.12,2.12,0,0,0,540.37,499.56Z"/><rect class="cls-2" x="552.02" y="546.01" width="2.53" height="94.1"/><path class="cls-2" d="M585.8,642.34h-65a2.23,2.23,0,1,1,0-4.45h65a2.23,2.23,0,1,1,0,4.45Z"/><path class="cls-11" d="M553.73,543.62a13.4,13.4,0,1,1,12.14-7.69A13.4,13.4,0,0,1,553.73,543.62Zm0-24.08a10.88,10.88,0,0,0-3.63.63,10.68,10.68,0,1,0,3.63-.63Z"/><polygon class="cls-11" points="558.88 519.33 568.55 514.25 556.92 508.78 558.88 519.33"/><path class="cls-11" d="M560.42,507.46l7.39,3.48.18,2.49-10-4.68,2.38-1.29m0-.56-3.48,1.88,11.63,5.47-.26-3.64-7.89-3.71Z"/><polygon class="cls-11" points="562.7 511.56 561.34 507.91 561.81 507.73 563.01 510.96 566.78 510.02 566.91 510.51 562.7 511.56"/><rect class="cls-1" x="271.76" y="556.92" width="126.44" height="91.34"/><rect class="cls-2" x="310.59" y="586.73" width="48.78" height="1.34"/><rect class="cls-2" x="319.16" y="596.41" width="31.65" height="3.35"/><rect class="cls-2" x="293.67" y="612.81" width="82.62" height="2.01"/><rect class="cls-2" x="293.67" y="623.99" width="82.62" height="2.01"/><path class="cls-12" d="M321.08,576.38l-2.58.38a3.36,3.36,0,0,0-.42-1.4,3,3,0,0,0-1.07-.9c-.29.86-.52,1.61-.69,2.26l-2.37.21q1.47-4.65,2.52-7.69a6.77,6.77,0,0,0-.79.18l.22-2.18a12.67,12.67,0,0,1,1.9-.29,11.68,11.68,0,0,1,3.57.08c1.34.34,1.84,1.12,1.51,2.35a5.26,5.26,0,0,1-1.31,2.24,7.17,7.17,0,0,1-2.14,1.62A3.79,3.79,0,0,1,321.08,576.38Zm-.77-6.35c.12-.49-.07-.78-.59-.89a6,6,0,0,0-1.37,0l.28.19-.82,2.48a3.91,3.91,0,0,0,1.47-.56A2.12,2.12,0,0,0,320.31,570Z"/><path class="cls-12" d="M325.69,573.78a1.63,1.63,0,0,1-.55.84,1.59,1.59,0,0,1-.89.4.79.79,0,0,1-.72-.26.83.83,0,0,1-.13-.78,1.65,1.65,0,0,1,.56-.84,1.68,1.68,0,0,1,.91-.4.83.83,0,0,1,.71.26A.8.8,0,0,1,325.69,573.78Z"/><path class="cls-12" d="M334.32,566.83l-.8,2.44-.07,0-.5,0-.48,0c-.59,0-.92.2-1,.46q0,.06.36,1.62a5.7,5.7,0,0,1,.12,2.68,3.82,3.82,0,0,1-2.25,2.4,9.11,9.11,0,0,1-3.08.78l.39-2.62a7.94,7.94,0,0,0,1.84-.43,1,1,0,0,0,.29-.14.52.52,0,0,0,.12-.26,2.82,2.82,0,0,0-.12-1.27c-.1-.42-.21-.83-.33-1.25a3.12,3.12,0,0,1-.06-1.53,3.85,3.85,0,0,1,.85-1.51,4.27,4.27,0,0,1,1.42-1.1,4.77,4.77,0,0,1,1.53-.37A10.49,10.49,0,0,1,334.32,566.83Z"/><path class="cls-12" d="M335.61,573.78a1.69,1.69,0,0,1-.55.84,1.59,1.59,0,0,1-.89.4.79.79,0,0,1-.72-.26.8.8,0,0,1-.13-.78,1.59,1.59,0,0,1,.56-.84,1.65,1.65,0,0,1,.9-.4.82.82,0,0,1,.71.26A.8.8,0,0,1,335.61,573.78Z"/><path class="cls-12" d="M346,566.85q-1.1,1.71-2.44,4.35-1.69,3.28-2.64,5.53a10.85,10.85,0,0,0-2,0c-.26,0-.55.06-.87.11,0-1.31.11-2.79.26-4.43.17-1.88.37-3.64.61-5.28l2.28-.07a53.38,53.38,0,0,0-.58,5.5,56.54,56.54,0,0,1,2.87-5.59Z"/><path class="cls-12" d="M346.23,573.78a1.71,1.71,0,0,1-.56.84,1.59,1.59,0,0,1-.89.4.79.79,0,0,1-.72-.26.83.83,0,0,1-.13-.78,1.67,1.67,0,0,1,.57-.84,1.65,1.65,0,0,1,.9-.4.83.83,0,0,1,.71.26A.8.8,0,0,1,346.23,573.78Z"/><path class="cls-12" d="M356.39,569.5a3.71,3.71,0,0,1-.19.54,6.74,6.74,0,0,1-2.34,2.79,7.67,7.67,0,0,1-3.2,1.27l-.86,2.75-2.22.19q.8-2.46,2.46-7.78a4.16,4.16,0,0,0-.63.16l.24-2.17A8.59,8.59,0,0,1,351,567Q357.2,566.45,356.39,569.5Zm-2.58.66c.21-.79-.38-1.14-1.77-1l.15.09-.87,2.7a4.16,4.16,0,0,0,1.46-.55A2.12,2.12,0,0,0,353.81,570.16Z"/><path class="cls-12" d="M357.44,573.78a1.63,1.63,0,0,1-.55.84,1.59,1.59,0,0,1-.89.4.79.79,0,0,1-.72-.26.83.83,0,0,1-.13-.78,1.79,1.79,0,0,1,1.47-1.24.81.81,0,0,1,.7.26A.8.8,0,0,1,357.44,573.78Z"/><path class="cls-13" d="M271.76,616.59a11.1,11.1,0,1,1-11.09,11.09,11.1,11.1,0,0,1,11.09-11.09m0-4a15.12,15.12,0,1,0,15.12,15.12,15.12,15.12,0,0,0-15.12-15.12Z"/></g></g></svg>