<svg xmlns="http://www.w3.org/2000/svg" xmlns:xlink="http://www.w3.org/1999/xlink" viewBox="0 0 541.82 881.54"><defs><style>.cls-1{isolation:isolate;}.cls-2,.cls-3{fill:#a3cbcc;}.cls-14,.cls-3{mix-blend-mode:multiply;}.cls-4{fill:#fcc74a;}.cls-5{fill:#fff;}.cls-6{fill:none;stroke:#a3cbcc;stroke-linecap:round;stroke-miterlimit:10;stroke-width:6.03px;}.cls-7{opacity:0.25;}.cls-14,.cls-8{fill:#ee2375;}.cls-9{opacity:0.8;}.cls-10{fill:url(#linear-gradient);}.cls-11{fill:#474747;}.cls-12{fill:#f969a4;}.cls-13{fill:url(#linear-gradient-2);}</style><linearGradient id="linear-gradient" x1="270.32" y1="-164.28" x2="270.32" y2="489.18" gradientUnits="userSpaceOnUse"><stop offset="0" stop-color="#f969a4"/><stop offset="1" stop-color="#f969a4" stop-opacity="0"/></linearGradient><linearGradient id="linear-gradient-2" x1="265.77" y1="555.17" x2="265.77" y2="285.97" gradientUnits="userSpaceOnUse"><stop offset="0" stop-color="#fcc74a"/><stop offset="1" stop-color="#fbbc23" stop-opacity="0"/></linearGradient></defs><title>woman-v</title><g class="cls-1"><g id="Layer_1" data-name="Layer 1"><g id="woman"><rect class="cls-2" x="122.52" y="150.58" width="300.07" height="399.39"/><rect class="cls-3" x="122.52" y="186.68" width="300.07" height="363.28"/><path class="cls-4" d="M155.19,61.22H386.63a0,0,0,0,1,0,0V273.91A115.72,115.72,0,0,1,270.91,389.63h0A115.72,115.72,0,0,1,155.19,273.91V61.22a0,0,0,0,1,0,0Z"/><path class="cls-5" d="M277.64,198.28l5.85,66.28.26,2.91,2.8.81a9.62,9.62,0,0,1,6.67,9.36c0,5.35-4.05,9.7-9,9.7H257.62c-5,0-9-4.35-9-9.7a9.62,9.62,0,0,1,6.67-9.36l2.8-.81.26-2.91,5.84-66.28h13.47m3.91-4.27H260.27l-6.19,70.17a13.89,13.89,0,0,0-9.75,13.46c0,7.72,5.95,14,13.29,14H284.2c7.34,0,13.29-6.25,13.29-14a13.88,13.88,0,0,0-9.75-13.46L281.55,194Z" transform="translate(0 0)"/><path class="cls-6" d="M308,298.42" transform="translate(0 0)"/><path class="cls-5" d="M401.89,211.22H127.51a4.75,4.75,0,0,1,0-9.49H401.89a4.75,4.75,0,1,1,0,9.49Z" transform="translate(0 0)"/><path class="cls-2" d="M270.32,10.56c-91.16,0-165.06,77.7-165.06,173.56h59.83l58.17-71.47,64.09,71.47h148C435.38,88.26,361.48,10.56,270.32,10.56Z" transform="translate(0 0)"/><g class="cls-7"><path class="cls-8" d="M368.52,253.66c-19.94,0-36.1,17-36.1,38s16.16,37.95,36.1,37.95a34.37,34.37,0,0,0,4.44-.29,128.15,128.15,0,0,0,15.69-61.72v-7.44A34.71,34.71,0,0,0,368.52,253.66Z" transform="translate(0 0)"/><path class="cls-8" d="M173.3,253.66a34.69,34.69,0,0,0-20.13,6.45v7.44a128.15,128.15,0,0,0,15.69,61.72,34.37,34.37,0,0,0,4.44.29c19.94,0,36.1-17,36.1-37.95S193.24,253.66,173.3,253.66Z" transform="translate(0 0)"/></g><path class="cls-2" d="M223.26,96.45h0c0,51.49,39.69,93.22,88.66,93.22h80.64V96.45Z" transform="translate(0 0)"/><path class="cls-2" d="M235.6,93.64v22.78c0,50.31-38.79,91.1-86.64,91.1h0V93.64Z" transform="translate(0 0)"/><path class="cls-2" d="M382.76,183.69h52.62a0,0,0,0,1,0,0V550a0,0,0,0,1,0,0h0a52.62,52.62,0,0,1-52.62-52.62V183.69A0,0,0,0,1,382.76,183.69Z"/><path class="cls-2" d="M105.34,183.69h53.16a0,0,0,0,1,0,0V588.07a53.16,53.16,0,0,1-53.16,53.16h0a0,0,0,0,1,0,0V183.69A0,0,0,0,1,105.34,183.69Z"/><g class="cls-9"><path class="cls-10" d="M435.37,183.69c-.21-95.65-74-173.13-165-173.13S105.26,88.26,105.26,184.12h.08V641.23h0a53.16,53.16,0,0,0,53.17-53.16V207c36.2-4.17,65.69-31.79,74.44-68.1,14.68,30.16,44.53,50.81,79,50.81h70.84V497.34A52.62,52.62,0,0,0,435.38,550h0V183.69Z" transform="translate(0 0)"/></g><path class="cls-11" d="M286.17,215.85a4.58,4.58,0,0,1-4.58-4.57c0-6.33-4.79-11.47-10.68-11.47s-10.68,5.14-10.68,11.47a4.58,4.58,0,0,1-9.16,0c0-11.38,8.9-20.63,19.84-20.63s19.84,9.25,19.84,20.63A4.58,4.58,0,0,1,286.17,215.85Z" transform="translate(0 0)"/><path class="cls-11" d="M332.32,275.82c-28.86,0-52.34-23.77-52.34-53s23.48-53,52.34-53,52.34,23.77,52.34,53S361.18,275.82,332.32,275.82Zm0-96.81c-23.81,0-43.18,19.66-43.18,43.83s19.37,43.83,43.18,43.83,43.19-19.67,43.19-43.83S356.13,179,332.32,179Z" transform="translate(0 0)"/><path class="cls-11" d="M209.49,275.82c-28.86,0-52.33-23.77-52.33-53s23.47-53,52.33-53,52.34,23.77,52.34,53S238.35,275.82,209.49,275.82Zm0-96.81c-23.81,0-43.18,19.66-43.18,43.83s19.37,43.83,43.18,43.83,43.19-19.67,43.19-43.83S233.31,179,209.49,179Z" transform="translate(0 0)"/><ellipse class="cls-5" cx="331.51" cy="226.63" rx="12.85" ry="13.51"/><path class="cls-5" d="M331.51,204.43c11.61,0,21.05,10,21.05,22.2s-9.44,22.19-21.05,22.19-21.06-10-21.06-22.19,9.45-22.2,21.06-22.2m0-1c-12.2,0-22.09,10.4-22.09,23.23s9.89,23.22,22.09,23.22,22.09-10.4,22.09-23.22-9.89-23.23-22.09-23.23Z" transform="translate(0 0)"/><path class="cls-5" d="M210.31,204.43c11.61,0,21.06,10,21.06,22.2s-9.45,22.19-21.06,22.19-21.06-10-21.06-22.19,9.45-22.2,21.06-22.2m0-1c-12.2,0-22.09,10.4-22.09,23.23s9.89,23.22,22.09,23.22,22.09-10.4,22.09-23.22-9.89-23.23-22.09-23.23Z" transform="translate(0 0)"/><ellipse class="cls-5" cx="210.31" cy="226.63" rx="12.85" ry="13.51"/><path class="cls-12" d="M270.91,328.42a55.14,55.14,0,0,1-34.83-12.37,2.88,2.88,0,1,1,3.61-4.49,49.49,49.49,0,0,0,62.44,0,2.88,2.88,0,1,1,3.61,4.49A55.16,55.16,0,0,1,270.91,328.42Z" transform="translate(0 0)"/><path class="cls-4" d="M398.05,298.42a13.33,13.33,0,1,0,0-26.65v-1a25.9,25.9,0,1,0,0-51.8" transform="translate(0 0)"/><path class="cls-4" d="M144.37,298.42a13.33,13.33,0,1,1,0-26.65v-1a25.9,25.9,0,1,1,0-51.8" transform="translate(0 0)"/><circle class="cls-8" cx="402.95" cy="312.04" r="6.85"/><circle class="cls-8" cx="402.95" cy="334.92" r="10.64"/><circle class="cls-8" cx="138.15" cy="312.04" r="6.85"/><circle class="cls-8" cx="138.15" cy="334.92" r="10.64"/><path class="cls-13" d="M330.5,449l-7.15-88.27H220l-7.95,88a21.58,21.58,0,0,1-11.32,17.09l-52,27.76,60.61,66.8h82L382.76,488l-40.87-21.67A21.57,21.57,0,0,1,330.5,449Z" transform="translate(0 0)"/><path class="cls-12" d="M490.84,566.91a68.83,68.83,0,0,0-32.28-38l-95.24-51.51a137.42,137.42,0,0,1-184.82,0L83.26,528.94a68.83,68.83,0,0,0-32.28,38L0,713.78H541.82Z" transform="translate(0 0)"/><circle class="cls-5" cx="345.14" cy="469.57" r="5.57"/><circle class="cls-5" cx="196" cy="469.57" r="5.57"/><circle class="cls-5" cx="332.77" cy="479.06" r="5.57"/><circle class="cls-5" cx="208.12" cy="479.06" r="5.57"/><circle class="cls-5" cx="318.71" cy="486.97" r="5.57"/><circle class="cls-5" cx="222.4" cy="486.97" r="5.57"/><circle class="cls-5" cx="303.16" cy="493.3" r="5.57"/><circle class="cls-5" cx="237.81" cy="493.3" r="5.57"/><circle class="cls-5" cx="270.36" cy="497.63" r="5.57"/><circle class="cls-5" cx="286.79" cy="496.65" r="5.57"/><circle class="cls-5" cx="253.77" cy="496.65" r="5.57"/><path class="cls-5" d="M178.5,477.43l-22.64,12.24-1.34.73,56.22,55.82a28.84,28.84,0,0,0,45.58-6.57l14.59-26.51A136.92,136.92,0,0,1,178.5,477.43Z" transform="translate(0 0)"/><path class="cls-5" d="M363.32,477.43,386,489.67l1.44.78-56.31,55.77a28.84,28.84,0,0,1-45.58-6.57l-14.59-26.51A136.92,136.92,0,0,0,363.32,477.43Z" transform="translate(0 0)"/><rect class="cls-5" x="269.91" y="513.14" width="2" height="200.64"/><polygon class="cls-8" points="385.89 63.96 365.58 120.35 348.64 113.52 371.75 56.59 385.89 63.96"/><polygon class="cls-8" points="362.69 43.59 374.19 61.66 335.26 87.06 323.41 67.7 362.69 43.59"/><polygon class="cls-14" points="362.69 43.59 374.19 61.66 335.26 87.06 323.41 67.7 362.69 43.59"/><polygon class="cls-14" points="385.89 63.96 365.58 120.35 348.64 113.52 371.75 56.59 385.89 63.96"/><path class="cls-8" d="M388.21,48.41l45.09,3.15c2.18.15,3,2.8,1.58,5l-30.34,46.57c-1.37,2.11-4,2.5-5.1.78l-23.68-36.4Z" transform="translate(0 0)"/><path class="cls-8" d="M360.92,56.59l-45.08-3.15c-2.19-.15-3-2.8-1.59-5L344.59,1.86c1.37-2.11,4-2.5,5.11-.78l23.67,36.4Z" transform="translate(0 0)"/><circle class="cls-8" cx="375.76" cy="52.1" r="15.6"/></g><g id="book"><polygon class="cls-4" points="273.56 881.54 498.45 786.72 498.45 515.52 273.56 595.97 48.68 515.52 48.68 786.72 273.56 881.54"/><path class="cls-5" d="M273.56,629.84a32.93,32.93,0,0,1-32.85-31.41L47.92,525.11l1.52-4,195.5,74.35V597a28.63,28.63,0,0,0,57.25,0v-1.51l195.55-68.69,1.41,4L306.42,598.47A32.94,32.94,0,0,1,273.56,629.84Z" transform="translate(0 0)"/><rect class="cls-5" x="240.68" y="596.95" width="4.27" height="100.73"/><rect class="cls-5" x="303.91" y="596.95" width="4.27" height="207.42"/><path class="cls-5" d="M358,626.07a2.35,2.35,0,0,1,1.27-2.18.78.78,0,0,1,1.18.77,3.11,3.11,0,0,1-.55,1.6c.6.52,2.09.6,4-.13a6.07,6.07,0,0,0,4.16-5.5c0-2.24-1.82-2.53-4-2.61-3-.1-5.37-.44-5.37-3.75a8.2,8.2,0,0,1,5.4-7.26c2.81-1.13,5.13-.21,5.12,1.73a2.16,2.16,0,0,1-1.24,2,.83.83,0,0,1-1.24-.84,3,3,0,0,1,.5-1.44c-.49-.5-2.06-.35-3.19.1a5.67,5.67,0,0,0-3.81,5c0,2.29,1.79,2.55,4.27,2.65,2.86.11,5.06.48,5.06,3.72a8.77,8.77,0,0,1-5.76,7.79C360.26,629.06,358,627.79,358,626.07Z" transform="translate(0 0)"/><path class="cls-5" d="M372.93,617.41a9.93,9.93,0,0,1,5.87-8.95c3.5-1.39,5.86.63,5.85,4.33a9.89,9.89,0,0,1-5.87,9C375.28,623.11,372.92,621.09,372.93,617.41Zm10.24-4c0-3.06-1.78-4.54-4.37-3.52a7.56,7.56,0,0,0-4.39,7c0,3.07,1.78,4.52,4.37,3.51A7.48,7.48,0,0,0,383.17,613.38Z" transform="translate(0 0)"/><path class="cls-5" d="M391.05,606.38c1.08-2,2.84-3.92,4.47-4.56s2.56-.41,3.1.42a4.56,4.56,0,0,1,.54,2.53l0,7.36,1.93-.75v1.42l-5.25,2.05v-1.41l1.93-.76,0-7.14a3.79,3.79,0,0,0-.3-1.76c-.38-.71-1.09-.83-2.17-.4-1.65.65-3.11,2.4-4.19,4.3l0,7.61,1.92-.76V616l-5.25,2v-1.41l1.93-.75,0-10.06-1.93.77v-1.41l3.27-1.3Z" transform="translate(0 0)"/><path class="cls-5" d="M407,600.07c1.08-2,2.85-4,4.47-4.59s2.56-.4,3.1.44a4.61,4.61,0,0,1,.54,2.55l0,7.43,1.93-.75v1.43l-5.25,2V607.2l1.93-.75,0-7.21a3.88,3.88,0,0,0-.3-1.78c-.38-.71-1.09-.83-2.17-.41-1.65.66-3.11,2.42-4.19,4.33l0,7.68,1.92-.76v1.43l-5.26,2v-1.42l1.93-.76,0-10.14-1.92.76V598.8l3.28-1.3Z" transform="translate(0 0)"/><path class="cls-5" d="M420.82,598.92c.2,3.22,1.95,4.19,4.73,3.1a10.8,10.8,0,0,0,4-3l-.15,1.68a11,11,0,0,1-4,2.9c-3.66,1.42-6-.45-6-4.41,0-3.58,2.13-7.66,5.62-9s5.14.93,5.12,4.13a5.14,5.14,0,0,1-.09,1.07Zm0-1.42,7.79-3.07c-.15-2.5-1.41-3.79-3.83-2.83A7.12,7.12,0,0,0,420.85,597.5Z" transform="translate(0 0)"/><path class="cls-5" d="M434.69,598.48a3.76,3.76,0,0,1-.27-1.59l.05-8.87-2.09.83v-1.44l2.09-.84,0-3.42,1.41-1.13,0,4,3.58-1.43V586l-3.58,1.42-.06,8.72a2.47,2.47,0,0,0,.16,1c.22.38.66.43,1.43.13a6.89,6.89,0,0,0,2.12-1.68l-.23,1.76A6.71,6.71,0,0,1,437,599C435.83,599.48,435.07,599.27,434.69,598.48Z" transform="translate(0 0)"/><path class="cls-5" d="M450.09,584.13c-.6.24-1.09-.07-1.09-.8a2,2,0,0,1,.2-.9,3.43,3.43,0,0,0-2.23.32,4.19,4.19,0,0,0-2.82,3.32c0,1.33,1.2,1.26,3.18,1s4.26-.35,4.24,2.35c0,2.41-2.12,4.69-4.54,5.64-1.65.64-3.24.69-4,.09a1.62,1.62,0,0,1-.62-1.37,1.89,1.89,0,0,1,1-1.69c.69-.27,1.07.12,1.06.75a2.45,2.45,0,0,1-.25,1c.33.28,1.37.38,2.8-.18,1.79-.7,3.17-2.15,3.18-3.61s-1.33-1.44-2.93-1.26c-2.61.31-4.53.37-4.51-2.16,0-2,1.73-4.34,4.26-5.35,1.63-.65,2.86-.6,3.52-.1a1.41,1.41,0,0,1,.56,1.23A1.76,1.76,0,0,1,450.09,584.13Z" transform="translate(0 0)"/><polygon class="cls-5" points="355.81 780.4 353.81 780.4 353.81 654.51 354.46 654.27 461.54 614.03 461.54 742.4 459.54 742.4 459.54 616.92 355.81 655.89 355.81 780.4"/></g></g></g></svg>