<svg xmlns="http://www.w3.org/2000/svg" xmlns:xlink="http://www.w3.org/1999/xlink" viewBox="0 0 197.56 288.65"><defs><style>.cls-1{isolation:isolate;}.cls-2,.cls-3{fill:#a3cbcc;}.cls-3{mix-blend-mode:multiply;}.cls-4{fill:url(#linear-gradient);}.cls-5{fill:#fcc74a;}.cls-6{fill:#fff;}.cls-13,.cls-14,.cls-15,.cls-16,.cls-17,.cls-18,.cls-7{fill:none;}.cls-7{stroke:#fff;stroke-width:2.22px;}.cls-13,.cls-14,.cls-15,.cls-7{stroke-linecap:round;}.cls-13,.cls-14,.cls-15,.cls-16,.cls-18,.cls-7{stroke-miterlimit:10;}.cls-8{opacity:0.39;}.cls-9{fill:#40bead;}.cls-10{fill:#474747;}.cls-11{fill:#f969a4;}.cls-12{fill:url(#linear-gradient-2);}.cls-13,.cls-15{stroke:#474747;}.cls-13{stroke-width:2.59px;}.cls-14{stroke:#a3cbcc;stroke-width:1.35px;}.cls-15{stroke-width:7.8px;}.cls-16,.cls-17,.cls-18{stroke:#fcc74a;}.cls-16{stroke-width:1.64px;}.cls-17{stroke-linejoin:bevel;}.cls-17,.cls-18{stroke-width:0.82px;}</style><linearGradient id="linear-gradient" x1="109.27" y1="219.58" x2="109.27" y2="140.73" gradientUnits="userSpaceOnUse"><stop offset="0" stop-color="#fcc74a"/><stop offset="1" stop-color="#fbbc23" stop-opacity="0"/></linearGradient><linearGradient id="linear-gradient-2" x1="109.06" y1="-31.77" x2="109.06" y2="173.78" gradientUnits="userSpaceOnUse"><stop offset="0" stop-color="#f969a4"/><stop offset="1" stop-color="#f969a4" stop-opacity="0"/></linearGradient></defs><title>Untitled-1</title><g class="cls-1"><g id="Layer_1" data-name="Layer 1"><rect class="cls-2" x="56.31" y="87.62" width="107.1" height="142.55"/><rect class="cls-3" x="56.31" y="100.51" width="107.1" height="129.67"/><polygon class="cls-4" points="91.1 162.62 85.82 221.08 132.72 221.08 127.99 162.62 91.1 162.62"/><path class="cls-5" d="M68,55.73h82.61a0,0,0,0,1,0,0v84.61A32.61,32.61,0,0,1,118,172.95h-17.4A32.61,32.61,0,0,1,68,140.34V55.73A0,0,0,0,1,68,55.73Z"/><path class="cls-6" d="M112.15,104.13l2.13,24.13.06.68.66.19a4,4,0,0,1,2.75,3.84,3.88,3.88,0,0,1-3.74,4h-9.49a3.88,3.88,0,0,1-3.74-4,4,4,0,0,1,2.76-3.84l.66-.19.06-.68,2.12-24.13h5.77m.92-1h-7.6l-2.21,25a5,5,0,0,0-3.48,4.8,4.87,4.87,0,0,0,4.74,5H114a4.87,4.87,0,0,0,4.74-5,5,5,0,0,0-3.47-4.8l-2.21-25Z"/><line class="cls-7" x1="58.09" y1="107.57" x2="156.02" y2="107.57"/><path class="cls-2" d="M109.06,37.65c-32.54,0-58.92,27.73-58.92,61.94H71.5l20.76-25.5,22.87,25.5H168C168,65.38,141.59,37.65,109.06,37.65Z"/><g class="cls-8"><path class="cls-2" d="M143.51,124.65c-7,0-12.66,6-12.66,13.31s5.66,13.32,12.66,13.32a11.46,11.46,0,0,0,1.56-.11,45,45,0,0,0,5.5-21.65v-2.61A12.17,12.17,0,0,0,143.51,124.65Z"/><path class="cls-2" d="M75,124.65A12.18,12.18,0,0,0,68,126.91v2.61a44.85,44.85,0,0,0,5.51,21.65,11.46,11.46,0,0,0,1.56.11c7,0,12.66-6,12.66-13.32S82,124.65,75,124.65Z"/></g><path class="cls-2" d="M92.26,68.3h0c0,18.38,14.17,33.28,31.64,33.28h28.79V68.3Z"/><path class="cls-2" d="M96.66,67.3v8.13c0,18-13.84,32.52-30.92,32.52h0V67.3Z"/><polygon class="cls-9" points="184.64 227.21 131.59 198.52 109.86 218.58 86.95 198.52 33.9 227.21 33.63 290.08 108.34 288.64 110.19 288.64 182.29 292.08 184.64 227.21"/><polygon class="cls-10" points="138.37 202.09 190.4 229.95 189.56 342.02 138.37 341.77 138.37 202.09"/><polygon class="cls-10" points="79.19 202.34 27.4 226.45 27.4 340.6 77.75 340.1 79.19 202.34"/><rect class="cls-11" x="82.72" y="230.28" width="2.91" height="109.83"/><rect class="cls-11" x="131" y="215.51" width="2.12" height="124.59"/><rect class="cls-10" x="121.15" y="239.23" width="5.1" height="100.87"/><rect class="cls-10" x="90.14" y="267.42" width="7.36" height="72.69"/><path class="cls-2" d="M146.4,99.44H168a0,0,0,0,1,0,0V230.18a0,0,0,0,1,0,0h-4.54a17,17,0,0,1-17-17V99.44a0,0,0,0,1,0,0Z"/><path class="cls-2" d="M50.17,99.44H71.5a0,0,0,0,1,0,0V245.92a16.83,16.83,0,0,1-16.83,16.83H50.17a0,0,0,0,1,0,0V99.44A0,0,0,0,1,50.17,99.44Z"/><path class="cls-12" d="M168,99.44c-.08-34.14-26.42-61.79-58.91-61.79S50.14,65.38,50.14,99.59h0V262.75A21.33,21.33,0,0,0,71.5,241.43V107.36c11.85-2.35,21.28-11.8,24.2-24,5.22,10.79,15.89,18.2,28.2,18.2h22.5v107A21.58,21.58,0,0,0,168,230.18h0V99.44Z"/><path class="cls-13" d="M103.82,109.29a5.45,5.45,0,1,1,10.89,0"/><ellipse class="cls-13" cx="131.19" cy="113.41" rx="17.05" ry="17.28"/><ellipse class="cls-13" cx="87.35" cy="113.41" rx="17.05" ry="17.28"/><ellipse class="cls-6" cx="130.9" cy="114.77" rx="4.59" ry="4.82"/><path class="cls-6" d="M130.9,106.72a8.06,8.06,0,1,1-7.65,8,7.86,7.86,0,0,1,7.65-8m0-.24a8.3,8.3,0,1,0,7.88,8.29,8.09,8.09,0,0,0-7.88-8.29Z"/><path class="cls-6" d="M87.64,106.72a8.06,8.06,0,1,1-7.64,8,7.86,7.86,0,0,1,7.64-8m0-.24a8.3,8.3,0,1,0,7.88,8.29,8.09,8.09,0,0,0-7.88-8.29Z"/><ellipse class="cls-6" cx="87.64" cy="114.77" rx="4.59" ry="4.82"/><path class="cls-14" d="M97.48,145.88a18.67,18.67,0,0,0,23.57,0"/><line class="cls-15" x1="193.67" y1="6.05" x2="5.4" y2="43.18"/><path class="cls-10" d="M79.3,68a52.23,52.23,0,0,1,28.77,8.59h1.71a52.47,52.47,0,0,1,57.54,0h.13a59.39,59.39,0,0,0-117,0h.13A52.18,52.18,0,0,1,79.3,68Z"/><line class="cls-16" x1="27.47" y1="26.76" x2="27.47" y2="157.71"/><circle class="cls-16" cx="27.47" cy="160.76" r="3.84"/><polyline class="cls-17" points="21.71 180.85 27.47 164.59 32.94 179.19"/><line class="cls-18" x1="26.11" y1="179.66" x2="27.47" y2="164.59"/><line class="cls-18" x1="29.85" y1="177.51" x2="27.33" y2="164.99"/></g></g></svg>