<svg id="Layer_1" data-name="Layer 1" xmlns="http://www.w3.org/2000/svg" xmlns:xlink="http://www.w3.org/1999/xlink" viewBox="0 0 182.92 237.41"><defs><style>.cls-1{fill:#a3cbcc;}.cls-2{fill:#474747;opacity:0.51;}.cls-3{fill:url(#linear-gradient);}.cls-4{fill:#fff;}.cls-5{fill:#40bead;}.cls-10,.cls-11,.cls-6{fill:none;stroke-miterlimit:10;}.cls-6{stroke:#40bead;stroke-width:2.6px;}.cls-7{opacity:0.39;}.cls-8{fill:#f969a4;}.cls-9{fill:#fbbc23;}.cls-10{stroke:#474747;stroke-width:3.74px;}.cls-10,.cls-11{stroke-linecap:round;}.cls-11{stroke:#a3cbcc;stroke-width:1.95px;}</style><linearGradient id="linear-gradient" x1="91.46" y1="196.03" x2="91.46" y2="95.18" gradientUnits="userSpaceOnUse"><stop offset="0" stop-color="#fff"/><stop offset="1" stop-color="#fff" stop-opacity="0"/></linearGradient></defs><title>Untitled-1</title><rect class="cls-1" x="41.37" y="47.27" width="101.3" height="134.84"/><rect class="cls-2" x="41.37" y="59.46" width="101.3" height="149.99"/><polygon class="cls-3" points="74.28 118.21 69.28 209.45 113.64 209.45 109.17 118.21 74.28 118.21"/><path class="cls-4" d="M52.39,17.1h78.14a0,0,0,0,1,0,0V88.91A39.07,39.07,0,0,1,91.46,128h0A39.07,39.07,0,0,1,52.39,88.91V17.1A0,0,0,0,1,52.39,17.1Z"/><path class="cls-5" d="M97.14,87.89l-1.07-23.7H86.85l-1.07,23.7a4.67,4.67,0,0,0-3.29,4.54A4.61,4.61,0,0,0,87,97.15h9a4.61,4.61,0,0,0,4.48-4.72A4.67,4.67,0,0,0,97.14,87.89Z"/><line class="cls-6" x1="43.05" y1="66.14" x2="135.68" y2="66.14"/><g class="cls-7"><path class="cls-1" d="M123.85,82.29c-6.62,0-12,5.64-12,12.6s5.36,12.59,12,12.59a11.83,11.83,0,0,0,1.47-.1,42.46,42.46,0,0,0,5.21-20.48V84.43A11.53,11.53,0,0,0,123.85,82.29Z"/><path class="cls-1" d="M59.07,82.29a11.53,11.53,0,0,0-6.68,2.14V86.9a42.46,42.46,0,0,0,5.21,20.48,11.83,11.83,0,0,0,1.47.1c6.62,0,12-5.64,12-12.59S65.69,82.29,59.07,82.29Z"/></g><polygon class="cls-8" points="162.75 179.3 110.83 152.16 92.02 206.06 72.42 152.16 20.17 179.3 0 237.41 90.59 237.41 92.33 237.41 182.92 237.41 162.75 179.3"/><path class="cls-9" d="M147,58.45C146.91,26.16,122,0,91.26,0S35.54,26.23,35.54,58.59h0V204.87h0A20.18,20.18,0,0,0,55.74,184.7V66C66.93,63.74,75.88,54.81,78.65,43.3c4.95,10.19,15,17.17,26.66,17.17h21.27V202.72A20.4,20.4,0,0,0,147,223.12V58.45Z"/><path class="cls-10" d="M86.31,68.89a5.16,5.16,0,1,1,10.3,0"/><ellipse class="cls-10" cx="112.2" cy="72.8" rx="16.12" ry="16.34"/><ellipse class="cls-10" cx="70.73" cy="72.8" rx="16.12" ry="16.34"/><ellipse class="cls-5" cx="111.92" cy="72.95" rx="4.34" ry="4.56"/><path class="cls-5" d="M111.92,65.45a7.51,7.51,0,1,1-7.11,7.5,7.32,7.32,0,0,1,7.11-7.5m0-.35A7.85,7.85,0,1,0,119.38,73a7.66,7.66,0,0,0-7.46-7.85Z"/><path class="cls-5" d="M71,65.45A7.51,7.51,0,1,1,63.89,73,7.32,7.32,0,0,1,71,65.45m0-.35A7.85,7.85,0,1,0,78.46,73,7.66,7.66,0,0,0,71,65.1Z"/><ellipse class="cls-5" cx="71" cy="72.95" rx="4.34" ry="4.56"/><path class="cls-11" d="M80.31,102.38a17.68,17.68,0,0,0,22.3,0"/></svg>