<svg xmlns="http://www.w3.org/2000/svg" xmlns:xlink="http://www.w3.org/1999/xlink" viewBox="0 0 155.94 240.92"><defs>
	<style>
		.cls-1{isolation:isolate;}
		.cls-2,
		.cls-3{fill:#a3cbcc;}
		.cls-3{mix-blend-mode:multiply;}
		.cls-4{fill:url(#linear-gradient);}
		.cls-5{fill:#fcc74a;}
		.cls-6{fill:#fff;}
		.cls-11,.cls-12,.cls-13,.cls-7{fill:none;stroke-miterlimit:10;}
		.cls-13,.cls-7{stroke:#fff;}
		.cls-11,.cls-12,.cls-7{stroke-linecap:round;}
		.cls-7{stroke-width:2.22px;}
		.cls-8{opacity:0.39;}
		.cls-9{fill:#40bead;}
		.cls-10{fill:url(#linear-gradient-2);}
		.cls-11{stroke:#474747;stroke-width:2.59px;}
		.cls-12{stroke:#a3cbcc;stroke-width:1.35px;}
		.cls-14{fill:#fbc649;}
	</style>
	<linearGradient id="linear-gradient" x1="77.97" y1="146.7" x2="77.97" y2="83.12" gradientUnits="userSpaceOnUse"><stop offset="0" stop-color="#fcc74a"/><stop offset="1" stop-color="#fbbc23" stop-opacity="0"/></linearGradient><linearGradient id="linear-gradient-2" x1="77.8" y1="-55.97" x2="77.8" y2="109.77" gradientUnits="userSpaceOnUse"><stop offset="0" stop-color="#f969a4"/><stop offset="1" stop-color="#f969a4" stop-opacity="0"/></linearGradient></defs><title>girl</title><g class="cls-1"><g id="Layer_1" data-name="Layer 1"><rect class="cls-2" x="35.26" y="40.3" width="86.36" height="114.95"/><rect class="cls-3" x="35.26" y="50.69" width="86.36" height="104.56"/><polygon class="cls-4" points="63.32 100.77 59.06 147.91 96.88 147.91 93.06 100.77 63.32 100.77"/><path class="cls-5" d="M44.66,14.58h66.61a0,0,0,0,1,0,0V75.79A33.31,33.31,0,0,1,78,109.1h0A33.31,33.31,0,0,1,44.66,75.79V14.58A0,0,0,0,1,44.66,14.58Z"/><path class="cls-6" d="M80.12,53.8l1.7,19.28.06.68.66.19a3,3,0,0,1,2.08,2.92,2.94,2.94,0,0,1-2.83,3H74.14a2.94,2.94,0,0,1-2.82-3A3,3,0,0,1,73.4,74l.66-.19.06-.68,1.7-19.28h4.3m.91-1H74.91L73.12,73a4,4,0,0,0-2.8,3.88,3.92,3.92,0,0,0,3.82,4h7.65a3.93,3.93,0,0,0,3.83-4A4,4,0,0,0,82.81,73L81,52.8Z"/><line class="cls-7" x1="36.7" y1="56.39" x2="115.67" y2="56.39"/><path class="cls-2" d="M77.8,0C51.56,0,30.29,22.36,30.29,50H47.51L64.26,29.38,82.7,50h42.61C125.31,22.36,104,0,77.8,0Z"/><g class="cls-8"><path class="cls-2" d="M105.58,70.15a10.74,10.74,0,1,0,1.26,21.39,36.33,36.33,0,0,0,4.44-17.46V72A9.85,9.85,0,0,0,105.58,70.15Z"/><path class="cls-2" d="M50.36,70.15A9.85,9.85,0,0,0,44.66,72v2.1A36.22,36.22,0,0,0,49.1,91.54a10.71,10.71,0,1,0,1.26-21.39Z"/></g><path class="cls-2" d="M64.26,24.72h0c0,14.82,11.42,26.83,25.51,26.83H113V24.72Z"/><path class="cls-2" d="M67.81,23.91v6.56c0,14.48-11.17,26.22-24.94,26.22h0V23.91Z"/><polygon class="cls-9" points="138.74 152.85 95.97 129.72 78.44 145.89 59.97 129.72 17.2 152.85 0 202.39 77.23 202.39 78.71 202.39 155.94 202.39 138.74 152.85"/><path class="cls-2" d="M107.91,49.83h17.4a0,0,0,0,1,0,0V155.25a0,0,0,0,1,0,0h0a17.4,17.4,0,0,1-17.4-17.4v-88A0,0,0,0,1,107.91,49.83Z"/><path class="cls-2" d="M30.32,49.83H47.51a0,0,0,0,1,0,0V164.32a17.19,17.19,0,0,1-17.19,17.19h0a0,0,0,0,1,0,0V49.83A0,0,0,0,1,30.32,49.83Z"/><path class="cls-10" d="M125.3,49.83C125.24,22.3,104,0,77.8,0S30.29,22.36,30.29,50h0V181.51a17.19,17.19,0,0,0,17.19-17.19V56.21A25.51,25.51,0,0,0,67,36.87,25.39,25.39,0,0,0,89.77,51.55h18.14v86.3a17.4,17.4,0,0,0,17.4,17.4h0V49.83Z"/><path class="cls-11" d="M73.58,57.77a4.4,4.4,0,1,1,8.78,0"/><ellipse class="cls-11" cx="95.65" cy="61.09" rx="13.75" ry="13.93"/><ellipse class="cls-11" cx="60.29" cy="61.09" rx="13.75" ry="13.93"/><ellipse class="cls-6" cx="95.41" cy="62.19" rx="3.7" ry="3.89"/><path class="cls-6" d="M95.41,55.74a6.45,6.45,0,1,1-6.12,6.45,6.3,6.3,0,0,1,6.12-6.45m0-.24a6.69,6.69,0,1,0,6.36,6.69,6.53,6.53,0,0,0-6.36-6.69Z"/><path class="cls-6" d="M60.53,55.74a6.45,6.45,0,1,1-6.12,6.45,6.29,6.29,0,0,1,6.12-6.45m0-.24a6.69,6.69,0,1,0,6.36,6.69,6.53,6.53,0,0,0-6.36-6.69Z"/><ellipse class="cls-6" cx="60.53" cy="62.19" rx="3.7" ry="3.89"/><path class="cls-12" d="M68.47,87.28a15.08,15.08,0,0,0,19,0"/><polyline class="cls-13" points="95.97 129.72 95.97 145.89 60.29 145.89 60.29 129.72"/><line class="cls-13" x1="78.44" y1="145.89" x2="78.44" y2="202.39"/><polygon class="cls-14" points="78.44 240.92 141.29 214.42 141.29 138.63 78.44 161.11 15.6 138.63 15.6 214.42 78.44 240.92"/><path class="cls-13" d="M141.29,142.33,87,161.38a8.6,8.6,0,1,1-17.19,0L15.6,140.75"/><line class="cls-13" x1="69.85" y1="161.38" x2="69.85" y2="189.53"/><line class="cls-13" x1="87.52" y1="161.38" x2="87.52" y2="219.35"/></g></g></svg>
